<?xml version="1.0" encoding="UTF-8"?>
<svg width="134px" height="141px" viewBox="0 0 134 141" version="1.1" xmlns="http://www.w3.org/2000/svg" xmlns:xlink="http://www.w3.org/1999/xlink">
    <!-- Generator: Sketch 52.5 (67469) - http://www.bohemiancoding.com/sketch -->
    <title>Shape</title>
    <desc>Created with Sketch.</desc>
    <g id="Landing" stroke="none" stroke-width="1" fill="none" fill-rule="evenodd" fill-opacity="0.148607337" stroke-dasharray="5,5">
        <g id="2nd-Fold-Home-Landing" transform="translate(-1129.000000, -470.000000)" fill="#FFFFFF" fill-rule="nonzero" stroke="#FFFFFF">
            <g id="Group-5" transform="translate(83.000000, 110.000000)">
                <g id="Group-3" transform="translate(856.000000, 361.000000)">
                    <path d="M323.158042,38.4997916 C323.198486,38.2773453 322.850039,38.0968994 322.772261,37.8620086 C322.669593,37.5337837 322.714705,37.1806697 322.689816,36.8353335 C321.165359,36.3157737 319.175787,36.2986625 317.704219,36.6191095 C317.512884,35.9299928 318.407336,35.8133252 318.726228,35.4695446 C319.080897,35.089986 319.012452,35.4617668 318.922229,35.0184298 C318.942452,35.1195417 318.566004,34.8908732 318.531782,34.8333172 C318.466448,34.7197607 318.600227,34.4833143 318.545782,34.3604244 C318.079111,33.3337494 318.074445,34.3402021 317.37755,34.0073105 C316.703989,33.6853078 317.344883,33.050636 317.295105,32.6695218 C316.699322,32.5046315 315.356867,32.1981846 314.750195,32.391075 C313.930411,32.6539661 314.073523,33.483084 313.642631,34.0010882 C312.634622,35.2190981 310.774163,33.2793045 309.546819,34.1924231 C309.16415,34.4770921 308.991482,34.9297624 308.695924,35.2859876 C308.316365,35.7448802 308.280587,35.6873242 307.748583,35.8973259 C306.997243,36.1928838 306.228792,36.4308858 305.477453,36.7279993 C304.665446,37.0500019 304.29211,37.3035596 303.845662,38.0486768 C303.464548,38.6895709 303.004099,38.9617953 302.450317,39.4704661 C302.142315,39.752024 301.848312,40.1082491 301.585421,40.4193628 C302.724097,41.4242599 299.093401,42.2984892 298.472729,42.4804907 C297.794501,42.681159 296.789604,43.2271635 297.999836,43.5429438 C298.251838,43.6082777 298.902066,43.3811647 299.035845,43.4418319 C299.550738,43.6751671 299.200735,44.0733926 299.326736,44.5867301 C299.476071,45.199624 300.409412,45.6818502 299.896074,46.2869662 C299.396737,46.8765266 298.094726,46.4876345 297.433609,46.5716352 C296.679159,46.6680804 295.96982,46.9931942 295.184258,47.1363065 C294.179361,47.3198635 293.785802,47.1145285 292.896017,46.8765266 C292.029565,46.6463025 291.763563,46.9449716 291.066669,47.4925316 C290.459997,47.9669799 290.075772,48.0447583 289.38821,48.2889825 C288.848428,47.8472012 287.88242,47.6091992 287.188637,47.5189763 C286.300407,47.4023086 285.553735,47.797423 285.115064,46.9449716 C284.933063,46.5934132 284.975063,46.3523001 284.942396,45.9074076 C284.901952,45.3722921 284.715283,45.2431799 284.558171,44.7733983 C284.317058,44.0547258 285.08862,43.1338294 284.754173,42.4991575 C284.425948,41.8722635 283.201716,42.4027123 282.669711,42.7153815 C281.884149,43.1742741 282.055262,44.1760601 282.002372,45.0596229 C281.918372,46.4471897 282.84549,48.6265409 281.935483,49.7154386 C281.657036,50.0467747 281.058142,50.5647789 280.776585,49.9783297 L280.776585,49.88344 C280.756362,49.8647732 280.356581,49.7201053 280.113913,49.7885503 C279.840133,49.8663288 279.773243,50.1292198 279.571019,50.1929981 C279.166571,50.3252214 278.320342,50.4496668 277.934561,50.2614431 C277.707448,50.1541089 277.796116,49.7698835 277.562781,49.7107719 C277.069665,49.5816598 277.072777,49.9238848 276.707218,50.0716638 C276.234325,50.2598875 275.566987,50.452778 275.019427,50.3376659 C274.574534,49.0729889 272.762297,50.2225539 272.068514,49.3483245 C272.023402,49.5785486 271.861623,49.7527723 271.766733,49.9643296 C271.284507,49.7372166 271.163173,49.0449887 270.819392,48.8614317 C270.447611,48.6669856 269.618494,49.1741009 269.058489,49.108767 C268.860932,48.355872 267.560477,48.9392101 267.026917,48.676319 C266.972472,48.6498744 266.312911,48.0587584 266.316022,48.0649807 C265.793351,46.8018593 265.805796,46.2325213 264.289117,46.0660755 C263.263997,45.9540746 262.204655,46.0707422 261.185758,46.1920765 C260.101527,46.3227443 259.871303,46.9807497 258.839961,46.5483017 C258.023288,46.2045211 256.949946,46.305633 257.007502,45.1638459 C256.677721,45.142068 256.192384,45.2525133 255.882826,45.152957 C255.585712,45.0565117 255.397489,44.7609538 255.105042,44.6038414 C254.37548,44.2071715 253.672363,44.7065089 252.945913,44.493396 C252.639466,44.4016175 252.32213,44.0469479 252.071684,43.8509463 C251.928571,43.7389454 252.011017,43.5258326 251.819682,43.4387207 C251.664125,43.3702757 251.409012,43.5087213 251.248788,43.4464986 C250.662339,43.2193856 250.205002,42.9004941 249.999667,42.2331554 C248.895213,42.1927106 248.691434,41.4040375 247.742537,41.0773681 C247.381645,40.9529227 246.891641,41.1582577 246.61475,41.0929238 C246.316081,41.0213677 245.79341,40.6215866 245.542964,40.4442519 C244.80718,39.9215809 244.450955,39.3102426 245.118294,38.646015 C245.561631,38.202678 245.634742,38.4142353 245.759188,37.7686745 C245.844744,37.3300042 245.745188,36.8088889 245.774743,36.3655519 C246.592972,36.2239952 246.809196,35.0853192 247.462535,34.646649 C248.304097,34.0804222 248.769212,34.0959778 248.773879,32.9588575 C248.014762,32.7644114 246.970975,32.1872956 246.325415,31.8248482 C245.844744,31.5557349 245.922522,31.2772882 245.57252,30.95373 C245.322073,30.7172836 244.804069,30.532171 244.435399,30.2723911 C243.959395,29.9363883 243.827172,29.8461654 243.204945,29.8181652 C242.621607,29.7901649 242.405383,29.8757212 242.072491,29.530385 C241.596487,29.0419366 241.324263,27.7414815 240.572923,27.6528142 C240.367588,28.413487 239.774917,28.8692685 238.955132,28.6670447 C239.112245,28.0852621 239.101356,27.3681452 239.214912,26.8019183 C239.00491,26.8096962 238.886687,26.6728062 238.676686,26.680584 C238.581796,26.2076912 239.034466,26.1874689 239.045355,25.7456875 C239.056244,25.3070172 238.620685,24.9772368 238.378016,24.6832344 C237.85379,24.0485625 237.304674,23.3750015 237.256452,22.5427725 C237.598677,22.5209945 238.241126,22.4089936 238.56624,22.5272168 C239.020466,22.6936626 238.930243,23.0825546 239.41558,23.2878896 C240.034697,23.5476695 241.447153,22.1741028 241.422263,22.9892205 C241.913823,22.8523305 242.464494,21.7494326 242.338493,21.2034282 C242.277826,20.9389816 241.776933,20.7025352 241.710044,20.4271996 C241.610487,20.014974 241.913823,19.7318606 241.867156,19.3243017 C241.430041,19.2978571 240.674035,19.4720807 240.272699,19.3149683 C239.543137,19.0287438 239.911807,18.7596305 239.918029,18.29296 C239.925807,17.6007321 239.807584,17.7298443 239.344024,17.2009511 C238.964466,16.7685031 238.796464,16.3422774 239.592915,16.3593887 C239.941363,15.763606 239.432692,15.0978228 239.143356,14.5953743 C239.995807,14.6249301 241.734933,14.6964862 242.528273,14.3713724 C242.567162,13.7740342 242.26227,13.1144733 242.368049,12.6042469 C242.938943,12.5731355 243.427391,12.7504703 243.887839,12.5186907 C244.531844,12.1951325 244.402732,11.7222397 244.626734,11.1653463 C244.69829,10.9880115 245.056071,10.8526771 245.08096,10.6753423 C245.133849,10.2786724 244.833625,10.337784 244.790069,10.0593373 C244.676512,9.33599802 245.00007,9.21621926 245.31274,8.61888105 C245.70941,7.86287488 245.471408,7.87220829 244.933181,7.36042634 C244.503844,6.95131189 244.398066,6.64330938 244.034063,6.17819447 C243.649837,5.6866349 243.110055,5.46263308 242.517384,5.33663205 C241.801822,5.18263079 241.391152,5.24485352 240.954037,5.50618899 C240.593146,5.72241297 240.726924,5.92619241 240.112475,5.92152571 C239.717361,5.92152571 239.334691,5.72241297 238.942688,5.68041263 C238.45735,5.62596774 238.458906,5.7161907 238.028014,5.88885878 C237.645344,6.04130446 237.178673,6.10663833 236.771114,6.26530629 C236.358889,6.43019653 236.274888,6.77242154 235.941997,6.93731178 C235.581105,7.11620212 235.227991,7.10220201 234.89821,7.19553611 C234.795543,7.2250919 234.492207,7.42264907 234.311761,7.48176066 C234.134426,7.53931669 233.85598,7.48176066 233.669311,7.50198305 C233.292864,7.54709453 232.970861,7.74620727 232.527524,7.65753988 C232.446635,7.06486837 232.991084,7.1862027 232.491746,6.65575392 C232.130854,6.2746397 231.54285,6.31664004 231.09329,6.25286175 C230.100838,6.1128606 229.330831,5.19040863 228.607492,4.47795837 C227.980598,3.86195335 227.36926,3.47306128 226.624143,3.05772456 C226.263251,2.85705626 224.265901,1.20193164 225.68458,1.41037779 C225.798136,0.427258652 224.738794,0.386813878 223.995232,0.478592404 C223.387005,0.551704112 223.337227,0.582815477 222.836334,0.407036265 C222.484776,0.282590805 222.224996,-0.0316339814 221.817437,0.0025885201 C220.958763,0.0757002278 220.177868,0.981040949 219.356528,1.164598 C218.463632,1.36371074 217.909849,0.68703855 217.002953,0.777261508 C217.127399,1.24704312 217.88496,1.29059903 217.92385,1.88327053 C216.629617,1.95793781 215.508052,1.13504221 214.408265,2.16016168 C214.041151,2.50394227 213.790705,2.94261251 213.467146,3.29417094 C212.978698,3.82306414 212.288026,3.98484324 212.088913,4.663071 C211.570909,6.44264107 213.016032,6.26841743 214.243375,6.34619584 C215.035159,6.39597402 215.041382,6.77242154 215.640275,7.12397997 C216.229836,7.46776055 216.875397,7.35887077 217.545846,7.40242668 C217.461846,8.2050999 216.80384,8.30932297 217.55518,8.83043834 C217.961183,9.11355176 218.788745,9.25199733 219.003414,9.82444645 C219.426528,10.9491223 216.671617,10.7095648 216.881619,12.2013547 C216.593839,12.1655767 216.27028,12.0722426 215.963834,12.1344653 C215.924944,12.8064708 215.9825,13.4862541 216.257836,14.0867034 C216.573616,14.7742646 217.069843,15.2331572 217.178732,16.0000524 C217.343623,17.1465062 215.918722,18.7176301 217.2954,19.4829697 C217.492957,19.5918595 217.836738,19.5638593 218.034295,19.6867491 C218.261408,19.8267503 218.469854,20.1783087 218.6923,20.3727547 C219.40475,21.0012043 219.448306,20.573423 220.208979,20.5438673 C221.300988,20.5003113 220.62276,21.3885408 221.176543,21.848989 C221.476767,22.0994355 222.822334,22.0994355 223.219004,22.0729908 L223.803897,22.4369938 C223.688785,22.623662 223.667007,22.8632195 223.721452,23.0856658 C223.875454,23.0514433 224.108789,23.1494441 224.261235,23.113666 C224.34368,24.4094544 224.321902,24.6163449 223.046336,24.7081235 C222.515887,24.7470127 222.287218,24.7967908 221.884326,25.1561271 C221.532768,25.4687963 221.490768,25.9308001 220.88254,25.8576884 C220.795428,26.3196922 221.039653,26.4581377 221.129876,26.8096962 C221.27921,27.3930343 221.027208,27.4210345 220.960319,27.9219275 C220.846762,28.7603787 221.537435,29.0092697 220.848318,29.6034967 C220.467204,29.9332772 220.011422,30.0017222 219.661419,30.3921698 C219.446751,30.6317273 219.288083,30.9163963 219.098304,31.1637317 C218.528966,31.8948488 218.318964,32.1250729 218.220963,33.0366359 C218.07474,34.4008692 217.558291,33.6417519 216.517616,34.145756 C215.587386,34.5937597 215.363384,35.4477666 215.196938,36.3546629 C214.969825,37.5991175 213.453146,39.661801 212.16358,39.7566907 C211.782466,39.7862465 211.186683,39.6182451 210.836681,39.752024 C210.251787,39.9760258 210.413566,40.1269159 210.365343,40.7024762 C210.278232,41.7618182 209.811561,41.9811533 209.041555,42.5971583 C208.409994,43.1042736 208.171992,43.8431685 207.431542,44.1309486 C206.644424,44.4373956 205.773306,44.4171732 204.972188,44.6800642 C204.153959,44.9476219 203.640622,45.1078455 202.998172,44.3985064 C202.772615,44.1480599 202.859727,43.798057 202.393056,43.6565003 C201.977719,43.5273881 201.626161,43.7156119 201.297936,43.9442804 C200.807932,44.2865054 200.128149,45.0145114 199.765701,45.4345148 C199.44681,45.8047401 199.434365,46.1391872 199.00814,46.384967 C198.592803,46.6260801 198.361023,46.3523001 197.981465,46.8531931 C197.659462,47.2809743 197.306348,48.3714277 197.493016,48.9345434 C197.687462,49.5241037 198.457468,49.5365483 199.098363,49.8554398 C199.967925,50.2878877 200.05037,50.5398898 200.048815,51.5867872 C200.047259,52.3661269 200.014592,53.1641334 200.062815,53.9372509 C200.713042,53.9948069 201.330603,54.1099189 202.021275,54.1550304 C202.086609,55.215928 202.04772,55.399485 202.772615,56.1290465 C203.427509,56.7854963 203.769734,57.2179443 203.948624,58.1155072 C204.062181,58.6879563 204.368628,59.7037424 204.001514,60.2684136 C203.761956,60.6355277 202.201721,61.4630901 201.742829,61.1286429 C201.50016,60.9528637 201.73194,60.36797 201.445715,60.2155243 C201.147046,60.0568564 200.674153,60.458193 200.451707,60.6028608 C200.221483,60.7490842 200.062815,60.9404191 199.787479,61.074198 C199.652145,61.1410874 199.392365,61.0695313 199.285031,61.1395319 C199.207252,61.1877545 198.986362,61.5346462 199.009695,61.5253128 C198.418579,61.7710926 197.519461,61.6513138 196.898789,61.2670885 C196.606342,61.0866425 196.606342,60.7941957 196.264117,60.6650835 C195.963893,60.5515271 195.366554,60.6681947 195.033663,60.6681947 C194.252767,60.6681947 193.112536,60.4099703 192.669199,61.0493089 C192.434308,61.3868672 192.61631,61.8613155 192.314529,62.1148731 C192.042305,62.3435417 191.404522,62.1179843 191.05763,62.1833182 C190.343624,62.3155415 189.351172,63.6937749 190.584738,63.6097742 C191.239632,63.5662183 191.933415,62.5877659 192.552531,62.3808753 C192.855867,63.5973297 190.665627,63.3779946 190.961185,64.5524486 C191.060741,64.9444518 191.740525,64.9708965 192.02986,65.2820101 C192.387641,65.6662355 192.379863,66.2449069 192.872978,66.6073543 C193.338093,66.9464681 193.968098,67.0429134 194.444102,67.411583 C194.941884,67.797364 194.932551,67.9046982 195.59989,67.9560319 C196.150561,67.9980323 196.808566,67.9715876 197.307904,67.7709193 C197.522572,67.685363 197.633017,67.4613612 197.867908,67.3851384 C198.135466,67.2980266 198.437246,67.3680271 198.706359,67.2778042 C198.707915,67.1222473 198.823027,66.990024 198.833916,66.8344672 C198.829249,66.9246902 200.227705,67.1844701 200.272817,67.3322491 C200.39104,67.707141 199.784368,68.0275881 199.616367,68.2344786 C199.397032,68.4989252 199.227475,69.0527075 198.987917,69.2595981 C198.735915,69.4773777 198.376579,69.335821 198.060799,69.3747102 C197.55835,69.4384885 197.634573,69.5800452 197.278348,69.735602 C196.534786,70.0576046 196.385452,69.5660451 195.861225,69.6391568 C195.472333,69.6920461 195.514333,70.0171599 195.223442,70.1400497 C195.005662,70.2333838 194.526547,70.2240504 194.28699,70.2131615 C194.322768,70.0264933 194.221656,69.7636022 194.25899,69.5784896 C193.924543,69.5567117 193.577651,69.5567117 193.246315,69.5784896 C192.908756,70.658054 194.937217,72.1249548 195.620112,72.949406 C196.08056,73.5047439 196.31234,74.1487491 196.802344,74.6947536 C197.273681,75.2205356 197.861686,75.6654282 198.410801,76.1196541 C198.992584,76.6003247 199.589922,76.8787714 200.227705,77.2318854 C200.848377,77.5741104 201.252825,77.9630025 201.772384,78.3643391 C202.147276,78.6536748 202.201721,78.7221198 202.62328,78.4670066 C202.769504,78.3767836 202.752392,78.0812257 202.881505,77.986336 C203.043284,77.8712239 203.262619,77.8743351 203.452398,77.7934455 C204.026403,77.5476658 204.64863,77.4527761 205.22419,77.1121066 C205.684639,76.8398822 206.026864,76.5349908 206.459312,76.2798776 C206.767314,76.0994317 206.818648,76.2394329 207.121984,75.9080968 C207.30243,75.7074285 207.367763,75.3760925 207.492209,75.1489795 C207.728655,74.7165315 208.196881,74.3338617 207.977546,73.7520792 C207.7831,73.2356306 207.034872,73.2542974 207.251096,72.5154025 C207.338208,72.4998468 207.420653,72.4967356 207.506209,72.4874022 C207.573098,72.0253985 207.451764,71.2102807 208.089547,71.1698359 C208.651107,71.1340579 208.787997,71.9662869 209.495781,71.2771701 C209.42578,71.6085062 208.537551,72.3551789 208.840887,72.7876269 C209.106889,73.1687411 209.553337,72.7969603 209.873784,72.6305145 C209.962451,73.1220741 209.396224,73.2356306 209.428891,73.71319 C210.735569,74.1705271 209.914229,75.1878687 209.792894,76.0963206 C209.733783,76.5427687 209.772672,76.9861056 209.956229,77.3438863 C210.278232,77.9785582 210.692013,78.0314475 210.65779,78.8247873 C211.343796,78.8496764 211.726466,78.8387874 211.577131,79.6741275 C210.553567,79.8919071 210.618901,80.1859095 210.284454,80.9419157 C210.090008,81.3821415 210.071341,81.2779184 210.066674,81.7725891 C210.066674,81.9250348 210.391788,82.0059244 210.366899,82.2517041 C210.349788,82.4165944 210.071341,82.4010387 210.002896,82.5534844 C209.607782,83.4541584 209.894006,83.3001571 210.242453,84.1339417 C210.396455,84.5026114 210.326454,84.9070591 210.426011,85.2741732 C210.539567,85.6972878 210.824236,86.0659575 210.940904,86.489072 C211.200684,86.5030722 211.256684,86.6415177 211.476019,86.7115183 C211.530464,87.047521 211.452686,87.1439663 211.129127,87.1828555 C211.16335,87.890639 211.371796,88.4210878 210.278232,88.3184203 C210.114897,88.8784249 210.636012,88.9748701 210.743346,89.4337627 C210.844458,89.8693219 210.418233,90.4339931 211.196017,90.4946603 C211.227128,90.9411084 211.222461,91.2475553 211.371796,91.616225 C211.516464,91.969339 211.762244,92.1933408 211.849355,92.5837884 C211.941134,92.9913473 211.908467,93.2200159 212.081135,93.6042412 C212.340915,94.1875793 212.65514,94.5391377 212.723585,95.2111432 C212.885364,96.8569344 213.260256,98.3829469 213.649148,99.9431818 C213.862261,100.798744 214.098707,101.461416 214.610489,102.215867 C215.123827,102.971873 215.24205,103.42921 215.472274,104.297217 C215.69472,105.134113 215.935833,105.882341 216.486504,106.574569 C217.00762,107.229464 217.345178,107.534355 217.570736,108.366584 C217.788515,109.181702 218.308075,109.760373 218.493187,110.545935 C218.648744,111.207052 218.684522,111.882168 218.900746,112.526173 C219.163637,113.308624 219.317639,114.005519 219.516751,114.80197 C219.701864,115.540865 220.135868,116.096203 220.369203,116.78843 C220.638316,117.598881 220.569871,118.451333 220.980541,119.249339 C221.349211,119.966456 221.818992,120.512461 222.282552,121.142466 C223.257893,122.474032 223.945454,123.954933 224.839906,125.306722 C225.650357,126.53251 226.205695,127.920077 226.733033,129.279643 C227.291482,130.7201 227.084591,132.462336 227.653929,133.918348 C228.248156,135.439694 228.756827,136.407257 229.951503,137.491488 C230.81951,138.281717 231.920853,140.331956 233.334864,139.953953 C233.737756,139.846619 234.003759,139.487282 234.475096,139.485727 C234.633764,138.927278 235.329103,139.233725 235.707106,138.910166 C236.049331,138.619275 236.050886,138.099715 236.099109,137.704601 C236.203332,136.864594 236.159776,135.878364 236.848893,135.246803 C237.732456,134.437908 239.305135,134.392796 240.451589,134.392796 C241.263596,134.392796 242.201603,134.551464 242.713385,133.843681 C241.752044,133.881014 240.07203,133.730124 240.54959,132.401669 C240.901148,131.429439 241.902934,130.673433 242.256048,129.657647 C242.542273,128.837862 242.263826,128.792751 243.195611,128.898529 C243.920506,128.98253 244.878736,129.301421 245.183628,128.616971 C245.365629,128.209412 245.163405,127.366295 245.183628,126.913624 C245.206961,126.38162 245.469852,125.827838 245.357851,125.320722 C245.270739,125.309833 245.188294,125.3005 245.102738,125.289611 C245.065404,124.68605 245.065404,124.13849 244.923848,123.580041 C244.783846,123.012259 244.545845,122.408698 244.79318,121.823805 C243.883172,121.682248 244.917625,120.666462 245.16185,120.190458 C245.454296,119.62112 245.908522,119.283562 246.247636,118.70489 C246.65364,118.015774 246.771863,117.357768 246.960086,116.597096 C247.132755,115.907979 247.509202,115.243751 247.453202,114.515745 C247.400312,113.812628 247.051865,112.999066 246.882308,112.344172 C246.690973,111.616166 246.16208,111.194607 246.129413,110.353045 C246.098302,109.513038 246.644306,109.219035 246.603861,108.270139 C246.564972,107.386576 246.054746,107.199908 245.939634,106.377012 C245.8463,105.708118 246.546305,104.598998 246.071857,104.102771 C246.776529,103.850769 246.871419,103.029429 247.289867,102.519203 C247.820316,101.876753 248.54521,101.887642 249.330772,101.945198 C249.526774,102.418091 249.730554,103.447877 250.317003,102.708982 C250.485004,102.49898 250.373003,102.114755 250.505226,101.854975 C250.634339,101.598306 250.975008,101.497195 251.125898,101.246748 C251.625236,100.434741 251.461901,99.8529589 252.645688,99.5542898 C253.507473,99.3365102 254.683483,99.1327308 255.57949,99.0736192 C255.629268,98.4358362 256.979502,97.4667172 257.648396,97.485384 C257.142836,97.2722712 256.707277,96.4027085 256.8395,95.8847043 C257.579951,95.5315903 258.42618,95.1582539 259.09663,94.7335838 C259.224187,94.6526942 259.207075,94.4411369 259.373521,94.350914 C259.555523,94.2513576 259.927303,94.3446917 260.13575,94.2404686 C260.689532,93.9557996 260.372196,93.7846871 260.678643,93.3849061 C260.939978,93.0395699 261.359982,92.7269007 261.625984,92.4655653 C262.1891,91.9164497 262.879772,91.3611118 263.539333,90.8322186 C264.197338,90.3064365 265.059123,89.9159889 265.636239,89.3388731 C265.603572,89.2626502 265.563127,89.2284277 265.525794,89.1599827 C265.997131,88.6839788 266.930472,88.6450896 267.224474,88.0290846 C267.170029,88.0181956 267.115584,88.0073067 267.061139,87.9964177 C266.812248,87.0630767 268.070703,86.1484026 268.643152,85.6459541 C269.512715,84.8806145 270.323166,83.3514909 271.545843,82.9719322 C272.586518,83.2830459 274.422088,82.3139269 275.252762,81.7383666 C275.859433,81.3214743 275.674321,81.1068059 276.056991,80.5328012 C276.27477,80.2061319 276.98722,79.524793 277.348112,79.5745712 C277.275,79.0363446 277.637448,78.6178967 277.93145,78.2647827 C278.349898,77.7638897 278.513233,77.8074456 279.07946,77.6021106 C278.236342,77.0452172 277.939228,75.6172056 278.119674,74.5749748 C278.396565,72.9851841 279.899244,72.823405 281.336589,72.7751824 C282.017928,72.7534044 282.469043,72.5947364 283.114604,72.4687354 C283.960833,72.3069563 283.901721,72.7487377 284.623505,72.9696284 C286.132406,73.4362989 285.88196,71.3487263 285.88196,70.3438292 C285.976849,71.2429476 286.393742,71.9880648 286.655077,72.8545163 C286.815301,72.902739 287.124859,72.9042945 287.286638,72.8576275 C287.32086,72.6771816 287.308416,72.4998468 287.272638,72.3240676 C287.482639,72.8109604 287.936865,72.3894014 287.88242,71.7500629 C288.090867,71.706507 288.403536,71.706507 288.608871,71.7516185 C288.61976,71.8045078 288.632204,71.8558415 288.641538,71.9087308 L288.720872,71.7360628 C288.33198,71.1325023 287.969532,71.2367254 287.983532,70.3376069 C287.997532,69.5364893 287.947754,69.2580425 287.561973,68.5222588 C287.103081,67.6511405 286.588188,65.8031255 287.098414,64.9397851 C286.32063,64.9848966 285.519512,64.4622256 286.158851,63.6922194 C285.141509,63.2084376 285.062175,62.6406552 285.430845,61.7290922 C285.584846,61.3573114 285.78707,60.9466414 285.693736,60.4737486 C285.623735,60.1206347 285.269066,59.935522 285.203732,59.5450744 C284.438392,59.5201853 283.458384,59.3646285 282.943491,58.6972897 C282.465932,58.0812847 282.651044,56.2908256 283.710386,57.1308325 C283.716609,56.3950487 283.641941,55.5752642 284.461726,55.4585966 C285.14462,55.3621514 285.897515,55.5845976 286.627077,55.5394862 C286.585076,54.9188144 285.713958,55.0152597 285.86796,54.2436978 C285.00773,54.008807 284.741728,54.2312533 284.155279,53.5716923 C283.811498,53.1890225 283.683942,53.1096886 283.253049,52.8856867 C283.109937,52.8110194 282.51571,52.549684 282.44882,52.4563499 C281.786148,51.5572314 283.996611,50.2661098 283.333939,48.9438768 C284.058834,48.7805421 284.119501,49.5023258 284.575282,49.7667724 C284.961063,49.9923298 285.720181,50.0281079 286.149517,49.8601065 C286.113739,49.7434389 286.143295,49.519437 286.087295,49.4136584 C286.846412,49.6641049 286.627077,50.6643353 287.180859,51.1310057 C287.529306,51.4250081 287.821753,51.2507845 288.126645,51.2678957 C288.425314,51.2865626 288.843762,51.3892301 289.178209,51.37523 C289.187542,51.1061166 289.198431,50.8214477 289.207765,50.5507788 C289.895326,50.4792226 290.013549,52.2696817 290.165995,52.7876859 C290.436663,53.6976934 290.358885,54.361921 291.368449,54.6061452 C293.112241,55.0261486 295.319592,54.6808125 297.024495,54.3961435 C298.007614,54.2328088 301.118751,53.6836932 301.660088,54.7228128 C302.010091,55.3979294 301.815645,56.0823795 301.614977,56.7123846 C301.513865,57.0343872 301.509198,57.4186126 301.286752,57.7079483 C301.173196,57.860394 300.907193,57.8557273 300.809193,57.9910617 C300.764081,58.05484 300.578968,58.4623989 300.550968,58.4903991 C300.127854,58.9150693 299.614516,58.7906238 299.028067,59.0286257 C298.527174,59.2355163 298.158504,59.5964082 297.631167,59.7332982 C297.6265,60.4597485 297.6125,61.5019793 297.785168,62.1988738 C297.948503,62.8708793 298.660953,63.6299966 298.581619,64.3471136 C298.676508,64.0920004 298.881843,63.8135537 299.210068,63.8959988 C299.262958,64.1884456 299.798073,64.936674 300.172965,64.835562 C300.765637,64.6722274 300.260077,63.6113298 300.468523,63.2162155 C300.600746,62.965769 301.115639,62.9066574 301.218307,62.6577665 C301.333419,62.374653 301.003639,62.0246502 301.114084,61.7975372 C301.316308,61.3837561 302.062981,61.4662012 302.520318,61.4366454 C302.566985,62.1584291 302.358539,62.8257678 302.892098,63.3437721 C303.133212,63.5802184 303.473881,63.570885 303.67766,63.8819987 C303.80055,64.0655557 303.828551,64.5913378 303.859662,64.8308953 C303.965441,65.6180128 304.228332,65.9244598 304.502112,66.6275766 C304.740114,67.2435817 304.775892,67.9855877 304.915893,68.6000372 C305.080783,68.5487034 305.370119,68.3993689 305.564565,68.4258135 C305.822789,68.4631472 306.124569,68.7742608 306.343904,68.7851498 C306.89302,68.8162612 307.079688,68.3122571 307.246134,67.7631415 C307.529247,66.8375784 306.613018,65.5573457 306.627018,64.4513367 C306.630129,64.1635565 306.53835,63.9364436 306.723463,63.6968861 C307.092133,63.217771 307.009688,63.5599961 307.437469,63.6984416 C307.71436,63.7902202 307.572803,64.3580026 307.936806,63.8866654 C308.053474,63.7342197 307.929028,62.9642134 307.929028,62.7682118 C307.929028,62.2004294 308.039474,61.5004237 307.908806,60.9497525 C307.778138,60.3819701 307.076577,59.6119638 307.185467,59.0706261 C307.764138,58.955514 308.660145,59.0130701 309.182816,59.0332924 C309.338373,59.0379592 309.470597,59.2277385 309.632376,59.2246273 C309.817488,59.2199606 310.077268,59.0286257 310.176825,59.0301813 C310.529939,59.0301813 310.757051,58.9679586 310.982609,59.2464053 C311.061943,58.8901802 311.299945,58.5961778 311.338834,58.2041746 C311.371501,57.8775052 311.13661,57.4528351 311.242389,57.0670542 C311.404168,56.4666048 312.076173,55.9050447 312.377954,55.3668181 C312.696845,54.7974801 313.390629,54.0819187 313.205516,53.4768027 C313.101293,53.1330221 312.661067,52.9774653 312.493066,52.6943518 C312.314175,52.3925716 312.28462,52.0083462 312.199063,51.7018993 C313.567963,50.863448 313.992633,49.5147703 313.899299,47.9856467 C313.86041,47.3556416 313.384406,46.384967 313.799743,45.9027409 C314.124857,45.5278489 315.013086,45.3178472 315.426867,44.9522887 C316.517321,43.9847252 317.421106,42.8164934 318.793117,42.0947098 C319.381122,41.7851517 320.31913,41.2640363 320.92269,41.7135956 C321.149803,41.8831525 321.132692,42.2627112 321.464028,42.4727129 C321.778253,42.6733812 322.313368,42.7449373 322.682038,42.67027 C322.682038,41.586039 320.62091,40.8238105 321.538695,39.5358 C321.885587,39.0613517 323.069374,38.9804621 323.158042,38.4997916 Z" id="Shape"></path>
                </g>
            </g>
        </g>
    </g>
</svg>