<?xml version="1.0" encoding="iso-8859-1"?>
<!-- Generator: Adobe Illustrator 19.0.0, SVG Export Plug-In . SVG Version: 6.00 Build 0)  -->
<svg version="1.1" id="Layer_1" xmlns="http://www.w3.org/2000/svg" xmlns:xlink="http://www.w3.org/1999/xlink" x="0px" y="0px"
	 viewBox="0 0 289.94 289.94" style="enable-background:new 0 0 289.94 289.94;" xml:space="preserve">
<g>
	<path style="fill:#F2D27E;" d="M289.94,90.606C289.94,18.456,195.003,0,144.971,0S0.001,18.456,0.001,90.606
		c0,13.41,7.303,29.148,18.121,38.1v134.052c0,15.004,12.168,27.182,27.182,27.182h199.333c15.013,0,27.182-12.177,27.182-27.182
		V128.706C282.638,119.754,289.94,104.016,289.94,90.606z"/>
	<path style="fill:#F4B459;" d="M289.94,90.606C289.94,18.456,195.003,0,144.971,0S0.001,18.456,0.001,90.606
		c0,13.41,7.303,29.148,18.121,38.1v134.052c0,15.004,12.168,27.182,27.182,27.182h199.333c15.013,0,27.182-12.177,27.182-27.182
		V128.706C282.638,119.754,289.94,104.016,289.94,90.606z M263.156,118.232l-4.929,4.086v140.439
		c0,7.493-6.098,13.591-13.591,13.591H45.304c-7.493,0-13.591-6.098-13.591-13.591V122.318l-4.929-4.077
		c-7.52-6.234-13.192-18.112-13.192-27.635c0-60.924,85.94-77.015,131.379-77.015c45.448,0,131.379,16.092,131.379,77.015
		C276.349,100.129,270.677,112.007,263.156,118.232z"/>
	<path style="fill:#CEB36B;" d="M130.41,181.203L31.088,285.826c4.141,2.564,8.979,4.113,14.216,4.113h99.667l45.312-48.855
		L130.41,181.203z"/>
	<path style="fill:#FFFFFF;" d="M193.517,141.074l36.895,36.904c6.795,6.786,6.795,17.804,0,24.6l-36.895,36.895
		c-6.795,6.795-17.813,6.795-24.609,0l-36.895-36.895c-6.786-6.795-6.786-17.813,0-24.6l36.895-36.904
		C175.713,134.287,186.721,134.287,193.517,141.074z"/>
	<path style="fill:#D0994B;" d="M45.304,276.349c-1.567,0-3.044-0.317-4.449-0.815l-9.767,10.293
		c4.141,2.564,8.979,4.113,14.216,4.113h99.667l12.612-13.591H45.304z"/>
</g>
<g>
</g>
<g>
</g>
<g>
</g>
<g>
</g>
<g>
</g>
<g>
</g>
<g>
</g>
<g>
</g>
<g>
</g>
<g>
</g>
<g>
</g>
<g>
</g>
<g>
</g>
<g>
</g>
<g>
</g>
</svg>
