<?xml version="1.0" encoding="iso-8859-1"?>
<!-- Generator: Adobe Illustrator 19.0.0, SVG Export Plug-In . SVG Version: 6.00 Build 0)  -->
<svg version="1.1" id="Layer_1" xmlns="http://www.w3.org/2000/svg" xmlns:xlink="http://www.w3.org/1999/xlink" x="0px" y="0px"
	 viewBox="0 0 289.939 289.939" style="enable-background:new 0 0 289.939 289.939;" xml:space="preserve">
<g>
	<path style="fill:#E4E7E7;" d="M244.311,93.179C240.958,41.18,197.829,0,144.971,0s-95.988,41.18-99.34,93.179
		c-26.358,7.702-45.63,32.02-45.63,60.851c0,35.019,28.396,63.424,63.424,63.424v54.364c0,10.003,36.505,18.121,81.545,18.121
		s81.545-8.118,81.545-18.121v-54.364c35.028,0,63.424-28.405,63.424-63.424C289.939,125.199,270.667,100.881,244.311,93.179z"/>
	<path style="fill:#CFD1D1;" d="M213.17,217.455c-14.533,5.491-39.622,9.142-68.199,9.142c-28.586,0-53.675-3.633-68.208-9.142
		H63.616c1.993,10.619,37.592,17.795,81.355,17.795c43.754,0,79.362-7.176,81.355-17.795H213.17z"/>
	<path style="fill:#CFD1D1;" d="M252.202,96.196c-2.564-1.142-5.155-2.22-7.892-3.017c-0.236-3.833-0.779-7.584-1.441-11.29
		c-7.267,1.477-35.164,7.692-43.536,17.777C224.441,92.681,242.01,93.986,252.202,96.196z"/>
	<g>
		<path style="fill:#CFD1D1;" d="M44.76,93.524c-4.811,1.486-9.296,3.624-13.546,6.143c4.123,8.028,11.516,19.535,22.661,26.847
			C52.145,124.873,46.21,116.383,44.76,93.524z M53.875,126.513l0.489,0.344L53.875,126.513z"/>
	</g>
</g>
<g>
</g>
<g>
</g>
<g>
</g>
<g>
</g>
<g>
</g>
<g>
</g>
<g>
</g>
<g>
</g>
<g>
</g>
<g>
</g>
<g>
</g>
<g>
</g>
<g>
</g>
<g>
</g>
<g>
</g>
</svg>
