<?xml version="1.0" encoding="iso-8859-1"?>
<!-- Generator: Adobe Illustrator 19.0.0, SVG Export Plug-In . SVG Version: 6.00 Build 0)  -->
<svg version="1.1" id="Layer_1" xmlns="http://www.w3.org/2000/svg" xmlns:xlink="http://www.w3.org/1999/xlink" x="0px" y="0px"
	 viewBox="0 0 252.398 252.398" style="enable-background:new 0 0 252.398 252.398;" xml:space="preserve">
<g>
	<path style="fill:#CCD0D2;" d="M250.241,20.398c5.246-5.237,0.154-11.987-7.04-11.987H8.323c-7.185,0-10.963,7.239-6.207,11.978
		l115.876,115.097v90.398H81.704c-4.938,0-8.925,4.05-8.925,9.061c0,4.992,3.987,9.042,8.925,9.042h89.31
		c4.938,0,8.925-4.05,8.925-9.042c0-5.011-3.987-9.061-8.925-9.061H135.85v-90.443C135.851,135.441,250.241,20.398,250.241,20.398z
		 M131.058,114.275c-4.902,4.902-4.902,4.902-9.622,0.19L38.241,34.569c-3.207-3.189-0.507-8.028,4.621-8.028h166.942
		c5.146,0,8.1,4.567,4.648,8.019C214.451,34.56,131.058,114.275,131.058,114.275z"/>
	<path style="fill:#3DB39E;" d="M122.622,104.825L53.68,35.548l145.06-0.018l-68.38,69.232
		C126.192,108.948,126.346,108.576,122.622,104.825z"/>
</g>
<g>
</g>
<g>
</g>
<g>
</g>
<g>
</g>
<g>
</g>
<g>
</g>
<g>
</g>
<g>
</g>
<g>
</g>
<g>
</g>
<g>
</g>
<g>
</g>
<g>
</g>
<g>
</g>
<g>
</g>
</svg>
