<?xml version="1.0" encoding="iso-8859-1"?>
<!-- Generator: Adobe Illustrator 19.0.0, SVG Export Plug-In . SVG Version: 6.00 Build 0)  -->
<svg version="1.1" id="Layer_1" xmlns="http://www.w3.org/2000/svg" xmlns:xlink="http://www.w3.org/1999/xlink" x="0px" y="0px"
	 viewBox="0 0 289.94 289.94" style="enable-background:new 0 0 289.94 289.94;" xml:space="preserve">
<g>
	<path style="fill:#E4E7E7;" d="M244.674,54.346L217.193,289.94H72.776L45.268,54.346H244.674z"/>
	<g>
		<polygon style="fill:#C8CBCB;" points="70.665,271.873 72.776,289.939 217.193,289.939 219.295,271.873 		"/>
		<polygon style="fill:#C8CBCB;" points="46.328,63.424 67.937,248.532 243.469,64.638 243.622,63.424 		"/>
	</g>
	<path style="fill:#349886;" d="M144.971,108.727c-30.018,0-54.364,24.346-54.364,54.364c0,30.027,24.346,54.364,54.364,54.364
		c30.027,0,54.364-24.337,54.364-54.364S174.997,108.727,144.971,108.727z M171.816,187.247c-4.829-2.673-11.217-4.621-18.438-5.5
		l0.371-2.899c5.554-3.099,9.341-8.961,9.341-15.756c0-10.012-8.109-18.121-18.121-18.121c-10.003,0-18.121,8.109-18.121,18.121
		c0,6.795,3.796,12.649,9.341,15.747l0.381,2.899c-7.23,0.888-13.609,2.827-18.438,5.5c-5.781-6.415-9.405-14.823-9.405-24.147
		c0-20.015,16.228-36.242,36.242-36.242c20.006,0,36.242,16.228,36.242,36.242C181.213,172.414,177.607,180.823,171.816,187.247z"/>
	<path style="fill:#2B414D;" d="M45.304,27.182h199.333c10.012,0,18.121,8.118,18.121,18.121v18.121H27.183V45.303
		C27.183,35.291,35.301,27.182,45.304,27.182z"/>
	<path style="fill:#475F6C;" d="M72.486,0h144.97c10.012,0,18.121,8.118,18.121,18.121v9.061H54.365v-9.061
		C54.365,8.109,62.483,0,72.486,0z"/>
	<g>
		<path style="fill:#2E8676;" d="M144.971,144.97c-10.003,0-18.121,8.109-18.121,18.121c0,6.351,3.38,11.77,8.327,15.004
			l24.446-25.605C156.333,147.951,151.014,144.97,144.971,144.97z M144.971,108.727c-30.018,0-54.364,24.346-54.364,54.364
			c0,16.653,7.502,31.522,19.281,41.498l20.848-21.836c-4.82,1.042-9.124,2.564-12.603,4.494
			c-5.781-6.424-9.405-14.832-9.405-24.156c0-20.015,16.228-36.242,36.242-36.242c10.891,0,20.54,4.902,27.182,12.504l12.612-13.21
			C174.844,115.45,160.717,108.727,144.971,108.727z"/>
	</g>
</g>
<g>
</g>
<g>
</g>
<g>
</g>
<g>
</g>
<g>
</g>
<g>
</g>
<g>
</g>
<g>
</g>
<g>
</g>
<g>
</g>
<g>
</g>
<g>
</g>
<g>
</g>
<g>
</g>
<g>
</g>
</svg>
