<?xml version="1.0" encoding="iso-8859-1"?>
<!-- Generator: Adobe Illustrator 19.0.0, SVG Export Plug-In . SVG Version: 6.00 Build 0)  -->
<svg version="1.1" id="Layer_1" xmlns="http://www.w3.org/2000/svg" xmlns:xlink="http://www.w3.org/1999/xlink" x="0px" y="0px"
	 viewBox="0 0 290.011 290.011" style="enable-background:new 0 0 290.011 290.011;" xml:space="preserve">
<g>
	<path style="fill:#F2F2F2;" d="M94.883,284.654c63.524,6.216,76.227-25.27,154.094-66.559
		c77.649-41.18,36.849-122.672-53.548-174.679C86.058-19.511-20.848-8.611,3.497,95.432
		C27.834,199.466,21.301,274.406,94.883,284.654z"/>
	<path style="fill:#EFC75E;" d="M135.963,95.17c30.027,0,54.364,24.337,54.364,54.364c0,30.009-24.337,54.364-54.364,54.364
		c-30.018,0-54.364-24.355-54.364-54.364C81.6,119.497,105.937,95.17,135.963,95.17z"/>
	<path style="fill:#F4D88F;" d="M149.554,122.342c7.502,0,13.591,6.089,13.591,13.6c0,7.502-6.089,13.591-13.591,13.591
		s-13.591-6.089-13.591-13.591C135.963,128.422,142.052,122.342,149.554,122.342z"/>
	<path style="fill:#D8B455;" d="M145.024,194.827c-30.018,0-54.364-24.355-54.364-54.364c0-12.703,4.385-24.355,11.688-33.615
		C89.727,116.806,81.6,132.2,81.6,149.524c0,30.009,24.346,54.364,54.364,54.364c17.324,0,32.718-8.127,42.675-20.758
		C169.379,190.442,157.727,194.827,145.024,194.827z"/>
</g>
<g>
</g>
<g>
</g>
<g>
</g>
<g>
</g>
<g>
</g>
<g>
</g>
<g>
</g>
<g>
</g>
<g>
</g>
<g>
</g>
<g>
</g>
<g>
</g>
<g>
</g>
<g>
</g>
<g>
</g>
</svg>
