<?xml version="1.0" encoding="iso-8859-1"?>
<!-- Generator: Adobe Illustrator 19.0.0, SVG Export Plug-In . SVG Version: 6.00 Build 0)  -->
<svg version="1.1" id="Layer_1" xmlns="http://www.w3.org/2000/svg" xmlns:xlink="http://www.w3.org/1999/xlink" x="0px" y="0px"
	 viewBox="0 0 289.939 289.939" style="enable-background:new 0 0 289.939 289.939;" xml:space="preserve">
<g>
	<g>
		<path style="fill:#DDAF6D;" d="M144.97,9.061C64.33,9.061,9.061,49.833,9.061,99.667v9.061c0,5.436,3.624,9.061,9.061,9.061
			h253.697c5.436,0,9.061-3.624,9.061-9.061v-9.061C280.879,49.833,225.609,9.061,144.97,9.061z M9.061,262.758
			c0,9.967,8.155,18.121,18.121,18.121h235.576c9.967,0,18.121-8.155,18.121-18.121v-9.967c0-4.53-3.624-8.155-8.155-8.155H17.215
			c-4.53,0-8.155,3.624-8.155,8.155L9.061,262.758L9.061,262.758z"/>
	</g>
	<path style="fill:#BB6F39;" d="M18.121,208.394h253.697c9.967,0,18.121,8.155,18.121,18.121c0,9.967-8.155,18.121-18.121,18.121
		H18.121C8.155,244.636,0,236.482,0,226.515S8.155,208.394,18.121,208.394z"/>
	<path style="fill:#EFC75E;" d="M18.121,172.152h253.697v36.242h-18.121l-27.182,27.182l-27.182-27.182H18.121V172.152z"/>
	<path style="fill:#BF392C;" d="M18.121,117.788h253.697v27.182H18.121V117.788z"/>
	<g>
		<path style="fill:#C69D63;" d="M18.121,117.788h18.121c-5.436,0-9.061-3.624-9.061-9.061v-9.061
			c0-48.021,50.739-86.982,126.848-90.606c-2.718,0-6.342,0-9.061,0C64.33,9.061,9.061,49.833,9.061,99.667v9.061
			C9.061,114.164,12.685,117.788,18.121,117.788z"/>
		<path style="fill:#C69D63;" d="M27.182,262.758v-18.121h-9.967c-4.53,0-8.155,3.624-8.155,8.155v9.967
			c0,9.967,8.155,18.121,18.121,18.121h18.121C35.336,280.879,27.182,272.724,27.182,262.758z"/>
	</g>
	<rect x="18.121" y="117.788" style="fill:#AE3C30;" width="18.121" height="27.182"/>
	<path style="fill:#D7B354;" d="M19.027,172.152L19.027,172.152l-0.906,17.215v19.027h18.121v-19.027
		C27.182,188.461,20.839,181.212,19.027,172.152z"/>
	<path style="fill:#3DB39E;" d="M271.818,145.876L271.818,145.876L18.121,144.97v0.906C8.155,147.688,0,156.749,0,167.621
		c0,12.685,9.967,22.652,22.652,22.652c10.873,0,19.933-8.155,21.745-18.121h37.148c0,9.967,9.967,18.121,22.652,18.121
		s22.652-8.155,22.652-18.121h36.242c0,9.967,9.967,18.121,22.652,18.121s22.652-8.155,22.652-18.121h37.148
		c1.812,9.967,10.873,18.121,21.745,18.121c12.685,0,22.651-9.967,22.651-22.652C289.939,156.748,281.785,147.688,271.818,145.876z"
		/>
	<path style="fill:#37A18E;" d="M0.906,173.058c0,0.906,0.906,1.812,0.906,2.718s0,0.906,0.906,1.812
		c0,0.906,0.906,1.812,0.906,1.812c0,0.906,0.906,0.906,0.906,1.812c0.906,0.906,0.906,0.906,1.812,1.812l0.906,0.906
		c0.906,0.906,0.906,0.906,1.812,1.812l0.906,0.906c0.906,0.906,1.812,0.906,2.718,0.906c0.906,0,0.906,0.906,1.812,0.906
		s1.812,0.906,3.624,0.906h0.906l0,0c0.906,0.906,1.812,0.906,3.624,0.906c3.624,0,6.342-0.906,9.061-1.812
		c-8.155-3.624-13.591-11.779-13.591-20.839c0-10.873,8.155-19.933,18.121-21.745v-0.906h-18.12v0.906
		C8.155,147.688,0,156.749,0,167.621c0,1.812,0,2.718,0,4.53C0.906,172.152,0.906,173.058,0.906,173.058z"/>
	<path style="fill:#A86433;" d="M18.121,226.515c0-9.967,8.155-18.121,18.121-18.121H18.121C8.155,208.394,0,216.548,0,226.515
		s8.155,18.121,18.121,18.121h18.121C26.276,244.636,18.121,236.482,18.121,226.515z"/>
</g>
<g>
</g>
<g>
</g>
<g>
</g>
<g>
</g>
<g>
</g>
<g>
</g>
<g>
</g>
<g>
</g>
<g>
</g>
<g>
</g>
<g>
</g>
<g>
</g>
<g>
</g>
<g>
</g>
<g>
</g>
</svg>
