<?xml version="1.0" encoding="iso-8859-1"?>
<!-- Generator: Adobe Illustrator 19.0.0, SVG Export Plug-In . SVG Version: 6.00 Build 0)  -->
<svg version="1.1" id="Layer_1" xmlns="http://www.w3.org/2000/svg" xmlns:xlink="http://www.w3.org/1999/xlink" x="0px" y="0px"
	 viewBox="0 0 289.958 289.958" style="enable-background:new 0 0 289.958 289.958;" xml:space="preserve">
<g>
	<g>
		<path style="fill:#F6C37A;" d="M33.208,205.449L203.294,35.364c1.894-3.443,1.522-7.792-1.395-10.719
			c-17.677-17.686-46.363-17.686-64.058,0L22.508,139.977c-17.686,17.686-17.686,46.372,0,64.068
			C25.425,206.962,29.765,207.334,33.208,205.449z M257.313,83.956L82.09,259.179c-1.278,3.316-0.607,7.194,2.057,9.867
			c18.049,18.049,47.324,18.049,65.372,0L267.18,151.385c18.049-18.049,18.049-47.314,0-65.363
			C264.507,83.349,260.629,82.687,257.313,83.956z"/>
	</g>
	<path style="fill:#DDAF6D;" d="M94.757,259.387c-3.606-3.606-3.606-9.459,0-13.074L256.942,84.128
		c-1.024,0.453-2.002,1.051-2.836,1.885L84.147,255.962c-3.606,3.615-3.606,9.468,0,13.074c18.049,18.049,47.324,18.049,65.363,0
		l5.391-5.391C136.807,277.119,111.184,275.805,94.757,259.387z"/>
	<path style="fill:#DDAF6D;" d="M33.181,205.467l8.934-8.925c-3.09,0.942-6.551,0.299-8.997-2.138
		c-16.336-16.345-16.862-43.989-2.945-62.083l-7.665,7.665c-17.686,17.686-17.686,46.372,0,64.068
		C25.416,206.953,29.747,207.334,33.181,205.467z"/>
	<path style="fill:#E37948;" d="M279.33,10.628c14.162,14.162,14.162,37.139,0,51.31L61.93,279.329
		c-14.162,14.171-37.139,14.171-51.301,0c-14.162-14.162-14.162-37.139,0-51.301l217.4-217.4
		C242.191-3.543,265.169-3.543,279.33,10.628z"/>
	<path style="fill:#EFC75E;" d="M208.295,54.49c-5.011,0-9.07,4.059-9.07,9.07v18.049h-18.194c-3.833,0-7.058,2.374-8.399,5.717
		c-0.462,1.096-0.725,2.292-0.725,3.561v18.058h-17.569l-0.408-0.082c-1.278,0-2.492,0.281-3.588,0.761
		c-3.343,1.341-5.699,4.576-5.699,8.39l0.217,1.142v16.816h-18.185c-3.824,0-7.049,2.374-8.399,5.708
		c-0.471,1.096-0.734,2.301-0.734,3.579v18.058H100.01l-0.435-0.091c-1.296,0-2.51,0.281-3.615,0.77
		c-3.334,1.332-5.69,4.576-5.69,8.381l0.227,1.142v16.835H72.314c-5.011,0-9.079,4.05-9.079,9.061s4.068,9.079,9.079,9.079h26.874
		l0.399,0.082c5.011,0,9.07-4.059,9.07-9.07v-18.049h17.523l0.435,0.091c5.011,0,9.079-4.068,9.079-9.079V154.13h17.858l0.39,0.082
		c5.02,0,9.079-4.05,9.079-9.061v-18.058h17.559l0.399,0.082c5.01,0,9.061-4.05,9.061-9.061V99.766h17.822l0.444,0.091
		c5.02,0,9.079-4.059,9.079-9.07V63.56C217.374,58.55,213.315,54.49,208.295,54.49z"/>
	<path style="fill:#CC6D41;" d="M70.991,270.269c-14.162,14.171-37.139,14.171-51.301,0c-14.162-14.162-14.162-37.139,0-51.301
		l-9.061,9.061c-14.162,14.162-14.162,37.139,0,51.301c14.162,14.171,37.139,14.171,51.301,0l217.4-217.391
		C279.33,61.938,70.991,270.269,70.991,270.269z"/>
</g>
<g>
</g>
<g>
</g>
<g>
</g>
<g>
</g>
<g>
</g>
<g>
</g>
<g>
</g>
<g>
</g>
<g>
</g>
<g>
</g>
<g>
</g>
<g>
</g>
<g>
</g>
<g>
</g>
<g>
</g>
</svg>
