<?xml version="1.0" encoding="iso-8859-1"?>
<!-- Generator: Adobe Illustrator 19.0.0, SVG Export Plug-In . SVG Version: 6.00 Build 0)  -->
<svg version="1.1" id="Layer_1" xmlns="http://www.w3.org/2000/svg" xmlns:xlink="http://www.w3.org/1999/xlink" x="0px" y="0px"
	 viewBox="0 0 289.939 289.939" style="enable-background:new 0 0 289.939 289.939;" xml:space="preserve">
<g>
	<path style="fill:#E19178;" d="M163.091,235.576v36.242c0,10.012-8.118,18.121-18.121,18.121s-18.121-8.109-18.121-18.121v-36.242
		L163.091,235.576L163.091,235.576z"/>
	<path style="fill:#3DB39E;" d="M144.97,0C99.92,0,63.424,36.496,63.424,81.545v135.909c0,10.012,8.118,18.121,18.121,18.121
		h126.848c10.003,0,18.121-8.109,18.121-18.121V81.545C226.515,36.496,190.01,0,144.97,0z"/>
	<path style="fill:#349886;" d="M117.788,63.424c-10.003,0-18.121,8.118-18.121,18.121v99.667c0,10.012,8.118,18.121,18.121,18.121
		s18.121-8.109,18.121-18.121V81.545C135.909,71.543,127.791,63.424,117.788,63.424z M172.152,63.424
		c-10.003,0-18.121,8.118-18.121,18.121v99.667c0,10.012,8.118,18.121,18.121,18.121s18.121-8.109,18.121-18.121V81.545
		C190.273,71.543,182.154,63.424,172.152,63.424z"/>
	<path style="fill:#EFC75E;" d="M144.97,0C99.92,0,63.424,36.496,63.424,81.545v45.303h163.091V81.545
		C226.515,36.496,190.01,0,144.97,0z"/>
	<g>
		<path style="fill:#CBA950;" d="M135.909,126.848V81.545c0-10.003-8.118-18.121-18.121-18.121s-18.121,8.118-18.121,18.121v45.303
			H135.909z M190.273,126.848V81.545c0-10.003-8.118-18.121-18.121-18.121s-18.121,8.118-18.121,18.121v45.303H190.273z"/>
	</g>
</g>
<g>
</g>
<g>
</g>
<g>
</g>
<g>
</g>
<g>
</g>
<g>
</g>
<g>
</g>
<g>
</g>
<g>
</g>
<g>
</g>
<g>
</g>
<g>
</g>
<g>
</g>
<g>
</g>
<g>
</g>
</svg>
