<?xml version="1.0" encoding="iso-8859-1"?>
<!-- Generator: Adobe Illustrator 19.0.0, SVG Export Plug-In . SVG Version: 6.00 Build 0)  -->
<svg version="1.1" id="Layer_1" xmlns="http://www.w3.org/2000/svg" xmlns:xlink="http://www.w3.org/1999/xlink" x="0px" y="0px"
	 viewBox="0 0 289.94 289.94" style="enable-background:new 0 0 289.94 289.94;" xml:space="preserve">
<g>
	<path style="fill:#CB4E44;" d="M144.97,0c30.027,0,54.364,24.346,54.364,54.364c0,30.027-24.337,54.364-54.364,54.364
		c-30.018,0-54.364-24.337-54.364-54.364C90.606,24.346,114.952,0,144.97,0z"/>
	<path style="fill:#E5685E;" d="M104.197,27.182c27.526,0,49.833,22.316,49.833,49.833c0,27.526-22.307,49.833-49.833,49.833
		s-49.833-22.307-49.833-49.833C54.364,49.498,76.671,27.182,104.197,27.182z"/>
	<path style="fill:#E98179;" d="M185.742,27.182c27.517,0,49.833,22.316,49.833,49.833c0,27.526-22.316,49.833-49.833,49.833
		c-27.535,0-49.833-22.307-49.833-49.833C135.909,49.498,158.207,27.182,185.742,27.182z"/>
	<path style="fill:#EFC75E;" d="M54.364,81.265v45.584c0,10.003,8.118,18.121,18.121,18.121h18.121l45.303,144.97h18.121
		l45.303-144.97h18.121c10.003,0,18.121-8.118,18.121-18.121V81.265H54.364z"/>
	<path style="fill:#D7B354;" d="M54.364,99.667h181.212v27.182H54.364V99.667z"/>
	<polygon style="fill:#D7B354;" points="116.492,227.811 199.333,144.97 90.606,144.97 	"/>
</g>
<g>
</g>
<g>
</g>
<g>
</g>
<g>
</g>
<g>
</g>
<g>
</g>
<g>
</g>
<g>
</g>
<g>
</g>
<g>
</g>
<g>
</g>
<g>
</g>
<g>
</g>
<g>
</g>
<g>
</g>
</svg>
