<?xml version="1.0" encoding="iso-8859-1"?>
<!-- Generator: Adobe Illustrator 19.0.0, SVG Export Plug-In . SVG Version: 6.00 Build 0)  -->
<svg version="1.1" id="Layer_1" xmlns="http://www.w3.org/2000/svg" xmlns:xlink="http://www.w3.org/1999/xlink" x="0px" y="0px"
	 viewBox="0 0 289.94 289.94" style="enable-background:new 0 0 289.94 289.94;" xml:space="preserve">
<g>
	<path style="fill:#E4E7E7;" d="M54.364,0h163.091c10.003,0,18.121,8.118,18.121,18.121v253.697
		c0,10.012-8.118,18.121-18.121,18.121H54.364c-10.012,0-18.121-8.109-18.121-18.121V18.121C36.242,8.118,44.352,0,54.364,0z"/>
	<g>
		<path style="fill:#CCD0D2;" d="M90.606,0H54.364C44.352,0,36.242,8.118,36.242,18.121v9.061H0c0,0,26.702,39.396,36.242,72.485
			v172.152c0,10.012,8.109,18.121,18.121,18.121h36.242c-10.021,0-18.121-8.109-18.121-18.121V18.121
			C72.485,8.118,80.594,0,90.606,0z M271.818,27.182h-36.242v27.182h19.417c4.286,0,7.765,3.842,7.765,8.599v87.743
			c0,6.478-27.182,21.446-27.182,21.446v32.99c17.505-9.767,54.364-31.585,54.364-42.05V45.303
			C289.939,35.3,281.821,27.182,271.818,27.182z"/>
	</g>
	<path style="fill:#26A6D1;" d="M117.788,36.242h18.121c5.01,0,9.061,4.068,9.061,9.061v126.848c0,5.011-4.05,9.061-9.061,9.061
		h-18.121c-5.011,0-9.061-4.05-9.061-9.061V45.303C108.727,40.311,112.786,36.242,117.788,36.242z"/>
	<path style="fill:#1E85A7;" d="M108.727,172.152c0,5.011,4.05,9.061,9.061,9.061h18.121c5.01,0,9.061-4.05,9.061-9.061v-45.303
		h-36.242L108.727,172.152L108.727,172.152z"/>
	<path style="fill:#3DB39E;" d="M36.242,271.818c0,10.012,8.109,18.121,18.121,18.121h163.091c10.003,0,18.121-8.109,18.121-18.121
		v-18.121H36.242C36.242,253.697,36.242,271.818,36.242,271.818z"/>
	<path style="fill:#37A18E;" d="M72.485,271.818v-18.121H36.242v18.121c0,10.012,8.109,18.121,18.121,18.121h36.242
		C80.594,289.939,72.485,281.839,72.485,271.818z"/>
</g>
<g>
</g>
<g>
</g>
<g>
</g>
<g>
</g>
<g>
</g>
<g>
</g>
<g>
</g>
<g>
</g>
<g>
</g>
<g>
</g>
<g>
</g>
<g>
</g>
<g>
</g>
<g>
</g>
<g>
</g>
</svg>
