<?xml version="1.0" encoding="iso-8859-1"?>
<!-- Generator: Adobe Illustrator 19.0.0, SVG Export Plug-In . SVG Version: 6.00 Build 0)  -->
<svg version="1.1" id="Layer_1" xmlns="http://www.w3.org/2000/svg" xmlns:xlink="http://www.w3.org/1999/xlink" x="0px" y="0px"
	 viewBox="0 0 289.939 289.939" style="enable-background:new 0 0 289.939 289.939;" xml:space="preserve">
<g>
	<path style="fill:#E4E5E6;" d="M63.524,271.818c0,10.003,8.109,18.121,18.103,18.121h126.731c10.003,0,18.103-8.118,18.103-18.121
		V63.424H63.524V271.818z M226.525,63.325l-9.505-36.143h0.39v-9.061C217.409,8.118,209.301,0,199.306,0H90.688
		C80.685,0,72.575,8.118,72.575,18.121v9.061h0.371l-9.532,36.143H226.525z"/>
	<polygon style="fill:#CCD0D2;" points="72.947,27.182 63.433,63.261 63.433,63.325 226.525,63.325 217.021,27.182 	"/>
	<path style="fill:#2494BC;" d="M63.433,126.713v90.642h162.982v-90.642C226.417,126.713,63.433,126.713,63.433,126.713z
		 M208.404,181.212H81.555V154.03h126.848V181.212z"/>
	<path style="fill:#2494BC;" d="M217.409,27.182v-9.061C217.409,8.118,209.301,0,199.306,0H90.688
		C80.685,0,72.575,8.118,72.575,18.121v9.061H217.409z"/>
</g>
<g>
</g>
<g>
</g>
<g>
</g>
<g>
</g>
<g>
</g>
<g>
</g>
<g>
</g>
<g>
</g>
<g>
</g>
<g>
</g>
<g>
</g>
<g>
</g>
<g>
</g>
<g>
</g>
<g>
</g>
</svg>
