<?xml version="1.0" encoding="iso-8859-1"?>
<!-- Generator: Adobe Illustrator 19.0.0, SVG Export Plug-In . SVG Version: 6.00 Build 0)  -->
<svg version="1.1" id="Layer_1" xmlns="http://www.w3.org/2000/svg" xmlns:xlink="http://www.w3.org/1999/xlink" x="0px" y="0px"
	 viewBox="0 0 290.173 290.173" style="enable-background:new 0 0 290.173 290.173;" xml:space="preserve">
<g>
	<path style="fill:#F4B459;" d="M145.106,9.177c49.752,0,108.048,18.475,128.824,45.131
		c-0.036-0.027-128.824,235.748-128.824,235.748S16.472,54.281,16.182,54.453C36.351,26.891,95.29,9.177,145.106,9.177z"/>
	<path style="fill:#F1D999;" d="M145.106,0.117c49.752,0,126.078,22.978,126.078,22.978L145.106,253.823L19.118,23.566
		C19.118,23.566,95.29,0.117,145.106,0.117z"/>
	<path style="fill:#D07C40;" d="M113.394,72.602c12.513,0,22.652,10.148,22.652,22.652s-10.139,22.652-22.652,22.652
		s-22.652-10.139-22.652-22.652S100.881,72.602,113.394,72.602z"/>
	<path style="fill:#BB6F39;" d="M272.362,17.495C231.97,5.97,189.403,0.126,145.831,0.126h-0.027
		c-44.143,0-87.236,5.989-128.081,17.813C4.413,21.79-3.008,34.882,1.16,47.196C7.321,65.435,27.526,63.46,33.697,62.291
		c35.699-10.266,73.681-17.134,112.388-17.134h0.027c38.517,0,75.801,6.841,111.364,16.989c13.328,3.805,27.463-3.117,31.567-15.448
		C293.156,34.375,285.69,21.291,272.362,17.495z"/>
	<path style="fill:#BF392C;" d="M204,90.723c-32.528,0-58.894,26.366-58.894,58.903c0,27.879,19.399,51.174,45.43,57.272
		c18.094-33.126,38.363-70.22,54.4-99.567C234.335,97.065,219.919,90.723,204,90.723z"/>
</g>
<g>
</g>
<g>
</g>
<g>
</g>
<g>
</g>
<g>
</g>
<g>
</g>
<g>
</g>
<g>
</g>
<g>
</g>
<g>
</g>
<g>
</g>
<g>
</g>
<g>
</g>
<g>
</g>
<g>
</g>
</svg>
