<?xml version="1.0" encoding="iso-8859-1"?>
<!-- Generator: Adobe Illustrator 19.0.0, SVG Export Plug-In . SVG Version: 6.00 Build 0)  -->
<svg version="1.1" id="Layer_1" xmlns="http://www.w3.org/2000/svg" xmlns:xlink="http://www.w3.org/1999/xlink" x="0px" y="0px"
	 viewBox="0 0 289.94 289.94" style="enable-background:new 0 0 289.94 289.94;" xml:space="preserve">
<g>
	<path style="fill:#F6C37A;" d="M81.545,0h108.727c20.015,0,36.242,16.228,36.242,36.242c0,10.012-8.118,27.182-18.121,27.182
		l-0.245,45.303H63.596l-0.181-45.303c-10.012,0-18.121-17.17-18.121-27.182C45.303,16.228,61.531,0,81.545,0z"/>
	<path style="fill:#F4B459;" d="M190.273,0H81.545C61.531,0,45.303,16.228,45.303,36.242c0,10.012,8.109,27.182,18.121,27.182
		l0.181,45.303h144.544l0.245-45.303c10.003,0,18.121-17.17,18.121-27.182C226.515,16.228,210.288,0,190.273,0z M208.394,54.364
		h-9.006l-0.245,45.303H72.621l-0.154-45.303h-9.033c-2.927-0.381-9.07-10.673-9.07-18.121c0-14.986,12.196-27.182,27.182-27.182
		h108.727c14.977,0,27.182,12.196,27.182,27.182C217.455,43.663,211.284,53.965,208.394,54.364z"/>
	<path style="fill:#324D5B;" d="M262.758,135.909h18.121c5.01,0,9.061,4.068,9.061,9.061v9.061c0,5.011-4.05,9.061-9.061,9.061
		h-18.121V135.909z"/>
	<path style="fill:#E4E7E7;" d="M54.364,90.606h163.091c25.025,0,45.303,20.296,45.303,45.303v135.909H9.061V135.909
		C9.061,110.902,29.329,90.606,54.364,90.606z"/>
	<path style="fill:#CDD0D0;" d="M81.545,90.606H54.364c-25.025,0-45.303,20.296-45.303,45.303v135.909h27.182V135.909
		C36.242,110.902,56.511,90.606,81.545,90.606z"/>
	<path style="fill:#165971;" d="M27.182,280.879c0,5.01,4.05,9.061,9.061,9.061h9.061c5.011,0,9.061-4.05,9.061-9.061v-9.061H27.182
		V280.879z M217.455,271.818v9.061c0,5.01,4.032,9.061,9.061,9.061h9.061c5.01,0,9.061-4.05,9.061-9.061v-9.061H217.455z"/>
	<path style="fill:#2494BC;" d="M9.061,244.636h253.697c5.01,0,9.061,4.068,9.061,9.061v9.061c0,5.01-4.05,9.061-9.061,9.061H9.061
		c-5.011,0-9.061-4.05-9.061-9.061v-9.061C0,248.705,4.041,244.636,9.061,244.636z"/>
	<path style="fill:#2494BC;" d="M135.909,144.97c20.015,0,36.242,16.228,36.242,36.242s-16.228,36.242-36.242,36.242
		s-36.242-16.228-36.242-36.242S115.894,144.97,135.909,144.97z"/>
</g>
<g>
</g>
<g>
</g>
<g>
</g>
<g>
</g>
<g>
</g>
<g>
</g>
<g>
</g>
<g>
</g>
<g>
</g>
<g>
</g>
<g>
</g>
<g>
</g>
<g>
</g>
<g>
</g>
<g>
</g>
</svg>
