<?xml version="1.0" encoding="iso-8859-1"?>
<!-- Generator: Adobe Illustrator 19.0.0, SVG Export Plug-In . SVG Version: 6.00 Build 0)  -->
<svg version="1.1" id="Layer_1" xmlns="http://www.w3.org/2000/svg" xmlns:xlink="http://www.w3.org/1999/xlink" x="0px" y="0px"
	 viewBox="0 0 289.94 289.94" style="enable-background:new 0 0 289.94 289.94;" xml:space="preserve">
<g>
	<path style="fill:#CCD0D2;" d="M13.591,221.985h262.758c7.502,0,13.591,6.089,13.591,13.591c0,7.52-6.089,13.591-13.591,13.591
		H13.591C6.08,249.167,0,243.096,0,235.576C0,228.074,6.08,221.985,13.591,221.985z"/>
	<path style="fill:#CCD0D2;" d="M154.03,86.529V74.505c5.4-3.153,9.061-8.925,9.061-15.611c0-10.003-8.118-18.121-18.121-18.121
		s-18.121,8.118-18.121,18.121c0,6.687,3.67,12.467,9.061,15.62v12.014C70.102,91.195,18.121,145.93,18.121,212.924v9.061h253.697
		v-9.061C271.818,145.93,219.847,91.195,154.03,86.529z"/>
	<path style="fill:#B7BBBD;" d="M36.242,212.924c0-66.994,51.981-121.729,117.788-126.395c-3.008-0.199-6.007-0.453-9.061-0.453
		l-2.265,0.127V74.505c-5.391-3.144-9.061-8.907-9.061-15.611c0-8.843,6.342-16.182,14.723-17.777
		c-1.105-0.199-2.238-0.344-3.398-0.344c-10.003,0-18.121,8.118-18.121,18.121c0,6.687,3.67,12.467,9.061,15.611v12.032
		C70.102,91.195,18.121,145.93,18.121,212.924v9.061h253.697v-9.061H36.242z"/>
	<path style="fill:#E0E3E4;" d="M199.333,122.318c10.003,0,18.121,8.118,18.121,18.121c0,10.012-8.118,18.121-18.121,18.121
		s-18.121-8.109-18.121-18.121C181.212,130.446,189.33,122.318,199.333,122.318z"/>
	<rect x="18.121" y="212.924" style="fill:#A4A8AA;" width="18.121" height="9.061"/>
</g>
<g>
</g>
<g>
</g>
<g>
</g>
<g>
</g>
<g>
</g>
<g>
</g>
<g>
</g>
<g>
</g>
<g>
</g>
<g>
</g>
<g>
</g>
<g>
</g>
<g>
</g>
<g>
</g>
<g>
</g>
</svg>
