<?xml version="1.0" encoding="iso-8859-1"?>
<!-- Generator: Adobe Illustrator 19.0.0, SVG Export Plug-In . SVG Version: 6.00 Build 0)  -->
<svg version="1.1" id="Layer_1" xmlns="http://www.w3.org/2000/svg" xmlns:xlink="http://www.w3.org/1999/xlink" x="0px" y="0px"
	 viewBox="0 0 290.004 290.004" style="enable-background:new 0 0 290.004 290.004;" xml:space="preserve">
<g>
	<path style="fill:#CCD0D2;" d="M226.521,0.018L63.483,0l0.1,99.712c0,41.969,31.712,76.499,72.485,81.011v91.159H99.825
		c-5.011,0-9.061,4.05-9.061,9.061c0,5.01,4.05,9.061,9.061,9.061h90.606c5.011,0,9.061-4.05,9.061-9.061
		c0-5.011-4.05-9.061-9.061-9.061h-36.242v-91.15c40.773-4.512,72.204-39.323,72.204-81.31L226.521,0.018z M208.553,98.86
		c0,35.499-28.387,64.276-63.424,64.276c-35.028,0-63.424-28.496-63.424-63.986l-0.109-81.02l127.075,0.018L208.553,98.86z"/>
	<path style="fill:#B7BBBD;" d="M136.077,181.276h18.121v18.121h-18.121V181.276z"/>
	<path style="fill:#BF392C;" d="M199.501,63.615v32.056c0,32.283-24.346,58.423-54.364,58.423s-54.364-26.158-54.364-58.423V54.554
		c0,0,14.397,9.486,36.161,9.061c14.053-0.199,25.768-9.178,36.261-9.061C184.379,54.762,199.501,63.615,199.501,63.615z"/>
</g>
<g>
</g>
<g>
</g>
<g>
</g>
<g>
</g>
<g>
</g>
<g>
</g>
<g>
</g>
<g>
</g>
<g>
</g>
<g>
</g>
<g>
</g>
<g>
</g>
<g>
</g>
<g>
</g>
<g>
</g>
</svg>
