<svg height="496pt" viewBox="0 -72 496 496" width="496pt" xmlns="http://www.w3.org/2000/svg" xmlns:xlink="http://www.w3.org/1999/xlink"><linearGradient id="a" gradientUnits="userSpaceOnUse" x1="248" x2="248" y1="352" y2="0"><stop offset="0" stop-color="#9f2fff"/><stop offset="1" stop-color="#0bb1d3"/></linearGradient><path d="m376 240c-22.054688 0-40 17.945312-40 40s17.945312 40 40 40 40-17.945312 40-40-17.945312-40-40-40zm0 64c-13.230469 0-24-10.769531-24-24s10.769531-24 24-24 24 10.769531 24 24-10.769531 24-24 24zm-256-64c-22.054688 0-40 17.945312-40 40s17.945312 40 40 40 40-17.945312 40-40-17.945312-40-40-40zm0 64c-13.230469 0-24-10.769531-24-24s10.769531-24 24-24 24 10.769531 24 24-10.769531 24-24 24zm360-62.527344v-65.335937c0-17.769531-11.929688-33.578125-29.015625-38.472657l-29.410156-8.398437-42.140625-84.304687c7.445312-4.066407 12.566406-11.890626 12.566406-20.960938 0-13.230469-10.769531-24-24-24h-216c-13.230469 0-24 10.769531-24 24 0 8.847656 4.863281 16.503906 12.007812 20.671875l-34.9375 59.894531-62.335937-64.933594c-4.644531-4.847656-11.183594-7.632812-17.902344-7.632812-13.6875 0-24.832031 11.144531-24.832031 25.496094 0 6.183594 2.289062 12.128906 6.457031 16.703125l58.0625 63.871093-10.230469 3.410157c-22.898437 7.625-38.289062 28.976562-38.289062 53.113281v46.878906c-9.289062 3.3125-16 12.113282-16 22.527344v16c0 13.230469 10.769531 24 24 24h28.199219c9.914062 27.921875 36.519531 48 67.800781 48s57.886719-20.078125 67.800781-48h120.398438c9.914062 27.921875 36.519531 48 67.800781 48s57.886719-20.078125 67.800781-48h28.199219c13.230469 0 24-10.769531 24-24v-16c0-10.414062-6.710938-19.214844-16-22.527344zm-328-225.472656h216c4.414062 0 8 3.585938 8 8s-3.585938 8-8 8h-216c-4.414062 0-8-3.585938-8-8s3.585938-8 8-8zm-133.703125 47.433594c-1.480469-1.625-2.296875-3.738282-2.296875-6.601563 0-4.871093 3.960938-8.832031 8.832031-8.832031 2.390625 0 4.71875.992188 6.367188 2.710938l65.496093 68.234374-6.078124 10.421876-9.496094 3.167968zm29.703125 216.566406c0 2.703125.175781 5.367188.472656 8h-24.472656c-4.414062 0-8-3.585938-8-8v-16c0-4.414062 3.585938-8 8-8h28.199219c-2.671875 7.519531-4.199219 15.574219-4.199219 24zm72 56c-30.871094 0-56-25.128906-56-56s25.128906-56 56-56 56 25.128906 56 56-25.128906 56-56 56zm59.824219-96c-8.558594-12.761719-21.113281-22.574219-35.824219-27.800781v-52.199219h104v16h-32v16h32v48zm39.929687-128-26.664062-32h54.910156v32zm28.246094 16v16h-60.902344l3.101563-9.304688 26.769531-6.695312zm-46.304688-12.664062-23.894531 5.96875-7.570312 22.695312h-21.285157l28.734376-57.480469zm102.304688 164.664062c0 2.703125.175781 5.367188.472656 8h-112.945312c.296875-2.632812.472656-5.296875.472656-8 0-8.425781-1.527344-16.480469-4.199219-24h120.398438c-2.671875 7.519531-4.199219 15.574219-4.199219 24zm-40-40v-80h104v16h-32v16h32v16.472656c-21.574219 2.398438-40.296875 14.34375-51.824219 31.527344zm36.945312-144-8-16h45.640626l6.398437 16zm50.4375 16 12.800782 32h-15.902344l-21.335938-32zm-51.628906 0h7.964844l21.335938 32h-55.964844zm-35.753906 17.894531v-49.894531h11.054688l11.449218 22.894531zm112 206.105469c-30.871094 0-56-25.128906-56-56s25.128906-56 56-56 56 25.128906 56 56-25.128906 56-56 56zm59.824219-96c-11.527344-17.183594-30.257813-29.128906-51.824219-31.527344v-58.007812l-34.585938-86.464844h-178.359374l-43.054688 86.113281v58.359375c-2.632812-.296875-5.296875-.472656-8-.472656-24.910156 0-46.894531 12.71875-59.824219 32h-28.175781v-45.40625c0-17.242188 10.992188-32.496094 27.351562-37.945312l42.039063-14.015626 55.210937-94.632812h206.453126l47.371093 94.726562 36.167969 10.335938c10.246094 2.929688 17.40625 12.425781 17.40625 23.082031v63.855469zm44.175781 40c0 4.414062-3.585938 8-8 8h-24.472656c.296875-2.632812.472656-5.296875.472656-8 0-8.425781-1.527344-16.480469-4.199219-24h28.199219c4.414062 0 8 3.585938 8 8zm0 0" fill="url(#a)"/></svg>