<svg height="496pt" viewBox="0 0 496 496.944" width="496pt" xmlns="http://www.w3.org/2000/svg" xmlns:xlink="http://www.w3.org/1999/xlink"><linearGradient id="a" gradientUnits="userSpaceOnUse" x1="248.472" x2="248.472" y1="496.944" y2="-.0016"><stop offset="0" stop-color="#9f2fff"/><stop offset="1" stop-color="#0bb1d3"/></linearGradient><path d="m394.097656 283.34375c1.71875-1.609375 3.421875-3.238281 5.039063-5.03125 42.296875-46.746094 33.6875-138.296875 33.296875-142.167969l-1.679688-16.800781-37.3125 37.3125c-11.210937 11.199219-25.578125 18.105469-41.105468 19.839844-4-125.136719-96.28125-172.710938-100.289063-174.71875l-3.574219-1.777344-3.578125 1.792969c-4.007812 2.007812-96.285156 49.582031-100.285156 174.71875-15.519531-1.742188-29.890625-8.640625-41.105469-19.839844l-37.3125-37.3125-1.679687 16.800781c-.390625 3.871094-9 95.433594 33.296875 142.167969 1.617187 1.785156 3.320312 3.425781 5.039062 5.03125-32.28125-7.121094-63.054687-20.910156-89.582031-40.800781l-12.792969-9.613282v16c0 48.054688 15.550782 87.40625 46.230469 116.964844 55.496094 53.488282 142.929687 58.761719 169.871094 59.074219-1.949219 18.175781-7.109375 36.078125-15.261719 52.382813l-.839844 1.6875v17.890624h96v-17.890624l-.839844-1.6875c-8.152343-16.304688-13.3125-34.207032-15.265624-52.382813 26.945312-.3125 114.367187-5.585937 169.871093-59.074219 30.683594-29.558594 46.234375-68.910156 46.234375-116.964844v-16l-12.800781 9.597657c-26.527344 19.898437-57.304687 33.6875-89.574219 40.800781zm-176.738281 197.601562c9.898437-21.042968 15.449219-44.3125 16.082031-67.546874l6.824219-252.453126h16.421875l6.824219 252.453126c.632812 23.234374 6.175781 46.503906 16.082031 67.546874zm221.832031-126.601562c-51.183594 49.367188-135.710937 54.242188-159.792968 54.609375l-.664063-24.730469c28.042969-3.664062 137.273437-20.277344 160.609375-59.160156l-13.71875-8.230469c-17.007812 28.351563-106.441406 45.808594-147.320312 51.3125l-3.488282-129.054687 2.785156-3.953125c14.703126-20.769531 34.871094-49.214844 34.871094-82.191407h-16c0 21.640626-11.121094 42.125-22.402344 59.117188l-1.804687-67.117188h-47.578125l-3.503906 129.71875c-11.863282-8.304687-27.832032-14.992187-44.527344-21.894531-24.960938-10.320312-53.257812-22.027343-56.335938-37.402343l-15.6875 3.144531c4.75 23.761719 35.839844 36.609375 65.902344 49.046875 20.554688 8.496094 41.609375 17.289062 50.082032 27.96875l-3.066407 113.425781c-24.054687-.351563-108.445312-5.128906-159.742187-54.5625-24.039063-23.160156-37.6875-53.261719-40.695313-89.65625 40.054688 26.027344 87.527344 40.210937 135.359375 40.210937h8v-16c-21.167968 0-37.777344-6.976562-50.777344-21.335937-27.199218-30.035156-30.398437-84.25-30.054687-112.175781l12.542969 12.542968c16.113281 16.101563 37.511718 24.96875 60.289062 24.96875h8v-8c0-108.792968 70.71875-156.769531 87.960938-166.839843 16.847656 10.0625 88.039062 59.03125 88.039062 166.839843v8h8c22.773438 0 44.175782-8.867187 60.28125-24.96875l12.542969-12.542968c.34375 27.925781-2.847656 82.152344-30.058594 112.175781-12.992187 14.359375-29.597656 21.335937-50.765625 21.335937v16h8c47.832032 0 95.304688-14.183593 135.359375-40.210937-3.007812 36.371094-16.640625 66.449219-40.640625 89.609375zm-406.71875-297.398438v8h40c22.054688 0 40-17.945312 40-40v-8h-40c-22.058594 0-40 17.941407-40 40zm40-8h-22.632812c3.304687-9.3125 12.199218-16 22.632812-16h22.632813c-3.304688 9.3125-12.203125 16-22.632813 16zm344 24v8h40c22.054688 0 40-17.945312 40-40v-8h-40c-22.058594 0-40 17.941407-40 40zm40-8h-22.632812c3.304687-9.3125 12.199218-16 22.632812-16h22.632813c-3.304688 9.3125-12.203125 16-22.632813 16zm-376 384h-40v8c0 22.054688 17.941406 40 40 40h40v-8c0-22.058593-17.945312-40-40-40zm0 32c-10.433594 0-19.328125-6.6875-22.632812-16h22.632812c10.429688 0 19.328125 6.6875 22.632813 16zm376-64h-40v8c0 22.054688 17.941406 40 40 40h40v-8c0-22.058593-17.945312-40-40-40zm0 32c-10.433594 0-19.328125-6.6875-22.632812-16h22.632812c10.429688 0 19.328125 6.6875 22.632813 16zm0 0" fill="url(#a)"/></svg>