<svg height="496pt" viewBox="-88 0 496 496" width="496pt" xmlns="http://www.w3.org/2000/svg" xmlns:xlink="http://www.w3.org/1999/xlink"><linearGradient id="a" gradientTransform="matrix(8 0 0 -8 -96 504)" gradientUnits="userSpaceOnUse" x1="32" x2="32" y1="1" y2="63"><stop offset="0" stop-color="#9f2fff"/><stop offset="1" stop-color="#0bb1d3"/></linearGradient><path d="m304 456v-182.113281c0-10.460938 2.480469-20.941407 7.160156-30.320313 5.785156-11.566406 8.839844-24.527344 8.839844-37.453125v-166.113281c0-22.054688-17.945312-40-40-40h-240c-22.054688 0-40 17.945312-40 40v166.113281c0 12.925781 3.054688 25.878907 8.839844 37.460938 4.679687 9.371093 7.160156 19.859375 7.160156 30.3125v182.113281c0 22.054688 17.945312 40 40 40h208c22.054688 0 40-17.945312 40-40zm-16 0c0 13.230469-10.769531 24-24 24h-208c-13.230469 0-24-10.769531-24-24v-182.113281c0-12.925781-3.054688-25.886719-8.839844-37.460938-4.679687-9.371093-7.160156-19.851562-7.160156-30.3125v-166.113281c0-13.230469 10.769531-24 24-24h240c13.230469 0 24 10.769531 24 24v166.113281c0 10.460938-2.480469 20.941407-7.160156 30.3125-5.785156 11.574219-8.839844 24.535157-8.839844 37.460938zm-88-408h-80v-16h80zm32 0h-16v-16h16zm-128 0h-16v-16h16zm-72 160h256v-144h-256zm16-128h224v112h-224zm154.664062 72 34.136719 25.601562-9.601562 12.796876-29.863281-22.398438h-91.75l-17.402344-78.265625 15.625-3.46875 14.605468 65.734375h4.640626l24-48h68.945312v16h-59.054688l-16 32zm-106.664062 264h-32c-8.824219 0-16 7.175781-16 16v16c0 8.824219 7.175781 16 16 16h32c8.824219 0 16-7.175781 16-16v-16c0-8.824219-7.175781-16-16-16zm-32 32v-16h32l.015625 16zm32-96h-32c-8.824219 0-16 7.175781-16 16v16c0 8.824219 7.175781 16 16 16h32c8.824219 0 16-7.175781 16-16v-16c0-8.824219-7.175781-16-16-16zm-32 32v-16h32l.015625 16zm32-96h-32c-8.824219 0-16 7.175781-16 16v16c0 8.824219 7.175781 16 16 16h32c8.824219 0 16-7.175781 16-16v-16c0-8.824219-7.175781-16-16-16zm-32 32v-16h32l.015625 16zm112 96h-32c-8.824219 0-16 7.175781-16 16v16c0 8.824219 7.175781 16 16 16h32c8.824219 0 16-7.175781 16-16v-16c0-8.824219-7.175781-16-16-16zm-32 32v-16h32l.015625 16zm32-96h-32c-8.824219 0-16 7.175781-16 16v16c0 8.824219 7.175781 16 16 16h32c8.824219 0 16-7.175781 16-16v-16c0-8.824219-7.175781-16-16-16zm-32 32v-16h32l.015625 16zm32-96h-32c-8.824219 0-16 7.175781-16 16v16c0 8.824219 7.175781 16 16 16h32c8.824219 0 16-7.175781 16-16v-16c0-8.824219-7.175781-16-16-16zm-32 32v-16h32l.015625 16zm40-96h-48c-13.230469 0-24 10.769531-24 24s10.769531 24 24 24h48c13.230469 0 24-10.769531 24-24s-10.769531-24-24-24zm0 32h-48c-4.414062 0-8-3.59375-8-8s3.585938-8 8-8h48c4.414062 0 8 3.59375 8 8s-3.585938 8-8 8zm72 160h-32c-8.824219 0-16 7.175781-16 16v16c0 8.824219 7.175781 16 16 16h32c8.824219 0 16-7.175781 16-16v-16c0-8.824219-7.175781-16-16-16zm-32 32v-16h32l.015625 16zm32-96h-32c-8.824219 0-16 7.175781-16 16v16c0 8.824219 7.175781 16 16 16h32c8.824219 0 16-7.175781 16-16v-16c0-8.824219-7.175781-16-16-16zm-32 32v-16h32l.015625 16zm32-96h-32c-8.824219 0-16 7.175781-16 16v16c0 8.824219 7.175781 16 16 16h32c8.824219 0 16-7.175781 16-16v-16c0-8.824219-7.175781-16-16-16zm-32 32v-16h32l.015625 16zm0-48h48v-48h-48zm16-32h16v16h-16zm-144-16h-48v48h48zm-16 32h-16v-16h16zm0 0" fill="url(#a)"/></svg>