<svg height="496pt" viewBox="-43 0 495 496" width="496pt" xmlns="http://www.w3.org/2000/svg" xmlns:xlink="http://www.w3.org/1999/xlink"><linearGradient id="a" gradientUnits="userSpaceOnUse" x1="204.5" x2="204.5" y1="496" y2="0"><stop offset="0" stop-color="#9f2fff"/><stop offset="1" stop-color="#0bb1d3"/></linearGradient><path d="m74.300781 305.054688 50.414063-13.503907 18.441406 43.167969-14.710938 6.28125-9.066406-21.214844c-3.136718 7.628906-4.933594 15.765625-4.933594 24.214844 0 24.441406 13.597657 46.398438 35.488282 57.320312l-7.144532 14.3125c-27.351562-13.640624-44.34375-41.097656-44.34375-71.632812 0-10.601562 2.054688-20.886719 6.007813-30.457031l-26 6.96875zm104.136719-25.054688c20.101562 0 38.589844 9.511719 50.542969 24.960938l-22.945313-2.769532-1.910156 15.886719 46.605469 5.617187 13.503906-50.414062-15.453125-4.144531-7.035156 26.238281c-14.933594-19.40625-38.109375-31.375-63.308594-31.375-16.035156 0-31.503906 4.726562-44.738281 13.671875l8.960937 13.25c10.566406-7.136719 22.945313-10.921875 35.777344-10.921875zm8.460938 127.375 13.929687-18.574219-12.800781-9.59375-28.167969 37.546875 36.90625 36.902344 11.308594-11.3125-19.117188-19.121094c39.136719-5.183594 69.464844-38.695312 69.464844-79.222656h-16c.015625 32.40625-24.226563 59.207031-55.523437 63.375zm-186.398438-83.421875c0-45.953125 17.894531-89.160156 50.390625-121.65625l47.21875-47.21875c-5.800781-4.382813-9.609375-11.261719-9.609375-19.078125 0-11.464844 8.089844-21.039062 18.847656-23.40625l-39.917968-73.1875c-1.914063-3.503906-2.929688-7.476562-2.929688-11.484375v-3.921875c0-13.230469 10.769531-24 24-24 15.199219 0 22.617188 10.800781 28.566406 19.472656 5.496094 8 8.929688 12.527344 15.394532 12.527344 6.472656 0 9.902343-4.527344 15.398437-12.527344 5.96875-8.671875 13.382813-19.472656 28.59375-19.472656 15.214844 0 22.640625 10.800781 28.605469 19.472656 5.503906 8 8.9375 12.527344 15.417968 12.527344 6.480469 0 9.910157-4.527344 15.421876-12.527344 5.960937-8.671875 13.394531-19.472656 28.601562-19.472656 13.230469 0 24 10.769531 24 24v3.921875c0 4.007813-1.015625 7.980469-2.9375 11.492187l-39.910156 73.179688c7.984375 1.757812 14.433594 7.511719 17.253906 15.039062 15.226562-1.703124 24.28125-9.503906 35.363281-19.105468 15.445313-13.367188 32.949219-28.527344 70.230469-28.527344v16c-31.320312 0-45.128906 11.960938-59.753906 24.625-5.75 4.984375-11.652344 9.984375-18.484375 14.109375 20.78125 9.335937 33.199219 26.867187 44.550781 42.929687 16.855469 23.832032 32.785156 46.335938 73.6875 46.335938v16c-49.183594 0-69.144531-28.207031-86.742188-53.097656-15.242187-21.550782-28.546874-40.34375-58.808593-42.664063-1.609375 4.355469-4.417969 8.089844-8.058594 10.839844l47.21875 47.21875c32.496094 32.503906 50.390625 75.703125 50.390625 121.65625 0 94.871094-77.175781 172.046875-172.046875 172.046875h-7.90625c-94.871094 0-172.046875-77.175781-172.046875-172.046875zm124.753906-211.953125h23.117188l-19.222656-44.847656 14.703124-6.296875 21.921876 51.144531h21.453124l21.921876-51.152344 14.703124 6.296875-19.222656 44.855469h23.117188l43.769531-80.246094c.648437-1.179687.984375-2.496094.984375-3.832031v-3.921875c0-4.414062-3.59375-8-8-8-6.488281 0-9.910156 4.527344-15.425781 12.527344-5.957031 8.671875-13.390625 19.472656-28.597657 19.472656-15.207031 0-22.640624-10.792969-28.601562-19.464844-5.511719-8.007812-8.941406-12.535156-15.421875-12.535156-6.472656 0-9.90625 4.527344-15.402344 12.527344-5.964843 8.671875-13.382812 19.472656-28.589843 19.472656-15.199219 0-22.617188-10.800781-28.578126-19.472656-5.496093-8.007813-8.917968-12.527344-15.382812-12.527344-4.40625 0-8 3.585938-8 8v3.921875c0 1.335937.335938 2.652344.976562 3.820313zm-20.753906 24c0 4.414062 3.59375 8 8 8h128c4.40625 0 8-3.585938 8-8s-3.59375-8-8-8h-128c-4.40625 0-8 3.585938-8 8zm-88 187.953125c0 86.046875 70 156.046875 156.046875 156.046875h7.90625c86.046875 0 156.046875-70 156.046875-156.046875 0-41.679687-16.230469-80.863281-45.703125-110.34375l-53.609375-53.609375h-121.375l-53.609375 53.609375c-29.472656 29.480469-45.703125 68.664063-45.703125 110.34375zm143.28125 139.472656 1.445312-15.9375c-63.214843-5.746093-112.726562-60-112.726562-123.535156 0-25.808594 7.792969-50.472656 22.519531-71.335937l-13.070312-9.234376c-16.648438 23.585938-25.449219 51.449219-25.449219 80.570313 0 71.726563 55.902344 132.984375 127.28125 139.472656zm-60.378906-241.769531-11.308594-11.3125-16.074219 16.097656 11.503907 11.125zm0 0" fill="url(#a)"/></svg>