<svg height="496pt" viewBox="0 0 496 496.976" width="496pt" xmlns="http://www.w3.org/2000/svg" xmlns:xlink="http://www.w3.org/1999/xlink"><linearGradient id="a" gradientUnits="userSpaceOnUse" x1="248.488" x2="248.488" y1="496.976" y2="-.0008"><stop offset="0" stop-color="#9f2fff"/><stop offset="1" stop-color="#0bb1d3"/></linearGradient><path d="m360.488281 160.976562c0-4.417968 3.582031-8 8-8 4.414063 0 8 3.582032 8 8 0 4.414063-3.585937 8-8 8-4.417969 0-8-3.585937-8-8zm88 320h16v16h-432v-16h16v-24c0-22.464843 13.328125-41.832031 32.472657-50.746093l13.605468-45.34375c.523438-1.71875 1.265625-3.300781 1.929688-4.941407v-127.191406c0-15.25 8.472656-28.960937 22.113281-35.777344l9.878906-4.945312v-19.054688h-16v-24c0-13.234374 10.769531-24 24-24h47.816407l25.917968-120.976562 127.875 18.273438-10.648437 49.742187c6.3125-6.953125 15.304687-11.039063 25.039062-11.039063 12.917969 0 24.535157 7.175782 30.3125 18.734376l38.109375 76.226562c2.335938 4.679688 3.578125 9.917969 3.578125 15.152344 0 18.6875-15.199219 33.886718-33.886719 33.886718h-30.113281v19.71875l44.441407 29.625-8.875 13.3125-35.566407-23.710937v20.765625l44.441407 29.625-8.875 13.3125-35.566407-23.703125v20.765625l44.441407 29.625-8.875 13.3125-35.566407-23.703125v20.765625l44.441407 29.625-8.875 13.3125-35.566407-23.703125v25.695313c12.023438 1.726562 22.824219 7.246093 31.121094 15.359374h.878906c30.878907 0 56 25.121094 56 56zm-88-79.191406v7.191406c0 19.320313 13.769531 35.480469 32 39.191407v-7.191407c0-19.320312-13.769531-35.480468-32-39.191406zm-62.113281-242.695312c-1.238281 2.46875-1.886719 5.238281-1.886719 8 0 9.863281 8.023438 17.886718 17.886719 17.886718h76.226562c9.863282 0 17.886719-8.023437 17.886719-17.886718 0-2.761719-.65625-5.53125-1.886719-8l-38.113281-76.226563c-1.769531-3.535156-4.632812-6.160156-8-7.855469v29.96875h-16v-29.96875c-3.367187 1.695313-6.230469 4.320313-8 7.855469zm16 41.886718c-5.277344 0-10.214844-1.320312-14.671875-3.480468l-4.078125 19.046875c5.527344 3.007812 10.640625 6.511719 15.464844 9.863281 4.300781 2.992188 8.453125 5.714844 12.664062 8.113281l20.734375-13.824219v-19.71875zm-114.863281-74.570312c5.425781 4.410156 8.976562 11.050781 8.976562 18.570312v24h-16v19.054688l9.886719 4.945312c7.433594 3.71875 13.328125 9.664063 17.210938 16.894532 2.855468-.519532 5.78125-.894532 8.886718-.894532 7.582032 0 14.335938 1.734376 20.503906 5.28125 4.765626-2.25 12.496094-5.28125 19.519532-5.28125 4.257812 0 8.246094.566407 12.046875 1.511719l5.386719-25.113281c-3.410157-5.285156-5.441407-11.542969-5.441407-18.285156 0-5.234375 1.238281-10.472656 3.574219-15.160156l15.808594-31.625 18.992187-88.632813-96.121093-13.71875zm-71.023438 26.570312h64v-8c0-4.410156-3.59375-8-8-8h-48c-4.410156 0-8 3.589844-8 8zm-16 80h63.457031c3.285157-2.03125 6.566407-4.214843 9.941407-6.570312 5.617187-3.902344 11.609375-8.039062 18.226562-11.308594-2.273437-3.273437-5.265625-6-8.898437-7.808594l-18.726563-9.367187v-28.945313h-32v28.945313l-18.734375 9.367187c-8.1875 4.085938-13.265625 12.3125-13.265625 21.464844zm0 100.960938c4.96875-4.128906 10.582031-7.425781 16.742188-9.617188l9.363281-46.800781c2.183594-10.886719 7.300781-20.75 14.460938-28.535156h-40.566407zm320 123.039062c0-18.066406-12.113281-33.183593-28.585937-38.136718 2.9375 6.792968 4.585937 14.273437 4.585937 22.136718v24h-8c-20.382812 0-38.199219-10.984374-48-27.304687-9.800781 16.320313-27.617187 27.304687-48 27.304687h-8v-24c0-28.152343 20.902344-51.457031 48-55.359374v-25.695313l-35.558593 23.710937-8.875-13.3125 44.433593-29.625v-20.765624l-35.558593 23.710937-8.875-13.3125 44.433593-29.632813v-20.765624l-35.558593 23.710937-8.875-13.3125 44.433593-29.632813v-20.765624l-35.558593 23.710937-8.875-13.3125 8.984374-5.984375c-2.398437-1.582031-4.773437-3.183594-7.085937-4.792969-10.777344-7.503906-20.953125-14.574219-33.449219-14.574219-4.734375 0-12.335937 3.351563-16.007812 5.464844l-4.558594 2.621094-4.226562-3.140625c-4.574219-3.425781-9.269532-4.945313-15.238282-4.945313-12.496094 0-22.671875 7.070313-33.441406 14.566407-5.902344 4.113281-12.015625 8.359375-18.765625 11.632812-7.042969 3.417969-12.90625 9.070313-16.9375 16.0625 5.71875 1.890625 9.945313 4.648438 13.601563 7.089844 5.574218 3.710937 9.980468 6.648437 19.558593 6.648437v16c-14.425781 0-22.191406-5.175781-28.441406-9.34375-3.328125-2.21875-6.253906-4.144531-10.09375-5.34375l-7.769531 38.855469c.679687-.023437 1.335937-.160156 2.023437-.160156h84.28125v16h-84.289062c-17.808594 0-33.199219 11.457031-38.3125 28.503906l-10.726563 35.769531c1.761719-.179687 3.527344-.28125 5.328125-.28125h80v16h-80c-22.054687 0-40 17.945313-40 40v24h368zm-120-16v7.191407c18.230469-3.710938 32-19.878907 32-39.191407v-7.191406c-18.230469 3.710938-32 19.871094-32 39.191406zm-136-8v16c9.574219 0 13.984375 2.933594 19.558594 6.65625 6.25 4.167969 14.015625 9.34375 28.441406 9.34375v-16c-9.578125 0-13.984375-2.9375-19.558593-6.65625-6.25-4.167968-14.019532-9.34375-28.441407-9.34375zm40-40v-16c-9.578125 0-13.984375-2.9375-19.558593-6.65625-6.25-4.167968-14.019532-9.34375-28.441407-9.34375v16c9.574219 0 13.984375 2.933594 19.558594 6.65625 6.25 4.167969 14.015625 9.34375 28.441406 9.34375zm8 16v16c9.574219 0 13.984375 2.933594 19.558594 6.65625 6.25 4.167969 14.015625 9.34375 28.441406 9.34375v-16c-9.578125 0-13.984375-2.9375-19.558593-6.65625-6.25-4.167968-14.019532-9.34375-28.441407-9.34375zm8-56v16c14.421875 0 22.191407-5.175781 28.441407-9.34375 5.574218-3.722656 9.980468-6.65625 19.558593-6.65625v-16c-14.425781 0-22.191406 5.175782-28.441406 9.34375-5.574219 3.71875-9.984375 6.65625-19.558594 6.65625zm40-88v-16c-14.425781 0-22.191406 5.175782-28.441406 9.34375-5.574219 3.71875-9.984375 6.65625-19.558594 6.65625v16c14.421875 0 22.191407-5.175781 28.441407-9.34375 5.574218-3.722656 9.980468-6.65625 19.558593-6.65625zm-24-216h-16v16h16zm0 64h16v-16h-16zm8 56h16v-16h-16zm-16-40h-16v16h16zm56-88h-16v16h16zm-56 136h-16v16h16zm-240 320h16v-16h-16zm480 0h16v-16h-16zm0 0" fill="url(#a)"/></svg>