<svg height="496pt" viewBox="0 0 496 496" width="496pt" xmlns="http://www.w3.org/2000/svg" xmlns:xlink="http://www.w3.org/1999/xlink"><linearGradient id="a" gradientTransform="matrix(8 0 0 -8 -8 504)" gradientUnits="userSpaceOnUse" x1="32" x2="32" y1="1" y2="63"><stop offset="0" stop-color="#9f2fff"/><stop offset="1" stop-color="#0bb1d3"/></linearGradient><path d="m225.472656 64c3.3125 9.289062 12.113282 16 22.527344 16s19.214844-6.710938 22.527344-16h9.472656c13.230469 0 24-10.769531 24-24s-10.769531-24-24-24h-9.472656c-3.3125-9.289062-12.113282-16-22.527344-16s-19.214844 6.710938-22.527344 16h-9.472656c-13.230469 0-24 10.769531-24 24s10.769531 24 24 24zm46.527344-32h8c4.414062 0 8 3.59375 8 8s-3.585938 8-8 8h-8zm-32-8c0-4.40625 3.585938-8 8-8s8 3.59375 8 8v8h-16zm0 24h16v8c0 4.40625-3.585938 8-8 8s-8-3.59375-8-8zm-32-8c0-4.40625 3.585938-8 8-8h8v16h-8c-4.414062 0-8-3.59375-8-8zm-120 16h-9.472656c-3.3125-9.289062-12.113282-16-22.527344-16s-19.214844 6.710938-22.527344 16h-9.472656c-13.230469 0-24 10.769531-24 24s10.769531 24 24 24h9.472656c2.464844 6.902344 7.960938 12.304688 14.917969 14.648438 1.929687 23.824218 13.816406 34.742187 23.640625 43.535156 9.273438 8.304687 15.96875 14.304687 15.96875 29.816406h16c0-22.664062-11.3125-32.800781-21.296875-41.734375-8.960937-8.027344-16.773437-15.128906-18.367187-31.851563 6.625-2.46875 11.808593-7.75 14.183593-14.421874h9.480469c13.230469 0 24-10.769532 24-24 0-13.230469-10.769531-23.992188-24-23.992188zm-56 32h-8c-4.414062 0-8-3.59375-8-8s3.585938-8 8-8h8zm32 8c0 4.40625-3.585938 8-8 8s-8-3.59375-8-8v-8h16zm0-24h-16v-8c0-4.40625 3.585938-8 8-8s8 3.59375 8 8zm24 16h-8v-16h8c4.414062 0 8 3.59375 8 8s-3.585938 8-8 8zm384 0h-9.472656c-3.3125-9.289062-12.113282-16-22.527344-16s-19.214844 6.710938-22.527344 16h-9.472656c-13.230469 0-24 10.769531-24 24s10.769531 24 24 24h9.472656c2.351563 6.609375 7.472656 11.863281 14.007813 14.367188-1.578125 9.878906-7.015625 13.777343-14.6875 19.113281-11.050781 7.679687-24.800781 17.246093-24.800781 46.519531h16c0-20.910156 7.910156-26.414062 17.929687-33.382812 8.8125-6.136719 19.484375-13.695313 21.613281-31.953126 6.984375-2.335937 12.503906-7.742187 14.976563-14.664062h9.488281c13.230469 0 24-10.769531 24-24s-10.769531-24-24-24zm-56 32h-8c-4.414062 0-8-3.59375-8-8s3.585938-8 8-8h8zm32 8c0 4.40625-3.585938 8-8 8s-8-3.59375-8-8v-8h16zm0-24h-16v-8c0-4.40625 3.585938-8 8-8s8 3.59375 8 8zm24 16h-8v-16h8c4.414062 0 8 3.59375 8 8s-3.585938 8-8 8zm-288 312c13.230469 0 24-10.769531 24-24v-96c0-13.230469-10.769531-24-24-24s-24 10.769531-24 24v96c0 13.230469 10.769531 24 24 24zm-8-120c0-4.414062 3.585938-8 8-8s8 3.585938 8 8v96c0 4.414062-3.585938 8-8 8s-8-3.585938-8-8zm72 120c13.230469 0 24-10.769531 24-24v-96c0-13.230469-10.769531-24-24-24s-24 10.769531-24 24v96c0 13.230469 10.769531 24 24 24zm-8-120c0-4.414062 3.585938-8 8-8s8 3.585938 8 8v96c0 4.414062-3.585938 8-8 8s-8-3.585938-8-8zm72 120c13.230469 0 24-10.769531 24-24v-96c0-13.230469-10.769531-24-24-24s-24 10.769531-24 24v96c0 13.230469 10.769531 24 24 24zm-8-120c0-4.414062 3.585938-8 8-8s8 3.585938 8 8v96c0 4.414062-3.585938 8-8 8s-8-3.585938-8-8zm-191.894531-86.558594c-9.34375 3.285156-16.105469 12.101563-16.105469 22.558594 0 10.742188 7.136719 19.753906 16.886719 22.800781l27.273437 190.855469c2.800782 19.574219 19.824219 34.34375 39.59375 34.34375h136.492188c19.777344 0 36.800781-14.769531 39.59375-34.34375l27.273437-190.855469c9.75-3.046875 16.886719-12.058593 16.886719-22.800781 0-10.542969-6.878906-19.414062-16.34375-22.632812-3.335938-32.183594-30.609375-57.367188-63.65625-57.367188-4.105469 0-8.191406.398438-12.230469 1.191406-9.328125-24.605468-32.875-41.191406-59.769531-41.191406-24.023438 0-45.457031 13.105469-56.472656 33.945312-5.09375-1.289062-10.304688-1.945312-15.527344-1.945312-35.289062 0-64 28.710938-64 64 0 .480469.089844.960938.105469 1.441406zm204.140625 254.558594h-136.492188c-10.25 0-19.242187-6.625-22.585937-16h181.664062c-3.34375 9.375-12.328125 16-22.585937 16zm25.378906-32h-187.257812l-25.144532-176h237.546875zm-165.625-272c5.761719 0 11.488281 1.0625 17.015625 3.167969l7.425781 2.824219 2.871094-7.390626c7.238281-18.59375 24.785156-30.601562 44.6875-30.601562 22.230469 0 41.398438 15.113281 46.609375 36.742188l2.039063 8.457031 8.253906-2.734375c4.929687-1.632813 10.007812-2.464844 15.097656-2.464844 23.734375 0 43.449219 17.335938 47.28125 40h-239.28125c0-26.472656 21.527344-48 48-48zm-56 64h256c4.414062 0 8 3.59375 8 8s-3.585938 8-8 8h-256c-4.414062 0-8-3.59375-8-8s3.585938-8 8-8zm40-48h16v16h-16zm72-32h16v16h-16zm24 32h16v16h-16zm-48 0h16v16h-16zm120-48h-16c0-21.070312 9.945312-39.921875 19.558594-58.144531 10.050781-19.046875 20.441406-38.742188 20.441406-61.855469h16c0 27.070312-11.839844 49.519531-22.289062 69.328125-9.109376 17.257813-17.710938 33.558594-17.710938 50.671875zm-191.734375-52.296875c-7.992187-12.960937-16.265625-26.359375-16.265625-51.703125h16c0 20.808594 6.441406 31.230469 13.878906 43.304688 8.496094 13.75 18.121094 29.351562 18.121094 60.695312h-16c0-26.808594-7.640625-39.183594-15.734375-52.296875zm0 0" fill="url(#a)"/></svg>