<svg height="496pt" viewBox="0 0 496 496" width="496pt" xmlns="http://www.w3.org/2000/svg" xmlns:xlink="http://www.w3.org/1999/xlink"><linearGradient id="a" gradientTransform="matrix(8 0 0 -8 -8 504)" gradientUnits="userSpaceOnUse" x1="32" x2="32" y1="1" y2="63"><stop offset="0" stop-color="#9f2fff"/><stop offset="1" stop-color="#0bb1d3"/></linearGradient><path d="m192 448h16v16h-16zm48 16h16v-16h-16zm48 0h16v-16h-16zm-288-216c0-136.742188 111.246094-248 248-248s248 111.257812 248 248c0 89.929688-48.054688 171.609375-125.929688 215.679688 3.953126 5.097656 7.503907 10.550781 10.683594 16.320312h83.246094v16h-432v-16h83.246094c3.179687-5.769531 6.738281-11.222656 10.683594-16.320312-77.875-44.070313-125.929688-125.75-125.929688-215.679688zm362.089844 232c-19.824219-29.886719-53.074219-48-89.648438-48h-48.890625c-36.574219 0-69.816406 18.113281-89.648437 48zm112.894531-279.96875c-23.695313 15.519531-51.625 23.96875-79.878906 23.96875-14.945313 0-27.105469 12.160156-27.105469 27.097656v3.605469c0 11.679687 7.449219 22.007813 18.527344 25.710937 17.625 5.875 29.472656 22.304688 29.472656 40.882813v22.558594c0 7.921875 3.457031 15.417969 9.472656 20.578125l15.09375 12.933594c25.226563-37.503907 39.433594-82.207032 39.433594-129.367188 0-16.441406-1.742188-32.480469-5.015625-47.96875zm-258.945313-113.109375c-5.03125 3.351563-8.039062 8.972656-8.039062 15.023437 0 9.957032 8.105469 18.054688 18.054688 18.054688h49.664062c20.378906 0 39.527344 7.9375 53.9375 22.34375 11.390625 11.382812 26.519531 17.65625 42.625 17.65625h15.4375c16.105469 0 31.234375-6.273438 42.625-17.65625l12.0625-12.054688c1.082031-1.082031 2.160156-2.265624 3.273438-3.570312-39.601563-64.292969-109.664063-107.863281-189.917969-110.519531-1.257813 28.542969-15.800781 54.777343-39.722657 70.722656zm-198.007812 130.863281c21.425781 11.453125 36.855469 31.839844 41.640625 55.800782 1.671875 8.351562 9.070313 14.414062 17.585937 14.414062 4.71875 0 9.34375-1.910156 12.679688-5.246094l8.40625-8.410156c8.679688-8.679688 13.65625-20.695312 13.65625-32.976562v-10.742188c0-16.730469 6.511719-32.457031 18.34375-44.289062 8.808594-8.808594 13.65625-20.519532 13.65625-32.976563v-14.207031c0-10.550782-3.625-20.894532-10.214844-29.136719-11.097656-13.863281-24.234375-25.902344-38.929687-36.078125-41.152344 36.261719-69.367188 86.824219-76.824219 143.847656zm-2.03125 30.214844c0 85.273438 46.183594 162.625 120.808594 203.449219 22.71875-22.410157 53.535156-35.449219 86.75-35.449219h16.441406v-32h-56c-39.703125 0-72-32.296875-72-72v-8h72c22.609375 0 42.792969 10.496094 56 26.839844v-42.839844h-24c-30.871094 0-56-25.128906-56-56v-8h40c16.550781 0 31.398438 7.257812 41.664062 18.710938 5.984376-24.472657 28.046876-42.710938 54.335938-42.710938h40v8c0 30.878906-25.128906 56-56 56h-24v82.839844c13.207031-16.351563 33.390625-26.839844 56-26.839844h72v8c0 39.703125-32.296875 72-72 72h-56v16h16.449219c33.214843 0 64.03125 13.03125 86.75 35.449219 28.464843-15.570313 52.761719-36.441407 71.953125-61.074219l-16.097656-13.789062c-9.566407-8.203126-15.054688-20.136719-15.054688-32.730469v-22.558594c0-11.679687-7.449219-22.007813-18.527344-25.710937-17.632812-5.875-29.472656-22.304688-29.472656-40.882813v-3.605469c0-23.769531 19.335938-43.097656 43.105469-43.097656 27.007812 0 53.628906-8.769531 75.679687-24.609375-4.257812-14.65625-9.921875-28.71875-16.839844-42.03125-.074218.074219-.136718.160156-.210937.226563l-12.070313 12.0625c-14.40625 14.40625-33.558593 22.34375-53.9375 22.34375h-15.4375c-20.378906 0-39.527343-7.9375-53.9375-22.34375-11.390624-11.382813-26.519531-17.65625-42.625-17.65625h-49.664062c-18.78125 0-34.054688-15.28125-34.054688-34.054688 0-11.417969 5.671876-22.007812 15.167969-28.335938 19.457031-12.96875 31.351563-34.226562 32.59375-57.402343-49.523437 1.746093-95.136719 19.046875-132.089843 47.207031 14.472656 10.503906 27.480468 22.722656 38.617187 36.625 8.839844 11.058594 13.71875 24.953125 13.71875 39.128906v14.207032c0 16.730468-6.511719 32.457031-18.34375 44.289062-8.808594 8.808594-13.65625 20.519531-13.65625 32.976562v10.742188c0 16.730469-6.511719 32.457031-18.34375 44.289062l-8.40625 8.40625c-6.3125 6.3125-15.066406 9.9375-23.992187 9.9375-16.113282 0-30.105469-11.472656-33.273438-27.273437-3.398438-17-13.480469-31.734375-27.632812-41.320313-.238282 4.160157-.367188 8.363282-.367188 12.585938zm296 136c28.167969 0 51.535156-20.894531 55.433594-48h-55.433594c-28.167969 0-51.535156 20.894531-55.433594 48zm-32-136c19.320312 0 35.480469-13.769531 39.191406-32h-23.191406c-19.320312 0-35.480469 13.769531-39.191406 32zm-80-8h-23.191406c3.71875 18.230469 19.871094 32 39.191406 32h23.191406c-3.710937-18.230469-19.871094-32-39.191406-32zm-16 80h-55.433594c3.890625 27.105469 27.265625 48 55.433594 48h55.433594c-3.898438-27.105469-27.265625-48-55.433594-48zm296 176h16v-16h-16zm-464-16h-16v16h16zm0 0" fill="url(#a)"/></svg>