<svg height="496pt" viewBox="0 -1 496 496" width="496pt" xmlns="http://www.w3.org/2000/svg" xmlns:xlink="http://www.w3.org/1999/xlink"><linearGradient id="a" gradientUnits="userSpaceOnUse" x1="248" x2="248" y1="494.128" y2="-.0008"><stop offset="0" stop-color="#9f2fff"/><stop offset="1" stop-color="#0bb1d3"/></linearGradient><path d="m35.320312 443.304688c-12.824218-15.074219-19.320312-30.28125-19.320312-45.175782 0-40.5625 13.953125-55.320312 27.441406-69.578125 14.046875-14.855469 28.558594-30.207031 28.558594-82.421875v-12.945312l11.574219 5.792968c2.800781 1.390626 68.425781 34.808594 68.425781 87.152344h-16c0-30.898437-31.089844-55.167968-48.351562-66.265625-2.527344 47.898438-18.425782 64.703125-32.585938 79.671875-12.375 13.089844-23.0625 24.394532-23.0625 58.59375 0 11 5.214844 22.710938 15.503906 34.824219zm227.71875-341.175782c0-30.074218 25.511719-53.871094 40.792969-65.425781 3.175781 27.648437 15.320313 40.410156 25.34375 50.960937 13.007813 13.671876 22.417969 23.558594 6.351563 67.726563l15.03125 5.472656c18.097656-49.757812 7.875-65.65625-9.789063-84.222656-10.679687-11.242187-21.730469-22.847656-21.730469-54.511719v-13.785156l-11.96875 6.839844c-2.453124 1.402344-60.03125 34.90625-60.03125 86.945312zm-42.238281 105.597656-12.800781-9.597656v16c0 24.167969-6.425781 34.664063-12.632812 44.800782-5.582032 9.125-11.367188 18.558593-11.367188 35.199218 0 34.910156 25.265625 60.582032 26.34375 61.65625l11.3125-11.3125c-.214844-.214844-21.65625-21.984375-21.65625-50.34375 0-12.128906 3.976562-18.625 9.007812-26.839844 5.046876-8.242187 11.023438-18 13.648438-34.640624 8.039062 10.679687 17.34375 28.457031 17.34375 53.480468v11.816406l10.96875-4.386718c3.617188-1.445313 29.238281-12.207032 40.144531-30.558594 6.007813 9.113281 12.886719 23.0625 12.886719 39.128906 0 26.527344-27.320312 40.710938-27.574219 40.839844l7.160157 14.3125c1.476562-.746094 36.414062-18.632812 36.414062-55.152344 0-34.914062-25.265625-60.585937-26.34375-61.65625l-13.65625-13.65625v19.3125c0 10.992188-13.71875 21.304688-24.6875 27.503906-4.792969-43.121093-33.191406-64.921874-34.511719-65.90625zm3.199219 190.402344h-16v16h16zm64 0h-16v16h16zm-176 64h16v-16h-16zm48 0h16v-16h-16zm224-16h-16v16h16zm-128 0h-16v16h16zm80 0h-16v16h16zm-232.414062-218.527344c-12.171876-36.523437-4.832032-46.609374 5.308593-60.5625 6.984375-9.589843 15.371094-21.117187 18.152344-41.878906 10.617187 8.792969 24.953125 23.847656 24.953125 40.96875h16c0-36.113281-42.097656-61.785156-43.878906-62.855468l-12.121094-7.273438v14.128906c0 25.457032-8.160156 36.664063-16.039062 47.503906-10.976563 15.085938-22.328126 30.6875-7.546876 75.03125zm224.414062-5.472656h16c0-22.226562 14.519531-39.242187 25.160156-48.722656 3.480469 21.449219 14.113282 31.683594 22.253906 39.53125 10.554688 10.152344 16.371094 15.742188 1.433594 45.613281l14.3125 7.160157c18.75-37.496094 9.894532-50.304688-4.640625-64.304688-9.105469-8.757812-18.519531-17.8125-18.519531-43.277344v-14.128906l-12.121094 7.273438c-1.78125 1.070312-43.878906 26.832031-43.878906 70.855468zm-138.34375-150.34375c8.769531-8.761718 15.792969-17.847656 17.785156-42.3125 10.558594 8.839844 24.558594 23.742188 24.558594 40.65625h16c0-36.113281-42.097656-61.785156-43.878906-62.855468l-12.121094-7.273438v14.128906c0 32.6875-6.632812 39.320313-13.65625 46.34375-10.390625 10.390625-18.34375 21.238282-18.34375 57.65625h16c0-32.6875 6.632812-39.320312 13.65625-46.34375zm178.34375 278.34375h16c0-42.992187 31.832031-61.9375 48.335938-68.871094 1.894531 30.75 11.527343 48.398438 19.441406 62.863282 6.824218 12.503906 12.222656 22.390625 12.222656 38.007812 0 21.734375-17.519531 33.421875-32.222656 39.40625l6.03125 14.824219c27.207031-11.070313 42.191406-30.335937 42.191406-54.230469 0-19.703125-6.886719-32.320312-14.183594-45.671875-8.761718-16.042969-17.816406-32.632812-17.816406-66.328125v-10.25l-9.9375 2.488282c-.703125.175781-70.0625 18.320312-70.0625 87.761718zm-80-160h16c0-13.578125-6.136719-22.703125-12.070312-31.535156-6.128907-9.128906-11.929688-17.753906-11.929688-32.464844h-16c0 19.582032 8.128906 31.671875 14.648438 41.382813 5.222656 7.777343 9.351562 13.921875 9.351562 22.617187zm-193.753906 165c8.320312-10.402344 17.753906-22.191406 17.753906-37h-16c0 9.191406-6.921875 17.839844-14.246094 27-8.320312 10.398438-17.753906 22.191406-17.753906 37h16c0-9.191406 6.921875-17.839844 14.246094-27zm41.753906-173h-16c0 19.3125 11.863281 31.183594 22.34375 41.65625 9.480469 9.480469 17.65625 17.65625 17.65625 30.34375h16c0-19.3125-11.863281-31.183594-22.34375-41.65625-9.480469-9.480468-17.65625-17.65625-17.65625-30.34375zm304 200c0-9.890625-4.496094-18.882812-8.839844-27.578125-3.679687-7.359375-7.160156-14.3125-7.160156-20.421875h-16c0 9.886719 4.496094 18.878906 8.839844 27.574219 3.679687 7.359375 7.160156 14.3125 7.160156 20.425781zm-424 96h-16v16h16zm34.503906 0c13.808594-35.511718 46.953125-60.136718 84.519532-63.554687 29.441406-30.765625 70.382812-48.445313 112.976562-48.445313s83.503906 17.679688 112.953125 48.445313c37.574219 3.410156 70.71875 28.035156 84.535156 63.554687h18.511719v16h-432v-16zm301.496094-48c-32.496094 0-62.191406 19.023438-76.078125 48h152.148437c-13.878906-28.976562-43.574218-48-76.070312-48zm-194.191406-14.984375c35.558594 5.007813 66.464844 29 79.679687 62.984375h21.015625c13.214844-33.976562 44.121094-57.976562 79.671875-62.984375-25.152343-21.082031-57.085937-33.015625-90.175781-33.015625-33.078125 0-65.039062 11.933594-90.191406 33.015625zm-89.886719 62.984375h152.148437c-13.878906-28.976562-43.574218-48-76.070312-48s-62.191406 19.023438-76.078125 48zm412.078125 16h16v-16h-16zm-224-80h-16v16h16zm0 0" fill="url(#a)"/></svg>