<svg height="496pt" viewBox="-48 0 496 496" width="496pt" xmlns="http://www.w3.org/2000/svg" xmlns:xlink="http://www.w3.org/1999/xlink"><linearGradient id="a" gradientUnits="userSpaceOnUse" x1="200" x2="200" y1="496" y2="0"><stop offset="0" stop-color="#9f2fff"/><stop offset="1" stop-color="#0bb1d3"/></linearGradient><path d="m376.832031 149.617188 14.128907-56.496094c.6875-2.738282 1.039062-5.5625 1.039062-8.394532 0-15.878906-10.761719-29.664062-26.167969-33.519531l-136.726562-34.183593c-2.746094-.679688-5.5625-1.023438-8.371094-1.023438h-1.589844c-14.898437 0-28.074219 9.496094-32.785156 23.625l-20.878906 62.640625-2.609375-.570313c-10.933594-2.398437-18.871094-12.253906-18.871094-23.457031v-54.238281c0-13.230469-10.769531-24-24-24h-96c-13.230469 0-24 10.769531-24 24v432c0 22.054688 17.945312 40 40 40h320c22.054688 0 40-17.945312 40-40v-270.238281c0-15.664063-9.382812-29.65625-23.167969-36.144531zm-175.304687-104.929688c2.535156-7.582031 9.617187-12.6875 17.617187-12.6875h1.589844c1.511719 0 3.035156.183594 4.496094.542969l136.714843 34.175781c8.269532 2.089844 14.054688 9.480469 14.054688 18.015625 0 1.511719-.183594 3.027344-.550781 4.496094l-13.976563 55.898437-15.648437-3.425781 14.71875-58.832031-142.957031-35.742188-20.664063 62.007813-15.730469-3.441407zm139.617187 49.824219-10.945312 43.777343-117.558594-25.714843 15.449219-46.335938zm-325.144531-70.511719c0-4.414062 3.585938-8 8-8h96c4.414062 0 8 3.585938 8 8v24h-112zm0 40h112v14.238281c0 .601563.128906 1.167969.152344 1.761719h-112.152344zm0 192h48v96h-48zm368 200c0 13.230469-10.769531 24-24 24h-320c-13.230469 0-24-10.769531-24-24v-8h368zm0-24h-368v-64h48v24c0 13.230469 10.769531 24 24 24h224c13.230469 0 24-10.769531 24-24v-24h48zm-304-40v-176c0-4.414062 3.585938-8 8-8h224c4.414062 0 8 3.585938 8 8v176c0 4.414062-3.585938 8-8 8h-224c-4.414062 0-8-3.585938-8-8zm304-40h-48v-96h48zm0-112h-48v-24c0-13.230469-10.769531-24-24-24h-224c-13.230469 0-24 10.769531-24 24v24h-48v-144h116.34375c5.304688 10.558594 15.0625 18.679688 27.113281 21.320312l205.671875 44.984376c10.933594 2.398437 18.871094 12.253906 18.871094 23.457031zm-186.390625 144h4.78125c33.96875 0 61.609375-27.640625 61.609375-61.609375 0-13.621094-4.609375-27.054687-12.976562-37.824219l-51.023438-65.597656-51.023438 65.605469c-8.367187 10.761719-12.976562 24.195312-12.976562 37.816406 0 33.96875 27.640625 61.609375 61.609375 61.609375zm-36.007813-89.601562 38.398438-49.367188 38.398438 49.359375c6.1875 7.96875 9.601562 17.914063 9.601562 28 0 25.144531-20.464844 45.609375-45.609375 45.609375h-4.78125c-25.144531 0-45.609375-20.464844-45.609375-45.609375 0-10.085937 3.414062-20.03125 9.601562-27.992187zm0 0" fill="url(#a)"/></svg>