<svg height="496pt" viewBox="0 0 496 496" width="496pt" xmlns="http://www.w3.org/2000/svg" xmlns:xlink="http://www.w3.org/1999/xlink"><linearGradient id="a" gradientUnits="userSpaceOnUse" x1="248" x2="248" y1="496" y2="0"><stop offset="0" stop-color="#9f2fff"/><stop offset="1" stop-color="#0bb1d3"/></linearGradient><path d="m440 97.855469v-41.855469c0-10.414062-6.710938-19.214844-16-22.527344v-9.472656c0-13.230469-10.769531-24-24-24h-48c-13.230469 0-24 10.769531-24 24v9.472656c-9.289062 3.3125-16 12.113282-16 22.527344v41.855469c-32.015625 7.304687-56 35.953125-56 70.144531v40h16v216c0 30.878906 25.128906 56 56 56 2.753906 0 5.480469-.273438 8.191406-.671875 10.160156 10.28125 24.25 16.671875 39.808594 16.671875s29.648438-6.390625 39.808594-16.671875c2.710937.398437 5.4375.671875 8.191406.671875 30.871094 0 56-25.121094 56-56v-216h16v-40c0-34.191406-23.984375-62.839844-56-70.144531zm-96-73.855469c0-4.40625 3.585938-8 8-8h48c4.414062 0 8 3.59375 8 8v8h-64zm-16 32c0-4.40625 3.585938-8 8-8h80c4.414062 0 8 3.59375 8 8v40h-96zm-40 368v-216h32v232c0 8.488281 1.953125 16.511719 5.351562 23.734375-20.800781-1.398437-37.351562-18.589844-37.351562-39.734375zm128 16c0 22.054688-17.945312 40-40 40s-40-17.945312-40-40v-232h16v232c0 13.230469 10.769531 24 24 24s24-10.769531 24-24v-232h16zm-48 0v-232h16v232c0 4.40625-3.585938 8-8 8s-8-3.59375-8-8zm96-16c0 21.144531-16.550781 38.335938-37.351562 39.734375 3.398437-7.222656 5.351562-15.246094 5.351562-23.734375v-232h32zm16-248v16h-208v-16h16v-16h-15.359375c3.902344-27.097656 27.207031-48 55.359375-48h96c28.152344 0 51.457031 20.902344 55.359375 48h-15.359375v16zm-176-16h144v16h-144zm-248 239.503906v40.496094c0 10.414062 6.710938 19.214844 16 22.527344v9.472656c0 13.230469 10.769531 24 24 24h48c13.230469 0 24-10.769531 24-24v-9.472656c9.289062-3.3125 16-12.113282 16-22.527344v-40.496094c31.519531-3.953125 56-30.929687 56-63.503906v-48h-32v-68.449219c9.519531-5.550781 16-15.757812 16-27.550781 0-6.632812-2.03125-12.800781-5.503906-17.910156 12.480468-4.378906 21.503906-16.136719 21.503906-30.089844s-9.023438-25.710938-21.503906-30.089844c3.472656-5.109375 5.503906-11.277344 5.503906-17.910156 0-17.648438-14.351562-32-32-32h-20.449219c2.753907-4.726562 4.449219-10.144531 4.449219-16 0-17.648438-14.351562-32-32-32h-80c-17.648438 0-32 14.351562-32 32 0 6.632812 2.03125 12.800781 5.503906 17.910156-12.480468 4.378906-21.503906 16.136719-21.503906 30.089844 0 6.632812 2.03125 12.800781 5.503906 17.910156-12.480468 4.378906-21.503906 16.136719-21.503906 30.089844s9.023438 25.710938 21.503906 30.089844c-3.472656 5.109375-5.503906 11.277344-5.503906 17.910156 0 11.792969 6.480469 22 16 27.550781v68.449219h-32v48c0 32.574219 24.480469 59.550781 56 63.503906zm96 72.496094c0 4.40625-3.585938 8-8 8h-48c-4.414062 0-8-3.59375-8-8v-8h64zm16-32c0 4.40625-3.585938 8-8 8h-80c-4.414062 0-8-3.59375-8-8v-8h96zm24-232h-144c-8.824219 0-16-7.175781-16-16s7.175781-16 16-16h144c8.824219 0 16 7.175781 16 16s-7.175781 16-16 16zm0 16v64h-16v-64zm-32 0v64h-80v-64zm-96 0v64h-16v-64zm0-192h80c8.824219 0 16 7.175781 16 16s-7.175781 16-16 16h-80c-8.824219 0-16-7.175781-16-16s7.175781-16 16-16zm-16 48h144c8.824219 0 16 7.175781 16 16s-7.175781 16-16 16h-144c-8.824219 0-16-7.175781-16-16s7.175781-16 16-16zm-32 64c0-8.824219 7.175781-16 16-16h176c8.824219 0 16 7.175781 16 16s-7.175781 16-16 16h-176c-8.824219 0-16-7.175781-16-16zm0 176v-16h208v16h-16v16h16c0 26.472656-21.527344 48-48 48h-8v32h-96v-32h-8c-26.472656 0-48-21.527344-48-48h16v-16zm176 16h-144v-16h144zm0 0" fill="url(#a)"/></svg>