<svg height="496pt" viewBox="0 0 496 496" width="496pt" xmlns="http://www.w3.org/2000/svg" xmlns:xlink="http://www.w3.org/1999/xlink"><linearGradient id="a" gradientUnits="userSpaceOnUse" x1="248" x2="248" y1="496" y2="0"><stop offset="0" stop-color="#9f2fff"/><stop offset="1" stop-color="#0bb1d3"/></linearGradient><path d="m312 26-1.542969 1.160156c-14.769531 11.078125-34.359375 15.328125-52.464843 11.320313l-53.640626-11.921875c-27.765624-6.160156-57.3125-.871094-81.167968 14.464844l-77.320313 49.695312c-8.679687 5.585938-13.863281 15.082031-13.863281 25.402344 0 10.117187 5.023438 19.511718 13.449219 25.125l2.285156 1.523437c.320313.214844.679687.335938 1.007813.535157.019531.078124.011718.160156.027343.246093-10.480469 7.433594-16.769531 19.34375-16.769531 32.449219 0 22.054688 17.945312 40 40 40 4.585938 0 9.097656-.785156 13.359375-2.3125 8.054687 15.855469 24.472656 26.3125 42.640625 26.3125 21.382812 0 39.449219-13.792969 45.574219-33.441406 3.417969.953125 6.921875 1.441406 10.425781 1.441406 19.3125 0 35.472656-13.769531 39.191406-32h37.105469c14.128906 0 28.269531-3.335938 40.902344-9.65625 10.449219-5.222656 19.6875-12.304688 27.457031-21.039062l47.6875-53.648438 4.34375 4.34375h13.984375l101.328125-76v-20h-184zm-128 166c-4.246094 0-8.359375-1.175781-12.230469-3.488281l-11-6.582031-1.089843 12.765624c-1.40625 16.703126-15.03125 29.304688-31.679688 29.304688-14.207031 0-26.824219-9.648438-30.664062-23.464844l-2.953126-10.597656-9.167968 6.070312c-3.949219 2.617188-8.519532 3.992188-13.214844 3.992188-13.230469 0-24-10.769531-24-24 0-9.207031 5.222656-17.464844 13.632812-21.519531l6.589844-3.183594-2.589844-6.847656c-1.089843-2.863281-1.632812-5.707031-1.632812-8.449219 0-13.230469 10.769531-24 24-24 5.351562 0 10.496094 1.847656 14.871094 5.34375l7.929687 6.335938 4.3125-9.183594c5.261719-11.238282 16.605469-18.496094 28.886719-18.496094 12.472656 0 23.488281 7.328125 28.726562 18.152344-12.078124 4.582031-20.726562 16.183594-20.726562 29.847656 0 17.648438 14.351562 32 32 32h22.527344c-3.3125 9.289062-12.113282 16-22.527344 16zm-12.710938-103.257812c1.878907-.460938 3.808594-.742188 5.765626-.742188h20.824218c8.386719 0 16.265625 4.464844 20.578125 11.65625l7.414063 12.34375h-36.71875c-3.410156-9.601562-9.753906-17.609375-17.863282-23.257812zm156.710938-72.742188h146.664062l-85.335937 64h-2.015625l-59.3125-59.3125zm-5.320312 21.992188 42.328124 42.328124-48.3125 54.34375c-6.40625 7.214844-14.03125 13.054688-22.65625 17.359376-10.414062 5.222656-22.085937 7.976562-33.742187 7.976562h-76.296875c-8.824219 0-16-7.175781-16-16s7.175781-16 16-16h45.335938c8.601562 0 17.121093-2.839844 24-8l23.464843-17.601562-9.601562-12.796876-23.464844 17.597657c-.476563.359375-1.015625.632812-1.519531.953125l-10.039063-16.738282c-7.175781-11.972656-20.328125-19.414062-34.296875-19.414062h-20.824218c-7.40625 0-14.65625 2.046875-20.964844 5.9375l-4.457032 2.742188c-2.496093-.40625-5.03125-.679688-7.632812-.679688-15.449219 0-29.894531 7.617188-38.824219 19.96875-5.351562-2.617188-11.175781-3.96875-17.175781-3.96875-17.679688 0-32.542969 11.609375-37.816406 27.542969-1.367188-2.207031-2.183594-4.734375-2.183594-7.421875 0-4.855469 2.441406-9.320313 6.519531-11.945313l77.320313-49.695312c20.304687-13.066407 45.433594-17.542969 69.054687-12.3125l53.640625 11.921875c22.609375 5.023437 47.082032-.296875 65.519532-14.136719zm-306.679688 266.007812h.9375l24 192h174.125l24-192h.9375c8.824219 0 16-7.175781 16-16v-16c0-8.824219-7.175781-16-16-16h-224c-8.824219 0-16 7.175781-16 16v16c0 8.824219 7.175781 16 16 16zm17.0625 0h50.203125l30.460937 18.855469-37.109374 22.976562-41.546876-25.710937zm58.753906 51.238281 37.113282-22.972656 37.109374 22.972656-37.109374 22.976563zm75.503906 65.5625-39.28125 25.625-38.046874-25.296875 38.929687-24.097656zm-53.664062-116.800781h30.527344l-15.261719 9.449219zm-76.03125 36.503906 23.789062 14.726563-20.375 12.617187zm5.597656 44.808594 33.394532-20.671875 37.109374 22.976563-38.390624 23.765624-31.472657-20.917968zm3.265625 26.113281 13.878907 9.222657-11.808594 7.3125zm4.253907 34 24.289062-15.035156 26.480469 17.609375h-50.449219zm150.195312 34.574219h-145.875l-2-16h149.875zm4-32h-50.035156l27.441406-17.902344 23.046875 14.261719zm2.636719-21.097656-10.429688-6.453125 12.230469-7.984375zm4.402343-35.238282-29.855468 19.480469-38-23.519531 37.109375-22.976562 31.679687 19.609374zm3.113282-24.871093-18.664063-11.554688 21.789063-13.484375zm5.679687-45.441407-39.539062 24.480469-37.109375-22.976562 30.464844-18.855469h48.351562zm-204.769531-49.351562h224l.007812 16h-224.007812zm72-112h16v16h-16zm32 32h16v16h-16zm0-64h16v16h-16zm0 0" fill="url(#a)"/></svg>