<svg height="496pt" viewBox="0 0 496 496" width="496pt" xmlns="http://www.w3.org/2000/svg" xmlns:xlink="http://www.w3.org/1999/xlink"><linearGradient id="a" gradientUnits="userSpaceOnUse" x1="248" x2="248" y1="496" y2="0"><stop offset="0" stop-color="#9f2fff"/><stop offset="1" stop-color="#0bb1d3"/></linearGradient><path d="m144 272h120v16h-120zm269.296875 112c-17.945313 0-26.519531-6.640625-36.457031-14.328125-10.703125-8.28125-22.839844-17.671875-46.246094-17.671875-23.402344 0-35.523438 9.390625-46.226562 17.679688-9.925782 7.679687-18.503907 14.320312-36.421876 14.320312-17.929687 0-26.503906-6.640625-36.441406-14.328125-10.695312-8.28125-22.832031-17.671875-46.238281-17.671875-23.402344 0-35.523437 9.390625-46.21875 17.671875-9.917969 7.6875-18.503906 14.328125-36.421875 14.328125-17.921875 0-26.496094-6.640625-36.417969-14.328125-10.695312-8.28125-22.816406-17.671875-46.207031-17.671875v16c17.921875 0 26.496094 6.640625 36.414062 14.328125 10.699219 8.28125 22.816407 17.671875 46.210938 17.671875 23.398438 0 35.519531-9.390625 46.214844-17.671875 9.929687-7.6875 18.503906-14.328125 36.425781-14.328125 17.933594 0 26.511719 6.640625 36.445313 14.328125 10.703124 8.28125 22.832031 17.671875 46.234374 17.671875 23.390626 0 35.519532-9.390625 46.214844-17.671875 9.9375-7.6875 18.503906-14.328125 36.433594-14.328125 17.941406 0 26.519531 6.640625 36.453125 14.328125 10.714844 8.28125 22.839844 17.671875 46.25 17.671875 23.40625 0 35.535156-9.390625 46.246094-17.671875 9.9375-7.6875 18.511719-14.328125 36.457031-14.328125v-16c-23.40625 0-35.535156 9.390625-46.246094 17.671875-9.929687 7.6875-18.515625 14.328125-36.457031 14.328125zm0 96c-17.945313 0-26.519531-6.640625-36.457031-14.328125-10.703125-8.28125-22.839844-17.671875-46.246094-17.671875-23.402344 0-35.523438 9.390625-46.226562 17.679688-9.925782 7.679687-18.503907 14.320312-36.421876 14.320312-17.929687 0-26.503906-6.640625-36.441406-14.328125-10.695312-8.28125-22.832031-17.671875-46.238281-17.671875-23.402344 0-35.523437 9.390625-46.21875 17.671875-9.917969 7.6875-18.503906 14.328125-36.421875 14.328125-17.921875 0-26.496094-6.640625-36.417969-14.328125-10.695312-8.28125-22.816406-17.671875-46.207031-17.671875v16c17.921875 0 26.496094 6.640625 36.414062 14.328125 10.699219 8.28125 22.816407 17.671875 46.210938 17.671875 23.398438 0 35.519531-9.390625 46.214844-17.671875 9.929687-7.6875 18.503906-14.328125 36.425781-14.328125 17.933594 0 26.511719 6.640625 36.445313 14.328125 10.703124 8.28125 22.832031 17.671875 46.234374 17.671875 23.390626 0 35.519532-9.390625 46.214844-17.671875 9.9375-7.6875 18.503906-14.328125 36.433594-14.328125 17.941406 0 26.519531 6.640625 36.453125 14.328125 10.714844 8.28125 22.839844 17.671875 46.25 17.671875 23.40625 0 35.535156-9.390625 46.246094-17.671875 9.9375-7.6875 18.511719-14.328125 36.457031-14.328125v-16c-23.40625 0-35.535156 9.390625-46.246094 17.671875-9.929687 7.6875-18.515625 14.328125-36.457031 14.328125zm0-48c-17.945313 0-26.519531-6.640625-36.457031-14.328125-10.703125-8.28125-22.839844-17.671875-46.246094-17.671875-23.402344 0-35.523438 9.390625-46.226562 17.679688-9.925782 7.679687-18.503907 14.320312-36.421876 14.320312-17.929687 0-26.503906-6.640625-36.441406-14.328125-10.695312-8.28125-22.832031-17.671875-46.238281-17.671875-23.402344 0-35.523437 9.390625-46.21875 17.671875-9.917969 7.6875-18.503906 14.328125-36.421875 14.328125-17.921875 0-26.496094-6.640625-36.417969-14.328125-10.695312-8.28125-22.816406-17.671875-46.207031-17.671875v16c17.921875 0 26.496094 6.640625 36.414062 14.328125 10.699219 8.28125 22.816407 17.671875 46.210938 17.671875 23.398438 0 35.519531-9.390625 46.214844-17.671875 9.929687-7.6875 18.503906-14.328125 36.425781-14.328125 17.933594 0 26.511719 6.640625 36.445313 14.328125 10.703124 8.28125 22.832031 17.671875 46.234374 17.671875 23.390626 0 35.519532-9.390625 46.214844-17.671875 9.9375-7.6875 18.503906-14.328125 36.433594-14.328125 17.941406 0 26.519531 6.640625 36.453125 14.328125 10.714844 8.28125 22.839844 17.671875 46.25 17.671875 23.40625 0 35.535156-9.390625 46.246094-17.671875 9.9375-7.6875 18.511719-14.328125 36.457031-14.328125v-16c-23.40625 0-35.535156 9.390625-46.246094 17.671875-9.929687 7.6875-18.515625 14.328125-36.457031 14.328125zm49.574219-119.527344c8.234375-4.785156 18.472656-8.472656 33.128906-8.472656v16c-17.945312 0-26.519531 6.640625-36.457031 14.328125-10.710938 8.28125-22.839844 17.671875-46.246094 17.671875-23.410156 0-35.535156-9.390625-46.25-17.671875-9.925781-7.6875-18.511719-14.328125-36.453125-14.328125-17.929688 0-26.496094 6.640625-36.433594 14.328125-10.6875 8.28125-22.824218 17.671875-46.214844 17.671875-23.402343 0-35.53125-9.390625-46.234374-17.671875-9.925782-7.6875-18.511719-14.328125-36.445313-14.328125-17.921875 0-26.496094 6.640625-36.425781 14.328125-10.6875 8.28125-22.816406 17.671875-46.214844 17.671875-23.394531 0-35.511719-9.390625-46.210938-17.671875-9.917968-7.6875-18.492187-14.328125-36.414062-14.328125v-16c23.390625 0 35.511719 9.390625 46.207031 17.671875 9.410157 7.289063 17.695313 13.558594 33.792969 14.199219v-92.09375c0-22.167969-5.238281-44.371094-15.160156-64.191406l-.839844-1.699219v-41.886719h238.664062c5.464844-12.441406 11.816407-24.527344 19.183594-36.105469l14.152344-22.222656v-15.144531c-9.289062-3.3125-16-12.113282-16-22.527344v-16c0-13.230469 10.769531-24 24-24h64c13.230469 0 24 10.769531 24 24v16c0 10.414062-6.710938 19.214844-16 22.527344v15.144531l14.152344 22.222656c27.375 43.035157 41.847656 92.738281 41.847656 143.730469 0 23.277344-3.152344 46.398438-9.128906 68.847656zm-126.871094-272.472656c0 4.414062 3.585938 8 8 8h64c4.414062 0 8-3.585938 8-8v-16c0-4.414062-3.585938-8-8-8h-64c-4.414062 0-8 3.585938-8 8zm-19.328125 104h118.65625c-5.28125-12.238281-11.449219-24.144531-18.679687-35.503906l-16.648438-26.167969v-18.328125h-48v18.328125l-16.648438 26.167969c-7.230468 11.359375-13.390624 23.265625-18.679687 35.503906zm-76.671875 24h16v-16h-16zm-32 0h16v-16h-16zm-32 0h16v-16h-16zm-32 0h16v-16h-16zm-32 0h16v-16h-16zm-16 0v-16h-16v16zm37.945312 143.527344c-14.058593-11.113282-21.945312-24.96875-21.945312-39.527344 0-35.886719 45.679688-64 104-64 23.808594 0 46.710938 5.023438 64.960938 13.902344 1.039062-12.796875 3-25.453125 5.839843-37.902344h-202.480469c7.640626 18.9375 11.679688 39.359375 11.679688 59.777344v90.65625c9.542969-2.394532 15.984375-7.289063 23.046875-12.753906 4.457031-3.464844 9.226563-7.070313 14.898437-10.152344zm156.367188 5.6875-.015625-.046875c-6.824219-23.902344-10.296875-48.648438-10.296875-73.542969 0-1.351562.121094-2.6875.144531-4.03125-16.761719-9.914062-39.800781-15.59375-64.144531-15.59375-47.703125 0-88 21.984375-88 48 0 12.097656 9.105469 24.039062 24.953125 33.070312 3.757813-.628906 7.765625-1.070312 12.3125-1.070312 23.40625 0 35.535156 9.390625 46.238281 17.671875 9.9375 7.6875 18.511719 14.328125 36.441406 14.328125 17.917969 0 26.496094-6.640625 36.421876-14.320312 1.90625-1.472657 3.890624-2.976563 5.945312-4.464844zm5.878906-165.214844h-24.191406v16h18.910156c1.585938-5.382812 3.363282-10.71875 5.28125-16zm155.710938 136h-151.804688c1.261719 7.03125 2.773438 14.015625 4.628906 20.929688 6.921876-2.921876 15.183594-4.929688 25.867188-4.929688 23.40625 0 35.535156 9.390625 46.246094 17.671875 9.9375 7.6875 18.511718 14.328125 36.457031 14.328125 13.75 0 21.992187-3.910156 29.566406-9.191406.703125-3.441406 1.417969-6.886719 2.359375-10.199219l1.089844-3.832031c2.335938-8.152344 4.101562-16.441406 5.589844-24.777344zm4.097656-44.375c0-28.679688-4.96875-56.898438-14.390625-83.625h-131.21875c-9.421875 26.726562-14.390625 54.945312-14.390625 83.625 0 9.503906.679688 18.960938 1.742188 28.375h156.503906c1.074218-9.414062 1.753906-18.871094 1.753906-28.375zm-200-3.625h-80v16h80zm56 16h128v-16h-128zm120-48h-112v16h112zm0-32h-112v16h112zm0 0" fill="url(#a)"/></svg>