<svg height="496pt" viewBox="-64 0 496 496" width="496pt" xmlns="http://www.w3.org/2000/svg" xmlns:xlink="http://www.w3.org/1999/xlink"><linearGradient id="a" gradientTransform="matrix(8 0 0 -8 -72 504)" gradientUnits="userSpaceOnUse" x1="32" x2="32" y1="1" y2="63"><stop offset="0" stop-color="#9f2fff"/><stop offset="1" stop-color="#0bb1d3"/></linearGradient><path d="m248 305.960938h16c0 40.527343-30.328125 74.039062-69.464844 79.222656l19.121094 19.121094-11.3125 11.3125-36.902344-36.90625 28.167969-37.542969 12.796875 9.59375-13.925781 18.574219c31.28125-4.167969 55.519531-30.960938 55.519531-63.375zm-12.671875-40.199219-23.046875-2.777344-1.914062 15.886719 46.609374 5.609375 13.503907-50.417969-15.457031-4.140625-6.992188 26.101563c-10.65625-13.894532-25.4375-23.917969-42.640625-28.527344-20.648437-5.527344-42.199219-2.695313-60.703125 7.992187l8 13.855469c28.074219-16.191406 63.390625-8.601562 82.640625 16.417969zm-125.886719 8.542969c-15.074218 36.488281-1.21875 79.503906 33.878906 99.765624l8-13.855468c-28.074218-16.199219-39.152343-50.589844-27.121093-79.773438l9.121093 21.34375 14.710938-6.28125-18.4375-43.167968-50.417969 13.503906 4.144531 15.457031zm242.558594-154.304688v9.472656c9.289062 3.3125 16 12.113282 16 22.527344 0 10.609375-6.96875 19.527344-16.527344 22.6875l-21.058594 252.632812c-1.316406 15.878907-12.09375 29.007813-26.414062 34.207032v10.472656c0 13.230469-10.769531 24-24 24h-192c-13.230469 0-24-10.769531-24-24v-10.472656c-14.320312-5.207032-25.097656-18.335938-26.414062-34.207032l-21.058594-252.632812c-9.558594-3.160156-16.527344-12.078125-16.527344-22.6875 0-10.414062 6.710938-19.214844 16-22.527344v-9.472656c0-66.167969 53.832031-120 120-120h96c66.167969 0 120 53.832031 120 120zm-232-48c0 13.230469 10.769531 24 24 24h80c13.230469 0 24-10.769531 24-24v-54.640625c-5.230469-.816406-10.542969-1.359375-16-1.359375h-96c-5.457031 0-10.769531.550781-16 1.359375zm-88 56h304v-8c0-46.175781-30.273438-85.375-72-98.910156v50.910156c0 22.054688-17.945312 40-40 40h-80c-22.054688 0-40-17.945312-40-40v-50.910156c-41.726562 13.535156-72 52.734375-72 98.910156zm256 336h-208v8c0 4.414062 3.59375 8 8 8h192c4.40625 0 8-3.585938 8-8zm47.304688-288h-302.609376l20.832032 249.992188c1.023437 12.34375 11.535156 22.007812 23.921875 22.007812h213.109375c12.386718 0 22.890625-9.664062 23.921875-22.007812zm16.695312-24c0-4.414062-3.59375-8-8-8h-320c-4.40625 0-8 3.585938-8 8s3.59375 8 8 8h320c4.40625 0 8-3.585938 8-8zm-120-120h-96v16h96zm0 0" fill="url(#a)"/></svg>