<svg height="496pt" viewBox="0 0 496 496" width="496pt" xmlns="http://www.w3.org/2000/svg" xmlns:xlink="http://www.w3.org/1999/xlink"><linearGradient id="a" gradientUnits="userSpaceOnUse" x1="248" x2="248" y1="496" y2="0"><stop offset="0" stop-color="#9f2fff"/><stop offset="1" stop-color="#0bb1d3"/></linearGradient><path d="m136 285.167969c0-2.398438.457031-4.753907 1.34375-6.992188l7.152344-17.878906 31.503906 17.183594v-122.960938l-112.703125 61.480469 29.289063 15.976562-16.121094 25.792969c-8.152344 13.039063-12.464844 28.0625-12.464844 43.445313 0 19.144531 6.742188 37.777344 19 52.488281l.664062.808594c15.632813 18.734375 38.582032 29.488281 62.984376 29.488281h61.351562v-80h-53.167969c-10.382812 0-18.832031-8.457031-18.832031-18.832031zm56 82.832031h-45.351562c-19.640626 0-38.113282-8.65625-50.6875-23.742188l-.664063-.800781c-9.863281-11.832031-15.296875-26.832031-15.296875-42.242187 0-12.382813 3.472656-24.480469 10.03125-34.96875l25.113281-40.191406-18.441406-10.054688 63.296875-34.519531v69.046875l-23.664062-12.902344-13.847657 34.621094c-1.65625 4.128906-2.488281 8.480468-2.488281 12.921875 0 19.207031 15.625 34.832031 34.832031 34.832031h37.167969zm200.039062-179.367188-66.589843 41.960938 25.070312 47.390625c5.167969 9.757813 2.207031 22.199219-6.589843 27.75-1.914063 1.203125-3.984376 1.992187-6.144532 2.328125l-17.730468 2.792969-.839844-37.757813-101.808594 64.148438 102.59375 69.890625v-36.242188l30.113281 2.160157c14.886719.617187 29.558594-3.414063 42.429688-11.527344 15.855469-9.984375 28.058593-25.765625 34.34375-44.4375l.34375-1.019532c7.96875-23.644531 5.914062-49.734374-5.636719-71.566406zm20.023438 122.328126-.34375 1.015624c-5.117188 15.175782-14.957031 27.96875-27.710938 36.007813-10.128906 6.390625-21.695312 9.496094-33.015624 9.09375l-46.992188-3.375v23.167969l-57.40625-39.109375 57.246094-36.074219.617187 27.824219 35.808594-5.632813c4.328125-.679687 8.429687-2.230468 12.191406-4.605468 15.71875-9.898438 21.191407-31.785157 12.199219-48.769532l-18.136719-34.28125 39.449219-24.847656 21.480469 40.609375c9.511719 17.960937 11.191406 39.464844 4.613281 58.976563zm-179.496094-190.410157c5.554688-9.199219 17.96875-12.335937 27.671875-6.976562 2.234375 1.234375 4.160157 2.832031 5.730469 4.738281l12.34375 15.015625-33.441406 19.511719 115.128906 51.503906v-118.695312l-29.289062 17.085937-15.160157-27.277344c-7.550781-13.59375-18.894531-24.832031-32.808593-32.519531-17.230469-9.511719-37.527344-12.984375-57.117188-9.738281l-1.082031.175781c-25.039063 4.136719-46.710938 18.617188-59.453125 39.746094l-32.242188 53.414062 72.074219 39.816406zm-77.421875.007813 23.648438-39.175782c10.328125-17.109374 27.960937-28.847656 48.375-32.222656l1.070312-.175781c16.066407-2.648437 32.671875.167969 46.769531 7.953125 11.28125 6.230469 20.464844 15.328125 26.558594 26.285156l23.097656 41.578125 19.335938-11.296875v66.152344l-64.152344-28.703125 22.761719-13.28125-24.28125-29.519531c-2.863281-3.480469-6.335937-6.359375-10.34375-8.566406-17.136719-9.480469-39.167969-3.769532-49.121094 12.710937l-19.679687 32.597656zm-155.144531 375.441406h496v-496h-496zm480-16h-336v-48h336zm-464-464h464v400h-464zm0 416h112v48h-112zm16 16h80v16h-80zm432 16h-16v-16h16zm-32 0h-16v-16h16zm-32 0h-16v-16h16zm0 0" fill="url(#a)"/></svg>