<svg height="496pt" viewBox="-22 0 496 496" width="496pt" xmlns="http://www.w3.org/2000/svg" xmlns:xlink="http://www.w3.org/1999/xlink"><linearGradient id="a" gradientUnits="userSpaceOnUse" x1="225.66" x2="225.66" y1="496" y2="0"><stop offset="0" stop-color="#9f2fff"/><stop offset="1" stop-color="#0bb1d3"/></linearGradient><path d="m40 462.910156v9.089844c0 13.230469 10.769531 24 24 24h360c13.230469 0 24-10.769531 24-24 0-12.207031-9.191406-22.199219-21.007812-23.695312l24.3125-24.34375-31.992188-32.03125 32.007812-31.992188-32-31.984375 32-31.976563-24.304687-24.289062c11.800781-1.496094 20.984375-11.488281 20.984375-23.6875 0-13.230469-10.769531-24-24-24h-152v-52.121094c0-14.96875-5.832031-29.023437-16.40625-39.597656l-13.136719-13.136719c3.414063-4.136719 5.542969-9.367187 5.542969-15.144531 0-13.230469-10.769531-24-24-24h-56v-48c0-17.648438-14.351562-32-32-32s-32 14.351562-32 32v48h-56c-13.230469 0-24 10.769531-24 24 0 5.777344 2.128906 11 5.535156 15.152344l-13.136718 13.136718c-10.566407 10.566407-16.398438 24.632813-16.398438 39.589844v242.234375c0 7.695313 1.824219 15.414063 5.265625 22.3125 6.992187 13.980469 19.832031 23.503907 34.734375 26.484375zm-18.808594-30.910156h159.527344l15.976562 16h-146.808593c-11.847657 0-22.542969-6.089844-28.695313-16zm42.808594 48c-4.414062 0-8-3.59375-8-8v-8h121.472656c-.898437 2.511719-1.472656 5.183594-1.472656 8s.574219 5.488281 1.472656 8zm368-8c0 4.40625-3.585938 8-8 8h-224c-4.414062 0-8-3.59375-8-8s3.585938-8 8-8h224c4.414062 0 8 3.59375 8 8zm-3.320312-176.015625-24 23.976563-36.6875.039062.015624 16 36.679688-.039062 23.992188 23.976562-24 23.984375-84.6875.078125.015624 16 84.679688-.070312 24.007812 24.039062-24.015624 24.03125h-185.359376l-24.015624-24.039062 24.007812-24.03125 36.671875.070312.03125-16-36.695313-.070312-24-23.992188 23.992188-23.976562 84.679688.039062.015624-16-84.695312-.039062-23.992188-23.976563 23.992188-23.984375h185.367188zm-369.742188-33.726563c10.414062 8.316407 22.222656 17.742188 45.023438 17.742188 22.800781 0 34.597656-9.433594 45.007812-17.753906 7.941406-6.359375 15.0625-11.925782 27.085938-13.644532.304687 11.925782 9.320312 21.613282 20.921874 23.09375l-8.5625 8.550782c-1.460937-.085938-2.847656-.246094-4.429687-.246094-22.816406 0-34.609375 9.433594-45.015625 17.753906-9.554688 7.644532-17.808594 14.246094-35.007812 14.246094-17.199219 0-25.480469-6.59375-35.058594-14.222656-5.726563-4.5625-12.214844-9.539063-20.664063-13.066406-.085937-1.566407-.238281-3.117188-.238281-4.710938 0-8.167969 1.207031-16.039062 3.296875-23.550781 2.589844 1.796875 5.085937 3.765625 7.640625 5.808593zm-1.792969-21.082031c14.382813-29.078125 44.28125-49.175781 78.855469-49.175781 26.351562 0 51.105469 12.039062 67.679688 32h-3.679688c-7.113281 0-13.441406 3.167969-17.839844 8.097656-21.566406.511719-33.082031 9.574219-43.191406 17.65625-9.554688 7.644532-17.808594 14.246094-35.007812 14.246094-17.199219 0-25.472657-6.601562-35.039063-14.238281-3.65625-2.929688-7.457031-5.898438-11.777344-8.585938zm1.785157 69.113281c10.421874 8.304688 22.238281 17.710938 45.03125 17.710938 22.808593 0 34.597656-9.433594 45.007812-17.753906 7.40625-5.925782 14.085938-11.183594 24.703125-13.269532l31.007813 30.976563-31.925782 31.910156c-11.472656 5.28125-23.96875 8.136719-36.753906 8.136719-39.921875 0-73.664062-26.742188-84.390625-63.246094 2.480469 1.742188 4.886719 3.589844 7.320313 5.535156zm365.070312-70.289062c4.414062 0 8 3.59375 8 8s-3.585938 8-8 8h-224c-4.414062 0-8-3.59375-8-8s3.585938-8 8-8zm-288-224c8.824219 0 16 7.175781 16 16s-7.175781 16-16 16-16-7.175781-16-16 7.175781-16 16-16zm-16 43.550781c4.726562 2.753907 10.144531 4.449219 16 4.449219s11.273438-1.695312 16-4.449219v20.449219h-32zm-72 36.449219h176c4.414062 0 8 3.59375 8 8s-3.585938 8-8 8h-176c-4.414062 0-8-3.59375-8-8s3.585938-8 8-8zm-32 75.878906c0-10.6875 4.167969-20.734375 11.71875-28.285156l16.023438-16.027344c1.386718.25 2.800781.433594 4.257812.433594h176c1.457031 0 2.871094-.183594 4.257812-.433594l16.023438 16.035156c7.550781 7.550782 11.71875 17.589844 11.71875 28.277344v52.121094h-32.40625c-19.042969-29.703125-52.152344-48-87.59375-48-57.34375 0-104 46.65625-104 104s46.65625 104 104 104c17.046875 0 33.734375-4.175781 48.65625-12.089844l20.03125 20.019532-24.039062 24.070312h-164.535157c-.042969-.632812-.113281-1.257812-.113281-1.886719zm224 116.121094h32v16h-32zm64 64h32v16h-32zm-48 64h32v16h-32zm104-128h32v16h-32zm8 144h-32v-16h32zm-144-80h32v16h-32zm176 16h-32v-16h32zm0 0" fill="url(#a)"/></svg>