<svg height="496pt" viewBox="-64 0 496 496" width="496pt" xmlns="http://www.w3.org/2000/svg" xmlns:xlink="http://www.w3.org/1999/xlink"><linearGradient id="a" gradientUnits="userSpaceOnUse" x1="184" x2="184" y1="496" y2="0"><stop offset="0" stop-color="#9f2fff"/><stop offset="1" stop-color="#0bb1d3"/></linearGradient><path d="m344.152344 171.105469c-2.625-3.351563-5.175782-6.601563-7.503906-10.027344-14.0625-20.710937-37.632813-33.078125-63.039063-33.078125-7.113281 0-14.183594.992188-21.042969 2.945312l-23.679687 6.765626c-5.503907 1.578124-11.132813 2.753906-16.796875 3.746093l11.910156-125.457031v-16h-80l.03125 16.761719 6.191406 65.039062c-16.222656-16.207031-38.480468-25.800781-62.222656-25.800781h-88v8c0 33.984375 19.519531 64.304688 49.089844 78.886719-6.824219 5.007812-12.90625 11.105469-17.792969 18.28125-2.289063 3.351562-4.800781 6.550781-7.375 9.855469-7.585937 9.703124-16.179687 20.703124-22.160156 38.214843-1.167969 3.410157-1.761719 7.144531-1.761719 11.097657 0 18.25 13.503906 33.3125 31.398438 35.03125 4.34375.425781 9.015624.632812 13.898437.632812 20.457031 0 30.886719-9.625 40.085937-18.128906 6.296876-5.808594 11.601563-10.703125 19.847657-12.792969l6.410156 11.539063c6.207031 11.183593 10.664063 23.238281 13.359375 35.6875-11.808594 1.496093-21 11.488281-21 23.695312v16c0 11.488281 8.128906 21.097656 18.921875 23.433594-3.3125 11.527344-8.265625 22.589844-14.722656 32.941406-16.304688 1.785156-25.496094 10.183594-33.671875 17.746094-8.390625 7.75-15.023438 13.878906-29.230469 13.878906-1.578125 0-3.066406-.078125-4.480469-.222656l-.472656-.050782-24.34375.410157v18.128906l1.175781 1.917969c19.527344 31.878906 45.953125 52.746094 64.664063 64.625 20.886718 13.28125 48.96875 14.734375 71.433594 3.503906l3.984374-1.992188c16.535157-8.265624 36.941407-8.265624 53.46875 0l3.984376 1.992188c10.074218 5.023438 21.34375 7.6875 32.609374 7.6875 13.871094 0 27.304688-3.863281 38.832032-11.191406 18.726562-11.886719 45.152344-32.769532 64.664062-64.625l1.183594-1.925782v-18.128906l-24.351562-.417968-.488282.058593c-1.433594.152344-2.9375.230469-4.519531.230469-14.214844 0-20.855469-6.128906-29.257813-13.878906-8.167968-7.527344-17.335937-15.921875-33.574218-17.730469-6.457032-10.351563-11.410156-21.414063-14.730469-32.949219 10.800781-2.34375 18.921875-11.953125 18.921875-23.441406v-16c0-12.207031-9.191406-22.199219-20.992188-23.695312 2.695313-12.449219 7.144532-24.503907 13.359376-35.6875l6.394531-11.503907c8.199219 2.101563 13.496093 6.976563 19.773437 12.773438 9.199219 8.488281 19.632813 18.113281 40.105469 18.113281 4.894531 0 9.582031-.207031 13.925781-.632812 17.921875-1.703126 31.433594-16.757813 31.433594-35.046876 0-3.921874-.585938-7.632812-1.742188-11.046874-5.96875-17.578126-14.539062-28.511719-22.105468-38.167969zm-136.183594-155.105469-15.289062 160.480469c-3.246094-.296875-6.230469-.480469-8.679688-.480469s-5.433594.183594-8.679688.480469l-15.320312-160.480469zm-186.359375 75.648438c16.039063 8.464843 39.167969 14.359374 63.0625 20.421874 17.160156 4.355469 34.902344 8.851563 48.441406 14.105469l5.78125-14.917969c-14.4375-5.59375-32.664062-10.21875-50.285156-14.691406-24.570313-6.230468-56.363281-14.308594-68.023437-24.558594h67.414062c28.023438 0 53.488281 16.367188 65.273438 41.726563l2.636718 27.722656c-5.664062-.992187-11.285156-2.167969-16.789062-3.746093l-23.6875-6.765626c-6.847656-1.953124-13.929688-2.945312-21.042969-2.945312-9.34375 0-18.445313 1.710938-26.925781 4.878906-21.121094-6.285156-37.703125-21.65625-45.855469-41.230468zm98.390625 220.351562v-16c0-4.207031 3.289062-7.558594 7.40625-7.878906.355469 3.871094.59375 7.75.59375 11.648437 0 6.71875-.550781 13.382813-1.574219 19.949219-3.488281-.816406-6.425781-3.902344-6.425781-7.71875zm133.273438 72c14.214843 0 20.855468 6.128906 29.253906 13.878906 9.207031 8.496094 19.640625 18.121094 40.113281 18.121094 2 0 3.894531-.097656 5.695313-.265625l6.304687.113281c-17.632813 27-40.570313 44.976563-57.066406 55.464844-16.230469 10.304688-38.160157 11.472656-55.695313 2.6875l-3.992187-2c-10.472657-5.230469-22.191407-8-33.886719-8s-23.414062 2.769531-33.886719 8l-3.984375 1.992188c-17.542968 8.777343-39.472656 7.617187-55.695312-2.695313-16.488282-10.464844-39.417969-28.433594-57.058594-55.457031l6.3125-.105469c1.769531.167969 3.640625.265625 5.609375.265625 20.457031 0 30.886719-9.625 40.085937-18.128906 8.402344-7.742188 15.03125-13.871094 29.234376-13.871094 14.207031 0 20.839843 6.128906 29.238281 13.871094 9.199219 8.503906 19.632812 18.128906 40.097656 18.128906 20.453125 0 30.878906-9.625 40.078125-18.128906 8.402344-7.742188 15.03125-13.871094 29.242188-13.871094zm-5.273438-88v16c0 3.824219-2.929688 6.910156-6.414062 7.71875-1.035157-6.566406-1.585938-13.230469-1.585938-19.949219 0-3.898437.238281-7.777343.59375-11.648437 4.117188.320312 7.40625 3.671875 7.40625 7.878906zm-5.625-67.152344c-12.023438 21.640625-18.375 46.160156-18.375 70.921875 0 24.351563 6.152344 48.101563 17.769531 69.46875-13.175781 2.808594-21.304687 10.160157-28.585937 16.890625-8.398438 7.742188-15.03125 13.871094-29.230469 13.871094-14.210937 0-20.839844-6.128906-29.25-13.878906-7.261719-6.695313-15.367187-14.03125-28.480469-16.855469 11.625-21.378906 17.777344-45.136719 17.777344-69.496094 0-24.761719-6.351562-49.28125-18.375-70.914062l-2.152344-3.871094c8.535156 2.015625 13.960938 6.96875 20.382813 12.894531 9.199219 8.496094 19.632812 18.121094 40.097656 18.121094 20.453125 0 30.878906-9.625 40.078125-18.128906 6.457031-5.960938 11.898438-10.917969 20.503906-12.910156zm92.664062 10.601563c-3.839843.367187-8.015624.550781-12.398437.550781-14.214844 0-20.855469-6.128906-29.257813-13.878906-9.214843-8.496094-19.648437-18.121094-40.109374-18.121094-20.457032 0-30.890626 9.625-40.089844 18.128906-8.398438 7.742188-15.03125 13.871094-29.230469 13.871094-14.210937 0-20.839844-6.128906-29.25-13.878906-9.199219-8.496094-19.632813-18.121094-40.085937-18.121094-20.457032 0-30.882813 9.625-40.082032 18.128906-8.398437 7.742188-15.03125 13.871094-29.238281 13.871094-4.367187 0-8.527344-.183594-12.359375-.550781-9.496094-.921875-16.9375-9.3125-16.9375-19.113281 0-2.183594.304688-4.175782.894531-5.921876 5.105469-14.957031 12.488281-24.40625 19.625-33.527343 2.800781-3.582031 5.511719-7.070313 7.992188-10.703125 11.167969-16.390625 29.824219-26.183594 49.878906-26.183594 5.625 0 11.226563.785156 16.648437 2.335938l23.679688 6.769531c7.441406 2.117187 15.074219 3.621093 22.753906 4.773437l1.960938 20.546875c-15.882813 2.328125-31.953125 5.519531-33 5.734375l3.140625 15.6875c.386719-.078125 39.402343-7.847656 54.425781-7.847656s54.039062 7.769531 54.433594 7.839844l3.140625-15.6875c-1.054688-.214844-17.117188-3.410156-33-5.738282l1.953125-20.542968c7.679687-1.152344 15.320312-2.65625 22.761718-4.773438l23.679688-6.769531c5.40625-1.542969 11.015625-2.328125 16.640625-2.328125 20.101563 0 38.726563 9.742188 49.804687 26.0625 2.53125 3.730469 5.296876 7.265625 8.144532 10.90625 7.113281 9.070312 14.457031 18.457031 19.546875 33.4375.582031 1.730469.894531 3.769531.894531 5.9375 0 9.808594-7.449219 18.191406-16.960938 19.105469zm-151.039062 32.550781c-13.230469 0-24 10.769531-24 24v16c0 13.230469 10.769531 24 24 24s24-10.769531 24-24v-16c0-13.230469-10.769531-24-24-24zm8 40c0 4.414062-3.59375 8-8 8s-8-3.585938-8-8v-16c0-4.414062 3.59375-8 8-8s8 3.585938 8 8zm0 0" fill="url(#a)"/></svg>