<svg height="496pt" viewBox="-32 0 496 496" width="496pt" xmlns="http://www.w3.org/2000/svg" xmlns:xlink="http://www.w3.org/1999/xlink"><linearGradient id="a" gradientUnits="userSpaceOnUse" x1="216" x2="216" y1="496" y2="0"><stop offset="0" stop-color="#9f2fff"/><stop offset="1" stop-color="#0bb1d3"/></linearGradient><path d="m125.527344 137.558594c-23.496094 16.457031-37.527344 43.410156-37.527344 72.097656v246.34375c0 22.054688 17.945312 40 40 40h176c22.054688 0 40-17.945312 40-40v-246.34375c0-28.6875-14.03125-55.640625-37.535156-72.097656l-42.464844-29.726563v-43.832031h32v-40c0-13.230469-10.769531-24-24-24h-112c-13.230469 0-24 10.769531-24 24v40h32v43.832031zm202.472656 318.441406c0 13.230469-10.769531 24-24 24h-176c-13.230469 0-24-10.769531-24-24v-8h224zm-8.390625-280c5.414063 10.230469 8.390625 21.753906 8.390625 33.65625v222.34375h-224v-222.34375c0-11.894531 2.976562-23.417969 8.390625-33.65625zm-167.609375-128v-24c0-4.40625 3.59375-8 8-8h112c4.40625 0 8 3.59375 8 8v24zm32 68.167969v-52.167969h64v52.167969l49.289062 34.503906c3.917969 2.742187 7.429688 5.929687 10.679688 9.335937h-183.9375c3.25-3.398437 6.753906-6.582031 10.679688-9.335937zm6.160156 134.761719-8.960937-13.257813c13.234375-8.945313 28.695312-13.671875 44.738281-13.671875 25.199219 0 48.375 11.960938 63.308594 31.382812l7.035156-26.238281 15.453125 4.144531-13.503906 50.414063-46.605469-5.613281 1.910156-15.882813 22.953125 2.769531c-11.960937-15.464843-30.449219-24.976562-50.550781-24.976562-12.832031 0-25.210938 3.777344-35.777344 10.929688zm-64.222656 29.582031-4.144531-15.457031 50.414062-13.511719 18.441407 43.167969-14.710938 6.289062-9.066406-21.207031c-3.136719 7.632812-4.941406 15.757812-4.941406 24.207031 0 24.441406 13.597656 46.398438 35.484374 57.3125l-7.140624 14.320312c-27.351563-13.640624-44.34375-41.089843-44.34375-71.632812 0-10.601562 2.054687-20.886719 6.007812-30.457031zm164 23.488281h16c0 40.535156-30.328125 74.039062-69.464844 79.222656l19.121094 19.121094-11.3125 11.3125-36.90625-36.902344 28.167969-37.554687 12.800781 9.601562-13.945312 18.574219c31.296874-4.167969 55.539062-30.96875 55.539062-63.375zm19.046875-217.121094 7.457031-14.160156c71.277344 37.503906 115.558594 110.800781 115.558594 191.28125 0 58.921875-23.296875 113.976562-65.585938 155.023438l-11.140624-11.488282c39.160156-38 60.726562-88.976562 60.726562-143.535156 0-74.519531-41-142.382812-107.015625-177.121094zm81.511719 118.601563c1.847656 5.511719 3.449218 11.183593 4.769531 16.863281l-15.585937 3.609375c-1.199219-5.175781-2.664063-10.351563-4.351563-15.386719zm-83.433594-82.679688 8.691406-13.441406c30.316406 19.59375 54.039063 47.359375 68.605469 80.289063l-14.632813 6.472656c-13.300781-30.074219-34.964843-55.425782-62.664062-73.320313zm47.183594 236.679688c12.074218-17.441407 20.617187-36.71875 25.394531-57.304688l15.582031 3.625c-5.238281 22.550781-14.597656 43.671875-27.824218 62.773438zm29.585937-87.839844 15.984375.71875c-.25 5.578125-.761718 11.199219-1.503906 16.710937l-15.847656-2.160156c.671875-5.03125 1.136718-10.175781 1.367187-15.269531zm15.984375-15.921875-15.984375.707031c-.222656-5.097656-.6875-10.257812-1.375-15.347656l15.847657-2.15625c.757812 5.574219 1.261718 11.222656 1.511718 16.796875zm-334.230468 163.304688c-42.289063-41.046876-65.585938-96.101563-65.585938-155.023438 0-80.480469 44.28125-153.777344 115.558594-191.273438l7.457031 14.160157c-66.015625 34.730469-107.015625 102.59375-107.015625 177.113281 0 54.558594 21.566406 105.535156 60.726562 143.535156zm-13.257813-193.070313-15.585937-3.609375c1.320312-5.671875 2.921874-11.34375 4.769531-16.863281l15.167969 5.085937c-1.6875 5.027344-3.160157 10.210938-4.351563 15.386719zm63.917969-116.59375 8.691406 13.441406c-27.699219 17.894531-49.363281 43.253907-62.664062 73.320313l-14.632813-6.472656c14.566406-32.929688 38.289063-60.695313 68.605469-80.289063zm-51.652344 259.226563c-13.226562-19.105469-22.585938-40.226563-27.824219-62.777344l15.582031-3.625c4.785157 20.585937 13.328126 39.855468 25.390626 57.304687zm-30.898438-79.515626c-.75-5.511718-1.253906-11.140624-1.503906-16.710937l15.984375-.71875c.222657 5.09375.6875 10.238281 1.375 15.28125zm0-50.148437 15.847657 2.15625c-.6875 5.089844-1.160157 10.25-1.375 15.347656l-15.984375-.707031c.25-5.574219.753906-11.222656 1.511718-16.796875zm0 0" fill="url(#a)"/></svg>