<svg height="496pt" viewBox="0 0 496 496" width="496pt" xmlns="http://www.w3.org/2000/svg" xmlns:xlink="http://www.w3.org/1999/xlink"><linearGradient id="a" gradientUnits="userSpaceOnUse" x1="248" x2="248" y1="496" y2="0"><stop offset="0" stop-color="#9f2fff"/><stop offset="1" stop-color="#0bb1d3"/></linearGradient><path d="m424.273438 61.929688 15.453124 4.140624-13.503906 50.417969-46.605468-5.617187 1.910156-15.878906 22.953125 2.761718c-11.953125-15.457031-30.449219-24.96875-50.542969-24.96875-12.832031 0-25.203125 3.773438-35.777344 10.925782l-8.960937-13.253907c13.234375-8.945312 28.703125-13.664062 44.738281-13.664062 25.199219 0 48.375 11.960937 63.308594 31.382812zm-134.335938 74.855468c0-8.449218 1.804688-16.585937 4.941406-24.210937l9.066406 21.210937 14.710938-6.289062-18.441406-43.167969-50.414063 13.511719 4.144531 15.457031 26-6.96875c-3.945312 9.566406-6.007812 19.855469-6.007812 30.457031 0 30.542969 16.992188 58 44.34375 71.628906l7.144531-14.316406c-21.898437-10.914062-35.488281-32.875-35.488281-57.3125zm72.460938 63.375 13.929687-18.566406-12.800781-9.601562-28.167969 37.550781 36.90625 36.90625 11.308594-11.3125-19.117188-19.121094c39.136719-5.183594 69.464844-38.6875 69.464844-79.222656h-16c.015625 32.398437-24.226563 59.199219-55.523437 63.367187zm133.601562-56.160156c0 57.238281-33.65625 106.640625-82.136719 129.839844l18.136719 36.273437v185.886719h-432v-185.886719l27.054688-54.113281h14.167968l16-96h61.554688l16 96h126.910156c-32.695312-26.414062-53.6875-66.785156-53.6875-112 0-79.398438 64.601562-144 144-144s144 64.601562 144 144zm-427.886719 48h39.773438l-2.664063-16h-34.445312zm-10.671875 64h61.109375l-8-48h-45.109375zm-36.496094 48h390.109376l-12.023438-24.046875c-14.757812 5.125-30.542969 8.046875-47.03125 8.046875-23.664062 0-45.953125-5.839844-65.671875-16h-249.382813zm83.054688 112h-32v64h32zm144 0h-64v64h64zm112 0h-32v64h32zm-344-96v160h40v-80h64v80h48v-80h96v80h48v-80h64v80h40v-160zm464-176c0-70.574219-57.425781-128-128-128s-128 57.425781-128 128 57.425781 128 128 128 128-57.425781 128-128zm-80 240h-112v-48h112zm-80-32h-16v16h16zm32 0h-16v16h16zm32 0h-16v16h16zm-240 32h-112v-48h112zm-80-32h-16v16h16zm32 0h-16v16h16zm32 0h-16v16h16zm144 32h-112v-48h112zm-80-32h-16v16h16zm32 0h-16v16h16zm32 0h-16v16h16zm-116.425781-320.839844c12.664062-6.328125 28.425781-14.214844 28.425781-31.160156h-16c0 6.585938-7.390625 10.761719-19.574219 16.847656-12.664062 6.335938-28.425781 14.214844-28.425781 31.160156 0 16.945313 15.761719 24.832032 28.425781 31.160157 12.175781 6.097656 19.574219 10.273437 19.574219 16.855469 0 6.578124-7.390625 10.746093-19.574219 16.832031-12.664062 6.328125-28.425781 14.199219-28.425781 31.144531h16c0-6.574219 7.390625-10.742188 19.574219-16.832031 12.664062-6.328125 28.425781-14.199219 28.425781-31.144531 0-16.953126-15.761719-24.832032-28.425781-31.167969-12.183594-6.085938-19.574219-10.261719-19.574219-16.847657 0-6.582031 7.398438-10.761718 19.574219-16.847656zm-63.148438 81.695313c-12.664062 6.328125-28.425781 14.199219-28.425781 31.144531h16c0-6.574219 7.390625-10.742188 19.574219-16.832031 12.664062-6.328125 28.425781-14.199219 28.425781-31.144531 0-16.953126-15.761719-24.832032-28.425781-31.167969-12.183594-6.085938-19.574219-10.261719-19.574219-16.847657 0-6.582031 7.398438-10.761718 19.574219-16.847656 12.664062-6.328125 28.425781-14.214844 28.425781-31.160156h-16c0 6.585938-7.390625 10.761719-19.574219 16.847656-12.664062 6.335938-28.425781 14.214844-28.425781 31.160156 0 16.945313 15.761719 24.832032 28.425781 31.160157 12.175781 6.097656 19.574219 10.273437 19.574219 16.855469 0 6.578124-7.390625 10.746093-19.574219 16.832031zm0 0" fill="url(#a)"/></svg>