<svg height="496pt" viewBox="0 0 496 496" width="496pt" xmlns="http://www.w3.org/2000/svg" xmlns:xlink="http://www.w3.org/1999/xlink"><linearGradient id="a" gradientUnits="userSpaceOnUse" x1="248" x2="248" y1="496" y2="0"><stop offset="0" stop-color="#9f2fff"/><stop offset="1" stop-color="#0bb1d3"/></linearGradient><path d="m336 0h-336v416h160v80h336v-416h-160zm-176 400h-144v-384h304v64h-67.3125l-30.382812 30.382812c-8.304688-44.542968-47.394532-78.382812-94.304688-78.382812-52.9375 0-96 43.0625-96 96s43.0625 96 96 96c11.023438 0 21.734375-1.921875 32-5.59375zm48-216h56v-56h184v96h-240zm-20.6875-16 60.6875-60.6875v60.6875zm-138.90625-48c3.761719-37.734375 33.859375-67.832031 71.59375-71.59375v71.59375zm71.59375 16v71.59375c-37.734375-3.761719-67.832031-33.859375-71.59375-71.59375zm40 65.113281c-7.703125 3.398438-15.71875 5.589844-24 6.414063v-159.121094c39.335938 3.929688 70.273438 36.472656 71.839844 76.441406l-47.839844 47.839844zm320-105.113281v384h-304v-296h16v56h272v-128h-200v-16zm-176-48h-16v-16h16zm-32 0h-16v-16h16zm-32 0h-16v-16h16zm-208 192h112v16h-112zm32 32h80v16h-80zm-16 16h-16v-16h16zm-16 16h112v16h-112zm0 32h112v16h-112zm96 32h16v16h-16zm-96 0h80v16h-80zm256 96h176v-144h-176zm16-128h144v112h-144zm-48 112h16v16h-16zm-64 0h48v16h-48zm0-32h80v16h-80zm0-32h80v16h-80zm0-32h80v16h-80zm0-32h80v16h-80zm0-64h272v16h-272zm240 48h-240v-16h240zm16-16h16v16h-16zm0 0" fill="url(#a)"/></svg>