<svg height="496pt" viewBox="-32 0 496 496" width="496pt" xmlns="http://www.w3.org/2000/svg" xmlns:xlink="http://www.w3.org/1999/xlink"><linearGradient id="a" gradientTransform="matrix(8 0 0 -8 -40 504)" gradientUnits="userSpaceOnUse" x1="32" x2="32" y1="1" y2="63"><stop offset="0" stop-color="#9f2fff"/><stop offset="1" stop-color="#0bb1d3"/></linearGradient><path d="m192 384h208v-176h-208zm16-160h176v144h-176zm88 11.503906-37.984375 45.574219c-6.464844 7.761719-10.015625 17.585937-10.015625 27.683594 0 23.839843 19.398438 43.238281 43.238281 43.238281h9.515625c23.847656 0 43.246094-19.398438 43.246094-43.238281 0-10.097657-3.558594-19.921875-10.023438-27.691407zm4.761719 100.496094h-9.515625c-15.023438 0-27.246094-12.214844-27.246094-27.238281 0-6.363281 2.238281-12.554688 6.3125-17.441407l25.6875-30.824218 25.679688 30.824218c4.082031 4.878907 6.320312 11.078126 6.320312 17.441407 0 15.023437-12.222656 27.238281-27.238281 27.238281zm-295.136719 82.855469c-3.679688 7.359375-5.625 15.601562-5.625 23.832031 0 29.402344 23.910156 53.3125 53.304688 53.3125h7.382812c9.441406 0 18.304688-3.671875 24.976562-10.34375 3.640626-3.648438 8.488282-5.65625 13.648438-5.65625h9.375c5.160156 0 10.007812 2.007812 13.65625 5.65625 6.664062 6.671875 15.527344 10.34375 24.96875 10.34375h7.382812c10.847657 0 21.257813-3.457031 30.089844-9.535156 8.925782 6.015625 19.664063 9.535156 31.214844 9.535156h160c30.878906 0 56-25.128906 56-56v-264c0-17.535156-8.375-34.28125-22.398438-44.800781l-41.601562-31.199219v-36h16v-40c0-13.230469-10.769531-24-24-24h-128c-13.230469 0-24 10.769531-24 24v40h16v36l-41.601562 31.199219c-1.824219 1.367187-3.542969 2.847656-5.167969 4.417969-5.453125-12.386719-11.855469-24.359376-19.101563-35.753907l-14.128906-22.191406v-13.671875h16v-40c0-13.230469-10.769531-24-24-24h-64c-13.230469 0-24 10.769531-24 24v40h16v13.671875l-14.152344 22.230469c-27.375 43.027344-41.847656 92.730468-41.847656 143.722656 0 24.878906 3.464844 49.621094 10.304688 73.550781l1.09375 3.832031c3.058593 10.695313 4.601562 21.753907 4.601562 32.863282 0 18.472656-4.367188 36.96875-12.632812 53.496094zm370.375 61.144531h-160c-19.3125 0-35.472656-13.769531-39.191406-32h238.382812c-3.71875 18.230469-19.878906 32-39.191406 32zm-152-456c0-4.40625 3.59375-8 8-8h128c4.40625 0 8 3.59375 8 8v24h-144zm128 40v32h-112v-32zm-117.335938 48h122.671876l42.664062 32h-208zm-58.664062 304h224v-16h-224v-224c0-5.566406 1.238281-11 3.433594-16h233.132812c2.195313 5 3.433594 10.433594 3.433594 16h-224v16h224v240h-240zm-112-392c0-4.40625 3.59375-8 8-8h64c4.40625 0 8 3.59375 8 8v24h-80zm-32.703125 160h24.703125v-16h-20.246094c6.566406-20.824219 15.726563-40.855469 27.597656-59.503906l16.648438-26.167969v-18.328125h48v18.335938l16.632812 26.128906c8.472657 13.3125 15.65625 27.503906 21.488282 42.191406-2.753906 5.414062-4.585938 11.28125-5.472656 17.34375h-88.648438v16h88v45.183594c-2.832031-1.160156-5.367188-2.582032-8.078125-4.128906-7.425781-4.246094-15.851563-9.054688-31.984375-9.054688-16.121094 0-24.539062 4.808594-31.96875 9.054688-6.519531 3.730468-12.144531 6.945312-24.023438 6.945312-11.867187 0-17.503906-3.214844-24.023437-6.945312-4.074219-2.320313-8.585937-4.847657-14.507813-6.640626 1.171876-11.621093 3.128907-23.117187 5.882813-34.414062zm-6.992187 50.984375c2.671874 1.128906 5.09375 2.496094 7.679687 3.96875 7.429687 4.238281 15.847656 9.039063 31.960937 9.039063 16.117188 0 24.535157-4.808594 31.964844-9.054688 6.523438-3.722656 12.152344-6.9375 24.027344-6.9375 11.886719 0 17.519531 3.214844 24.046875 6.953125 4.414063 2.519531 9.3125 5.285156 16.007813 7.09375v15.136719c-2.832032-1.160156-5.367188-2.582032-8.082032-4.128906-7.414062-4.246094-15.839844-9.054688-31.972656-9.054688-16.121094 0-24.539062 4.808594-31.96875 9.054688-6.519531 3.730468-12.144531 6.945312-24.023438 6.945312-11.875 0-17.503906-3.207031-24.042968-6.9375-4.34375-2.476562-9.160156-5.183594-15.679688-6.992188-.054687-2.148437-.222656-4.292968-.222656-6.445312 0-2.890625.207031-5.761719.304688-8.640625zm13.144531 93.015625h106.550781v-16h-110.511719c-4.121093-14.585938-6.792969-29.503906-8.214843-44.550781 2.292968 1.039062 4.445312 2.222656 6.710937 3.511719 7.429687 4.230468 15.855469 9.039062 31.96875 9.039062 16.117187 0 24.535156-4.816406 31.96875-9.054688 6.511719-3.730468 12.140625-6.945312 24.015625-6.945312 11.886719 0 17.519531 3.214844 24.046875 6.945312 4.414063 2.527344 9.3125 5.292969 16.007813 7.101563v137.953125h-135.054688l.734375-1.480469c9.367187-18.734375 14.320313-39.703125 14.320313-60.648437.007812-8.695313-.886719-17.351563-2.542969-25.871094zm-19.816407 104h142.367188v8c0 13.375 4.726562 25.664062 12.585938 35.304688-5.449219 3-11.5625 4.695312-17.890626 4.695312h-7.382812c-5.160156 0-10.007812-2.007812-13.65625-5.65625-6.664062-6.671875-15.527344-10.34375-24.96875-10.34375h-9.375c-9.441406 0-18.304688 3.671875-24.976562 10.34375-3.640626 3.648438-8.488282 5.65625-13.648438 5.65625h-7.382812c-20.570313 0-37.304688-16.734375-37.304688-37.304688 0-3.617187.601562-7.222656 1.632812-10.695312zm0 0" fill="url(#a)"/></svg>