<svg height="496pt" viewBox="-128 0 496 496" width="496pt" xmlns="http://www.w3.org/2000/svg" xmlns:xlink="http://www.w3.org/1999/xlink"><linearGradient id="a" gradientUnits="userSpaceOnUse" x1="120" x2="120" y1="496" y2="0"><stop offset="0" stop-color="#9f2fff"/><stop offset="1" stop-color="#0bb1d3"/></linearGradient><path d="m22.113281 248c-13.640625 6.832031-22.113281 20.527344-22.113281 35.777344v174.117187l.839844 1.691407c11.238281 22.460937 33.816406 36.414062 58.9375 36.414062h120.453125c25.121093 0 47.699219-13.953125 58.929687-36.425781l.839844-1.6875v-174.109375c0-15.242188-8.472656-28.945313-22.113281-35.777344l-41.886719-20.945312v-35.054688c8.824219 0 16-7.175781 16-16v-16c0-8.824219-7.175781-16-16-16h-32v-37.558594c19.304688-9.203125 32-28.722656 32-50.441406 0-30.871094-25.128906-56-56-56s-56 25.128906-56 56c0 21.71875 12.695312 41.238281 32 50.441406v37.558594h-32c-8.824219 0-16 7.175781-16 16v16c0 8.824219 7.175781 16 16 16v35.054688zm158.109375 232h-120.445312c-14.203125 0-27.28125-5.9375-36.5625-16h193.578125c-9.28125 10.0625-22.367188 16-36.570313 16zm-131.414062-64h23.191406c19.320312 0 35.480469 13.769531 39.191406 32h-23.191406c-19.320312 0-35.480469-13.769531-39.191406-32zm80 32c3.71875-18.230469 19.871094-32 39.191406-32h23.191406c-3.71875 18.230469-19.871094 32-39.191406 32zm92.070312-176c1.984375 3.519531 3.121094 7.535156 3.121094 11.777344v164.222656h-32.886719c10.40625-10.175781 16.886719-24.335938 16.886719-40v-8h-40c-15.664062 0-29.824219 6.480469-40 16.886719v-64.886719h24c30.871094 0 56-25.128906 56-56v-8h-40c-28.625 0-52.273438 21.609375-55.566406 49.359375-10.203125-10.671875-24.539063-17.359375-40.433594-17.359375h-40v8c0 30.871094 25.128906 56 56 56h24v32.886719c-10.175781-10.40625-24.335938-16.886719-40-16.886719h-40v8c0 15.664062 6.480469 29.824219 16.886719 40h-32.886719v-164.222656c0-4.234375 1.136719-8.25 3.121094-11.777344zm-92.070312 64c3.71875-18.230469 19.871094-32 39.191406-32h23.191406c-3.71875 18.230469-19.871094 32-39.191406 32zm-17.617188 32h-23.191406c-19.320312 0-35.480469-13.769531-39.191406-32h23.191406c19.320312 0 35.480469 13.769531 39.191406 32zm-31.191406-312c0-22.054688 17.945312-40 40-40s40 17.945312 40 40c0 12.929688-6.289062 24.800781-16.351562 32.207031-1.488282-14.199219-7.855469-27.726562-17.992188-37.863281l-5.65625-5.65625-5.65625 5.65625c-10.136719 10.136719-16.503906 23.671875-17.992188 37.863281-10.0625-7.40625-16.351562-19.277343-16.351562-32.207031zm48 38.625v49.375h-16v-49.375c0-9.289062 2.847656-18.433594 8-26.089844 5.152344 7.65625 8 16.800782 8 26.089844zm-64 65.375h112l.015625 16h-112.015625zm96 32v32h-80v-32zm-86.113281 48h92.21875l32 16h-156.21875zm0 0" fill="url(#a)"/></svg>