<svg height="496pt" viewBox="0 -56 496 496" width="496pt" xmlns="http://www.w3.org/2000/svg" xmlns:xlink="http://www.w3.org/1999/xlink"><linearGradient id="a" gradientUnits="userSpaceOnUse" x1="248" x2="248" y1="384" y2="0"><stop offset="0" stop-color="#9f2fff"/><stop offset="1" stop-color="#0bb1d3"/></linearGradient><path d="m360 304c-13.230469 0-24 10.769531-24 24s10.769531 24 24 24 24-10.769531 24-24-10.769531-24-24-24zm0 32c-4.414062 0-8-3.585938-8-8s3.585938-8 8-8 8 3.585938 8 8-3.585938 8-8 8zm-272-32c-13.230469 0-24 10.769531-24 24s10.769531 24 24 24 24-10.769531 24-24-10.769531-24-24-24zm0 32c-4.414062 0-8-3.585938-8-8s3.585938-8 8-8 8 3.585938 8 8-3.585938 8-8 8zm344.167969-336h-232.167969c-13.230469 0-24 10.769531-24 24v88h-86.871094c-13.410156 0-25.839844 6.65625-33.28125 17.816406l-27.75 41.625c-7.921875 11.871094-12.097656 25.679688-12.097656 39.933594v78.097656c-9.289062 3.3125-16 12.113282-16 22.527344v16c0 13.230469 10.769531 24 24 24h13.480469c9.007812 18.886719 28.238281 32 50.519531 32s41.503906-13.113281 50.519531-32h170.960938c9.007812 18.886719 28.238281 32 50.519531 32s41.503906-13.113281 50.519531-32h50.425781l35.054688-70.113281v-9.886719l-40.136719-251.785156c-1.855469-11.710938-11.824219-20.214844-23.695312-20.214844zm19.609375 96h-33.007813l-4.679687-32h32.574218zm-19.609375-80c3.953125 0 7.273437 2.832031 7.894531 6.742188l4.042969 25.257812h-32.363281l-4.679688-32zm-240.167969 8c0-4.414062 3.585938-8 8-8h190.910156l2.347656 16h-201.257812zm-160 304c0 2.71875.265625 5.375.640625 8h-8.640625c-4.414062 0-8-3.585938-8-8v-16c0-4.414062 3.585938-8 8-8h13.480469c-3.472657 7.289062-5.480469 15.40625-5.480469 24zm56 40c-22.054688 0-40-17.945312-40-40s17.945312-40 40-40 40 17.945312 40 40-17.945312 40-40 40zm39.113281-80c-10.105469-9.878906-23.90625-16-39.113281-16s-29.007812 6.121094-39.113281 16h-16.886719v-76.625c0-11.085938 3.246094-21.832031 9.40625-31.0625l27.753906-41.625c4.457032-6.695312 11.929688-10.6875 19.96875-10.6875h86.871094v160zm176.886719 40c0 2.71875.265625 5.375.640625 8h-161.28125c.375-2.625.640625-5.28125.640625-8 0-8.59375-2.007812-16.710938-5.480469-24h170.960938c-3.472657 7.289062-5.480469 15.40625-5.480469 24zm56 40c-22.054688 0-40-17.945312-40-40s17.945312-40 40-40 40 17.945312 40 40-17.945312 40-40 40zm39.113281-80c-10.105469-9.878906-23.90625-16-39.113281-16s-29.007812 6.121094-39.113281 16h-128.886719v-240h203.59375l35.140625 240zm32.886719 48h-16.640625c.375-2.625.640625-5.28125.640625-8 0-8.59375-2.007812-16.710938-5.480469-24h21.480469zm19.054688 0h-3.054688v-32h19.054688zm28.945312-63.367188v5.480469l-4.945312 9.886719h-28.222657l-4.679687-32h35.191406zm-5.214844-32.632812h-34.96875l-4.679687-32h34.535156zm-7.671875-48h-34.3125l-4.679687-32h33.878906zm-41.328125-48-4.679687-32h33.222656l5.113281 32zm-346.816406 7.128906-24.25 36.375c-4.398438 6.585938-6.71875 14.257813-6.71875 22.183594v30.3125h112v-96h-67.71875c-5.359375 0-10.335938 2.664062-13.3125 7.128906zm65.03125 72.871094h-80v-14.3125c0-4.757812 1.390625-9.359375 4.03125-13.3125l24.25-36.375h51.71875zm88-144c-13.230469 0-24 10.769531-24 24v128c0 13.230469 10.769531 24 24 24s24-10.769531 24-24v-128c0-13.230469-10.769531-24-24-24zm8 152c0 4.414062-3.585938 8-8 8s-8-3.585938-8-8v-128c0-4.414062 3.585938-8 8-8s8 3.585938 8 8zm56-152c-13.230469 0-24 10.769531-24 24v128c0 13.230469 10.769531 24 24 24s24-10.769531 24-24v-128c0-13.230469-10.769531-24-24-24zm8 152c0 4.414062-3.585938 8-8 8s-8-3.585938-8-8v-128c0-4.414062 3.585938-8 8-8s8 3.585938 8 8zm56-152c-13.230469 0-24 10.769531-24 24v128c0 13.230469 10.769531 24 24 24s24-10.769531 24-24v-128c0-13.230469-10.769531-24-24-24zm8 152c0 4.414062-3.585938 8-8 8s-8-3.585938-8-8v-128c0-4.414062 3.585938-8 8-8s8 3.585938 8 8zm0 0" fill="url(#a)"/></svg>