<svg height="496pt" viewBox="0 0 496 496" width="496pt" xmlns="http://www.w3.org/2000/svg" xmlns:xlink="http://www.w3.org/1999/xlink"><linearGradient id="a" gradientUnits="userSpaceOnUse" x1="248" x2="248" y1="496" y2="0"><stop offset="0" stop-color="#9f2fff"/><stop offset="1" stop-color="#0bb1d3"/></linearGradient><path d="m206.113281 168c-13.640625 6.816406-22.113281 20.527344-22.113281 35.777344v92.222656c0 22.054688 17.945312 40 40 40h48c22.054688 0 40-17.945312 40-40v-92.222656c0-15.25-8.472656-28.960938-22.113281-35.777344l-9.886719-4.945312v-19.054688h16v-24c0-13.230469-10.769531-24-24-24h-48c-13.230469 0-24 10.769531-24 24v24h16v19.054688zm65.886719 152h-48c-10.414062 0-19.214844-6.710938-22.527344-16h93.046875c-3.304687 9.289062-12.105469 16-22.519531 16zm24-32h-96v-64h96zm-80-168c0-4.40625 3.59375-8 8-8h48c4.40625 0 8 3.59375 8 8v8h-64zm16 52.945312v-28.945312h32v28.945312l18.734375 9.367188c8.1875 4.085938 13.265625 12.3125 13.265625 21.464844v4.222656h-96v-4.222656c0-9.152344 5.078125-17.378906 13.265625-21.464844zm-138.984375 8.6875 23.664063 24.191407 48.726562-135.28125-132.261719 49.839843 24.886719 25.457032c-44.617188 80.769531-31.34375 181.863281 33.214844 247.894531l5.722656 5.851563 33.199219-33.960938-5.472657-5.59375c-45.742187-46.792969-58.078124-118.703125-31.679687-178.398438zm4.0625 194.941407c-56.007813-62.375-65.382813-154.910157-22.222656-227.933594l3.121093-5.28125-16.273437-16.640625 76.890625-28.984375-28.328125 78.648437-21.433594-21.917968-5.128906 9.6875c-34.503906 65.238281-24.367187 146.863281 24.199219 201.335937zm97.464844-292.054688c63.96875-16.328125 133.023437 9.121094 171.855469 62.214844l-33.046876 8.441406 93.410157 110.34375 23.125-140.105469-34.734375 8.875c-48-79.511718-142.9375-118.816406-233.136719-95.785156l-7.9375 2.023438 12.890625 45.921875zm209.785156 62.953125 3.007813 5.335938 22.777343-5.816406-13.503906 81.792968-54.53125-64.417968 29.945313-7.648438-5.847657-9.292969c-39.558593-62.882812-115.945312-95.121093-187.984375-80.152343l-4.238281-15.113282c82.75-17.449218 168.351563 20.929688 210.375 95.3125zm4.167969 122.34375c-18 63.335938-75.480469 110.136719-141.832032 116.769532l7.664063-36.992188-140.367187 30.253906 110.152343 88.984375 9.703125-34.160156c93.625-1.695313 175.757813-63.734375 201.039063-152.679687l2.257812-7.929688-46.488281-11.71875zm28.535156 15.6875c-26.222656 79.054688-101.847656 133.199219-187.160156 133.199219-.679688 0-1.359375 0-2.03125-.007813l-6.113282-.0625-6.398437 22.535157-65.28125-52.742188 83.632813-18.027343-6.878907 33.234374 10.191407-.367187c74.824218-2.738281 141.398437-52.34375 164.601562-121.65625zm18.96875-285.503906h-416c-22.054688 0-40 17.945312-40 40v416c0 22.054688 17.945312 40 40 40h416c22.054688 0 40-17.945312 40-40v-416c0-22.054688-17.945312-40-40-40zm24 456c0 13.230469-10.769531 24-24 24h-416c-13.230469 0-24-10.769531-24-24v-416c0-13.230469 10.769531-24 24-24h416c13.230469 0 24 10.769531 24 24zm0 0" fill="url(#a)"/></svg>