<svg height="496pt" viewBox="-64 0 496 496" width="496pt" xmlns="http://www.w3.org/2000/svg" xmlns:xlink="http://www.w3.org/1999/xlink"><linearGradient id="a" gradientUnits="userSpaceOnUse" x1="184" x2="184" y1="496" y2="0"><stop offset="0" stop-color="#9f2fff"/><stop offset="1" stop-color="#0bb1d3"/></linearGradient><path d="m90.488281 374.335938c3.609375 7.511718 5.511719 15.894531 5.511719 24.230468v49.433594c-8.824219 0-16 7.175781-16 16v16c0 8.824219 7.175781 16 16 16h184c8.824219 0 16-7.175781 16-16v-16c0-8.824219-7.175781-16-16-16v-52.640625c0-6.605469 1.152344-13.09375 3.425781-19.28125l82.941407-226.207031c1.089843-2.960938 1.632812-6.054688 1.632812-9.207032v-1.894531c0-14.761719-12.007812-26.769531-26.777344-26.769531-11.277344 0-21.414062 7.136719-25.207031 17.769531l-33.992187 94.230469-1.207032-.519531 15.070313-165.832031c.074219-.871094.113281-1.738282.113281-2.609376v-1.839843c0-16.101563-13.097656-29.199219-29.191406-29.199219-14.769532 0-27.222656 11.054688-28.992188 25.71875l-20.855468 173.855469 7.941406.953125-8.902344-1.007813v-191.519531c0-17.648438-14.351562-32-32-32s-32 14.351562-32 32v191.519531l-.992188.054688-20.75-166c-1.824218-14.582031-14.28125-25.574219-29.066406-25.574219-16.09375 0-29.191406 13.097656-29.191406 29.191406v1.296875c0 1.375.097656 2.757813.289062 4.136719l21.933594 157.375-1.414062-.265625-30.824219-61.644531c-5.570313-11.160156-16.792969-18.089844-29.265625-18.089844-18.039062 0-32.71875 14.679688-32.71875 32.71875v1.65625c0 4.890625 1.121094 9.792969 3.222656 14.160156zm189.519531 105.664062h-184.007812v-16h184zm-16.007812-48v16h-152v-16zm-152-16v-16h152v16zm-96-239.28125c0-9.222656 7.503906-16.71875 16.71875-16.71875 6.378906 0 12.113281 3.542969 14.960938 9.238281l30.824218 61.648438c2.808594 5.617187 8.457032 9.113281 14.734375 9.113281h.984375c4.777344 0 9.3125-2.070312 12.441406-5.671875 3.136719-3.617187 4.542969-8.390625 3.871094-13.136719l-22.398437-156.824218c-.089844-.613282-.136719-1.246094-.136719-1.871094v-1.304688c0-7.269531 5.921875-13.191406 13.289062-13.191406 6.640626 0 12.261719 4.96875 13.09375 11.558594l20.753907 166.007812c1.03125 8.234375 8.054687 14.433594 16.382812 14.433594 9.089844 0 16.480469-7.390625 16.480469-16.480469v-191.519531c0-8.824219 7.175781-16 16-16s16 7.175781 16 16v191.519531c0 9.089844 7.390625 16.480469 16.480469 16.480469 8.328125 0 15.359375-6.238281 16.367187-14.511719l20.855469-173.855469c.792969-6.632812 6.433594-11.632812 13.105469-11.632812 7.269531 0 13.191406 5.921875 13.191406 13.191406v1.839844c0 .410156-.023438.824219-.054688 1.191406l-15.074218 165.792969c-.421875 4.601563 1.128906 9.191406 4.242187 12.609375 3.109375 3.414062 7.550781 5.375 12.910157 5.375 6.945312 0 13.183593-4.390625 15.511718-10.9375l33.535156-93.910156c1.539063-4.28125 5.617188-7.152344 10.152344-7.152344 5.945313 0 10.777344 4.832031 10.777344 10.769531v1.894531c0 1.265626-.214844 2.511719-.65625 3.703126l-82.9375 226.199218c-1.605469 4.371094-2.734375 8.867188-3.460938 13.433594h-154.511718c-1.1875-5.726562-3-11.328125-5.53125-16.59375l-87.261719-181.8125c-1.074219-2.226562-1.640625-4.722656-1.640625-7.21875zm0 0" fill="url(#a)"/></svg>