<svg height="496pt" viewBox="0 0 496 496" width="496pt" xmlns="http://www.w3.org/2000/svg" xmlns:xlink="http://www.w3.org/1999/xlink"><linearGradient id="a" gradientUnits="userSpaceOnUse" x1="248" x2="248" y1="496" y2="0"><stop offset="0" stop-color="#9f2fff"/><stop offset="1" stop-color="#0bb1d3"/></linearGradient><path d="m480 144v-88c0-30.878906-25.121094-56-56-56h-128c-20.382812 0-38.199219 10.984375-48 27.304688-9.800781-16.320313-27.617188-27.304688-48-27.304688h-128c-30.878906 0-56 25.121094-56 56v88c-8.824219 0-16 7.175781-16 16v16c0 8.824219 7.175781 16 16 16h16v32h-8c-13.230469 0-24 10.769531-24 24v80c0 13.230469 10.769531 24 24 24h8v72c0 19.3125 13.769531 35.472656 32 39.191406v8.808594c0 13.230469 10.769531 24 24 24h32c13.230469 0 24-10.769531 24-24v-8h208v8c0 13.230469 10.769531 24 24 24h32c13.230469 0 24-10.769531 24-24v-8.808594c18.230469-3.71875 32-19.871094 32-39.191406v-72h8c13.230469 0 24-10.769531 24-24v-80c0-13.230469-10.769531-24-24-24h-8v-32h16c8.824219 0 16-7.175781 16-16v-16c0-8.824219-7.175781-16-16-16zm-448 192h-8c-4.40625 0-8-3.59375-8-8v-80c0-4.40625 3.59375-8 8-8h8zm224-280c0-22.054688 17.945312-40 40-40h128c22.054688 0 40 17.945312 40 40v88h-208zm-224 0c0-22.054688 17.945312-40 40-40h128c22.054688 0 40 17.945312 40 40v88h-208zm16 368v-88h8c13.230469 0 24-10.769531 24-24v-48c0-13.230469-10.769531-24-24-24h-8v-48h48v256h-24c-13.230469 0-24-10.769531-24-24zm0-104v-64h8c4.40625 0 8 3.59375 8 8v48c0 4.40625-3.59375 8-8 8zm80 152c0 4.40625-3.59375 8-8 8h-32c-4.40625 0-8-3.59375-8-8v-8h48zm-16-24v-256h272v256zm304 24c0 4.40625-3.59375 8-8 8h-32c-4.40625 0-8-3.59375-8-8v-8h48zm32-152h-8c-4.40625 0-8-3.59375-8-8v-48c0-4.40625 3.59375-8 8-8h8zm0-80h-8c-13.230469 0-24 10.769531-24 24v48c0 13.230469 10.769531 24 24 24h8v88c0 13.230469-10.769531 24-24 24h-24v-256h48zm24 0c4.40625 0 8 3.59375 8 8v80c0 4.40625-3.59375 8-8 8h-8v-96zm-456-64v-16h464l.007812 16zm176-144h-112c-17.648438 0-32 14.351562-32 32v64h176v-64c0-17.648438-14.351562-32-32-32zm16 80h-144v-48c0-8.824219 7.175781-16 16-16h112c8.824219 0 16 7.175781 16 16zm208-80h-112c-17.648438 0-32 14.351562-32 32v64h176v-64c0-17.648438-14.351562-32-32-32zm16 80h-144v-48c0-8.824219 7.175781-16 16-16h112c8.824219 0 16 7.175781 16 16zm-88 128h-192c-13.230469 0-24 10.769531-24 24v96c0 13.230469 10.769531 24 24 24h192c13.230469 0 24-10.769531 24-24v-96c0-13.230469-10.769531-24-24-24zm8 120c0 4.40625-3.59375 8-8 8h-192c-4.40625 0-8-3.59375-8-8v-96c0-4.40625 3.59375-8 8-8h192c4.40625 0 8 3.59375 8 8zm0 0" fill="url(#a)"/></svg>