<svg height="496pt" viewBox="-40 0 496 496" width="496pt" xmlns="http://www.w3.org/2000/svg" xmlns:xlink="http://www.w3.org/1999/xlink"><linearGradient id="a" gradientUnits="userSpaceOnUse" x1="208" x2="208" y1="496" y2="0"><stop offset="0" stop-color="#9f2fff"/><stop offset="1" stop-color="#0bb1d3"/></linearGradient><path d="m240 477.441406-1.496094-2.089844c-1.089844-1.519531-2.023437-3.113281-3.0625-4.65625.742188-.160156 1.503906-.207031 2.230469-.390624 8.191406 15.640624 24.351563 25.695312 42.328125 25.695312 13.742188 0 26.824219-5.992188 35.886719-16.238281 1.402343.160156 2.769531.238281 4.113281.238281 22.054688 0 40-17.945312 40-40 0-2.734375-.335938-5.398438-.863281-8h56.863281v-152c0-22.054688-17.945312-40-40-40h-48v-200c0-22.054688-17.945312-40-40-40s-40 17.945312-40 40v200h-48c-21.023438 0-38.128906 16.359375-39.695312 36.992188l-8.304688-8.304688v-236.6875c0-17.648438-14.351562-32-32-32s-32 14.351562-32 32v236.6875l-48 48v38.496094c0 43.34375-13.320312 84.894531-38.503906 120.167968l-1.496094 2.089844v18.558594h240zm111.886719-61.441406c-2.421875-3.191406-5.292969-6.070312-8.648438-8.449219.503907-2.527343.761719-5.046875.761719-7.550781 0-22.054688-17.945312-40-40-40-2.089844 0-4.167969.175781-6.265625.535156-8.398437-14.917968-24.375-24.535156-41.734375-24.535156-17.648438 0-33.695312 9.640625-42.070312 24.910156-.707032.128906-1.371094.363282-2.066407.515625l10.777344-57.425781h130.71875l21.007813 112zm-87.886719-376c0-13.230469 10.769531-24 24-24s24 10.769531 24 24v200h-48zm-88 240c0-13.230469 10.769531-24 24-24h176c13.230469 0 24 10.769531 24 24v136h-9.367188l-23.992187-128h-157.28125l-9.359375 49.921875v-21.234375l-24-24zm-72-248c0-8.824219 7.175781-16 16-16s16 7.175781 16 16v32h-32zm0 48h32v16h-32zm0 195.3125v-163.3125h32v163.3125l36.6875 36.6875h-105.375zm-48 52.6875h128v16h-128zm127.238281 152-7.277343-72.800781-15.921876 1.59375 7.121094 71.199219h-15.921875l-7.277343-72.800782-15.921876 1.59375 7.121094 71.199219h-30.320312l7.121094-71.199219-15.921876-1.59375-7.277343 72.800782h-15.921875l7.121094-71.199219-15.921876-1.59375-7.277343 72.800781h-39.019531c24.144531-35.648438 37.160156-76.9375 38.082031-120h128.351562c.921875 43.0625 13.9375 84.351562 38.082031 120zm18.707031-97.265625c5.414063-3.597656 11.558594-5.886719 18.085938-6.535156l4.703125-.464844 1.867187-4.34375c5.054688-11.773437 16.597657-19.390625 29.398438-19.390625 13.167969 0 25.167969 8.351562 29.839844 20.777344l2.761718 7.34375 7.398438-2.617188c2.847656-1.007812 5.472656-1.503906 8-1.503906 13.230469 0 24 10.769531 24 24 0 2.777344-.527344 5.535156-1.632812 8.449219l-2.582032 6.839843 6.582032 3.183594c8.410156 4.070313 13.632812 12.320313 13.632812 21.527344 0 13.230469-10.769531 24-24 24-1.695312 0-3.464844-.230469-5.542969-.726562l-5.257812-1.25-3.121094 4.402343c-6.03125 8.503907-15.78125 13.574219-26.078125 13.574219-13.742188 0-25.894531-8.871094-30.230469-22.078125l-2.691406-8.167969-7.941406 3.261719c-4.097657 1.671875-8.417969 2.671875-12.769531 2.929687-12.726563-22.730468-20.992188-47.441406-24.421876-73.210937zm94.054688-342.734375c0 4.414062-3.585938 8-8 8s-8-3.585938-8-8 3.585938-8 8-8 8 3.585938 8 8zm-32 352h-16v-16h16zm-16 32h-16v-16h16zm24 24h16v16h-16zm-8-32h16v16h-16zm40-8h-16v-16h16zm0 24h16v16h-16zm0 0" fill="url(#a)"/></svg>