<svg height="496pt" viewBox="0 0 496 496" width="496pt" xmlns="http://www.w3.org/2000/svg" xmlns:xlink="http://www.w3.org/1999/xlink"><linearGradient id="a" gradientUnits="userSpaceOnUse" x1="248" x2="248" y1="496" y2="0"><stop offset="0" stop-color="#9f2fff"/><stop offset="1" stop-color="#0bb1d3"/></linearGradient><path d="m248 96c-70.574219 0-128 57.425781-128 128s57.425781 128 128 128 128-57.425781 128-128-57.425781-128-128-128zm0 240c-61.761719 0-112-50.238281-112-112s50.238281-112 112-112 112 50.238281 112 112-50.238281 112-112 112zm21.152344-135.824219 29.609375-57.960937-7.121094-3.648438c-27.394531-14.015625-59.898437-14.015625-87.289063 0l-7.121093 3.648438 29.609375 57.960937c-5.078125 4.511719-8.792969 10.519531-10.199219 17.433594l-64.863281 3.335937.40625 7.984376c.777344 15.375 5.039062 29.863281 12.671875 43.078124 7.632812 13.214844 18.054687 24.167969 30.96875 32.511719l6.710937 4.34375 35.410156-54.632812c3.183594 1.058593 6.519532 1.769531 10.054688 1.769531 3.527344 0 6.871094-.710938 10.046875-1.777344l35.410156 54.625 6.710938-4.335937c12.910156-8.351563 23.335937-19.296875 30.96875-32.511719 7.632812-13.207031 11.894531-27.703125 12.671875-43.078125l.40625-7.984375-64.863282-3.335938c-1.40625-6.90625-5.121093-12.914062-10.199218-17.425781zm-71.136719 86.238281c-7.808594-6.199218-14.28125-13.71875-19.304687-22.414062-5.015626-8.6875-8.285157-18.054688-9.757813-27.921875l48.671875-2.503906c1.421875 4.503906 3.75 8.578125 6.871094 11.976562zm20.921875-136.910156c18.558594-7.3125 39.558594-7.3125 58.125 0l-22.109375 43.304688c-2.25-.496094-4.5625-.808594-6.953125-.808594s-4.703125.3125-6.945312.808594zm29.0625 90.496094c-8.824219 0-16-7.175781-16-16s7.175781-16 16-16 16 7.175781 16 16-7.175781 16-16 16zm69.289062 24c-5.023437 8.695312-11.503906 16.207031-19.304687 22.414062l-26.480469-40.863281c3.121094-3.398437 5.449219-7.472656 6.871094-11.976562l48.671875 2.496093c-1.480469 9.875-4.742187 19.242188-9.757813 27.929688zm122.710938 208c0-19.3125-13.769531-35.472656-32-39.191406v-352.808594c8.824219 0 16-7.175781 16-16v-16c0-8.824219-7.175781-16-16-16h-16v-8c0-13.230469-10.769531-24-24-24h-38.113281c-9.152344 0-17.367188 5.089844-21.460938 13.265625l-9.371093 18.734375h-211.054688c-8.824219 0-16 7.175781-16 16v16c0 8.824219 7.175781 16 16 16v352.808594c-18.230469 3.71875-32 19.878906-32 39.191406v8h-24v16h432v-16h-24zm-117.265625-451.574219c1.363281-2.730469 4.105469-4.425781 7.152344-4.425781h38.113281c4.40625 0 8 3.585938 8 8v8h-59.054688zm-234.734375 27.574219h320l.007812 16h-320.007812zm16 320v-288h288v288zm288 16v48h-288v-48zm32 96h-352v-8c0-13.230469 10.769531-24 24-24h304c13.230469 0 24 10.769531 24 24zm-288-64h-16v-16h16zm32 0h-16v-16h16zm208 0h-192v-16h192zm-376 64h16v16h-16zm480 0h16v16h-16zm0 0" fill="url(#a)"/></svg>