<svg height="496pt" viewBox="0 0 496 496" width="496pt" xmlns="http://www.w3.org/2000/svg" xmlns:xlink="http://www.w3.org/1999/xlink"><linearGradient id="a" gradientUnits="userSpaceOnUse" x1="248" x2="248" y1="496" y2="0"><stop offset="0" stop-color="#9f2fff"/><stop offset="1" stop-color="#0bb1d3"/></linearGradient><path d="m479.679688 161.375-6.167969-123.375c-1.0625-21.3125-18.617188-38-39.953125-38h-131.117188c-21.335937 0-38.882812 16.6875-39.953125 38l-6.167969 123.375c-3.113281 1.066406-5.929687 2.714844-8.320312 4.863281-2.390625-2.160156-5.207031-3.804687-8.320312-4.863281l-6.167969-123.375c-1.0625-21.3125-18.617188-38-39.953125-38h-131.117188c-21.335937 0-38.882812 16.6875-39.953125 38l-6.167969 123.375c-9.457031 3.226562-16.320312 12.089844-16.320312 22.625 0 10.542969 6.878906 19.425781 16.359375 22.640625l13.976563 251.582031c1.175781 21.183594 18.71875 37.777344 39.9375 37.777344h115.453124c21.21875 0 38.761719-16.59375 39.9375-37.785156l13.976563-251.582032c3.128906-1.066406 5.960937-2.710937 8.359375-4.878906 2.398438 2.167969 5.230469 3.8125 8.359375 4.878906l13.976563 251.582032c1.175781 21.191406 18.71875 37.785156 39.9375 37.785156h115.453124c21.21875 0 38.761719-16.59375 39.9375-37.785156l13.976563-251.582032c9.480469-3.207031 16.359375-12.089843 16.359375-22.632812 0-10.535156-6.863281-19.398438-16.320312-22.625zm-441.207032-122.574219c.640625-12.785156 11.160156-22.800781 23.96875-22.800781h131.125c12.808594 0 23.328125 10.015625 23.96875 22.800781l6.050782 121.199219h-23.585938v-96c0-8.824219-7.175781-16-16-16h-112c-8.824219 0-16 7.175781-16 16v96h-23.585938zm145.527344 25.199219v96h-112v-96zm25.695312 393.328125c-.710937 12.710937-11.238281 22.671875-23.96875 22.671875h-115.453124c-12.730469 0-23.257813-9.960938-23.96875-22.671875l-13.847657-249.328125h191.09375zm22.304688-265.328125h-208c-4.414062 0-8-3.59375-8-8s3.585938-8 8-8h208c4.414062 0 8 3.59375 8 8s-3.585938 8-8 8zm46.472656-153.199219c.640625-12.785156 11.160156-22.800781 23.96875-22.800781h131.125c12.808594 0 23.328125 10.015625 23.96875 22.800781l6.050782 121.199219h-23.585938v-96c0-8.824219-7.175781-16-16-16h-112c-8.824219 0-16 7.175781-16 16v96h-23.585938zm145.527344 25.199219v96h-112v-96zm25.695312 393.328125c-.710937 12.710937-11.238281 22.671875-23.96875 22.671875h-115.453124c-12.730469 0-23.257813-9.960938-23.96875-22.671875l-13.847657-249.328125h191.09375zm22.304688-265.328125h-208c-4.414062 0-8-3.59375-8-8s3.585938-8 8-8h208c4.414062 0 8 3.59375 8 8s-3.585938 8-8 8zm-104 216c39.703125 0 72-28.710938 72-64s-32.296875-64-72-64-72 28.710938-72 64 32.296875 64 72 64zm0-112c30.871094 0 56 21.527344 56 48s-25.128906 48-56 48-56-21.527344-56-48 25.128906-48 56-48zm-240 112c39.703125 0 72-28.710938 72-64s-32.296875-64-72-64-72 28.710938-72 64 32.296875 64 72 64zm0-16c-19.257812 0-36.265625-8.375-46.34375-21.097656 3.289062-1.109375 6.289062-2.300782 9.238281-3.476563 9.578125-3.816406 18.617188-7.425781 37.105469-7.425781s27.527344 3.609375 37.113281 7.425781c2.949219 1.175781 5.949219 2.367188 9.238281 3.476563-10.085937 12.722656-27.09375 21.097656-46.351562 21.097656zm0-96c22.246094 0 41.457031 11.207031 50.488281 27.367188-2.535156-.886719-4.992187-1.832032-7.464843-2.816407-10.558594-4.207031-21.480469-8.550781-43.023438-8.550781s-32.464844 4.34375-43.023438 8.550781c-2.472656.984375-4.929687 1.921875-7.464843 2.816407 9.03125-16.160157 28.242187-27.367188 50.488281-27.367188zm-55.855469 45.527344c7.40625-1.648438 13.191407-3.894532 18.75-6.113282 9.585938-3.804687 18.625-7.414062 37.105469-7.414062s27.519531 3.609375 37.105469 7.414062c5.558593 2.21875 11.34375 4.457032 18.75 6.113282.046875.824218.144531 1.640625.144531 2.472656 0 4.335938-.734375 8.527344-2 12.527344-3.863281-1.175782-7.367188-2.535156-10.96875-3.96875-10.558594-4.207032-21.480469-8.558594-43.03125-8.558594s-32.472656 4.351562-43.03125 8.558594c-3.601562 1.433594-7.105469 2.792968-10.96875 3.96875-1.265625-4-2-8.191406-2-12.527344 0-.832031.097656-1.648438.144531-2.472656zm327.855469-5.527344h-64v-16h64zm0 32h-64v-16h64zm0 0" fill="url(#a)"/></svg>