<svg height="496pt" viewBox="-40 0 496 496" width="496pt" xmlns="http://www.w3.org/2000/svg" xmlns:xlink="http://www.w3.org/1999/xlink"><linearGradient id="a" gradientUnits="userSpaceOnUse" x1="208" x2="208" y1="496" y2="0"><stop offset="0" stop-color="#9f2fff"/><stop offset="1" stop-color="#0bb1d3"/></linearGradient><path d="m208 0h-96c-22.054688 0-40 17.945312-40 40v8.464844c-23.359375 2.289062-43.054688 18.78125-48.847656 41.960937l-5.398438 21.574219h-1.753906c-8.824219 0-16 7.175781-16 16v16c0 8.824219 7.175781 16 16 16h.03125v.777344l29.175781 299.101562c2.023438 20.59375 19.136719 36.121094 39.824219 36.121094h178.96875c39.695312 0 72-32.304688 72-72 0-32.390625-21.519531-59.847656-51-68.855469l19-195.144531c8.824219 0 16-7.175781 16-16v-3.878906l52.640625-92.121094h19.359375c13.230469 0 24-10.769531 24-24s-10.769531-24-24-24h-52.945312l-18.125 36.246094-26.648438 46.640625c-7.800781-19.167969-25.554688-32.390625-46.28125-34.421875v-8.464844c0-22.054688-17.945312-40-40-40zm-120 40c0-13.230469 10.769531-24 24-24h96c13.230469 0 24 10.769531 24 24v8h-144zm112 24v8c0 4.40625-3.59375 8-8 8h-64c-4.40625 0-8-3.59375-8-8v-8zm-157.0625 208h234.101562l-7.832031 80.265625c-1.726562-.128906-3.445312-.265625-5.207031-.265625-17.089844 0-32.792969 6.015625-45.152344 16h-166.527344zm42.09375 208c-12.414062 0-22.679688-9.320312-23.886719-21.671875l-7.265625-74.328125h150.296875c-7.679687 11.449219-12.175781 25.207031-12.175781 40 0 22.609375 10.496094 42.792969 26.847656 56zm234.96875-56c0 30.878906-25.121094 56-56 56s-56-25.121094-56-56 25.121094-56 56-56 56 25.121094 56 56zm-41.398438-168h-237.226562l-9.375-96h255.960938zm70.34375-240h43.054688c4.40625 0 8 3.59375 8 8s-3.59375 8-8 8h-51.054688zm-16.304687 32h21.574219l-39.144532 68.496094c-2.878906-2.769532-6.765624-4.496094-11.070312-4.496094h-1.753906l-1.878906-7.519531zm-28.640625 80 .007812 16h-288.007812v-16zm-22.671875-33.695312 4.425781 17.695312h-251.507812l4.425781-17.695312c4.464844-17.839844 20.417969-30.304688 38.808594-30.304688h26.519531v8c0 13.230469 10.769531 24 24 24h64c13.230469 0 24-10.769531 24-24v-8h26.519531c18.390625 0 34.34375 12.464844 38.808594 30.304688zm-57.328125 329.695312c0 22.054688 17.945312 40 40 40s40-17.945312 40-40-17.945312-40-40-40-40 17.945312-40 40zm64 0c0 13.230469-10.769531 24-24 24s-24-10.769531-24-24 10.769531-24 24-24 24 10.769531 24 24zm0 0" fill="url(#a)"/></svg>