<svg height="496pt" viewBox="0 0 496.03018 496" width="496pt" xmlns="http://www.w3.org/2000/svg"><path d="m152.03125 392.015625-48-144 24-8 50.664062 152zm0 0" fill="#dfb28b"/><path d="m488.03125 488.015625h-480v-8s88-48 240-48 240 48 240 48zm0 0" fill="#ecc19c"/><path d="m216.03125 184.015625 85.679688-72.496094c11.824218-10.015625 26.816406-15.503906 42.320312-15.503906 15.496094 0 30.488281 5.488281 42.320312 15.503906l85.679688 72.496094zm0 0" fill="#b4dd7f"/><path d="m264.03125 48.015625c0 22.089844-17.910156 40-40 40-22.09375 0-40-17.910156-40-40 0-22.09375 17.90625-40 40-40 22.089844 0 40 17.90625 40 40zm0 0" fill="#ff826e"/><path d="m89.46875 175.230469c-64.214844 22.519531-97.3125 90.929687-73.949219 152.785156l232.511719-81.535156c-23.367188-61.867188-94.359375-93.761719-158.5625-71.25zm0 0" fill="#ff826e"/><path d="m96.03125 160.015625c0 8.835937-7.164062 16-16 16s-16-7.164063-16-16 7.164062-16 16-16 16 7.164063 16 16zm0 0" fill="#ecc19c"/><path d="m102.757812 182.4375-13.777343-6.421875-6.421875 13.765625c-17.105469 36.683594-19.0625 78.570312-5.617188 116.699219l105.625-37.042969c-14.046875-38.421875-42.734375-69.71875-79.808594-87zm0 0" fill="#fc6e51"/><path d="m224.03125 96.015625c26.472656 0 48-21.527344 48-48s-21.527344-48-48-48-48 21.527344-48 48 21.527344 48 48 48zm0-80c17.648438 0 32 14.351563 32 32s-14.351562 32-32 32-32-14.351563-32-32 14.351562-32 32-32zm0 0"/><path d="m482.167969 242.550781c-2.363281 2.496094-6.042969 5.464844-10.160157 5.464844-4.128906 0-7.808593-2.96875-10.242187-5.535156-6.480469-6.847657-14.007813-10.464844-21.777344-10.464844-7.773437 0-15.300781 3.625-21.820312 10.503906-2.363281 2.496094-6.050781 5.472657-10.179688 5.472657-4.125 0-7.8125-2.976563-10.175781-5.480469-12.964844-13.71875-30.605469-13.738281-43.613281 0-2.359375 2.496093-6.042969 5.472656-10.167969 5.472656-4.136719 0-7.824219-2.984375-10.183594-5.480469l-11.617187 11c12.976562 13.71875 30.601562 13.742188 43.617187-.007812 2.359375-2.496094 6.039063-5.472656 10.167969-5.472656 4.132813 0 7.824219 2.984374 10.183594 5.480468 6.488281 6.855469 14.023437 10.480469 21.800781 10.488282 7.773438 0 15.308594-3.625 21.832031-10.511719 2.351563-2.488281 6.03125-5.464844 10.148438-5.464844 4.128906 0 7.808593 2.96875 10.242187 5.542969 6.488282 6.839844 14.015625 10.457031 21.785156 10.457031 7.765626 0 15.292969-3.617187 21.773438-10.464844zm0 0"/><path d="m336.015625 328.015625c7.765625 0 15.292969-3.617187 21.773437-10.464844l-11.613281-11c-2.371093 2.496094-6.050781 5.464844-10.167969 5.464844-4.128906 0-7.808593-2.96875-10.242187-5.535156-6.480469-6.847657-14.007813-10.464844-21.777344-10.464844-7.773437 0-15.300781 3.625-21.820312 10.503906-2.363281 2.496094-6.050781 5.480469-10.179688 5.480469-4.125 0-7.8125-2.984375-10.175781-5.488281-12.964844-13.703125-30.605469-13.730469-43.613281.007812-2.359375 2.496094-6.042969 5.480469-10.167969 5.480469-4.136719 0-7.824219-2.984375-10.183594-5.488281l-11.617187 11c12.976562 13.710937 30.609375 13.734375 43.617187-.007813 2.359375-2.496094 6.039063-5.480468 10.167969-5.480468 4.132813 0 7.824219 2.984374 10.183594 5.488281 6.488281 6.847656 14.023437 10.480469 21.800781 10.488281 7.773438 0 15.308594-3.625 21.832031-10.511719 2.351563-2.496093 6.03125-5.472656 10.148438-5.472656 4.128906 0 7.808593 2.96875 10.242187 5.535156 6.488282 6.847657 14.015625 10.464844 21.792969 10.464844zm0 0"/><path d="m365.832031 373.511719c2.359375-2.496094 6.039063-5.480469 10.167969-5.480469 4.132812 0 7.820312 2.984375 10.183594 5.488281 6.488281 6.847657 14.023437 10.480469 21.796875 10.488281 7.777343 0 15.3125-3.625 21.832031-10.511718 2.371094-2.503906 6.050781-5.480469 10.167969-5.480469 4.128906 0 7.808593 2.96875 10.242187 5.535156 6.488282 6.847657 14.015625 10.464844 21.785156 10.464844 7.765626 0 15.292969-3.617187 21.773438-10.464844l-11.613281-11c-2.363281 2.496094-6.042969 5.464844-10.160157 5.464844-4.128906 0-7.808593-2.96875-10.242187-5.535156-6.480469-6.847657-14.007813-10.464844-21.777344-10.464844-7.773437 0-15.300781 3.625-21.820312 10.503906-2.363281 2.496094-6.050781 5.480469-10.179688 5.480469-4.125 0-7.8125-2.984375-10.175781-5.488281-12.964844-13.710938-30.605469-13.738281-43.613281.007812-2.359375 2.496094-6.042969 5.480469-10.167969 5.480469-4.136719 0-7.824219-2.984375-10.183594-5.488281l-11.617187 11c12.960937 13.71875 30.582031 13.734375 43.601562 0zm0 0"/><path d="m328.03125 448.015625h16v16h-16zm0 0"/><path d="m272.03125 448.015625h16v16h-16zm0 0"/><path d="m216.03125 448.015625h16v16h-16zm0 0"/><path d="m160.03125 448.015625h16v16h-16zm0 0"/><path d="m496.03125 176.015625h-21.074219l-83.4375-70.609375c-13.257812-11.214844-30.121093-17.390625-47.488281-17.390625s-34.234375 6.175781-47.488281 17.390625l-83.441407 70.609375h-17.855468c-27.28125-14.488281-59.664063-19.640625-91.527344-12.914063.136719-1.023437.3125-2.03125.3125-3.085937 0-13.234375-10.769531-24-24-24-13.234375 0-24 10.765625-24 24 0 7.199219 3.253906 13.597656 8.296875 18-3.25 1.863281-6.371094 3.886719-9.417969 6h-54.878906v16h35.957031c-9.902343 10.167969-18.199219 21.878906-24.324219 35.023437-14.1875 30.425782-15.472656 64.449219-3.632812 95.800782l2.757812 7.304687 102.824219-36.058593 27.3125 81.929687h-31.359375l-22.046875-58.816406-14.984375 5.625 23.078125 61.527343-15.015625 52.566407c-47.886718 12.824219-74.414062 26.992187-76.398437 28.066406l-4.167969 2.277344v20.753906h496v-20.753906l-4.167969-2.269531c-3.28125-1.792969-73.96875-39.535157-197.816406-47.488282l-16.601563-41.488281h-92.984374l-31.863282-95.59375 105.808594-37.101563-2.894531-7.664062c-7.777344-20.585938-20.53125-38.066406-36.472657-51.632812h276.992188zm-406.21875 19.808594 3.042969-6.519531 6.527343 3.039062c32.167969 15 57.175782 40.625 71.558594 72.6875l-89.558594 31.40625c-9.234374-33.488281-6.417968-68.78125 8.429688-100.613281zm-9.78125-43.808594c4.40625 0 8 3.589844 8 8 0 4.40625-3.59375 8-8 8-4.410156 0-8-3.59375-8-8 0-4.410156 3.589844-8 8-8zm-53.863281 89.785156c10.230469-21.953125 27.167969-39.578125 48.496093-51.152343-15.992187 35.238281-18.816406 74.167968-8.371093 111.085937l-45.78125 16.058594c-7.523438-25.1875-5.585938-51.882813 5.65625-75.992188zm212.125 182.308594c-37.925781.503906-71.6875 3.890625-100.941407 8.683594l5.453126-32.777344h90.664062zm-128.230469-24.09375h16.527344l-5.960938 35.75c-7.734375 1.488281-15.109375 3.058594-22.117187 4.691406zm313.96875 80v-8h-16v8h-40v-8h-16v8h-40v-8h-16v8h-40v-8h-16v8h-40v-8h-16v8h-40v-8h-16v8h-40v-8h-16v8h-44.992188c31.007813-13.121094 108.328126-40 220.992188-40 112.375 0 189.839844 26.878906 220.941406 40zm-147.59375-55.441406c-7.101562-.277344-14.40625-.421875-21.832031-.496094l-4.816407-24.0625h16.824219zm-108.847656-40.558594h-9.800782l-29.070312-87.222656 8.777344-3.082031zm69.777344-142.28125-51.320313 18c-15.640625-35.664063-43.082031-64.207031-78.464844-81.136719 8.039063-1.664062 16.121094-2.566406 24.121094-2.566406 44.597656 0 86.695313 24.984375 105.664063 65.703125zm69.511718-124.109375c10.367188-8.777344 23.566406-13.609375 37.152344-13.609375 13.582031 0 26.78125 4.832031 37.152344 13.609375l69.007812 58.390625h-212.320312zm0 0"/></svg>