<svg height="497pt" viewBox="-112 0 497 497.832" width="497pt" xmlns="http://www.w3.org/2000/svg"><path d="m147.425781 209.496094 36.988281-199.664063 32 8-36.324218 191.664063zm0 0" fill="#ffeaa7"/><path d="m72.414062 121.832031h-32c-17.671874 0-32-14.328125-32-32h32c17.675782 0 32 14.328125 32 32zm0 0" fill="#a0d468"/><path d="m210.808594 489.832031h-132.785156c-12.289063 0-22.582032-9.273437-23.871094-21.488281l-29.738282-282.511719h240l-29.742187 282.511719c-1.28125 12.214844-11.574219 21.488281-23.863281 21.488281zm0 0" fill="#e6e9ed"/><g fill="#b4dd7f"><path d="m32.414062 257.832031s24-24 64-24 104 32 160 32l-18.183593 173.152344c-5.972657 11.449219-17.894531 18.847656-31.109375 18.847656h-125.410156c-13.214844 0-25.144532-7.398437-31.117188-18.847656zm0 0"/><path d="m170.046875 88.847656 37.128906-22.496094 7.511719-39.441406-37.457031 22.425782zm0 0"/><path d="m199.601562 106.105469-36.730468 22.246093-7.191406 39.519532 36.3125-21.832032zm0 0"/></g><path d="m120.414062 153.832031c0 17.671875-14.324218 32-32 32-17.671874 0-32-14.328125-32-32s14.328126-32 32-32c17.675782 0 32 14.328125 32 32zm0 0" fill="#ffc729"/><path d="m194.089844 177.832031 31.605468-165.929687-47.617187-11.902344-32.335937 177.832031h-25.527344c5.074218-6.703125 8.199218-14.960937 8.199218-24 0-22.054687-17.941406-40-40-40-1.492187 0-2.917968.28125-4.375.441407-7.589843-22.554688-11.625-46.320313-11.625-70.105469v-2.335938h-16v2.335938c0 14.511719 1.433594 29.015625 4.113282 43.289062-5.933594-3.488281-12.75-5.625-20.113282-5.625h-40v8c0 22.054688 17.945313 40 40 40h16.210938c-5.082031 6.703125-8.210938 14.960938-8.210938 24 0 9.039063 3.128907 17.296875 8.210938 24h-41.089844l30.664063 291.359375c1.722656 16.328125 15.410156 28.640625 31.832031 28.640625h132.785156c16.429688 0 30.113282-12.320312 31.824219-28.648437l30.65625-291.351563zm54.734375 79.710938c-9.902344-.511719-20.097657-1.917969-30.359375-3.925781l5.277344-59.785157h31.792968zm-18.921875 179.761719c-4.949219 7.757812-13.453125 12.527343-22.78125 12.527343h-5.96875l6.296875-71.296875-15.9375-1.40625-6.421875 72.703125h-103.378906c-9.335938 0-17.839844-4.777343-22.789063-12.535156l-18.507813-175.847656c6.609376-5.410157 26.738282-19.617188 56-19.617188 17.195313 0 40.3125 6.648438 64.792969 13.679688 12.792969 3.679687 26.328125 7.519531 40.082031 10.769531l-7.664062 86.847656 15.933594 1.40625 7.488281-84.886718c10.082031 1.910156 20.160156 3.289062 30.097656 3.847656zm-45.445313-382.96875 19.039063-11.425782-3.558594 18.683594-18.859375 11.308594zm-7.183593 39.511718 18.65625-11.191406-3.5625 18.671875-18.472657 11.078125zm-7.183594 39.503906 18.269531-10.960937-3.558594 18.679687-18.089843 10.851563zm35.0625-110.085937-16.886719 10.125 2.496094-13.726563zm-42.25 149.605469 17.882812-10.726563-2.992187 15.6875h-15.800781zm-145.117188-75.039063h22.628906c10.433594 0 19.328126 6.6875 22.632813 16h-22.632813c-10.429687 0-19.324218-6.6875-22.628906-16zm46.628906 56c0-8.023437 3.992188-15.097656 10.058594-19.457031 2.101563 5.082031 4.328125 10.113281 6.785156 15.03125l14.308594-7.160156c-2.015625-4.023438-3.878906-8.125-5.636718-12.269532 12.519531.808594 22.484374 11.144532 22.484374 23.855469 0 13.230469-10.765624 24-24 24-13.230468 0-24-10.769531-24-24zm143.265626 40-4.96875 56.34375c-12.671876-3.054687-25.207032-6.625-37.085938-10.039062-25.59375-7.359375-49.761719-14.304688-69.210938-14.304688-26.40625 0-46.292968 9.601563-57.933593 17.222657l-5.183594-49.222657zm3.128906 288h-132.785156c-8.207032 0-15.054688-6.160156-15.917969-14.320312l-.722657-6.855469c6.144532 3.289062 13.066407 5.175781 20.328126 5.175781h125.410156c7.261718 0 14.183594-1.878906 20.320312-5.167969l-.722656 6.847657c-.855469 8.160156-7.703125 14.320312-15.910156 14.320312zm0 0"/></svg>