<svg height="496pt" viewBox="-104 0 496 496" width="496pt" xmlns="http://www.w3.org/2000/svg"><path d="m200 328h72l2.175781 8.71875c3.871094 15.457031 5.824219 31.34375 5.824219 47.28125l-24 8c-45.328125 15.113281-80.886719 50.671875-96 96h-32c-15.113281-45.328125-50.671875-80.886719-96-96l-24-8c0-15.9375 1.953125-31.824219 5.816406-47.28125l2.183594-8.71875zm0 0" fill="#fcd770"/><path d="m187.472656 304c-2.265625 0-4.496094.617188-6.449218 1.792969l-37.023438 22.207031-37.023438-22.207031c-1.945312-1.175781-4.175781-1.792969-6.449218-1.792969-6.917969 0-12.527344 5.609375-12.527344 12.527344v30.9375c0 6.925781 5.609375 12.535156 12.527344 12.535156 2.265625 0 4.496094-.617188 6.449218-1.792969l37.023438-22.207031 37.023438 22.207031c1.945312 1.175781 4.175781 1.792969 6.449218 1.792969 6.917969 0 12.527344-5.609375 12.527344-12.527344v-30.9375c0-6.925781-5.609375-12.535156-12.527344-12.535156zm0 0" fill="#ff826e"/><path d="m144 224h88v-24l24.824219-20.6875c14.679687-12.234375 23.175781-30.359375 23.175781-49.480469 0-11.671875-3.175781-23.128906-9.183594-33.136719-9.6875-16.160156-14.816406-34.65625-14.816406-53.511718v-35.183594h-32v42.566406c0 8.824219-2.054688 17.546875-6.007812 25.449219-6.425782 12.839844-17.472657 22.792969-30.914063 27.832031l-43.078125 16.152344-43.078125-16.152344c-13.449219-5.039062-24.488281-14.984375-30.914063-27.832031-3.953124-7.894531-6.007812-16.617187-6.007812-25.449219v-42.566406h-32v35.183594c0 18.855468-5.128906 37.351562-14.824219 53.519531-6.007812 10.007813-9.175781 21.464844-9.175781 33.128906 0 19.121094 8.488281 37.238281 23.167969 49.480469l24.832031 20.6875v24zm0 0" fill="#fcd770"/><path d="m144 120-24-9v113h48v-113zm0 0" fill="#ff826e"/><path d="m168 200-48-24v-40l48 24zm0 0" fill="#ffeaa7"/><path d="m278.246094 320h-70.246094v-3.472656c0-11.320313-9.207031-20.527344-20.527344-20.527344-3.730468 0-7.382812 1.015625-10.5625 2.929688l-32.910156 19.742187-32.894531-19.734375c-3.195313-1.921875-6.847657-2.9375-10.578125-2.9375-11.320313 0-20.527344 9.207031-20.527344 20.527344v3.472656h-70.246094l-3.691406 14.785156c-4.023438 16.0625-6.0625 32.628906-6.0625 49.214844v5.769531l29.472656 9.824219c42.710938 14.238281 76.703125 48.230469 90.941406 90.941406l1.816407 5.464844h43.53125l1.824219-5.472656c14.238281-42.710938 48.230468-76.703125 90.941406-90.941406l29.472656-9.816407v-5.769531c0-16.585938-2.039062-33.152344-6.0625-49.214844zm-93.09375-7.359375c2.824218-1.71875 6.847656.558594 6.847656 3.886719v30.9375c0 3.320312-3.984375 5.605468-6.855469 3.878906l-32.265625-19.34375zm-89.152344 3.886719c0-2.496094 2.03125-4.527344 4.527344-4.527344.824218 0 1.617187.214844 2.328125.648438l32.265625 19.351562-32.265625 19.359375c-2.863281 1.703125-6.855469-.566406-6.855469-3.886719zm157.472656 67.886718c-45.625 15.203126-82.304687 50.707032-99.128906 95.585938h-20.6875c-16.832031-44.878906-53.503906-80.382812-99.128906-95.585938l-18.449219-6.148437c.105469-3.425781.3125-6.851563.609375-10.265625h47.3125v-16h-45.175781c.777343-4.480469 1.65625-8.9375 2.761719-13.34375l.660156-2.65625h57.753906v11.472656c0 11.320313 9.207031 20.527344 20.527344 20.527344 3.730468 0 7.382812-1.015625 10.5625-2.929688l7.277344-4.367187c-4.144532 10.441406-6.367188 21.664063-6.367188 33.234375v22.0625h16v-22.0625c0-16.875 5.65625-32.859375 16-45.875 10.34375 13.015625 16 29 16 45.875v22.0625h16v-22.0625c0-11.578125-2.222656-22.792969-6.375-33.242188l7.269531 4.359376c3.195313 1.929687 6.847657 2.945312 10.578125 2.945312 11.320313 0 20.527344-9.207031 20.527344-20.527344v-11.472656h57.753906l.671875 2.65625c1.09375 4.40625 1.972657 8.863281 2.75 13.34375h-45.175781v16h47.304688c.296874 3.414062.503906 6.839844.605468 10.265625zm0 0"/><path d="m26.054688 185.464844 21.945312 18.289062v28.246094h192v-28.246094l21.953125-18.289062c16.550781-13.800782 26.046875-34.074219 26.046875-55.632813 0-13.128906-3.566406-26-10.320312-37.246093-8.945313-14.921876-13.679688-32-13.679688-49.402344v-43.183594h-48v50.566406c0 7.554688-1.785156 15.121094-5.167969 21.867188-5.535156 11.078125-14.96875 19.566406-26.566406 23.910156l-40.265625 15.113281-40.273438-15.105469c-11.589843-4.34375-21.023437-12.832031-26.558593-23.910156-3.382813-6.753906-5.167969-14.3125-5.167969-21.875v-50.566406h-48v43.183594c0 17.402344-4.734375 34.480468-13.679688 49.402344-6.753906 11.246093-10.320312 24.125-10.320312 37.246093 0 21.558594 9.496094 41.832031 26.054688 55.632813zm133.945312 1.589844-32-16v-22.109376l32 16zm-32 1.890624 32 16v11.054688h-32zm61.878906-77.609374c15.394532-5.769532 27.914063-17.039063 35.265625-31.742188 4.488281-8.953125 6.855469-18.992188 6.855469-29.027344v-34.566406h16v27.183594c0 20.296875 5.511719 40.222656 15.960938 57.632812 5.253906 8.757813 8.039062 18.800782 8.039062 29.015625 0 16.792969-7.398438 32.582031-20.289062 43.328125l-27.710938 23.085938v19.753906h-48v-99.457031zm-29.878906 11.207031v24.511719l-32-16v-8.511719l16 6zm-135.960938-21.71875c10.449219-17.410157 15.960938-37.335938 15.960938-57.640625v-27.183594h16v34.566406c0 10.035156 2.367188 20.074219 6.847656 29.027344 7.351563 14.703125 19.871094 25.972656 35.257813 31.742188l13.894531 5.207031v99.457031h-48v-19.753906l-27.703125-23.085938c-12.898437-10.734375-20.296875-26.535156-20.296875-43.328125 0-10.214843 2.785156-20.257812 8.039062-29.007812zm0 0"/></svg>