<svg height="496pt" viewBox="0 0 496 496" width="496pt" xmlns="http://www.w3.org/2000/svg"><path d="m328 191.738281h144v264h-144zm0 0" fill="#f5e0cd"/><path d="m328 191.738281h144v16h-144zm0 0" fill="#ecc19c"/><path d="m24 407.738281v-144h184v192h-184zm0 0" fill="#f5e0cd"/><g fill="#ecc19c"><path d="m24 287.738281v-24h184v32h-184zm0 0"/><path d="m472 373.53125c-8.664062-13.277344-23.496094-21.792969-40-21.792969-17.945312 0-34.007812 9.992188-42.199219 25.320313-17.136719 4.519531-29.800781 20.152344-29.800781 38.679687 0 22.058594 17.945312 40 40 40h64c2.734375 0 5.414062-.277343 8-.804687zm0 0"/><path d="m136 415.738281c0-18.527343-12.664062-34.160156-29.800781-38.679687-8.191407-15.328125-24.253907-25.320313-42.199219-25.320313-16.503906 0-31.335938 8.515625-40 21.792969v81.402344c2.585938.527344 5.265625.804687 8 .804687h64c22.054688 0 40-17.941406 40-40zm0 0"/></g><path d="m344 439.738281h128c8.832031 0 16 7.167969 16 16v32h-480v-32c0-8.832031 7.160156-16 16-16zm0 0" fill="#d3a06c"/><path d="m136 439.738281h224v48h-224zm0 0" fill="#b27946"/><path d="m184 199.738281h-128l-48 72v8h176zm0 0" fill="#d3a06c"/><path d="m312 111.738281h128l48 72v8h-176zm0 0" fill="#d3a06c"/><path d="m152 111.738281h192v376h-192zm0 0" fill="#cf9e76"/><path d="m184 127.738281h128v216h-128zm0 0" fill="#f5e0cd"/><path d="m120 311.738281h256v32h-256zm0 0" fill="#cf9e76"/><path d="m344 287.738281h16v152h-16zm0 0" fill="#ecc19c"/><path d="m152 127.738281v-32l82.34375-82.34375c3.617188-3.621093 8.527344-5.65625 13.65625-5.65625s10.039062 2.035157 13.65625 5.65625l82.34375 82.34375v32zm0 0" fill="#dfb28b"/><path d="m344 95.738281h-192v32h192zm0 0" fill="#cf9e76"/><path d="m320 127.738281-72-120-72 120zm0 0" fill="#ecc19c"/><path d="m184 191.738281h128v32h-128zm0 0" fill="#f0d0b4"/><path d="m184 191.738281h32v32h-32zm0 0" fill="#f0d0b4"/><path d="m216 191.738281h32v32h-32zm0 0" fill="#ecc19c"/><path d="m248 191.738281h32v32h-32zm0 0" fill="#f0d0b4"/><path d="m280 191.738281h32v32h-32zm0 0" fill="#ecc19c"/><path d="m136 279.738281h16v160h-16zm0 0" fill="#ecc19c"/><path d="m152 311.738281h-32v32h64v-32zm0 0" fill="#ecc19c"/><path d="m216 311.738281h-32v32h128v-32zm0 0" fill="#f0d0b4"/><path d="m248 311.738281h-32v32h64v-32zm0 0" fill="#ecc19c"/><path d="m344 311.738281h-32v32h64v-32zm0 0" fill="#ecc19c"/><path d="m184 487.738281v-88c0-13.253906 10.742188-24 24-24s24 10.746094 24 24v88zm0 0" fill="#f5e0cd"/><path d="m264 487.738281v-88c0-13.253906 10.742188-24 24-24s24 10.746094 24 24v88zm0 0" fill="#f5e0cd"/><path d="m344 255.738281h128v32h-128zm0 0" fill="#cf9e76"/><path d="m96 439.738281c13.257812 0 24-10.742187 24-24 0-13.253906-10.742188-24-24-24-.375 0-.726562.097657-1.097656.113281-3.527344-13.839843-15.964844-24.113281-30.902344-24.113281s-27.375 10.273438-30.902344 24.113281c-.371094-.015624-.722656-.113281-1.097656-.113281-13.257812 0-24 10.746094-24 24 0 13.257813 10.742188 24 24 24zm0 0" fill="#b4dd7f"/><path d="m400 439.738281c-13.257812 0-24-10.742187-24-24 0-13.253906 10.742188-24 24-24 .375 0 .726562.097657 1.097656.113281 3.527344-13.839843 15.964844-24.113281 30.902344-24.113281s27.375 10.273438 30.902344 24.113281c.371094-.015624.722656-.113281 1.097656-.113281 13.257812 0 24 10.746094 24 24 0 13.257813-10.742188 24-24 24zm0 0" fill="#b4dd7f"/><path d="m152 343.738281h192v16h-192zm0 0" fill="#b27946"/><path d="m152 127.738281h32v16h-32zm0 0" fill="#b27946"/><path d="m312 127.738281h32v16h-32zm0 0" fill="#b27946"/><path d="m184 127.738281h128v16h-128zm0 0" fill="#f0d0b4"/><path d="m344 111.738281h16v80h-16zm0 0" fill="#b27946"/><path d="m344 191.738281h16v64h-16zm0 0" fill="#ecc19c"/><path d="m344 255.738281h16v32h-16zm0 0" fill="#d3a06c"/><path d="m136 199.738281h16v80h-16zm0 0" fill="#b27946"/><path d="m344 255.738281h16v32h-16zm0 0" fill="#b27946"/><path d="m240 79.738281h16v16h-16zm0 0"/><path d="m208 151.738281h16v16h-16zm0 0"/><path d="m240 151.738281h16v16h-16zm0 0"/><path d="m272 151.738281h16v16h-16zm0 0"/><path d="m208 247.738281h16v16h-16zm0 0"/><path d="m240 247.738281h16v16h-16zm0 0"/><path d="m272 247.738281h16v16h-16zm0 0"/><path d="m496 199.738281v-18.421875l-51.71875-77.578125h-92.28125v-11.308593l-84.679688-84.691407c-10.304687-10.316406-28.34375-10.316406-38.632812 0l-84.6875 84.691407v99.308593h-92.28125l-51.71875 77.578125v18.421875h16v100.355469c-9.542969 5.542969-16 15.839844-16 27.644531 0 8.402344 3.320312 16 8.640625 21.714844-5.242187 4.40625-8.640625 10.925781-8.640625 18.285156v40h496v-40c0-7.359375-3.398438-13.878906-8.640625-18.285156 5.320313-5.714844 8.640625-13.3125 8.640625-21.714844 0-11.804687-6.457031-22.101562-16-27.644531v-188.355469zm-60.28125-80 42.664062 64h-126.382812v-64zm44.28125 296c0 8.824219-7.175781 16-16 16h-64c-8.824219 0-16-7.175781-16-16s7.175781-16 15.480469-16.023437l7.757812.402344 1.609375-6.296876c2.710938-10.640624 12.242188-18.082031 23.152344-18.082031s20.441406 7.441407 23.160156 18.089844l1.609375 6.296875 6.488281-.28125c.414063-.023438.839844-.070312.742188-.105469 8.824219 0 16 7.175781 16 16zm-48-56c-16.175781 0-30.511719 9.753907-36.703125 24.347657-15.425781 2.285156-27.296875 15.605468-27.296875 31.652343 0 5.859375 1.695312 11.273438 4.449219 16h-20.449219v-80h32v-48h-32v-8h112v80.296875c-7.359375-9.984375-19.046875-16.296875-32-16.296875zm-128 120h-32v-80c0-8.824219 7.175781-16 16-16s16 7.175781 16 16zm-16-112c-17.648438 0-32 14.355469-32 32v80h-16v-80c0-17.644531-14.351562-32-32-32s-32 14.355469-32 32v80h-16v-128h176v128h-16v-80c0-17.644531-14.351562-32-32-32zm-64 112h-32v-80c0-8.824219 7.175781-16 16-16s16 7.175781 16 16zm-64-160h16v16h-16zm-16 16h-16v-16h16zm16-232h21.070312l-9.597656 16h-11.472656zm176 200h-16v-168h16zm0 32h-16v-16h16zm16-16h16v16h-16zm-112 0v16h-16v-16zm16 0h16v16h-16zm32 0h16v16h-16zm-96-120h16v16h-16zm32 0h16v16h-16zm32 0h16v16h-16zm32 0h16v16h-16zm-97.871094-80 9.597656-16h.273438v-.445312l48-80 48 80v.445312h.273438l9.597656 16zm145.871094 0h-11.472656l-9.597656-16h21.070312zm-30.671875-32-29.039063-48.390625 48.398438 48.390625zm-114.65625 0h-19.359375l48.390625-48.382812zm113.328125 48v48h-112v-48zm-112 96h112v72h-112zm16 88v16h-16v-16zm256-40h-112v-16h112zm-288-144v168h-16v-168zm-115.71875 72h83.71875v64h-126.382812zm83.71875 80v16h-32v48h32v80h-20.449219c2.753907-4.726562 4.449219-10.140625 4.449219-16 0-16.046875-11.871094-29.367187-27.296875-31.652343-6.191406-14.59375-20.527344-24.347657-36.703125-24.347657-12.953125 0-24.640625 6.3125-32 16.296875v-88.296875zm-112.734375 112h.664063l7.300781.378907 1.609375-6.296876c2.71875-10.640624 12.25-18.082031 23.160156-18.082031s20.441406 7.441407 23.160156 18.089844l1.609375 6.296875 6.488281-.28125c.414063-.023438.839844-.070312.742188-.105469 8.824219 0 16 7.175781 16 16s-7.175781 16-16 16h-64c-8.824219 0-16-7.175781-16-16 0-8.742187 7.054688-15.855469 15.265625-16zm-15.265625 56c0-4.40625 3.59375-8 8-8h120v32h-128zm464 24h-128v-32h120c4.40625 0 8 3.59375 8 8zm-16-232h-112v-48h112zm0 0"/><path d="m368 215.738281h16v16h-16zm0 0"/><path d="m400 215.738281h16v16h-16zm0 0"/><path d="m432 215.738281h16v16h-16zm0 0"/><path d="m432 319.738281h16v16h-16zm0 0"/><path d="m400 319.738281h16v16h-16zm0 0"/><path d="m80 319.738281h16v16h-16zm0 0"/><path d="m48 319.738281h16v16h-16zm0 0"/></svg>