<svg height="496pt" viewBox="-64 0 496 496" width="496pt" xmlns="http://www.w3.org/2000/svg"><path d="m88 184-64 80v17.070312c0 76.523438 28.519531 150.304688 80 206.929688h176c51.480469-56.625 80-130.40625 80-206.929688v-17.070312l-71-80zm0 0" fill="#a0d468"/><path d="m360 264c0 22.097656-17.902344 40-40 40-13.152344 0-24.710938-6.433594-32-16.214844-7.289062 9.78125-18.847656 16.214844-32 16.214844s-24.710938-6.433594-32-16.214844c-7.289062 9.78125-18.847656 16.214844-32 16.214844s-24.710938-6.433594-32-16.214844c-7.289062 9.78125-18.847656 16.214844-32 16.214844s-24.710938-6.433594-32-16.214844c-7.289062 9.78125-18.847656 16.214844-32 16.214844-22.097656 0-40-17.902344-40-40l64-80h201zm0 0" fill="#f5e0cd"/><path d="m289 184c0 8.832031-45 16-100.503906 16s-100.496094-7.167969-100.496094-16 44.992188-16 100.496094-16 100.503906 7.167969 100.503906 16zm0 0" fill="#ecc19c"/><path d="m8 8h128v16c0 17.671875-14.328125 32-32 32h-8v8c0 17.671875-14.328125 32-32 32h-8c0 17.671875-14.328125 32-32 32h-16zm0 0" fill="#fcd770"/><path d="m96 64v-8l-88-48 48 88h8c17.671875 0 32-14.328125 32-32zm0 0" fill="#ffeaa7"/><path d="m317.335938 184.007812c0 11.785157-9.542969 21.328126-21.328126 21.328126-11.792968 0-21.335937-9.542969-21.335937-21.328126 0-11.785156 9.542969-21.335937 21.335937-21.335937 11.785157 0 21.328126 9.550781 21.328126 21.335937zm0 0" fill="#fcd770"/><path d="m352 184c0-7.871094-3.839844-14.800781-9.703125-19.175781 1.046875-7.230469-1.136719-14.847657-6.695313-20.425781-5.570312-5.558594-13.1875-7.742188-20.425781-6.695313-4.375-5.863281-11.304687-9.703125-19.175781-9.703125s-14.808594 3.839844-19.175781 9.703125c-7.230469-1.046875-14.847657 1.136719-20.425781 6.695313-5.558594 5.570312-7.742188 13.1875-6.695313 20.425781-5.863281 4.375-9.703125 11.304687-9.703125 19.175781s3.839844 14.800781 9.703125 19.175781c-1.046875 7.230469 1.136719 14.847657 6.695313 20.417969 5.570312 5.566406 13.1875 7.75 20.425781 6.703125 4.367187 5.863281 11.304687 9.703125 19.175781 9.703125s14.800781-3.839844 19.175781-9.703125c7.230469 1.046875 14.847657-1.136719 20.425781-6.703125 5.558594-5.5625 7.742188-13.179688 6.695313-20.417969 5.863281-4.375 9.703125-11.304687 9.703125-19.175781zm-40 0c0 8.832031-7.167969 16-16 16s-16-7.167969-16-16 7.167969-16 16-16 16 7.167969 16 16zm0 0" fill="#fc6e51"/><path d="m341.855469 228.519531c5.648437-5.992187 8.753906-13.734375 8.703125-21.917969 6.050781-5.984374 9.441406-14 9.441406-22.601562s-3.390625-16.617188-9.441406-22.601562c.050781-8.496094-3.222656-16.566407-9.300782-22.664063-6.089843-6.070313-14.363281-9.253906-22.65625-9.292969-5.984374-6.050781-14-9.441406-22.601562-9.441406s-16.625 3.390625-22.601562 9.441406c-8.605469.039063-16.566407 3.222656-22.664063 9.300782-6.070313 6.082031-9.34375 14.152343-9.292969 22.65625-.152344.152343-.257812.335937-.410156.496093-10.734375-.863281-22.296875-1.460937-34.277344-1.726562l20.6875-124.113281c1.933594-11.621094 11.886719-20.054688 23.671875-20.054688h76.886719v-16h-76.886719c-19.632812 0-36.226562 14.054688-39.457031 33.425781l-21.097656 126.582031c-13.207032.023438-24.847656.320313-35.144532.847657l-58.398437-74.328125c4.390625-6.421875 6.984375-14.175782 6.984375-22.527344 22.054688 0 40-17.945312 40-40v-24h-144v136h24c19.320312 0 35.480469-13.769531 39.191406-32h.808594c7.894531 0 15.214844-2.375 21.425781-6.335938l50.726563 64.566407c-38.496094 3.65625-51.457032 11.152343-54.992188 17.523437l-65.160156 81.4375v19.871094c0 78.691406 29.152344 154.089844 82.078125 212.3125l2.386719 2.625h183.078125l2.378906-2.617188c52.925781-58.222656 82.078125-133.621093 82.078125-212.3125v-19.871093zm-213.855469-204.519531c0 13.230469-10.769531 24-24 24h-5.960938l-58.664062-32h88.625zm-104 96h-8v-80.625l31.824219 58.34375c-.894531 12.425781-11.175781 22.28125-23.824219 22.28125zm40-32h-3.246094l-32.707031-59.953125 59.953125 32.707031v3.246094c0 13.230469-10.769531 24-24 24zm25.238281 107.257812c12.570313 6.703126 41.007813 12.742188 102.761719 12.742188 17.128906 0 33.921875-.671875 49.03125-1.894531.152344.152343.257812.335937.410156.488281-.050781 8.503906 3.222656 16.574219 9.300782 22.652344 6.042968 6.042968 14.035156 9.3125 22.472656 9.3125h.183594c5.976562 6.050781 14 9.441406 22.601562 9.441406s16.617188-3.390625 22.601562-9.441406c3.253907-.039063 6.429688-.671875 9.503907-1.613282l23.636719 29.542969c-1.285157 16.472657-14.949219 29.511719-31.742188 29.511719-10.113281 0-19.433594-4.734375-25.585938-13l-6.414062-8.617188-6.414062 8.617188c-6.152344 8.265625-15.472657 13-25.585938 13s-19.433594-4.734375-25.585938-13l-6.414062-8.617188-6.414062 8.617188c-6.152344 8.265625-15.472657 13-25.585938 13s-19.433594-4.734375-25.585938-13l-6.414062-8.617188-6.414062 8.617188c-6.152344 8.265625-15.472657 13-25.585938 13s-19.433594-4.734375-25.585938-13l-6.414062-8.617188-6.414062 8.617188c-6.152344 8.265625-15.472657 13-25.585938 13-16.792969 0-30.457031-13.039062-31.753906-29.511719zm165.257813-24.035156 3.808594-2.847656-.679688-4.703125c-.738281-5.097656.878906-10.0625 4.429688-13.617187 3.570312-3.550782 8.53125-5.167969 13.625-4.4375l4.703124.679687 2.847657-3.816406c6.160156-8.242188 19.371093-8.257813 25.546875.007812l2.847656 3.808594 4.703125-.679687c5.070313-.753907 10.054687.878906 13.617187 4.429687 3.558594 3.5625 5.175782 8.527344 4.4375 13.625l-.679687 4.703125 3.808594 2.847656c4.121093 3.089844 6.488281 7.746094 6.488281 12.777344s-2.367188 9.6875-6.496094 12.777344l-3.808594 2.847656.679688 4.703125c.738281 5.097656-.878906 10.054687-4.429688 13.617187-3.5625 3.558594-8.519531 5.199219-13.625 4.4375l-4.703124-.679687-2.847657 3.808594c-6.167969 8.265625-19.386719 8.25-25.546875.007812l-2.847656-3.816406-4.703125.679687c-5.097656.746094-10.0625-.878906-13.625-4.4375-3.550781-3.554687-5.167969-8.511718-4.429687-13.617187l.679687-4.703125-3.808594-2.847656c-4.121093-3.089844-6.488281-7.746094-6.488281-12.777344s2.367188-9.6875 6.496094-12.777344zm-21.753906 6.082032c-.46875 2.175781-.742188 4.40625-.742188 6.695312s.273438 4.519531.742188 6.695312c-9.917969.65625-20.476563 1.058594-31.277344 1.207032l2.632812-15.78125c9.886719.183594 19.527344.574218 28.644532 1.183594zm-44.863282-1.257813-2.648437 15.875c-1.832031-.019531-3.679688-.035156-5.460938-.066406l-12.089843-15.382813c6.351562-.234375 13.054687-.382812 20.199218-.425781zm-39.734375 1.449219 10.734375 13.664062c-27.191406-1.417968-46.046875-4.417968-56.046875-7.160156 8.632813-2.375 23.832031-4.9375 45.3125-6.503906zm128.289063 302.503906h-168.867188c-44.476562-50.097656-70.621094-113.183594-74.878906-179.695312 8.417969 7.261718 19.34375 11.695312 31.3125 11.695312 12.007812 0 23.265625-4.414062 32-12.351562 8.734375 7.9375 19.992188 12.351562 32 12.351562s23.265625-4.414062 32-12.351562c8.734375 7.9375 19.992188 12.351562 32 12.351562s23.265625-4.414062 32-12.351562c8.734375 7.9375 19.992188 12.351562 32 12.351562s23.265625-4.414062 32-12.351562c8.734375 7.9375 19.992188 12.351562 32 12.351562 11.96875 0 22.894531-4.433594 31.3125-11.695312-4.257812 66.511718-30.390625 129.597656-74.878906 179.695312zm0 0"/><path d="m59.839844 362.289062c10.824218 36.261719 28.519531 69.503907 52.601562 98.789063l12.359375-10.15625c-22.722656-27.640625-39.417969-59-49.632812-93.210937zm0 0"/><path d="m67.878906 326.632812-15.765625 2.734376c.957031 5.527343 2.0625 11.015624 3.34375 16.464843l15.574219-3.65625c-1.199219-5.136719-2.246094-10.328125-3.152344-15.542969zm0 0"/><path d="m296 208c13.230469 0 24-10.769531 24-24s-10.769531-24-24-24-24 10.769531-24 24 10.769531 24 24 24zm0-32c4.40625 0 8 3.59375 8 8s-3.59375 8-8 8-8-3.59375-8-8 3.59375-8 8-8zm0 0"/></svg>