<svg height="496pt" viewBox="0 0 496 496" width="496pt" xmlns="http://www.w3.org/2000/svg"><path d="m176 88 9.953125-11.609375c25.03125-29.199219 56.429687-52.269531 91.78125-67.421875 1.488281-.640625 3.097656-.96875 4.730469-.96875h1.535156c6.625 0 12 5.375 12 12 0 2.59375-.847656 5.128906-2.398438 7.199219-14.195312 18.921875-23.632812 40.976562-27.523437 64.304687l-2.078125 12.496094-7.335938 8.664062-80.664062-16.664062zm0 0" fill="#aab2bd"/><path d="m228.160156 75.71875-16.296875-3.253906c-6.535156-1.304688-13.183593-2.167969-19.839843-2.761719-2.039063 2.21875-4.113282 4.402344-6.070313 6.6875l-9.953125 11.609375v8l80.664062 16.664062 7.335938-8.664062 2.078125-12.488281c.226563-1.351563.53125-2.6875.800781-4.03125-12.421875-5.046875-25.328125-9.082031-38.71875-11.761719zm0 0" fill="#969faa"/><path d="m384 336v-50.679688c0-49.71875-18.726562-97.601562-52.449219-134.136718-28.304687-30.671875-65.589843-51.589844-106.519531-59.785156l-16.304688-3.253907c-26.742187-5.351562-54.390624-4.046875-80.503906 3.792969-26.398437 7.910156-50.421875 22.261719-69.902344 41.75l-10.320312 10.3125-30.230469 12.097656c-5.90625 2.359375-9.769531 8.070313-9.769531 14.421875 0 7.738281 5.6875 14.289063 13.34375 15.382813l125.65625 17.953125c8.488281 1.207031 16.902344 2.886719 25.238281 4.878906-2.789062 7.808594-4.238281 16.066406-4.238281 24.402344 0 24.269531 12.136719 46.941406 32.335938 60.414062l2.351562 1.570313c8.679688 5.789062 18.878906 8.878906 29.3125 8.878906l-6.59375-13.183594c-6.191406-12.375-9.40625-26.015625-9.40625-39.847656 0-9.113281 1.425781-18.113281 4.136719-26.710938l.390625.140626c58 21.378906 106.785156 61.480468 139.105468 113.410156v21.816406l8.367188 8.375h24v-24zm0 0" fill="#ccd1d9"/><g fill="#69d6f4"><path d="m152 304v6.808594c0 10.925781 4.703125 21.335937 12.902344 28.550781 2.019531 3.023437 3.097656 6.578125 3.097656 10.214844 0 10.179687-8.246094 18.425781-18.425781 18.425781-11.910157 0-21.574219-9.664062-21.574219-21.574219 0-16.503906 8.246094-31.921875 21.984375-41.082031zm0 0"/><path d="m328 88h6.808594c10.925781 0 21.335937 4.703125 28.550781 12.902344 3.023437 2.019531 6.578125 3.097656 10.214844 3.097656 10.179687 0 18.425781-8.246094 18.425781-18.425781 0-11.910157-9.664062-21.574219-21.574219-21.574219-16.503906 0-31.921875 8.246094-41.082031 21.984375zm0 0"/><path d="m104 248h-6.808594c-10.925781 0-21.335937 4.703125-28.550781 12.902344-3.023437 2.019531-6.578125 3.097656-10.214844 3.097656-10.179687 0-18.425781-8.246094-18.425781-18.425781 0-11.910157 9.664062-21.574219 21.574219-21.574219 16.503906 0 31.921875 8.246094 41.082031 21.984375zm0 0"/></g><path d="m384 336h41.160156c9.761719 0 19.375 2.273438 28.105469 6.632812 21.285156 10.640626 34.734375 32.398438 34.734375 56.199219v17.167969l-5.070312-2.527344c-17.714844-8.863281-37.242188-13.472656-57.042969-13.472656-6.503907 0-12.917969-1.511719-18.734375-4.425781-14.191406-7.085938-23.152344-21.597657-23.152344-37.460938zm0 0" fill="#aab2bd"/><path d="m376 336h-41.167969c-9.761719 0-19.375 2.273438-28.105469 6.632812-21.277343 10.640626-34.726562 32.398438-34.726562 56.199219v17.167969l5.070312-2.527344c17.714844-8.863281 37.242188-13.472656 57.042969-13.472656 6.503907 0 12.917969-1.511719 18.734375-4.425781 13.625-6.8125 22.433594-20.453125 23.113282-35.574219.023437-.625.039062-1.257812.039062-1.886719zm0 0" fill="#aab2bd"/><path d="m0 496h496v-83.398438c-7.265625 4.726563-12.007812 11.398438-25.382812 11.398438-20.695313 0-20.695313-16-41.394532-16-20.679687 0-20.679687 16-41.351562 16-20.664063 0-20.664063-16-41.328125-16-20.671875 0-20.671875 16-41.34375 16-20.664063 0-20.664063-16-41.328125-16-20.671875 0-20.671875 16-41.335938 16-20.664062 0-20.664062-16-41.328125-16-20.664062 0-20.664062 16-41.320312 16-20.640625 0-20.640625-16-41.285157-16-20.664062 0-20.664062 16-41.320312 16-20.640625 0-20.640625-16-41.28125-16-7.3125 0-12.03125 2.007812-16 4.601562zm0 0" fill="#69d6f4"/><path d="m233.824219 117.625-3.128907 15.6875c2.265626.457031 4.382813 1.039062 6.28125 1.742188 2.671876 1 5.304688 2.058593 7.894532 3.160156l6.25-14.726563c-2.816406-1.191406-5.664063-2.335937-8.570313-3.425781-2.695312-1-5.628906-1.824219-8.726562-2.4375zm0 0"/><path d="m267.839844 131.609375-7.6875 14.03125c48.742187 26.679687 79.953125 75.007813 83.503906 129.289063l15.96875-1.050782c-3.90625-59.757812-38.21875-112.949218-91.785156-142.269531zm0 0"/><path d="m456.839844 335.480469c-9.792969-4.894531-20.742188-7.480469-31.671875-7.480469h-33.167969v-42.679688c0-51.871093-19.375-101.441406-54.558594-139.558593-18.449218-19.992188-40.265625-35.859375-64.449218-47.066407l.976562-5.871093c3.664062-21.976563 12.664062-43 26.039062-60.824219 2.578126-3.449219 3.992188-7.703125 3.992188-12 0-11.023438-8.96875-20-20-20h-1.535156c-2.730469 0-5.386719.542969-7.871094 1.617188-36.265625 15.535156-69.019531 39.589843-94.707031 69.566406l-4.992188 5.824218c-16.550781.121094-33.078125 2.503907-48.964843 7.265626-27.570313 8.261718-52.90625 23.398437-73.265626 43.757812l-9.152343 9.152344-28.710938 11.480468c-8.992187 3.601563-14.800781 12.175782-14.800781 21.855469 0 11.640625 8.6875 21.65625 20.207031 23.304688l125.65625 17.953125c5.242188.742187 10.6875 1.78125 16.28125 2.957031-1.410156 6.035156-2.144531 12.21875-2.144531 18.410156 0 27.007813 13.425781 52.085938 35.886719 67.0625l2.359375 1.578125c10.027344 6.679688 21.699218 10.214844 33.753906 10.214844h12.945312l-12.386718-24.769531c-5.597656-11.199219-8.558594-23.742188-8.558594-36.261719 0-5.394531.71875-10.679688 1.761719-15.890625 47.910156 19.378906 88.429687 51.488281 117.839843 92.921875h-8.761718c-10.929688 0-21.878906 2.585938-31.679688 7.480469-24.152344 12.070312-39.160156 36.351562-39.160156 63.351562v30.097657l16.648438-8.3125c16.511718-8.257813 35-12.617188 53.464843-12.617188 7.703125 0 15.421875-1.824219 22.3125-5.265625 10.847657-5.421875 19.039063-14.367187 23.574219-25.054687 4.535156 10.6875 12.726562 19.632812 23.574219 25.054687 6.898437 3.441406 14.609375 5.265625 22.3125 5.265625 18.464843 0 36.953125 4.359375 53.472656 12.625l16.640625 8.3125v-30.097656c0-27.007813-15.007812-51.289063-39.160156-63.359375zm-175.953125-319.160157c.496093-.207031 1.023437-.320312 1.578125-.320312h1.535156c2.199219 0 4 1.792969 4 4 0 .863281-.289062 1.71875-.800781 2.398438-14.894531 19.859374-24.925781 43.296874-29.015625 67.792968l-.359375 2.183594c-10.082031-3.71875-20.511719-6.671875-31.222657-8.816406l-16.304687-3.253906c-4.984375-1-10.007813-1.695313-15.058594-2.25 23.617188-26.445313 53.089844-47.78125 85.648438-61.734376zm-50.4375 203.398438c1.992187-4.742188 4.261719-9.375 7.160156-13.71875l1.039063-1.550781-13.296876-8.890625-1.046874 1.5625c-10.664063 16-16.304688 34.613281-16.304688 53.847656 0 14.75 3.433594 29.527344 9.929688 42.773438-3.800782-1.253907-7.425782-3.015626-10.800782-5.269532l-2.359375-1.578125c-18.007812-12.007812-28.769531-32.101562-28.769531-53.75 0-9.976562 2.359375-19.96875 6.824219-28.886719l8.335937-16.671874-14.3125-7.160157-8.335937 16.671875c-.390625.78125-.671875 1.621094-1.039063 2.429688-6.671875-1.449219-13.121094-2.695313-19.335937-3.582032l-125.65625-17.953124c-3.695313-.527344-6.480469-3.746094-6.480469-7.472657 0-3.105469 1.855469-5.847656 4.734375-7l31.761719-12.703125 11.480468-11.472656c18.496094-18.496094 41.503907-32.230469 66.542969-39.742188 16.664063-4.992187 34.105469-7.128906 51.441407-6.496093l.109374.09375.082032-.085938c8.390625.320313 16.757812 1.222657 25.007812 2.871094l16.304688 3.253906c39.535156 7.914063 74.878906 27.746094 102.214844 57.363281 32.449218 35.175782 50.320312 80.878907 50.320312 128.71875v64.679688c-31.632812-59.503906-82.648438-105.183594-145.550781-130.28125zm118.816406 168.707031c-4.679687 2.335938-9.921875 3.574219-15.152344 3.574219-18.539062 0-37.113281 3.878906-54.113281 11.273438v-4.441407c0-20.910156 11.617188-39.703125 30.3125-49.046875 7.574219-3.785156 16.0625-5.785156 24.519531-5.785156h19.265625c4.558594 7.511719 8.78125 15.28125 12.636719 23.289062-2.527344 9.070313-8.742187 16.773438-17.46875 21.136719zm130.734375 14.847657c-17.007812-7.394532-35.566406-11.273438-54.113281-11.273438-5.230469 0-10.480469-1.238281-15.160157-3.574219-11.550781-5.777343-18.726562-17.394531-18.726562-30.3125v-14.113281h33.167969c8.464843 0 16.945312 2 24.519531 5.792969 18.695312 9.34375 30.3125 28.136719 30.3125 49.039062zm0 0"/><path d="m112 128h16v16h-16zm0 0"/><path d="m454.617188 480c-7.617188 0-11.050782-2.65625-15.808594-6.328125-5.570313-4.3125-12.503906-9.671875-25.585938-9.671875-13.078125 0-20.007812 5.359375-25.574218 9.671875-4.746094 3.671875-8.167969 6.328125-15.777344 6.328125-7.589844 0-11.023438-2.65625-15.765625-6.328125-5.570313-4.3125-12.488281-9.671875-25.5625-9.671875-13.070313 0-20 5.359375-25.566407 9.671875-4.746093 3.671875-8.167968 6.328125-15.777343 6.328125-7.589844 0-11.023438-2.65625-15.765625-6.328125-5.570313-4.3125-12.488282-9.671875-25.5625-9.671875-13.070313 0-20 5.359375-25.566406 9.671875-4.746094 3.671875-8.167969 6.328125-15.769532 6.328125-7.597656 0-11.023437-2.65625-15.765625-6.328125-5.570312-4.3125-12.488281-9.671875-25.5625-9.671875-13.070312 0-20 5.359375-25.558593 9.671875-4.746094 3.671875-8.160157 6.328125-15.761719 6.328125-7.582031 0-11-2.65625-15.742188-6.320312-5.558593-4.3125-12.480469-9.679688-25.542969-9.679688-13.074218 0-20 5.359375-25.5625 9.671875-4.742187 3.671875-8.167968 6.328125-15.757812 6.328125-7.585938 0-11.007812-2.65625-15.746094-6.328125-5.558594-4.304687-12.480468-9.671875-25.535156-9.671875v16c7.585938 0 11.007812 2.65625 15.742188 6.328125 5.5625 4.304687 12.480468 9.671875 25.539062 9.671875 13.0625 0 19.992188-5.359375 25.550781-9.671875 4.742188-3.671875 8.175781-6.328125 15.769531-6.328125 7.582032 0 11.007813 2.65625 15.75 6.328125 5.558594 4.3125 12.480469 9.671875 25.535157 9.671875 13.066406 0 19.992187-5.359375 25.554687-9.671875 4.742188-3.671875 8.175782-6.328125 15.765625-6.328125 7.59375 0 11.023438 2.65625 15.769531 6.328125 5.566407 4.3125 12.496094 9.671875 25.558594 9.671875 13.066406 0 19.992188-5.359375 25.5625-9.671875 4.742188-3.671875 8.175782-6.328125 15.773438-6.328125 7.59375 0 11.023437 2.65625 15.769531 6.328125 5.566406 4.3125 12.496094 9.671875 25.558594 9.671875 13.066406 0 20-5.359375 25.570312-9.671875 4.742188-3.671875 8.175781-6.328125 15.773438-6.328125 7.59375 0 11.023437 2.65625 15.769531 6.328125 5.566406 4.3125 12.496094 9.671875 25.558594 9.671875 13.066406 0 20-5.359375 25.570312-9.671875 4.742188-3.671875 8.175782-6.328125 15.78125-6.328125 7.617188 0 11.050782 2.65625 15.808594 6.328125 5.570312 4.3125 12.503906 9.671875 25.585938 9.671875 13.078124 0 20.007812-5.359375 25.574218-9.671875 4.761719-3.671875 8.191406-6.328125 15.808594-6.328125v-16c-13.078125 0-20.015625 5.359375-25.585938 9.671875-4.757812 3.671875-8.191406 6.328125-15.796874 6.328125zm0 0"/><path d="m16 416c7.792969 0 11.289062 2.664062 16.136719 6.359375 5.632812 4.296875 12.648437 9.640625 25.839843 9.640625 13.199219 0 20.207032-5.34375 25.847657-9.640625 4.847656-3.695313 8.34375-6.359375 16.144531-6.359375 7.808594 0 11.3125 2.664062 16.167969 6.359375 5.632812 4.296875 12.648437 9.640625 25.847656 9.640625s20.214844-5.34375 25.847656-9.640625c4.855469-3.695313 8.359375-6.359375 16.167969-6.359375v-16c-13.199219 0-20.214844 5.34375-25.847656 9.640625-4.855469 3.695313-8.359375 6.359375-16.167969 6.359375s-11.3125-2.664062-16.167969-6.359375c-5.632812-4.296875-12.648437-9.640625-25.847656-9.640625-13.191406 0-20.207031 5.34375-25.839844 9.640625-4.847656 3.695313-8.351562 6.359375-16.152344 6.359375-7.800781 0-11.296874-2.664062-16.144531-6.359375-5.632812-4.296875-12.640625-9.640625-25.832031-9.640625zm0 0"/><path d="m145.542969 298.6875c-16 10.664062-25.542969 28.503906-25.542969 47.738281 0 16.300781 13.265625 29.574219 29.574219 29.574219 14.578125 0 26.425781-11.847656 26.425781-26.425781 0-5.230469-1.527344-10.300781-4.441406-14.652344l-1.375-1.570313c-6.472656-5.695312-10.183594-13.917968-10.183594-22.542968v-21.753906zm4.03125 61.3125c-7.476563 0-13.574219-6.089844-13.574219-13.574219 0-9.539062 3.257812-18.609375 9.046875-25.839843 1.984375 9.125 6.714844 17.503906 13.648437 23.941406.855469 1.542968 1.304688 3.273437 1.304688 5.046875 0 5.753906-4.671875 10.425781-10.425781 10.425781zm0 0"/><path d="m357.351562 106.191406 1.570313 1.367188c4.351563 2.90625 9.421875 4.441406 14.652344 4.441406 14.578125 0 26.425781-11.847656 26.425781-26.425781 0-16.300781-13.265625-29.574219-29.574219-29.574219-19.226562 0-37.074219 9.550781-47.738281 25.542969l-9.632812 14.457031h21.753906c8.632812 0 16.847656 3.710938 22.542968 10.191406zm13.074219-34.191406c7.476563 0 13.574219 6.089844 13.574219 13.574219 0 5.753906-4.671875 10.425781-10.425781 10.425781-1.78125 0-3.503907-.449219-5.046875-1.304688-6.449219-6.933593-14.832032-11.664062-23.941406-13.648437 7.238281-5.78125 16.292968-9.046875 25.839843-9.046875zm0 0"/><path d="m73.078125 267.558594 1.570313-1.367188c5.695312-6.480468 13.910156-10.191406 22.542968-10.191406h21.753906l-9.632812-14.457031c-10.664062-16-28.503906-25.542969-47.738281-25.542969-16.308594 0-29.574219 13.273438-29.574219 29.574219 0 14.578125 11.847656 26.425781 26.425781 26.425781 5.230469 0 10.300781-1.535156 14.652344-4.441406zm-25.078125-21.984375c0-7.484375 6.097656-13.574219 13.574219-13.574219 9.539062 0 18.601562 3.265625 25.832031 9.046875-9.117188 1.984375-17.503906 6.714844-23.941406 13.648437-1.535156.855469-3.265625 1.304688-5.039063 1.304688-5.753906 0-10.425781-4.671875-10.425781-10.425781zm0 0"/></svg>