<svg height="496pt" viewBox="0 -44 496 495" width="496pt" xmlns="http://www.w3.org/2000/svg"><path d="m337.046875 101.429688c-5.863281-7.320313-9.046875-16.425782-9.046875-25.792969 0-15.640625 8.832031-29.929688 22.816406-36.929688l10.863282-5.429687c8.785156-4.386719 14.320312-13.351563 14.320312-23.160156l-152.574219 28.253906c-40.234375 7.449218-75.128906 32.226562-95.425781 67.746094v32h232zm0 0" fill="#ff826e"/><path d="m248 34.117188c-20.894531 10.453124-38.382812 26.640624-50.40625 46.679687l-5.59375 9.320313h64l1.246094-3.753907c8.480468-25.4375 24.824218-47.429687 46.539062-62.878906zm0 0" fill="#ffc729"/><path d="m354.089844 262.554688-4.449219 3.335937c-13.625 10.210937-21.640625 26.25-21.640625 43.273437 0 18.089844 9.039062 34.976563 24.089844 45.015626l3.941406 2.625c12.472656 8.3125 19.96875 22.320312 19.96875 37.3125l-55.152344-30.089844c-21.550781-11.742188-45.710937-17.910156-70.261718-17.910156-42.3125 0-82.570313-18.265626-110.433594-50.113282l-12.152344-13.886718v-56h224zm0 0" fill="#ff826e"/><path d="m349.640625 265.890625 4.449219-3.335937-1.035156-18.015626c-40.398438 24.535157-86.335938 37.578126-133.878907 37.578126h-.945312c-31.054688 0-61.574219-5.625-90.230469-16.160157v16.160157l12.152344 13.886718c3.046875 3.488282 6.304687 6.734375 9.632812 9.878906 22.269532 5.359376 45.214844 8.234376 68.445313 8.234376h.945312c38.777344 0 76.585938-7.800782 111.808594-22.527344 3.488281-10.121094 9.878906-19.128906 18.65625-25.699219zm0 0" fill="#fc6e51"/><path d="m488 194.117188c0-31.074219-10.574219-61.21875-29.984375-85.480469l-4.726563-5.90625c-3.34375-4.183594-8.410156-6.605469-13.753906-6.605469-5.949218 0-11.503906 3.007812-14.75 7.992188l-17.832031 27.34375c-4.335937 6.65625-11.746094 10.664062-19.679687 10.664062-4.746094 0-9.371094-1.433594-13.273438-4.113281-45.601562-31.199219-99.558594-47.894531-154.824219-47.894531h-.945312c-77.886719 0-152.199219 32.6875-204.824219 90.101562-3.476562 3.792969-5.40625 8.746094-5.40625 13.898438 0 5.152343 1.929688 10.101562 5.40625 13.894531 52.625 57.417969 126.9375 90.105469 204.824219 90.105469h.945312c55.257813 0 109.214844-16.695313 154.824219-47.890626 3.902344-2.679687 8.527344-4.109374 13.273438-4.109374 7.933593 0 15.34375 4.007812 19.679687 10.664062l17.832031 27.34375c3.246094 4.984375 8.800782 7.992188 14.75 7.992188 5.34375 0 10.410156-2.433594 13.753906-6.609376l4.726563-5.902343c19.410156-24.273438 29.984375-54.417969 29.984375-85.488281zm0 0" fill="#ffeaa7"/><path d="m192 194.117188c26.390625-10.554688 50.367188-26.371094 70.464844-46.464844l1.535156-1.535156 5.183594 5.183593c6.929687 6.925781 10.816406 16.320313 10.816406 26.101563 0 5.730468-1.335938 11.386718-3.894531 16.496094l-4.105469 8.21875c5.128906 5.125 8 12.070312 8 19.3125v1.375c0 7.238281-2.871094 14.191406-8 19.3125h-88zm0 0" fill="#ff826e"/><path d="m424 114.117188s-1.441406-1.625-3.449219-3.519532l-13.597656 20.855469c-4.335937 6.65625-11.746094 10.664063-19.679687 10.664063-4.351563 0-8.578126-1.257813-12.273438-3.527344 1.0625 2.054687 2.097656 4.511718 2.984375 7.476562l.191406.777344c3.871094 15.449219 5.824219 31.335938 5.824219 47.273438 0 15.933593-1.953125 31.824218-5.824219 47.277343l-1.871093 7.496094c3.375-1.789063 7.128906-2.773437 10.96875-2.773437 7.933593 0 15.34375 4.007812 19.679687 10.664062l13.75 21.078125c2.105469-2.246094 3.296875-3.742187 3.296875-3.742187s32-32 32-80-32-80-32-80zm0 0" fill="#ff826e"/><path d="m464.265625 103.628906-4.730469-5.90625c-4.886718-6.109375-12.175781-9.605468-20-9.605468-8.6875 0-16.703125 4.34375-21.457031 11.621093l-17.832031 27.347657c-4.574219 7.039062-14.796875 9.0625-21.734375 4.316406-4.769531-3.261719-9.671875-6.253906-14.601563-9.207032l-20.621094-25.765624c-4.703124-5.875-7.289062-13.257813-7.289062-20.800782 0-12.6875 7.054688-24.097656 18.398438-29.777344l10.867187-5.429687c11.558594-5.769531 18.734375-17.386719 18.734375-30.304687v-9.617188l-162.03125 30.007812c-41.175781 7.625-76.761719 32.351563-98.527344 67.945313-43.914062 15.460937-83.945312 41.453125-115.9375 76.359375-4.839844 5.289062-7.503906 12.136719-7.503906 19.304688 0 7.167968 2.664062 14.015624 7.503906 19.304687 32.214844 35.140625 72.574219 61.253906 116.847656 76.679687l9.777344 11.167969c29.382813 33.589844 71.832032 52.847657 116.457032 52.847657 23.132812 0 46.109374 5.855468 66.4375 16.933593l66.976562 36.546875v-13.480468c0-17.722657-8.800781-34.160157-23.535156-43.976563l-3.9375-2.617187c-12.855469-8.574219-20.527344-22.910157-20.527344-38.359376 0-14.441406 6.886719-28.214843 18.449219-36.871093l4.03125-3.023438c6.816406-3.875 13.519531-7.976562 20.039062-12.441406 6.90625-4.726563 17.144531-2.710937 21.726563 4.328125l17.832031 27.34375c4.753906 7.28125 12.769531 11.625 21.457031 11.625 7.824219 0 15.113282-3.503906 20-9.609375l4.730469-5.902344c20.460937-25.609375 31.734375-57.738281 31.734375-90.496093 0-32.761719-11.273438-64.890626-31.734375-90.488282zm-76.992187 46.488282c10.6875 0 20.550781-5.34375 26.382812-14.296876l8.007812-12.28125c2.960938 3.5625 7.480469 9.5625 11.976563 17.625l-.671875.671876c-11.816406 11.816406-27.152344 18.777343-43.640625 20.023437-.632813-3.945313-1.390625-7.855469-2.257813-11.75.066407-.007813.136719.007813.203126.007813zm53.453124 81.742187c-13.839843-12.390625-31.023437-19.847656-49.46875-21.390625.222657-2.785156.382813-5.5625.496094-8.351562h55.917969c-.894531 11.03125-3.566406 21.023437-6.945313 29.742187zm-48.972656-45.742187c-.113281-2.792969-.273437-5.578126-.496094-8.351563 18.460938-1.546875 35.664063-9.019531 49.503907-21.425781 3.359375 8.710937 6.023437 18.710937 6.910156 29.777344zm-33.640625-160-10.867187 5.429687c-16.804688 8.410156-27.246094 25.304687-27.246094 44.082031 0 10.511719 3.511719 20.757813 9.726562 29.199219-20.46875-8.742187-41.855468-15.046875-63.839843-18.71875 8.007812-22.175781 22.175781-41.144531 41.234375-55.105469l57.703125-10.6875c-1.671875 2.414063-3.960938 4.421875-6.710938 5.800782zm-106.601562 15.191406 25.726562-4.769532c-12.269531 13.601563-21.671875 29.570313-27.574219 47.296876l-.03125.105468c-10.082031-1.082031-20.21875-1.824218-30.457031-1.824218h-.945312c-4.070313 0-8.117188.144531-12.175781.320312 11.175781-17.570312 26.800781-31.785156 45.457031-41.128906zm-38.664063 7.847656c-8.527344 8.097656-15.992187 17.320312-22.121094 27.527344l-4.367187 7.28125c-12.785156 1.4375-25.40625 3.765625-37.800781 6.894531 16.777344-19.960937 39.050781-34.527344 64.289062-41.703125zm-193.542968 153.457031c-2.136719-2.328125-3.304688-5.34375-3.304688-8.496093 0-3.152344 1.167969-6.167969 3.304688-8.496094 50.96875-55.609375 123.480468-87.503906 198.925781-87.503906h.945312c53.824219 0 105.753907 16.054687 150.183594 46.40625l1.066406 4.25c3.703125 14.816406 5.574219 30.0625 5.574219 45.34375 0 15.277343-1.871094 30.527343-5.574219 45.34375l-1.066406 4.238281c-44.429687 30.359375-96.359375 46.417969-150.183594 46.417969h-.945312c-19.230469 0-38.269531-2.097657-56.816407-6.105469l7.953126-7.953125c7.738281-7.734375 14.058593-16.496094 18.953124-25.933594h86.984376l2.34375-2.34375c6.679687-6.679688 10.351562-15.546875 10.351562-24.976562v-1.375c0-7.425782-2.273438-14.496094-6.496094-20.433594l1.761719-3.503906c3.09375-6.207032 4.734375-13.152344 4.734375-20.089844 0-12-4.671875-23.269532-13.160156-31.757813l-10.839844-10.839843-7.191406 7.191406c-17.167969 17.167968-37.089844 30.671875-59.046875 40.679687-4.601563-20.136719-16.1875-38.382812-32.953125-50.960937l-9.609375 12.800781c18.03125 13.527344 28.800781 35.0625 28.800781 57.601563 0 23.65625-9.207031 45.894531-25.9375 62.621093l-14.65625 14.65625c-3.535156-1.023437-7.054688-2.085937-10.542969-3.253906 22.152344-18.066406 35.136719-44.96875 35.136719-74.023437h-16c0 27.3125-13.734375 52.40625-36.742188 67.117187l-.289062.1875c-36.03125-14.9375-68.847656-37.554687-95.664062-66.808594zm180.695312-.496093c0-.9375-.136719-1.855469-.167969-2.785157 23.769531-10.175781 45.351563-24.152343 64.113281-41.953125 5.199219 5.410156 8.054688 12.503906 8.054688 20.023438 0 4.464844-1.054688 8.929687-3.054688 12.921875l-6.679687 13.367187 4.078125 4.082032c3.648438 3.648437 5.65625 8.503906 5.65625 13.65625v1.375c0 4.121093-1.28125 8.039062-3.65625 11.3125h-73.375c3.269531-10.21875 5.03125-20.96875 5.03125-32zm147.65625 158.726562 3.9375 2.617188c5.8125 3.871093 10.292969 9.222656 13.101562 15.375l-40.015624-21.832032c-22.671876-12.359375-48.289063-18.886718-74.09375-18.886718-36.3125 0-70.914063-14.335938-96.707032-39.464844 20.960938 4.855468 42.527344 7.464844 64.351563 7.464844h.945312c36.558594 0 72.265625-7.066407 105.625-20.5625-3.066406 7.425781-4.800781 15.417968-4.800781 23.609374 0 20.800782 10.335938 40.121094 27.65625 51.679688zm66-108.433594c-5.832031-8.949218-15.695312-14.292968-26.382812-14.292968-.074219 0-.136719.015624-.203126.015624.867188-3.898437 1.617188-7.816406 2.257813-11.753906 16.488281 1.25 31.832031 8.210938 43.640625 20.023438l.640625.640625c-4.496094 8.058593-9 14.066406-11.953125 17.640625zm38.113281 22.195313-4.730469 5.902343c-3.855468 4.839844-12.160156 4.441407-15.542968-.75l-.742188-1.136718c5.804688-6.234375 33.246094-38.144532 33.246094-84.503906 0-46.359376-27.441406-78.273438-33.246094-84.503907l.742188-1.136719c3.390625-5.183593 11.6875-5.59375 15.542968-.753906l4.730469 5.90625c18.207031 22.757813 28.230469 51.34375 28.230469 80.488282 0 29.144531-10.023438 57.726562-28.230469 80.488281zm0 0"/><path d="m96 162.117188h16v16h-16zm0 0"/></svg>