<svg height="496pt" viewBox="-80 0 496 496" width="496pt" xmlns="http://www.w3.org/2000/svg"><path d="m64 192v-48l1.0625-46.945312c7.25-50.359376 50.578125-89.054688 102.9375-89.054688 52.351562 0 95.671875 38.679688 102.929688 89.023438l1.070312 46.976562v48zm0 0" fill="#d3a06c"/><path d="m96 160c-17.671875 0-32 14.328125-32 32s14.328125 32 32 32h144c17.671875 0 32-14.328125 32-32s-14.328125-32-32-32zm0 0" fill="#f0d0b4"/><path d="m296.144531 324.625-18.3125-6.535156s-51.824219-14.753906-69.832031-63.417969h-80c-18.007812 48.664063-69.832031 63.417969-69.832031 63.417969l-18.3125 6.535156c-19.101563 6.824219-31.855469 24.910156-31.855469 45.207031v118.167969h320v-118.167969c0-20.296875-12.753906-38.382812-31.855469-45.207031zm0 0" fill="#f0d0b4"/><path d="m128 254.671875c-3.3125 8.953125-7.785156 16.742187-12.847656 23.519531 14.726562 11.128906 33.007812 17.808594 52.847656 17.808594s38.121094-6.679688 52.847656-17.808594c-5.070312-6.785156-9.535156-14.566406-12.847656-23.519531zm0 0" fill="#ecc19c"/><path d="m280 328c0-8.441406-4.367188-15.824219-10.945312-20.105469 4.441406-6.46875 5.648437-14.964843 2.425781-22.757812-3.222657-7.792969-10.097657-12.945313-17.816407-14.382813 1.625-7.683594-.503906-15.992187-6.472656-21.953125-5.960937-5.960937-14.269531-8.097656-21.953125-6.472656-1.4375-7.71875-6.589843-14.585937-14.382812-17.816406-7.792969-3.222657-16.289063-2.015625-22.757813 2.425781-4.273437-6.570312-11.65625-10.9375-20.097656-10.9375s-15.824219 4.367188-20.105469 10.945312c-6.46875-4.441406-14.964843-5.648437-22.757812-2.425781-7.792969 3.222657-12.945313 10.097657-14.382813 17.816407-7.683594-1.625-15.992187.503906-21.953125 6.472656-5.960937 5.960937-8.097656 14.269531-6.472656 21.953125-7.71875 1.4375-14.585937 6.589843-17.816406 14.382812-3.222657 7.792969-2.015625 16.289063 2.425781 22.757813-6.570312 4.273437-10.9375 11.65625-10.9375 20.097656s4.367188 15.824219 10.945312 20.105469c-4.441406 6.46875-5.648437 14.964843-2.425781 22.757812 3.222657 7.792969 10.097657 12.945313 17.816407 14.382813-1.625 7.683594.503906 15.992187 6.472656 21.953125 5.960937 5.960937 14.269531 8.097656 21.953125 6.472656 1.4375 7.71875 6.589843 14.585937 14.382812 17.816406 7.792969 3.222657 16.289063 2.015625 22.757813-2.425781 4.273437 6.570312 11.65625 10.9375 20.097656 10.9375s15.824219-4.367188 20.105469-10.945312c6.46875 4.441406 14.964843 5.648437 22.757812 2.425781 7.792969-3.222657 12.945313-10.097657 14.382813-17.816407 7.683594 1.625 15.992187-.503906 21.953125-6.472656 5.960937-5.960937 8.097656-14.269531 6.472656-21.953125 7.71875-1.4375 14.585937-6.589843 17.816406-14.382812 3.222657-7.792969 2.015625-16.289063-2.425781-22.757813 6.570312-4.273437 10.9375-11.65625 10.9375-20.097656zm-52.871094 24.496094c-1.929687 4.65625-2.265625 9.566406-1.289062 14.160156-4.609375.847656-9.015625 3.039062-12.574219 6.609375-3.570313 3.558594-5.761719 7.964844-6.609375 12.574219-4.585938-.976563-9.503906-.640625-14.160156 1.289062-4.65625 1.925782-8.367188 5.167969-10.921875 9.101563-3.863281-2.664063-8.535157-4.230469-13.574219-4.230469s-9.710938 1.566406-13.566406 4.222656c-2.554688-3.933594-6.265625-7.167968-10.921875-9.101562-4.65625-1.929688-9.566407-2.265625-14.160157-1.289063-.847656-4.609375-3.039062-9.015625-6.609374-12.574219-3.558594-3.570312-7.964844-5.761718-12.574219-6.609374.976562-4.585938.640625-9.503907-1.289063-14.160157-1.925781-4.65625-5.167968-8.367187-9.101562-10.921875 2.65625-3.855468 4.222656-8.527344 4.222656-13.566406s-1.566406-9.710938-4.222656-13.566406c3.933594-2.554688 7.167968-6.265625 9.101562-10.921875 1.929688-4.65625 2.265625-9.566407 1.289063-14.160157 4.609375-.847656 9.015625-3.039062 12.574219-6.609374 3.570312-3.558594 5.761718-7.964844 6.609374-12.574219 4.585938.976562 9.503907.640625 14.160157-1.289063 4.65625-1.925781 8.367187-5.167968 10.921875-9.101562 3.855468 2.65625 8.527344 4.222656 13.566406 4.222656s9.710938-1.566406 13.566406-4.222656c2.554688 3.933594 6.265625 7.167968 10.921875 9.101562 4.65625 1.929688 9.566407 2.265625 14.160157 1.289063.847656 4.609375 3.039062 9.015625 6.609374 12.574219 3.558594 3.570312 7.964844 5.761718 12.574219 6.609374-.976562 4.585938-.640625 9.503907 1.289063 14.160157 1.925781 4.65625 5.167968 8.367187 9.101562 10.921875-2.65625 3.855468-4.222656 8.527344-4.222656 13.566406s1.566406 9.710938 4.222656 13.566406c-3.933594 2.5625-7.167968 6.265625-9.09375 10.929688zm0 0" fill="#fcd770"/><path d="m225.238281 242.335938c-1.4375-7.71875-6.589843-14.582032-14.382812-17.816407-7.792969-3.222656-16.289063-2.015625-22.757813 2.425781-4.273437-6.578124-11.65625-10.945312-20.097656-10.945312s-15.824219 4.367188-20.105469 10.945312c-6.46875-4.441406-14.964843-5.648437-22.757812-2.425781-7.792969 3.222657-12.945313 10.097657-14.382813 17.816407-7.304687-1.542969-15.128906.425781-21.011718 5.742187 7.441406 14.464844 18.769531 26.5625 32.59375 35.011719.128906-.128906.273437-.21875.398437-.347656 3.570313-3.558594 5.761719-7.964844 6.609375-12.574219 4.585938.976562 9.503906.640625 14.160156-1.289063 4.65625-1.925781 8.367188-5.167968 10.921875-9.101562 3.863281 2.65625 8.535157 4.222656 13.574219 4.222656s9.710938-1.566406 13.566406-4.222656c2.554688 3.933594 6.265625 7.167968 10.921875 9.101562 4.65625 1.929688 9.566407 2.265625 14.160157 1.289063.847656 4.609375 3.039062 9.015625 6.609374 12.574219.125.128906.269532.21875.398438.347656 13.832031-8.449219 25.160156-20.546875 32.589844-35.011719-5.878906-5.316406-13.703125-7.285156-21.007813-5.742187zm0 0" fill="#ffc729"/><path d="m240 127.984375v80.015625c0 39.769531-32.230469 72-72 72s-72-32.230469-72-72v-80.015625zm0 0" fill="#f0d0b4"/><path d="m264 96c-6.167969 0-11.753906 2.398438-16 6.222656-4.246094-3.824218-9.832031-6.222656-16-6.222656s-11.753906 2.398438-16 6.222656c-4.246094-3.824218-9.832031-6.222656-16-6.222656s-11.753906 2.398438-16 6.222656c-4.246094-3.824218-9.832031-6.222656-16-6.222656s-11.753906 2.398438-16 6.222656c-4.246094-3.824218-9.832031-6.222656-16-6.222656s-11.753906 2.398438-16 6.222656c-4.246094-3.824218-9.832031-6.222656-16-6.222656s-11.753906 2.398438-16 6.222656c-4.246094-3.824218-9.832031-6.222656-16-6.222656-13.257812 0-24 10.742188-24 24s10.742188 24 24 24c6.167969 0 11.753906-2.398438 16-6.222656 4.246094 3.824218 9.832031 6.222656 16 6.222656s11.753906-2.398438 16-6.222656c4.246094 3.824218 9.832031 6.222656 16 6.222656s11.753906-2.398438 16-6.222656c4.246094 3.824218 9.832031 6.222656 16 6.222656s11.753906-2.398438 16-6.222656c4.246094 3.824218 9.832031 6.222656 16 6.222656s11.753906-2.398438 16-6.222656c4.246094 3.824218 9.832031 6.222656 16 6.222656s11.753906-2.398438 16-6.222656c4.246094 3.824218 9.832031 6.222656 16 6.222656 13.257812 0 24-10.742188 24-24s-10.742188-24-24-24zm0 0" fill="#ff826e"/><path d="m280 488h-16v-72zm0 0" fill="#ecc19c"/><path d="m72 488h-16l16-72zm0 0" fill="#ecc19c"/><path d="m264 96c-6.167969 0-11.753906 2.398438-16 6.222656-4.246094-3.824218-9.832031-6.222656-16-6.222656s-11.753906 2.398438-16 6.222656c-4.246094-3.824218-9.832031-6.222656-16-6.222656s-11.753906 2.398438-16 6.222656c-4.246094-3.824218-9.832031-6.222656-16-6.222656s-11.753906 2.398438-16 6.222656c-4.246094-3.824218-9.832031-6.222656-16-6.222656s-11.753906 2.398438-16 6.222656c-4.246094-3.824218-9.832031-6.222656-16-6.222656s-11.753906 2.398438-16 6.222656c-4.246094-3.824218-9.832031-6.222656-16-6.222656-13.257812 0-24 10.742188-24 24s10.742188 24 24 24c6.167969 0 11.753906-2.398438 16-6.222656 4.246094 3.824218 9.832031 6.222656 16 6.222656s11.753906-2.398438 16-6.222656c4.246094 3.824218 9.832031 6.222656 16 6.222656s11.753906-2.398438 16-6.222656c4.246094 3.824218 9.832031 6.222656 16 6.222656s11.753906-2.398438 16-6.222656c4.246094 3.824218 9.832031 6.222656 16 6.222656s11.753906-2.398438 16-6.222656c4.246094 3.824218 9.832031 6.222656 16 6.222656s11.753906-2.398438 16-6.222656c4.246094 3.824218 9.832031 6.222656 16 6.222656 13.257812 0 24-10.742188 24-24s-10.742188-24-24-24zm0 0" fill="#a0d468"/><path d="m64 112h16v16h-16zm0 0"/><path d="m96 112h16v16h-16zm0 0"/><path d="m128 112h16v16h-16zm0 0"/><path d="m160 112h16v16h-16zm0 0"/><path d="m192 112h16v16h-16zm0 0"/><path d="m224 112h16v16h-16zm0 0"/><path d="m256 112h16v16h-16zm0 0"/><path d="m216 168c0 4.417969-3.582031 8-8 8s-8-3.582031-8-8 3.582031-8 8-8 8 3.582031 8 8zm0 0"/><path d="m136 168c0 4.417969-3.582031 8-8 8s-8-3.582031-8-8 3.582031-8 8-8 8 3.582031 8 8zm0 0"/><path d="m168 232c-8.824219 0-16-7.175781-16-16h-16c0 17.648438 14.351562 32 32 32s32-14.351562 32-32h-16c0 8.824219-7.175781 16-16 16zm0 0"/><path d="m298.832031 317.097656-15.480469-5.53125c-1.214843-2.023437-2.589843-3.941406-4.246093-5.671875 2.972656-7.597656 2.949219-16.101562-.242188-23.824219-3.191406-7.710937-9.191406-13.742187-16.671875-17.015624-.167968-8.167969-3.4375-16.015626-9.335937-21.910157-2.945313-2.953125-6.40625-5.160156-10.160157-6.746093.617188-1.605469 1.25-3.199219 1.761719-4.855469 19.933594-2.238281 35.542969-19.015625 35.542969-39.542969v-44.449219c9.519531-5.550781 16-15.757812 16-27.550781 0-12.617188-7.390625-23.441406-18.023438-28.648438-9.800781-52.375-56.214843-91.351562-109.976562-91.351562s-100.175781 38.976562-109.984375 91.351562c-10.625 5.207032-18.015625 16.03125-18.015625 28.648438 0 11.792969 6.480469 22 16 27.550781v44.449219c0 20.527344 15.609375 37.304688 35.542969 39.550781.503906 1.640625 1.136719 3.226563 1.746093 4.816407-3.753906 1.585937-7.210937 3.847656-10.144531 6.777343-5.90625 5.894531-9.175781 13.75-9.335937 21.910157-7.488282 3.273437-13.488282 9.304687-16.671875 17.015624-3.191407 7.722657-3.214844 16.21875-.242188 23.824219-1.65625 1.722657-3.023437 3.648438-4.246093 5.671875l-15.472657 5.53125c-22.238281 7.925782-37.175781 29.117188-37.175781 52.734375v126.167969h336v-126.167969c0-23.617187-14.9375-44.808593-37.167969-52.734375zm-72.664062 22.46875c-2.71875 2.832032-4.902344 6.167969-6.433594 9.859375-1.527344 3.6875-2.34375 7.582031-2.421875 11.519531-3.601562 1.574219-6.886719 3.824219-9.703125 6.640626-2.832031 2.820312-5.074219 6.109374-6.65625 9.71875-3.9375.078124-7.832031.886718-11.519531 2.421874-3.691406 1.539063-7.019532 3.714844-9.859375 6.441407-7.328125-2.855469-15.8125-2.855469-23.140625 0-2.839844-2.726563-6.167969-4.902344-9.859375-6.441407-3.6875-1.535156-7.582031-2.34375-11.519531-2.421874-1.582032-3.609376-3.824219-6.890626-6.648438-9.703126-2.820312-2.832031-6.109375-5.082031-9.710938-6.65625-.078124-3.9375-.894531-7.832031-2.421874-11.519531-1.53125-3.691406-3.714844-7.027343-6.433594-9.859375 1.425781-3.664062 2.160156-7.574218 2.160156-11.566406s-.734375-7.902344-2.167969-11.566406c2.71875-2.832032 4.902344-6.167969 6.433594-9.859375 1.527344-3.6875 2.34375-7.582031 2.421875-11.519531 3.601562-1.574219 6.886719-3.824219 9.703125-6.640626 2.371094-2.367187 4.3125-5.0625 5.816406-8 10.28125 4.808594 21.703125 7.585938 33.792969 7.585938s23.511719-2.777344 33.792969-7.59375c1.503906 2.929688 3.4375 5.625 5.800781 7.984375 2.820312 2.832031 6.109375 5.082031 9.710938 6.65625.078124 3.9375.894531 7.832031 2.421874 11.519531 1.53125 3.691406 3.714844 7.027344 6.433594 9.859375-1.425781 3.671875-2.160156 7.582031-2.160156 11.574219s.734375 7.902344 2.167969 11.566406zm-58.167969-67.566406c-35.289062 0-64-28.710938-64-64v-56.105469c5.574219 0 11.144531-1.421875 16-4.261719 9.710938 5.6875 22.289062 5.6875 32 0 9.710938 5.6875 22.289062 5.6875 32 0 9.710938 5.6875 22.289062 5.6875 32 0 4.855469 2.839844 10.425781 4.261719 16 4.261719v56.105469c0 35.289062-28.710938 64-64 64zm79.664062-57.367188c.183594-2.191406.335938-4.394531.335938-6.632812v-38.527344c9.289062 3.3125 16 12.113282 16 22.527344 0 10.535156-6.871094 19.414062-16.335938 22.632812zm16.335938-54.425781c-4.671875-3.535156-10.054688-6.183593-16-7.390625v-5.175781c4.855469 2.839844 10.359375 4.359375 16 4.359375zm-96-144.207031c43.984375 0 82.265625 30.414062 92.96875 72.199219-4.570312.449219-8.992188 1.832031-12.96875 4.160156-9.710938-5.6875-22.289062-5.6875-32 0-9.710938-5.6875-22.289062-5.6875-32 0-9.710938-5.6875-22.289062-5.6875-32 0-9.710938-5.6875-22.289062-5.6875-32 0-9.710938-5.6875-22.289062-5.6875-32 0-3.976562-2.328125-8.398438-3.71875-12.96875-4.160156 10.710938-41.785157 48.992188-72.199219 92.96875-72.199219zm-96 88c3.878906 0 7.664062 1.488281 10.648438 4.167969l5.351562 4.824219 5.351562-4.824219c5.96875-5.375 15.320313-5.375 21.289063 0l5.359375 4.824219 5.351562-4.824219c5.96875-5.375 15.320313-5.375 21.289063 0l5.359375 4.824219 5.351562-4.824219c5.96875-5.375 15.320313-5.375 21.289063 0l5.359375 4.824219 5.351562-4.824219c5.96875-5.375 15.320313-5.375 21.289063 0l5.359375 4.824219 5.351562-4.824219c5.96875-5.375 15.320313-5.375 21.289063 0l5.359375 4.824219 5.351562-4.824219c2.984376-2.679688 6.769532-4.167969 10.648438-4.167969 8.824219 0 16 7.175781 16 16s-7.175781 16-16 16c-3.878906 0-7.664062-1.488281-10.648438-4.167969l-5.351562-4.824219-5.351562 4.824219c-5.96875 5.375-15.320313 5.375-21.289063 0l-5.359375-4.824219-5.351562 4.824219c-5.96875 5.375-15.320313 5.375-21.289063 0l-5.359375-4.824219-5.351562 4.824219c-5.96875 5.375-15.320313 5.375-21.289063 0l-5.359375-4.824219-5.351562 4.824219c-5.96875 5.375-15.320313 5.375-21.289063 0l-5.359375-4.824219-5.351562 4.824219c-5.96875 5.375-15.320313 5.375-21.289063 0l-5.359375-4.824219-5.351562 4.824219c-2.984376 2.679688-6.769532 4.167969-10.648438 4.167969-8.824219 0-16-7.175781-16-16s7.175781-16 16-16zm16 43.632812v5.175782c-5.945312 1.214844-11.328125 3.855468-16 7.390625v-8.199219c5.640625 0 11.144531-1.519531 16-4.367188zm-16 44.367188c0-10.414062 6.710938-19.214844 16-22.527344v38.527344c0 2.238281.152344 4.441406.335938 6.632812-9.464844-3.21875-16.335938-12.097656-16.335938-22.632812zm-.6875 122.601562 6.871094-4.472656-4.640625-6.761718c-3.085938-4.503907-3.695313-10.175782-1.632813-15.167969 2.074219-5 6.515625-8.574219 11.890625-9.574219l8.054688-1.503906-1.695313-8.023438c-1.136718-5.34375.480469-10.824218 4.296875-14.640625 1.710938-1.714843 3.789063-2.929687 6.039063-3.714843 5.257812 8.273437 11.984375 15.488281 19.824218 21.335937-.792968 1.84375-1.800781 3.570313-3.242187 5.011719-2.277344 2.277344-5.167969 3.796875-8.367187 4.390625l-8.078126 1.496093 1.710938 8.039063c.671875 3.183594.382812 6.449219-.855469 9.433594-1.242187 2.984375-3.335937 5.503906-6.0625 7.269531l-6.898437 4.480469 4.664062 6.777343c1.832032 2.664063 2.808594 5.792969 2.808594 9.023438s-.976562 6.359375-2.816406 9.03125l-4.664063 6.777344 6.894531 4.480468c2.730469 1.773438 4.832032 4.285157 6.066407 7.269532 1.230469 2.984375 1.527343 6.242187.855469 9.433594l-1.710938 8.039062 8.078125 1.496094c3.191406.59375 6.089844 2.113281 8.375 4.410156 2.289063 2.277344 3.808594 5.167969 4.394531 8.367188l1.496094 8.085937 8.039062-1.710937c3.175782-.695313 6.441407-.390626 9.425782.847656 2.992187 1.234375 5.503906 3.335937 7.269531 6.066406l4.472656 6.894531 6.777344-4.65625c5.351563-3.6875 12.71875-3.6875 18.070313 0l6.777343 4.65625 4.472657-6.894531c1.773437-2.730469 4.285156-4.832031 7.269531-6.066406 2.984375-1.238282 6.242187-1.542969 9.425781-.847656l8.039062 1.710937 1.496094-8.085937c.59375-3.191407 2.113282-6.089844 4.40625-8.382813 2.28125-2.28125 5.167969-3.800781 8.371094-4.394531l8.078125-1.496094-1.710937-8.039062c-.671876-3.183594-.382813-6.449219.855468-9.433594 1.238282-2.984375 3.335938-5.503906 6.0625-7.269532l6.898438-4.480468-4.664063-6.777344c-1.824219-2.671875-2.800781-5.800781-2.800781-9.03125s.976562-6.359375 2.816406-9.03125l4.664063-6.777344-6.894531-4.480468c-2.730469-1.773438-4.832032-4.285157-6.066407-7.269532-1.230469-2.984375-1.527343-6.242187-.855469-9.433594l1.710938-8.039062-8.078125-1.496094c-3.191406-.59375-6.089844-2.113281-8.375-4.410156-1.433594-1.429688-2.441406-3.160156-3.234375-4.992188 7.800781-5.824218 14.503906-13 19.753906-21.222656 2.253906.777344 4.375 1.871094 6.101563 3.601563 3.824219 3.824219 5.433593 9.292969 4.296875 14.640625l-1.695313 8.023437 8.054688 1.503907c5.375 1 9.816406 4.574218 11.890625 9.574218 2.070312 4.992188 1.460937 10.664063-1.632813 15.167969l-4.640625 6.761719 6.871094 4.472656c4.585938 2.992188 7.3125 8 7.3125 13.40625s-2.726562 10.414062-7.3125 13.398438l-6.871094 4.472656 4.640625 6.761718c3.085938 4.503907 3.695313 10.175782 1.632813 15.167969-2.074219 5-6.515625 8.574219-11.890625 9.574219l-8.054688 1.503906 1.695313 8.023438c1.136718 5.34375-.480469 10.824218-4.296875 14.640625-3.824219 3.824219-9.296875 5.449219-14.640625 4.296875l-8.015625-1.695313-1.503907 8.0625c-1 5.367188-4.582031 9.816407-9.582031 11.882813-4.992187 2.078125-10.671875 1.453125-15.167969-1.625l-6.761718-4.640625-4.472656 6.863281c-2.984376 4.578125-7.992188 7.3125-13.398438 7.3125s-10.414062-2.734375-13.398438-7.3125l-4.472656-6.863281-6.761718 4.640625c-4.496094 3.078125-10.175782 3.695312-15.167969 1.625-5-2.074219-8.574219-6.515625-9.582031-11.882813l-1.503907-8.0625-8.015625 1.695313c-5.34375 1.152344-10.816406-.480469-14.640625-4.296875-3.824219-3.824219-5.433593-9.296875-4.296875-14.640625l1.695313-8.023438-8.054688-1.503906c-5.367187-1-9.816406-4.574219-11.890625-9.574219-2.070312-4.992187-1.460937-10.664062 1.632813-15.167969l4.640625-6.761718-6.871094-4.472656c-4.585938-2.984376-7.3125-7.992188-7.3125-13.398438s2.726562-10.414062 7.3125-13.398438zm248.6875 165.398438h-48v-64h-16v64h-176v-64h-16v64h-48v-110.167969c0-16.855469 10.664062-32 26.550781-37.671875l5.65625-2.015625c.503907 7.535157 3.519531 14.582031 8.6875 19.96875-2.972656 7.597657-2.949219 16.101563.242188 23.824219 3.191406 7.71875 9.191406 13.742188 16.671875 17.015625.167968 8.167969 3.4375 16.007813 9.335937 21.910156 5.894531 5.90625 13.742188 9.175781 21.910157 9.335938 3.273437 7.488281 9.304687 13.488281 17.015624 16.679687 7.722657 3.191406 16.226563 3.210938 23.824219.242188 5.890625 5.648437 13.753907 8.878906 22.105469 8.878906s16.214844-3.230469 22.105469-8.886719c7.597656 2.964844 16.101562 2.957031 23.824219-.242187 7.710937-3.191406 13.742187-9.191406 17.015624-16.679688 8.167969-.160156 16.007813-3.429687 21.910157-9.335937 5.90625-5.902344 9.175781-13.75 9.335937-21.910157 7.480469-3.273437 13.480469-9.296874 16.671875-17.015624 3.191407-7.722657 3.214844-16.21875.242188-23.824219 5.167969-5.378907 8.175781-12.425781 8.6875-19.96875l5.65625 2.023437c15.886719 5.671875 26.550781 20.808594 26.550781 37.671875zm0 0"/></svg>