<svg height="496pt" viewBox="-80 0 496 496" width="496pt" xmlns="http://www.w3.org/2000/svg"><path d="m272 308v-196c0-57.441406-46.558594-104-104-104v299.03125zm0 0" fill="#d3a06c"/><path d="m216 231.976562v56.023438l80.144531 28.625c19.101563 6.824219 31.855469 24.910156 31.855469 45.207031v126.167969h-320v-126.167969c0-20.289062 12.753906-38.382812 31.855469-45.199219l24.28125-8.671874 56.109375-19.199219-.246094-56.785157zm0 0" fill="#f0d0b4"/><path d="m71.710938 488c-1.136719-12.183594-5.613282-23.871094-13.007813-33.734375-6.941406-9.257813-10.703125-20.523437-10.703125-32.097656 0-14.191407 5.640625-27.808594 15.671875-37.832031l8.328125-8.335938 47.121094 4.289062c17.144531 3.941407 33.65625 10.574219 48.878906 19.710938 26.167969-15.703125 56.128906-24 86.648438-24h9.351562l8.328125 8.328125c10.03125 10.03125 15.671875 23.640625 15.671875 37.839844 0 11.574219-3.761719 22.839843-10.703125 32.105469-7.394531 9.855468-11.871094 21.542968-13.007813 33.734374h-192.578124zm0 0" fill="#ff826e"/><path d="m216 273.664062v-41.6875h-96l.183594 41.800782c13.785156 8.957031 30.183594 14.222656 47.816406 14.222656 17.710938 0 34.175781-5.304688 48-14.335938zm0 0" fill="#ecc19c"/><path d="m64 120v187.558594c0 18.785156 3.585938 37.402344 10.558594 54.839844 3.59375 8.976562 5.441406 18.5625 5.441406 28.234374 0 6.214844-.769531 12.40625-2.273438 18.4375l-4.871093 19.523438c-.574219 2.261719-.855469 4.582031-.855469 6.910156 0 12.238282 7.832031 23.113282 19.449219 26.984375l28.550781 9.511719-5.089844-20.359375c-1.933594-7.738281-2.910156-15.671875-2.910156-23.640625s.976562-15.902344 2.910156-23.640625c3.378906-13.527344 5.089844-27.40625 5.089844-41.34375v-243.015625zm0 0" fill="#d3a06c"/><path d="m96 136h14.0625c21.730469 0 42.570312-8.632812 57.9375-24 15.367188 15.367188 36.207031 24 57.9375 24h14.0625v64c0 39.769531-32.230469 72-72 72s-72-32.230469-72-72zm0 0" fill="#f0d0b4"/><path d="m240 136h-14.0625c-21.730469 0-42.570312-8.632812-57.9375-24-15.367188 15.367188-36.207031 24-57.9375 24h-46.0625l4.785156-55.257812c13.269532-42.167969 52.671875-72.742188 99.214844-72.742188 57.441406 0 104 46.558594 104 104v23zm0 0" fill="#d3a06c"/><path d="m104 120c0-5.6875-2.984375-10.640625-7.457031-13.488281 1.160156-5.167969-.238281-10.785157-4.261719-14.800781-4.015625-4.023438-9.632812-5.421876-14.800781-4.261719-2.839844-4.464844-7.800781-7.449219-13.480469-7.449219s-10.640625 2.984375-13.488281 7.457031c-5.167969-1.152343-10.785157.238281-14.800781 4.261719-4.023438 4.015625-5.421876 9.632812-4.261719 14.800781-4.464844 2.839844-7.449219 7.792969-7.449219 13.480469 0 5.679688 2.984375 10.640625 7.457031 13.480469-1.160156 5.167969.238281 10.785156 4.261719 14.800781 4.015625 4.023438 9.632812 5.421875 14.800781 4.261719 2.839844 4.472656 7.800781 7.457031 13.480469 7.457031s10.640625-2.984375 13.480469-7.457031c5.167969 1.160156 10.785156-.238281 14.800781-4.261719 4.023438-4.015625 5.421875-9.632812 4.261719-14.800781 4.472656-2.839844 7.457031-7.800781 7.457031-13.480469zm0 0" fill="#fcd770"/><path d="m184 336c0 8.835938-7.164062 16-16 16s-16-7.164062-16-16 7.164062-16 16-16 16 7.164062 16 16zm0 0" fill="#fcd770"/><path d="m216 160c0 4.417969-3.582031 8-8 8s-8-3.582031-8-8 3.582031-8 8-8 8 3.582031 8 8zm0 0"/><path d="m136 160c0 4.417969-3.582031 8-8 8s-8-3.582031-8-8 3.582031-8 8-8 8 3.582031 8 8zm0 0"/><path d="m168 224c-8.824219 0-16-7.175781-16-16h-16c0 17.648438 14.351562 32 32 32s32-14.351562 32-32h-16c0 8.824219-7.175781 16-16 16zm0 0"/><path d="m298.832031 309.097656-18.832031-6.730468v-190.367188c0-61.761719-50.238281-112-112-112-47.03125 0-88.304688 28.863281-104.710938 72.390625-6.007812.167969-11.96875 2.351563-16.25 6.664063-.03125 0-.070312 0-.101562 0-6.289062 0-12.335938 2.464843-16.875 7-4.574219 4.570312-7.039062 10.664062-7.007812 16.984374-4.488282 4.464844-7.054688 10.503907-7.054688 16.960938s2.566406 12.496094 7.054688 16.960938c-.023438 6.320312 2.433593 12.414062 7 16.96875 4.570312 4.574218 10.730468 7.125 16.992187 7.015624 2.539063 2.550782 5.617187 4.390626 8.960937 5.582032v135.839844l-18.832031 6.730468c-22.238281 7.925782-37.175781 29.117188-37.175781 52.734375v134.167969h336v-134.167969c0-23.617187-14.9375-44.808593-37.167969-52.734375zm-41.328125 170.902344h-127.257812l-7.566406-30.304688c-1.785157-7.085937-2.679688-14.382812-2.679688-21.695312s.894531-14.609375 2.671875-21.703125c1.3125-5.25 2.296875-10.570313 3.128906-15.90625 13.335938 3.847656 26.136719 9.304687 38.085938 16.472656l4.113281 2.464844 4.121094-2.472656c24.917968-14.953125 53.464844-22.855469 82.527344-22.855469h6.039062l5.984375 5.984375c8.59375 8.589844 13.328125 20.023437 13.328125 32.183594 0 9.785156-3.230469 19.480469-9.105469 27.304687-6.78125 9.039063-11.246093 19.503906-13.390625 30.527344zm-192.398437-30.535156c-5.875-7.824219-9.105469-17.519532-9.105469-27.296875 0-12.160157 4.734375-23.582031 13.328125-32.175781l2.519531-2.519532c.046875 1.046875.152344 2.101563.152344 3.167969 0 5.542969-.679688 11.09375-2.03125 16.496094l-4.871094 19.503906c-.730468 2.871094-1.097656 5.855469-1.097656 8.863281 0 15.703125 10.007812 29.601563 24.921875 34.566406l29.78125 9.929688h-40.214844c-2.136719-11.023438-6.601562-21.488281-13.382812-30.535156zm15.855469-288.519532c2.367187.023438 4.734374-.449218 7.039062-1.160156v40.214844c0 22.320312 9.207031 42.511719 24 57.03125v105.984375c0 13.257813-1.632812 26.511719-4.847656 39.398437-2.089844 8.355469-3.152344 16.960938-3.152344 25.585938s1.0625 17.230469 3.152344 25.574219l1.550781 6.226562-14.726563-4.90625c-8.359374-2.789062-13.976562-10.582031-13.976562-19.390625 0-1.679687.199219-3.34375.617188-4.960937l4.871093-19.519531c1.671875-6.671876 2.511719-13.527344 2.511719-20.382813 0-10.746094-2.023438-21.242187-6.007812-31.199219-6.632813-16.585937-9.992188-34.035156-9.992188-51.882812v-141.03125c3.34375-1.191406 6.425781-3.03125 8.960938-5.582032zm127.039062 125.878907c-1.367188 4.160156-9.769531 25.175781-40 25.175781-30.222656 0-38.609375-20.921875-40-25.175781v-17.65625c11.785156 6.847656 25.425781 10.832031 40 10.832031s28.214844-3.984375 40-10.824219zm-32 49.175781c0 4.414062-3.59375 8-8 8s-8-3.585938-8-8 3.59375-8 8-8 8 3.585938 8 8zm-8-72c-35.289062 0-64-28.710938-64-64v-56h6.0625c21.449219 0 41.746094-7.457031 57.9375-21.144531 16.191406 13.6875 36.496094 21.144531 57.9375 21.144531h6.0625v56c0 35.289062-28.710938 64-64 64zm88 104h-1.351562c-30.375 0-60.234376 7.847656-86.648438 22.742188-12.726562-7.175782-26.289062-12.621094-40.367188-16.445313.238282-3.753906.367188-7.511719.367188-11.28125v-48.816406c4.976562 4.304687 11.257812 8.046875 18.929688 10.5625-1.808594 3.367187-2.929688 7.160156-2.929688 11.238281 0 13.230469 10.769531 24 24 24s24-10.769531 24-24c0-4.078125-1.121094-7.871094-2.929688-11.238281 16.683594-5.464844 26.648438-16.90625 31.546876-26.609375l35.382812 12.632812zm-88-352c52.9375 0 96 43.0625 96 96v184.648438l-40-14.289063v-25.328125c14.792969-14.527344 24-34.71875 24-57.03125v-88h-16v16h-6.0625c-19.753906 0-38.320312-7.6875-52.28125-21.65625l-5.65625-5.65625-5.65625 5.65625c-13.855469 13.855469-32.230469 21.511719-51.808594 21.632812.90625-2.527343 1.464844-5.199218 1.464844-7.976562 0-6.457031-2.566406-12.496094-7.054688-16.960938.023438-6.320312-2.433593-12.414062-7-16.96875-4.546874-4.550781-10.601562-7.015624-16.882812-7.015624-.03125 0-.070312 0-.101562 0-.730469-.734376-1.570313-1.3125-2.386719-1.925782 14.289062-36.800781 49.433593-61.128906 89.425781-61.128906zm-119.230469 128.742188c-2.699219.609374-5.464843-.183594-7.402343-2.125-1.925782-1.921876-2.710938-4.679688-2.109376-7.386719l1.222657-5.488281-4.738281-3.015626c-2.34375-1.488281-3.742188-4-3.742188-6.726562s1.398438-5.238281 3.753906-6.734375l4.734375-3.019531-1.222656-5.484375c-.609375-2.707031.183594-5.464844 2.117187-7.402344 1.921876-1.917969 4.679688-2.703125 7.386719-2.113281l5.476563 1.226562 3.019531-4.738281c2.980469-4.703125 10.488281-4.703125 13.46875 0l3.019531 4.738281 5.476563-1.226562c2.714843-.582032 5.464843.1875 7.402343 2.128906 1.925782 1.921875 2.710938 4.679688 2.109376 7.386719l-1.222657 5.484375 4.738281 3.019531c2.34375 1.496094 3.742188 4.007813 3.742188 6.734375s-1.398438 5.238281-3.753906 6.734375l-4.734375 3.019531 1.222656 5.484375c.609375 2.707031-.183594 5.464844-2.117187 7.402344-1.921876 1.925781-4.664063 2.71875-7.386719 2.113281l-5.476563-1.226562-3.019531 4.738281c-2.980469 4.703125-10.488281 4.703125-13.46875 0l-3.019531-4.738281zm-32.769531 217.089843c0-16.855469 10.664062-32 26.550781-37.671875l14-5c.9375 12.664063 3.457031 25.085938 7.457031 37.160156v16.367188l-5.984374 5.984375c-11.625 11.617187-18.023438 27.0625-18.023438 43.496094 0 13.214843 4.367188 26.328125 12.304688 36.894531 4.703124 6.273438 8.023437 13.402344 9.902343 20.9375h-46.207031zm304 118.167969h-46.207031c1.878906-7.535156 5.207031-14.664062 9.902343-20.929688 7.9375-10.574218 12.304688-23.6875 12.304688-36.902343 0-16.433594-6.398438-31.871094-18.015625-43.496094l-5.984375-5.984375v-56.191406l21.457031 7.664062c15.878907 5.671875 26.542969 20.808594 26.542969 37.671875zm0 0"/><path d="m56 112h16v16h-16zm0 0"/></svg>