<svg height="496pt" viewBox="0 -3 496 495" width="496pt" xmlns="http://www.w3.org/2000/svg"><path d="m248 74.332031c0 26.507813-21.492188 48-48 48s-48-21.492187-48-48c0-26.507812 21.492188-48 48-48s48 21.492188 48 48zm0 0" fill="#d3a06c"/><path d="m344 74.332031c0 26.507813-21.492188 48-48 48s-48-21.492187-48-48c0-26.507812 21.492188-48 48-48s48 21.492188 48 48zm0 0" fill="#d3a06c"/><path d="m136 138.332031h224v240h-224zm0 0" fill="#ffeaa7"/><path d="m160 418.332031h176v64h-176zm0 0" fill="#ff826e"/><g fill="#fcd770"><path d="m218.625 434.332031 29.3125 48 29.328125-48zm0 0"/><path d="m277.265625 434.332031 29.308594 48 29.328125-48zm0 0"/><path d="m160 434.332031 29.320312 48 29.304688-48zm0 0"/></g><path d="m208 322.332031c0 26.507813-21.492188 48-48 48s-48-21.492187-48-48c0-26.507812 21.492188-48 48-48s48 21.492188 48 48zm0 0" fill="#ecc19c"/><path d="m384 322.332031c0 26.507813-21.492188 48-48 48s-48-21.492187-48-48c0-26.507812 21.492188-48 48-48s48 21.492188 48 48zm0 0" fill="#ecc19c"/><path d="m328 434.332031h-160c-22.097656 0-40-17.902343-40-40 0-22.097656 17.902344-40 40-40h160c22.097656 0 40 17.902344 40 40 0 22.097657-17.902344 40-40 40zm0 0" fill="#d3a06c"/><path d="m136 266.332031 88-33.726562h48l88 33.726562v-32l-88-33.726562h-48l-88 33.726562zm0 0" fill="#ff826e"/><path d="m298.703125 81.890625c-8.269531-28.535156-25.941406-53.871094-50.703125-71.558594-24.847656 17.753907-42.558594 43.222657-50.808594 71.886719v80.113281h98.808594zm0 0" fill="#a0d468"/><path d="m136 146.332031v-104h8l1.910156.480469c36.488282 9.121094 62.089844 41.902344 62.089844 79.519531v24zm0 0" fill="#8cc152"/><path d="m360 146.332031v-104h-8l-1.910156.480469c-36.488282 9.121094-62.089844 41.902344-62.089844 79.519531v24zm0 0" fill="#8cc152"/><path d="m136 154.332031h16c15.648438 0 30.945312 4.632813 43.96875 13.3125l8.0625 5.375c6.199219 4.144531 12.929688 7.359375 19.96875 9.59375h48c7.039062-2.234375 13.761719-5.457031 19.96875-9.59375l8.0625-5.375c13.023438-8.679687 28.320312-13.3125 43.96875-13.3125h16v-32h-16c-15.648438 0-30.945312 4.632813-43.96875 13.3125l-8.0625 5.375c-13.023438 8.679688-28.320312 13.3125-43.96875 13.3125s-30.945312-4.632812-43.96875-13.3125l-8.0625-5.375c-13.023438-8.679687-28.320312-13.3125-43.96875-13.3125h-16zm0 0" fill="#d3a06c"/><path d="m344 122.332031c-15.648438 0-30.945312 4.632813-43.96875 13.3125l-8.0625 5.375c-6.199219 4.136719-12.945312 7.28125-19.96875 9.519531v32.082032c7.039062-2.234375 13.761719-5.457032 19.96875-9.59375l8.0625-5.375c13.023438-8.6875 28.320312-13.320313 43.96875-13.320313h16v-32zm0 0" fill="#cf9e76"/><path d="m204.03125 141.019531-8.0625-5.375c-13.023438-8.679687-28.320312-13.3125-43.96875-13.3125h-16v32h16c15.648438 0 30.945312 4.632813 43.96875 13.3125l8.0625 5.375c6.199219 4.144531 12.929688 7.359375 19.96875 9.59375v-32.082031c-7.023438-2.230469-13.769531-5.375-19.96875-9.511719zm0 0" fill="#cf9e76"/><path d="m283.152344 282.332031h-11.152344v-131.800781c-7.726562 2.457031-15.808594 3.800781-24 3.800781s-16.273438-1.34375-24-3.800781v131.800781h-11.160156c-20.34375 0-36.839844 16.496094-36.839844 36.839844 0 7.273437 2.152344 14.382813 6.183594 20.441406l9.816406 14.71875h112l9.816406-14.71875c4.023438-6.058593 6.183594-13.160156 6.183594-20.441406 0-20.34375-16.496094-36.839844-36.847656-36.839844zm0 0" fill="#dfb28b"/><path d="m192 354.332031c0-13.257812 10.742188-24 24-24s24 10.742188 24 24zm0 0" fill="#b27946"/><path d="m304 354.332031c0-13.257812-10.742188-24-24-24s-24 10.742188-24 24zm0 0" fill="#b27946"/><path d="m160 82.332031h16v16h-16zm0 0"/><path d="m184 186.332031c0 4.417969-3.582031 8-8 8s-8-3.582031-8-8 3.582031-8 8-8 8 3.582031 8 8zm0 0"/><path d="m344 439.53125c18.617188-6.605469 32-24.34375 32-45.199219 0-9.695312-2.910156-18.710937-7.871094-26.265625 14.710938-10.367187 23.871094-27.375 23.871094-45.734375 0-18.984375-9.511719-35.761719-24-45.886719v-242.113281h-16l-3.847656.710938c-3.273438.816406-6.425782 1.863281-9.519532 3.015625-10.59375-12.429688-26.089843-19.726563-42.632812-19.726563-7.566406 0-15.03125 1.574219-21.945312 4.519531-6.480469-7-13.589844-13.441406-21.40625-19.023437l-4.648438-3.328125-4.648438 3.320312c-7.816406 5.582032-14.925781 12.023438-21.414062 19.03125-6.914062-2.945312-14.371094-4.519531-21.9375-4.519531-16.558594 0-32.054688 7.28125-42.640625 19.726563-3.09375-1.152344-6.246094-2.191406-9.519531-3.015625l-1.910156-.480469-17.929688-.230469v242.113281c-14.488281 10.132813-24 26.910157-24 45.886719 0 18.359375 9.160156 35.367188 23.871094 45.734375-4.960938 7.554688-7.871094 16.570313-7.871094 26.265625 0 20.855469 13.382812 38.59375 32 45.199219v34.800781h-120v16h432v-16h-120zm-125.375 10.152344 15.054688 24.648437h-30.105469zm-29.304688 17.296875-15.054687-24.648438h30.101563zm43.558594-24.648438h30.121094l-15.0625 24.648438zm44.394532 7.335938 15.085937 24.664062h-30.160156zm14.261718-7.335938h30.191406l-15.09375 24.679688zm36.464844 20.398438v11.601562h-7.097656zm48-140.398438c0 13.871094-7.296875 26.679688-18.894531 33.921875-8.082031-6.195312-18.152344-9.921875-29.105469-9.921875h-9.054688l1.519532-2.289062c4.925781-7.398438 7.527344-16 7.527344-24.871094 0-12.046875-4.800782-22.976563-12.558594-31.039063 6.175781-3.710937 13.207031-5.800781 20.566406-5.800781 22.054688 0 40 17.945313 40 40zm-160-166.097656v14.417969c-2.585938-1.296875-5.121094-2.6875-7.527344-4.296875l-8.066406-5.375c-14.382812-9.585938-31.125-14.648438-48.40625-14.648438h-8v-16h8c14.113281 0 27.785156 4.144531 39.527344 11.96875l8.066406 5.375c5.191406 3.457031 10.695312 6.304688 16.40625 8.558594zm-64 6.097656c14.113281 0 27.785156 4.144531 39.527344 11.96875l8.058594 5.367188c5.125 3.425781 10.6875 6.089843 16.414062 8.351562v7.082031l-72 27.589844v-60.359375zm-8 77.496094 72-27.59375v14.875l-72 27.589844zm72 4.40625v30.097656h-3.160156c-6.519532 0-12.703125 1.433594-18.296875 3.945313-9.816407-7.730469-21.878907-11.945313-34.542969-11.945313-.640625 0-1.265625.070313-1.902344.097657zm-3.160156 46.097656h19.160156v-129.527343c5.246094.976562 10.59375 1.527343 16 1.527343s10.753906-.550781 16-1.527343v129.527343h19.160156c15.902344 0 28.839844 12.9375 28.839844 28.839844 0 5.703125-1.679688 11.238281-4.839844 16l-.753906 1.128906c-5.773438-8.417969-15.445312-13.96875-26.40625-13.96875-14.871094 0-27.289062 10.238281-30.863281 24h-2.273438c-3.574219-13.761719-15.992187-24-30.863281-24-10.960938 0-20.640625 5.550781-26.40625 13.976563l-.753906-1.128906c-3.167969-4.757813-4.839844-10.296876-4.839844-16 0-15.910157 12.9375-28.847657 28.839844-28.847657zm83.566406-142.65625 8.066406-5.375c11.742188-7.824219 25.414063-11.96875 39.527344-11.96875h8v16h-8c-17.28125 0-34.023438 5.0625-48.40625 14.65625l-8.066406 5.375c-2.40625 1.609375-4.953125 2.992188-7.527344 4.289063v-14.417969c5.710938-2.253906 11.214844-5.101563 16.40625-8.558594zm5.042969 130.601563c-5.59375-2.511719-11.777344-3.945313-18.289063-3.945313h-3.160156v-30.097656l57.902344 22.195313c-.636719-.027344-1.261719-.097657-1.902344-.097657-12.664062 0-24.726562 4.214844-34.550781 11.945313zm-21.449219-51.167969v-14.875l72 27.59375v14.871094zm0-32v-7.082031c5.71875-2.261719 11.273438-4.925782 16.40625-8.351563l8.066406-5.375c11.742188-7.824219 25.414063-11.96875 39.527344-11.96875h8v60.367188zm-64 143.222656c5.894531 0 11 3.238281 13.777344 8h-27.554688c2.777344-4.761719 7.882813-8 13.777344-8zm64 0c5.894531 0 11 3.238281 13.777344 8h-27.554688c2.777344-4.761719 7.882813-8 13.777344-8zm72-287.753906v63.753906h-8c-17.121094 0-33.703125 4.984375-48 14.40625v-6.40625c0-34 23.03125-63.503906 56-71.753906zm-56-16.246094c10.367188 0 20.144531 4.039063 27.503906 11.023438-8.601562 5.183593-16.191406 11.710937-22.527344 19.304687-4.257812-10.167968-9.625-19.808594-16.082031-28.703125 3.59375-1.050781 7.328125-1.625 11.105469-1.625zm-48-14c19.71875 15.535157 34.414062 36.863281 42.023438 60.800781-6.40625 12.429688-10.023438 26.457032-10.023438 41.199219v16.246094c-7.550781 3.753906-15.679688 6.058594-24 6.960937v-95.207031h-16v95.207031c-8.320312-.910156-16.449219-3.214843-24-6.960937v-16.246094c0-14.742187-3.617188-28.769531-10.023438-41.199219 7.617188-23.945312 22.3125-45.273437 42.023438-60.800781zm-48 14c3.785156 0 7.511719.582031 11.113281 1.617188-6.457031 8.894531-11.824219 18.535156-16.082031 28.703125-6.34375-7.59375-13.933594-14.121094-22.535156-19.304688 7.351562-6.984375 17.128906-11.015625 27.503906-11.015625zm0 88v6.40625c-14.296875-9.421875-30.878906-14.40625-48-14.40625h-8v-63.753906c32.976562 8.257813 56 37.761719 56 71.753906zm-80 200c0-22.054687 17.945312-40 40-40 7.359375 0 14.390625 2.089844 20.558594 5.800781-7.757813 8.0625-12.558594 19-12.558594 31.039063 0 8.871094 2.601562 17.472656 7.527344 24.871094l1.527344 2.289062h-9.054688c-10.953125 0-21.023438 3.726563-29.105469 9.921875-11.597656-7.242187-18.894531-20.050781-18.894531-33.921875zm16 72c0-17.648437 14.351562-32 32-32h160c17.648438 0 32 14.351563 32 32 0 17.648438-14.351562 32-32 32h-160c-17.648438 0-32-14.351562-32-32zm32 68.449219 7.054688 11.550781h-7.054688zm0 0"/><path d="m152 386.332031h192v16h-192zm0 0"/><path d="m320 82.332031h16v16h-16zm0 0"/><path d="m328 186.332031c0 4.417969-3.582031 8-8 8s-8-3.582031-8-8 3.582031-8 8-8 8 3.582031 8 8zm0 0"/><path d="m0 474.332031h16v16h-16zm0 0"/><path d="m480 474.332031h16v16h-16zm0 0"/></svg>