<svg height="496pt" viewBox="0 0 496 496" width="496pt" xmlns="http://www.w3.org/2000/svg"><path d="m200 160h96v72h-96zm0 0" fill="#e6e9ed"/><path d="m248 8h64v48h-64zm0 0" fill="#fcd770"/><path d="m136 360h224v128h-224zm0 0" fill="#ccd1d9"/><path d="m200 376h-64v-32h224v32zm0 0" fill="#aab2bd"/><path d="m168 424h160v64h-160zm0 0" fill="#d3a06c"/><path d="m136 248h224v64h-224zm0 0" fill="#ccd1d9"/><g fill="#e6e9ed"><path d="m200 240h96v248h-96zm0 0"/><path d="m56 240h80v248h-80zm0 0"/><path d="m360 240h80v248h-80zm0 0"/></g><path d="m168 424h160v64h-160zm0 0" fill="#ccd1d9"/><path d="m232 376h32v48h-32zm0 0" fill="#69d6f4"/><path d="m232 280h32v32h-32zm0 0" fill="#69d6f4"/><path d="m328 440h112v48h-112zm0 0" fill="#fcd770"/><path d="m56 440h112v48h-112zm0 0" fill="#fcd770"/><path d="m168 312h32v32h-32zm0 0" fill="#838f9b"/><path d="m296 312h32v32h-32zm0 0" fill="#838f9b"/><path d="m328 312h32v32h-32zm0 0" fill="#656d78"/><path d="m136 312h32v32h-32zm0 0" fill="#656d78"/><path d="m296 120 16 48h-128l16-48zm0 0" fill="#969faa"/><path d="m200 88h96v32h-96zm0 0" fill="#838f9b"/><path d="m376 120h48v40h-48zm0 0" fill="#838f9b"/><path d="m72 120h48v40h-48zm0 0" fill="#838f9b"/><path d="m424 152h-48l-16 64v8h80v-8zm0 0" fill="#e6e9ed"/><path d="m120 152h-48l-16 64v8h80v-8zm0 0" fill="#e6e9ed"/><path d="m40 216h416v32h-416zm0 0" fill="#fcd770"/><path d="m168 424h32v64h-32zm0 0" fill="#aab2bd"/><path d="m296 424h32v64h-32zm0 0" fill="#aab2bd"/><path d="m56 248h80v16h-80zm0 0" fill="#ccd1d9"/><path d="m136 248h64v16h-64zm0 0" fill="#aab2bd"/><path d="m200 248h96v16h-96zm0 0" fill="#ccd1d9"/><path d="m296 248h64v16h-64zm0 0" fill="#aab2bd"/><path d="m360 248h80v16h-80zm0 0" fill="#ccd1d9"/><path d="m200 168h96v16h-96zm0 0" fill="#ccd1d9"/><path d="m272 320v-48h-48v48zm-32-32h16v16h-16zm0 0"/><path d="m432 151.007812v-39.007812h-24v-56h-16v56h-24v39.007812l-14.246094 56.992188h-49.753906v-32h19.097656l-19.097656-57.304688v-38.695312h-48v-16h64v-64h-80v80h-48v38.695312l-19.097656 57.304688h19.097656v32h-49.753906l-14.246094-56.992188v-39.007812h-24v-56h-16v56h-24v39.007812l-14.246094 56.992188h-17.753906v48h16v224h-16v16h432v-16h-16v-224h16v-48h-17.753906zm-176-135.007812h48v32h-48zm128 112h32v16h-32zm-1.753906 32h35.507812l12 48h-59.507812zm-187.148438 0 10.671875-32h84.460938l10.671875 32zm12.902344-64h80v16h-80zm0 80h80v32h-16v-16h-16v16h-16v-16h-16v16h-16zm-128-48h32v16h-32zm-1.753906 32h35.507812l12 48h-59.507812zm-14.246094 96h64v176h-64zm272 176v-16h-32v-32h48v48zm-144-96h-16v-16h16zm112-16h16v16h-16zm48 16h-16v-16h16zm0 16v16h-48v-16zm-64 64h-16v-48h-48v48h-16v-64h80zm0 32h-80v-16h80zm-32-32h-16v-32h16zm-64-48h-48v-16h48zm-32-32h-16v-16h16zm-16 48h48v32h-32v16h-16zm32 48h16v48h-16zm32 32h80v16h-80zm96-32h16v48h-16zm48-128h-48v-48h48zm-64 32h-80v-80h80zm-96-32h-48v-48h48zm-128 144h96v32h-24v-16h-16v16h-16v-16h-16v16h-24zm344 32v-16h-16v16h-16v-16h-16v16h-24v-32h96v32zm24-48h-64v-176h64zm16-192h-400v-16h400zm0 0"/><path d="m392 176h16v16h-16zm0 0"/><path d="m88 176h16v16h-16zm0 0"/><path d="m88 280h16v16h-16zm0 0"/><path d="m88 336h16v16h-16zm0 0"/><path d="m88 392h16v16h-16zm0 0"/><path d="m392 280h16v16h-16zm0 0"/><path d="m392 336h16v16h-16zm0 0"/><path d="m392 392h16v16h-16zm0 0"/><path d="m480 480h16v16h-16zm0 0"/><path d="m0 480h16v16h-16zm0 0"/></svg>