<svg height="496pt" viewBox="0 0 496 496" width="496pt" xmlns="http://www.w3.org/2000/svg"><path d="m488 384v-296h-480v400h440c22.097656 0 40-17.902344 40-40zm0 0" fill="#e6e9ed"/><path d="m360 88h16v328h-16zm0 0" fill="#ccd1d9"/><path d="m109.679688 139.230469 56.488281 94.144531c5.40625 9.023438 15.3125 14.625 25.832031 14.625s20.425781-5.601562 25.832031-14.625l56.488281-94.144531c8.945313-14.902344 13.679688-31.992188 13.679688-49.390625v-1.839844h-64c0 17.648438-14.351562 32-32 32s-32-14.351562-32-32h-64v1.847656c0 17.390625 4.734375 34.480469 13.679688 49.382813zm0 0" fill="#ccd1d9"/><path d="m160 192-52.6875-30.113281c-2.167969-1.238281-4.625-1.886719-7.128906-1.886719h-13.832032c-7.917968 0-14.351562 6.433594-14.351562 14.359375v21.289063c0 2.832031.832031 5.609374 2.414062 7.96875l27.171876 40.765624c1.582031 2.359376 2.414062 5.128907 2.414062 7.96875v8.441407c0 6.582031-4.488281 12.335937-10.871094 13.925781l-10.25 2.5625c-6.390625 1.589844-10.878906 7.34375-10.878906 13.925781 0 3.113281 1.007812 6.136719 2.871094 8.617188l18.25 24.34375c1.871094 2.488281 2.878906 5.511719 2.878906 8.625v33.742187c0 5.746094 3.425781 10.9375 8.703125 13.191406l42.015625 18.007813c3.394531 1.457031 6.097656 4.160156 7.546875 7.546875l18.007813 42.015625c2.253906 5.277344 7.453124 8.703125 13.199218 8.703125h21.65625c5.4375 0 10.414063-3.070312 12.839844-7.9375l8.0625-16.125c2.433594-4.867188 7.410156-7.9375 12.839844-7.9375h9.175781c3.808594 0 7.464844 1.511719 10.152344 4.199219l7.59375 7.59375c2.695312 2.695312 6.351562 4.207031 10.152343 4.207031h19.695313c7.925781 0 14.359375-6.433594 14.359375-14.359375v-36.601563c0-3.261718 1.113281-6.429687 3.152344-8.976562l25.703125-32.125c2.03125-2.546875 3.144531-5.714844 3.144531-8.976562v-36.601563c0-7.925781-6.433594-14.359375-14.359375-14.359375h-17.503906c-5.046875 0-9.722657-2.648438-12.3125-6.976562l-18.914063-31.503907c-.597656-1.007812-1.324218-1.933593-2.15625-2.765625l-54.753906-54.753906zm0 0" fill="#a0d468"/><path d="m217.832031 233.375 17.832031-29.710938-11.664062-11.664062h-64l-28.398438-16.222656 34.558594 57.597656c5.414063 9.023438 15.320313 14.625 25.839844 14.625s20.425781-5.601562 25.832031-14.625zm0 0" fill="#8cc152"/><path d="m192 8c-44.175781 0-80 35.816406-80 80v1.847656c0 14.496094 3.9375 28.726563 11.398438 41.152344l56.488281 94.144531c2.554687 4.253907 7.152343 6.855469 12.113281 6.855469s9.558594-2.601562 12.121094-6.855469l56.488281-94.144531c7.453125-12.433594 11.390625-26.65625 11.390625-41.152344v-1.847656c0-44.183594-35.824219-80-80-80zm0 0" fill="#fc6e51"/><path d="m240 88c0 26.507812-21.492188 48-48 48s-48-21.492188-48-48 21.492188-48 48-48 48 21.492188 48 48zm0 0" fill="#fcd770"/><path d="m488 448v-400c0-22.097656-17.902344-40-40-40h-72v400h72c22.097656 0 40 17.902344 40 40zm0 0" fill="#fcd770"/><path d="m448 0h-80v80h-88.40625c-4.058594-44.785156-41.769531-80-87.59375-80s-83.535156 35.214844-87.59375 80h-104.40625v416h448c26.472656 0 48-21.527344 48-48v-400c0-26.472656-21.527344-48-48-48zm-328 88c0-39.695312 32.304688-72 72-72s72 32.304688 72 72v1.839844c0 13.046875-3.542969 25.855468-10.257812 37.039062l-56.484376 94.144532c-2.203124 3.671874-8.3125 3.671874-10.515624 0l-56.484376-94.144532c-6.714843-11.175781-10.257812-23.984375-10.257812-37.039062zm-20.472656 231.375-18.253906-24.351562c-.824219-1.085938-1.273438-2.449219-1.273438-3.816407 0-2.925781 1.976562-5.464843 4.816406-6.167969l10.246094-2.558593c9.96875-2.488281 16.9375-11.410157 16.9375-21.6875v-8.441407c0-4.441406-1.304688-8.734374-3.761719-12.40625l-27.175781-40.777343c-.695312-1.039063-1.0625-2.257813-1.0625-3.519531v-21.289063c0-3.511719 2.847656-6.359375 6.359375-6.359375h13.832031c1.113282 0 2.199219.289062 3.160156.832031l50.871094 29.070313 18.808594 31.355468c3.96875 6.621094 11.242188 10.742188 18.96875 10.742188s15-4.121094 18.976562-10.742188l14.617188-24.355468 47.503906 47.503906c.359375.371094.679688.777344.949219 1.226562l18.914063 31.503907c4.015624 6.695312 11.359374 10.863281 19.175781 10.863281h17.503906c3.511719 0 6.359375 2.847656 6.359375 6.359375v36.601563c0 1.4375-.496094 2.855468-1.390625 3.984374l-25.707031 32.117188c-3.160156 3.945312-4.902344 8.914062-4.902344 13.976562v36.601563c0 3.511719-2.847656 6.359375-6.359375 6.359375h-19.695313c-1.671874 0-3.3125-.679688-4.496093-1.855469l-7.59375-7.59375c-4.160157-4.160156-9.917969-6.542969-15.808594-6.542969h-9.175781c-8.527344 0-16.191406 4.734376-20 12.359376l-8.0625 16.128906c-1.082032 2.160156-3.257813 3.503906-5.679688 3.503906h-21.65625c-2.542968 0-4.839844-1.511719-5.839844-3.855469l-18.007812-42.015625c-2.273438-5.304687-6.449219-9.480468-11.746094-11.746094l-42.023437-18.007812c-2.34375-1.007812-3.855469-3.296875-3.855469-5.847656v-33.742188c0-4.808594-1.59375-9.578125-4.472656-13.410156zm348.472656 160.625h-432v-384h88.414062c.96875 13.792969 4.984376 27.214844 12.121094 39.121094l20.847656 34.742187-26.101562-14.917969c-3.371094-1.929687-7.203125-2.945312-11.097656-2.945312h-13.832032c-12.320312 0-22.351562 10.03125-22.351562 22.359375v21.289063c0 4.441406 1.304688 8.734374 3.761719 12.40625l27.175781 40.777343c.695312 1.039063 1.0625 2.257813 1.0625 3.519531v8.441407c0 2.925781-1.976562 5.464843-4.816406 6.167969l-10.246094 2.558593c-9.96875 2.488281-16.9375 11.410157-16.9375 21.6875 0 4.816407 1.59375 9.578125 4.472656 13.417969l18.253906 24.351562c.824219 1.085938 1.273438 2.449219 1.273438 3.816407v33.742187c0 8.96875 5.320312 17.03125 13.550781 20.542969l42.015625 18.011719c1.511719.644531 2.699219 1.832031 3.34375 3.34375l18 42.007812c3.523438 8.238282 11.585938 13.558594 20.554688 13.558594h21.65625c8.527344 0 16.191406-4.734375 20-12.359375l8.0625-16.128906c1.089844-2.167969 3.265625-3.511719 5.6875-3.511719h9.175781c1.671875 0 3.3125.679688 4.496094 1.855469l7.59375 7.59375c4.160156 4.160156 9.917969 6.542969 15.808593 6.542969h19.695313c12.328125.007812 22.359375-10.023438 22.359375-22.351563v-36.601563c0-1.4375.496094-2.855468 1.390625-3.984374l25.707031-32.117188c3.160156-3.945312 4.902344-8.914062 4.902344-13.976562v-36.601563c0-12.328125-10.03125-22.359375-22.359375-22.359375h-17.503906c-2.214844 0-4.3125-1.183594-5.457031-3.097656l-18.902344-31.496094c-.9375-1.566406-2.074219-3.023438-3.371094-4.316406l-50.335938-50.335938 33.386719-55.648437c7.144531-11.898438 11.152344-25.320313 12.117188-39.121094h88.425781v320h80c17.648438 0 32 14.351563 32 32s-14.351562 32.015625-32 32.015625zm32-67.742188c-8.496094-7.617187-19.71875-12.257812-32-12.257812h-64v-384h64c17.648438 0 32 14.351562 32 32zm0 0"/><path d="m192 144c30.878906 0 56-25.121094 56-56s-25.121094-56-56-56-56 25.121094-56 56 25.121094 56 56 56zm0-96c22.054688 0 40 17.945312 40 40s-17.945312 40-40 40-40-17.945312-40-40 17.945312-40 40-40zm0 0"/><path d="m352 172.167969c-8.710938 0-13.34375 5.480469-16.121094 8.753906-2.503906 2.957031-2.871094 3.078125-3.894531 3.078125s-1.390625-.121094-3.894531-3.078125c-2.769532-3.273437-7.402344-8.753906-16.121094-8.753906-8.710938 0-13.335938 5.480469-16.105469 8.753906-2.496093 2.957031-2.863281 3.078125-3.886719 3.078125-1.007812 0-1.375-.121094-3.871093-3.070312-2.769531-3.28125-7.394531-8.761719-16.105469-8.761719v16c1.015625 0 1.382812.121093 3.878906 3.078125 2.769532 3.273437 7.394532 8.753906 16.097656 8.753906 8.710938 0 13.34375-5.480469 16.113282-8.761719 2.496094-2.957031 2.863281-3.078125 3.878906-3.078125 1.023438 0 1.390625.121094 3.894531 3.078125 2.777344 3.28125 7.410157 8.761719 16.121094 8.761719s13.34375-5.480469 16.121094-8.753906c2.503906-2.957032 2.871093-3.078125 3.894531-3.078125zm0 0"/><path d="m95.878906 444.921875c-2.503906 2.957031-2.871094 3.078125-3.894531 3.078125s-1.390625-.121094-3.894531-3.078125c-2.769532-3.273437-7.402344-8.753906-16.121094-8.753906-8.710938 0-13.335938 5.480469-16.105469 8.753906-2.496093 2.957031-2.863281 3.078125-3.886719 3.078125-1.007812 0-1.375-.121094-3.871093-3.070312-2.769531-3.28125-7.394531-8.761719-16.105469-8.761719v16c1.015625 0 1.382812.121093 3.878906 3.078125 2.769532 3.273437 7.394532 8.753906 16.097656 8.753906 8.710938 0 13.34375-5.480469 16.113282-8.761719 2.496094-2.957031 2.863281-3.078125 3.878906-3.078125 1.023438 0 1.390625.121094 3.894531 3.078125 2.777344 3.28125 7.410157 8.761719 16.121094 8.761719s13.34375-5.480469 16.121094-8.753906c2.503906-2.957032 2.871093-3.078125 3.894531-3.078125v-16c-8.710938 0-13.34375 5.480469-16.121094 8.753906zm0 0"/><path d="m415.878906 440.753906c-2.503906 2.957032-2.871094 3.078125-3.894531 3.078125s-1.390625-.121093-3.894531-3.078125c-2.769532-3.273437-7.410156-8.753906-16.121094-8.753906s-13.335938 5.480469-16.105469 8.753906c-2.496093 2.957032-2.863281 3.078125-3.886719 3.078125-1.007812 0-1.375-.121093-3.871093-3.070312-2.769531-3.273438-7.394531-8.761719-16.105469-8.761719v16c1.015625 0 1.382812.121094 3.878906 3.078125 2.769532 3.28125 7.394532 8.761719 16.097656 8.761719 8.710938 0 13.34375-5.480469 16.113282-8.761719 2.496094-2.957031 2.863281-3.078125 3.878906-3.078125 1.023438 0 1.390625.121094 3.894531 3.078125 2.769531 3.273437 7.402344 8.753906 16.121094 8.753906s13.34375-5.480469 16.121094-8.753906c2.503906-2.957031 2.871093-3.078125 3.894531-3.078125v-16c-8.710938 0-13.34375 5.480469-16.121094 8.753906zm0 0"/></svg>