<svg height="496pt" viewBox="0 0 496 496" width="496pt" xmlns="http://www.w3.org/2000/svg"><path d="m211 346h229v142h-229zm0 0" fill="#e6e9ed"/><path d="m429.382812 102.96875-21.382812-14.96875h-160l-21.382812 14.96875c-36.738282 25.710938-58.617188 67.742188-58.617188 112.582031 0 21.335938 4.96875 42.386719 14.503906 61.464844l17.496094 34.984375v8h256v-8l17.488281-34.984375c9.542969-19.078125 14.511719-40.128906 14.511719-61.464844 0-44.839843-21.878906-86.871093-58.617188-112.582031zm0 0" fill="#e6e9ed"/><path d="m104 392h272v96h-272zm0 0" fill="#ccd1d9"/><path d="m104 392h272v32h-272zm0 0" fill="#aab2bd"/><g fill="#969faa"><path d="m304 440h32v48h-32zm0 0"/><path d="m136 440h32v48h-32zm0 0"/><path d="m200 440h32v48h-32zm0 0"/></g><path d="m352 360h88v16h-88zm0 0" fill="#ccd1d9"/><path d="m376 360h-272l-16 48h304zm0 0" fill="#fcd770"/><path d="m200 312h256v48h-256zm0 0" fill="#969faa"/><path d="m179.753906 160h296.492188c-9.988282-22.617188-26.03125-42.457031-46.863282-57.03125l-21.382812-14.96875h-160l-21.382812 14.96875c-20.832032 14.574219-36.875 34.414062-46.863282 57.03125zm0 0" fill="#ccd1d9"/><path d="m296 200h64v64h-64zm0 0" fill="#fcd770"/><path d="m232 200h64v64h-64zm0 0" fill="#ffc729"/><path d="m232 264v-64h-63.089844c-.582031 5.136719-.910156 10.320312-.910156 15.550781 0 16.59375 3.039062 32.992188 8.855469 48.449219zm0 0" fill="#fcd770"/><path d="m424 200v64h55.144531c5.816407-15.457031 8.855469-31.847656 8.855469-48.449219 0-5.230469-.328125-10.421875-.910156-15.550781zm0 0" fill="#fcd770"/><path d="m360 200h64v64h-64zm0 0" fill="#ffc729"/><path d="m247.574219 56h160v32h-160zm0 0" fill="#ccd1d9"/><path d="m279.574219 56h96v32h-96zm0 0" fill="#e6e9ed"/><path d="m311.574219 56h32v32h-32zm0 0" fill="#ccd1d9"/><path d="m464 368v-54.113281l16.648438-33.292969c10.039062-20.089844 15.351562-42.578125 15.351562-65.042969 0-47.414062-23.183594-91.949219-62.03125-119.144531l-18.394531-12.871094v-35.535156h-176v36.128906l-17.542969 12.285156c-38.847656 27.1875-62.03125 71.722657-62.03125 119.136719 0 22.464844 5.3125 44.953125 15.351562 65.042969l16.648438 33.292969v38.113281h-93.769531l-21.335938 64h19.105469v64h-64v16h432v-16h-16v-112zm-208-48v32h-16v-32zm16 0h16v32h-16zm32 0h16v32h-16zm32 0h16v32h-16zm32 0h16v32h-16zm32 0h16v32h-16zm48 32h-16v-32h16zm-224-133.007812v26.023437l-12.921875-13.007813zm-24.199219 1.671874-12.578125-12.664062h25.144532zm40.199219-.929687 12.265625 12.265625-12.265625 12.265625zm10.886719-11.734375h25.378906l-12.691406 12.6875zm37.113281 10.886719v26.21875l-13.113281-13.105469zm16 .847656 12.265625 12.265625-12.265625 12.265625zm10.886719-11.734375h25.378906l-12.691406 12.6875zm37.113281 10.886719v26.21875l-13.113281-13.105469zm16 .847656 12.265625 12.265625-12.265625 12.265625zm10.886719-11.734375h25.378906l-12.691406 12.6875zm37.113281 10.886719v26.21875l-13.113281-13.105469zm16 .746093 12.449219 12.359376-12.449219 12.367187zm11-11.632812h25.601562l-12.792968 12.710938zm36.769531 11.449219c-.234375 7.535156-1.113281 15.03125-2.648437 22.414062l-9.960938-9.886719zm-1.9375-27.449219h-299.664062c1.527343-8.246094 3.886719-16.273438 6.945312-24h285.773438c3.058593 7.726562 5.417969 15.753906 6.945312 24zm-289.304687 40.015625-9.671875 9.746094c-1.511719-7.289063-2.375-14.683594-2.617188-22.113281zm11.28125 11.351563 12.542968 12.632812h-25.078124zm63.765625-.054688 12.691406 12.6875h-25.378906zm64 0 12.691406 12.6875h-25.378906zm64 0 12.691406 12.6875h-25.378906zm64.234375-.054688 12.832031 12.742188h-25.65625zm-56.234375-163.257812h-16v-16h16zm-64 0h-16v-16h16zm16-16h16v16h-16zm-48 16h-16v-16h16zm-32-16v16h-16v-16zm-40.375 45.519531 19.320312-13.519531h1.28125c-2.710937 8.351562-4.226562 17.105469-4.226562 25.886719v6.113281h16v-6.113281c0-8.871094 1.875-17.703125 5.257812-25.886719h18.742188v32h16v-32h16v32h16v-32h16v32h16v-32h18.738281c3.382812 8.199219 5.261719 17.03125 5.261719 25.886719v6.113281h16v-6.113281c0-8.773438-1.519531-17.527344-4.230469-25.886719h2.128906l19.320313 13.519531c16.0625 11.25 29.070312 25.855469 38.445312 42.480469h-270.476562c9.367187-16.625 22.375-31.230469 38.4375-42.480469zm-42.152344 162.480469h277.90625c-.226563.472656-.386719.96875-.617187 1.441406l-15.28125 30.558594h-246.109376l-15.28125-30.558594c-.230468-.472656-.390624-.96875-.617187-1.441406zm18.953125 48h16v32h-16zm-98.230469 48h260.460938l10.664062 32h-281.796875zm2.230469 48h256v64h-24v-48h-48v48h-56v-48h-48v48h-16v-48h-48v48h-16zm216 64h-16v-32h16zm-104 0h-16v-32h16zm-64 0h-16v-32h16zm272 0h-48v-64h19.097656l-16-48h44.902344zm0 0"/><path d="m64 112v16h16v-16c0-13.230469 10.769531-24 24-24h8v-16h-8c-13.230469 0-24-10.769531-24-24v-16h-16v16c0 13.230469-10.769531 24-24 24h-8v16h8c13.230469 0 24 10.769531 24 24zm8-40.246094c2.335938 3.140625 5.105469 5.910156 8.246094 8.246094-3.140625 2.335938-5.910156 5.105469-8.246094 8.246094-2.335938-3.140625-5.105469-5.910156-8.246094-8.246094 3.140625-2.335938 5.910156-5.105469 8.246094-8.246094zm0 0"/><path d="m128 232v-16h-16v16c0 13.230469-10.769531 24-24 24h-8v16h8c13.230469 0 24 10.769531 24 24v16h16v-16c0-13.230469 10.769531-24 24-24h8v-16h-8c-13.230469 0-24-10.769531-24-24zm-8 40.246094c-2.335938-3.140625-5.105469-5.910156-8.246094-8.246094 3.140625-2.335938 5.910156-5.105469 8.246094-8.246094 2.335938 3.140625 5.105469 5.910156 8.246094 8.246094-3.140625 2.335938-5.910156 5.105469-8.246094 8.246094zm0 0"/><path d="m64 0h16v16h-16zm0 0"/><path d="m64 144h16v16h-16zm0 0"/><path d="m0 72h16v16h-16zm0 0"/><path d="m128 72h16v16h-16zm0 0"/><path d="m48 256h16v16h-16zm0 0"/><path d="m112 184h16v16h-16zm0 0"/><path d="m480 480h16v16h-16zm0 0"/><path d="m0 480h16v16h-16zm0 0"/></svg>