<svg height="496pt" viewBox="0 0 496 496" width="496pt" xmlns="http://www.w3.org/2000/svg"><path d="m107.902344 348.222656c-52.359375 20.304688-90.40625 66.800782-99.703125 122.578125-.128907.792969-.199219 1.605469-.199219 2.421875 0 8.160156 6.617188 14.777344 14.777344 14.777344h7.460937c34.335938 0 67.417969-11.007812 94.632813-30.894531l99.128906-73.105469-48-64zm0 0" fill="#a0d468"/><path d="m348 312 32.824219 9.609375c56.097656 18.695313 97.246093 66.863281 106.96875 125.183594.136719.800781.199219 1.605469.199219 2.429687.007812 8.160156-6.609376 14.777344-14.769532 14.777344h-7.460937c-46.808594 0-91.289063-20.457031-121.761719-56l-61.992188-48 35.992188-56zm0 0" fill="#a0d468"/><path d="m192 64c0-11.078125-7.542969-20.3125-17.761719-23.078125 1.113281-2.753906 1.761719-5.769531 1.761719-8.921875 0-13.257812-10.742188-24-24-24s-24 10.742188-24 24c0 3.152344.648438 6.167969 1.761719 8.921875-10.21875 2.765625-17.761719 12-17.761719 23.078125 0 6.167969 2.398438 11.753906 6.222656 16-3.824218 4.246094-6.222656 9.832031-6.222656 16 0 13.257812 10.742188 24 24 24 6.167969 0 11.753906-2.398438 16-6.222656 4.246094 3.824218 9.824219 6.222656 16 6.222656 13.257812 0 24-10.742188 24-24 0-6.167969-2.398438-11.753906-6.222656-16 3.824218-4.246094 6.222656-9.832031 6.222656-16zm0 0" fill="#fcd770"/><path d="m224 384-48-64-68.097656 28.222656c-8.390625 3.257813-16.367188 7.25-23.957032 11.777344-2.546874 8.054688-3.359374 16.648438-2.035156 25.0625l7.386719 46.617188c2.214844 14 9.632813 26.3125 20.855469 34.847656 5.046875-2.894532 10-5.976563 14.71875-9.429688zm0 0" fill="#8cc152"/><path d="m381.894531 336.40625 6.167969-12.101562c-2.390625-.929688-4.78125-1.871094-7.230469-2.695313l-32.832031-9.609375-30-8-35.992188 56 61.992188 48c4.9375 5.769531 10.28125 11.089844 15.910156 16.039062l6.167969-38.976562c1.480469-9.351562.449219-18.964844-2.855469-27.78125 7.875-5.144531 14.289063-12.273438 18.671875-20.875zm0 0" fill="#8cc152"/><path d="m163.3125 180.6875c-7.242188 7.242188-11.3125 17.074219-11.3125 27.3125v.070312c0 1.890626.296875 3.761719.566406 5.617188-1.6875-.832031-3.367187-1.695312-5.167968-2.28125l-.070313-.023438c-9.742187-3.167968-20.34375-2.328124-29.472656 2.320313l-42.054688 21.433594c-9.128906 4.648437-16.03125 12.734375-19.191406 22.480469-3.167969 9.75-2.335937 20.351562 2.320313 29.480468l21.421874 42.054688c4.648438 9.128906 12.738282 16.03125 22.488282 19.191406l.0625.023438c1.808594.585937 3.664062.871093 5.511718 1.191406-1.308593 1.34375-2.644531 2.671875-3.757812 4.203125l-.046875.0625c-6.015625 8.28125-8.496094 18.625-6.898437 28.742187l7.386718 46.617188c1.597656 10.121094 7.148438 19.183594 15.445313 25.199218 8.289062 6.023438 18.632812 8.503907 28.753906 6.90625l46.613281-7.386718c10.121094-1.597656 19.1875-7.160156 25.203125-15.445313l.046875-.066406c1.113282-1.519531 1.960938-3.207031 2.839844-4.871094.871094 1.664063 1.726562 3.351563 2.832031 4.871094l.046875.066406c6.015625 8.285157 15.089844 13.847657 25.199219 15.445313l46.617187 7.386718c10.121094 1.597657 20.464844-.882812 28.753907-6.90625 8.277343-6.015624 13.839843-15.085937 15.445312-25.199218l7.386719-46.617188c1.597656-10.117187-.882812-20.460937-6.898438-28.742187l-.046874-.0625c-1.113282-1.53125-2.449219-2.859375-3.761719-4.203125 1.851562-.320313 3.714843-.605469 5.515625-1.191406l.0625-.023438c9.75-3.167969 17.839844-10.070312 22.488281-19.191406l21.421875-42.054688c4.65625-9.128906 5.496094-19.730468 2.320312-29.480468-3.167968-9.746094-10.070312-17.824219-19.199218-22.480469l-42.054688-21.433594c-9.128906-4.648437-19.730468-5.488281-29.472656-2.320313l-.070312.023438c-1.800782.585938-3.480469 1.449219-5.171876 2.28125.289063-1.855469.585938-3.726562.585938-5.617188v-.070312c0-10.238281-4.070312-20.070312-11.3125-27.3125l-33.375-33.375c-7.242188-7.242188-17.074219-11.3125-27.3125-11.3125s-20.070312 4.070312-27.3125 11.3125l-21.160156 21.152344zm0 0" fill="#fc6e51"/><path d="m187.183594 261.304688c-3.078125 1.144531-5.960938 2.960937-8.449219 5.4375-6.527344 6.53125-8.398437 15.851562-5.832031 24.097656-7.636719 4.007812-12.902344 11.9375-12.902344 21.160156s5.265625 17.152344 12.902344 21.167969c-2.558594 8.238281-.6875 17.558593 5.832031 24.097656 6.53125 6.519531 15.851563 8.398437 24.097656 5.832031 4.015625 7.636719 11.945313 12.902344 21.167969 12.902344s17.152344-5.265625 21.160156-12.902344c8.238282 2.558594 17.558594.6875 24.097656-5.832031 6.527344-6.53125 8.398438-15.851563 5.832032-24.097656 7.644531-4.015625 12.910156-11.945313 12.910156-21.167969s-5.265625-17.152344-12.902344-21.167969c2.558594-8.238281.6875-17.558593-5.832031-24.097656-6.53125-6.519531-15.851563-8.398437-24.097656-5.832031-4.015625-7.636719-11.945313-12.902344-21.167969-12.902344-5.558594 0-10.640625 1.910156-14.6875 5.105469zm0 0" fill="#fcd770"/><path d="m248 320-21.496094-35.824219c-33.359375-55.601562-55.703125-117.105469-65.824218-181.152343l-8.679688-55.023438v-16 44.054688c0 91.570312 24.886719 181.425781 72 259.945312zm0 0" fill="#ffc729"/><path d="m495.6875 445.488281c-10.183594-61.121093-52.886719-111.289062-111.519531-131.160156l12.023437-23.609375c5.664063-11.09375 6.664063-23.734375 2.808594-35.574219-3.847656-11.839843-12.078125-21.488281-23.167969-27.136719l-42.054687-21.433593c-9.394532-4.789063-19.882813-6.207031-30.113282-4.214844-1.273437-10.253906-5.96875-19.984375-13.3125-27.328125l-33.375-33.375c-8.6875-8.679688-20.703124-13.65625-32.976562-13.65625s-24.289062 4.976562-32.96875 13.65625l-11.464844 11.464844c-2.269531-8.488282-4.367187-17.03125-6.191406-25.664063 15.082031-2.578125 26.625-15.648437 26.625-31.457031 0-5.640625-1.519531-11.152344-4.359375-16 2.839844-4.847656 4.359375-10.359375 4.359375-16 0-11.65625-6.414062-22.199219-16.289062-27.777344.191406-1.390625.289062-2.808594.289062-4.222656 0-17.648438-14.351562-32-32-32s-32 14.351562-32 32c0 1.414062.097656 2.832031.289062 4.222656-9.875 5.578125-16.289062 16.121094-16.289062 27.777344 0 5.640625 1.519531 11.152344 4.359375 16-2.839844 4.847656-4.359375 10.359375-4.359375 16 0 17.648438 14.351562 32 32 32 3.601562 0 7.128906-.6875 10.480469-1.871094 1.734375 17.726563 4.375 35.335938 7.933593 52.742188-5.40625 6.746094-8.988281 14.871094-10.0625 23.480468-10.191406-1.992187-20.710937-.558593-30.121093 4.222657l-42.054688 21.433593c-11.097656 5.648438-19.328125 15.289063-23.167969 27.128907-3.855468 11.847656-2.855468 24.496093 2.800782 35.582031l21.421875 42.058594c3.335937 6.542968 8.128906 12.015625 13.882812 16.253906-45.601562 24.273438-78.210937 68.878906-86.800781 120.457031-.207031 1.222657-.3125 2.472657-.3125 3.734375 0 12.5625 10.214844 22.777344 22.777344 22.777344h7.460937c34.347657 0 67.167969-10.34375 95.355469-29.753906 7.820312 3.21875 16.382812 4.289062 24.949219 2.9375l46.617187-7.382813c10.414063-1.648437 19.75-6.640625 26.832032-14.273437 7.0625 7.617187 16.40625 12.625 26.839843 14.273437l46.617188 7.382813c2.472656.390625 4.933593.585937 7.382812.585937 9.769531 0 19.265625-3.066406 27.320313-8.921875 9.925781-7.207031 16.726562-18.296875 18.648437-30.421875l.527344-3.320312c30.960937 28.71875 71.703125 44.894531 114.433594 44.894531h7.46875c12.554687 0 22.769531-10.214844 22.769531-22.777344 0-1.261718-.105469-2.511718-.3125-3.734375zm-117.390625-116.296875c11.398437 3.800782 22.085937 8.929688 32.015625 15.089844-15.046875.640625-29.90625 3.238281-44.257812 7.957031-1.992188-.886719-4.03125-1.664062-6.046876-2.496093 6.167969-4.316407 11.25-10.078126 14.761719-16.972657l2.070313-4.066406zm-158.648437-40.894531 21.496093 35.824219 13.71875-8.234375-21.496093-35.824219c-4.625-7.703125-8.96875-15.527344-13.152344-23.429688 1.242187-.3125 2.480468-.632812 3.785156-.632812 5.886719 0 11.289062 3.304688 14.078125 8.625l3.097656 5.894531 6.359375-1.976562c5.746094-1.78125 11.898438-.304688 16.058594 3.847656 4.167969 4.167969 5.636719 10.320313 3.855469 16.066406l-1.976563 6.359375 5.894532 3.09375c5.328124 2.800782 8.632812 8.203125 8.632812 14.089844s-3.304688 11.289062-8.632812 14.089844l-5.894532 3.09375 1.976563 6.359375c1.78125 5.746093.3125 11.898437-3.847657 16.058593-4.167968 4.167969-10.328124 5.636719-16.066406 3.855469l-6.359375-1.976562-3.097656 5.894531c-2.789063 5.320312-8.191406 8.625-14.078125 8.625s-11.289062-3.304688-14.078125-8.625l-3.097656-5.894531-6.359375 1.976562c-5.738282 1.789063-11.898438.304688-16.058594-3.847656-4.167969-4.167969-5.636719-10.320313-3.855469-16.066406l1.976563-6.359375-5.894532-3.09375c-5.328124-2.800782-8.632812-8.203125-8.632812-14.089844s3.304688-11.289062 8.632812-14.089844l5.894532-3.09375-1.976563-6.359375c-1.648437-5.289062-.40625-10.855469 3.023438-14.960937 9.546875 22.902344 20.722656 45.191406 33.570312 66.625l13.71875-8.234375c-27.855469-46.421875-47.75-96.917969-59.253906-149.351563 11.925781 36.808594 27.910156 72.207032 48.039063 105.761719zm-83.648438-176.296875c-8.824219 0-16-7.175781-16-16 0-3.878906 1.480469-7.65625 4.167969-10.648438l4.824219-5.351562-4.824219-5.351562c-2.6875-2.992188-4.167969-6.769532-4.167969-10.648438 0-7.152344 4.871094-13.472656 11.847656-15.359375l8.6875-2.351563-3.359375-8.351562c-.777343-1.945312-1.175781-3.945312-1.175781-5.9375 0-8.824219 7.175781-16 16-16s16 7.175781 16 16c0 1.992188-.398438 3.992188-1.175781 5.9375l-3.359375 8.351562 8.6875 2.351563c6.976562 1.886719 11.847656 8.207031 11.847656 15.359375 0 3.878906-1.480469 7.65625-4.167969 10.648438l-4.824219 5.351562 4.824219 5.351562c2.6875 2.992188 4.167969 6.769532 4.167969 10.648438 0 7.992188-5.910156 14.585938-13.59375 15.761719-.589844-3.328125-1.285156-6.625-1.8125-9.976563l-8.59375-54.417968v-15.367188h-16v44.054688c0 11.007812.382812 21.992187 1.089844 32.945312-2.699219 1.910156-5.851563 3-9.089844 3zm-113.222656 368c-3.738282 0-6.777344-3.039062-6.777344-6.777344 0-.375.03125-.75.097656-1.117187 7.535156-45.203125 35.460938-84.480469 74.710938-106.847657-1.511719 6.039063-1.976563 12.34375-.992188 18.550782l2.175782 13.734375c-18.71875 12.761719-35.625 27.914062-50.136719 45.335937l12.289062 10.234375c11.933594-14.320312 25.625-26.992187 40.632813-37.96875l2.421875 15.28125c1.617187 10.214844 6.601562 19.261719 13.953125 26.261719-24.265625 15.265625-52.007813 23.3125-80.914063 23.3125zm299.976562-32.089844c-6.625 4.816406-14.738281 6.707032-22.800781 5.480469l-46.617187-7.382813c-7.96875-1.265624-15.246094-5.726562-20.03125-12.320312-.777344-1.0625-1.359376-2.238281-2.226563-3.886719l-7.34375-13.015625-7.070313 13.503906c-.609374 1.167969-1.191406 2.34375-2.023437 3.488282-4.730469 6.511718-12.007813 10.976562-19.976563 12.238281l-46.617187 7.382813c-8.078125 1.257812-16.183594-.664063-22.800781-5.488282-6.519532-4.726562-10.980469-12.007812-12.238282-19.972656l-7.382812-46.617188c-1.265625-7.960937.726562-16.273437 5.519531-22.855468.785157-1.089844 1.734375-2.015625 3-3.304688l10.113281-11-15.019531-2.566406c-1.292969-.21875-2.597656-.417969-3.925781-.851562-7.785156-2.519532-14.113281-7.925782-17.824219-15.214844l-21.425781-42.054688c-3.710938-7.289062-4.367188-15.585937-1.832031-23.375 2.53125-7.777344 7.929687-14.105468 15.21875-17.824218l42.054687-21.433594c7.296875-3.710938 15.585938-4.359375 23.425782-1.816406 1.285156.417968 2.496093 1.046874 4.09375 1.839843l13.648437 6.402344-2.238281-15.128906c-.210938-1.34375-.433594-2.695313-.433594-4.136719 0-1.238281.214844-2.457031.367188-3.671875 4.664062 18.078125 10.304687 35.894531 16.921874 53.367187-1.464843 1.03125-2.90625 2.097657-4.199218 3.394532-6.90625 6.910156-10.152344 16.496094-9.089844 26.054687-7.519531 6.007813-12 15.078125-12 24.855469 0 3.59375.792969 7.015625 1.929688 10.304688l-20.328126 7.527343 5.550782 15 23.953125-8.871093c.320312.277343.558593.625.894531.894531-1.0625 9.550781 2.175781 19.144531 9.097656 26.066406 6.910156 6.894531 16.496094 10.148437 26.054688 9.085937 3.449218 4.3125 7.96875 7.472657 12.992187 9.511719l.886719 21.960938 15.984375-.640625-.785156-19.328125c8.113281-1.097657 15.511719-5.105469 20.632812-11.511719 9.542969 1.0625 19.144531-2.183594 26.066407-9.097656 5.160156-5.160156 8.261718-11.8125 9.0625-18.839844l23.632812 6.632812 4.328125-15.40625-21.320313-5.984374c3.335938-5.074219 5.367188-10.992188 5.367188-17.304688 0-9.777344-4.480469-18.847656-12-24.855469 1.046875-9.367187-2.105469-18.730469-8.734375-25.617187l11.390625-17.085938-13.3125-8.875-11.792969 17.691406c-4.078125-1.226562-8.375-1.738281-12.695312-1.257812-6.007813-7.519531-15.078125-12-24.855469-12-3.878906 0-7.625.742188-11.152344 2.078125-11.261718-23.0625-20.742187-46.863281-28.28125-71.324219l17.777344-17.777344c5.695312-5.710937 13.59375-8.976562 21.65625-8.976562s15.960938 3.265625 21.65625 8.96875l33.375 33.375c5.695312 5.703125 8.96875 13.59375 8.96875 21.726562 0 1.371094-.222656 2.722657-.488281 4.457032l-1.839844 14.9375 13.695313-6.800782c1.207031-.601562 2.410156-1.230468 3.761718-1.671874 7.773438-2.535157 16.070313-1.871094 23.359375 1.832031l42.054688 21.433593c7.289062 3.71875 12.6875 10.046876 15.21875 17.832032 2.535156 7.78125 1.878906 16.078125-1.839844 23.367187l-21.425781 42.054688c-3.710938 7.289062-10.039063 12.695312-17.886719 15.242187-1.265625.414063-2.570313.605469-4.410156.917969l-14.679688 2.929687 10.65625 10.878907c.929688.953125 1.878907 1.878906 2.71875 3.039062 4.738281 6.511719 6.730469 14.832031 5.472657 22.792969l-7.382813 46.617188c-1.25 7.957031-5.710937 15.238281-12.230469 19.980468zm31.660156-40.316406 3.769532-23.785156c.945312-5.960938.550781-12.015625-.808594-17.847656 12.015625 5.214843 23.511719 11.480468 34.425781 18.648437-3.472656 18.789063-1.257812 38.007813 6.007813 55.359375-16.128906-8.039062-30.847656-18.9375-43.394532-32.375zm118.808594 48.40625h-7.460937c-15.320313 0-30.335938-2.34375-44.648438-6.726562-11.167969-15.808594-16.378906-35.050782-14.671875-54.203126 12.933594 10.042969 24.871094 21.402344 35.414063 34.058594l12.289062-10.25c-18.738281-22.480468-41.449219-41.269531-66.746093-55.703125 9.824218-2.03125 19.816406-3.175781 29.898437-3.175781h14.183594c25.261719 22.574219 42.640625 53.398438 48.421875 88.113281.066406.367188.097656.734375.097656 1.109375 0 3.738282-3.039062 6.777344-6.777344 6.777344zm0 0"/></svg>