<svg height="496pt" viewBox="-56 0 496 496" width="496pt" xmlns="http://www.w3.org/2000/svg"><path d="m232 416c0-39.765625-17.910156-72-40-72s-40 32.234375-40 72 17.910156 72 40 72 40-32.234375 40-72zm0 0" fill="#e6e9ed"/><g fill="#fcd770"><path d="m216 32c0 13.253906-10.746094 24-24 24s-24-10.746094-24-24 10.746094-24 24-24 24 10.746094 24 24zm0 0"/><path d="m165.382812 32.414062c4.097657 12.609376-2.808593 26.152344-15.40625 30.242188-12.609374 4.097656-26.152343-2.808594-30.242187-15.410156-4.101563-12.605469 2.800781-26.148438 15.410156-30.238282 12.609375-4.105468 26.144531 2.808594 30.238281 15.40625zm0 0"/><path d="m117.367188 48.457031c7.800781 10.71875 5.417968 25.726563-5.304688 33.519531-10.726562 7.792969-25.734375 5.414063-33.519531-5.3125-7.789063-10.726562-5.414063-25.734374 5.304687-33.519531 10.71875-7.792969 25.726563-5.417969 33.519532 5.3125zm0 0"/><path d="m76.664062 78.535156c10.726563 7.792969 13.105469 22.800782 5.3125 33.519532-7.800781 10.722656-22.808593 13.105468-33.527343 5.304687-10.730469-7.792969-13.105469-22.800781-5.3125-33.519531 7.792969-10.710938 22.800781-13.085938 33.527343-5.304688zm0 0"/><path d="m47.246094 119.734375c12.601562 4.097656 19.496094 17.632813 15.410156 30.242187-4.097656 12.597657-17.632812 19.503907-30.242188 15.40625-12.597656-4.09375-19.511718-17.628906-15.40625-30.238281 4.097657-12.617187 17.632813-19.511719 30.238282-15.410156zm0 0"/><path d="m56 192c0 13.253906-10.746094 24-24 24s-24-10.746094-24-24 10.746094-24 24-24 24 10.746094 24 24zm0 0"/><path d="m32.414062 218.617188c12.609376-4.097657 26.144532 2.808593 30.242188 15.40625 4.097656 12.609374-2.808594 26.152343-15.410156 30.242187-12.605469 4.101563-26.148438-2.800781-30.238282-15.410156-4.105468-12.609375 2.808594-26.144531 15.40625-30.238281zm0 0"/><path d="m48.457031 266.632812c10.71875-7.800781 25.726563-5.417968 33.527344 5.304688 7.792969 10.726562 5.414063 25.734375-5.3125 33.519531-10.726563 7.789063-25.734375 5.414063-33.519531-5.304687-7.800782-10.71875-5.425782-25.726563 5.304687-33.519532zm0 0"/><path d="m78.535156 307.335938c7.792969-10.726563 22.800782-13.105469 33.519532-5.3125 10.722656 7.800781 13.105468 22.808593 5.304687 33.527343-7.792969 10.730469-22.800781 13.105469-33.519531 5.3125-10.710938-7.792969-13.085938-22.800781-5.304688-33.527343zm0 0"/><path d="m119.734375 336.753906c4.097656-12.601562 17.632813-19.507812 30.242187-15.410156 12.597657 4.097656 19.503907 17.632812 15.40625 30.242188-4.09375 12.597656-17.628906 19.503906-30.238281 15.40625-12.617187-4.097657-19.511719-17.632813-15.410156-30.238282zm0 0"/><path d="m218.617188 351.585938c-4.097657-12.609376 2.808593-26.152344 15.40625-30.242188 12.609374-4.097656 26.152343 2.808594 30.242187 15.410156 4.101563 12.605469-2.800781 26.148438-15.410156 30.238282-12.609375 4.105468-26.144531-2.808594-30.238281-15.40625zm0 0"/><path d="m266.632812 335.542969c-7.800781-10.71875-5.417968-25.726563 5.304688-33.527344 10.726562-7.792969 25.734375-5.414063 33.519531 5.3125 7.789063 10.726563 5.414063 25.734375-5.304687 33.519531-10.71875 7.800782-25.726563 5.425782-33.519532-5.304687zm0 0"/><path d="m307.335938 305.464844c-10.726563-7.792969-13.105469-22.800782-5.3125-33.519532 7.800781-10.722656 22.808593-13.105468 33.527343-5.304687 10.730469 7.792969 13.105469 22.800781 5.3125 33.519531-7.792969 10.710938-22.800781 13.085938-33.527343 5.304688zm0 0"/><path d="m336.753906 264.265625c-12.601562-4.097656-19.507812-17.632813-15.410156-30.242187 4.097656-12.597657 17.632812-19.503907 30.242188-15.40625 12.597656 4.09375 19.503906 17.628906 15.40625 30.238281-4.097657 12.617187-17.632813 19.511719-30.238282 15.410156zm0 0"/><path d="m376 192c0 13.253906-10.746094 24-24 24s-24-10.746094-24-24 10.746094-24 24-24 24 10.746094 24 24zm0 0"/><path d="m351.585938 165.382812c-12.609376 4.097657-26.152344-2.808593-30.242188-15.40625-4.097656-12.609374 2.808594-26.152343 15.410156-30.242187 12.605469-4.101563 26.148438 2.800781 30.238282 15.410156 4.105468 12.609375-2.808594 26.144531-15.40625 30.238281zm0 0"/><path d="m335.542969 117.367188c-10.71875 7.800781-25.726563 5.417968-33.527344-5.304688-7.792969-10.726562-5.414063-25.734375 5.3125-33.519531 10.726563-7.789063 25.734375-5.414063 33.519531 5.304687 7.800782 10.71875 5.425782 25.726563-5.304687 33.519532zm0 0"/><path d="m305.464844 76.664062c-7.792969 10.726563-22.800782 13.105469-33.519532 5.3125-10.722656-7.800781-13.105468-22.808593-5.304687-33.519531 7.792969-10.730469 22.800781-13.105469 33.519531-5.3125 10.710938 7.785157 13.085938 22.792969 5.304688 33.519531zm0 0"/><path d="m264.265625 47.246094c-4.097656 12.601562-17.632813 19.496094-30.242187 15.410156-12.597657-4.097656-19.503907-17.632812-15.40625-30.242188 4.09375-12.597656 17.628906-19.503906 30.238281-15.40625 12.617187 4.097657 19.511719 17.632813 15.410156 30.238282zm0 0"/></g><path d="m367.550781 219.792969c9.761719-5.488281 16.449219-15.816407 16.449219-27.792969s-6.6875-22.304688-16.449219-27.792969c1.976563-2.136719 3.769531-4.453125 5.128907-7.117187 3.878906-7.617188 4.558593-16.289063 1.921874-24.417969-2.640624-8.136719-8.289062-14.75-15.90625-18.632813-2.664062-1.359374-5.480468-2.175781-8.335937-2.742187 4.671875-10.175781 4.007813-22.464844-3.03125-32.160156-7.039063-9.6875-18.527344-14.113281-29.664063-12.800781 1.3125-11.128907-3.121093-22.625-12.808593-29.671876-9.6875-7.039062-21.984375-7.703124-32.160157-3.03125-.566406-2.855468-1.382812-5.671874-2.742187-8.335937-3.882813-7.617187-10.496094-13.265625-18.625-15.90625-8.136719-2.636719-16.816406-1.957031-24.425781 1.921875-2.664063 1.359375-4.980469 3.152344-7.117188 5.128906-5.480468-9.753906-15.808594-16.441406-27.785156-16.441406s-22.304688 6.6875-27.792969 16.449219c-2.136719-1.976563-4.453125-3.769531-7.117187-5.128907-7.601563-3.878906-16.289063-4.558593-24.417969-1.921874-8.136719 2.640624-14.75 8.289062-18.632813 15.90625-1.351562 2.664062-2.175781 5.480468-2.742187 8.335937-10.175781-4.671875-22.457031-4.015625-32.152344 3.023437-9.6875 7.039063-14.113281 18.535157-12.808593 29.664063-11.128907-1.3125-22.617188 3.121094-29.664063 12.816406-7.03125 9.6875-7.695313 21.984375-3.023437 32.152344-2.855469.566406-5.671876 1.382813-8.335938 2.742187-7.617188 3.882813-13.265625 10.496094-15.90625 18.625-2.636719 8.128907-1.957031 16.800782 1.921875 24.414063 1.359375 2.664063 3.152344 4.984375 5.128906 7.121094-9.769531 5.496093-16.457031 15.824219-16.457031 27.800781s6.6875 22.304688 16.449219 27.792969c-1.976563 2.136719-3.769531 4.453125-5.128907 7.117187-3.878906 7.617188-4.558593 16.289063-1.921874 24.417969 2.640624 8.136719 8.289062 14.75 15.90625 18.632813 2.664062 1.351562 5.472656 2.199218 8.320312 2.765624-4.65625 10.167969-3.992188 22.449219 3.039062 32.128907 6.246094 8.601562 16.023438 13.167969 25.921876 13.167969 1.246093 0 2.484374-.144532 3.726562-.289063-1.273438 11.105469 3.152344 22.5625 12.816406 29.59375 5.671875 4.121094 12.246094 6.097656 18.773438 6.097656 4.617187 0 9.175781-1.089843 13.394531-3.027343.566406 2.839843 1.382813 5.640624 2.734375 8.289062 3.878906 7.617188 10.496094 13.265625 18.625 15.90625 3.253906 1.054688 6.601562 1.582031 9.929688 1.582031 2.703124 0 5.382812-.414062 8.015624-1.105469-4.175781 11.929688-6.601562 25.851563-6.601562 40.929688 0 44.855469 21.089844 80 48 80s48-35.144531 48-80c0-15.078125-2.425781-29-6.609375-40.921875 2.632813.691406 5.3125 1.105469 8.015625 1.105469 3.328125 0 6.671875-.527344 9.921875-1.582032 8.136719-2.640624 14.75-8.289062 18.632813-15.90625 1.351562-2.648437 2.167968-5.449218 2.734374-8.289062 4.214844 1.9375 8.777344 3.027344 13.402344 3.027344 6.511719 0 13.09375-1.984375 18.765625-6.105469 9.664063-7.023437 14.097657-18.480469 12.816407-29.585937 1.242187.144531 2.480468.289062 3.726562.289062 9.898438 0 19.671875-4.566406 25.929688-13.167969 7.03125-9.679687 7.695312-21.960937 3.03125-32.128906 2.855468-.566406 5.664062-1.414063 8.328124-2.765625 7.617188-3.878906 13.265626-10.496094 15.90625-18.632812 2.636719-8.136719 1.957032-16.800782-1.921874-24.414063-1.359376-2.675781-3.152344-4.992187-5.128907-7.128906zm-53.816406 11.757812c-2.574219 7.953125-1.78125 16.152344 1.464844 23.210938-7.910157 1.574219-14.871094 5.902343-19.648438 12.46875-4.910156 6.769531-6.6875 14.824219-5.773437 22.539062-7.722656-.914062-15.769532.871094-22.539063 5.78125-6.566406 4.769531-10.902343 11.738281-12.46875 19.648438-7.058593-3.246094-15.257812-4.046875-23.210937-1.464844-12.574219 4.089844-20.902344 15.273437-21.992188 27.691406-5.421875-3.464843-11.328125-5.425781-17.566406-5.425781s-12.144531 1.960938-17.566406 5.414062c-1.089844-12.414062-9.410156-23.597656-21.992188-27.6875-7.953125-2.582031-16.152344-1.78125-23.210937 1.464844-1.574219-7.902344-5.910157-14.871094-12.46875-19.648437-6.777344-4.902344-14.824219-6.679688-22.539063-5.765625.914063-7.722656-.863281-15.777344-5.78125-22.546875-4.769531-6.566407-11.738281-10.894531-19.648437-12.46875 3.246093-7.058594 4.046875-15.265625 1.464843-23.21875-2.585937-7.949219-8.058593-14.128907-14.832031-17.917969 5.277344-5.703125 8.574219-13.265625 8.574219-21.625s-3.296875-15.910156-8.558594-21.617188c6.773438-3.796874 12.238282-9.984374 14.824219-17.933593 2.574219-7.953125 1.78125-16.152344-1.464844-23.210938 7.910157-1.574219 14.871094-5.902343 19.648438-12.46875 4.933593-6.800781 6.710937-14.90625 5.765625-22.648437 1.257812.152344 2.496094.429687 3.769531.429687 6.519531 0 13.105469-1.984375 18.777344-6.101562 6.550781-4.769531 10.886719-11.722657 12.460937-19.617188 4.152344 1.902344 8.679688 3 13.351563 3 3.265625 0 6.59375-.503906 9.859375-1.566406 7.949218-2.585937 14.125-8.058594 17.917968-14.832031 5.71875 5.269531 13.28125 8.566406 21.648438 8.566406s15.929688-3.296875 21.632812-8.566406c3.800782 6.773437 9.96875 12.246094 17.917969 14.832031 3.273438 1.0625 6.59375 1.566406 9.855469 1.566406 4.671875 0 9.203125-1.097656 13.355469-3 1.582031 7.894531 5.910156 14.847657 12.460937 19.617188 5.671875 4.117187 12.25 6.09375 18.769532 6.09375 1.273437 0 2.519531-.285157 3.777343-.4375-.945312 7.75.832031 15.855469 5.773438 22.65625 4.769531 6.558593 11.738281 10.894531 19.648437 12.460937-3.246094 7.058594-4.046875 15.265625-1.464844 23.21875 2.585938 7.949219 8.050782 14.132813 14.824219 17.933594-5.253906 5.714844-8.550781 13.265625-8.550781 21.625s3.296875 15.921875 8.566406 21.625c-6.773437 3.800781-12.246094 9.976562-14.832031 17.925781zm38.265625-23.550781c-8.824219 0-16-7.175781-16-16s7.175781-16 16-16 16 7.175781 16 16-7.175781 16-16 16zm7.382812-70.382812c1.320313 4.0625.984376 8.398437-.957031 12.207031-1.9375 3.808593-5.242187 6.632812-9.304687 7.953125-8.433594 2.710937-17.441406-1.882813-20.167969-10.265625-2.730469-8.390625 1.878906-17.441407 10.269531-20.167969 1.625-.527344 3.296875-.792969 4.96875-.792969 2.488282 0 4.953125.585938 7.234375 1.753907 3.8125 1.933593 6.636719 5.238281 7.957031 9.3125zm-37.949218-55.65625c4.941406 0 9.832031 2.285156 12.949218 6.582031 2.511719 3.464843 3.527344 7.6875 2.855469 11.914062-.664062 4.214844-2.933593 7.925781-6.398437 10.4375-7.136719 5.195313-17.152344 3.601563-22.34375-3.535156-2.511719-3.464844-3.527344-7.6875-2.855469-11.910156.664063-4.21875 2.933594-7.929688 6.398437-10.441407 2.832032-2.054687 6.128907-3.046874 9.394532-3.046874zm-37.890625-35.207032c.839843-.136718 1.695312-.203125 2.527343-.203125 3.355469 0 6.609376 1.050781 9.378907 3.058594 7.136719 5.183594 8.71875 15.207031 3.527343 22.351563-2.503906 3.453124-6.207031 5.726562-10.441406 6.398437-4.175781.664063-8.4375-.34375-11.902344-2.855469-3.457031-2.511718-5.730468-6.222656-6.402343-10.449218-.664063-4.214844.355469-8.445313 2.867187-11.902344 2.519532-3.457032 6.222656-5.726563 10.445313-6.398438zm-57.320313-11.867187c1.320313-4.0625 4.144532-7.367188 7.953125-9.3125 2.28125-1.167969 4.753907-1.75 7.238281-1.75 1.664063 0 3.339844.265625 4.96875.792969 4.066407 1.320312 7.371094 4.144531 9.3125 7.949218 1.9375 3.808594 2.273438 8.144532.953126 12.210938-2.726563 8.382812-11.753907 12.992187-20.167969 10.269531-8.367188-2.71875-12.976563-11.765625-10.257813-20.160156zm-34.222656-18.886719c8.824219 0 16 7.175781 16 16s-7.175781 16-16 16-16-7.175781-16-16 7.175781-16 16-16zm-63.703125 16.566406c1.941406-3.804687 5.246094-6.628906 9.320313-7.949218 1.621093-.527344 3.292968-.792969 4.957031-.792969 2.496093 0 4.960937.582031 7.242187 1.75 3.816406 1.945312 6.632813 5.25 7.953125 9.3125 2.726563 8.394531-1.882812 17.441406-10.265625 20.160156-8.375 2.730469-17.433594-1.871094-20.167968-10.269531-1.3125-4.066406-.976563-8.402344.960937-12.210938zm-39.753906 17.050782c2.769531-2.007813 6.023437-3.058594 9.378906-3.058594.832031 0 1.6875.066406 2.527344.203125 4.222656.664062 7.925781 2.941406 10.4375 6.398437l.007812.007813c2.503907 3.457031 3.519531 7.679687 2.859375 11.894531-.675781 4.226562-2.945312 7.9375-6.402344 10.449219-3.457031 2.503906-7.671874 3.519531-11.902343 2.855469-4.226563-.664063-7.929688-2.941407-10.441407-6.398438-5.175781-7.144531-3.59375-17.167969 3.535157-22.351562zm-38.933594 38.925781c3.125-4.304688 8.015625-6.582031 12.964844-6.582031 3.257812 0 6.546875.992187 9.386719 3.046874 3.464843 2.511719 5.734374 6.214844 6.398437 10.441407.671875 4.222656-.34375 8.453125-2.847656 11.902343-5.191407 7.144532-15.230469 8.71875-22.351563 3.535157-3.464844-2.511719-5.734375-6.214844-6.398437-10.4375-.671875-4.21875.34375-8.449219 2.847656-11.90625zm-24.992187 49.066406c1.320312-4.066406 4.144531-7.371094 7.949218-9.3125 2.28125-1.167969 4.753906-1.753906 7.234375-1.753906 1.671875 0 3.34375.265625 4.96875.792969h.007813c8.382812 2.71875 12.992187 11.769531 10.261718 20.160156-2.726562 8.390625-11.742187 12.984375-20.167968 10.273437-4.0625-1.320312-7.367188-4.144531-9.304688-7.953125-1.933594-3.800781-2.269531-8.136718-.949218-12.207031zm7.382812 38.390625c8.824219 0 16 7.175781 16 16s-7.175781 16-16 16-16-7.175781-16-16 7.175781-16 16-16zm-7.382812 70.382812c-1.320313-4.0625-.984376-8.398437.957031-12.207031 1.9375-3.808593 5.242187-6.632812 9.304687-7.953125 8.417969-2.726562 17.433594 1.882813 20.167969 10.265625 2.730469 8.390625-1.878906 17.441407-10.269531 20.167969-4.042969 1.328125-8.386719.984375-12.203125-.960938-3.8125-1.933593-6.636719-5.238281-7.957031-9.3125zm25 49.074219c-2.511719-3.464843-3.527344-7.6875-2.855469-11.90625.664062-4.222656 2.933593-7.925781 6.398437-10.4375v-.007812c2.769532-2.007813 6.015625-3.066407 9.367188-3.066407.839844 0 1.6875.074219 2.535156.199219 4.21875.671875 7.929688 2.945313 10.441406 6.402344 2.511719 3.464844 3.527344 7.6875 2.855469 11.902344-.664063 4.226562-2.933594 7.929687-6.398437 10.441406-7.128907 5.183594-17.160157 3.617187-22.34375-3.527344zm50.839843 41.78125c-4.226562.714844-8.457031-.351562-11.90625-2.847656-7.136719-5.183594-8.71875-15.207031-3.527343-22.351563 2.503906-3.464843 6.207031-5.734374 10.441406-6.398437.839844-.144531 1.695312-.199219 2.535156-.199219 3.34375 0 6.601562 1.054688 9.367188 3.054688 3.457031 2.511718 5.730468 6.222656 6.402343 10.449218.664063 4.222657-.355469 8.453126-2.867187 11.902344-2.519532 3.457032-6.222656 5.726563-10.445313 6.390625zm37.152344 22.144531c-4.066406-1.320312-7.371094-4.144531-9.3125-7.949218-1.9375-3.808594-2.273437-8.144532-.953125-12.203125v-.007813c2.191406-6.75 8.488281-11.046875 15.222656-11.046875 1.632813 0 3.296875.25 4.9375.785157 8.382813 2.726562 12.992188 11.765624 10.265625 20.167968-1.320312 4.0625-4.144531 7.367188-7.953125 9.304688-3.800781 1.925781-8.121094 2.277344-12.207031.949218zm54.390625 120.617188c-15.136719 0-32-26.28125-32-64s16.863281-64 32-64 32 26.28125 32 64-16.863281 64-32 64zm63.703125-128.566406c-1.941406 3.8125-5.246094 6.628906-9.320313 7.949218-4.054687 1.328126-8.390624.976563-12.199218-.957031-3.808594-1.9375-6.632813-5.242187-7.953125-9.304687-2.726563-8.402344 1.882812-17.441406 10.265625-20.167969 8.382812-2.714844 17.441406 1.871094 20.167968 10.269531 1.3125 4.066406.976563 8.402344-.960937 12.210938zm39.753906-17.050782c-3.464843 2.503907-7.679687 3.570313-11.90625 2.855469-4.222656-.664062-7.925781-2.933593-10.4375-6.398437h-.007812c-2.503907-3.457032-3.519531-7.679688-2.859375-11.902344.675781-4.21875 2.945312-7.929688 6.402344-10.441406 2.765624-2.007813 6.023437-3.0625 9.375-3.0625.832031 0 1.6875.0625 2.527343.199218 4.226563.664063 7.929688 2.933594 10.441407 6.398438 5.175781 7.144531 3.59375 17.167969-3.535157 22.351562zm38.933594-38.925781c-5.175781 7.136719-15.199219 8.726563-22.351563 3.527344-3.464843-2.503906-5.734374-6.207031-6.398437-10.441406-.671875-4.214844.34375-8.445313 2.847656-11.902344 2.511719-3.457031 6.222657-5.730469 10.449219-6.402344.847656-.132812 1.695312-.199219 2.535156-.199219 3.351563 0 6.597656 1.058594 9.367188 3.074219 3.464844 2.503907 5.734375 6.207031 6.398437 10.4375.671875 4.21875-.34375 8.441407-2.847656 11.90625zm24.992187-49.066406c-1.320312 4.066406-4.144531 7.371094-7.949218 9.3125-3.824219 1.953125-8.167969 2.289063-12.203125.960937h-.007813c-8.382812-2.71875-12.992187-11.769531-10.261718-20.160156 2.191406-6.75 8.488281-11.054687 15.222656-11.054687 1.632812 0 3.296875.253906 4.9375.78125 4.0625 1.320312 7.367187 4.144531 9.304687 7.953125 1.941407 3.800781 2.277344 8.136718.957031 12.207031zm0 0"/><path d="m184 376h16v80h-16zm0 0"/></svg>