<svg height="496pt" viewBox="0 0 496 496" width="496pt" xmlns="http://www.w3.org/2000/svg"><path d="m120 160h96v64h-96zm0 0" fill="#e6e9ed"/><path d="m24 224h216v184h-216zm0 0" fill="#f5e0cd"/><path d="m24 408v80h464v-120h-200v16h-264zm0 0" fill="#f5e0cd"/><path d="m384 120v-64h-96v64zm0 0" fill="#69d6f4"/><path d="m304 8h64v43h-64zm0 0" fill="#656d78"/><path d="m304 136h64v152h-64zm0 0" fill="#e6e9ed"/><path d="m368 416h64v72h-64zm0 0" fill="#656d78"/><path d="m288 288h96v200h-96zm0 0" fill="#aab2bd"/><path d="m288 336h96v32h-96zm0 0" fill="#69d6f4"/><path d="m320 336h32v32h-32zm0 0" fill="#4fc1e9"/><path d="m272 272h128v32h-128zm0 0" fill="#fcd770"/><path d="m320 56h32v64h-32zm0 0" fill="#4fc1e9"/><path d="m264 72h144c0-17.671875-14.328125-32-32-32h-80c-17.671875 0-32 14.328125-32 32zm0 0" fill="#fcd770"/><path d="m304 200h64v32h-64zm0 0" fill="#ccd1d9"/><path d="m392 120-9.335938 32h-93.328124l-9.335938-32zm0 0" fill="#fcd770"/><path d="m8 208h256v32h-256zm0 0" fill="#fcd770"/><path d="m168 336h-80v40h64l32 32 40.496094-16zm0 0" fill="#ccd1d9"/><path d="m104 144h128v32h-128zm0 0" fill="#fcd770"/><path d="m152 176h32v32h-32zm0 0" fill="#ccd1d9"/><path d="m72 272h128v32h-128zm0 0" fill="#4fc1e9"/><path d="m72 272h32v32h-32zm0 0" fill="#69d6f4"/><path d="m104 272h32v32h-32zm0 0" fill="#4fc1e9"/><path d="m136 272h32v32h-32zm0 0" fill="#69d6f4"/><path d="m168 408h-160v-32h144l32 32zm0 0" fill="#fcd770"/><path d="m24 408h160v16h-160zm0 0" fill="#ecc19c"/><path d="m248 384v48l-120 56h-48v-40l136-64zm0 0" fill="#e6e9ed"/><path d="m24 240h216v16h-216zm0 0" fill="#f0d0b4"/><path d="m288 304h96v16h-96zm0 0" fill="#969faa"/><path d="m288 368h96v16h-96zm0 0" fill="#969faa"/><path d="m304 152h64v16h-64zm0 0" fill="#ccd1d9"/><path d="m328 392h16v16h-16zm0 0"/><path d="m328 432h16v16h-16zm0 0"/><path d="m392 360v-48h16v-48h-32v-104h12.664062l9.335938-32h18v-16h-24v-32h24v-8c0-22.054688-17.945312-40-40-40v-32h-80v32c-22.054688 0-40 17.945312-40 40v8h24v32h-24v16h18l9.335938 32h12.664062v104h-32v48h16v64h-32v-128h24v-48h-48v-16h16v-48h-144v48h16v16h-112v48h16v120h-16v48h16v80h480v-136zm32 120h-32v-56h32zm-48 0h-80v-104h80zm-80-136h16v16h-16zm32 16v-16h16v16zm32 0v-16h16v16zm-48-152h48v16h-48zm64-96h-16v-32h16zm-32-32v32h-16v-32zm-32-64h48v16h-48zm-16 32h80c10.433594 0 19.328125 6.6875 22.632812 16h-125.265624c3.304687-9.3125 12.199218-16 22.632812-16zm0 32h16v32h-16zm-5.335938 48h90.664063l-4.664063 16h-81.328124zm69.335938 32v32h-48v-32zm-48 80h48v24h-48zm-32 40h112v16h-112zm96 32v16h-80v-16zm-96 168h-115.9375l91.9375-42.902344v-45.097656h24zm-160-41.984375 16-7.527344v44.953125l-9.777344 4.558594h-6.222656zm-16 41.984375h-16v-26.921875l16-7.527344zm-8-112v-24h16v24zm32-24h16v24h-16zm32 0h4.6875l11.3125 11.3125v33.375l-16-16zm40 56.367188v45.199218l-16 7.464844v-45.03125h-.207031zm16-7.527344 1.792969-.839844h22.207031v34.902344l-24 11.203125zm-24-6.382813v-15.136719l10.296875 10.296876zm-24 29.542969v44.503906l-16 7.464844v-45.007812l14.792969-6.960938zm40-216h-16v-16h16zm-32-16v16h-16v-16zm-64-32h112v16h-112zm16 32h16v16h-16zm-112 32h240v16h-240zm16 32h200v128h-12.6875l-48-48h-91.3125v40h-48zm-16 136h132.6875l15.527344 15.527344-1.007813.472656h-147.207031zm16 32h97.207031l-57.207031 26.921875v37.078125h-40zm448 64h-40v-72h-48v-32h88zm0 0"/><path d="m208 264h-144v48h144zm-64 16h16v16h-16zm-16 16h-16v-16h16zm-48-16h16v16h-16zm112 16h-16v-16h16zm0 0"/></svg>