<svg height="496pt" viewBox="0 0 496 496" width="496pt" xmlns="http://www.w3.org/2000/svg"><path d="m96 216v272h32v-272zm0 0" fill="#dfb28b"/><path d="m400 216v272h-32v-272zm0 0" fill="#dfb28b"/><path d="m184 392h-112v-32h352v32zm0 0" fill="#ecc19c"/><g fill="#cf9e76"><path d="m184 360h32v128h-32zm0 0"/><path d="m280 360h32v128h-32zm0 0"/><path d="m128 216h-32v77.6875l29.28125-30.550781 2.71875 2.832031zm0 0"/><path d="m368 265.96875 2.71875-2.832031 29.28125 30.550781v-77.6875h-32zm0 0"/></g><path d="m248 240 30.761719 32 30.671875-32 30.644531 32 30.640625-32 30.65625 32 30.625-32c-15.472656-51.558594-49.175781-95.734375-94.832031-124.265625-36.953125-23.101563-64.710938-58.351563-78.488281-99.695313l-2.679688-8.039062h-16l-2.679688 8.039062c-13.785156 41.34375-41.535156 76.59375-78.496093 99.695313-45.648438 28.53125-79.351563 72.707031-94.824219 124.265625l30.625 32 30.65625-32 30.640625 32 30.644531-32 30.671875 32zm0 0" fill="#fcd770"/><path d="m368 392h32v16h-32zm0 0" fill="#cf9e76"/><path d="m96 392h32v16h-32zm0 0" fill="#cf9e76"/><path d="m168 360h16v32h-16zm0 0" fill="#dfb28b"/><path d="m312 360h16v32h-16zm0 0" fill="#dfb28b"/><path d="m408 400h24v-48h-24v-75.351562l33-34.480469-1.335938-4.464844c-16.039062-53.457031-50.929687-99.175781-98.25-128.75-35.292968-22.066406-61.980468-55.960937-75.148437-95.441406l-4.496094-13.511719h-27.53125l-4.496093 13.503906c-13.167969 39.480469-39.847657 73.375-75.148438 95.441406-47.320312 29.574219-82.210938 75.300782-98.25 128.75l-1.335938 4.464844 32.992188 34.488282v75.351562h-24v48h24v80h-56v16h432v-16h-56zm-16 80h-16v-80h16zm-216-80v80h-40v-80zm-40-137.238281 19.921875 20.804687 30.644531-32 30.664063 31.992188 30.769531-32.015625 30.769531 32.007812 30.664063-31.992187 30.644531 32 19.921875-20.796875v89.238281h-224zm136 185.238281h-48v-16h48zm0-32h-48v-16h48zm0-32h-48v-16h48zm-80-16h16v112h-16zm32 96h48v16h-48zm64-96h16v112h-16zm32 32h40v80h-40zm96-16h-96v-16h96zm-40-32v-94.921875l16 16.707031v78.214844zm-212.929688-229.480469c38.441407-24.03125 67.503907-60.953125 81.832032-103.953125l.867187-2.566406h4.46875l.859375 2.566406c14.328125 43 43.398438 79.914063 81.832032 103.953125 42.71875 26.6875 74.542968 67.527344 90.03125 115.359375l-21.585938 22.554688-30.65625-32-30.640625 32-30.644531-32-30.679688 32.007812-30.753906-31.984375-30.753906 31.992188-30.679688-32.007813-30.644531 32-30.640625-32-30.65625 32-21.585938-22.554687c15.480469-47.832031 47.3125-88.671875 90.03125-115.367188zm-59.070312 151.265625 16-16.707031v94.921875h-16zm-24 94.214844h96v16h-96zm24 32h16v80h-16zm0 0"/><path d="m0 480h16v16h-16zm0 0"/><path d="m480 480h16v16h-16zm0 0"/><path d="m240 176h16v40h-16zm0 0"/><path d="m184.570312 149.042969 16.003907-39.996094 14.859375 5.945313-16.003906 39.996093zm0 0"/><path d="m280.578125 114.96875 14.863281-5.945312 16 40-14.863281 5.945312zm0 0"/><path d="m240 56h16v40h-16zm0 0"/><path d="m240 112h16v40h-16zm0 0"/><path d="m296.136719 177.5625 15.6875-3.140625 8.007812 39.996094-15.6875 3.140625zm0 0"/><path d="m352.160156 177.574219 15.6875-3.136719 8 40-15.691406 3.136719zm0 0"/><path d="m176.140625 214.441406 8.007813-40 15.6875 3.144532-8.007813 39.996093zm0 0"/><path d="m120.140625 214.4375 8.007813-39.996094 15.6875 3.140625-8.007813 39.996094zm0 0"/></svg>