<svg height="491pt" viewBox="-122 0 491 491.568" width="491pt" xmlns="http://www.w3.org/2000/svg"><path d="m118.523438 59.566406c11.113281-21.078125 30.71875-36.597656 54.105468-42.445312l22.199219-5.554688c-10.566406 26.425782-16 54.625-16 83.082032l1.664063 20.917968-44.664063.65625-30.664063-32.65625zm0 0" fill="#b4dd7f"/><path d="m58.828125 83.566406c0-15.933594-1.953125-31.8125-5.824219-47.277344l-2.175781-8.722656 10.816406 3.601563c39.398438 13.136719 72.574219 40.335937 93.183594 76.398437l17.664063 30.335938-64.328126 13-52.335937-40zm0 0" fill="#a0d468"/><path d="m50.828125 147.566406c0-20.710937-7.046875-40.8125-19.992187-56.980468l-12.007813-15.019532 2 .25c40.480469 5.0625 78.65625 21.632813 110 47.75l24 21-45.648437 32.730469-58.351563-2.066406zm0 0" fill="#b4dd7f"/><path d="m106.828125 171.566406c9.816406-39.269531 40.832031-69.734375 80.28125-78.832031l39.71875-9.167969-4.207031 5.609375c-13.066406 17.425781-22.511719 37.273438-27.792969 58.390625l-4.671875 19.664063-33.488281 36.335937-55.175781-12zm0 0" fill="#8cc152"/><path d="m217.355469 147.566406c-34.414063 0-67.382813 10.953125-94.527344 30.523438-13.007813 8.421875-16 13.476562-16 13.476562l-7.992187 10.007813 35.320312 48.320312 60.671875 9.671875v-7.328125l.457031-19.390625c4.984375-29.917968 15.558594-58.632812 31.167969-84.648437l.375-.632813zm0 0" fill="#a0d468"/><path d="m162.828125 219.566406c-29.984375-44.980468-80.472656-72-134.527344-72h-9.472656l.382813.632813c15.601562 26.015625 26.175781 54.730469 31.160156 84.648437l.457031 2.71875 58 14.328125zm0 0" fill="#8cc152"/><path d="m122.828125 483.566406c-61.855469 0-112-50.140625-112-112v-48c0-61.855468 50.144531-112 112-112s112 50.144532 112 112v48c0 61.859375-50.144531 112-112 112zm0 0" fill="#fcd770"/><path d="m203.09375 234.625.078125-.457031c4.832031-29.03125 14.976563-56.566407 30.496094-82.457031l7.34375-12.144532h-23.65625c-3.992188 0-7.953125.1875-11.894531.457032 5.269531-16.558594 13.0625-32.054688 23.550781-46.046876l17.367187-23.136718-59.320312 13.679687c1.113281-24.039062 6.210937-47.542969 15.195312-69.992187l5.8125-14.527344-37.382812 9.359375c-23.351563 5.832031-43.375 20.664063-55.96875 40.992187-15.191406-11.472656-32.152344-20.648437-50.550782-26.777343l-24.640624-8.199219 5.71875 22.847656c2.890624 11.554688 4.625 23.371094 5.273437 35.257813-9.398437-2.464844-18.96875-4.382813-28.695313-5.601563l-21.535156-2.695312 24.3125 30.402344c10.222656 12.773437 16.4375 28.40625 17.894532 44.644531-4.703126-.390625-9.425782-.664063-14.191407-.664063h-9.472656l-13.742187.632813 7.261718 12.121093c15.160156 25.273438 25.296875 52.816407 30.136719 81.839844l.078125.457032c-24.335938 21.984374-39.734375 53.664062-39.734375 88.949218v48c0 66.167969 53.832031 120 120 120s120-53.832031 120-120v-48c0-35.285156-15.398437-66.964844-39.734375-88.941406zm7.734375 40.941406v-7.167968c2.601563 4.128906 4.9375 8.425781 6.945313 12.921874l-14.945313 14.9375-28.6875-28.691406 19.734375-19.734375c3.871094 3.640625 7.472656 7.550781 10.753906 11.734375h-9.800781v16zm-6.199219 160c-3.28125 4.1875-6.882812 8.097656-10.753906 11.738282l-19.734375-19.738282 28.6875-28.6875 14.945313 14.945313c-2.007813 4.488281-4.34375 8.792969-6.945313 12.917969v-7.175782h-16v16zm-163.601562 0h9.800781v-16h-16v7.167969c-2.601563-4.125-4.9375-8.421875-6.945313-12.917969l14.945313-14.9375 28.6875 28.6875-19.734375 19.738282c-3.875-3.640626-7.472656-7.550782-10.753906-11.738282zm0-176c3.28125-4.183594 6.878906-8.09375 10.753906-11.734375l19.734375 19.734375-28.6875 28.691406-14.945313-14.945312c2.007813-4.488281 4.34375-8.792969 6.945313-12.921875v7.175781h16v-16zm161.800781 116.691406-28.6875-28.691406 28.6875-28.6875 24 24v9.378906zm-160-57.378906 28.6875 28.6875-28.6875 28.691406-24-24v-9.378906zm40 17.378906-28.6875-28.691406 28.6875-28.6875 28.6875 28.6875zm40-17.378906 28.6875 28.6875-28.6875 28.691406-28.6875-28.691406zm-40 40 28.6875 28.6875-28.6875 28.691406-28.6875-28.691406zm40 40 28.6875 28.6875-28.6875 28.691406-28.6875-28.691406zm11.3125-11.3125 28.6875-28.6875 28.6875 28.6875-28.6875 28.691406zm28.6875-51.308594-28.6875-28.691406 28.6875-28.6875 28.6875 28.6875zm-40-40-28.6875-28.691406 28.6875-28.6875 28.6875 28.6875zm11.3125-68.691406 6.375-6.375c14.945313 2.578125 28.824219 8.265625 40.871094 16.503906l-18.558594 18.5625zm-29-6.375 6.375 6.375-28.6875 28.691406-18.558594-18.5625c12.046875-8.238281 25.925781-13.925781 40.871094-16.503906zm-73.625 86.375-12.511719 12.511719c.25-7.542969 1.3125-14.871094 3.097656-21.925781zm0 80-9.414063 9.417969c-1.785156-7.054687-2.839843-14.382813-3.097656-21.929687zm51.3125 51.3125 28.6875 28.6875-6.375 6.378906c-14.945313-2.578124-28.824219-8.265624-40.871094-16.503906zm51.3125 28.6875 28.6875-28.6875 18.558594 18.5625c-12.046875 8.238282-25.925781 13.925782-40.871094 16.503906zm80-80 12.511719-12.511718c-.25 7.546874-1.3125 14.875-3.097656 21.929687zm0-80 9.414063-9.414062c1.785156 7.054687 2.839843 14.382812 3.097656 21.925781zm-25.097656-83.980468c-6.75-4.488282-13.992188-8.265626-21.605469-11.328126-8.875-12.730468-19.289062-24.019531-30.9375-33.671874 23.089844-14.328126 49.273438-22.210938 76.566406-22.953126-11.34375 21.375-19.277344 44.191407-24.023437 67.953126zm19.121093-127.507813c-8.96875 14.257813-15.632812 29.722656-20.078124 46.082031-23.25 4.039063-45.320313 12.9375-65.171876 26.265625-1.871093-1.257812-3.726562-2.539062-5.644531-3.722656 11.230469-32.183594 37.949219-56.40625 71.636719-64.183594zm-33.59375-71.199219 7.617188-1.902344c-6.992188 21.429688-10.625 43.648438-11.144531 66.261719-4.941407 1.824219-9.710938 3.976563-14.304688 6.417969-8.367187-12.984375-18.300781-24.710938-29.574219-34.976562 10.304688-17.785157 27.375-30.792969 47.40625-35.800782zm-112.527343 14.890625c33.527343 11.886719 61.898437 34.550781 81.144531 64.34375-4.144531 3.007813-8.0625 6.285157-11.75 9.808594-19.570312-15.472656-41.410156-27.507813-64.753906-35.578125-.335938-12.976562-1.839844-25.910156-4.640625-38.574219zm-23.941407 47.109375c30.070313 6.546875 58.199219 19.832032 82.542969 38.875-7.367187 9.300782-13.304687 19.8125-17.570312 31.214844-13.988281-6.871094-28.925781-11.847656-44.460938-14.65625-1.082031-20.066406-8.210937-39.519531-20.511719-55.433594zm-5.546874 68.746094c41.800781 1.152344 80.816406 19.183594 108.714843 49.511719-6.027343-.9375-12.152343-1.570313-18.441406-1.570313-24.464844 0-47.222656 7.394532-66.214844 20.019532-4.722656-23.617188-12.601562-46.328126-24.058593-67.960938zm0 0"/><path d="m114.828125 339.566406h16v16h-16zm0 0"/><path d="m194.828125 339.566406h16v16h-16zm0 0"/><path d="m34.828125 339.566406h16v16h-16zm0 0"/><path d="m114.828125 419.566406h16v16h-16zm0 0"/><path d="m114.828125 259.566406h16v16h-16zm0 0"/></svg>