<svg height="496pt" viewBox="-40 0 496 496" width="496pt" xmlns="http://www.w3.org/2000/svg"><path d="m192 32-14.527344 47.734375c-27.410156 90.066406-71.3125 174.242187-129.472656 248.265625h160v-296zm0 0" fill="#ff826e"/><path d="m378.207031 288.359375c-33.109375-95.199219-85.621093-182.503906-154.207031-256.359375h-10.664062v296h178.664062zm0 0" fill="#ff826e"/><path d="m208 328v-296h-16l-14.527344 47.734375c-.457031 1.496094-1 2.960937-1.472656 4.457031v243.808594zm0 0" fill="#fc6e51"/><path d="m213.335938 32v296h26.664062v-278.121094c-5.238281-6.03125-10.550781-12.015625-16-17.878906zm0 0" fill="#fc6e51"/><g fill="#ffeaa7"><path d="m224.976562 248.167969-.976562-.167969h-16v80h184c-47.039062-41.816406-104.9375-69.496094-167.023438-79.832031zm0 0"/><path d="m350.136719 219.289062c-14.785157-31.640624-31.847657-62.128906-50.992188-91.289062h-7.367187c-23.519532 0-46.730469 5.480469-67.777344 16l-16 8v40h16.449219c43.398437 0 86.261719 9.328125 125.6875 27.289062zm0 0"/><path d="m129.167969 199.929688c-15.335938 30.476562-32.71875 59.878906-52.039063 88.070312h18.304688c36.214844 0 70.957031-14.390625 96.566406-40l8-8v-80.335938l-8 8.335938c-14.871094 19.832031-38.097656 31.566406-62.832031 31.929688zm0 0"/></g><path d="m224 248h-16v80h32v-76.785156c-4.992188-1.070313-9.96875-2.207032-15.023438-3.046875zm0 0" fill="#fcd770"/><path d="m208 152v40h16.449219c5.191406 0 10.382812.152344 15.550781.414062v-55.292968c-5.449219 1.976562-10.792969 4.269531-16 6.871094zm0 0" fill="#fcd770"/><path d="m200 240v-80.335938l-8 8.335938c-4.585938 6.113281-10.03125 11.351562-16 15.824219v77.671875c5.609375-4.105469 11.023438-8.519532 16-13.503906zm0 0" fill="#fcd770"/><path d="m192 392.03125v-368.03125c0-8.839844 7.160156-16 16-16 8.832031 0 16 7.160156 16 16v368.03125zm0 0" fill="#dfb28b"/><path d="m192 344h32v24h-32zm0 0" fill="#cf9e76"/><path d="m382.625 488h-246.625c-70.695312 0-128-57.304688-128-128h400v25.375c0 14.480469-5.761719 28.386719-16 38.625 10.238281 10.238281 16 24.144531 16 38.625 0 14.015625-11.359375 25.375-25.375 25.375zm0 0" fill="#cf9e76"/><path d="m416 352h-184v-16h171.246094l-17.484375-50.265625c-33.328125-95.832031-85.097657-182.167969-153.761719-256.75v-4.984375c0-13.230469-10.769531-24-24-24s-24 10.769531-24 24v6.800781l-14.183594 46.605469c-27.222656 89.472656-70.320312 172.121094-128.105468 245.648438l-10.175782 12.945312h152.464844v16h-184v8c0 74.992188 61.007812 136 136 136h246.625c18.40625 0 33.375-14.96875 33.375-33.375 0-13.960938-4.800781-27.671875-13.34375-38.625 8.542969-10.953125 13.34375-24.664062 13.34375-38.625zm-16 32h-241.207031c-36.410157 0-72.023438-5.441406-106.386719-16h347.59375zm-105.28125-248c14.183594 21.878906 27.136719 44.511719 38.855469 67.847656-32.566407-12.238281-66.613281-18.816406-101.574219-19.648437v-35.09375c18.6875-8.554688 39.230469-13.105469 59.777344-13.105469zm-62.71875 121.742188c50.296875 9.730468 97.433594 30.945312 137.800781 62.257812h-137.800781zm143.230469 46.394531c-42.199219-31.671875-91.117188-53.105469-143.230469-62.703125v-41.234375c38.855469.976562 76.527344 9.425781 112.136719 25.234375 9.824219 21.320312 18.726562 43.152344 26.519531 65.550781zm-90.925781-183.914063c-17.914063.855469-35.671876 4.769532-52.304688 11.472656v-78.535156c18.800781 21.441406 36.304688 43.769532 52.304688 67.0625zm-100.304688 124.25c-24.007812 22.871094-55.289062 35.527344-88.566406 35.527344h-3.25c15.390625-23.40625 29.585937-47.503906 42.289062-72.382812 18.199219-1.371094 35.566406-8.304688 49.535156-19.792969v56.648437zm0-158.984375v79.601563c-10.441406 12.949218-25.070312 21.839844-41.167969 25.261718 16.175781-33.777343 29.992188-68.742187 41.167969-104.863281zm-119.761719 234.511719c5.9375-7.886719 11.640625-15.921875 17.25-24h13.9375c32.519531 0 63.328125-10.777344 88.566407-30.449219v54.449219zm135.761719-296c0-4.40625 3.585938-8 8-8s8 3.59375 8 8v328h-16zm182.625 456h-246.625c-37.414062 0-70.785156-17.289062-92.808594-44.214844 50.449219 18.695313 103.296875 28.214844 157.472656 28.214844h112.640626v-16h-112.640626c-59.679687 0-117.679687-11.960938-172.488281-35.441406-2.03125-4.152344-3.792969-8.453125-5.34375-12.863282 48.601563 21.144532 101.625 32.304688 154.617188 32.304688h14.550781v-16h-14.550781c-55.066407 0-110.136719-12.632812-159.832031-36.359375-.402344-2.417969-.601563-4.898437-.855469-7.359375 45.261719 18.328125 92.957031 27.71875 142.03125 27.71875h238.792969c-1.945313 5.863281-5.042969 11.320312-9.113282 16h-180.472656v16h180.464844c4.070312 4.679688 7.167968 10.136719 9.109375 16h-69.773438v16h72.054688c-.710938 8.929688-8.121094 16-17.230469 16zm0 0"/></svg>