<svg height="495pt" viewBox="-23 0 495 495.9197" width="495pt" xmlns="http://www.w3.org/2000/svg"><path d="m184.460938 281.214844c0-27.398438 3.816406-54.65625 11.34375-81l4.65625-16.296875c0-56.902344-19.6875-112.0625-55.730469-156.109375l-5.804688-7.105469c-24.875-20.328125-56.699219-14.953125-73.664062 5.792969l-1.082031 1.3125c-36.03125 44.046875-55.71875 99.207031-55.71875 156.109375l4.65625 16.296875c7.519531 26.34375 11.34375 53.601562 11.34375 81 0 9.800781-.488282 19.585937-1.464844 29.335937l-1.519532 15.226563c-3.34375 33.40625-5.015624 66.964844-5.015624 100.535156 0 13.984375 4.765624 27.558594 13.496093 38.488281 11.695313 14.613281 29.398438 23.117188 48.109375 23.117188h52.785156c18.710938 0 36.417969-8.503907 48.113282-23.125 8.726562-10.921875 13.496094-24.496094 13.496094-38.480469 0-33.570312-1.671876-67.128906-5.015626-100.527344l-1.519531-15.226562c-.984375-9.757813-1.464843-19.542969-1.464843-29.34375zm0 0" fill="#ecc19c"/><path d="m424.460938 281.214844c0-27.398438 3.816406-54.65625 11.34375-81l4.65625-16.296875c0-56.902344-19.6875-112.0625-55.730469-156.109375l-5.804688-7.105469c-24.875-20.328125-56.699219-14.953125-73.664062 5.792969l-1.082031 1.3125c-36.03125 44.046875-55.71875 99.207031-55.71875 156.109375l4.65625 16.296875c7.519531 26.34375 11.34375 53.601562 11.34375 81 0 9.800781-.488282 19.585937-1.464844 29.335937l-1.519532 15.226563c-3.34375 33.40625-5.015624 66.964844-5.015624 100.535156 0 13.984375 4.765624 27.558594 13.496093 38.488281 11.695313 14.613281 29.398438 23.117188 48.109375 23.117188h52.785156c18.710938 0 36.417969-8.503907 48.113282-23.125 8.726562-10.921875 13.496094-24.496094 13.496094-38.480469 0-33.570312-1.671876-67.128906-5.015626-100.527344l-1.519531-15.226562c-.984375-9.757813-1.464843-19.542969-1.464843-29.34375zm0 0" fill="#ecc19c"/><path d="m56.5 164c.304688 14.566406 2.238281 29.0625 5.785156 43.199219l4.359375 17.441406c3.863281 15.453125 5.816407 31.34375 5.816407 47.277344v23.160156c0 5.890625-.265626 11.785156-.800782 17.648437l-6.398437 70.386719c-.53125 5.863281-.800781 11.757813-.800781 17.644531v23.160157c0 8.832031 7.160156 16 16 16h48c8.832031 0 16-7.167969 16-16v-23.160157c0-5.886718-.265626-11.78125-.800782-17.644531l-6.398437-70.386719c-.53125-5.863281-.800781-11.757812-.800781-17.648437v-23.160156c0-15.933594 1.949218-31.824219 5.816406-47.277344l4.359375-17.441406c3.535156-14.167969 5.480469-28.6875 5.78125-43.28125l-39.460938-68h-16.496093zm0 0" fill="#fcd770"/><path d="m296.5 164c.304688 14.566406 2.238281 29.0625 5.785156 43.199219l4.359375 17.441406c3.863281 15.453125 5.816407 31.34375 5.816407 47.277344v23.160156c0 5.890625-.265626 11.785156-.800782 17.648437l-6.398437 70.386719c-.53125 5.863281-.800781 11.757813-.800781 17.644531v23.160157c0 8.832031 7.160156 16 16 16h48c8.832031 0 16-7.167969 16-16v-23.160157c0-5.886718-.265626-11.78125-.800782-17.644531l-6.398437-70.386719c-.53125-5.863281-.800781-11.757812-.800781-17.648437v-23.160156c0-15.933594 1.949218-31.824219 5.816406-47.277344l4.359375-17.441406c3.535156-14.167969 5.480469-28.6875 5.78125-43.28125l-39.957031-68h-16.503907zm0 0" fill="#fcd770"/><path d="m104.460938 95.917969h-8l-25.066407 42.699219c4.371094 4.0625 9.640625 6.832031 15.386719 7.984374 5.191406 3.460938 11.292969 5.316407 17.679688 5.316407 6.382812 0 12.480468-1.855469 17.679687-5.316407 5.800781-1.160156 11.136719-3.96875 15.519531-8.113281l-24.703125-42.570312zm0 0" fill="#b27946"/><path d="m344.386719 95.917969h-8l-25.0625 42.699219c4.367187 4.0625 9.640625 6.832031 15.382812 7.984374 5.199219 3.460938 11.296875 5.316407 17.679688 5.316407 6.386719 0 12.488281-1.855469 17.679687-5.316407 5.808594-1.160156 11.136719-3.96875 15.519532-8.113281l-24.695313-42.570312zm0 0" fill="#b27946"/><path d="m262.15625 245.558594.558594 2.511718.65625 7.847657 11.609375-38.574219c8.894531-32.601562 24.367187-63.039062 45.480469-89.425781l24-16 24 16c21.109374 26.386719 36.582031 56.824219 45.480468 89.425781l10.519532 38.574219 2.304687-10.351563c1.855469-15.3125 4.796875-30.488281 9.039063-45.351562l4.65625-16.296875-1.097657-2.175781c-15.085937-30.191407-36.550781-56.734376-62.902343-77.824219h-64c-26.351563 21.089843-47.816407 47.632812-62.90625 77.824219l-1.09375 2.175781 4.65625 16.296875c4.238281 14.871094 7.175781 30.03125 9.039062 45.34375zm0 0" fill="#fcd770"/><path d="m23.628906 259.625 1.464844-6.035156 9.886719-36.246094c8.894531-32.601562 24.367187-63.039062 45.480469-89.425781l24-16 24 16c21.109374 26.386719 36.582031 56.824219 45.480468 89.425781l10.519532 38.574219.800781 4.019531c1.460937-20.195312 4.972656-40.210938 10.542969-59.722656l4.65625-16.296875-1.097657-2.175781c-15.085937-30.191407-36.550781-56.734376-62.902343-77.824219h-64c-26.351563 21.089843-47.816407 47.632812-62.90625 77.824219l-1.09375 2.175781 4.65625 16.296875c5.542968 19.410156 9.039062 39.3125 10.511718 59.410156zm0 0" fill="#fcd770"/><path d="m136.460938 103.917969c0-4.414063-1.792969-8.414063-4.6875-11.308594 0-4.097656-1.5625-8.1875-4.691407-11.3125-3.125-3.128906-7.214843-4.6875-11.308593-4.6875-2.898438-2.898437-6.890626-4.691406-11.3125-4.691406-4.417969 0-8.417969 1.792969-11.3125 4.691406-4.097657 0-8.183594 1.558594-11.3125 4.6875-3.128907 3.125-4.6875 7.214844-4.6875 11.3125-2.898438 2.894531-4.6875 6.894531-4.6875 11.308594 0 4.417969 1.789062 8.417969 4.6875 11.3125 0 4.097656 1.558593 8.183593 4.6875 11.3125 3.128906 3.128906 7.214843 4.6875 11.3125 4.6875 2.894531 2.898437 6.894531 4.6875 11.3125 4.6875 4.421874 0 8.414062-1.789063 11.3125-4.6875 4.09375 0 8.183593-1.558594 11.308593-4.6875 3.128907-3.128907 4.691407-7.214844 4.691407-11.3125 2.894531-2.894531 4.6875-6.894531 4.6875-11.3125zm0 0" fill="#ff826e"/><path d="m376.460938 103.917969c0-4.414063-1.792969-8.414063-4.6875-11.308594 0-4.097656-1.5625-8.1875-4.691407-11.3125-3.125-3.128906-7.214843-4.6875-11.308593-4.6875-2.898438-2.898437-6.890626-4.691406-11.3125-4.691406-4.417969 0-8.417969 1.792969-11.3125 4.691406-4.097657 0-8.183594 1.558594-11.3125 4.6875-3.128907 3.125-4.6875 7.214844-4.6875 11.3125-2.898438 2.894531-4.6875 6.894531-4.6875 11.308594 0 4.417969 1.789062 8.417969 4.6875 11.3125 0 4.097656 1.558593 8.183593 4.6875 11.3125 3.128906 3.128906 7.214843 4.6875 11.3125 4.6875 2.894531 2.898437 6.894531 4.6875 11.3125 4.6875 4.421874 0 8.414062-1.789063 11.3125-4.6875 4.09375 0 8.183593-1.558594 11.308593-4.6875 3.128907-3.128907 4.691407-7.214844 4.691407-11.3125 2.894531-2.894531 4.6875-6.894531 4.6875-11.3125zm0 0" fill="#ff826e"/><path d="m96.460938 95.917969h16v16h-16zm0 0"/><path d="m145.125 15.648438-1.136719-1.136719c-26.617187-21.753907-63.929687-18.726563-84.90625 6.902343l-1.09375 1.328126c-37.097656 45.34375-57.527343 102.59375-57.527343 161.175781l4.957031 18.496093c7.328125 25.640626 11.042969 52.152344 11.042969 78.800782 0 9.519531-.480469 19.128906-1.425782 28.535156l-1.519531 15.226562c-3.351563 33.519532-5.054687 67.613282-5.054687 101.335938 0 15.742188 5.414062 31.175781 15.246093 43.488281 13.289063 16.597657 33.105469 26.117188 54.359375 26.117188h52.785156c21.257813 0 41.074219-9.519531 54.359376-26.125 9.832031-12.304688 15.25-27.738281 15.25-43.480469 0-33.722656-1.707032-67.816406-5.058594-101.328125l-1.519532-15.226563c-.941406-9.414062-1.421874-19.015624-1.421874-28.542968 0-26.648438 3.710937-53.167969 11.039062-78.808594l4.65625-16.292969.304688-2.195312c0-58.582031-20.433594-115.832031-57.527344-161.167969zm-74.761719 17.238281 1.097657-1.328125c13.109374-16.023438 39.144531-23.167969 61.800781-5.152344l5.277343 6.464844c27.542969 33.664062 45.089844 74.359375 51.273438 117.105468-12.816406-18.710937-28.25-35.664062-45.6875-50.050781-.640625-3.839843-2.191406-7.445312-4.570312-10.542969-.695313-5.183593-3.054688-9.976562-6.824219-13.742187-3.765625-3.769531-8.550781-6.128906-13.742188-6.824219-8.3125-6.359375-20.769531-6.359375-29.082031 0-5.183594.695313-9.972656 3.054688-13.742188 6.824219-3.769531 3.765625-6.128906 8.550781-6.824218 13.742187-2.375 3.105469-3.929688 6.703126-4.566406 10.542969-17.441407 14.386719-32.875 31.347657-45.691407 50.050781 6.210938-42.738281 23.746094-83.433593 51.28125-117.089843zm112.472657 186.6875-1.183594-4.335938c-8.878906-32.566406-23.886719-62.496093-44.511719-89.109375 1.222656-2.394531 2.054687-4.96875 2.414063-7.664062.226562-.296875.386718-.625.601562-.929688 21.230469 18.863282 38.992188 41.886719 51.75 67.214844l-3.796875 13.28125c-2.035156 7.113281-3.769531 14.304688-5.273437 21.542969zm-53.542969 93.875 6.40625 70.382812c.503906 5.601563.769531 11.296875.769531 16.925781v23.160157c0 4.417969-3.585938 8-8 8h-48c-4.417969 0-8-3.582031-8-8v-23.160157c0-5.628906.253906-11.324218.765625-16.917968l6.410156-70.398438c.535157-6.074218.816407-12.257812.816407-18.363281v-23.160156c0-16.582031-2.042969-33.148438-6.066407-49.214844l-4.359375-17.449219c-3.214844-12.871094-5.015625-26.109375-5.4375-39.382812 5.566406-9.976563 11.878906-19.550782 18.894532-28.71875 2.039062.902344 4.183593 1.566406 6.421874 1.871094 4.160157 3.175781 9.226563 4.894531 14.546876 4.894531 5.320312 0 10.382812-1.71875 14.535156-4.894531 2.238281-.304688 4.382812-.96875 6.421875-1.871094 7.019531 9.167968 13.328125 18.742187 18.898437 28.710937-.425781 13.28125-2.222656 26.527344-5.441406 39.402344l-4.359375 17.4375c-4.015625 16.066406-6.054687 32.632813-6.054687 49.214844v23.160156c0 6.105469.277343 12.289063.832031 18.371094zm-103.210938-93.875c-1.503906-7.238281-3.238281-14.429688-5.269531-21.550781l-3.800781-13.273438c12.753906-25.328125 30.511719-48.351562 51.742187-67.214844.210938.304688.378906.632813.601563.929688.359375 2.695312 1.191406 5.269531 2.417969 7.664062-20.625 26.613282-35.632813 56.542969-44.511719 89.109375zm100.035157-121.308594c1.511718 1.511719 2.34375 3.519531 2.34375 5.652344 0 2.136719-.832032 4.144531-2.34375 5.65625l-2.34375 2.34375v3.3125c0 2.136719-.832032 4.144531-2.34375 5.65625-1.515626 1.503906-3.523438 2.34375-5.65625 2.34375h-3.3125l-2.34375 2.34375c-3.035157 3.015625-8.28125 3.015625-11.3125 0l-2.34375-2.34375h-3.3125c-2.136719 0-4.144532-.832031-5.65625-2.34375-1.503907-1.511719-2.34375-3.519531-2.34375-5.65625v-3.3125l-2.34375-2.34375c-1.511719-1.511719-2.34375-3.519531-2.34375-5.65625 0-2.132813.832031-4.140625 2.34375-5.652344l2.34375-2.347656v-3.308594c0-2.136719.832031-4.144531 2.34375-5.65625 1.511718-1.503906 3.519531-2.34375 5.65625-2.34375h3.3125l2.34375-2.34375c3.03125-3.019531 8.277343-3.019531 11.3125 0l2.34375 2.34375h3.3125c2.132812 0 4.140624.832031 5.65625 2.34375 1.503906 1.511719 2.34375 3.519531 2.34375 5.65625v3.308594zm46.589843 361.527344c-10.222656 12.789062-25.480469 20.125-41.855469 20.125h-52.785156c-16.375 0-31.628906-7.335938-41.855468-20.125-7.582032-9.464844-11.75-21.359375-11.75-33.480469 0-33.191406 1.671874-66.753906 4.976562-99.738281l1.519531-15.222657c1-9.945312 1.503907-20.078124 1.503907-30.136718 0-7.152344-.265626-14.296875-.769532-21.421875.160156-.59375.328125-1.136719.488282-1.769531l10.519531-38.582032c2.402343-8.800781 5.328125-17.386718 8.664062-25.769531.878907 5.191406 1.878907 10.359375 3.160157 15.457031l4.359374 17.4375c3.703126 14.824219 5.578126 30.074219 5.578126 45.351563v23.160156c0 5.632813-.257813 11.328125-.769532 16.921875l-6.40625 70.398438c-.546875 6.074218-.824218 12.257812-.824218 18.359374v23.160157c0 13.234375 10.765624 24 24 24h48c13.230468 0 24-10.765625 24-24v-23.160157c0-6.109374-.28125-12.285156-.832032-18.375l-6.410156-70.382812c-.503906-5.59375-.757812-11.289062-.757812-16.921875v-23.160156c0-15.277344 1.871093-30.527344 5.574218-45.34375l4.359375-17.4375c1.28125-5.105469 2.28125-10.273438 3.152344-15.464844 3.335937 8.382813 6.265625 16.96875 8.664063 25.769531l10.519531 38.574219c.160156.632813.328125 1.183594.488281 1.769531-.496094 7.132813-.757812 14.277344-.757812 21.429688 0 10.058594.503906 20.183594 1.503906 30.136718l1.519531 15.222657c3.304687 32.984375 4.976563 66.539062 4.976563 99.738281 0 12.121094-4.167969 24.015625-11.753907 33.480469zm0 0"/><path d="m336.460938 95.917969h16v16h-16zm0 0"/><path d="m390.933594 22.75-5.808594-7.101562-1.136719-1.136719c-26.617187-21.753907-63.9375-18.726563-84.90625 6.902343l-1.09375 1.328126c-37.097656 45.34375-57.527343 102.59375-57.527343 161.175781l4.957031 18.496093c7.328125 25.640626 11.042969 52.160157 11.042969 78.808594 0 9.519532-.480469 19.128906-1.425782 28.535156l-1.519531 15.226563c-3.351563 33.511719-5.054687 67.605469-5.054687 101.328125 0 15.742188 5.414062 31.175781 15.246093 43.488281 13.289063 16.597657 33.105469 26.117188 54.359375 26.117188h52.785156c21.257813 0 41.074219-9.519531 54.359376-26.125 9.832031-12.304688 15.25-27.738281 15.25-43.480469 0-33.722656-1.707032-67.816406-5.058594-101.328125l-1.519532-15.226563c-.941406-9.414062-1.421874-19.015624-1.421874-28.542968 0-26.648438 3.710937-53.167969 11.039062-78.808594l4.65625-16.292969.304688-2.195312c0-58.582031-20.433594-115.832031-57.527344-161.167969zm31.902344 196.824219-1.183594-4.335938c-8.878906-32.566406-23.886719-62.496093-44.511719-89.109375 1.222656-2.394531 2.054687-4.96875 2.414063-7.664062.226562-.296875.386718-.625.601562-.929688 21.230469 18.863282 38.992188 41.886719 51.75 67.214844l-3.796875 13.28125c-2.035156 7.113281-3.769531 14.304688-5.273437 21.542969zm-53.542969 93.875 6.40625 70.382812c.503906 5.601563.769531 11.296875.769531 16.925781v23.160157c0 4.417969-3.585938 8-8 8h-48c-4.417969 0-8-3.582031-8-8v-23.160157c0-5.628906.253906-11.324218.765625-16.917968l6.410156-70.398438c.535157-6.074218.816407-12.257812.816407-18.363281v-23.160156c0-16.582031-2.042969-33.148438-6.066407-49.214844l-4.359375-17.449219c-3.214844-12.871094-5.015625-26.109375-5.4375-39.382812 5.566406-9.976563 11.878906-19.550782 18.894532-28.71875 2.039062.902344 4.183593 1.566406 6.421874 1.871094 4.160157 3.175781 9.226563 4.894531 14.546876 4.894531 5.320312 0 10.382812-1.71875 14.535156-4.894531 2.238281-.304688 4.382812-.96875 6.421875-1.871094 7.019531 9.167968 13.328125 18.742187 18.898437 28.710937-.425781 13.28125-2.222656 26.527344-5.441406 39.402344l-4.359375 17.4375c-4.015625 16.066406-6.054687 32.632813-6.054687 49.214844v23.160156c0 6.105469.277343 12.289063.832031 18.371094zm-103.210938-93.875c-1.503906-7.238281-3.238281-14.429688-5.269531-21.550781l-3.800781-13.273438c12.753906-25.328125 30.511719-48.351562 51.742187-67.214844.210938.304688.378906.632813.601563.929688.359375 2.695312 1.191406 5.269531 2.417969 7.664062-20.625 26.613282-35.632813 56.542969-44.511719 89.109375zm100.035157-121.308594c1.511718 1.511719 2.34375 3.519531 2.34375 5.652344 0 2.136719-.832032 4.144531-2.34375 5.65625l-2.34375 2.34375v3.3125c0 2.136719-.832032 4.144531-2.34375 5.65625-1.515626 1.503906-3.523438 2.34375-5.65625 2.34375h-3.3125l-2.34375 2.34375c-3.035157 3.015625-8.28125 3.015625-11.3125 0l-2.34375-2.34375h-3.3125c-2.136719 0-4.144532-.832031-5.65625-2.34375-1.503907-1.511719-2.34375-3.519531-2.34375-5.65625v-3.3125l-2.34375-2.34375c-1.511719-1.511719-2.34375-3.519531-2.34375-5.65625 0-2.132813.832031-4.140625 2.34375-5.652344l2.34375-2.347656v-3.308594c0-2.136719.832031-4.144531 2.34375-5.65625 1.511718-1.503906 3.519531-2.34375 5.65625-2.34375h3.3125l2.34375-2.34375c3.03125-3.019531 8.277343-3.019531 11.3125 0l2.34375 2.34375h3.3125c2.132812 0 4.140624.832031 5.65625 2.34375 1.503906 1.511719 2.34375 3.519531 2.34375 5.65625v3.308594zm-55.753907-65.378906 1.097657-1.328125c13.109374-16.023438 39.136718-23.167969 61.800781-5.152344l5.277343 6.464844c27.542969 33.664062 45.089844 74.359375 51.273438 117.105468-12.816406-18.710937-28.25-35.664062-45.6875-50.050781-.640625-3.839843-2.191406-7.445312-4.570312-10.542969-.695313-5.183593-3.054688-9.976562-6.824219-13.742187-3.765625-3.769531-8.550781-6.128906-13.742188-6.824219-8.3125-6.359375-20.769531-6.359375-29.082031 0-5.183594.695313-9.972656 3.054688-13.742188 6.824219-3.769531 3.765625-6.128906 8.550781-6.824218 13.742187-2.375 3.105469-3.929688 6.703126-4.566406 10.542969-17.441407 14.386719-32.875 31.347657-45.691407 50.050781 6.210938-42.738281 23.746094-83.433593 51.28125-117.089843zm102.34375 426.90625c-10.222656 12.789062-25.480469 20.125-41.855469 20.125h-52.785156c-16.375 0-31.628906-7.335938-41.855468-20.125-7.582032-9.464844-11.75-21.359375-11.75-33.480469 0-33.191406 1.671874-66.753906 4.976562-99.738281l1.519531-15.222657c1-9.945312 1.503907-20.078124 1.503907-30.136718 0-7.152344-.265626-14.296875-.769532-21.421875.160156-.59375.328125-1.136719.488282-1.769531l10.519531-38.574219c2.402343-8.800781 5.328125-17.386719 8.664062-25.769531.878907 5.191406 1.878907 10.359374 3.160157 15.457031l4.359374 17.4375c3.703126 14.816406 5.578126 30.066406 5.578126 45.34375v23.160156c0 5.632813-.257813 11.328125-.769532 16.921875l-6.40625 70.398438c-.546875 6.074218-.824218 12.257812-.824218 18.359374v23.160157c0 13.234375 10.765624 24 24 24h48c13.230468 0 24-10.765625 24-24v-23.160157c0-6.109374-.28125-12.285156-.832032-18.375l-6.410156-70.382812c-.503906-5.59375-.757812-11.289062-.757812-16.921875v-23.160156c0-15.277344 1.871093-30.527344 5.574218-45.34375l4.359375-17.4375c1.28125-5.105469 2.28125-10.273438 3.152344-15.464844 3.335937 8.382813 6.265625 16.96875 8.664063 25.769531l10.519531 38.574219c.160156.632813.328125 1.183594.488281 1.769531-.496094 7.132813-.757812 14.277344-.757812 21.429688 0 10.058594.503906 20.183594 1.503906 30.136718l1.519531 15.222657c3.304687 32.984375 4.976563 66.539062 4.976563 99.738281 0 12.121094-4.167969 24.015625-11.753907 33.480469zm0 0"/></svg>