<svg height="496pt" viewBox="0 0 496 496" width="496pt" xmlns="http://www.w3.org/2000/svg"><path d="m112 55.738281-42.34375-42.34375c-3.625-3.621093-8.527344-5.65625-13.65625-5.65625s-10.03125 2.035157-13.65625 5.65625l-28.6875 28.691407c-3.625 3.621093-5.65625 8.527343-5.65625 13.652343 0 5.128907 2.03125 10.035157 5.65625 13.65625l42.34375 42.34375zm0 0" fill="#cf9e76"/><path d="m64 151.738281-18.34375-18.34375c-3.625-3.621093-5.65625-8.527343-5.65625-13.65625 0-5.125 2.03125-10.03125 5.65625-13.652343l60.6875-60.691407c3.625-3.621093 8.527344-5.65625 13.65625-5.65625s10.03125 2.035157 13.65625 5.65625l18.34375 18.34375zm0 0" fill="#f5e0cd"/><path d="m215.574219 375.316406 21.914062 21.910156c57.960938 57.960938 136.558594 90.511719 218.511719 90.511719 17.671875 0 32-14.328125 32-32v-8l-3.6875-11.054687c-2.855469-8.566406-4.3125-17.550782-4.3125-26.589844 0-6.875.839844-13.730469 2.503906-20.402344l2.984375-11.902344c1.664063-6.671874 2.511719-13.527343 2.511719-20.402343 0-23.796875-10.824219-46.300781-29.398438-61.167969l-6.472656-5.175781c-2.753906-2.199219-5.386718-4.550781-7.871094-7.046875l-72.058593-72.054688-147.71875-147.714844c-5.425781-5.429687-12.800781-8.488281-20.480469-8.488281s-15.054688 3.058594-20.488281 8.488281l-119.03125 119.035157c-5.425781 5.421875-8.480469 12.796875-8.480469 20.476562 0 7.683594 3.054688 15.058594 8.480469 20.480469l55.933593 55.9375zm0 0" fill="#f0d0b4"/><path d="m112 263.738281c-2.566406 0-5.089844.226563-7.617188.386719l16.042969 16.039062 111.199219 111.199219c.152344-2.535156.375-5.054687.375-7.625 0-66.167969-53.832031-120-120-120zm0 0" fill="#dfb28b"/><path d="m216 383.738281c0 57.4375-46.5625 104-104 104s-104-46.5625-104-104 46.5625-104 104-104 104 46.5625 104 104zm0 0" fill="#fcd770"/><path d="m72 191.738281-18.34375-18.34375c-3.625-3.621093-5.65625-8.527343-5.65625-13.65625 0-5.125 2.03125-10.03125 5.65625-13.652343l92.6875-92.691407c3.625-3.621093 8.527344-5.65625 13.65625-5.65625s10.03125 2.035157 13.65625 5.65625l18.34375 18.34375zm0 0" fill="#dfb28b"/><path d="m221.414062 61.699219c-5.007812-3.773438-11.070312-5.960938-17.414062-5.960938-7.679688 0-15.054688 3.058594-20.488281 8.488281l-119.03125 119.035157c-5.425781 5.421875-8.480469 12.796875-8.480469 20.476562 0 7.683594 3.054688 15.058594 8.480469 20.480469l23.519531 23.519531 160-160zm0 0" fill="#f5e0cd"/><path d="m488 455.738281v-8l-3.6875-11.054687c-2.855469-8.566406-4.3125-17.550782-4.3125-26.589844 0-6.875.839844-13.730469 2.503906-20.402344l2.984375-11.902344c1.664063-6.671874 2.511719-13.527343 2.511719-20.402343 0-23.796875-10.824219-46.300781-29.398438-61.167969l-6.472656-5.175781c-2.753906-2.199219-5.386718-4.550781-7.871094-7.046875l-72.058593-72.054688c12.671875 12.671875 19.800781 29.871094 19.800781 47.796875 0 17.929688 7.128906 35.128907 19.800781 47.800781 28.304688 28.304688 44.199219 66.6875 44.199219 106.703126v73.496093c17.671875 0 32-14.328125 32-32zm0 0" fill="#b27946"/><path d="m112 303.738281c-44.113281 0-80 35.890625-80 80 0 44.113281 35.886719 80 80 80v-16c-35.289062 0-64-28.710937-64-64 0-35.285156 28.710938-64 64-64s64 28.714844 64 64c0 11.417969-4.894531 22.3125-13.441406 29.90625-8.648438 7.6875-19.824219 11.183594-31.453125 9.808594-19.679688-2.320313-35.105469-20.648437-35.105469-41.730469 0-12.125 9.855469-21.984375 21.984375-21.984375 9.9375 0 18.015625 8.082031 18.015625 18.019531v5.980469h16v-5.980469c0-18.761718-15.257812-34.019531-34.015625-34.019531-20.945313 0-37.984375 17.042969-37.984375 37.984375 0 29.539063 21.167969 54.3125 49.230469 57.617188 16.050781 1.871094 32.035156-3.128906 43.960937-13.734375 11.960938-10.625 18.808594-25.882813 18.808594-41.867188 0-44.109375-35.886719-80-80-80zm0 0"/><path d="m488 410.09375c0-6.210938.769531-12.425781 2.265625-18.457031l2.992187-11.914063c1.820313-7.300781 2.742188-14.816406 2.742188-22.335937 0-26.375-11.816406-50.941407-32.398438-67.40625l-6.472656-5.175781c-2.527344-2.03125-4.960937-4.199219-7.21875-6.464844l-219.765625-219.769532c-6.886719-6.886718-16.410156-10.832031-26.144531-10.832031-6.785156 0-13.414062 2.027344-19.175781 5.515625l-5.511719-5.515625c-9.183594-9.191406-24.441406-10.140625-34.960938-2.957031l-5.039062-5.042969c-9.183594-9.191406-24.441406-10.140625-34.960938-2.957031l-29.039062-29.042969c-10.3125-10.316406-28.3125-10.316406-38.625 0l-28.6875 28.691407c-5.160156 5.148437-8 12.015624-8 19.308593 0 7.296875 2.839844 14.160157 8 19.3125l29.007812 29.007813c-3.214843 4.570312-5.007812 9.976562-5.007812 15.679687 0 7.296875 2.839844 14.160157 8 19.3125l5.007812 5.007813c-3.214843 4.570312-5.007812 9.976562-5.007812 15.679687 0 7.296875 2.839844 14.160157 8 19.3125l5.511719 5.511719c-3.488281 5.761719-5.511719 12.394531-5.511719 19.175781 0 9.730469 3.945312 19.265625 10.832031 26.144531l42.40625 42.410157c-56.726562 5.429687-101.238281 53.328125-101.238281 111.445312 0 61.761719 50.238281 112 112 112 58.121094 0 106.015625-44.511719 111.457031-101.230469l8.382813 8.382813c59.871094 59.875 139.480468 92.847656 224.160156 92.847656 22.054688 0 40-17.941406 40-40v-9.292969l-4.105469-12.289062c-2.582031-7.761719-3.894531-15.855469-3.894531-24.0625zm-320-351.042969 4.6875 4.6875-108.6875 108.691407-4.6875-4.691407c-2.136719-2.132812-3.3125-4.972656-3.3125-8 0-3.023437 1.175781-5.863281 3.3125-8l92.6875-92.6875c4.28125-4.269531 11.71875-4.269531 16 0zm-40-8 4.6875 4.6875-76.6875 76.691407-4.6875-4.691407c-2.136719-2.132812-3.3125-4.972656-3.3125-8 0-3.023437 1.175781-5.863281 3.3125-8l60.6875-60.6875c4.28125-4.269531 11.71875-4.269531 16 0zm-112 4.6875c0-3.023437 1.175781-5.863281 3.3125-8l28.6875-28.6875c4.28125-4.269531 11.71875-4.269531 16 0l28.6875 28.6875-44.6875 44.691407-28.6875-28.691407c-2.136719-2.132812-3.3125-4.972656-3.3125-8zm48 148c0-5.519531 2.238281-10.925781 6.144531-14.832031l119.023438-119.023438c7.816406-7.808593 21.839843-7.808593 29.65625 0l17.863281 17.855469-148.6875 148.691407-17.855469-17.859376c-3.90625-3.902343-6.144531-9.308593-6.144531-14.832031zm48 276c-52.9375 0-96-43.0625-96-96 0-52.933593 43.0625-96 96-96s96 43.066407 96 96c0 52.9375-43.0625 96-96 96zm111.335938-107.972656c-5.574219-52.210937-47.160157-93.785156-99.367188-99.371094l-24.65625-24.65625 148.6875-148.6875 118.542969 118.546875c11.265625 11.253906 17.457031 26.222656 17.457031 42.140625 0 20.195313 7.855469 39.175781 22.144531 53.457031 26.992188 26.992188 41.855469 62.878907 41.855469 101.046876v65.296874c-77.40625-2.007812-149.894531-33.007812-204.847656-87.96875zm253.390624 67.453125 3.273438 9.816406v6.703125c0 10.417969-6.710938 19.21875-16 22.53125v-64.015625c0-42.449218-16.527344-82.355468-46.542969-112.371094-11.265625-11.261718-17.457031-26.222656-17.457031-42.144531 0-3.140625-.257812-6.246093-.632812-9.316406l39.234374 39.230469c2.671876 2.671875 5.535157 5.230468 8.527344 7.632812l6.472656 5.183594c16.78125 13.414062 26.398438 33.429688 26.398438 54.910156 0 6.210938-.769531 12.425782-2.265625 18.457032l-2.992187 11.910156c-1.820313 7.3125-2.742188 14.824218-2.742188 22.347656 0 9.925781 1.585938 19.734375 4.726562 29.125zm0 0"/><path d="m271.710938 168.019531 11.316406-11.3125 13.367187 13.378907-11.316406 11.308593zm0 0"/><path d="m394.832031 324.507812c-17.304687-17.296874-26.832031-40.296874-26.832031-64.769531 0-11.476562-4.65625-22.710937-12.769531-30.832031l-45.574219-45.566406-11.3125 11.3125 45.578125 45.566406c5.132813 5.144531 8.078125 12.25 8.078125 19.519531 0 28.746094 11.191406 55.769531 31.511719 76.082031 20.953125 20.945313 32.488281 48.800782 32.488281 78.421876v39.683593h16v-39.683593c0-33.894532-13.199219-65.765626-37.167969-89.734376zm0 0"/></svg>