<svg height="496pt" viewBox="-24 0 496 496" width="496pt" xmlns="http://www.w3.org/2000/svg"><path d="m424 216v-107.648438c0-26.679687-16.542969-50.550781-41.527344-59.917968l-86.472656-32.433594h-144l-86.472656 32.433594c-24.984375 9.367187-41.527344 33.238281-41.527344 59.917968v107.648438zm0 0" fill="#ffeaa7"/><path d="m424 224.007812v-115.65625c0-26.207031-16.015625-49.632812-40.265625-59.335937-14.78125 54.472656-22.636719 118.585937-23.550781 174.992187zm0 0" fill="#ff826e"/><path d="m24 108.351562v115.65625h63.816406c-.914062-56.40625-8.777344-120.511718-23.550781-174.992187-24.25 9.703125-40.265625 33.128906-40.265625 59.335937zm0 0" fill="#ff826e"/><path d="m24 200h400v16h-400zm0 0" fill="#e9573f"/><path d="m8 216h88v32h-88zm0 0" fill="#ffeaa7"/><path d="m352 216h88v32h-88zm0 0" fill="#ffeaa7"/><path d="m373.191406 361.984375c-8.765625-43.878906-13.191406-88.519531-13.191406-133.28125v-1.695313c0-3.671874.128906-7.335937.175781-11.007812.914063-56.40625 8.777344-112.511719 23.550781-166.984375-.4375-.167969-.832031-.421875-1.261718-.582031l-86.464844-32.433594h-144l-86.472656 32.433594c-.4375.167968-.824219.414062-1.261719.582031 14.78125 54.472656 22.636719 110.578125 23.550781 166.984375.054688 3.671875.183594 7.335938.183594 11.007812v1.695313c0 44.761719-4.425781 89.402344-13.191406 133.28125l-18.808594 94.015625h14.222656c16.992188 0 33.800782 3.558594 49.320313 10.472656l24.90625 11.0625c15.527343 6.90625 32.335937 10.464844 49.328125 10.464844h6.222656l24-72 24 72h6.222656c16.992188 0 33.800782-3.558594 49.320313-10.472656l24.90625-11.0625c15.527343-6.90625 32.335937-10.464844 49.328125-10.464844h14.222656zm0 0" fill="#fcd770"/><path d="m224 88 72-72v-8h-144v8zm0 0" fill="#ffc729"/><path d="m224 88 45.078125 22.535156c1.921875.96875 4.042969 1.464844 6.1875 1.464844 7.191406 0 13.191406-5.511719 13.789063-12.6875l6.945312-83.3125zm0 0" fill="#ff826e"/><path d="m152 16 6.945312 83.3125c.589844 7.175781 6.589844 12.6875 13.789063 12.6875 2.152344 0 4.265625-.496094 6.1875-1.464844l45.078125-22.535156zm0 0" fill="#ff826e"/><path d="m448 208h-16v-99.648438c0-29.839843-18.777344-56.9375-46.71875-67.414062l-81.28125-30.480469v-10.457031h-160v10.457031l-81.28125 30.480469c-27.941406 10.476562-46.71875 37.566406-46.71875 67.414062v99.648438h-16v48h79.320312c-1.433593 35.046875-5.496093 70.0625-12.359374 104.414062l-20.722657 103.585938h23.984375c15.984375 0 31.488282 3.289062 46.074219 9.785156l24.902344 11.0625c16.640625 7.390625 34.335937 11.152344 52.578125 11.152344h11.992187l18.230469-54.703125 18.230469 54.703125h11.992187c18.242188 0 35.929688-3.761719 52.570313-11.160156l24.910156-11.0625c14.585937-6.488282 30.089844-9.777344 46.074219-9.777344h23.984375l-20.722657-103.585938c-6.871093-34.351562-10.925781-69.367187-12.359374-104.414062h79.320312zm-32-99.648438v99.648438h-47.679688c1.40625-49.6875 8.375-99.097656 20.71875-147.382812 16.410157 10.039062 26.960938 28.070312 26.960938 47.734374zm-192-31.664062-28.6875-28.6875h57.375zm-13.503906 9.121094-35.152344 17.574218c-3.503906 1.761719-8.105469-.832031-8.421875-4.734374l-5.128906-61.550782zm75.71875-48.710938-5.125 61.558594c-.328125 3.886719-4.9375 6.496094-8.425782 4.726562l-35.152343-17.574218zm-1.527344-21.097656-16 16h-89.375l-16-16zm-252.6875 92.351562c0-19.664062 10.550781-37.695312 26.96875-47.734374 12.328125 48.222656 19.304688 97.65625 20.71875 147.382812h-47.6875zm-16 131.648438v-16h63.953125c0 1 .046875 2.007812.046875 3.007812v1.695313c0 3.761719-.214844 7.527344-.28125 11.296875zm178.230469 240h-.460938c-15.984375 0-31.488281-3.289062-46.074219-9.785156l-24.902343-11.0625c-16.632813-7.390625-34.328125-11.152344-52.570313-11.152344h-4.460937l16.886719-84.449219c8.855468-44.3125 13.351562-89.679687 13.351562-134.847656v-1.695313c0-58.335937-7.519531-116.449218-22.246094-173.121093l71.148438-26.6875 6.066406 72.761719c.933594 11.238281 10.496094 20.039062 21.765625 20.039062 3.371094 0 6.753906-.800781 9.769531-2.304688l33.496094-16.75v313.75zm188.007812-32h-4.46875c-18.242187 0-35.929687 3.761719-52.570312 11.160156l-24.910157 11.0625c-14.578124 6.488282-30.082031 9.777344-46.066406 9.777344h-.460937l-21.761719-65.296875v-313.757813l33.503906 16.75c3.007813 1.503907 6.390625 2.304688 9.761719 2.304688 11.269531 0 20.832031-8.800781 21.757813-20.023438l6.066406-72.769531 71.140625 26.679688c-14.695313 56.519531-22.230469 114.714843-22.230469 173.121093v1.695313c0 45.167969 4.496094 90.535156 13.351562 134.847656zm49.761719-208h-63.71875c-.066406-3.769531-.28125-7.535156-.28125-11.296875v-1.695313c0-1 .046875-2.007812.046875-3.007812h63.953125zm0 0"/><path d="m248 192h16v16h-16zm0 0"/><path d="m248 144h16v16h-16zm0 0"/><path d="m248 240h16v16h-16zm0 0"/><path d="m248 288h16v16h-16zm0 0"/><path d="m248 336h16v16h-16zm0 0"/><path d="m112 160h88v16h-88zm0 0"/></svg>