<svg height="496pt" viewBox="0 0 496 496" width="496pt" xmlns="http://www.w3.org/2000/svg"><path d="m432 432 1.375 1.375c14.480469 14.480469 34.128906 22.625 54.625 22.625 0-41.847656-11.542969-82.894531-33.375-118.609375-36.289062-59.382813-79.488281-114.253906-128.703125-163.46875l-5.59375-5.59375c-78.671875-78.671875-177.632813-133.976563-285.871094-159.742187-1.640625-.394532-3.304687-.585938-4.976562-.585938-11.863281 0-21.480469 9.617188-21.480469 21.480469 0 1.679687.191406 3.34375.585938 4.976562 25.765624 108.238281 81.070312 207.199219 159.742187 285.871094l5.59375 5.59375c49.207031 49.207031 104.085937 92.414063 163.46875 128.703125 35.714844 21.832031 76.761719 33.375 118.609375 33.375 0-20.496094-8.144531-40.144531-22.625-54.625zm0 0" fill="#b4dd7f"/><path d="m325.921875 173.921875-5.59375-5.59375c-43.398437-43.398437-92.984375-79.632813-146.878906-107.777344l2.550781 3.449219v7.433594c0 36.214844 14.390625 70.957031 40 96.566406 19.097656 19.097656 43.257812 31.953125 69.335938 37.257812l33.289062 3.742188h40.496094l-20.679688-22.175781c-4.144531-4.328125-8.28125-8.65625-12.519531-12.902344zm0 0" fill="#fcd770"/><path d="m325.921875 173.921875-5.59375-5.59375c-22.511719-22.511719-46.742187-43.046875-72.328125-61.59375v4.699219c0 36.214844 14.390625 70.957031 40 96.566406s60.351562 40 96.566406 40h7.433594c-20.609375-25.878906-42.640625-50.640625-66.078125-74.078125zm0 0" fill="#fc6e51"/><path d="m384 384v-49.375c0-4.242188-1.6875-8.3125-4.6875-11.3125-6.25-6.25-16.375-6.25-22.625 0-3 3-4.6875 7.070312-4.6875 11.3125v17.375h-17.375c-4.242188 0-8.3125 1.6875-11.3125 4.6875-6.25 6.25-6.25 16.375 0 22.625 3 3 7.070312 4.6875 11.3125 4.6875zm0 0" fill="#fc6e51"/><path d="m70.238281 176c-2.726562 0-5.390625.28125-8.078125.449219 27.910156 52.726562 63.574219 101.292969 106.167969 143.878906l5.59375 5.59375c12.574219 12.574219 25.527344 24.742187 38.820313 36.511719 1.496093-9.121094 2.410156-18.464844 2.410156-28.050782 0-87.480468-64.878906-158.382812-144.914063-158.382812zm0 0" fill="#fcd770"/><path d="m248 392v-7.433594c0-36.214844-14.390625-70.957031-40-96.566406s-60.351562-40-96.566406-40h-4.699219c18.546875 25.585938 39.082031 49.816406 61.59375 72.328125l5.59375 5.59375c23.4375 23.4375 48.199219 45.46875 74.078125 66.078125zm0 0" fill="#fc6e51"/><path d="m461.457031 333.214844c-36.578125-59.855469-80.273437-115.359375-129.871093-164.949219l-5.59375-5.59375c-79.785157-79.777344-179.953126-135.75-289.679688-161.863281-2.234375-.535156-4.527344-.808594-6.832031-.808594-16.257813 0-29.480469 13.222656-29.480469 29.480469 0 2.304687.273438 4.597656.808594 6.824219 26.121094 109.734374 82.09375 209.902343 161.863281 289.679687l5.59375 5.589844c49.589844 49.601562 105.09375 93.296875 164.949219 129.875 36.976562 22.605469 79.441406 34.550781 122.785156 34.550781h8v-8c0-10.0625-1.734375-19.863281-5.054688-29.054688 9.191407 3.320313 18.992188 5.054688 29.054688 5.054688h8v-8c0-43.34375-11.945312-85.808594-34.542969-122.785156zm-141.191406-153.640625c19.109375 19.113281 37.292969 39.144531 54.542969 59.945312-30.65625-2.289062-59.191406-15.214843-81.160156-37.183593-21.511719-21.511719-34.417969-49.328126-37.089844-79.273438 20.371094 15.648438 39.808594 32.617188 58.105468 50.914062zm-56.9375 10.554687c-15.496094-6.417968-29.65625-15.769531-41.671875-27.785156-23.34375-23.34375-36.472656-54.113281-37.464844-86.96875 19.242188 10.738281 37.855469 22.585938 55.808594 35.410156v.640625c0 28.382813 8.183594 55.46875 23.328125 78.703125zm-152.535156 49.871094c-12.832031-17.953125-24.679688-36.566406-35.410157-55.808594 32.855469.992188 63.625 14.121094 86.96875 37.464844 12.023438 12.023438 21.367188 26.175781 27.785157 41.671875-23.234375-15.144531-50.328125-23.328125-78.703125-23.328125zm63.191406 74.671875c-18.296875-18.296875-35.265625-37.734375-50.914063-58.105469 29.945313 2.671875 57.761719 15.578125 79.273438 37.089844 21.960938 21.960938 34.886719 50.496094 37.183594 81.160156-20.808594-17.257812-40.839844-35.441406-59.941406-54.542968zm167.574219 133.128906c-29.679688-18.136719-58.261719-38.074219-85.558594-59.617187v-3.609375c0-38.613281-15.039062-74.917969-42.34375-102.222657-.367188-.367187-.777344-.679687-1.152344-1.039062-5.960937-26.921875-19.3125-51.425781-38.847656-70.960938-27.304688-27.3125-63.609375-42.351562-102.222656-42.351562h-4.738282c-22.121093-42.710938-39.078124-88.136719-50.328124-135.40625-.238282-1.019531-.367188-2.066406-.367188-3.113281 0-.679688.105469-1.320313.199219-1.96875l316.664062 316.664062c-5.734375.417969-11.09375 2.753907-15.207031 6.855469-9.359375 9.359375-9.359375 24.578125 0 33.9375 4.527344 4.535156 10.558594 7.03125 16.96875 7.03125h46.0625l47.03125 47.03125c11.136719 11.136719 18.007812 25.402344 19.808594 40.808594-37.449219-1.449219-73.910156-12.449219-105.96875-32.039063zm18.441406-87.800781v-25.375c0-2.105469.847656-4.167969 2.34375-5.65625 3.128906-3.128906 8.183594-3.128906 11.3125 0 1.496094 1.496094 2.34375 3.550781 2.34375 5.65625v41.375h-41.375c-2.105469 0-4.167969-.847656-5.65625-2.34375-3.121094-3.121094-3.121094-8.191406 0-11.3125 1.496094-1.496094 3.550781-2.34375 5.65625-2.34375zm79.03125 67.71875-47.03125-47.03125v-46.0625c0-6.410156-2.496094-12.441406-7.03125-16.96875-9.359375-9.359375-24.578125-9.359375-33.9375 0-4.101562 4.105469-6.4375 9.472656-6.855469 15.207031l-316.664062-316.664062c.648437-.09375 1.289062-.199219 1.96875-.199219 1.054687 0 2.105469.128906 3.128906.367188 47.253906 11.25 92.6875 28.207031 135.390625 50.328124v4.738282c0 38.613281 15.039062 74.917968 42.34375 102.222656 19.527344 19.535156 44.03125 32.886719 70.953125 38.847656.367187.375.679687.785156 1.046875 1.152344 27.304688 27.304688 63.609375 42.34375 102.222656 42.34375h3.609375c21.542969 27.304688 41.480469 55.878906 59.617188 85.558594 19.589843 32.058594 30.589843 68.511718 32.039062 105.960937-15.398437-1.792969-29.664062-8.671875-40.800781-19.800781zm0 0"/><path d="m360 408h16v16h-16zm0 0"/><path d="m408 360h16v16h-16zm0 0"/></svg>