<svg height="496pt" viewBox="-1 0 495 496" width="496pt" xmlns="http://www.w3.org/2000/svg"><path d="m261.445312 232 218.34375 218.34375c3.613282 3.617188 5.65625 8.527344 5.65625 13.65625s-2.042968 10.03125-5.65625 13.65625l-4.6875 4.6875c-3.625 3.617188-8.53125 5.65625-13.65625 5.65625-5.128906 0-10.042968-2.039062-13.65625-5.65625l-218.34375-218.34375zm0 0" fill="#d3a06c"/><path d="m131.515625 39.359375c-14.695313-4.894531-29.023437-10.832031-42.878906-17.765625l-11.191407-5.59375v9.375c0 2.664062.253907 5.304688.640626 7.90625l-.640626-1.28125c-15.371093-15.367188-36.210937-24-57.9375-24h-6.0625l5.152344 15.457031c1.886719 5.664063 2.847656 11.582031 2.847656 17.550781 0 14.71875 5.847657 28.839844 16.253907 39.25l2.640625 2.636719.183594.121094c-5.648438-1.9375-11.609376-3.015625-17.703126-3.015625h-9.375l5.589844 11.183594c6.929688 13.863281 12.863282 28.183594 17.769532 42.878906 5.152343 15.488281 19.648437 25.9375 35.96875 25.9375 3.101562 0 6.191406-.382812 9.199218-1.136719l27.472656-6.863281 40-40 6.863282-27.472656c.75-3.007813 1.136718-6.09375 1.136718-9.199219 0-16.320313-10.449218-30.816406-25.929687-35.96875zm0 0" fill="#e9573f"/><path d="m101.4375 152 48-47.996094 47.996094 47.996094-47.996094 47.996094zm0 0" fill="#d3a06c"/><path d="m229.441406 264 32-32.003906 19.3125 19.3125-32 32zm0 0" fill="#b27946"/><path d="m189.441406 256.003906 64.003906-64 32 32-64 64zm0 0" fill="#d3a06c"/><path d="m189.441406 256 64-64 19.3125 19.3125-64 64zm0 0" fill="#b27946"/><path d="m269.445312 192-56-104-8 8v40h-40v32h-32v40h-40l-8 8 104 56zm0 0" fill="#fcd770"/><path d="m485.445312 444.6875-204.6875-204.6875 16-16-24-24 6.550782-6.550781-63.921875-118.707031-17.941407 17.945312v35.3125h-12.6875l-24.859374-24.855469 4.167968-16.679687c.914063-3.640625 1.378906-7.394532 1.378906-11.136719 0-19.800781-12.625-37.304687-31.402343-43.550781-14.277344-4.769532-28.351563-10.59375-41.832031-17.335938l-22.765626-11.386718v12.058593c-14.65625-9.824219-31.890624-15.113281-49.9375-15.113281h-17.160156l8.65625 25.984375c1.617188 4.847656 2.441406 9.902344 2.441406 15.023437 0 10.871094 2.910157 21.566407 8.167969 30.992188h-21.113281l11.382812 22.769531c6.746094 13.488281 12.578126 27.550781 17.335938 41.832031 6.25 18.78125 23.753906 31.398438 43.554688 31.398438 3.742187 0 7.496093-.464844 11.140624-1.375l16.675782-4.167969 24.855468 24.855469v12.6875h-35.3125l-17.953124 17.945312 118.710937 63.917969 6.554687-6.550781 24 24 16-16 204.6875 204.6875c5.078126 5.089844 12.121094 8 19.3125 8 7.285157 0 14.144532-2.832031 19.3125-8l4.695313-4.695312c5.152344-5.160157 7.992187-12.023438 7.992187-19.304688 0-7.183594-2.914062-14.222656-8-19.3125zm-273.585937-206.421875-27.582031-13.792969 13.167968-13.160156 20.6875 20.6875zm-49.726563-62.265625 24 24-16.9375 16.9375-27.75-13.882812v-27.054688zm67.3125 44.6875-20.6875-20.6875 17.839844-17.839844 16.550782 24.824219zm25.238282-25.246094-16.550782-24.824218 6.960938-6.960938 14.476562 26.894531zm-17.503906-46.488281-8.085938 8.085937-15.648438-23.464843v-28.703125zm-36.015626-4.953125 16.382813 24.585938-20.101563 20.101562-24-24v-20.6875zm-121.128906 7.105469c-2.375.589843-4.824218.894531-7.261718.894531-12.898438 0-24.304688-8.214844-28.378907-20.464844-4.933593-14.808594-10.964843-29.398437-17.933593-43.390625 10.984374.878907 21.503906 5.6875 29.328124 13.511719l11.3125-11.3125c-6.304687-6.304688-13.945312-11.097656-22.226562-14.222656l-1.519531-1.519532c-8.839844-8.839843-13.910157-21.089843-13.910157-33.59375 0-6.839843-1.097656-13.601562-3.265624-20.085937l-1.574219-4.753906c17.246093 1.167969 33.320312 8.296875 45.902343 20.304687 2.28125 12.464844 8.273438 24.167969 17.289063 33.175782l11.3125-11.3125c-7.824219-7.816407-12.640625-18.335938-13.519531-29.320313 14 6.96875 28.589844 13 43.398437 17.9375 12.230469 4.070313 20.457031 15.480469 20.457031 28.375 0 2.441406-.304687 4.878906-.898437 7.265625l-3.664063 14.644531-4.375 4.378907c-2.640624-19.34375-11.367187-37.242188-25.40625-51.28125l-11.3125 11.3125c13.96875 13.976562 21.65625 32.535156 21.65625 52.289062v2.75l-11.3125 11.3125h-2.753906c-19.75 0-38.320312-7.6875-52.277344-21.65625l-11.3125 11.3125c14.039063 14.039062 31.933594 22.769531 51.277344 25.40625l-4.375 4.378906zm32.722656.894531 36.6875-36.6875 12.6875 12.6875h-4.6875v32h-32v4.6875zm18.796876 64 25.722656 12.855469-10.875 10.871093-44.085938-23.726562zm56.441406 46.136719-26.886719-14.480469 11.246094-11.25 27.585937 13.792969zm20.761718 1.863281 52.6875-52.6875 12.6875 12.6875-52.6875 52.6875zm265.375 208-4.6875 4.679688c-4.257812 4.25-11.761718 4.242187-16 .007812l-204.6875-204.6875 20.6875-20.6875 204.6875 204.6875c2.101563 2.113281 3.3125 5.023438 3.3125 8 0 3.015625-1.175781 5.855469-3.3125 8zm0 0"/></svg>