<svg height="488pt" viewBox="0 -68 488 488" width="488pt" xmlns="http://www.w3.org/2000/svg"><g fill="#dfb28b"><path d="m404.800781 201.601562-7.890625-5.921874v-11.839844h-44.910156v39.457031c0 15.503906 7.488281 30.046875 20.105469 39.0625l32.742187 23.382813c2.046875 1.464843 4.511719 2.257812 7.03125 2.257812 6.695313 0 12.121094-5.425781 12.121094-12.121094v-35.878906c0-15.113281-7.121094-29.335938-19.199219-38.398438zm0 0"/><path d="m228 248c-12.921875-15.503906-20-35.054688-20-55.238281v-16.761719l6-9.769531-31.335938-15.894531-6.664062 9.664062-14.9375 18.671875c-11.046875 13.808594-17.0625 30.960937-17.0625 48.648437 0 13.550782 3.535156 26.863282 10.257812 38.632813 14.328126 25.070313 33.902344 46.734375 57.398438 63.519531l17.183594 12.269532c2.054687 1.464843 4.519531 2.257812 7.039062 2.257812 6.695313 0 12.121094-5.425781 12.121094-12.121094v-28.640625c0-20.183593-7.078125-39.734375-20-55.238281zm0 0"/><path d="m164 144h-46.535156c-3.585938 0-7.136719.832031-10.351563 2.449219l-14.480469 7.230469c-8.304687 4.152343-17.464843 6.320312-26.761718 6.320312-21.015625 0-40.488282-11.023438-51.304688-29.046875l-3.269531-5.457031c-2.152344-3.601563-3.296875-7.710938-3.296875-11.910156 0-6.136719 2.441406-12.027344 6.785156-16.371094l10.808594-10.808594c9.222656-9.222656 21.734375-14.40625 34.789062-14.40625 7.640626 0 15.167969 1.785156 22.007813 5.191406l21.609375 10.808594 40 17zm0 0"/></g><path d="m208.128906 195.609375c-.03125-.953125-.128906-1.898437-.128906-2.847656v-16.761719l6-9.769531-31.335938-15.894531-6.664062 9.664062-10.167969 12.703125c13.335938 8.9375 27.496094 16.609375 42.296875 22.90625zm0 0" fill="#cf9e76"/><path d="m413.328125 209.878906c-2.480469-3.070312-5.3125-5.863281-8.527344-8.277344l-7.890625-5.921874v-11.839844h-44.910156v31.015625c20.488281-.96875 40.945312-2.671875 61.328125-4.976563zm0 0" fill="#cf9e76"/><path d="m164 144-20-39-40-17-21.609375-10.808594c-.207031-.101562-.429687-.175781-.636719-.269531.902344 3.109375 2.109375 6.140625 3.710938 8.964844 12.238281 21.769531 27.511718 41.203125 44.992187 58.113281zm0 0" fill="#cf9e76"/><path d="m459.046875 187.496094 8.816406-1.472656c7-1.175782 12.136719-7.222657 12.136719-14.320313 0-2.429687-.609375-4.824219-1.777344-6.949219l-20.078125-36.816406c-17.199219-31.523438-41.511719-58.578125-71.03125-79.015625h-.007812c-38.480469-26.648437-84.175781-40.921875-130.984375-40.921875h-.007813c-47.519531 0-94.496093 10.167969-137.761719 29.847656l-6.816406 3.097656c-9.464844 4.292969-15.535156 13.726563-15.535156 24.117188 0 4.546875 1.167969 9.027344 3.40625 12.984375 42.371094 75.335937 122.074219 121.953125 208.515625 121.953125 50.628906 0 101.183594-4.175781 151.125-12.503906zm0 0" fill="#838f9b"/><path d="m471.34375 152.136719-13.191406-24.191407c-17.199219-31.519531-41.511719-58.578124-71.03125-79.015624h-.007813c-38.488281-26.65625-84.183593-40.929688-130.992187-40.929688h-.007813c-47.25 0-93.9375 10.070312-136.992187 29.519531l.878906 2.480469.351562.703125c15.558594 31.128906 37.976563 58.320313 65.558594 79.535156 40.257813 30.96875 89.625 47.761719 140.417969 47.761719 48.777344 0 97.398437-5.328125 145.015625-15.863281zm0 0" fill="#ccd1d9"/><path d="m485.246094 160.921875-20.078125-36.816406c-10.472657-19.183594-23.6875-36.859375-38.976563-52.488281l.054688-.074219-.503906-.40625c-10.453126-10.632813-21.839844-20.328125-34.078126-28.808594-40.007812-27.6875-86.878906-42.328125-135.550781-42.328125-49 0-96.472656 10.28125-141.066406 30.550781l-6.832031 3.105469c-12.277344 5.582031-20.214844 17.910156-20.214844 31.40625 0 2.128906.265625 4.242188.65625 6.320312l-2.6875-1.34375c-7.914062-3.949218-16.761719-6.039062-25.585938-6.039062-15.277343 0-29.648437 5.953125-40.453124 16.761719l-10.808594 10.804687c-5.882813 5.882813-9.121094 13.699219-9.121094 22.019532 0 5.636718 1.527344 11.175781 4.441406 16.03125l3.269532 5.453124c12.183593 20.3125 34.472656 32.929688 58.160156 32.929688 10.480468 0 20.96875-2.480469 30.335937-7.167969l14.480469-7.230469c2.097656-1.050781 4.441406-1.601562 6.777344-1.601562h34.015625c4.175781 3.40625 8.449219 6.679688 12.832031 9.808594l-9.488281 11.863281c-12.144531 15.160156-18.824219 34.214844-18.824219 53.648437 0 14.910157 3.910156 29.640626 11.3125 42.601563 15 26.253906 35.085938 48.484375 59.695312 66.054687l17.183594 12.269532c3.433594 2.457031 7.472656 3.753906 11.6875 3.753906 11.097656 0 20.121094-9.023438 20.121094-20.121094v-28.640625c0-22.015625-7.761719-43.453125-21.855469-60.367187-11.695312-14.039063-18.144531-31.832032-18.144531-50.109375v-2.632813c28.808594 11.558594 59.921875 17.871094 91.921875 17.871094 12.015625 0 24.046875-.28125 36.078125-.753906v16.050781c0 18.046875 8.769531 35.078125 23.457031 45.566406l32.734375 23.382813c3.433594 2.457031 7.472656 3.753906 11.6875 3.753906 11.097656 0 20.121094-9.023438 20.121094-20.121094v-35.878906c0-14.375-5.703125-28.175781-15.472656-38.488281 14.671875-1.726563 29.304687-3.703125 43.832031-6.128907l8.832031-1.472656c10.898438-1.820312 18.808594-11.15625 18.808594-22.207031 0-3.757813-.953125-7.488281-2.753906-10.78125zm-26.085938-14.425781c-23.65625 4.839844-47.601562 8.375-71.65625 10.609375l-27.503906-54.992188v-7.792969c0-7.105468 2.761719-13.777343 7.785156-18.792968 9.582032-9.582032 24.800782-10.449219 35.375-1.953125l11.824219 9.457031c14.167969 14.527344 26.421875 30.929688 36.136719 48.730469zm-222.160156-112.726563c1.449219 7.261719-.816406 14.734375-6.046875 19.964844l-3.554687 3.554687-66 29.335938c-12.292969-13.640625-22.894532-28.792969-31.476563-44.992188 30.007813-12.671874 61.285156-20.738281 93.460937-23.953124 6.9375 2.734374 12.136719 8.71875 13.617188 16.089843zm-3.296875 38.230469h5.328125c8.679688 0 17.175781 3.519531 23.3125 9.65625 6.136719 6.144531 9.65625 14.632812 9.65625 23.3125v5.144531l-18.710938 37.414063c-22.410156-7.800782-43.601562-19.085938-62.496093-33.632813-6.097657-4.6875-11.921875-9.734375-17.496094-15.046875zm52.503906 45.480469 7.273438-4.847657c15.054687-10.046874 35.261719-11.304687 51.480469-3.21875l1.078124.546876 24.265626 48.519531c-14.648438.96875-29.320313 1.519531-43.976563 1.519531-19.464844 0-38.800781-2.71875-57.503906-7.753906zm-30.085937-101.480469c43.640625 0 85.679687 12.742188 122.03125 36.679688-7.960938 1.609374-15.542969 5.398437-21.679688 11.535156-7.433594 7.433594-11.777344 17.121094-12.394531 27.511718-18.679687-6.480468-39.796875-4.269531-56.636719 5.792969-1.554687-10.246093-6.3125-19.710937-13.785156-27.175781-6.984375-6.984375-15.703125-11.589844-25.183594-13.441406 4.464844-7.863282 6.03125-17.160156 4.214844-26.269532-1.054688-5.265624-3.214844-10.128906-6.199219-14.375 3.207031-.097656 6.40625-.257812 9.632813-.257812zm-138.65625 120c-4.808594 0-9.625 1.144531-13.929688 3.289062l-14.480468 7.230469c-7.160157 3.59375-15.175782 5.480469-23.183594 5.480469-18.101563 0-35.136719-9.640625-44.445313-25.167969l-3.265625-5.441406c-1.417968-2.359375-2.160156-5.0625-2.160156-7.804687 0-4.050782 1.574219-7.851563 4.441406-10.714844l10.804688-10.808594c7.777344-7.773438 18.128906-12.0625 29.136718-12.0625 6.359376 0 12.730469 1.503906 18.433594 4.351562l21.609375 10.808594.007813-.023437c9.65625 14.910156 20.8125 28.566406 33.199218 40.863281zm104.390625 117.128906c11.695312 14.039063 18.144531 31.832032 18.144531 50.109375v28.640625c0 3.144532-3.945312 5.167969-6.503906 3.351563l-17.183594-12.269531c-22.710938-16.226563-41.25-36.746094-55.105469-60.976563-6.023437-10.542969-9.207031-22.527344-9.207031-34.664063 0-15.816406 5.441406-31.3125 15.3125-43.648437l10.367188-12.960937c7.230468 4.488281 14.664062 8.632812 22.320312 12.359374v9.691407c0 22.015625 7.761719 43.445312 21.855469 60.367187zm178.144531-45.128906c10.023438 7.511719 16 19.480469 16 32v35.878906c0 3.144532-3.945312 5.175782-6.503906 3.351563l-32.734375-23.382813c-10.496094-7.496094-16.761719-19.664062-16.761719-32.550781v-16.953125c11.480469-.648438 22.945312-1.480469 34.398438-2.550781zm66.550781-29.863281-8.824219 1.472656c-49.335937 8.222656-99.734374 12.390625-149.804687 12.390625-83.425781 0-160.65625-45.167969-201.546875-117.878906-1.550781-2.761719-2.375-5.890625-2.375-9.058594 0-7.230469 4.257812-13.839844 10.832031-16.832031l.382813-.175781c15.9375 30.464843 38.578125 57.578124 65.816406 78.539062 41.433594 31.863281 93.03125 49.40625 145.296875 49.40625 47.289063 0 94.648437-5.03125 140.832031-14.824219l4.039063 7.410157c.519531.949218.800781 2.03125.800781 3.117187 0 3.191406-2.296875 5.898437-5.449219 6.433594zm0 0"/><path d="m56 96h16v16h-16zm0 0"/></svg>