<svg height="496pt" viewBox="0 0 496 496" width="496pt" xmlns="http://www.w3.org/2000/svg"><path d="m488 432-.152344.136719c-23.335937 21.152343-56.464844 21.152343-79.800781 0l-.152344-.136719-.085937.078125c-23.351563 21.179687-56.527344 21.179687-79.863282-.023437l-.058593-.054688-.078125.070312c-23.351563 21.1875-56.527344 21.1875-79.863282-.007812l-.074218-.0625-.0625.054688c-23.34375 21.203124-56.527344 21.203124-79.863282 0l-.074218-.054688-.023438.023438c-23.351562 21.207031-56.550781 21.199218-79.902344-.007813l-.007812-.015625-.027344.023438c-23.359375 21.207031-56.558594 21.199218-79.910156-.023438h-8v64h496v-64zm0 0" fill="#69d6f4"/><path d="m296 72v88h112v-88zm0 0" fill="#fcd770"/><path d="m296 160h24.992188l39.007812-32.503906v-55.496094h-64zm0 0" fill="#ffc729"/><path d="m248 24h96v96h-96zm0 0" fill="#fcd770"/><path d="m8 248h24c31.921875 0 63.769531 3.160156 95.070312 9.414062l25.859376 5.171876c31.300781 6.253906 63.148437 9.414062 95.070312 9.414062s63.769531-3.160156 95.070312-9.414062l25.859376-5.171876c31.300781-6.253906 63.148437-9.414062 95.070312-9.414062h24v152h-480zm0 0" fill="#e6e9ed"/><path d="m104 253.390625c-23.824219-3.574219-47.886719-5.390625-72-5.390625h-24v152h96zm0 0" fill="#ccd1d9"/><path d="m8 368h96v32h-96zm0 0" fill="#969faa"/><path d="m40 368h32v32h-32zm0 0" fill="#aab2bd"/><g fill="#656d78"><path d="m40 280h32v56h-32zm0 0"/><path d="m176 368h-16l-8-16v-32l8-16h16l8 16v32zm0 0"/><path d="m240 368h-16l-8-16v-32l8-16h16l8 16v32zm0 0"/><path d="m304 368h-16l-8-16v-32l8-16h16l8 16v32zm0 0"/><path d="m368 368h-16l-8-16v-32l8-16h16l8 16v32zm0 0"/><path d="m432 368h-16l-8-16v-32l8-16h16l8 16v32zm0 0"/></g><path d="m413.230469 466.039062-5.453125-4.726562-5.335938 4.839844c-20.351562 18.457031-48.777344 18.449218-69.28125-.167969l-5.449218-4.625-5.277344 4.792969c-20.363282 18.464844-48.777344 18.464844-69.25-.128906l-5.441406-4.71875-5.316407 4.832031c-20.335937 18.464843-48.761719 18.472656-69.648437-.449219l-5.335938-4.101562-4.984375 4.519531c-20 18.167969-47.800781 18.480469-68.074219.941406l-4.054687-8.039063-7.816406 7.097657c-20.351563 18.496093-48.800781 18.480469-69.152344-.015625l-10.742187 11.832031c24.445312 22.222656 59.167968 23.773437 85.277343 4.414063 23.984375 17.929687 55.691407 17.984374 79.945313 0 24.089844 18.039062 55.976562 18.03125 80.03125.03125 24.058594 17.976562 55.890625 18 80.007812-.007813 24.03125 17.976563 55.847656 18 80 0 12.03125 9.015625 26.023438 13.527344 40.023438 13.527344 16.113281 0 32.234375-5.976563 45.425781-17.925781l-10.855469-11.753907c-20.3125 18.433594-48.710937 18.441407-69.242187-.167969zm0 0"/><path d="m413.230469 426.039062-5.453125-4.726562-5.335938 4.839844c-20.351562 18.464844-48.777344 18.449218-69.28125-.167969l-5.449218-4.625-5.277344 4.792969c-20.363282 18.464844-48.777344 18.464844-69.25-.128906l-5.441406-4.71875-5.316407 4.832031c-20.335937 18.464843-48.761719 18.480469-69.648437-.449219l-5.335938-4.101562-4.984375 4.519531c-20 18.167969-47.800781 18.480469-68.074219.941406l-4.054687-8.039063-7.816406 7.097657c-20.351563 18.496093-48.800781 18.480469-69.152344-.015625l-10.742187 11.832031c24.445312 22.230469 59.167968 23.773437 85.277343 4.414063 23.984375 17.929687 55.691407 17.984374 79.945313 0 24.089844 18.03125 55.976562 18.039062 80.03125.03125 24.058594 17.976562 55.890625 18 80.007812-.007813 24.03125 17.976563 55.847656 18 80 0 12.03125 9.015625 26.023438 13.527344 40.023438 13.527344 16.113281 0 32.234375-5.976563 45.425781-17.925781l-10.855469-11.753907c-20.3125 18.433594-48.710937 18.441407-69.242187-.167969zm0 0"/><path d="m464 240c-32.359375 0-64.871094 3.214844-96.640625 9.566406l-25.855469 5.167969c-28.121094 5.632813-56.792968 8.554687-85.503906 9.027344v-135.761719h32v40h128v-104h-64v-48h-96v-16h-16v263.761719c-28.710938-.480469-57.382812-3.402344-85.503906-9.027344l-25.863282-5.167969c-31.761718-6.351562-64.273437-9.566406-96.632812-9.566406h-32v168h496v-168zm-142.097656-112-17.902344 14.921875v-14.921875zm78.097656-48v72h-81.902344l33.902344-28.257812v-43.742188zm-64-48v80h-80v-80zm-272 344v16h-16v-16zm16 0h16v16h-16zm-48-120c21.359375 0 42.777344 1.558594 64 4.433594v99.566406h-80v-104zm-16 120h16v16h-16zm464 16h-368v-129.097656c4.503906.769531 9.023438 1.457031 13.503906 2.355468l25.863282 5.167969c63.519531 12.703125 129.746093 12.703125 193.28125 0l25.855468-5.167969c30.726563-6.144531 62.183594-9.257812 93.496094-9.257812h16zm0 0"/><path d="m80 272h-48v72h48zm-16 56h-16v-40h16zm0 0"/><path d="m155.054688 296-11.054688 22.113281v35.773438l11.054688 22.113281h25.890624l11.054688-22.113281v-35.773438l-11.054688-22.113281zm20.945312 54.113281-4.945312 9.886719h-6.109376l-4.945312-9.886719v-28.226562l4.945312-9.886719h6.109376l4.945312 9.886719zm0 0"/><path d="m219.054688 296-11.054688 22.113281v35.773438l11.054688 22.113281h25.890624l11.054688-22.113281v-35.773438l-11.054688-22.113281zm20.945312 54.113281-4.945312 9.886719h-6.109376l-4.945312-9.886719v-28.226562l4.945312-9.886719h6.109376l4.945312 9.886719zm0 0"/><path d="m283.054688 296-11.054688 22.113281v35.773438l11.054688 22.113281h25.890624l11.054688-22.113281v-35.773438l-11.054688-22.113281zm20.945312 54.113281-4.945312 9.886719h-6.109376l-4.945312-9.886719v-28.226562l4.945312-9.886719h6.109376l4.945312 9.886719zm0 0"/><path d="m347.054688 296-11.054688 22.113281v35.773438l11.054688 22.113281h25.890624l11.054688-22.113281v-35.773438l-11.054688-22.113281zm20.945312 54.113281-4.945312 9.886719h-6.109376l-4.945312-9.886719v-28.226562l4.945312-9.886719h6.109376l4.945312 9.886719zm0 0"/><path d="m411.054688 296-11.054688 22.113281v35.773438l11.054688 22.113281h25.890624l11.054688-22.113281v-35.773438l-11.054688-22.113281zm20.945312 54.113281-4.945312 9.886719h-6.109376l-4.945312-9.886719v-28.226562l4.945312-9.886719h6.109376l4.945312 9.886719zm0 0"/></svg>