<svg height="496pt" viewBox="0 -75 496 495" width="496pt" xmlns="http://www.w3.org/2000/svg"><path d="m8 104.5h48v32h-48zm0 0" fill="#fcd770"/><path d="m200 96.5h64v32h-64zm0 0" fill="#e6e9ed"/><path d="m216 64.5h32v32h-32zm0 0" fill="#fcd770"/><path d="m296 96.5h80v32h-80zm0 0" fill="#e6e9ed"/><path d="m320 32.5h32v32h-32zm0 0" fill="#e6e9ed"/><path d="m304 64.5h64v32h-64zm0 0" fill="#fcd770"/><path d="m184 128.5h208v76h-208zm0 0" fill="#969faa"/><path d="m184 176.5h208v28h-208zm0 0" fill="#838f9b"/><path d="m184 144.5h64v60h-64zm0 0" fill="#838f9b"/><path d="m80 160.5-16 32v12h168v-44zm0 0" fill="#cf9e76"/><path d="m104 160.5h32v46h-32zm0 0" fill="#dfb28b"/><path d="m168 160.5h32v46h-32zm0 0" fill="#dfb28b"/><path d="m40 192.5c0 79.527344 64.472656 144 144 144h8c0-8.832031 7.160156-16 16-16 8.832031 0 16 7.167969 16 16h208c17.671875 0 32-14.328125 32-32v-40l24-64v-8zm0 0" fill="#e6e9ed"/><path d="m84.566406 296.5h379.433594v-32h-404.574219c6.855469 11.839844 15.316407 22.601562 25.140625 32zm0 0" fill="#fc6e51"/><path d="m480 120.5c0-13.253906-14.328125-24-32-24s-32 10.746094-32 24 14.328125 24 32 24 32-10.746094 32-24zm0 0" fill="#aab2bd"/><path d="m456 184.5v-32.648438c18.230469-2.976562 32-15.894531 32-31.351562s-13.769531-28.375-32-31.351562v-16.648438h-16v16.648438c-18.230469 2.976562-32 15.894531-32 31.351562s13.769531 28.375 32 31.351562v32.648438h-40v-64h-16v-32h-8v-32h-16v-32h-16v-24h-16v24h-16v32h-16v32h-8v32h-16v-32h-16v-32h-16v-24h-16v24h-16v32h-16v32h-16v32h-100.945312l-11.054688 22.113281v-78.113281h-64v48h48v40h-16v8c0 83.816406 68.183594 152 152 152h16v-8c0-4.40625 3.585938-8 8-8s8 3.59375 8 8v8h216c22.054688 0 40-17.945312 40-40v-38.550781l24-64v-17.449219zm16-64c0 6.808594-6.800781 12.71875-16 14.984375v-29.96875c9.199219 2.265625 16 8.175781 16 14.984375zm-48 0c0-6.808594 6.800781-12.71875 16-14.984375v29.96875c-9.199219-2.265625-16-8.175781-16-14.984375zm-96-80h16v16h-16zm-16 32h48v16h-48zm-8 32h64v16h-64zm-80-32h16v16h-16zm-16 32h48v16h-48zm-16 32h192v48h-144v-32h-48zm-80 48v-16h16v16zm32-16h16v16h-16zm32 0h16v16h-16zm32 0h16v16h-16zm-112 0v16h-19.054688l8-16zm-80-40v-16h32v16zm58.097656 144h381.902344v16h-368v.070312c-5.015625-5.007812-9.71875-10.335937-13.902344-16.070312zm357.902344 56h-201.367188c-3.304687-9.3125-12.199218-16-22.632812-16s-19.328125 6.6875-22.632812 16h-1.367188c-28.527344 0-54.960938-8.929688-76.847656-24h348.847656c0 13.230469-10.769531 24-24 24zm26.457031-72h-394.265625c-9.054687-16.886719-14.785156-35.824219-15.960937-56h431.21875zm0 0"/><path d="m256 152.5h16v16h-16zm0 0"/><path d="m288 152.5h16v16h-16zm0 0"/><path d="m320 152.5h16v16h-16zm0 0"/><path d="m352 152.5h16v16h-16zm0 0"/></svg>