<svg height="496pt" viewBox="0 0 496 496" width="496pt" xmlns="http://www.w3.org/2000/svg"><path d="m128 56c0 26.507812-21.492188 48-48 48s-48-21.492188-48-48 21.492188-48 48-48 48 21.492188 48 48zm0 0" fill="#a0d468"/><path d="m256 56c0 26.507812-21.492188 48-48 48s-48-21.492188-48-48 21.492188-48 48-48 48 21.492188 48 48zm0 0" fill="#a0d468"/><path d="m8 312h480v176h-480zm0 0" fill="#4fc1e9"/><path d="m312 264h64c13.257812 0 24-10.742188 24-24s-10.742188-24-24-24c0-17.671875-14.328125-32-32-32-3.023438 0-5.894531.550781-8.671875 1.34375-3.183594-18.902344-19.511719-33.34375-39.328125-33.34375-13.398438 0-25.089844 6.6875-32.3125 16.816406-2.199219-.480468-4.441406-.816406-6.75-.816406zm0 0" fill="#69d6f4"/><path d="m152 440h68c15.464844 0 28-12.535156 28-28s-12.535156-28-28-28h-40c-15.464844 0-28-12.535156-28-28s12.535156-28 28-28l-.328125-16h-171.671875v176h96c0-26.503906 21.488281-48 48-48zm0 0" fill="#f5e0cd"/><path d="m302.480469 184.816406c-4.242188-12.738281-13.480469-22.671875-25.054688-28.144531-5.457031 2.9375-10.144531 7.113281-13.738281 12.144531l32.3125 95.183594h32.863281zm0 0" fill="#4fc1e9"/><path d="m8.222656 300.671875c-1.984375 14.734375 9.425782 27.328125 23.777344 27.328125h296v-16l-40.703125-122.121094c-4.359375-13.0625-16.585937-21.878906-30.359375-21.878906h-248.9375v136zm0 0" fill="#dfb28b"/><path d="m143.9375 328c6.285156-8.375 9.109375-18.9375 7.695312-29.464844-2.105468-15.605468-13.855468-28.917968-29.257812-33.128906-3.414062-.925781-6.902344-1.40625-10.375-1.40625-1.382812 0-2.761719.078125-4.121094.214844-8.976562-10.125-21.992187-16.214844-35.878906-16.214844s-26.902344 6.089844-35.878906 16.214844c-1.359375-.136719-2.738282-.214844-4.121094-.214844-3.472656 0-6.960938.480469-10.367188 1.40625-5.023437 1.378906-9.59375 3.785156-13.632812 6.859375v31.734375l.222656-3.328125c-1.984375 14.734375 9.425782 27.328125 23.777344 27.328125zm0 0" fill="#cf9e76"/><path d="m112 328c14.351562 0 25.761719-12.59375 23.777344-27.328125-1.265625-9.40625-8.480469-17.328125-17.625-19.832031-6.328125-1.734375-12.152344-.640625-17.097656 1.914062-5.039063-11.042968-16.117188-18.753906-29.054688-18.753906s-24.015625 7.710938-29.054688 18.761719c-4.945312-2.554688-10.769531-3.648438-17.097656-1.914063-9.152344 2.496094-16.359375 10.425782-17.625 19.832032-1.984375 14.726562 9.425782 27.320312 23.777344 27.320312zm0 0" fill="#b4dd7f"/><path d="m464 120c13.257812 0 24-10.742188 24-24s-10.742188-24-24-24c0-17.671875-14.328125-32-32-32-3.023438 0-5.894531.550781-8.671875 1.34375-3.183594-18.902344-19.511719-33.34375-39.328125-33.34375s-36.144531 14.441406-39.328125 33.34375c-2.777344-.792969-5.648437-1.34375-8.671875-1.34375-17.671875 0-32 14.328125-32 32-13.257812 0-24 10.742188-24 24s10.742188 24 24 24zm0 0" fill="#69d6f4"/><path d="m323.097656 272h52.902344c17.648438 0 32-14.351562 32-32 0-15.113281-10.527344-27.816406-24.640625-31.144531-3.375-18.664063-19.742187-32.855469-39.359375-32.855469-.921875 0-1.847656.039062-2.808594.121094-6.597656-19.015625-24.496094-32.121094-45.191406-32.121094-13.609375 0-26.601562 5.96875-35.648438 16.175781-1.167968-.121093-2.296874-.175781-3.414062-.175781h-40.9375v-48.640625c27.089844-3.902344 48-27.207031 48-55.359375 0-30.878906-25.128906-56-56-56s-56 25.121094-56 56c0 28.152344 20.910156 51.457031 48 55.359375v48.640625h-112v-48.640625c27.089844-3.902344 48-27.207031 48-55.359375 0-30.878906-25.128906-56-56-56s-56 25.121094-56 56c0 28.152344 20.910156 51.457031 48 55.359375v48.640625h-72v336h496v-192h-162.230469zm-155.097656-216c0-22.054688 17.945312-40 40-40s40 17.945312 40 40c0 19.3125-13.769531 35.472656-32 39.191406v-47.191406h-16v47.191406c-18.230469-3.71875-32-19.878906-32-39.191406zm-128 0c0-22.054688 17.945312-40 40-40s40 17.945312 40 40c0 19.3125-13.769531 35.472656-32 39.191406v-47.191406h-16v47.191406c-18.230469-3.71875-32-19.878906-32-39.191406zm256 104c15.609375 0 28.832031 11.214844 31.441406 26.671875l1.488282 8.816406 8.589843-2.449219c2.488281-.710937 4.550781-1.039062 6.480469-1.039062 13.230469 0 24 10.769531 24 24v8h8c8.824219 0 16 7.175781 16 16s-7.175781 16-16 16h-58.230469l-22.882812-68.648438c-3.070313-9.207031-9.300781-16.617187-17.183594-21.414062 5.28125-3.824219 11.59375-5.9375 18.296875-5.9375zm-280 16h240.9375c.902344 0 1.78125.113281 2.671875.207031.742187.105469 1.519531.234375 2.382813.417969l1.0625.230469c7.6875 2.03125 14.042968 7.746093 16.648437 15.550781l40.296875 120.890625v6.703125h-34.121094l-10.742187-34.382812-15.265625 4.773437 9.25 29.609375h-63.992188l-5.273437-28.089844-15.71875 2.953125 4.71875 25.136719h-49.144531c3.511718-6.097656 4.953124-13.265625 3.992187-20.390625-1.679687-12.464844-11.101563-23.105469-23.4375-26.480469-5.21875-1.425781-10.53125-1.496094-15.679687-.207031-7.417969-10.464844-19.539063-16.921875-32.585938-16.921875s-25.167969 6.457031-32.585938 16.921875c-5.148437-1.28125-10.46875-1.21875-15.671874.207031-2.742188.742188-5.34375 1.855469-7.742188 3.261719zm108.054688 138.519531c-3.046876 3.480469-7.4375 5.480469-12.054688 5.480469h-80c-4.617188 0-9.007812-2-12.054688-5.480469-3.082031-3.519531-4.433593-8.0625-3.792968-12.785156.824218-6.078125 5.671875-11.503906 11.816406-13.175781 1.335938-.367188 2.679688-.550782 4.015625-.550782 2.457031 0 4.894531.625 7.289063 1.855469l7.460937 3.855469 3.496094-7.648438c3.898437-8.542968 12.441406-14.070312 21.769531-14.070312s17.871094 5.527344 21.777344 14.078125l3.496094 7.648437 7.460937-3.855468c3.699219-1.910156 7.503906-2.359375 11.3125-1.304688 6.136719 1.671875 10.984375 7.097656 11.808594 13.175782.632812 4.722656-.71875 9.257812-3.800781 12.777343zm-108.054688 17.191407c4.816406 2.785156 10.320312 4.289062 16 4.289062h118.097656c-3.839844 5.726562-6.097656 12.601562-6.097656 20 0 19.847656 16.152344 36 36 36h40c11.03125 0 20 8.976562 20 20s-8.96875 20-20 20h-68c-28.152344 0-51.457031 20.902344-55.359375 48h-80.640625zm320-11.710938h144v160h-367.191406c3.71875-18.230469 19.871094-32 39.191406-32h68c19.847656 0 36-16.152344 36-36s-16.152344-36-36-36h-40c-11.03125 0-20-8.976562-20-20s8.96875-20 20-20h156zm0 0"/><path d="m232.378906 202.378906 15.265625-4.769531 22.5 72-15.265625 4.769531zm0 0"/><path d="m166.644531 201.476562 15.71875-2.945312 15 80-15.71875 2.945312zm0 0"/><path d="m304 128h160c17.648438 0 32-14.351562 32-32 0-15.113281-10.527344-27.816406-24.640625-31.144531-3.375-18.664063-19.742187-32.855469-39.359375-32.855469-.921875 0-1.847656.039062-2.808594.121094-6.597656-19.015625-24.496094-32.121094-45.191406-32.121094s-38.59375 13.105469-45.191406 32.121094c-.960938-.082032-1.886719-.121094-2.808594-.121094-19.617188 0-35.984375 14.191406-39.359375 32.855469-14.113281 3.328125-24.640625 16.03125-24.640625 31.144531 0 17.648438 14.351562 32 32 32zm0-48h8v-8c0-13.230469 10.769531-24 24-24 1.929688 0 3.992188.328125 6.488281 1.039062l8.589844 2.449219 1.488281-8.816406c2.601563-15.457031 15.824219-26.671875 31.433594-26.671875s28.832031 11.214844 31.441406 26.671875l1.488282 8.816406 8.589843-2.449219c2.488281-.710937 4.550781-1.039062 6.480469-1.039062 13.230469 0 24 10.769531 24 24v8h8c8.824219 0 16 7.175781 16 16s-7.175781 16-16 16h-160c-8.824219 0-16-7.175781-16-16s7.175781-16 16-16zm0 0"/><path d="m359.960938 373.265625c3.734374 4.269531 9.382812 10.734375 20.007812 10.734375s16.269531-6.464844 20.015625-10.734375c3.480469-3.976563 4.863281-5.265625 7.96875-5.265625 3.109375 0 4.496094 1.289062 7.992187 5.273438 3.742188 4.269531 9.390626 10.726562 20.03125 10.726562 10.632813 0 16.28125-6.457031 20.023438-10.726562 3.496094-3.984376 4.878906-5.273438 8-5.273438v-16c-10.640625 0-16.289062 6.457031-20.03125 10.726562-3.488281 3.984376-4.878906 5.273438-7.992188 5.273438-3.121093 0-4.503906-1.289062-8-5.273438-3.746093-4.269531-9.390624-10.726562-20.023437-10.726562-10.625 0-16.273437 6.464844-20.015625 10.734375-3.472656 3.976563-4.867188 5.265625-7.96875 5.265625-3.105469 0-4.488281-1.289062-7.960938-5.265625-3.734374-4.269531-9.382812-10.734375-20.007812-10.734375v16c3.105469 0 4.488281 1.289062 7.960938 5.265625zm0 0"/><path d="m279.960938 453.265625c3.734374 4.269531 9.382812 10.734375 20.007812 10.734375s16.269531-6.464844 20.015625-10.734375c3.480469-3.976563 4.863281-5.265625 7.96875-5.265625 3.109375 0 4.496094 1.289062 7.992187 5.273438 3.742188 4.269531 9.390626 10.726562 20.03125 10.726562 10.632813 0 16.28125-6.457031 20.023438-10.726562 3.496094-3.984376 4.878906-5.273438 8-5.273438v-16c-10.640625 0-16.289062 6.457031-20.03125 10.726562-3.488281 3.984376-4.878906 5.273438-7.992188 5.273438-3.121093 0-4.503906-1.289062-8-5.273438-3.746093-4.269531-9.390624-10.726562-20.023437-10.726562-10.625 0-16.273437 6.464844-20.015625 10.734375-3.472656 3.976563-4.867188 5.265625-7.96875 5.265625-3.105469 0-4.488281-1.289062-7.960938-5.265625-3.734374-4.269531-9.382812-10.734375-20.007812-10.734375v16c3.105469 0 4.488281 1.289062 7.960938 5.265625zm0 0"/></svg>