<svg height="496pt" viewBox="0 0 496 496" width="496pt" xmlns="http://www.w3.org/2000/svg"><g fill="#69d6f4"><path d="m316.632812 332.511719c-20.921874-17.121094-38.671874-37.648438-52.542968-60.65625l-8.753906-15.847657c-2.152344-4.273437-4.167969-8.609374-6.054688-13.015624l-1.28125-2.992188-14.679688-29.359375c5.464844 3.335937 11.816407 5.359375 18.679688 5.359375 19.878906 0 36-16.121094 36-36 0-59.648438-48.351562-108-108-108h-3.425781c-26.160157 0-51.429688 9.488281-71.117188 26.71875-22.097656 19.335938-40.210937 42.792969-53.34375 69.050781-13.226562 26.453125-20.113281 55.628907-20.113281 85.214844 0 38.304687 12.425781 75.582031 35.414062 106.230469l7.179688 9.570312 19.78125 15.214844h298.210938v-9.921875c-27.601563-9.03125-53.378907-23.085937-75.953126-41.566406zm0 0"/><path d="m304 240 6.488281 3.246094c6.296875 3.152344 12.046875 7.289062 17.023438 12.265625 5.433593 5.433593 12.808593 8.488281 20.488281 8.488281 11.046875 0 20-8.953125 20-20s-8.953125-20-20-20c-13.039062 0-25.792969 3.855469-36.640625 11.097656zm0 0"/><path d="m296 64c0-15.785156 3.671875-31.351562 10.734375-45.472656l.128906-.246094c3.144531-6.304688 9.59375-10.28125 16.625-10.28125h1.910157c10.273437 0 18.601562 8.328125 18.601562 18.59375 0 8.007812-5.128906 15.109375-12.71875 17.636719-7.488281 2.496093-14.609375 5.984375-21.175781 10.363281zm0 0"/><path d="m56 88c0-15.785156-3.671875-31.351562-10.734375-45.472656l-.121094-.246094c-3.152343-6.304688-9.601562-10.28125-16.640625-10.28125h-1.910156c-10.265625 0-18.59375 8.328125-18.59375 18.59375 0 8.007812 5.128906 15.109375 12.71875 17.636719 7.488281 2.496093 14.609375 5.984375 21.175781 10.363281zm0 0"/></g><path d="m454.617188 480c-7.617188 0-11.050782-2.65625-15.800782-6.328125-5.578125-4.3125-12.511718-9.671875-25.59375-9.671875-13.070312 0-20.007812 5.367188-25.574218 9.671875-4.746094 3.671875-8.167969 6.328125-15.777344 6.328125-7.597656 0-11.023438-2.65625-15.765625-6.328125-5.5625-4.304687-12.488281-9.671875-25.5625-9.671875-13.070313 0-20 5.367188-25.566407 9.671875-4.746093 3.671875-8.167968 6.328125-15.777343 6.328125-7.597657 0-11.023438-2.65625-15.765625-6.328125-5.5625-4.304687-12.488282-9.671875-25.5625-9.671875-13.070313 0-20 5.367188-25.566406 9.671875-4.746094 3.671875-8.167969 6.328125-15.769532 6.328125-7.597656 0-11.023437-2.65625-15.765625-6.328125-5.5625-4.304687-12.488281-9.671875-25.5625-9.671875-13.070312 0-20 5.367188-25.558593 9.679688-4.746094 3.664062-8.167969 6.320312-15.761719 6.320312-7.582031 0-11-2.648438-15.734375-6.320312-5.566406-4.3125-12.488282-9.679688-25.550782-9.679688-13.074218 0-20 5.367188-25.5625 9.679688-4.742187 3.664062-8.167968 6.320312-15.757812 6.320312-7.585938 0-11-2.648438-15.738281-6.320312-5.558594-4.3125-12.488281-9.679688-25.542969-9.679688v16c7.585938 0 11 2.648438 15.734375 6.320312 5.570313 4.3125 12.488281 9.679688 25.546875 9.679688 13.0625 0 19.992188-5.367188 25.550781-9.671875 4.742188-3.671875 8.167969-6.328125 15.769531-6.328125 7.589844 0 11.007813 2.65625 15.75 6.328125 5.558594 4.304687 12.480469 9.671875 25.535157 9.671875 13.066406 0 19.992187-5.367188 25.554687-9.671875 4.742188-3.671875 8.175782-6.328125 15.765625-6.328125 7.59375 0 11.023438 2.65625 15.769531 6.328125 5.566407 4.304687 12.496094 9.671875 25.558594 9.671875 13.066406 0 19.992188-5.367188 25.5625-9.671875 4.742188-3.671875 8.175782-6.328125 15.773438-6.328125 7.601562 0 11.023437 2.65625 15.769531 6.328125 5.566406 4.304687 12.496094 9.671875 25.558594 9.671875 13.074219 0 20-5.367188 25.570312-9.671875 4.742188-3.671875 8.175781-6.328125 15.773438-6.328125 7.601562 0 11.023437 2.65625 15.769531 6.328125 5.566406 4.304687 12.496094 9.671875 25.558594 9.671875 13.074218 0 20-5.359375 25.570312-9.671875 4.75-3.671875 8.183594-6.328125 15.78125-6.328125 7.617188 0 11.050782 2.65625 15.800782 6.328125 5.578124 4.3125 12.511718 9.671875 25.59375 9.671875 13.070312 0 20.007812-5.359375 25.582031-9.671875 4.753906-3.671875 8.183593-6.328125 15.800781-6.328125v-16c-13.078125 0-20.015625 5.359375-25.59375 9.671875-4.742188 3.671875-8.183594 6.328125-15.789062 6.328125zm0 0"/><path d="m454.617188 432c-7.617188 0-11.050782-2.65625-15.800782-6.328125-5.578125-4.3125-12.511718-9.671875-25.59375-9.671875-13.070312 0-20.007812 5.367188-25.574218 9.671875-4.746094 3.671875-8.167969 6.328125-15.777344 6.328125-7.597656 0-11.023438-2.65625-15.765625-6.328125-5.5625-4.304687-12.488281-9.671875-25.5625-9.671875-13.070313 0-20 5.367188-25.566407 9.671875-4.746093 3.671875-8.167968 6.328125-15.777343 6.328125-7.597657 0-11.023438-2.65625-15.765625-6.328125-5.5625-4.304687-12.488282-9.671875-25.5625-9.671875-13.070313 0-20 5.367188-25.566406 9.671875-4.746094 3.671875-8.167969 6.328125-15.769532 6.328125-7.597656 0-11.023437-2.65625-15.765625-6.328125-5.5625-4.304687-12.488281-9.671875-25.5625-9.671875-13.070312 0-20 5.367188-25.558593 9.679688-4.746094 3.664062-8.167969 6.320312-15.761719 6.320312-7.582031 0-11-2.648438-15.734375-6.320312-5.566406-4.3125-12.488282-9.679688-25.550782-9.679688-13.074218 0-20 5.367188-25.5625 9.679688-4.742187 3.664062-8.167968 6.320312-15.757812 6.320312-7.585938 0-11-2.648438-15.738281-6.320312-5.558594-4.3125-12.488281-9.679688-25.542969-9.679688v16c7.585938 0 11 2.648438 15.734375 6.320312 5.570313 4.3125 12.488281 9.679688 25.546875 9.679688 13.0625 0 19.992188-5.367188 25.550781-9.671875 4.742188-3.671875 8.167969-6.328125 15.769531-6.328125 7.589844 0 11.007813 2.65625 15.75 6.328125 5.558594 4.304687 12.480469 9.671875 25.535157 9.671875 13.066406 0 19.992187-5.367188 25.554687-9.671875 4.742188-3.671875 8.175782-6.328125 15.765625-6.328125 7.59375 0 11.023438 2.65625 15.769531 6.328125 5.566407 4.304687 12.496094 9.671875 25.558594 9.671875 13.066406 0 19.992188-5.367188 25.5625-9.671875 4.742188-3.671875 8.175782-6.328125 15.773438-6.328125 7.601562 0 11.023437 2.65625 15.769531 6.328125 5.566406 4.304687 12.496094 9.671875 25.558594 9.671875 13.074219 0 20-5.367188 25.570312-9.671875 4.742188-3.671875 8.175781-6.328125 15.773438-6.328125 7.601562 0 11.023437 2.65625 15.769531 6.328125 5.566406 4.304687 12.496094 9.671875 25.558594 9.671875 13.074218 0 20-5.359375 25.570312-9.671875 4.75-3.671875 8.183594-6.328125 15.78125-6.328125 7.617188 0 11.050782 2.65625 15.800782 6.328125 5.578124 4.3125 12.511718 9.671875 25.59375 9.671875 13.070312 0 20.007812-5.359375 25.582031-9.671875 4.753906-3.671875 8.183593-6.328125 15.800781-6.328125v-16c-13.078125 0-20.015625 5.359375-25.59375 9.671875-4.742188 3.671875-8.183594 6.328125-15.789062 6.328125zm0 0"/><path d="m470.40625 377.671875c-4.742188 3.671875-8.183594 6.328125-15.789062 6.328125-7.617188 0-11.050782-2.65625-15.800782-6.328125-5.578125-4.3125-12.511718-9.671875-25.59375-9.671875-3.582031 0-6.671875.433594-9.4375 1.105469-30.175781-8.546875-57.800781-22.90625-82.089844-42.785157-20.199218-16.519531-37.289062-36.242187-50.757812-58.59375l-13.707031 8.265626c14.433593 23.917968 32.707031 45.023437 54.335937 62.710937 22.007813 18.015625 46.59375 31.753906 73.210938 41.121094-3.496094 2.496093-6.914063 4.175781-12.90625 4.175781-7.597656 0-11.023438-2.65625-15.765625-6.328125-5.5625-4.304687-12.488281-9.671875-25.5625-9.671875-2.703125 0-5.085938.273438-7.304688.671875l-25.980469-12.992187c-44.1875-22.085938-80.707031-56.320313-105.601562-99-10.242188-17.558594-15.65625-37.589844-15.65625-57.917969 0-20.769531 10.992188-40.433594 28.671875-51.320313 3.65625-2.25 7.855469-3.441406 12.152344-3.441406 12.785156 0 23.175781 10.390625 23.175781 23.167969v.832031h16v-.832031c0-21.601563-17.574219-39.167969-39.167969-39.167969-7.257812 0-14.351562 2.007812-20.535156 5.816406-22.394531 13.769532-36.296875 38.65625-36.296875 64.945313 0 23.160156 6.167969 45.972656 17.839844 65.980469 26.464844 45.378906 65.289062 81.769531 112.265625 105.25l15.0625 7.535156c-.0625.046875-.128907.097656-.191407.144531-4.746093 3.671875-8.167968 6.328125-15.777343 6.328125-7.597657 0-11.023438-2.65625-15.765625-6.328125-5.5625-4.304687-12.488282-9.671875-25.5625-9.671875-13.070313 0-20 5.367188-25.566406 9.671875-4.746094 3.671875-8.167969 6.328125-15.769532 6.328125-7.597656 0-11.023437-2.65625-15.765625-6.328125-5.5625-4.304687-12.488281-9.671875-25.5625-9.671875-13.070312 0-20 5.367188-25.558593 9.679688-4.746094 3.664062-8.167969 6.320312-15.761719 6.320312-7.582031 0-11-2.648438-15.734375-6.320312-5.34375-4.144532-12.007813-9.207032-24.105469-9.609376l-10.238281-13.65625c-21.800782-29.0625-33.808594-65.085937-33.808594-101.429687 0-28.183594 6.664062-56.417969 19.273438-81.640625 12.726562-25.457031 30.039062-47.863281 51.453124-66.609375 18.234376-15.949219 41.617188-24.734375 65.847657-24.734375h3.425781c55.144531 0 100 44.855469 100 100 0 15.441406-12.558594 28-28 28s-28-12.558594-28-28v-4h-16v4c0 24.265625 19.734375 44 44 44s44-19.734375 44-44c0-63.960938-52.039062-116-116-116h-3.425781c-28.109375 0-55.230469 10.191406-76.382813 28.695312-22.984375 20.113282-41.558594 44.167969-55.230468 71.488282-13.714844 27.441406-20.960938 58.144531-20.960938 88.800781 0 39.785156 13.144531 79.214844 37.015625 111.03125l5.570313 7.425781c-3.851563 1.847656-6.867188 4.160156-9.546876 6.238282-4.742187 3.664062-8.167968 6.320312-15.757812 6.320312-7.585938 0-11-2.648438-15.738281-6.320312-5.558594-4.3125-12.488281-9.679688-25.542969-9.679688v16c7.585938 0 11 2.648438 15.734375 6.320312 5.570313 4.3125 12.488281 9.679688 25.546875 9.679688 13.0625 0 19.992188-5.367188 25.550781-9.671875 4.742188-3.671875 8.167969-6.328125 15.769531-6.328125 7.589844 0 11.007813 2.65625 15.75 6.328125 5.558594 4.304687 12.480469 9.671875 25.535157 9.671875 13.066406 0 19.992187-5.367188 25.554687-9.671875 4.742188-3.671875 8.175782-6.328125 15.765625-6.328125 7.59375 0 11.023438 2.65625 15.769531 6.328125 5.566407 4.304687 12.496094 9.671875 25.558594 9.671875 13.066406 0 19.992188-5.367188 25.5625-9.671875 4.742188-3.671875 8.175782-6.328125 15.773438-6.328125 7.601562 0 11.023437 2.65625 15.769531 6.328125 5.566406 4.304687 12.496094 9.671875 25.558594 9.671875 13.074219 0 20-5.367188 25.570312-9.671875 4.742188-3.671875 8.175781-6.328125 15.773438-6.328125 7.601562 0 11.023437 2.65625 15.769531 6.328125 5.566406 4.304687 12.496094 9.671875 25.558594 9.671875 13.074218 0 20-5.359375 25.570312-9.671875 4.75-3.671875 8.183594-6.328125 15.78125-6.328125 7.617188 0 11.050782 2.65625 15.800782 6.328125 5.578124 4.3125 12.511718 9.671875 25.59375 9.671875 13.070312 0 20.007812-5.359375 25.582031-9.671875 4.753906-3.671875 8.183593-6.328125 15.800781-6.328125v-16c-13.078125 0-20.015625 5.359375-25.59375 9.671875zm0 0"/><path d="m133.703125 172.976562-12.519531-9.953124c-7.304688 9.183593-13.6875 19.207031-18.984375 29.792968-9.289063 18.597656-14.199219 39.40625-14.199219 60.167969 0 26.015625 8.601562 51.816406 24.207031 72.625l12.59375 16.789063 12.800781-9.589844-12.59375-16.792969c-13.542968-18.070313-21.007812-40.457031-21.007812-63.03125 0-18.296875 4.328125-36.632813 12.511719-53.015625 4.800781-9.59375 10.585937-18.671875 17.191406-26.992188zm0 0"/><path d="m152.871094 152.902344-10.535156-12.039063c-4.214844 3.695313-8.3125 7.648438-12.167969 11.761719l11.671875 10.941406c3.488281-3.726562 7.199218-7.308594 11.03125-10.664062zm0 0"/><path d="m240.648438 243.152344 1.289062 3c1.949219 4.550781 4.039062 9.03125 6.253906 13.457031l14.296875-7.183594c-2.082031-4.128906-4.023437-8.320312-5.847656-12.570312l-1.28125-2.992188zm0 0"/><path d="m306.921875 228.441406-18.824219 12.542969 18.8125 9.421875c5.546875 2.769531 10.570313 6.394531 14.945313 10.769531 6.878906 6.878907 16.417969 10.824219 26.144531 10.824219 15.441406 0 28-12.558594 28-28s-12.558594-28-28-28c-14.664062 0-28.871094 4.304688-41.078125 12.441406zm53.078125 15.558594c0 6.617188-5.382812 12-12 12-5.519531 0-10.929688-2.238281-14.832031-6.144531-4.039063-4.039063-8.511719-7.574219-13.351563-10.558594 8.609375-4.785156 18.261719-7.296875 28.183594-7.296875 6.617188 0 12 5.382812 12 12zm0 0"/><path d="m333.816406 51.824219c10.871094-3.625 18.183594-13.769531 18.183594-25.230469 0-14.664062-11.929688-26.59375-26.59375-26.59375h-1.910156c-10.144532 0-19.265625 5.640625-23.910156 14.953125-7.585938 15.144531-11.585938 32.101563-11.585938 49.046875v14.953125l26.535156-17.695313c5.976563-3.984374 12.464844-7.160156 19.28125-9.433593zm-28.449218-3.6875c1.570312-9.058594 4.472656-17.929688 8.648437-26.28125 1.808594-3.617188 5.433594-5.855469 9.480469-5.855469h1.910156c5.839844 0 10.59375 4.753906 10.59375 10.59375 0 4.566406-2.910156 8.605469-7.257812 10.046875-8.15625 2.726563-15.917969 6.519531-23.078126 11.296875zm0 0"/><path d="m18.183594 75.824219c6.816406 2.28125 13.304687 5.449219 19.28125 9.433593l26.535156 17.695313v-14.953125c0-16.945312-4-33.902344-11.703125-49.296875-4.527344-9.0625-13.640625-14.703125-23.792969-14.703125h-1.910156c-14.664062 0-26.59375 11.929688-26.59375 26.59375 0 11.460938 7.3125 21.605469 18.183594 25.230469zm8.410156-35.824219h1.910156c4.039063 0 7.671875 2.238281 9.601563 6.113281 4.09375 8.183594 6.964843 17 8.527343 26.023438l-.296874-.199219c-7.160157-4.769531-14.921876-8.5625-23.078126-11.289062-4.347656-1.449219-7.257812-5.488282-7.257812-10.054688 0-5.839844 4.753906-10.59375 10.59375-10.59375zm0 0"/><path d="m368 312h16v16h-16zm0 0"/><path d="m256 16h16v16h-16zm0 0"/><path d="m0 136h16v16h-16zm0 0"/><path d="m16 344h16v16h-16zm0 0"/></svg>