<svg height="496pt" viewBox="0 0 496 496" width="496pt" xmlns="http://www.w3.org/2000/svg" xmlns:xlink="http://www.w3.org/1999/xlink"><linearGradient id="a" gradientUnits="userSpaceOnUse" x1="248" x2="248" y1="496" y2="0"><stop offset="0" stop-color="#9f2fff"/><stop offset="1" stop-color="#0bb1d3"/></linearGradient><path d="m200 224h96v16h-96zm198.222656-96.175781-66.390625 77.945312 7.953125 15.894531c2.75 5.527344 4.214844 11.71875 4.214844 17.886719v40.449219c0 7.054688-1.992188 13.601562-5.214844 19.359375l58.207032 68.34375 56.382812-56.382813c4.648438-4.65625 11.082031-7.320312 17.65625-7.320312 13.769531 0 24.96875 11.199219 24.96875 24.96875 0 6.671875-2.59375 12.941406-7.3125 17.65625l-36.589844 36.597656-22.203125 5.554688c1.328125 3.550781 2.105469 7.320312 2.105469 11.222656 0 8.542969-3.328125 16.585938-9.375 22.625-5.160156 5.160156-11.808594 8.199219-18.953125 9.015625l-57.046875 57.046875c-4.648438 4.648438-11.082031 7.3125-17.65625 7.3125-13.769531 0-24.96875-11.199219-24.96875-24.96875 0-6.671875 2.59375-12.941406 7.3125-17.65625l36.589844-36.597656 22.203125-5.554688c-1.328125-3.550781-2.105469-7.320312-2.105469-11.222656 0-.238281.0625-.464844.070312-.703125l-65.628906-56.023437c-10.082031 14.902343-27.136718 24.726562-46.441406 24.726562h-16c-19.304688 0-36.359375-9.824219-46.433594-24.734375l-64.183594 54.796875 55.3125 55.3125c4.710938 4.714844 7.304688 10.984375 7.304688 17.65625 0 13.769531-11.199219 24.96875-24.96875 24.96875-6.574219 0-13.007812-2.664062-17.65625-7.3125l-36.597656-36.597656-5.546875-22.203125c-3.558594 1.335937-7.328125 2.113281-11.230469 2.113281-8.542969 0-16.585938-3.335938-22.625-9.375-5.167969-5.160156-8.199219-11.808594-9.015625-18.953125l-57.046875-57.046875c-4.71875-4.714844-7.3125-10.984375-7.3125-17.65625 0-13.769531 11.199219-24.96875 24.96875-24.96875 6.574219 0 13.007812 2.664062 17.65625 7.3125l36.597656 36.597656 5.546875 22.203125c3.558594-1.335937 7.328125-2.113281 11.230469-2.113281.863281 0 1.6875.183594 2.542969.246094l58.671875-68.886719c-3.222656-5.757813-5.214844-12.304687-5.214844-19.359375v-40.449219c0-6.167969 1.464844-12.359375 4.214844-17.886719l7.953125-15.894531-65.601563-77.027343-55.941406 55.945312c-4.648438 4.648438-11.082031 7.3125-17.65625 7.3125-13.769531 0-24.96875-11.199219-24.96875-24.96875 0-6.671875 2.59375-12.941406 7.3125-17.65625l36.589844-36.597656 22.203125-5.554688c-1.328125-3.550781-2.105469-7.320312-2.105469-11.222656 0-8.542969 3.328125-16.585938 9.375-22.625 5.160156-5.160156 11.808594-8.199219 18.953125-9.015625l57.046875-57.046875c4.648438-4.648438 11.082031-7.3125 17.65625-7.3125 13.769531 0 24.96875 11.199219 24.96875 24.96875 0 6.671875-2.59375 12.941406-7.3125 17.65625l-36.589844 36.597656-22.203125 5.554688c1.328125 3.550781 2.105469 7.320312 2.105469 11.222656 0 .542969-.128906 1.0625-.160156 1.601562l91.839844 78.398438h56.625l90.832031-77.542969-55.832031-55.832031c-4.710938-4.714844-7.304688-10.984375-7.304688-17.65625 0-13.769531 11.199219-24.96875 24.96875-24.96875 6.574219 0 13.007812 2.664062 17.65625 7.3125l36.597656 36.597656 5.546875 22.203125c3.558594-1.335937 7.328125-2.113281 11.230469-2.113281 8.542969 0 16.585938 3.335938 22.625 9.375 5.167969 5.160156 8.199219 11.808594 9.015625 18.953125l57.046875 57.046875c4.71875 4.714844 7.3125 10.984375 7.3125 17.65625 0 13.769531-11.199219 24.96875-24.96875 24.96875-6.574219 0-13.007812-2.664062-17.65625-7.3125l-36.597656-36.597656-5.546875-22.203125c-3.558594 1.335937-7.328125 2.113281-11.230469 2.113281-.609375 0-1.175781-.144531-1.777344-.175781zm79.152344 32.863281-49.414062-49.414062c-.824219 1.503906-1.761719 2.925781-2.824219 4.292968l6.085937 24.335938 33.464844 33.464844c1.671875 1.671874 3.984375 2.632812 6.34375 2.632812 4.945312 0 8.96875-4.023438 8.96875-8.96875 0-2.398438-.929688-4.648438-2.625-6.34375zm-77.375-80.6875c-4.273438 0-8.289062 1.664062-11.3125 4.6875s-4.6875 7.039062-4.6875 11.3125 1.664062 8.289062 4.6875 11.3125c6.046875 6.046875 16.578125 6.046875 22.625 0 3.023438-3.023438 4.6875-7.039062 4.6875-11.3125s-1.664062-8.289062-4.6875-11.3125-7.039062-4.6875-11.3125-4.6875zm-77.375-48.6875 49.414062 49.414062c.824219-1.503906 1.761719-2.925781 2.824219-4.292968l-6.085937-24.335938-33.464844-33.464844c-1.671875-1.671874-3.984375-2.632812-6.34375-2.632812-4.945312 0-8.96875 4.023438-8.96875 8.96875 0 2.398438.929688 4.648438 2.625 6.34375zm-10.625 208.6875v-16h11.054688l-9.375-18.734375c-4.085938-8.1875-12.304688-13.265625-21.457032-13.265625h-88.445312c-9.152344 0-17.371094 5.078125-21.464844 13.265625l-9.367188 18.734375h11.054688v16h-16v40c0 5.585938 1.992188 10.65625 5.199219 14.742188l.023437-.015626v.050782c4.402344 5.566406 11.136719 9.222656 18.777344 9.222656h24c0-17.648438 14.351562-32 32-32s32 14.351562 32 32h24c7.535156 0 14.183594-3.558594 18.59375-9.007812l.183594-.273438.023437.015625c3.207031-4.078125 5.199219-9.148437 5.199219-14.734375v-40zm-48 64c0-8.824219-7.175781-16-16-16s-16 7.175781-16 16zm-141.585938-189.984375c-1.117187 1.632813-2.367187 3.183594-3.789062 4.617187-1.394531 1.390626-2.914062 2.605469-4.503906 3.703126l58.511718 68.695312c5.878907-7.375 14.109376-12.375 23.382813-14.183594zm-11.140624-45.976563c1.503906.824219 2.925781 1.761719 4.292968 2.824219l24.335938-6.085937 33.472656-33.464844c1.695312-1.695312 2.625-3.945312 2.625-6.34375 0-4.945312-4.023438-8.96875-8.96875-8.96875-2.359375 0-4.671875.960938-6.34375 2.625zm-31.273438 27.960938c0 4.273438 1.664062 8.289062 4.6875 11.3125 6.046875 6.046875 16.578125 6.046875 22.625 0 3.023438-3.023438 4.6875-7.039062 4.6875-11.3125s-1.664062-8.289062-4.6875-11.3125-7.039062-4.6875-11.3125-4.6875-8.289062 1.664062-11.3125 4.6875-4.6875 7.039062-4.6875 11.3125zm.726562 27.960938c-1.503906-.824219-2.925781-1.761719-4.292968-2.824219l-24.335938 6.085937-33.472656 33.464844c-1.695312 1.695312-2.625 3.945312-2.625 6.34375 0 4.945312 4.023438 8.96875 8.96875 8.96875 2.359375 0 4.671875-.960938 6.34375-2.625zm-62.101562 211.351562 49.414062 49.414062c.824219-1.503906 1.761719-2.925781 2.824219-4.292968l-6.085937-24.335938-33.464844-33.464844c-1.671875-1.671874-3.984375-2.632812-6.34375-2.632812-4.945312 0-8.96875 4.023438-8.96875 8.96875 0 2.398438.929688 4.648438 2.625 6.34375zm88.6875 76c3.023438-3.023438 4.6875-7.039062 4.6875-11.3125s-1.664062-8.289062-4.6875-11.3125-7.039062-4.6875-11.3125-4.6875-8.289062 1.664062-11.3125 4.6875-4.6875 7.039062-4.6875 11.3125 1.664062 8.289062 4.6875 11.3125c6.046875 6.046875 16.578125 6.046875 22.625 0zm66.0625 53.375-49.414062-49.414062c-.824219 1.503906-1.761719 2.925781-2.824219 4.292968l6.085937 24.335938 33.464844 33.464844c1.671875 1.671874 3.984375 2.632812 6.34375 2.632812 4.945312 0 8.96875-4.023438 8.96875-8.96875 0-2.398438-.929688-4.648438-2.625-6.34375zm13.066406-136.382812c-.898437-2.921876-1.511718-5.960938-1.914062-9.066407-6.230469-1.183593-11.878906-3.894531-16.726563-7.621093l-53.183593 62.445312c1.398437 1.007812 2.773437 2.066406 4.015624 3.304688 1.605469 1.609374 2.992188 3.375 4.207032 5.234374zm108.75-8.304688h-94.382812c3.71875 18.230469 19.871094 32 39.191406 32h16c19.3125 0 35.472656-13.769531 39.191406-32zm77.976563 62.609375c1.207031-1.867187 2.59375-3.625 4.199219-5.234375 1.242187-1.238281 2.617187-2.296875 4.015624-3.304688l-53.183593-62.445312c-4.855469 3.726562-10.496094 6.429688-16.726563 7.621094-.402344 3.105468-1.023437 6.136718-1.914062 9.066406zm11.558593 45.351563c-1.503906-.824219-2.925781-1.761719-4.292968-2.824219l-24.335938 6.085937-33.472656 33.464844c-1.695312 1.695312-2.625 3.945312-2.625 6.34375 0 4.945312 4.023438 8.96875 8.96875 8.96875 2.359375 0 4.671875-.960938 6.34375-2.625zm31.273438-27.960938c0-4.273438-1.664062-8.289062-4.6875-11.3125s-7.039062-4.6875-11.3125-4.6875-8.289062 1.664062-11.3125 4.6875-4.6875 7.039062-4.6875 11.3125 1.664062 8.289062 4.6875 11.3125c6.046875 6.046875 16.578125 6.046875 22.625 0 3.023438-3.023438 4.6875-7.039062 4.6875-11.3125zm-.726562-27.960938c1.503906.824219 2.925781 1.761719 4.292968 2.824219l24.335938-6.085937 33.472656-33.464844c1.695312-1.695312 2.625-3.945312 2.625-6.34375 0-4.945312-4.023438-8.96875-8.96875-8.96875-2.359375 0-4.671875.960938-6.34375 2.625zm-33.394532-249.710937c-1.582031-1.097656-3.109375-2.3125-4.503906-3.703125-1.429688-1.425781-2.679688-2.984375-3.789062-4.617188l-73.601563 62.832032c9.273437 1.816406 17.503906 6.816406 23.382813 14.183594zm0 0" fill="url(#a)"/></svg>