<svg height="502pt" viewBox="0 -3 502.624 502" width="502pt" xmlns="http://www.w3.org/2000/svg" xmlns:xlink="http://www.w3.org/1999/xlink"><linearGradient id="a" gradientUnits="userSpaceOnUse" x1="251.312" x2="251.312" y1="496.312" y2=".312"><stop offset="0" stop-color="#9f2fff"/><stop offset="1" stop-color="#0bb1d3"/></linearGradient><path d="m187.3125 240.3125h128v-48h-128zm16-32h96v16h-96zm92-80h-88l-24 32h-36v16h208v-16h-36zm-80 16h72l12 16h-96zm263.3125-64 24-24-24-24h-35.3125c0-17.648438-14.351562-32-32-32s-32 14.351562-32 32h-35.3125l-24 24 24 24h35.3125v48h-20.320312c-26.863282-30.550781-65.335938-48-106.167969-48h-3.039063c-40.824218 0-79.304687 17.449219-106.167968 48h-20.304688v-48h35.3125l24-24-24-24h-35.3125c0-17.648438-14.351562-32-32-32s-32 14.351562-32 32h-35.3125l-24 24 24 24h35.3125v48h-32c-13.234375 0-24 10.765625-24 24v32c0 13.230469 10.765625 24 24 24h56.664062l-68.039062 128.960938c-3.027344 5.726562-4.625 12.183593-4.625 18.664062v124.375c0 8.824219 7.175781 16 16 16h16c8.824219 0 16-7.175781 16-16h8c13.230469 0 24-10.769531 24-24v-48c0-13.234375-10.769531-24-24-24h-8v-25.738281l73.71875-140.421875 23.839844 38.160156h-17.558594v48h64v16h-8c-13.234375 0-24 10.765625-24 24v16h-16v-16h-48v96h48v-16h16v16c0 13.230469 10.765625 24 24 24h160c13.230469 0 24-10.769531 24-24v-96c0-13.234375-10.769531-24-24-24h-56v-16h64v-48h-17.558594l23.847656-38.160156 73.710938 140.421875v25.738281h-8c-13.234375 0-24 10.765625-24 24v48c0 13.230469 10.765625 24 24 24h8c0 8.824219 7.175781 16 16 16h16c8.824219 0 16-7.175781 16-16v-124.375c0-6.488281-1.601562-12.9375-4.625-18.664062l-68.039062-128.960938h56.664062c13.230469 0 24-10.769531 24-24v-32c0-13.234375-10.769531-24-24-24h-32v-48zm-67.3125-64c8.824219 0 16 7.175781 16 16h-32c0-8.824219 7.175781-16 16-16zm-68.6875 40 8-8h121.375l8 8-8 8h-121.375zm-251.3125-40c8.824219 0 16 7.175781 16 16h-32c0-8.824219 7.175781-16 16-16zm-68.6875 40 8-8h121.375l8 8-8 8h-121.375zm52.6875 24h32v48h-32zm-8 320c4.40625 0 8 3.582031 8 8v48c0 4.414062-3.59375 8-8 8h-8v-64zm-22.167969-49.167969c-1.199219 2.296875-1.832031 4.863281-1.832031 7.429688v121.738281h-16v-124.375c0-3.890625.960938-7.761719 2.777344-11.195312l71.972656-136.429688h18.066406zm94.167969 73.167969h-16v-64h16zm16-16v-32h16v32zm40 40c-4.410156 0-8-3.585938-8-8v-72h48.886719c-10.40625 10.175781-16.886719 24.335938-16.886719 40s6.480469 29.824219 16.886719 40zm120-40c0 22.054688-17.945312 40-40 40s-40-17.945312-40-40 17.945312-40 40-40 40 17.945312 40 40zm40 40h-40.886719c10.40625-10.175781 16.886719-24.335938 16.886719-40s-6.480469-29.824219-16.886719-40h48.886719v72c0 4.414062-3.59375 8-8 8zm8-104v8h-176v-8c0-4.417969 3.589844-8 8-8h160c4.40625 0 8 3.582031 8 8zm-80-24h-64v-16h64zm64-32h-192v-16h192zm88 176c-4.410156 0-8-3.585938-8-8v-48c0-4.417969 3.589844-8 8-8h8v64zm37.222656-119.570312c1.816406 3.433593 2.777344 7.304687 2.777344 11.195312v124.375h-16v-121.738281c0-2.566407-.632812-5.140625-1.832031-7.4375l-74.984375-142.824219h18.0625zm10.777344-192.429688v32c0 4.414062-3.59375 8-8 8h-108.433594l-40 64h-151.125l-40-64h-108.441406c-4.410156 0-8-3.585938-8-8v-32c0-4.417969 3.589844-8 8-8h123.742188l2.402343-2.871094c23.894531-28.679687 59.007813-45.128906 96.335938-45.128906h3.039062c37.328125 0 72.441407 16.449219 96.335938 45.128906l2.398437 2.871094h123.746094c4.40625 0 8 3.582031 8 8zm-56-24h-32v-48h32zm-176 280c0-13.234375 10.765625-24 24-24 13.230469 0 24 10.765625 24 24h-16c0-4.417969-3.59375-8-8-8-4.410156 0-8 3.582031-8 8 0 4.414062 3.589844 8 8 8v16c-13.234375 0-24-10.769531-24-24zm-216-248h16v16h-16zm32 0h16v16h-16zm32 0h16v16h-16zm304 16h-16v-16h16zm32 0h-16v-16h16zm32 0h-16v-16h16zm0 0" fill="url(#a)"/></svg>