<svg height="496pt" viewBox="0 0 496 496" width="496pt" xmlns="http://www.w3.org/2000/svg" xmlns:xlink="http://www.w3.org/1999/xlink"><linearGradient id="a" gradientUnits="userSpaceOnUse" x1="248" x2="248" y1="496" y2="0"><stop offset="0" stop-color="#9f2fff"/><stop offset="1" stop-color="#0bb1d3"/></linearGradient><path d="m70.671875 288h22.40625l71.53125-152h-42l16-56h-56.210937l-37.824219 104h42.097656zm-3.246094-120 26.175781-72h23.789063l-16 56h38l-46.949219 99.792969 12.886719-83.792969zm-27.425781 184h9.496094c35.480468 86.320312 120.886718 144 214.503906 144 127.921875 0 232-104.070312 232-232s-104.078125-232-232-232c-30.191406 0-59.519531 5.769531-87.238281 17.03125-2.832031-.632812-5.746094-1.03125-8.761719-1.03125h-8v-24c0-13.230469-10.769531-24-24-24h-64c-13.230469 0-24 10.769531-24 24v24h-8c-22.054688 0-40 17.945312-40 40v224c0 22.054688 17.945312 40 40 40zm-22.527344-32h173.046875c-3.3125 9.289062-12.113281 16-22.527343 16h-127.992188c-10.414062 0-19.214844-6.710938-22.527344-16zm238.527344-239.65625v31.65625h16v-31.800781c44.710938 1.921875 85.328125 19.855469 116.257812 48.234375l-22.433593 22.429687 11.3125 11.3125 22.429687-22.433593c28.371094 30.929687 46.304688 71.546874 48.234375 116.257812h-31.800781v16h31.800781c-1.921875 44.710938-19.855469 85.328125-48.234375 116.257812l-22.429687-22.433593-11.3125 11.3125 22.433593 22.429687c-30.929687 28.371094-71.546874 46.304688-116.257812 48.234375v-31.800781h-16v31.703125c-43.726562-1.917969-84.710938-19.445313-116.175781-48.214844l22.359375-22.351562-11.3125-11.3125-22.375 22.375c-10-10.878907-18.808594-22.960938-26.03125-36.199219h65.535156c22.054688 0 40-17.945312 40-40v-223.128906c15.566406-4.976563 31.648438-7.824219 48-8.527344zm8-32.34375c119.105469 0 216 96.894531 216 216s-96.894531 216-216 216c-84.953125 0-162.632812-51.015625-197.121094-128h17.664063c33.503906 68.167969 103.304687 112 179.457031 112 110.28125 0 200-89.71875 200-200s-89.71875-200-200-200c-20.097656 0-39.863281 3.160156-58.960938 9.054688-2.152343-5.3125-5.40625-10.023438-9.488281-13.917969 21.984375-7.351563 44.929688-11.136719 68.449219-11.136719zm-200-24c0-4.40625 3.585938-8 8-8h64c4.414062 0 8 3.59375 8 8v24h-80zm-24 40h128c13.230469 0 24 10.769531 24 24v216h-176v-216c0-13.230469 10.769531-24 24-24zm266.34375 253.65625-50.34375-50.34375v-107.3125h16v100.6875l45.65625 45.65625zm0 0" fill="url(#a)"/></svg>