<svg height="496pt" viewBox="0 -56 496 496" width="496pt" xmlns="http://www.w3.org/2000/svg" xmlns:xlink="http://www.w3.org/1999/xlink"><linearGradient id="a" gradientUnits="userSpaceOnUse" x1="248" x2="248" y1="384" y2="0"><stop offset="0" stop-color="#9f2fff"/><stop offset="1" stop-color="#0bb1d3"/></linearGradient><path d="m456 32h-8.808594c-3.71875-18.230469-19.878906-32-39.191406-32h-320c-19.3125 0-35.472656 13.769531-39.191406 32h-8.808594c-22.054688 0-40 17.945312-40 40v208c0 48.519531 39.480469 88 88 88h33.472656c3.3125 9.289062 12.113282 16 22.527344 16s19.214844-6.710938 22.527344-16h162.953125c3.3125 9.289062 12.113281 16 22.527343 16 10.417969 0 19.214844-6.710938 22.527344-16h33.464844c48.519531 0 88-39.480469 88-88v-208c0-22.054688-17.945312-40-40-40zm-24 8v80c0 22.054688-17.945312 40-40 40h-72v-16h64c17.648438 0 32-14.351562 32-32v-94.527344c9.289062 3.3125 16 12.113282 16 22.527344zm-26.441406 229.648438c-3.878906-8.039063-12.046875-13.648438-21.558594-13.648438h-64c-10.414062 0-19.214844 6.710938-22.527344 16h-98.945312c-3.3125-9.289062-12.113282-16-22.527344-16h-64c-9.519531 0-17.679688 5.609375-21.558594 13.65625-15.671875-5.585938-26.441406-20.449219-26.441406-37.65625v-72.886719c10.175781 10.40625 24.335938 16.886719 40 16.886719h288c15.664062 0 29.824219-6.480469 40-16.886719v72.886719c0 17.199219-10.777344 32.0625-26.441406 37.648438zm-85.558594 34.351562c-4.40625 0-8-3.585938-8-8v-16c0-4.414062 3.59375-8 8-8h64c4.40625 0 8 3.585938 8 8v16c0 4.414062-3.59375 8-8 8zm-208 0c-4.40625 0-8-3.585938-8-8v-16c0-4.414062 3.59375-8 8-8h64c4.40625 0 8 3.585938 8 8v16c0 4.414062-3.59375 8-8 8zm56 16h8c13.230469 0 24-10.769531 24-24v-8h96v8c0 13.230469 10.769531 24 24 24h8v32h-160zm-72-304h304v96c0 8.824219-7.175781 16-16 16h-65.472656c-3.3125-9.289062-12.113282-16-22.527344-16h-96c-10.414062 0-19.214844 6.710938-22.527344 16h-65.472656c-8.824219 0-16-7.175781-16-16zm96 120c0-4.414062 3.59375-8 8-8h96c4.40625 0 8 3.585938 8 8v24h-112zm-128-96c0-10.414062 6.710938-19.214844 16-22.527344v94.527344c0 17.648438 14.351562 32 32 32h64v16h-72c-22.054688 0-40-17.945312-40-40zm-48 240v-208c0-13.230469 10.769531-24 24-24h8v184c0 25.160156 16.464844 46.679688 40 53.632812v10.367188c0 13.230469 10.769531 24 24 24h8v32h-32c-39.695312 0-72-32.296875-72-72zm128 88c-4.40625 0-8-3.585938-8-8v-40h16v40c0 4.414062-3.59375 8-8 8zm208 0c-4.40625 0-8-3.585938-8-8v-40h16v40c0 4.414062-3.59375 8-8 8zm128-88c0 39.703125-32.304688 72-72 72h-32v-32h8c13.230469 0 24-10.769531 24-24v-10.367188c23.527344-6.953124 40-28.488281 40-53.632812v-184h8c13.230469 0 24 10.769531 24 24zm-176-40h96v-48h-96zm16-32h64v16h-64zm0 0" fill="url(#a)"/></svg>