<svg height="496pt" viewBox="0 0 496 496" width="496pt" xmlns="http://www.w3.org/2000/svg" xmlns:xlink="http://www.w3.org/1999/xlink"><linearGradient id="a" gradientUnits="userSpaceOnUse" x1="248" x2="248" y1="496" y2="0"><stop offset="0" stop-color="#9f2fff"/><stop offset="1" stop-color="#0bb1d3"/></linearGradient><path d="m480 144h-80v32h-16v96h32v32h16v136c0 13.230469-10.769531 24-24 24h-64v-16h-16v32h80c22.054688 0 40-17.945312 40-40v-136h16v-32h32v-96h-16zm-64 16h48v16h-48zm32 128h-16v-16h16zm32-32h-80v-64h80zm-16-16h-48v-16h48zm-440 128h72v32h24v40c0 22.054688 17.945312 40 40 40h40v16h16v-32h-56c-13.230469 0-24-10.769531-24-24v-40h24v-32h72c13.230469 0 24-10.769531 24-24v-320c0-13.230469-10.769531-24-24-24h-208c-13.230469 0-24 10.769531-24 24v320c0 13.230469 10.769531 24 24 24zm120 16h-32v-16h32zm-128-360c0-4.40625 3.59375-8 8-8h208c4.40625 0 8 3.59375 8 8v320c0 4.40625-3.59375 8-8 8h-208c-4.40625 0-8-3.59375-8-8zm48 24h-32v-16h32zm96 272h64v16h-64zm16-32h48v16h-48zm-81 32h22.503906l70.097656-184h-42.027343l16-88h-55.726563l-36.261718 136h41.414062zm-4.585938-152 27.730469-104h24.269531l-16 88h37.976563l-48.488281 127.28125 13.097656-111.28125zm141.585938 280h16v48h-16zm48 0v48h-16v-48zm32 48h-16v-48h16zm0 0" fill="url(#a)"/></svg>