<svg height="496pt" viewBox="0 0 496.008 496" width="496pt" xmlns="http://www.w3.org/2000/svg" xmlns:xlink="http://www.w3.org/1999/xlink"><linearGradient id="a" gradientTransform="matrix(8 0 0 -8 -8 504.004)" gradientUnits="userSpaceOnUse" x1="32" x2="32" y1="1" y2="63"><stop offset="0" stop-color="#9f2fff"/><stop offset="1" stop-color="#0bb1d3"/></linearGradient><path d="m452.847656 188.84375c-1.382812-2.070312-3.070312-3.855469-4.910156-5.480469-.335938-12.925781-10.914062-23.359375-23.929688-23.359375h-136v-32h-16.640624l-5.773438-69.3125c8.671875-5.726562 14.414062-15.535156 14.414062-26.6875 0-17.648437-14.351562-31.99999975-32-31.99999975-17.648437 0-32 14.35156275-32 31.99999975 0 11.152344 5.746094 20.960938 14.417969 26.6875l-5.785156 69.3125h-16.640625v32h-135.992188c-13.015624 0-23.59375 10.433594-23.9375 23.367188-1.832031 1.625-3.527343 3.410156-4.910156 5.480468l-28.375 42.570313c-9.671875 14.492187-14.785156 31.367187-14.785156 48.804687v101.929688c0 7.183594.878906 14.367188 2.632812 21.34375l11.136719 44.503906h-13.7617185v48h111.9999995v-48h-16v-32.390625c0-8.511719 2.648438-16.648437 7.648438-23.527343l5.871094-8.082032h276.960937l5.871094 8.082032c5 6.878906 7.648437 15.015624 7.648437 23.527343v32.390625h-16v48h112v-48h-13.761718l11.128906-44.503906c1.753906-6.976562 2.632812-14.160156 2.632812-21.34375v-101.9375c0-17.4375-5.113281-34.3125-14.785156-48.808594zm-204.839844-172.839844c8.824219 0 16 7.175782 16 16 0 8.824219-7.175781 16-16 16-8.824218 0-16-7.175781-16-16 0-8.824218 7.175782-16 16-16zm-1.960937 47.800782c.664063.039062 1.28125.199218 1.960937.199218.679688 0 1.296876-.160156 1.960938-.199218l5.351562 64.199218h-14.617187zm-22.039063 80.199218h48v16h-48zm75.046876 32-8 16h-86.109376l-8-16zm-203.046876 304h-80v-16h80zm-5.289062-97.328125c-7.007812 9.625-10.710938 21.015625-10.710938 32.9375v32.390625h-49.761718l-12.09375-48.382812c-1.425782-5.714844-2.152344-11.59375-2.152344-17.472656v-101.929688c0-14.261719 4.175781-28.070312 12.097656-39.933594l19.910156-29.855468v140.269531c-2.375.769531-4.824218 1.304687-7.390624 1.304687h-8.609376v16h8.617188c12.207031 0 23.589844-5.472656 31.238281-15.007812l47.890625-59.878906c2.597656-3.25 6.476563-5.113282 10.636719-5.113282 7.503906 0 13.609375 6.105469 13.609375 13.609375v3.359375c0 2.894532-.894531 5.671875-2.601562 8.015625zm5.289062-86.671875c0-22.054687 17.945313-40 40-40 22.054688 0 40 17.945313 40 40 0 18.832032-13.128906 34.566406-30.6875 38.792969l9.023438-12.402344c3.703125-5.09375 5.664062-11.117187 5.664062-17.421875v-3.359375c0-16.328125-13.289062-29.609375-29.609374-29.609375-9.046876 0-17.476563 4.046875-23.132813 11.113282l-11.152344 13.941406c-.015625-.359375-.105469-.695313-.105469-1.054688zm112 72v-32h32v32zm48 0v-32h32v32zm48 0v-48h-112v48h-70.839843l11.808593-16.230468c1.007813.054687 2.007813.230468 3.03125.230468 30.871094 0 56-25.128906 56-56s-25.128906-56-56-56c-30.871093 0-56 25.128906-56 56 0 6.039063.992188 11.9375 2.871094 17.601563l-18.871094 23.597656v-153.199219c0-4.40625 3.585938-8 8-8h107.054688l16 32h105.890625l16-32h107.054687c4.417969 0 8 3.59375 8 8v153.191406l-18.878906-23.589843c1.878906-5.664063 2.871094-11.5625 2.871094-17.601563 0-30.871094-25.128906-56-56-56s-56 25.128906-56 56 25.128906 56 56 56c1.015625 0 2.015625-.175781 3.03125-.230468l11.816406 16.230468zm37.664063-45.609375 9.023437 12.402344c-17.558593-4.226563-30.6875-19.960937-30.6875-38.792969 0-22.054687 17.945313-40 40-40 22.054688 0 40 17.945313 40 40 0 .359375-.097656.703125-.105468 1.0625l-11.160156-13.949218c-5.644532-7.066407-14.078126-11.113282-23.125-11.113282-16.328126 0-29.609376 13.28125-29.609376 29.609375v3.359375c0 6.304688 1.953126 12.328125 5.664063 17.421875zm138.335937 157.609375h-80v-16h80zm-64-32v-32.390625c0-11.921875-3.703124-23.3125-10.710937-32.9375l-50.6875-69.6875c-1.707031-2.34375-2.601563-5.121093-2.601563-8.015625v-3.359375c0-7.503906 6.105469-13.609375 13.609376-13.609375 4.167968 0 8.039062 1.855469 10.628906 5.113282l47.90625 59.878906c7.632812 9.535156 19.015625 15.007812 31.230468 15.007812h8.625v-16h-8.617187c-2.558594 0-5.015625-.535156-7.382813-1.304687v-140.269531l19.902344 29.863281c7.914063 11.863281 12.097656 25.664062 12.097656 39.933593v101.929688c0 5.871094-.726562 11.757812-2.152343 17.472656l-12.085938 48.375zm-208-144h80v-80h-80zm16-16v-16h48v16zm48-48v16h-48v-16zm0 0" fill="url(#a)"/></svg>