<svg height="496pt" viewBox="0 0 496 496" width="496pt" xmlns="http://www.w3.org/2000/svg" xmlns:xlink="http://www.w3.org/1999/xlink"><linearGradient id="a" gradientUnits="userSpaceOnUse" x1="248" x2="248" y1="496" y2="0"><stop offset="0" stop-color="#9f2fff"/><stop offset="1" stop-color="#0bb1d3"/></linearGradient><path d="m128 240h240v16h-240zm320-160v49.472656c9.289062 3.3125 16 12.113282 16 22.527344v56.808594c18.230469 3.71875 32 19.871094 32 39.191406 0 22.054688-17.945312 40-40 40h-16.496094c-2.574218 23.128906-16.121094 43.367188-35.984375 54.632812l42.753907 8.550782c14.902343 2.976562 25.726562 16.167968 25.726562 31.367187v66.921875c9.289062 3.3125 16 12.113282 16 22.527344v24h-80v-24c0-10.414062 6.710938-19.214844 16-22.527344v-53.800781l-32-6.398437v74.726562h-288v-74.726562l-32 6.398437v53.800781c9.289062 3.3125 16 12.113282 16 22.527344v24h-80v-24c0-10.414062 6.710938-19.214844 16-22.527344v-66.921875c0-15.199219 10.824219-28.398437 25.726562-31.375l42.753907-8.550781c-19.863281-11.257812-33.410157-31.496094-35.984375-54.625h-16.496094c-22.054688 0-40-17.945312-40-40 0-19.3125 13.769531-35.472656 32-39.191406v-56.808594c0-10.414062 6.710938-19.214844 16-22.527344v-49.472656h-24c-13.230469 0-24-10.769531-24-24s10.769531-24 24-24h24v-8c0-13.230469 10.769531-24 24-24s24 10.769531 24 24v8h24c13.230469 0 24 10.769531 24 24s-10.769531 24-24 24h-24v49.472656c9.289062 3.3125 16 12.113282 16 22.527344v56h26.238281l16-48h187.53125l16 48h26.230469v-56c0-10.414062 6.710938-19.214844 16-22.527344v-49.472656h-24c-13.230469 0-24-10.769531-24-24s10.769531-24 24-24h24v-8c0-13.230469 10.769531-24 24-24s24 10.769531 24 24v8h24c13.230469 0 24 10.769531 24 24s-10.769531 24-24 24zm-16-32v16h16v-16zm-16 0h-16v16h16zm56 0h-8v16h8c4.414062 0 8-3.585938 8-8s-3.585938-8-8-8zm-56-16h16v-8c0-4.414062-3.585938-8-8-8s-8 3.585938-8 8zm-40 32h8v-16h-8c-4.414062 0-8 3.585938-8 8s3.585938 8 8 8zm24 88v8h48v-8c0-4.414062-3.585938-8-8-8h-32c-4.414062 0-8 3.585938-8 8zm0 56h48v-32h-48zm-244.902344 0h185.804688l-10.671875-32h-164.460938zm-59.097656 0v-32h-48v32zm-16-160v16h16v-16zm-16 0h-16v16h16zm56 0h-8v16h8c4.414062 0 8-3.585938 8-8s-3.585938-8-8-8zm-56-16h16v-8c0-4.414062-3.585938-8-8-8s-8 3.585938-8 8zm-40 32h8v-16h-8c-4.414062 0-8 3.585938-8 8s3.585938 8 8 8zm40 16v48h16v-48zm-16 72v8h48v-8c0-4.414062-3.585938-8-8-8h-32c-4.414062 0-8 3.585938-8 8zm56 178.527344v-42.527344h-31.328125c2.671875 18.601562 14.472656 34.535156 31.328125 42.527344zm272-33.007813-87.214844 75.601563 87.214844 66.695312zm-256 142.296875 87.222656-66.703125-87.222656-75.59375zm15.625 8.183594h224.75l-84.414062-64.558594c-8.289063 5.460938-17.953126 8.558594-27.960938 8.558594s-19.671875-3.097656-27.953125-8.558594zm226.925781-160h-229.101562l91.695312 79.480469c12.6875 10.984375 33.007813 10.984375 45.710938 0zm-290.550781 184c0-4.414062-3.585938-8-8-8h-32c-4.414062 0-8 3.585938-8 8v8h48zm32-99.039062v-16.320313l-51.136719 10.222656c-7.449219 1.496094-12.863281 8.089844-12.863281 15.6875v65.449219h16v-65.441406zm368 99.039062c0-4.414062-3.585938-8-8-8h-32c-4.414062 0-8 3.585938-8 8v8h48zm-28.863281-105.136719-51.136719-10.222656v16.320313l48 9.605468v65.433594h16v-65.449219c0-7.597656-5.414062-14.191406-12.863281-15.6875zm-19.808594-78.863281h-31.328125v42.527344c16.855469-7.992188 28.65625-23.925782 31.328125-42.527344zm32.671875-64h-416c-10.414062 0-19.214844 6.710938-22.527344 16h94.527344v16h-94.527344c3.3125 9.289062 12.113282 16 22.527344 16h416c10.414062 0 19.214844-6.710938 22.527344-16h-94.527344v-16h94.527344c-3.3125-9.289062-12.113282-16-22.527344-16zm-24-144h-16v48h16zm0 0" fill="url(#a)"/></svg>