<svg height="496pt" viewBox="0 0 496 496" width="496pt" xmlns="http://www.w3.org/2000/svg" xmlns:xlink="http://www.w3.org/1999/xlink"><linearGradient id="a" gradientTransform="matrix(8 0 0 -8 -8 504)" gradientUnits="userSpaceOnUse" x1="32" x2="32" y1="1" y2="63"><stop offset="0" stop-color="#9f2fff"/><stop offset="1" stop-color="#0bb1d3"/></linearGradient><path d="m240 152c0-4.414062 3.585938-8 8-8s8 3.585938 8 8-3.585938 8-8 8-8-3.585938-8-8zm256-96c0 13.230469-10.769531 24-24 24h-24v48h8c13.230469 0 24 10.769531 24 24v16c0 12.808594-10.113281 23.214844-22.761719 23.871094 9.800781 25.519531 14.761719 52.417968 14.761719 80.128906 0 123.511719-100.488281 224-224 224s-224-100.488281-224-224c0-27.710938 4.960938-54.609375 14.761719-80.128906-12.648438-.65625-22.761719-11.0625-22.761719-23.871094v-16c0-13.230469 10.769531-24 24-24h8v-48h-24c-13.230469 0-24-10.769531-24-24s10.769531-24 24-24h24v-8c0-13.230469 10.769531-24 24-24s24 10.769531 24 24v8h24c13.230469 0 24 10.769531 24 24s-10.769531 24-24 24h-24v48h26.457031l14.261719-38.039062c5.824219-15.527344 20.882812-25.960938 37.457031-25.960938h147.640625c16.574219 0 31.632813 10.433594 37.464844 25.960938l14.261719 38.039062h26.457031v-48h-24c-13.230469 0-24-10.769531-24-24s10.769531-24 24-24h24v-8c0-13.230469 10.769531-24 24-24s24 10.769531 24 24v8h24c13.230469 0 24 10.769531 24 24zm-80-24h16v-8c0-4.40625-3.585938-8-8-8s-8 3.59375-8 8zm-94.175781 48h-20.0625l-10.664063 32h4.902344c10.414062 0 19.214844 6.710938 22.527344 16h37.929687l-12.160156-32.425781c-3.488281-9.316407-12.519531-15.574219-22.472656-15.574219zm57.992187 112 24.207032 60.511719c.839843 2.121093 2.863281 3.488281 5.144531 3.488281h9.28125c3.054687 0 5.542969-2.488281 5.542969-5.542969 0-.671875-.121094-1.328125-.351563-1.953125l-21.183594-56.503906zm28.183594 136c0-8.824219-7.175781-16-16-16s-16 7.175781-16 16 7.175781 16 16 16 16-7.175781 16-16zm-109.558594-136c22.671875 15.9375 37.558594 42.238281 37.558594 72 0 21.382812-7.6875 41-20.414062 56.273438l54.804687 54.804687c4.410156-5.238281 8.496094-10.796875 12.25-16.636719-13.066406-4.035156-22.640625-16.074218-22.640625-30.441406 0-17.648438 14.351562-32 32-32 4.894531 0 9.488281 1.191406 13.640625 3.167969 1.527344-8.945313 2.359375-18.03125 2.359375-27.167969 0-.03125 0-.054688 0-.089844-8.375-.445312-15.695312-5.597656-18.832031-13.453125l-26.582031-66.457031zm-204.898437 0-21.191407 56.503906c-.230468.625-.351562 1.28125-.351562 1.953125 0 3.054688 2.496094 5.542969 5.542969 5.542969h9.28125c2.28125 0 4.304687-1.367188 5.152343-3.488281l24.207032-60.511719zm-5.542969 80c0 88.222656 71.777344 160 160 160 42.265625 0 81.984375-16.6875 111.414062-45.273438l-55.140624-55.140624c-15.273438 12.726562-34.890626 20.414062-56.273438 20.414062-48.519531 0-88-39.480469-88-88 0-29.761719 14.886719-56.0625 37.558594-72h-64.144532l-26.582031 66.457031c-3.144531 7.855469-10.457031 13.007813-18.832031 13.453125zm160-144c-13.230469 0-24 10.769531-24 24s10.769531 24 24 24 24-10.769531 24-24-10.769531-24-24-24zm24 136c0-13.230469-10.769531-24-24-24s-24 10.769531-24 24 10.769531 24 24 24 24-10.769531 24-24zm-32-71.527344c-35.945312 4-64 34.535156-64 71.527344 0 39.703125 32.296875 72 72 72 16.976562 0 32.566406-5.9375 44.886719-15.800781l-22.863281-22.863281c-6.328126 4.191406-13.886719 6.664062-22.023438 6.664062-22.054688 0-40-17.945312-40-40 0-19.3125 13.769531-35.472656 32-39.191406zm64.199219 116.414063c9.863281-12.320313 15.800781-27.910157 15.800781-44.886719 0-36.992188-28.054688-67.535156-64-71.527344v32.335938c18.230469 3.71875 32 19.871094 32 39.191406 0 8.136719-2.472656 15.695312-6.664062 22.023438zm-29.960938-196.886719 10.664063-32h-73.804688l10.664063 32zm-74.238281 16c-4.414062 0-8 3.59375-8 8v40h24.207031c-5.078125-6.703125-8.207031-14.960938-8.207031-24s3.128906-17.296875 8.207031-24zm104 48v-40c0-4.40625-3.585938-8-8-8h-16.207031c5.078125 6.703125 8.207031 14.960938 8.207031 24s-3.128906 17.296875-8.207031 24zm-164.457031-48h37.929687c3.3125-9.289062 12.113282-16 22.527344-16h4.902344l-10.664063-32h-20.054687c-9.953125 0-18.984375 6.257812-22.480469 15.574219zm-75.542969-96h16v-8c0-4.40625-3.585938-8-8-8s-8 3.59375-8 8zm-40 32h96c4.414062 0 8-3.59375 8-8s-3.585938-8-8-8h-96c-4.414062 0-8 3.59375-8 8s3.585938 8 8 8zm40 64h16v-48h-16zm-24 48h136v-32h-136c-4.414062 0-8 3.59375-8 8v16c0 4.40625 3.585938 8 8 8zm208 304c56.503906 0 107.792969-22.679688 145.3125-59.375l-22.585938-22.585938c-32.390624 31.535157-76.160156 49.960938-122.726562 49.960938-97.046875 0-176-78.953125-176-176 0-.273438.015625-.535156.015625-.808594-9.191406-2.457031-16.015625-10.777344-16.015625-20.734375 0-2.59375.464844-5.144531 1.367188-7.5625l19.089843-50.894531h-20.441406c-10.589844 25.34375-16.015625 52.214844-16.015625 80 0 114.695312 93.304688 208 208 208zm208-208c0-27.785156-5.425781-54.65625-16.015625-80h-20.441406l19.089843 50.886719c.902344 2.425781 1.367188 4.976562 1.367188 7.570312 0 9.957031-6.824219 18.277344-16.015625 20.734375 0 .273438.015625.535156.015625.808594 0 13.433594-1.59375 26.769531-4.585938 39.753906 2.84375 4.773438 4.585938 10.292969 4.585938 16.246094 0 14.414062-9.632812 26.488281-22.761719 30.480469-5.664062 10.023437-12.191406 19.375-19.519531 27.925781l22.59375 22.59375c32.144531-36.625 51.6875-84.558594 51.6875-137zm0-128h-136v32h136c4.414062 0 8-3.59375 8-8v-16c0-4.40625-3.585938-8-8-8zm-24-64h-16v48h16zm48-24c0-4.40625-3.585938-8-8-8h-96c-4.414062 0-8 3.59375-8 8s3.585938 8 8 8h96c4.414062 0 8-3.59375 8-8zm0 0" fill="url(#a)"/></svg>