<svg height="496pt" viewBox="-32 0 496 496" width="496pt" xmlns="http://www.w3.org/2000/svg" xmlns:xlink="http://www.w3.org/1999/xlink"><linearGradient id="a" gradientUnits="userSpaceOnUse" x1="216" x2="216" y1="496" y2="0"><stop offset="0" stop-color="#9f2fff"/><stop offset="1" stop-color="#0bb1d3"/></linearGradient><path d="m404.28125 160 19.71875-29.574219v-29.480469c4.921875-5.625 8-12.898437 8-20.945312s-3.078125-15.3125-8-20.945312v-59.054688h-28.28125l-19.71875 29.574219v29.480469c-.832031.953124-1.6875 1.875-2.398438 2.914062l-44.839843 34.871094c-12.585938 9.777344-28.273438 15.160156-44.203125 15.160156h-137.117188c-15.929687 0-31.625-5.382812-44.195312-15.160156l-44.847656-34.871094c-.710938-1.039062-1.574219-1.960938-2.398438-2.914062v-29.480469l-19.71875-29.574219h-28.28125v59.054688c-4.921875 5.632812-8 12.90625-8 20.945312s3.078125 15.3125 8 20.945312v29.480469l19.71875 29.574219h28.28125v-32.257812l6.054688 6.882812c11.578124 13.152344 17.945312 30.039062 17.945312 47.558594v35.632812c0 17.511719-6.367188 34.40625-17.945312 47.558594l-6.054688 6.882812v-2.683593l-19.71875-29.574219h-28.28125v59.054688c-4.921875 5.632812-8 12.90625-8 20.945312s3.078125 15.3125 8 20.945312v29.480469l19.71875 29.574219h28.28125v-59.054688c.832031-.953124 1.6875-1.875 2.398438-2.914062l44.839843-34.871094c8.242188-6.40625 17.824219-10.878906 27.929688-13.238281l5.207031 13.878906c-38.832031 15.933594-64.375 53.597657-64.375 96.199219v72c0 13.230469 10.769531 24 24 24h72v-48h-48v-48c0-22.199219 13.40625-42.199219 33.304688-51.078125l1.152343 3.078125h13.542969v32h96v-32h13.542969l1.152343-3.078125c19.898438 8.878906 33.304688 28.878906 33.304688 51.078125v48h-48v48h72c13.230469 0 24-10.769531 24-24v-72c0-42.703125-25.527344-80.257812-64.390625-96.175781l5.214844-13.902344c10.105469 2.351563 19.695312 6.832031 27.929687 13.238281l44.839844 34.871094c.710938 1.039062 1.574219 1.960938 2.398438 2.914062v59.054688h28.28125l19.726562-29.574219v-29.480469c4.921875-5.625 8-12.898437 8-20.945312s-3.078125-15.3125-8-20.945312v-59.054688h-28.28125l-19.71875 29.574219v2.683593l-6.054688-6.882812c-11.578124-13.152344-17.945312-30.039062-17.945312-47.558594v-35.632812c0-17.511719 6.367188-34.40625 17.945312-47.558594l6.054688-6.882812v32.257812zm11.71875-80c0 8.824219-7.175781 16-16 16s-16-7.175781-16-16 7.175781-16 16-16 16 7.175781 16 16zm-20.28125 64h-3.71875v-33.136719c2.574219.671875 5.222656 1.136719 8 1.136719s5.425781-.464844 8-1.136719v14.710938zm8.5625-128h3.71875v33.136719c-2.574219-.671875-5.222656-1.136719-8-1.136719s-5.425781.464844-8 1.136719v-14.710938zm-388.28125 64c0-8.824219 7.175781-16 16-16s16 7.175781 16 16-7.175781 16-16 16-16-7.175781-16-16zm11.71875-64 12.28125 18.425781v14.710938c-2.574219-.671875-5.222656-1.136719-8-1.136719s-5.425781.464844-8 1.136719v-33.136719zm8.5625 128-12.28125-18.425781v-14.710938c2.574219.671875 5.222656 1.136719 8 1.136719s5.425781-.464844 8-1.136719v33.136719zm-20.28125 176c0-8.824219 7.175781-16 16-16s16 7.175781 16 16-7.175781 16-16 16-16-7.175781-16-16zm11.71875-64 12.28125 18.425781v14.710938c-2.574219-.671875-5.222656-1.136719-8-1.136719s-5.425781.464844-8 1.136719v-33.136719zm8.5625 128-12.28125-18.425781v-14.710938c2.574219.671875 5.222656 1.136719 8 1.136719s5.425781-.464844 8-1.136719v33.136719zm115.71875 80v16h-32v-16zm-48-64v80h-8c-4.40625 0-8-3.59375-8-8v-72c0-35.878906 21.414062-67.601562 54.007812-81.183594l5.648438 15.054688c-26.054688 11.207031-43.65625 37.265625-43.65625 66.128906zm43.542969-112h36.65625c-5.070313 6.703125-8.199219 14.960938-8.199219 24s3.128906 17.296875 8.207031 24h-18.664062zm92.457031 24c0 13.230469-10.769531 24-24 24s-24-10.769531-24-24 10.769531-24 24-24 24 10.769531 24 24zm8 56h-64v-16h64zm-.207031-32c5.078125-6.703125 8.207031-14.960938 8.207031-24s-3.128906-17.296875-8.207031-24h36.65625l-18 48zm32.207031 144v-16h32v16zm64-80v72c0 4.40625-3.59375 8-8 8h-8v-80c0-28.863281-17.601562-54.921875-43.65625-66.136719l5.640625-15.039062c32.617187 13.574219 54.015625 45.207031 54.015625 81.175781zm72-80c0 8.824219-7.175781 16-16 16s-16-7.175781-16-16 7.175781-16 16-16 16 7.175781 16 16zm-20.28125 64h-3.71875v-33.136719c2.574219.671875 5.222656 1.136719 8 1.136719s5.425781-.464844 8-1.136719v14.710938zm8.5625-128h3.71875v33.136719c-2.574219-.671875-5.222656-1.136719-8-1.136719s-5.425781.464844-8 1.136719v-14.710938zm-46.351562-131.945312c-14.136719 16.082031-21.929688 36.722656-21.929688 58.128906v35.632812c0 21.40625 7.792969 42.046875 21.929688 58.128906l18.070312 20.542969v2.574219c-3.640625 4.160156-6.289062 9.195312-7.382812 14.832031l-30.042969-23.359375c-15.367188-11.960937-34.550781-18.535156-54.015625-18.535156h-137.117188c-19.464844 0-38.648437 6.574219-54.015625 18.527344l-30.042969 23.359375c-1.09375-5.628907-3.742187-10.664063-7.382812-14.832031v-2.574219l18.070312-20.535157c14.144532-16.082031 21.929688-36.722656 21.929688-58.128906v-35.632812c0-21.40625-7.792969-42.046875-21.929688-58.128906l-18.070312-20.542969v-2.574219c3.640625-4.160156 6.289062-9.195312 7.382812-14.832031l30.042969 23.359375c15.367188 11.960937 34.550781 18.535156 54.015625 18.535156h137.117188c19.464844 0 38.648437-6.574219 54.015625-18.527344l30.042969-23.359375c1.09375 5.628907 3.742187 10.664063 7.382812 14.832031v2.574219zm-245.929688 131.945312h208v-112h-208zm16-96h176v80h-176zm0 0" fill="url(#a)"/></svg>