<svg height="496pt" viewBox="-116 0 496 496" width="496pt" xmlns="http://www.w3.org/2000/svg" xmlns:xlink="http://www.w3.org/1999/xlink"><linearGradient id="a" gradientTransform="matrix(8 0 0 -8 -127.32 504)" gradientUnits="userSpaceOnUse" x1="32.4575" x2="32.4575" y1="1" y2="63"><stop offset="0" stop-color="#9f2fff"/><stop offset="1" stop-color="#0bb1d3"/></linearGradient><path d="m264.679688 248c0-21.375-12.039063-39.96875-29.6875-49.40625l13.199218-35.824219 8.800782-127.113281-48.3125-28.984375-48.3125 28.984375 8.328124 124.871094 13.71875 38.039062c-17.671874 9.433594-29.734374 28.042969-29.734374 49.433594 0 21.367188 12.039062 39.96875 29.6875 49.40625l-13.199219 35.832031-8.800781 127.113281 48.3125 28.984376 48.3125-28.984376-8.328126-124.871093-13.71875-38.039063c17.671876-9.441406 29.734376-28.050781 29.734376-49.441406zm-80.09375-89.679688-7.601563-113.976562 31.695313-19.015625 31.6875 19.015625-7.597657 113.976562-12.832031 34.824219c-3.632812-.753906-7.402344-1.144531-11.257812-1.144531-3.855469 0-7.625.390625-11.265626 1.136719zm48.191406 179.359376 7.597656 113.976562-31.695312 19.015625-31.6875-19.015625 7.601562-113.976562 12.832031-34.816407c3.628907.746094 7.398438 1.136719 11.253907 1.136719 3.855468 0 7.625-.390625 11.265624-1.136719zm-24.097656-49.679688c-22.054688 0-40-17.945312-40-40s17.945312-40 40-40c22.054687 0 40 17.945312 40 40s-17.945313 40-40 40zm0-64c-13.230469 0-24 10.769531-24 24s10.769531 24 24 24c13.230468 0 24-10.769531 24-24s-10.769532-24-24-24zm0 32c-4.40625 0-8-3.59375-8-8s3.59375-8 8-8c4.410156 0 8 3.59375 8 8s-3.589844 8-8 8zm-144 16c13.230468 0 24-10.769531 24-24s-10.769532-24-24-24c-13.230469 0-24 10.769531-24 24s10.769531 24 24 24zm0-32c4.410156 0 8 3.59375 8 8s-3.589844 8-8 8c-4.40625 0-8-3.59375-8-8s3.59375-8 8-8zm0-120h-16v-32h16zm-3.527344 376 68.207031-110.839844-27.933594-95c11.765625-10.273437 19.253907-25.34375 19.253907-42.160156 0-18.984375-9.511719-35.761719-24-45.886719v-202.113281h-28.472657l-68.207031 110.839844 27.9375 95c-11.769531 10.273437-19.257812 25.34375-19.257812 42.160156 0 18.976562 9.511718 35.761719 24 45.886719v202.113281zm50.847656-113.160156-59.792969 97.160156h-3.527343v-178.359375c5.074218 1.519531 10.441406 2.359375 16 2.359375v56h16v-58.359375c2.304687-.6875 4.535156-1.527344 6.703124-2.496094zm-94.640625-269.679688 59.792969-97.160156h3.527344v178.359375c-5.070313-1.519531-10.441407-2.359375-16-2.359375v-56h-16v58.359375c-2.304688.6875-4.535157 1.527344-6.703126 2.496094zm7.320313 134.839844c0-22.054688 17.945312-40 40-40 22.054687 0 40 17.945312 40 40s-17.945313 40-40 40c-22.054688 0-40-17.945312-40-40zm40 128h16v32h-16zm0 0" fill="url(#a)"/></svg>