<svg height="496pt" viewBox="0 -15 496 495" width="496pt" xmlns="http://www.w3.org/2000/svg" xmlns:xlink="http://www.w3.org/1999/xlink"><linearGradient id="a" gradientUnits="userSpaceOnUse" x1="248" x2="248" y1="464.5" y2=".5"><stop offset="0" stop-color="#9f2fff"/><stop offset="1" stop-color="#0bb1d3"/></linearGradient><path d="m32 432.5h48v-32h16v40c0 13.230469 10.769531 24 24 24h256c13.230469 0 24-10.769531 24-24v-160c0-13.230469-10.769531-24-24-24h-80v-32h64v-48h-17.566406l30-48h83.566406c22.054688 0 40-17.945312 40-40v-16c0-13.230469-10.769531-24-24-24h-116.320312c-26.863282-30.550781-65.335938-48-106.167969-48h-3.039063c-40.824218 0-79.304687 17.449219-106.167968 48h-116.304688c-13.230469 0-24 10.769531-24 24v16c0 22.054688 17.945312 40 40 40h83.566406l30 48h-17.566406v48h64v32h-80c-13.230469 0-24 10.769531-24 24v40h-16v-32h-48v16h-32v112h32zm88 16c-4.40625 0-8-3.59375-8-8v-136h85.558594c-22.671875 15.9375-37.558594 42.238281-37.558594 72s14.886719 56.0625 37.558594 72zm128-144c39.695312 0 72 32.304688 72 72s-32.304688 72-72 72-72-32.304688-72-72 32.304688-72 72-72zm128 144h-77.558594c22.671875-15.9375 37.558594-42.238281 37.558594-72s-14.886719-56.0625-37.558594-72h85.558594v136c0 4.40625-3.59375 8-8 8zm-243.566406-336h-92.433594c-13.230469 0-24-10.769531-24-24v-16c0-4.40625 3.59375-8 8-8h123.742188l2.402343-2.878906c23.894531-28.671875 59.007813-45.121094 96.335938-45.121094h3.039062c37.328125 0 72.441407 16.449219 96.335938 45.121094l2.402343 2.878906h123.742188c4.40625 0 8 3.59375 8 8v16c0 13.230469-10.769531 24-24 24h-92.433594l-40 64h-151.132812zm19.566406 80h192v16h-192zm64 32h64v32h-64zm-96 48h256c4.40625 0 8 3.59375 8 8v8h-272v-8c0-4.40625 3.59375-8 8-8zm-24 64v48h-16v-48zm-48-32h16v112h-16zm-32 96v-80h16v80zm232 32c30.878906 0 56-25.121094 56-56s-25.121094-56-56-56-56 25.121094-56 56 25.121094 56 56 56zm0-96c22.054688 0 40 17.945312 40 40s-17.945312 40-40 40-40-17.945312-40-40 17.945312-40 40-40zm-24 40c0-13.230469 10.769531-24 24-24s24 10.769531 24 24h-16c0-4.40625-3.59375-8-8-8s-8 3.59375-8 8 3.59375 8 8 8v16c-13.230469 0-24-10.769531-24-24zm-40-264v48h128v-48zm112 32h-96v-16h96zm56-64h-19.71875l-3-4.496094c-18.160156-27.238281-48.546875-43.503906-81.28125-43.503906s-63.121094 16.265625-81.28125 43.503906l-3 4.496094h-19.71875v16h208zm-104-32c25.527344 0 49.230469 11.9375 64.648438 32h-129.296876c15.417969-20.0625 39.121094-32 64.648438-32zm0 0" fill="url(#a)"/></svg>