<svg height="496pt" viewBox="-56 0 496 496" width="496pt" xmlns="http://www.w3.org/2000/svg" xmlns:xlink="http://www.w3.org/1999/xlink"><linearGradient id="a" gradientUnits="userSpaceOnUse" x1="192" x2="192" y1="496" y2="0"><stop offset="0" stop-color="#9f2fff"/><stop offset="1" stop-color="#0bb1d3"/></linearGradient><path d="m344 224h-10.359375l-34.3125-96.070312c-3.398437-9.53125-12.488281-15.929688-22.609375-15.929688h-44.71875v16h44.71875c3.378906 0 6.402344 2.136719 7.539062 5.304688l32.390626 90.695312h-28.648438v-8c0-22.054688-17.945312-40-40-40h-16v-32h-16v-72h-.246094c9.796875-7.296875 16.246094-18.871094 16.246094-32 0-22.054688-17.945312-40-40-40s-40 17.945312-40 40c0 13.128906 6.449219 24.703125 16.246094 32h-.246094v72h-16v32h-16c-22.054688 0-40 17.945312-40 40v8h-28.648438l32.390626-90.695312c1.128906-3.167969 4.160156-5.304688 7.539062-5.304688h44.71875v-16h-44.71875c-10.121094 0-19.203125 6.398438-22.609375 15.929688l-34.3125 96.070312h-10.359375c-22.054688 0-40 17.945312-40 40v192c0 22.054688 17.945312 40 40 40h304c22.054688 0 40-17.945312 40-40v-192c0-22.054688-17.945312-40-40-40zm0 16c13.230469 0 24 10.769531 24 24v8h-85.558594c3.542969-7.480469 5.558594-15.6875 5.558594-24v-8zm-152-224c13.230469 0 24 10.769531 24 24s-10.769531 24-24 24-24-10.769531-24-24 10.769531-24 24-24zm-8 63.191406c2.585938.527344 5.265625.808594 8 .808594s5.414062-.28125 8-.808594v64.808594h-16zm-16 80.808594h48v16h-48zm-56 56c0-13.230469 10.769531-24 24-24h112c13.230469 0 24 10.769531 24 24v32c0 8.601562-2.839844 17.128906-8 24-7.511719 10.015625-19.472656 16-32 16h-80c-12.519531 0-24.488281-5.984375-32-16.007812-5.160156-6.863282-8-15.390626-8-23.992188zm-72 24h56v8c0 8.3125 2.015625 16.519531 5.558594 24h-85.558594v-8c0-13.230469 10.769531-24 24-24zm184 192v48h-64v-48zm-80 48h-64v-48h64zm96 0v-48h64v48zm104 0h-24v-64h-256v64h-24c-13.230469 0-24-10.769531-24-24v-168h96.945312c10.375 10.097656 24.414063 16 39.054688 16h80c14.640625 0 28.6875-5.902344 39.0625-16h96.9375v168c0 13.230469-10.769531 24-24 24zm-168-16v-16h32v16zm80-16h32v16h-32zm-128 16h-32v-16h32zm112-256h-96v64h96zm-16 48h-64v-32h64zm-80 144h96v-80h-96zm16-16v-16h64v16zm64-48v16h-64v-16zm80-32c-26.472656 0-48 21.527344-48 48s21.527344 48 48 48 48-21.527344 48-48-21.527344-48-48-48zm0 80c-17.648438 0-32-14.351562-32-32s14.351562-32 32-32 32 14.351562 32 32-14.351562 32-32 32zm-224-80c-26.472656 0-48 21.527344-48 48s21.527344 48 48 48 48-21.527344 48-48-21.527344-48-48-48zm0 80c-17.648438 0-32-14.351562-32-32s14.351562-32 32-32 32 14.351562 32 32-14.351562 32-32 32zm0 0" fill="url(#a)"/></svg>