<svg height="496pt" viewBox="0 0 496 496" width="496pt" xmlns="http://www.w3.org/2000/svg" xmlns:xlink="http://www.w3.org/1999/xlink"><linearGradient id="a" gradientUnits="userSpaceOnUse" x1="248" x2="248" y1="496" y2="0"><stop offset="0" stop-color="#9f2fff"/><stop offset="1" stop-color="#0bb1d3"/></linearGradient><path d="m200 352h-80v-16h80zm-32-48h-48v16h48zm296-272h32v48h-32v72c0 13.230469-10.769531 24-24 24h-24v-.3125l-52.265625 37.914062c-4.335937 6.269532-11.550781 10.398438-19.734375 10.398438h-6.9375l6 48h40.9375c13.230469 0 24 10.769531 24 24v176c0 13.230469-10.769531 24-24 24h-272c-13.230469 0-24-10.769531-24-24v-176c0-13.230469 10.769531-24 24-24h40.9375l6-48h-6.9375c-8.183594 0-15.398438-4.128906-19.734375-10.398438l-52.265625-37.914062v.3125h-24c-13.230469 0-24-10.769531-24-24v-72h-32v-48h32v-8c0-13.230469 10.769531-24 24-24s24 10.769531 24 24v8h32v48h-32v28l49.191406 36.894531c3.046875-9.75 12.066406-16.894531 22.808594-16.894531h10.238281l10.53125-31.59375c3.269531-9.8125 12.414063-16.40625 22.757813-16.40625h104.9375c10.34375 0 19.496094 6.59375 22.765625 16.40625l10.53125 31.59375h10.238281c10.742188 0 19.761719 7.144531 22.808594 16.894531l49.191406-36.894531v-28h-32v-48h32v-8c0-13.230469 10.769531-24 24-24s24 10.769531 24 24zm-32 0h16v-8c0-4.40625-3.585938-8-8-8s-8 3.59375-8 8zm-252.902344 96h137.804688l-8.839844-26.527344c-1.09375-3.273437-4.152344-5.472656-7.589844-5.472656h-104.945312c-3.449219 0-6.496094 2.199219-7.589844 5.472656zm-131.097656-96h16v-8c0-4.40625-3.585938-8-8-8s-8 3.59375-8 8zm-32 32h80v-16h-80zm48 96v-80h-16v72c0 4.40625 3.585938 8 8 8zm16-4.078125 48 34.820313v-26.742188l-48-36zm144 308.078125v-16h-16v32h80v-32h-16v16h-16v-16h-16v16zm160-176h-272c-4.414062 0-8 3.59375-8 8v176c0 4.40625 3.585938 8 8 8h80v-48h112v48h80c4.414062 0 8-3.59375 8-8v-176c0-4.40625-3.585938-8-8-8zm-63.0625-64h-145.875l-6 48h157.882812zm-72.9375-48c-8.824219 0-16 7.175781-16 16s7.175781 16 16 16 16-7.175781 16-16-7.175781-16-16-16zm32 16c0 5.855469-1.695312 11.273438-4.449219 16h27.007813l-4.222656-25.3125c-.640626-3.878906-3.960938-6.6875-7.886719-6.6875h-14.898438c2.753907 4.726562 4.449219 10.144531 4.449219 16zm-64 0c0-5.855469 1.695312-11.273438 4.449219-16h-14.898438c-3.925781 0-7.246093 2.808594-7.886719 6.679688l-4.222656 25.320312h27.007813c-2.753907-4.726562-4.449219-10.144531-4.449219-16zm136-40c0-4.40625-3.585938-8-8-8h-192c-4.414062 0-8 3.59375-8 8v48c0 4.40625 3.585938 8 8 8h25.222656l4.65625-27.945312c1.9375-11.613282 11.890625-20.054688 23.671875-20.054688h84.890625c11.789063 0 21.742188 8.441406 23.671875 20.054688l4.664063 27.945312h25.222656c4.414062 0 8-3.59375 8-8zm64 3.921875v-27.921875l-48 36v26.742188zm32-75.921875h-16v80h8c4.414062 0 8-3.59375 8-8zm32-32h-80v16h80zm0 0" fill="url(#a)"/></svg>