<svg height="495pt" viewBox="0 0 495.956 495" width="495pt" xmlns="http://www.w3.org/2000/svg" xmlns:xlink="http://www.w3.org/1999/xlink"><linearGradient id="a" gradientTransform="matrix(8 0 0 -8 -8.022 504.456)" gradientUnits="userSpaceOnUse" x1="32" x2="32" y1="1.0029" y2="62.9971"><stop offset="0" stop-color="#9f2fff"/><stop offset="1" stop-color="#0bb1d3"/></linearGradient><path d="m247.953125 184.449219c-35.289063 0-64 28.710937-64 64 0 35.285156 28.710937 64 64 64s64-28.714844 64-64c0-35.289063-28.710937-64-64-64zm0 112c-26.472656 0-48-21.527344-48-48 0-26.472657 21.527344-48 48-48s48 21.527343 48 48c0 26.472656-21.527344 48-48 48zm229.257813-186.746094c24.949218-24.949219 24.949218-65.558594 0-90.511719-24.953126-24.953125-65.554688-24.953125-90.503907 0l11.3125 11.3125c4.816407-4.808594 10.476563-8.433594 16.644531-10.816406l-5.175781 46.585938c-1.824219-.546876-3.664062-.929688-5.542969-1.152344l-41.359374-41.359375c-4.710938-4.722657-10.984376-7.3125-17.65625-7.3125-13.769532 0-24.96875 11.199219-24.96875 24.964843 0 6.578126 2.664062 13.011719 7.3125 17.65625l40.039062 40.042969-19.292969 16.605469c-27.511719 23.679688-62.664062 36.730469-98.960937 36.730469-36.632813 0-72.007813-13.25-99.625-37.304688l-19.695313-17.152343 38.910157-38.914063c4.648437-4.644531 7.3125-11.078125 7.3125-17.652344 0-13.769531-11.199219-24.96875-24.96875-24.96875-6.671876 0-12.941407 2.589844-17.652344 7.3125l-41.363282 41.359375c-1.886718.222656-3.726562.613282-5.542968 1.152344l-5.175782-46.585938c6.160157 2.375 11.832032 6 16.648438 10.816407l11.3125-11.3125c-24.953125-24.953125-65.554688-24.953125-90.503906 0-24.953125 24.953125-24.953125 65.5625 0 90.511719l11.3125-11.3125c-4.882813-4.878907-8.417969-10.574219-10.753906-16.636719l46.296874 5.140625c-.601562 1.914062-1.015624 3.867187-1.242187 5.882812l-41.046875 41.046875c-4.648438 4.648438-7.3125 11.078125-7.3125 17.65625 0 13.769531 11.203125 24.96875 24.96875 24.96875 6.671875 0 12.945312-2.59375 17.65625-7.3125l41.046875-41.046875c.296875-.035156.601563-.050781.898437-.089844l16.933594 20.601563c22.25 27.070313 34.496094 61.269531 34.496094 96.3125v5.285156c0 34.816407-12.109375 68.832031-34.09375 95.816407l-18.417969 22.609374-40.863281-40.863281c-4.710938-4.722656-10.984375-7.3125-17.65625-7.3125-13.765625 0-24.96875 11.199219-24.96875 24.96875 0 6.574219 2.664062 13.007813 7.3125 17.652344l41.046875 41.050781c.234375 2.015625.648437 3.96875 1.242187 5.878906l-46.296874 5.144532c2.335937-6.0625 5.871093-11.761719 10.753906-16.640625l-11.3125-11.3125c-24.953125 24.953125-24.953125 65.5625 0 90.511719 12.480468 12.480468 28.863281 18.722656 45.253906 18.722656 16.394531 0 32.777344-6.242188 45.257812-18.722656l-11.3125-11.3125c-4.816406 4.808593-10.480468 8.433593-16.648437 10.816406l5.152344-46.359375c1.910156.601562 3.863281 1.015625 5.878906 1.242187l41.050781 41.046875c4.710938 4.71875 10.980469 7.3125 17.65625 7.3125 13.765625 0 24.964844-11.199219 24.964844-24.96875 0-6.578125-2.664062-13.007812-7.3125-17.65625l-40.148438-40.152343 18.132813-15.832032c27.640625-24.113281 63.058594-37.390625 99.730469-37.390625h3.589844c36.953124 0 72.578124 13.464844 100.304687 37.886719l17.28125 15.230469-40.25 40.25c-4.648437 4.648437-7.3125 11.078125-7.3125 17.65625 0 13.765625 11.203125 24.96875 24.96875 24.96875 6.671875 0 12.945313-2.59375 17.65625-7.3125l41.046875-41.046875c2.019531-.234375 3.96875-.648438 5.882812-1.242188l5.152344 46.359375c-6.160156-2.375-11.832031-6-16.648437-10.816406l-11.3125 11.3125c12.480469 12.480469 28.863281 18.722656 45.253906 18.722656 16.394531 0 32.777344-6.242187 45.257813-18.722656 24.953124-24.949219 24.953124-65.558594 0-90.511719l-11.3125 11.3125c4.878906 4.878906 8.417968 10.574219 10.753906 16.640625l-46.296875-5.144531c.597656-1.910156 1.015625-3.863281 1.238281-5.878906l41.050781-41.050782c4.644531-4.644531 7.308594-11.078124 7.308594-17.65625 0-13.765624-11.199219-24.964843-24.964844-24.964843-6.671875 0-12.945312 2.589843-17.65625 7.3125l-39.609375 39.605469-19.097656-23.144532c-22.359375-27.101562-34.671875-61.375-34.671875-96.511718v-2.597657c0-34.601562 11.976563-68.472656 33.730469-95.371093l17.582031-21.742188c.335937.046875.679687.0625 1.015625.097656l41.050781 41.046875c4.710938 4.71875 10.984375 7.3125 17.65625 7.3125 13.765625 0 24.964844-11.199219 24.964844-24.96875 0-6.578125-2.664063-13.007812-7.308594-17.65625l-41.050781-41.046875c-.230469-2.015625-.648438-3.96875-1.238281-5.882812l46.296875-5.140625c-2.335938 6.0625-5.875 11.757812-10.753906 16.636719zm-88.570313-1.941406c-3.023437-3.027344-4.6875-7.042969-4.6875-11.3125 0-4.273438 1.664063-8.289063 4.6875-11.3125 3.023437-3.023438 7.042969-4.6875 11.3125-4.6875 4.273437 0 8.289063 1.664062 11.3125 4.6875 3.023437 3.023437 4.6875 7.039062 4.6875 11.3125 0 4.269531-1.664063 8.285156-4.6875 11.3125-6.046875 6.046875-16.574219 6.046875-22.625 0zm-52.6875-66.347657c0-4.941406 4.023437-8.964843 8.96875-8.964843 2.398437 0 4.648437.925781 6.34375 2.621093l33.496094 33.496094c-2.679688 1.402344-5.238281 3.058594-7.433594 5.257813-2.191406 2.191406-3.886719 4.703125-5.335937 7.351562l-33.414063-33.414062c-1.664063-1.671875-2.625-3.984375-2.625-6.347657zm-251.3125 43.722657c3.023437-3.023438 7.042969-4.6875 11.3125-4.6875 4.273437 0 8.289063 1.664062 11.3125 4.6875 3.023437 3.023437 4.6875 7.039062 4.6875 11.3125 0 4.269531-1.664063 8.285156-4.6875 11.3125-6.046875 6.046875-16.574219 6.046875-22.625 0-3.023437-3.027344-4.6875-7.042969-4.6875-11.3125 0-4.273438 1.664063-8.289063 4.6875-11.3125zm60-50.066407c1.699219-1.695312 3.945313-2.621093 6.34375-2.621093 4.945313 0 8.96875 4.023437 8.96875 8.964843 0 2.363282-.960937 4.675782-2.625 6.347657l-33.414063 33.414062c-1.449218-2.640625-3.144531-5.160156-5.335937-7.351562-2.191406-2.199219-4.753906-3.855469-7.433594-5.257813zm-119.710937 1.664063 25.367187 25.378906 11.3125-11.3125-25.4375-25.441406c8.070313-5.765625 17.671875-8.910156 27.78125-8.910156.289063 0 .5625.039062.847656.039062l6.105469 54.902344-54.839844-6.09375c-.183594-10.03125 2.808594-20.039063 8.863282-28.5625zm22.335937 121.089844c-1.695313 1.695312-3.945313 2.625-6.34375 2.625-4.945313 0-8.96875-4.023438-8.96875-8.96875 0-2.359375.960937-4.671875 2.625-6.34375l33.414063-33.417969c1.449218 2.640625 3.144531 5.160156 5.335937 7.351562 2.195313 2.195313 4.714844 3.890626 7.355469 5.335938zm37.375 253.9375c-3.023437-3.027344-4.6875-7.042969-4.6875-11.3125 0-4.273438 1.664063-8.289063 4.6875-11.3125 3.023437-3.023438 7.042969-4.6875 11.3125-4.6875 4.273437 0 8.289063 1.664062 11.3125 4.6875 3.023437 3.023437 4.6875 7.039062 4.6875 11.3125 0 4.269531-1.664063 8.285156-4.6875 11.3125-6.046875 6.046875-16.574219 6.046875-22.625 0zm-52.6875-66.347657c0-4.941406 4.023437-8.964843 8.96875-8.964843 2.398437 0 4.648437.925781 6.34375 2.621093l33.496094 33.496094c-2.679688 1.402344-5.238281 3.058594-7.433594 5.257813-2.191406 2.191406-3.886719 4.703125-5.335937 7.351562l-33.414063-33.414062c-1.664063-1.671875-2.625-3.984375-2.625-6.347657zm32 135.035157c-10.109375 0-19.710937-3.144531-27.78125-8.90625l25.4375-25.4375-11.3125-11.3125-25.367187 25.375c-6.054688-8.527344-9.046876-18.535157-8.871094-28.566407l54.839844-6.097656-6.105469 54.902344c-.277344 0-.550781.042969-.839844.042969zm96-24.96875c0 4.945312-4.023437 8.96875-8.96875 8.96875-2.398437 0-4.644531-.929688-6.34375-2.625l-33.414063-33.417969c2.640626-1.445312 5.160157-3.140625 7.351563-5.335938 2.191406-2.191406 3.886719-4.703124 5.335937-7.351562l33.414063 33.417969c1.664063 1.671875 2.625 3.984375 2.625 6.34375zm191.3125 6.34375c-1.695313 1.695312-3.945313 2.625-6.34375 2.625-4.945313 0-8.96875-4.023438-8.96875-8.96875 0-2.359375.960937-4.671875 2.625-6.34375l33.414063-33.417969c1.449218 2.640625 3.144531 5.160156 5.335937 7.351562 2.195313 2.195313 4.714844 3.890626 7.355469 5.335938zm37.375-72.6875c3.023437-3.023438 7.042969-4.6875 11.3125-4.6875 4.273437 0 8.289063 1.664062 11.3125 4.6875 3.023437 3.023437 4.6875 7.039062 4.6875 11.3125 0 4.269531-1.664063 8.285156-4.6875 11.3125-6.046875 6.046875-16.574219 6.046875-22.625 0-3.023437-3.027344-4.6875-7.042969-4.6875-11.3125 0-4.273438 1.664063-8.289063 4.6875-11.3125zm82.335937 71.023437-25.367187-25.375-11.3125 11.3125 25.441406 25.4375c-8.0625 5.753906-17.671875 8.90625-27.785156 8.90625-.289063 0-.558594-.042968-.847656-.042968l-6.101563-54.902344 54.839844 6.097656c.183594 10.039062-2.808594 20.046875-8.867188 28.566406zm-22.335937-121.089844c1.699219-1.695312 3.945313-2.621093 6.34375-2.621093 4.945313 0 8.96875 4.023437 8.96875 8.964843 0 2.363282-.960937 4.675782-2.625 6.347657l-33.414063 33.414062c-1.449218-2.640625-3.144531-5.160156-5.335937-7.351562-2.191406-2.199219-4.753906-3.855469-7.433594-5.257813zm-83.398437-199.398437c-24.046876 29.734375-37.289063 67.175781-37.289063 105.433594v2.597656c0 38.839844 13.617187 76.746094 38.335937 106.703125l16.015626 19.417969c-1.773438 1.144531-3.445313 2.472656-4.976563 4-1.269531 1.273437-2.351563 2.671875-3.375 4.105469l-13.136719-11.585938c-30.644531-27.015625-70.023437-41.886719-110.878906-41.886719h-3.589844c-40.539062 0-79.691406 14.679688-110.25 41.335938l-14.046875 12.261719c-1.046875-1.480469-2.167969-2.917969-3.472656-4.222657-1.113281-1.113281-2.367187-2.007812-3.617187-2.910156l15.296874-18.785156c24.304688-29.824219 37.6875-67.441407 37.6875-105.921875v-5.285156c0-38.738282-13.542968-76.546876-38.136718-106.472657l-14.03125-17.074219c.945312-.75 1.929687-1.429687 2.800781-2.292968 1.734375-1.738282 3.175781-3.675782 4.457031-5.707032l15.878906 13.832032c30.519532 26.59375 69.640626 41.242187 110.136719 41.242187 40.128907 0 78.984375-14.425781 109.398438-40.601562l15.28125-13.152344c1.070312 1.535156 2.246093 3.023437 3.597656 4.375.851563.851563 1.816406 1.515625 2.746094 2.257813zm98.710937 11.808594c0 4.945312-4.023437 8.96875-8.96875 8.96875-2.398437 0-4.644531-.929688-6.34375-2.625l-33.414063-33.417969c2.640626-1.445312 5.160157-3.140625 7.351563-5.335938 2.191406-2.191406 3.886719-4.703124 5.335937-7.351562l33.414063 33.417969c1.664063 1.671875 2.625 3.984375 2.625 6.34375zm-38.941406-80.089844 6.101562-54.902344c.28125 0 .550781-.039062.839844-.039062 10.113281 0 19.710937 3.144531 27.785156 8.902343l-25.441406 25.441407 11.3125 11.3125 25.367187-25.378907c6.058594 8.53125 9.050782 18.539063 8.875 28.570313zm-201.058594 153.058594h48v16h-48zm0 32h48v16h-48zm0 0" fill="url(#a)"/></svg>