<svg height="496pt" viewBox="0 0 496 496" width="496pt" xmlns="http://www.w3.org/2000/svg" xmlns:xlink="http://www.w3.org/1999/xlink"><linearGradient id="a" gradientUnits="userSpaceOnUse" x1="248" x2="248" y1="496" y2="0"><stop offset="0" stop-color="#9f2fff"/><stop offset="1" stop-color="#0bb1d3"/></linearGradient><path d="m240 376c0-4.414062 3.585938-8 8-8s8 3.585938 8 8-3.585938 8-8 8-8-3.585938-8-8zm224-56h-48v16h48zm-64 0h-48v16h48zm-256 0h-48v16h48zm-64 0h-48v16h48zm152-304h-16v104h-39.367188l71.367188 101.953125 71.367188-101.953125h-39.367188v-104h-16v120h24.632812l-40.632812 58.046875-40.632812-58.046875h24.632812zm-168-16h-16v64h-41.632812l73.632812 84.152344 73.632812-84.152344h-41.632812v-48h-16v64h22.367188l-38.367188 43.847656-38.367188-43.847656h22.367188zm336 16h-16v48h-41.632812l73.632812 84.152344 73.632812-84.152344h-41.632812v-64h-16v80h22.367188l-38.367188 43.847656-38.367188-43.847656h22.367188zm24 224v16h16v32h32c13.230469 0 24 10.769531 24 24v32c0 13.230469-10.769531 24-24 24h-89.054688l53.640626 80.464844c11.046874 2.152344 19.414062 11.871094 19.414062 23.535156v24h-96v-24c0-8.710938 4.710938-16.28125 11.671875-20.488281l-27.121094-42.726563-3.605469 7.214844h-185.890624l-3.605469-7.207031-27.121094 42.726562c6.960937 4.199219 11.671875 11.769531 11.671875 20.480469v24h-96v-24c0-11.664062 8.367188-21.382812 19.40625-23.535156l53.648438-80.464844h-89.054688c-13.230469 0-24-10.769531-24-24v-32c0-13.230469 10.769531-24 24-24h32v-32h16v-16h-48c-13.230469 0-24-10.769531-24-24s10.769531-24 24-24h32v-8c0-13.230469 10.769531-24 24-24s24 10.769531 24 24v8h32c13.230469 0 24 10.769531 24 24s-10.769531 24-24 24h-48v16h16v32h28.527344c26.855468-30.472656 65.183594-48 105.960937-48h19.03125c40.777344 0 79.097657 17.527344 105.960938 48h28.519531v-32h16v-16h-48c-13.230469 0-24-10.769531-24-24s10.769531-24 24-24h32v-8c0-13.230469 10.769531-24 24-24s24 10.769531 24 24v8h32c13.230469 0 24 10.769531 24 24s-10.769531 24-24 24zm-352-48h16v-8c0-4.414062-3.585938-8-8-8s-8 3.585938-8 8zm-48 32h112c4.414062 0 8-3.585938 8-8s-3.585938-8-8-8h-112c-4.414062 0-8 3.585938-8 8s3.585938 8 8 8zm131.039062 64h185.921876c-22.824219-20.433594-52.3125-32-83.441407-32h-19.03125c-31.128906 0-60.625 11.566406-83.449219 32zm-83.039062 0h16v-16h-16zm48 184c0-4.414062-3.585938-8-8-8h-48c-4.414062 0-8 3.585938-8 8v8h64zm23.097656-79.921875-11.511718-23.03125-52.640626 78.953125h28.648438zm104.902344-40.078125c-13.230469 0-24 10.769531-24 24s10.769531 24 24 24 24-10.769531 24-24-10.769531-24-24-24zm-40 24c0-9.039062 3.128906-17.296875 8.207031-24h-24.207031v48h24.207031c-5.078125-6.703125-8.207031-14.960938-8.207031-24zm96 24v-48h-24.207031c5.078125 6.703125 8.207031 14.960938 8.207031 24s-3.128906 17.296875-8.207031 24zm48.902344-7.921875 35.496094 55.921875h28.648437l-52.632813-78.953125zm87.097656 79.921875c0-4.414062-3.585938-8-8-8h-48c-4.414062 0-8 3.585938-8 8v8h64zm32-168h-448c-4.414062 0-8 3.585938-8 8v32c0 4.414062 3.585938 8 8 8h116.945312l24 48h11.054688v-64h144v64h11.054688l24-48h116.945312c4.414062 0 8-3.585938 8-8v-32c0-4.414062-3.585938-8-8-8zm-48-16v-16h-16v16zm-16-96h16v-8c0-4.414062-3.585938-8-8-8s-8 3.585938-8 8zm-48 32h112c4.414062 0 8-3.585938 8-8s-3.585938-8-8-8h-112c-4.414062 0-8 3.585938-8 8s3.585938 8 8 8zm0 0" fill="url(#a)"/></svg>