<svg height="499pt" viewBox="0 -1 499.264 499" width="499pt" xmlns="http://www.w3.org/2000/svg" xmlns:xlink="http://www.w3.org/1999/xlink"><linearGradient id="a" gradientTransform="matrix(8 0 0 -8 -6.368 504.132)" gradientUnits="userSpaceOnUse" x1="32" x2="32" y1="1" y2="63"><stop offset="0" stop-color="#9f2fff"/><stop offset="1" stop-color="#0bb1d3"/></linearGradient><path d="m25.632812 208.132812h89.054688l-53.640625 80.464844c-11.046875 2.148438-19.414063 11.871094-19.414063 23.535156v8h16v-8c0-4.417968 3.582032-8 8-8h48c4.414063 0 8 3.582032 8 8v8h16v-8c0-8.710937-4.710937-16.28125-11.671874-20.488281l27.117187-42.730469 3.609375 7.21875h185.886719l3.609375-7.207031 27.121094 42.726563c-6.960938 4.199218-11.671876 11.769531-11.671876 20.480468v8h16v-8c0-4.417968 3.582032-8 8-8h48c4.414063 0 8 3.582032 8 8v8h16v-8c0-11.664062-8.367187-21.386718-19.410156-23.535156l-53.648437-80.464844h89.058593c13.230469 0 24-10.769531 24-24v-32c0-13.234374-10.769531-24-24-24h-32v-32h-16v-16h48c13.230469 0 24-10.769531 24-24 0-13.234374-10.769531-24-24-24h-32v-8c0-13.234374-10.769531-24-24-24-13.234374 0-24 10.765626-24 24v8h-32c-13.234374 0-24 10.765626-24 24 0 13.230469 10.765626 24 24 24h48v16h-16v32h-28.527343c-26.859375-30.480468-65.175781-48-105.953125-48h-19.03125c-40.777344 0-79.097656 17.519532-105.953125 48h-28.535157v-32h-16v-16h48c13.230469 0 24-10.769531 24-24 0-13.234374-10.769531-24-24-24h-32v-8c0-13.234374-10.769531-24-24-24-13.234374 0-24 10.765626-24 24v8h-32c-13.234374 0-24 10.765626-24 24 0 13.230469 10.765626 24 24 24h48v16h-16v32h-32c-13.234374 0-24 10.765626-24 24v32c0 13.230469 10.765626 24 24 24zm384-184c0-4.410156 3.582032-8 8-8 4.414063 0 8 3.589844 8 8v8h-16zm-56 32c0-4.410156 3.582032-8 8-8h112c4.414063 0 8 3.589844 8 8 0 4.40625-3.585937 8-8 8h-112c-4.417968 0-8-3.59375-8-8zm-280-32c0-4.410156 3.582032-8 8-8 4.414063 0 8 3.589844 8 8v8h-16zm-56 32c0-4.410156 3.582032-8 8-8h112c4.414063 0 8 3.589844 8 8 0 4.40625-3.585937 8-8 8h-112c-4.417968 0-8-3.59375-8-8zm91.597657 232h-28.644531l52.628906-78.953124 11.511718 23.03125zm164.402343-72c0 13.230469-10.769531 24-24 24-13.234374 0-24-10.769531-24-24 0-13.234374 10.765626-24 24-24 13.230469 0 24 10.765626 24 24zm-55.792968 24h-24.207032v-40c0-4.410156 3.582032-8 8-8h16.207032c-5.078125 6.703126-8.207032 14.960938-8.207032 24 0 9.039063 3.128907 17.296876 8.207032 24zm63.585937 0c5.078125-6.703124 8.207031-14.960937 8.207031-24 0-9.039062-3.128906-17.296874-8.207031-24h16.207031c4.414063 0 8 3.589844 8 8v40zm84.621094-30.953124 52.640625 78.953124h-28.648438l-35.496093-55.921874zm43.585937-97.046876h16v16h-16zm-169.511718-16h19.03125c31.128906 0 60.625 11.566407 83.449218 32h-185.921874c22.816406-20.433593 52.304687-32 83.441406-32zm-166.488282 16h16v16h-16zm-56 40c0-4.410156 3.582032-8 8-8h448c4.414063 0 8 3.589844 8 8v32c0 4.40625-3.585937 8-8 8h-116.945312l-24 48h-11.054688v-40c0-13.234374-10.769531-24-24-24h-96c-13.234374 0-24 10.765626-24 24v40h-11.058593l-24-48h-116.941407c-4.417968 0-8-3.59375-8-8zm224 64c0-4.417968 3.582032-8 8-8 4.414063 0 8 3.582032 8 8 0 4.414063-3.585937 8-8 8-4.417968 0-8-3.585937-8-8zm224-40h-48v-16h48zm-64 0h-48v-16h48zm-256 0h-48v-16h48zm-64 0h-48v-16h48zm241.632813 200h-41.632813v120h-16v-136h22.367188l-38.367188-43.847656-38.367187 43.847656h22.367187v136h-16v-120h-41.632812l73.632812-84.152343zm102.367187-28.152343 73.632813 84.152343h-41.632813v64h-16v-80h22.367188l-38.367188-43.847656-38.367187 43.847656h22.367187v64h-16v-48h-41.632812zm-384 84.152343h-41.632812l73.632812-84.152343 73.632813 84.152343h-41.632813v48h-16v-64h22.367188l-38.367188-43.847656-38.367187 43.847656h22.367187v80h-16zm0 0" fill="url(#a)"/></svg>