<svg height="496pt" viewBox="0 0 496 496" width="496pt" xmlns="http://www.w3.org/2000/svg" xmlns:xlink="http://www.w3.org/1999/xlink"><linearGradient id="a" gradientUnits="userSpaceOnUse" x1="248" x2="248" y1="496" y2="0"><stop offset="0" stop-color="#9f2fff"/><stop offset="1" stop-color="#0bb1d3"/></linearGradient><path d="m48 376h-16v-48h16zm176-24c0-17.648438 14.351562-32 32-32s32 14.351562 32 32-14.351562 32-32 32-32-14.351562-32-32zm16 0c0 8.824219 7.175781 16 16 16s16-7.175781 16-16-7.175781-16-16-16-16 7.175781-16 16zm104-32h16v-48h-48v16h32zm16 64h-16v32h-32v16h48zm-160 32h-32v-32h-16v48h48zm-32-128h32v-16h-48v48h16zm-168 168v-208c0-22.054688 17.945312-40 40-40h134.574219l-16.460938-22.792969c-14.464843-20.03125-22.113281-43.679687-22.113281-68.390625 0-64.417968 52.398438-116.816406 116.816406-116.816406h6.375c64.410156 0 116.808594 52.398438 116.808594 116.816406 0 24.710938-7.648438 48.367188-22.121094 68.390625l-16.453125 22.792969h118.574219c22.054688 0 40 17.945312 40 40v208c0 22.054688-17.945312 40-40 40h-416c-22.054688 0-40-17.945312-40-40zm456-232h-8v256h8c13.230469 0 24-10.769531 24-24v-208c0-13.230469-10.769531-24-24-24zm-284.910156-48.160156 78.710937 108.992187c2.863281 3.96875 9.527344 3.976563 12.398438 0l78.710937-108.992187c12.488282-17.289063 19.089844-37.695313 19.089844-59.023438 0-55.59375-45.222656-100.816406-100.816406-100.816406h-6.375c-55.585938 0-100.808594 45.222656-100.808594 100.816406 0 21.328125 6.601562 41.734375 19.089844 59.023438zm38.148437 80.160156h-97.238281v192h288v-192h-97.246094l-27.585937 38.199219c-4.433594 6.136719-11.601563 9.800781-19.167969 9.800781s-14.734375-3.664062-19.167969-9.800781zm-23.101562-32h-106.136719v256h352v-256h-106.136719l-11.550781 16h101.6875v224h-320v-224h101.6875zm-170.136719 232c0 13.230469 10.769531 24 24 24h24v-256h-24c-13.230469 0-24 10.769531-24 24zm240-264c-39.695312 0-72-32.304688-72-72s32.304688-72 72-72 72 32.304688 72 72-32.304688 72-72 72zm0-16c30.878906 0 56-25.121094 56-56s-25.121094-56-56-56-56 25.121094-56 56 25.121094 56 56 56zm8-64h-16v16h16zm32 0h-16v16h16zm-80 16h16v-16h-16zm0 0" fill="url(#a)"/></svg>