<svg height="496pt" viewBox="0 0 496 496" width="496pt" xmlns="http://www.w3.org/2000/svg" xmlns:xlink="http://www.w3.org/1999/xlink"><linearGradient id="a" gradientUnits="userSpaceOnUse" x1="248" x2="248" y1="496" y2="0"><stop offset="0" stop-color="#9f2fff"/><stop offset="1" stop-color="#0bb1d3"/></linearGradient><path d="m480 24c0-13.230469-10.769531-24-24-24s-24 10.769531-24 24v8h-16v16h16v48h-11.054688l-16-32h-105.890624l-16 32h-11.054688v-48h16v-16h-16v-8c0-13.230469-10.769531-24-24-24s-24 10.769531-24 24v8h-16v16h16v49.472656c-9.289062 3.3125-16 12.113282-16 22.527344 0 13.230469 10.769531 24 24 24h20.457031l-15.402343 41.070312-53.054688-43.40625-174.625 142.871094c-5.960938 4.878906-9.375 12.097656-9.375 19.800782v6.089843c0 14.09375 11.480469 25.574219 25.585938 25.574219 2.191406 0 4.324218-.375 6.414062-.921875v160.921875h304v-160.921875c2.089844.546875 4.222656.921875 6.414062.921875 14.105469 0 25.585938-11.480469 25.585938-25.585938v-6.085937c0-7.703125-3.414062-14.921875-9.382812-19.800781l-81.074219-66.328125c2.257812-2.109375 4.089843-4.726563 5.289062-7.742188l21.976563-54.945312 10.246094 20.488281h73.890624l10.238282-20.488281 21.976562 54.9375c3.296875 8.230469 11.144532 13.550781 20.007813 13.550781h9.28125c11.886719 0 21.550781-9.664062 21.550781-21.542969 0-2.59375-.464844-5.144531-1.367188-7.570312l-19.089843-50.886719h20.457031c13.230469 0 24-10.769531 24-24 0-10.414062-6.710938-19.214844-16-22.527344v-49.472656h16v-16h-16zm-32 0c0-4.40625 3.585938-8 8-8s8 3.59375 8 8v8h-16zm-139.054688 56h86.109376l8 16h-102.109376zm-68.945312-56c0-4.40625 3.585938-8 8-8s8 3.59375 8 8v8h-16zm16 24v48h-16v-48zm-208 432v-155.007812l136-114.527344 136 114.527344v155.007812zm304-175.664062v6.089843c0 5.277344-4.296875 9.574219-9.585938 9.574219-2.253906 0-4.445312-.800781-6.167968-2.257812l-152.246094-128.199219-152.246094 128.210937c-1.722656 1.445313-3.914062 2.246094-6.167968 2.246094-5.289063 0-9.585938-4.296875-9.585938-9.585938v-6.085937c0-2.886719 1.28125-5.59375 3.503906-7.417969l164.496094-134.574218 48.070312 39.328124c-.007812.265626-.070312.527344-.070312.792969 0 11.878907 9.664062 21.542969 21.542969 21.542969h5.824219l89.113281 72.910156c2.238281 1.832032 3.519531 4.539063 3.519531 7.425782zm-84.023438-99.824219c-.839843 2.121093-2.863281 3.488281-5.144531 3.488281h-9.28125c-3.054687 0-5.550781-2.488281-5.550781-5.542969 0-.671875.121094-1.328125.351562-1.953125l21.191407-56.503906h22.640625zm56.96875-44.511719-8-16h70.109376l-8 16zm130.703126 40.503906c.230468.625.351562 1.28125.351562 1.953125 0 3.054688-2.496094 5.542969-5.542969 5.542969h-9.28125c-2.28125 0-4.304687-1.367188-5.152343-3.488281l-24.207032-60.511719h22.640625zm16.351562-72.503906h-240c-4.414062 0-8-3.59375-8-8s3.585938-8 8-8h240c4.414062 0 8 3.59375 8 8s-3.585938 8-8 8zm-8-32h-16v-48h16zm-280 264c-17.648438 0-32 14.351562-32 32s14.351562 32 32 32 32-14.351562 32-32-14.351562-32-32-32zm0 48c-8.824219 0-16-7.175781-16-16s7.175781-16 16-16 16 7.175781 16 16-7.175781 16-16 16zm32-88h48v48h-16v-32h-32zm32 96h16v48h-48v-16h32zm-128 32h32v16h-48v-48h16zm0-80h-16v-48h48v16h-32zm0 0" fill="url(#a)"/></svg>