<svg height="496pt" viewBox="0 0 496 496" width="496pt" xmlns="http://www.w3.org/2000/svg" xmlns:xlink="http://www.w3.org/1999/xlink"><linearGradient id="a" gradientUnits="userSpaceOnUse" x1="248" x2="248" y1="496" y2="0"><stop offset="0" stop-color="#9f2fff"/><stop offset="1" stop-color="#0bb1d3"/></linearGradient><path d="m163.992188 333.457031c22.359374 21.941407 52.550781 34.542969 84.007812 34.542969s61.648438-12.59375 84.007812-34.542969l34.496094 19.917969 43.71875-11.710938-11.71875-43.710937-34.382812-19.855469c2.527344-9.800781 3.878906-19.882812 3.878906-30.097656 0-54.046875-36.566406-101.375-88-115.59375v-39.71875l-32-32-32 32v39.746094c-51.335938 14.222656-88 61.75-88 115.566406 0 10.214844 1.351562 20.296875 3.886719 30.089844l-34.382813 19.855468-11.71875 43.710938 43.71875 11.710938zm84.007812 18.542969c-25.777344 0-50.640625-9.695312-69.65625-26.832031l31.359375-18.105469 20.6875-23.328125c5.335937 2.640625 11.257813 4.265625 17.609375 4.265625s12.273438-1.625 17.609375-4.265625l20.6875 23.328125 31.359375 18.105469c-19.023438 17.136719-43.871094 26.832031-69.65625 26.832031zm0-128c13.230469 0 24 10.769531 24 24 0 .632812-.113281 1.230469-.183594 1.832031l-.410156 3.34375c-2.382812 10.753907-11.957031 18.824219-23.40625 18.824219s-21.023438-8.070312-23.398438-18.816406l-.410156-3.34375c-.078125-.609375-.191406-1.207032-.191406-1.839844 0-13.230469 10.769531-24 24-24zm142.625 106.34375-21.855469 5.855469-72.21875-41.6875-18.292969-20.640625c3.167969-3.695313 5.652344-7.925782 7.308594-12.597656l26.984375 5.519531 72.21875 41.695312zm-38.625-82.34375c0 7.351562-.824219 14.625-2.335938 21.742188l-31.367187-18.109376-30.5625-6.25c-.839844-12.742187-7.519531-23.917968-17.550781-30.628906l9.816406-29.457031v-36.199219c42.304688 13.6875 72 53.566406 72 98.902344zm-120-148.6875 16-16 16 16v83.390625l-8.671875 26.039063c-2.382813-.445313-4.816406-.742188-7.328125-.742188s-4.945312.296875-7.328125.742188l-8.671875-26.039063zm-88 148.6875c0-45.152344 29.753906-85.238281 72-98.945312v36.242187l9.816406 29.457031c-10.039062 6.71875-16.710937 17.886719-17.550781 30.628906l-30.5625 6.25-31.367187 18.109376c-1.511719-7.117188-2.335938-14.390626-2.335938-21.742188zm-38.625 82.34375 5.855469-21.855469 72.21875-41.695312 26.984375-5.519531c1.65625 4.671874 4.140625 8.902343 7.308594 12.597656l-18.292969 20.640625-72.21875 41.6875zm142.625 165.65625c136.753906 0 248-111.257812 248-248s-111.246094-248-248-248-248 111.257812-248 248 111.246094 248 248 248zm0-480c127.921875 0 232 104.070312 232 232s-104.078125 232-232 232-232-104.070312-232-232 104.078125-232 232-232zm0 448c119.105469 0 216-96.894531 216-216s-96.894531-216-216-216-216 96.894531-216 216 96.894531 216 216 216zm0-416c110.28125 0 200 89.71875 200 200s-89.71875 200-200 200-200-89.71875-200-200 89.71875-200 200-200zm-148.960938 230.40625-15.671874 3.195312c-2.230469-10.984374-3.367188-22.289062-3.367188-33.601562 0-74.007812 47.441406-138.488281 118.046875-160.449219l4.753906 15.28125c-63.878906 19.863281-106.800781 78.207031-106.800781 145.167969 0 10.246094 1.023438 20.480469 3.039062 30.40625zm248.882813 84.128906 10.527344 12.058594c-30.585938 26.703125-69.800781 41.40625-110.449219 41.40625-39.9375 0-78.640625-14.257812-108.984375-40.144531l10.390625-12.167969c27.441406 23.417969 62.457031 36.3125 98.59375 36.3125 36.777344 0 72.257812-13.304688 99.921875-37.464844zm-54.722656-259.703125 4.753906-15.28125c70.605469 21.960938 118.046875 86.441407 118.046875 160.449219 0 8.710938-.679688 17.488281-2.007812 26.054688l-15.816407-2.453126c1.214844-7.769531 1.824219-15.707031 1.824219-23.601562 0-66.960938-42.921875-125.304688-106.800781-145.167969zm0 0" fill="url(#a)"/></svg>