<svg height="496pt" viewBox="0 -56 496 496" width="496pt" xmlns="http://www.w3.org/2000/svg" xmlns:xlink="http://www.w3.org/1999/xlink"><linearGradient id="a" gradientUnits="userSpaceOnUse" x1="248" x2="248" y1="384" y2="0"><stop offset="0" stop-color="#9f2fff"/><stop offset="1" stop-color="#0bb1d3"/></linearGradient><path d="m248 304c-13.230469 0-24 10.769531-24 24s10.769531 24 24 24 24-10.769531 24-24-10.769531-24-24-24zm0 32c-4.40625 0-8-3.585938-8-8s3.59375-8 8-8 8 3.585938 8 8-3.59375 8-8 8zm205.359375-241.703125c-48.734375-59.050781-125.503906-94.296875-205.359375-94.296875s-156.625 35.257812-205.351562 94.304688c-17.640626 21.367187-31.550782 47.109374-41.527344 77.039062-.746094 2.214844-1.121094 4.535156-1.121094 6.886719 0 12 9.769531 21.769531 21.769531 21.769531h8.308594c9.394531 0 17.691406-5.984375 20.648437-14.878906 1.753907-5.257813 3.585938-10.058594 5.472657-14.617188l22.289062 15.921875 4.609375-4.609375 114.519532 121.902344c-3.5625 7.351562-5.617188 15.570312-5.617188 24.28125 0 30.871094 25.121094 56 56 56s56-25.128906 56-56c0-9.238281-2.289062-17.9375-6.265625-25.625l113.195313-120.566406 4.613281 4.605468 23.816406-17.007812c2.046875 4.859375 4.023437 10.035156 5.914063 15.707031 2.964843 8.902344 11.261718 14.886719 20.648437 14.886719h8.308594c12 0 21.769531-9.769531 21.769531-21.769531 0-2.351563-.375-4.671875-1.304688-7.445313-9.792968-29.371094-23.695312-55.113281-41.335937-76.488281zm-188.136719-30.296875h-34.445312l-2.496094-14.976562c6.527344-.609376 13.085938-1.023438 19.71875-1.023438s13.191406.414062 19.71875 1.023438zm-9.222656 208.640625c-2.625-.375-5.28125-.640625-8-.640625s-5.375.265625-8 .640625v-192.640625h16zm-43.59375-221.535156 4.816406 28.894531h6.777344v181.703125l-106.960938-113.832031 4.960938-4.960938-23.824219-33.351562c30.832031-30.597656 70.816407-51.101563 114.230469-58.453125zm-125.308594 70.445312 14.015625 19.617188-24.351562 24.359375-13.59375-9.703125c.503906-.921875.984375-1.902344 1.503906-2.792969 6.503906-11.277344 14.0625-21.765625 22.425781-31.480469zm7.316406 48.945313 11.304688-11.304688 113.539062 120.839844c-4.617187 2.777344-8.792968 6.191406-12.425781 10.136719zm153.585938 197.503906c-22.054688 0-40-17.945312-40-40s17.945312-40 40-40 40 17.945312 40 40-17.945312 40-40 40zm40.222656-78.871094c-3.726562-3.855468-8-7.175781-12.695312-9.839844l112.769531-120.105468 11.3125 11.3125zm-16.222656-29.449218v-179.679688h6.777344l4.816406-28.894531c42.871094 7.261719 82.382812 27.359375 113.046875 57.320312l-24.625 34.476563 4.96875 4.96875zm145.273438-94.152344-17.289063-17.28125-7.074219-7.070313 14.929688-20.902343c8.800781 10.054687 16.703125 20.992187 23.496094 32.757812.328124.570312.632812 1.191406.953124 1.777344zm56.957031 18.472656h-8.308594c-2.488281 0-4.683594-1.585938-5.472656-3.9375v-.007812c-4.570313-13.6875-9.5625-25.144532-15.257813-35.023438-40.222656-69.71875-115.785156-113.03125-197.191406-113.03125-81.398438 0-156.96875 43.3125-197.191406 113.03125-5.695313 9.878906-10.6875 21.335938-15.257813 35.03125-.789062 2.351562-2.984375 3.9375-5.472656 3.9375h-8.308594c-3.183593 0-5.769531-2.585938-5.769531-5.769531 0-.605469.105469-1.238281.480469-2.375 9.167969-27.511719 22.128906-51.519531 38.503906-71.367188 45.726563-55.410156 117.878906-88.488281 193.015625-88.488281s147.289062 33.078125 193.015625 88.488281c16.375 19.847657 29.335937 43.855469 38.6875 71.9375.191406.566407.296875 1.199219.296875 1.804688 0 3.183593-2.585938 5.769531-5.769531 5.769531zm0 0" fill="url(#a)"/></svg>