<svg height="496pt" viewBox="0 0 496 496" width="496pt" xmlns="http://www.w3.org/2000/svg" xmlns:xlink="http://www.w3.org/1999/xlink"><linearGradient id="a" gradientTransform="matrix(8 0 0 -8 -8 504)" gradientUnits="userSpaceOnUse" x1="32" x2="32" y1="1" y2="63"><stop offset="0" stop-color="#9f2fff"/><stop offset="1" stop-color="#0bb1d3"/></linearGradient><path d="m496 112c0-61.761719-50.238281-112-112-112-38.886719 0-73.183594 19.945312-93.273438 50.121094l-.03125-.023438c-9.101562 13.71875-23.671874 21.902344-38.960937 21.902344h-7.476563c-15.289062 0-29.859374-8.183594-38.960937-21.894531l-.03125.023437c-20.082031-30.183594-54.378906-50.128906-93.265625-50.128906-61.761719 0-112 50.238281-112 112s50.238281 112 112 112c26.519531 0 50.878906-9.3125 70.089844-24.777344-9.203125 15.074219-14.089844 32.328125-14.089844 49.992188 0 15.960937 4.070312 31.746094 11.679688 45.761718-18.824219-14.351562-42.230469-22.976562-67.679688-22.976562-61.761719 0-112 50.238281-112 112s50.238281 112 112 112c38.886719 0 73.183594-19.945312 93.273438-50.121094l.03125.023438c9.101562-13.710938 23.664062-21.894532 38.960937-21.894532h7.476563c15.296874 0 29.859374 8.183594 38.960937 21.894532l.03125-.023438c20.082031 30.175782 54.378906 50.121094 93.265625 50.121094 61.761719 0 112-50.238281 112-112s-50.238281-112-112-112c-25.449219 0-48.855469 8.625-67.679688 22.976562 7.609376-14.015624 11.679688-29.800781 11.679688-45.761718 0-17.664063-4.886719-34.917969-14.089844-49.992188 19.210938 15.464844 43.570313 24.777344 70.089844 24.777344 61.761719 0 112-50.238281 112-112zm-251.734375-24h7.476563c8.433593 0 16.648437-1.894531 24.273437-5.273438-1.863281 6.859376-3.085937 13.960938-3.609375 21.273438h-48.804688c-.523437-7.3125-1.746093-14.414062-3.609374-21.273438 7.625 3.378907 15.839843 5.273438 24.273437 5.273438zm48.167969 217.152344c-12.074219 21.734375-19 46.070312-20.234375 70.847656h-48.398438c-1.234375-24.785156-8.167969-49.121094-20.234375-70.847656l-9.503906-17.121094c-6.582031-11.847656-10.0625-25.261719-10.0625-38.816406 0-14.992188 4.199219-29.640625 12.152344-42.359375l1.191406-1.910157c16.015625-25.640624 25.105469-54.847656 26.472656-84.945312h48.367188c1.367187 30.097656 10.449218 59.3125 26.472656 84.945312l1.191406 1.910157c7.953125 12.71875 12.152344 27.367187 12.152344 42.359375 0 13.554687-3.480469 26.976562-10.054688 38.816406zm-180.433594-97.152344c-52.9375 0-96-43.0625-96-96s43.0625-96 96-96 96 43.0625 96 96-43.0625 96-96 96zm0 272c-52.9375 0-96-43.0625-96-96s43.0625-96 96-96 96 43.0625 96 96-43.0625 96-96 96zm139.734375-72h-7.476563c-8.433593 0-16.648437 1.894531-24.273437 5.273438 1.863281-6.859376 3.085937-13.960938 3.609375-21.273438h48.804688c.523437 7.3125 1.746093 14.414062 3.609374 21.273438-7.625-3.378907-15.832031-5.273438-24.273437-5.273438zm228.265625-24c0 52.9375-43.0625 96-96 96s-96-43.0625-96-96 43.0625-96 96-96 96 43.0625 96 96zm-192-272c0-52.9375 43.0625-96 96-96s96 43.0625 96 96-43.0625 96-96 96-96-43.0625-96-96zm176 0c0-44.113281-35.886719-80-80-80s-80 35.886719-80 80 35.886719 80 80 80 80-35.886719 80-80zm-144 0c0-35.289062 28.710938-64 64-64s64 28.710938 64 64-28.710938 64-64 64-64-28.710938-64-64zm-208-80c-44.113281 0-80 35.886719-80 80s35.886719 80 80 80 80-35.886719 80-80-35.886719-80-80-80zm0 144c-35.289062 0-64-28.710938-64-64s28.710938-64 64-64 64 28.710938 64 64-28.710938 64-64 64zm272 288c44.113281 0 80-35.886719 80-80s-35.886719-80-80-80-80 35.886719-80 80 35.886719 80 80 80zm0-144c35.289062 0 64 28.710938 64 64s-28.710938 64-64 64-64-28.710938-64-64 28.710938-64 64-64zm-272-16c-44.113281 0-80 35.886719-80 80s35.886719 80 80 80 80-35.886719 80-80-35.886719-80-80-80zm0 144c-35.289062 0-64-28.710938-64-64s28.710938-64 64-64 64 28.710938 64 64-28.710938 64-64 64zm136-272c-17.648438 0-32 14.351562-32 32v80c0 17.648438 14.351562 32 32 32s32-14.351562 32-32v-80c0-17.648438-14.351562-32-32-32zm0 16c8.824219 0 16 7.175781 16 16h-32c0-8.824219 7.175781-16 16-16zm-16 48v-16h32v16zm32 16v16h-32v-16zm-16 48c-8.824219 0-16-7.175781-16-16h32c0 8.824219-7.175781 16-16 16zm8-152h-16v-16h16zm-16 192h24v16h-24zm0 0" fill="url(#a)"/></svg>