<svg height="496pt" viewBox="0 -3 496 496" width="496pt" xmlns="http://www.w3.org/2000/svg" xmlns:xlink="http://www.w3.org/1999/xlink"><linearGradient id="a" gradientUnits="userSpaceOnUse" x1="248" x2="248" y1="489.8896" y2="-.0016"><stop offset="0" stop-color="#9f2fff"/><stop offset="1" stop-color="#0bb1d3"/></linearGradient><path d="m0 380.945312c0 8.039063 3.078125 15.3125 8 20.941407v88.007812l49.511719-24.757812-15.421875-53.976563c11.125-3.734375 19.496094-13.320312 21.390625-25.167968l95.015625-48.222657 2.609375 7.832031c3.773437 11.328126 12.300781 19.972657 22.878906 24.285157v27.058593c0 13.230469 10.769531 24 24 24h80c13.230469 0 24-10.769531 24-24v-27.066406c10.582031-4.3125 19.105469-12.957031 22.878906-24.285156l2.609375-7.832031 95.015625 48.222656c1.894531 11.839844 10.265625 21.429687 21.390625 25.167969l-15.421875 53.976562 49.542969 24.757813v-88c4.921875-5.621094 8-12.894531 8-20.941407 0-14.097656-9.222656-25.960937-21.902344-30.21875l15.421875-53.972656-49.519531-24.753906v68.871094l-96-66.96875v-57.902344l96-66.96875v68.871094l49.511719-24.757813-15.421875-53.976562c12.6875-4.265625 21.910156-16.128907 21.910156-30.222657 0-8.042968-3.078125-15.3125-8-20.945312v-88l-49.511719 24.761719 15.421875 53.972656c-11.125 3.738281-19.496094 13.320313-21.390625 25.167969l-88.519531 44.921875v-23.878907c0-30.882812-25.121094-56-56-56h-80c-30.878906 0-56 25.117188-56 56v23.878907l-88.511719-44.929688c-1.894531-11.839843-10.265625-21.429687-21.390625-25.167969l15.421875-53.972656-49.519531-24.753906v88.007812c-4.921875 5.625-8 12.894532-8 20.9375 0 14.09375 9.222656 25.957032 21.902344 30.214844l-15.421875 53.976563 49.519531 24.75v-68.863281l96 66.96875v57.902343l-96 66.96875v-68.871093l-49.511719 24.761718 15.421875 53.972656c-12.6875 4.257813-21.910156 16.121094-21.910156 30.21875zm24 83.054688v-52.191406c.601562.160156 1.167969.382812 1.785156.503906l12.695313 44.441406zm176-67.054688v-24h20.449219c-2.753907 4.726563-4.449219 10.144532-4.449219 16 0 5.855469 1.695312 11.269532 4.449219 16h-12.449219c-4.40625 0-8-3.59375-8-8zm64-8c0 8.824219-7.175781 16-16 16s-16-7.175781-16-16c0-8.824218 7.175781-16 16-16s16 7.175782 16 16zm24 16h-12.449219c2.753907-4.730468 4.449219-10.144531 4.449219-16 0-5.855468-1.695312-11.273437-4.449219-16h20.449219v24c0 4.40625-3.59375 8-8 8zm169.511719 51.816407 12.695312-44.441407c.617188-.121093 1.183594-.351562 1.785157-.503906v52.191406zm22.488281-75.816407c0 8.824219-7.175781 16-16 16s-16-7.175781-16-16c0-8.824218 7.175781-16 16-16s16 7.175782 16 16zm-9.511719-75.816406-12.695312 44.4375c-.617188.121094-1.183594.355469-1.785157.503906v-52.191406zm-30.6875 55.109375c-2.242187 2.609375-4.128906 5.515625-5.441406 8.753907l-91.910156-46.648438c.957031-3.464844 1.550781-7 1.550781-10.589844v-18.347656zm16.199219-168.238281v-52.191406c.601562.160156 1.167969.382812 1.785156.503906l12.695313 44.441406zm16-166.113281v52.191406c-.601562-.15625-1.167969-.382813-1.785156-.503906l-12.695313-44.4375zm-8 67.058593c8.824219 0 16 7.175782 16 16 0 8.824219-7.175781 16-16 16s-16-7.175781-16-16c0-8.824218 7.175781-16 16-16zm-29.632812 27.949219c1.3125 3.234375 3.199218 6.136719 5.441406 8.753907l-95.808594 66.832031v-29.710938zm-266.367188 4.050781c0-22.058593 17.945312-40 40-40h80c22.054688 0 40 17.941407 40 40v186.808594c0 2.582032-.414062 5.132813-1.230469 7.582032l-7.066406 21.191406c-3.269531 9.824218-12.421875 16.417968-22.765625 16.417968h-97.875c-10.34375 0-19.496094-6.59375-22.765625-16.410156l-7.066406-21.191406c-.816407-2.457031-1.230469-5.007812-1.230469-7.589844zm-129.511719-91.816406-12.695312 44.4375c-.625.128906-1.191407.355469-1.792969.511719v-52.191406zm-22.488281 75.816406c0-8.824218 7.175781-16 16-16s16 7.175782 16 16c0 8.824219-7.175781 16-16 16s-16-7.175781-16-16zm9.511719 75.816407 12.695312-44.441407c.625-.128906 1.191407-.351562 1.792969-.511718v52.191406zm30.6875-55.113281c2.242187-2.609376 4.128906-5.511719 5.441406-8.753907l90.359375 45.875v29.710938zm97.34375 192.6875-91.910157 46.65625c-1.3125-3.230469-3.199218-6.136719-5.441406-8.753907l95.808594-66.832031v18.347656c0 3.589844.59375 7.125 1.542969 10.582032zm-113.542969-24.449219v52.191406c-.601562-.15625-1.167969-.382813-1.785156-.503906l-12.695313-44.4375zm-8 67.058593c8.824219 0 16 7.175782 16 16 0 8.824219-7.175781 16-16 16s-16-7.175781-16-16c0-8.824218 7.175781-16 16-16zm184-72h64c17.648438 0 32-14.351562 32-32v-128c0-17.648437-14.351562-32-32-32h-64c-17.648438 0-32 14.351563-32 32v128c0 17.648438 14.351562 32 32 32zm64-16h-64c-8.824219 0-16-7.175781-16-16v-80h16v-16h-16v-16h96v16h-16v16h16v80c0 8.824219-7.175781 16-16 16zm-64-160h64c8.824219 0 16 7.175782 16 16h-96c0-8.824218 7.175781-16 16-16zm16 48h32v16h-32zm0 0" fill="url(#a)"/></svg>