<svg height="496pt" viewBox="0 -104 496 496" width="496pt" xmlns="http://www.w3.org/2000/svg" xmlns:xlink="http://www.w3.org/1999/xlink"><linearGradient id="a" gradientUnits="userSpaceOnUse" x1="248" x2="248" y1="288" y2="0"><stop offset="0" stop-color="#9f2fff"/><stop offset="1" stop-color="#0bb1d3"/></linearGradient><path d="m456 0h-416c-22.054688 0-40 17.945312-40 40v208c0 22.054688 17.945312 40 40 40h416c22.054688 0 40-17.945312 40-40v-208c0-22.054688-17.945312-40-40-40zm-24 16v256h-352v-256zm-416 232v-208c0-13.230469 10.769531-24 24-24h24v256h-24c-13.230469 0-24-10.769531-24-24zm464 0c0 13.230469-10.769531 24-24 24h-8v-256h8c13.230469 0 24 10.769531 24 24zm-432-128v48h-16v-48zm320 136c26.472656 0 48-21.527344 48-48s-21.527344-48-48-48-48 21.527344-48 48 21.527344 48 48 48zm0-80c17.648438 0 32 14.351562 32 32s-14.351562 32-32 32-32-14.351562-32-32 14.351562-32 32-32zm-224 80c26.472656 0 48-21.527344 48-48s-21.527344-48-48-48-48 21.527344-48 48 21.527344 48 48 48zm0-80c17.648438 0 32 14.351562 32 32s-14.351562 32-32 32-32-14.351562-32-32 14.351562-32 32-32zm112-56c13.230469 0 24-10.769531 24-24s-10.769531-24-24-24-24 10.769531-24 24 10.769531 24 24 24zm0-32c4.414062 0 8 3.585938 8 8s-3.585938 8-8 8-8-3.585938-8-8 3.585938-8 8-8zm56-40h-32v-16h48v48h-16zm16 112h-48v-16h32v-32h16zm-96 0h-48v-48h16v32h32zm-32-80h-16v-48h48v16h-32zm0 0" fill="url(#a)"/></svg>