<svg height="496pt" viewBox="0 0 496 496" width="496pt" xmlns="http://www.w3.org/2000/svg" xmlns:xlink="http://www.w3.org/1999/xlink"><linearGradient id="a" gradientUnits="userSpaceOnUse" x1="248" x2="248" y1="496" y2="0"><stop offset="0" stop-color="#9f2fff"/><stop offset="1" stop-color="#0bb1d3"/></linearGradient><path d="m128 0c-13.230469 0-24 10.769531-24 24v8h-48v16h48v49.472656c-9.289062 3.3125-16 12.113282-16 22.527344 0 13.230469 10.769531 24 24 24h20.457031l-19.082031 50.878906c-.910156 2.425782-1.375 4.96875-1.375 7.578125 0 11.878907 9.664062 21.542969 21.542969 21.542969h9.28125c8.863281 0 16.71875-5.320312 20.007812-13.542969l21.976563-54.9375 10.246094 20.480469h105.890624l10.238282-20.488281 21.976562 54.9375c3.296875 8.230469 11.144532 13.550781 20.007813 13.550781h9.28125c11.886719 0 21.550781-9.664062 21.550781-21.542969 0-2.601562-.464844-5.152343-1.367188-7.5625l-19.089843-50.894531h20.457031c13.230469 0 24-10.769531 24-24 0-10.414062-6.710938-19.214844-16-22.527344v-49.472656h48v-16h-48v-8c0-13.230469-10.769531-24-24-24s-24 10.769531-24 24v8h-48v16h48v48h-12.929688c-21.839843-20.601562-50.183593-32-80.328124-32h-5.484376c-30.152343 0-58.496093 11.398438-80.328124 32h-12.929688v-48h48v-16h-48v-8c0-13.230469-10.769531-24-24-24zm-8 24c0-4.414062 3.585938-8 8-8s8 3.585938 8 8v8h-16zm27.976562 180.511719c-.839843 2.121093-2.863281 3.488281-5.144531 3.488281h-9.28125c-3.054687 0-5.550781-2.496094-5.550781-5.542969 0-.671875.121094-1.320312.351562-1.9375l21.191407-56.519531h22.632812zm56.96875-44.511719-8-16h102.109376l-8 16zm162.710938 40.519531c.222656.617188.34375 1.265625.34375 1.9375 0 3.046875-2.496094 5.542969-5.542969 5.542969h-9.28125c-2.28125 0-4.304687-1.367188-5.152343-3.488281l-24.207032-60.511719h22.640625zm16.34375-72.519531h-272c-4.414062 0-8-3.585938-8-8s3.585938-8 8-8h272c4.414062 0 8 3.585938 8 8s-3.585938 8-8 8zm-24-104c0-4.414062 3.585938-8 8-8s8 3.585938 8 8v8h-16zm0 24h16v48h-16zm-114.742188 32h5.484376c19.648437 0 38.417968 5.625 54.5625 16h-114.609376c16.152344-10.375 34.914063-16 54.5625-16zm-109.257812 16h-16v-48h16zm320 144h-416c-22.054688 0-40 17.945312-40 40v176c0 22.054688 17.945312 40 40 40h416c22.054688 0 40-17.945312 40-40v-176c0-22.054688-17.945312-40-40-40zm-24 16v224h-352v-224zm-416 200v-176c0-13.230469 10.769531-24 24-24h24v224h-24c-13.230469 0-24-10.769531-24-24zm464 0c0 13.230469-10.769531 24-24 24h-8v-224h8c13.230469 0 24 10.769531 24 24zm-432-112v48h-16v-48zm208 40c-13.230469 0-24 10.769531-24 24s10.769531 24 24 24 24-10.769531 24-24-10.769531-24-24-24zm0 32c-4.414062 0-8-3.585938-8-8s3.585938-8 8-8 8 3.585938 8 8-3.585938 8-8 8zm56-8h-16c0-22.054688-17.945312-40-40-40s-40 17.945312-40 40h-16c0-30.871094 25.128906-56 56-56s56 25.128906 56 56zm32 0h-16c0-39.703125-32.296875-72-72-72s-72 32.296875-72 72h-16c0-48.519531 39.480469-88 88-88s88 39.480469 88 88zm72 56v-192h-320v192zm-304-176h288v160h-288zm0 0" fill="url(#a)"/></svg>