<svg height="496pt" viewBox="0 0 496 496" width="496pt" xmlns="http://www.w3.org/2000/svg" xmlns:xlink="http://www.w3.org/1999/xlink"><linearGradient id="a" gradientUnits="userSpaceOnUse" x1="248" x2="248" y1="496" y2="0"><stop offset="0" stop-color="#9f2fff"/><stop offset="1" stop-color="#0bb1d3"/></linearGradient><path d="m458.527344 310.289062c-7.632813-22.90625-28.984375-38.289062-53.128906-38.289062h-109.398438v-16h40c13.230469 0 24-10.769531 24-24v-8h56c22.054688 0 40-17.945312 40-40v-112c0-22.054688-17.945312-40-40-40h-56v-8c0-13.230469-10.769531-24-24-24h-176c-13.230469 0-24 10.769531-24 24v8h-56c-22.054688 0-40 17.945312-40 40v112c0 22.054688 17.945312 40 40 40h56v8c0 13.230469 10.769531 24 24 24h40v16h-109.398438c-24.144531 0-45.496093 15.382812-53.128906 38.289062l-34.242187 102.703126c-2.140625 6.441406-3.230469 13.152343-3.230469 19.945312 0 34.773438 28.289062 63.0625 63.0625 63.0625h9.761719c22.023437 0 42.742187-11.734375 54.070312-30.617188l24.242188-40.398437c7.261719 4.421875 15.757812 7.015625 24.863281 7.015625 14.167969 0 26.878906-6.207031 35.679688-16h72.648437c8.792969 9.792969 21.503906 16 35.679687 16 9.105469 0 17.601563-2.59375 24.863282-7.015625l24.242187 40.398437c11.320313 18.882813 32.039063 30.617188 54.0625 30.617188h9.761719c34.773438 0 63.0625-28.289062 63.0625-63.0625 0-6.792969-1.089844-13.503906-3.230469-19.945312zm-167.472656-22.289062-16 32h-54.109376l-16-32zm-171.054688-80v-160h272v160zm320-136v112c0 13.230469-10.769531 24-24 24h-8v-160h8c13.230469 0 24 10.769531 24 24zm-288-48c0-4.40625 3.59375-8 8-8h176c4.40625 0 8 3.59375 8 8v8h-192zm-96 160v-112c0-13.230469 10.769531-24 24-24h24v160h-24c-13.230469 0-24-10.769531-24-24zm96 48v-8h192v8c0 4.40625-3.59375 8-8 8h-176c-4.40625 0-8-3.59375-8-8zm64 24h64v16h-64zm-102.824219 201.152344c-8.457031 14.09375-23.910156 22.847656-40.351562 22.847656h-9.761719c-25.949219 0-47.0625-21.113281-47.0625-47.0625 0-5.074219.816406-10.082031 2.414062-14.882812l.683594-2.054688h50.34375l47.902344 34.214844zm62.824219-41.152344c-17.648438 0-32-14.351562-32-32s14.351562-32 32-32 32 14.351562 32 32-14.351562 32-32 32zm45.199219-16c1.785156-5.015625 2.800781-10.382812 2.800781-16 0-26.472656-21.527344-48-48-48s-48 21.527344-48 48c0 11.511719 4.078125 22.078125 10.855469 30.359375l-13.253907 22.097656-51.042968-36.457031h-50.125l28.214844-84.648438c5.457031-16.359374 20.703124-27.351562 37.953124-27.351562h96.453126l24 48h73.890624l24-48h96.453126c17.25 0 32.496093 10.992188 37.953124 27.351562l28.214844 84.648438h-50.125l-51.042968 36.457031-13.253907-22.097656c6.777344-8.28125 10.855469-18.847656 10.855469-30.359375 0-26.472656-21.527344-48-48-48s-48 21.527344-48 48c0 5.617188 1.023438 10.984375 2.800781 16zm66.800781-16c0-17.648438 14.351562-32 32-32s32 14.351562 32 32-14.351562 32-32 32-32-14.351562-32-32zm144.9375 96h-9.761719c-16.441406 0-31.894531-8.753906-40.351562-22.847656l-4.160157-6.929688 47.894532-34.222656h50.335937l.691407 2.054688c1.597656 4.808593 2.414062 9.816406 2.414062 14.882812 0 25.949219-21.113281 47.0625-47.0625 47.0625zm-344.9375-368v32h-16v-32zm160-8c-13.230469 0-24 10.769531-24 24s10.769531 24 24 24 24-10.769531 24-24-10.769531-24-24-24zm0 32c-4.40625 0-8-3.59375-8-8s3.59375-8 8-8 8 3.59375 8 8-3.59375 8-8 8zm96-72v48h-16v-32h-32v-16zm-16 80h16v48h-48v-16h32zm-160-80h48v16h-32v32h-16zm16 112h32v16h-48v-48h16zm-88 128c-17.648438 0-32 14.351562-32 32s14.351562 32 32 32 32-14.351562 32-32-14.351562-32-32-32zm0 48c-8.824219 0-16-7.175781-16-16s7.175781-16 16-16 16 7.175781 16 16-7.175781 16-16 16zm304 16c17.648438 0 32-14.351562 32-32s-14.351562-32-32-32-32 14.351562-32 32 14.351562 32 32 32zm0-48c8.824219 0 16 7.175781 16 16s-7.175781 16-16 16-16-7.175781-16-16 7.175781-16 16-16zm0 0" fill="url(#a)"/></svg>