<svg height="496pt" viewBox="-80 0 496 496" width="496pt" xmlns="http://www.w3.org/2000/svg" xmlns:xlink="http://www.w3.org/1999/xlink"><linearGradient id="a" gradientUnits="userSpaceOnUse" x1="168" x2="168" y1="496" y2="0"><stop offset="0" stop-color="#9f2fff"/><stop offset="1" stop-color="#0bb1d3"/></linearGradient><path d="m232 224h-16c-13.230469 0-24 10.769531-24 24v144c0 13.230469 10.769531 24 24 24h8v32h16v48h48v-48h16v-32h8c13.230469 0 24-10.769531 24-24v-144c0-13.230469-10.769531-24-24-24h-16v-49.351562c0-27.359376-6.414062-54.273438-18.558594-78.648438h34.558594v-48h-16v-48h-64v48h-16v48h34.558594c-12.144532 24.382812-18.558594 51.289062-18.558594 78.648438zm40 256h-16v-32h16zm16-48h-48v-16h48zm32-184v8h-16v16h16v96h-80v16h80v8c0 4.414062-3.585938 8-8 8h-96c-4.414062 0-8-3.585938-8-8v-8h16v-16h-16v-96h80v-16h-80v-8c0-4.414062 3.585938-8 8-8h96c4.414062 0 8 3.585938 8 8zm-72-232h32v32h-32zm-16 48h64v16h-64zm32 41c10.449219 21.671875 16 45.464844 16 69.648438v49.351562h-32v-49.351562c0-24.183594 5.550781-47.976563 16-69.648438zm-247.464844 343h-16.535156v48h48v-48h-15.3125c1.648438-10.296875 6.425781-19.800781 13.9375-27.3125l25.375-25.375 25.375 25.375c7.511719 7.511719 12.28125 17.015625 13.9375 27.3125h-15.3125v48h48v-48h-16.535156c-1.753906-14.585938-8.234375-28.078125-18.777344-38.625l-25.375-25.375 2.910156-2.910156c16.617188-16.617188 25.777344-38.722656 25.777344-62.234375v-46.855469h8c13.230469 0 24-10.769531 24-24v-144c0-13.230469-10.769531-24-24-24h-8v-32h-16v-48h-48v48h-16v32h-8c-13.230469 0-24 10.769531-24 24v144c0 13.230469 10.769531 24 24 24h8v46.855469c0 23.503906 9.160156 45.609375 25.777344 62.222656l2.910156 2.921875-25.375 25.375c-10.542969 10.546875-17.023438 24.039062-18.777344 38.625zm15.464844 32h-16v-16h16zm96 0h-16v-16h16zm-64-464h16v32h-16zm-16 48h48v16h-48zm-32 184v-8h16v-16h-16v-96h80v-16h-80v-8c0-4.414062 3.585938-8 8-8h96c4.414062 0 8 3.585938 8 8v8h-16v16h16v96h-80v16h80v8c0 4.414062-3.585938 8-8 8h-96c-4.414062 0-8-3.585938-8-8zm53.089844 121.777344c-13.59375-13.601563-21.089844-31.679688-21.089844-50.914063v-46.863281h48v46.855469c0 19.234375-7.496094 37.3125-21.089844 50.914062l-2.910156 2.917969zm0 0" fill="url(#a)"/></svg>