<svg height="496pt" viewBox="0 0 496 496" width="496pt" xmlns="http://www.w3.org/2000/svg" xmlns:xlink="http://www.w3.org/1999/xlink"><linearGradient id="a" gradientUnits="userSpaceOnUse" x1="248" x2="248" y1="496" y2="0"><stop offset="0" stop-color="#9f2fff"/><stop offset="1" stop-color="#0bb1d3"/></linearGradient><path d="m496 288h-64.457031l-49.230469-80h89.6875c13.230469 0 24-10.769531 24-24v-32c0-13.230469-10.769531-24-24-24h-32v-32h-16v-16h48c13.230469 0 24-10.769531 24-24s-10.769531-24-24-24h-32v-8c0-13.230469-10.769531-24-24-24s-24 10.769531-24 24v8h-32c-13.230469 0-24 10.769531-24 24s10.769531 24 24 24h48v16h-16v32h-28.527344c-26.855468-30.480469-65.175781-48-105.953125-48h-19.03125c-40.777343 0-79.097656 17.519531-105.953125 48h-28.535156v-32h-16v-16h48c13.230469 0 24-10.769531 24-24s-10.769531-24-24-24h-32v-8c0-13.230469-10.769531-24-24-24s-24 10.769531-24 24v8h-32c-13.230469 0-24 10.769531-24 24s10.769531 24 24 24h48v16h-16v32h-32c-13.230469 0-24 10.769531-24 24v32c0 13.230469 10.769531 24 24 24h89.6875l-49.230469 80h-64.457031v208h496zm-88-264c0-4.40625 3.585938-8 8-8s8 3.59375 8 8v8h-16zm-56 32c0-4.40625 3.585938-8 8-8h112c4.414062 0 8 3.59375 8 8s-3.585938 8-8 8h-112c-4.414062 0-8-3.59375-8-8zm-280-32c0-4.40625 3.585938-8 8-8s8 3.59375 8 8v8h-16zm-56 32c0-4.40625 3.585938-8 8-8h112c4.414062 0 8 3.59375 8 8s-3.585938 8-8 8h-112c-4.414062 0-8-3.59375-8-8zm464 296h-48v-32h8v-16h40zm-64 128h-48v-64h-32v16h16v48h-208v-48h16v-16h-32v64h-48v-64h-64v-48h64v-48h28.496094l9.71875-16h9.785156v64h32v-16h-16v-48h208v48h-16v16h32v-64h9.777344l9.71875 16h28.503906v48h64v48h-64zm-260.945312-224h185.890624l3.460938-6.921875 23.648438 38.921875h-240.109376l23.648438-38.921875zm148.945312-16h-24.207031c5.078125-6.703125 8.207031-14.960938 8.207031-24s-3.128906-17.296875-8.207031-24h16.207031c4.414062 0 8 3.59375 8 8zm-32-24c0 13.230469-10.769531 24-24 24s-24-10.769531-24-24 10.769531-24 24-24 24 10.769531 24 24zm-55.792969 24h-24.207031v-40c0-4.40625 3.585938-8 8-8h16.207031c-5.078125 6.703125-8.207031 14.960938-8.207031 24s3.128906 17.296875 8.207031 24zm180.289063 64-43.640625-71.824219 11.457031-22.910156 58.296875 94.734375zm11.503906-192h16v16h-16zm-169.511719-16h19.03125c31.128907 0 60.625 11.566406 83.449219 32h-185.929688c22.824219-20.433594 52.3125-32 83.449219-32zm-166.488281 16h16v16h-16zm-56 72v-32c0-4.40625 3.585938-8 8-8h448c4.414062 0 8 3.59375 8 8v32c0 4.40625-3.585938 8-8 8h-116.945312l-24 48h-11.054688v-40c0-13.230469-10.769531-24-24-24h-96c-13.230469 0-24 10.769531-24 24v40h-11.054688l-24-48h-116.945312c-4.414062 0-8-3.59375-8-8zm115.6875 25.265625 11.457031 22.910156-43.640625 71.824219h-26.113281zm-75.6875 94.734375v16h8v32h-48v-48zm-40 128h48v48h-48zm416 48v-48h48v48zm-184-112c-13.230469 0-24 10.769531-24 24s10.769531 24 24 24 24-10.769531 24-24-10.769531-24-24-24zm0 32c-4.414062 0-8-3.59375-8-8s3.585938-8 8-8 8 3.59375 8 8-3.585938 8-8 8zm24-80h48v48h-16v-32h-32zm32 96h16v48h-48v-16h32zm-112 32h32v16h-48v-48h16zm0-80h-16v-48h48v16h-32zm48-152c0-4.414062 3.585938-8 8-8s8 3.585938 8 8-3.585938 8-8 8-8-3.585938-8-8zm-208-56h16v16h-16zm32 0h16v16h-16zm400 16h-16v-16h16zm-32 0h-16v-16h16zm0 0" fill="url(#a)"/></svg>