<svg height="500pt" viewBox="0 -37 500.688 500" width="500pt" xmlns="http://www.w3.org/2000/svg" xmlns:xlink="http://www.w3.org/1999/xlink"><linearGradient id="a" gradientUnits="userSpaceOnUse" x1="250.344" x2="250.344" y1="426.008" y2=".344"><stop offset="0" stop-color="#9f2fff"/><stop offset="1" stop-color="#0bb1d3"/></linearGradient><path d="m250.34375 240.34375c-17.648438 0-32 14.351562-32 32s14.351562 32 32 32 32-14.351562 32-32-14.351562-32-32-32zm0 48c-8.824219 0-16-7.175781-16-16s7.175781-16 16-16 16 7.175781 16 16-7.175781 16-16 16zm8-208h-16v-48h16zm-180.566406 279.785156 7.839844 13.949219-42.152344 23.707031-7.839844-13.953125zm379.445312 37.65625-42.160156-23.707031 7.839844-13.949219 42.160156 23.703125zm-144.070312-137.578125c-2.777344-14.390625-10.390625-27.0625-21.082032-36.285156l14.503907-47.128906-33.605469-176.449219h-45.242188l-33.605468 176.457031 14.503906 47.128907c-10.6875 9.222656-18.304688 21.886718-21.082031 36.285156l-49.503907 11.042968-138.039062 115.949219 23 38.800781 171.800781-58.3125 33.664063-35.289062c6.839844 2.503906 14.183594 3.9375 21.878906 3.9375s15.039062-1.433594 21.878906-3.9375l33.664063 35.289062 171.800781 58.3125 23-38.800781-138.03125-115.960937zm-102.578125-84.320312 30.394531-159.542969h18.757812l30.394532 159.542969-11.96875 38.898437c-6.128906-2.976562-12.785156-5.007812-19.800782-5.890625v-80.550781h-16v80.550781c-7.023437.882813-13.671874 2.914063-19.800781 5.890625zm-24.644531 177.921875-155.785157 52.871094-9.457031-15.953126 124.640625-104.710937 41.238281-9.207031c.480469 6.886718 2.019532 13.488281 4.511719 19.605468l-71.140625 39.992188 7.839844 13.953125 71.191406-40.015625c4.109375 5.535156 9.0625 10.410156 14.710938 14.375zm16.414062-81.464844c0-26.472656 21.527344-48 48-48s48 21.527344 48 48-21.527344 48-48 48-48-21.527344-48-48zm268.199219 134.335938-155.78125-52.871094-27.753907-29.089844c5.648438-3.964844 10.601563-8.832031 14.710938-14.375l71.191406 40.015625 7.84375-13.953125-71.144531-39.992188c2.496094-6.117187 4.03125-12.71875 4.511719-19.605468l41.238281 9.207031 124.640625 104.710937zm0 0" fill="url(#a)"/></svg>