<svg height="496pt" viewBox="-80 0 496 496" width="496pt" xmlns="http://www.w3.org/2000/svg" xmlns:xlink="http://www.w3.org/1999/xlink"><linearGradient id="a" gradientUnits="userSpaceOnUse" x1="168" x2="168" y1="496" y2="0"><stop offset="0" stop-color="#9f2fff"/><stop offset="1" stop-color="#0bb1d3"/></linearGradient><path d="m136 216h16c0 8.824219 7.175781 16 16 16s16-7.175781 16-16h16c0 17.648438-14.351562 32-32 32s-32-14.351562-32-32zm200 148.199219v131.800781h-336v-131.800781c0-24.871094 16.703125-47.015625 40.617188-53.839844l71.382812-20.390625v-22.144531c-13.6875-11.320313-23.824219-26.726563-28.710938-44.304688-19.816406-2.359375-35.289062-19.078125-35.289062-39.519531v-95.207031c0-26.769531 18.574219-50.089844 44.464844-56.199219l9.335937-7.480469c20.253907-16.191406 45.679688-25.113281 71.597657-25.113281 63.195312 0 114.601562 51.40625 114.601562 114.601562v69.398438c0 20.441406-15.472656 37.160156-35.289062 39.519531-4.886719 17.578125-15.023438 32.984375-28.710938 44.304688v22.144531l71.382812 20.390625c23.914063 6.824219 40.617188 28.96875 40.617188 53.839844zm-116.007812-58.742188c-3.71875 6.632813-8.472657 12.429688-14.144532 17.078125l11.03125 11.03125c6.265625-5.429687 11.769532-11.804687 15.992188-19.199218l2.570312-4.488282zm-75.769532 25.632813-11.765625 11.765625c8.464844 4.59375 17.789063 7.550781 27.542969 8.609375v-16.015625c-5.503906-.738281-10.800781-2.21875-15.777344-4.359375zm31.777344 20.375c9.753906-1.058594 19.070312-4.023438 27.542969-8.609375l-11.765625-11.765625c-4.976563 2.140625-10.273438 3.621094-15.777344 4.359375zm64-207.730469c-24.800781-1.644531-48.769531-10.894531-68.230469-26.46875l-3.769531-3.019531-3.769531 3.011718c-19.46875 15.574219-43.4375 24.832032-68.230469 26.476563v24.265625c0 8.824219 7.175781 16 16 16h14.0625c4.210938 0 8.335938-1.710938 11.3125-4.6875l1.9375-1.9375c5.953125-5.960938 14.199219-9.375 22.625-9.375h12.125c8.425781 0 16.671875 3.414062 22.625 9.375l1.9375 1.9375c2.976562 2.976562 7.101562 4.6875 11.3125 4.6875h14.0625c8.824219 0 16-7.175781 16-16zm32 40.265625c0-10.414062-6.710938-19.214844-16-22.527344v38.527344c0 2.238281-.167969 4.433594-.335938 6.632812 9.464844-3.21875 16.335938-12.097656 16.335938-22.632812zm-208-95.207031v63.414062c4.671875-3.535156 10.054688-6.183593 16-7.390625v-16.816406h8c23.984375 0 47.503906-8.246094 66.230469-23.230469l13.769531-11.015625 13.769531 11.023438c18.726563 14.976562 42.246094 23.222656 66.230469 23.222656h8v16.808594c5.945312 1.214844 11.328125 3.855468 16 7.390625v-37.597657c0-54.371093-44.230469-98.601562-98.601562-98.601562-22.292969 0-44.175782 7.671875-61.605469 21.609375l-12.3125 9.847656-1.914063.382813c-19.445312 3.894531-33.566406 21.113281-33.566406 40.953125zm16.335938 117.839843c-.167969-2.199218-.335938-4.394531-.335938-6.632812v-38.527344c-9.289062 3.3125-16 12.113282-16 22.527344 0 10.535156 6.871094 19.414062 16.335938 22.632812zm87.664062 65.367188c39.703125 0 72-32.296875 72-72v-4.449219c-4.726562 2.753907-10.144531 4.449219-16 4.449219h-14.0625c-8.425781 0-16.671875-3.414062-22.625-9.375l-1.9375-1.9375c-2.976562-2.976562-7.101562-4.6875-11.3125-4.6875h-12.125c-4.210938 0-8.335938 1.710938-11.3125 4.6875l-1.9375 1.9375c-5.953125 5.960938-14.199219 9.375-22.625 9.375h-14.0625c-5.855469 0-11.273438-1.695312-16-4.449219v4.449219c0 39.703125 32.296875 72 72 72zm-40 6.289062v15.824219l.839844 1.6875c7.464844 14.925781 22.472656 24.199219 39.160156 24.199219s31.695312-9.273438 39.160156-24.199219l.839844-1.6875v-15.824219c-12.015625 6.160157-25.59375 9.710938-40 9.710938s-27.984375-3.550781-40-9.710938zm-27.433594 31.582032 2.570313 4.488281c4.222656 7.394531 9.726562 13.777344 15.992187 19.199219l11.03125-11.03125c-5.671875-4.648438-10.425781-10.449219-14.144531-17.078125zm-84.566406 170.128906h48v-48h-48zm304 0v-48h-48v48zm0-115.800781c0-17.765625-11.929688-33.574219-29.007812-38.457031l-39.71875-11.34375-4.511719 7.898437c-16.113281 28.191406-46.289063 45.703125-78.761719 45.703125s-62.648438-17.511719-78.761719-45.703125l-4.511719-7.898437-39.71875 11.355468c-17.078124 4.871094-29.007812 20.6875-29.007812 38.445313v51.800781h48v-48h16v112h176v-112h16v48h48zm0 0" fill="url(#a)"/></svg>