<svg height="480pt" viewBox="0 0 480 480" width="480pt" xmlns="http://www.w3.org/2000/svg"><path d="m456 303.789062h-24v-104c0-13.257812-10.746094-24-24-24h-56v-72c0-4.417968-3.582031-8-8-8h-32c-4.417969 0-8 3.582032-8 8v72h-40v-72c0-4.417968-3.582031-8-8-8h-32c-4.417969 0-8 3.582032-8 8v72h-40v-72c0-4.417968-3.582031-8-8-8h-32c-4.417969 0-8 3.582032-8 8v72h-56c-13.253906 0-24 10.742188-24 24v104h-24c-13.253906 0-24 10.742188-24 24v128c0 13.253907 10.746094 24 24 24h432c13.253906 0 24-10.746093 24-24v-128c0-13.257812-10.746094-24-24-24zm8 24v5.160157c-7.832031 8.886719-19.933594 12.71875-31.453125 9.960937-11.523437-2.753906-20.578125-11.652344-23.539063-23.121094h46.992188c4.417969 0 8 3.582032 8 8zm-56-136c4.417969 0 8 3.582032 8 8v11.742188c-4.859375 2.8125-10.382812 4.28125-16 4.257812-14.585938-.019531-27.324219-9.882812-30.992188-24zm-88-80h16v64h-16zm30.992188 80c-3.636719 14.144532-16.386719 24.03125-30.992188 24.03125s-27.355469-9.886718-30.992188-24.03125zm-118.992188-80h16v64h-16zm38.992188 80c-3.636719 14.144532-16.386719 24.03125-30.992188 24.03125s-27.355469-9.886718-30.992188-24.03125zm-80 0c-3.636719 14.144532-16.386719 24.03125-30.992188 24.03125s-27.355469-9.886718-30.992188-24.03125zm-46.992188-80h16v64h-16zm-80 88c0-4.417968 3.582031-8 8-8h38.992188c-3.667969 14.117188-16.40625 23.980469-30.992188 24-5.617188.023438-11.140625-1.445312-16-4.257812zm0 29.230469c20.757812 7.386719 43.875-.355469 56-18.75 8.875 13.433594 23.898438 21.515625 40 21.515625s31.125-8.082031 40-21.515625c8.875 13.433594 23.898438 21.515625 40 21.515625s31.125-8.082031 40-21.515625c8.875 13.433594 23.898438 21.515625 40 21.515625s31.125-8.082031 40-21.515625c12.125 18.394531 35.242188 26.136719 56 18.75v74.769531h-352zm326.992188 90.769531c-3.636719 14.144532-16.386719 24.03125-30.992188 24.03125s-27.355469-9.886718-30.992188-24.03125zm-80 0c-3.636719 14.144532-16.386719 24.03125-30.992188 24.03125s-27.355469-9.886718-30.992188-24.03125zm-80 0c-3.636719 14.144532-16.386719 24.03125-30.992188 24.03125s-27.355469-9.886718-30.992188-24.03125zm-80 0c-3.636719 14.144532-16.386719 24.03125-30.992188 24.03125s-27.355469-9.886718-30.992188-24.03125zm-134.992188 8c0-4.417968 3.582031-8 8-8h46.992188c-2.960938 11.46875-12.015626 20.367188-23.539063 23.121094-11.519531 2.757813-23.621094-1.074218-31.453125-9.960937zm440 136h-432c-4.417969 0-8-3.582031-8-8v-102.5625c21.910156 12.863282 50.058594 6.285157 64-14.957031 8.875 13.433594 23.898438 21.515625 40 21.515625s31.125-8.082031 40-21.515625c8.875 13.433594 23.898438 21.515625 40 21.515625s31.125-8.082031 40-21.515625c8.875 13.433594 23.898438 21.515625 40 21.515625s31.125-8.082031 40-21.515625c8.875 13.433594 23.898438 21.515625 40 21.515625s31.125-8.082031 40-21.515625c13.941406 21.242188 42.089844 27.820313 64 14.957031v102.5625c0 4.417969-3.582031 8-8 8zm0 0"/><path d="m240 87.789062c17.671875 0 32-14.328124 32-32 0-14.992187-21.167969-46.402343-25.414062-52.546874-1.574219-2.042969-4.007813-3.242188-6.585938-3.242188s-5.011719 1.199219-6.585938 3.242188c-4.246093 6.144531-25.414062 37.554687-25.414062 52.546874 0 17.671876 14.328125 32 32 32zm0-65.433593c8.535156 13.601562 16 28.128906 16 33.433593 0 8.835938-7.164062 16-16 16s-16-7.164062-16-16c0-5.296874 7.464844-19.800781 16-33.433593zm0 0"/><path d="m328 87.789062c17.671875 0 32-14.328124 32-32 0-14.992187-21.167969-46.402343-25.414062-52.546874-1.574219-2.042969-4.007813-3.242188-6.585938-3.242188s-5.011719 1.199219-6.585938 3.242188c-4.246093 6.144531-25.414062 37.554687-25.414062 52.546874 0 17.671876 14.328125 32 32 32zm0-65.433593c8.535156 13.601562 16 28.128906 16 33.433593 0 8.835938-7.164062 16-16 16s-16-7.164062-16-16c0-5.296874 7.464844-19.800781 16-33.433593zm0 0"/><path d="m152 87.789062c17.671875 0 32-14.328124 32-32 0-14.992187-21.167969-46.402343-25.414062-52.546874-1.574219-2.042969-4.007813-3.242188-6.585938-3.242188s-5.011719 1.199219-6.585938 3.242188c-4.246093 6.144531-25.414062 37.554687-25.414062 52.546874 0 17.671876 14.328125 32 32 32zm0-65.433593c8.535156 13.601562 16 28.128906 16 33.433593 0 8.835938-7.164062 16-16 16s-16-7.164062-16-16c0-5.296874 7.464844-19.800781 16-33.433593zm0 0"/></svg>