<svg height="473pt" viewBox="0 0 473.85696 473" width="473pt" xmlns="http://www.w3.org/2000/svg"><path d="m464.503906 419.59375-184.800781-184.796875c15.890625-24.503906 24.328125-53.085937 24.289063-82.289063v-.167968c.105468-40.269532-15.878907-78.914063-44.398438-107.34375l-.050781-.039063-.078125-.089843c-28.339844-28.363282-66.761719-44.335938-106.855469-44.421876-.328125-.023437-.652344-.023437-.976563 0-40.109374.015626-78.574218 15.941407-106.960937 44.277344l-.078125.074219-.089844.109375c-28.535156 28.390625-44.5546872 66.996094-44.503906 107.25v.183594c-.0351562 83.777344 67.785156 151.753906 151.558594 151.910156.144531 0 .289062.089844.433594.089844.144531 0 .480468-.082032.726562-.105469 28.984375-.113281 57.328125-8.519531 81.6875-24.222656l184.800781 184.800781c12.488281 12.507812 32.75 12.523438 45.257813.039062 12.507812-12.484374 12.523437-32.746093.039062-45.257812zm-399.3125-162.621094 21.601563-8.304687c27.445312-10.597657 49.128906-32.304688 59.703125-59.761719l6.03125-15.6875 6.832031 15.359375c10.097656 22.757813 10.097656 48.722656 0 71.480469l-12.457031 27.984375c-29.921875-1.035157-58.660156-11.960938-81.710938-31.070313zm-48.582031-92.066406 21.152344 9.402344c26.894531 11.933594 57.582031 11.933594 84.476562 0l15.363281-6.824219-6.035156 15.6875c-8.960937 23.226563-27.320312 41.582031-50.550781 50.535156l-28.609375 11.03125c-20.480469-21.886719-33.078125-49.980469-35.796875-79.832031zm30.757813-99.398438 8.304687 21.601563c10.585937 27.449219 32.285156 49.148437 59.734375 59.734375l15.691406 6.03125-15.363281 6.824219c-22.757813 10.09375-48.71875 10.09375-71.476563 0l-28-12.449219c.992188-29.949219 11.9375-58.710938 31.109376-81.742188zm191.441406-17.785156-21.601563 8.296875c-27.453125 10.578125-49.152343 32.277344-59.734375 59.726563l-6.03125 15.699218-6.808594-15.335937c-10.101562-22.757813-10.101562-48.726563 0-71.480469l12.414063-27.953125c29.9375 1.019531 58.695313 11.9375 81.761719 31.046875zm48.574218 92-21.144531-9.398437c-26.898437-11.917969-57.578125-11.917969-84.476562 0l-15.363281 6.832031 6.035156-15.6875c8.953125-23.230469 27.3125-41.589844 50.542968-50.546875l28.609376-11c20.480468 21.886719 33.082031 49.980469 35.796874 79.832031zm-157.367187-101.613281c-11.9375 26.894531-11.9375 57.582031 0 84.476563l6.824219 15.355468-15.6875-6.035156c-23.230469-8.953125-41.59375-27.316406-50.542969-50.550781l-11-28.59375c21.902344-20.414063 49.960937-32.988281 79.773437-35.75zm44 228.476563c11.9375-26.894532 11.9375-57.582032 0-84.476563l-6.824219-15.363281 15.6875 6.035156c23.210938 8.957031 41.554688 27.308594 50.503906 50.527344l11 28.597656c-21.90625 20.421875-49.964843 32.996094-79.78125 35.761719zm74.34375-49.007813c-10.585937-27.453125-32.28125-49.148437-59.734375-59.734375l-15.6875-6.03125 15.359375-6.832031c22.757813-10.09375 48.722656-10.09375 71.480469 0l28 12.453125c-.996094 29.953125-11.945313 58.714844-31.121094 81.746094zm204.824219 235.953125c-6.332032 6.046875-16.300782 6.046875-22.632813 0l-183-183.023438c4.101563-3.316406 8.03125-6.84375 11.769531-10.566406l.078126-.066406.074218-.070312c3.769532-3.789063 7.34375-7.769532 10.703125-11.929688l183.007813 183.03125c6.246094 6.25 6.246094 16.378906 0 22.625zm0 0"/></svg>