<svg height="480pt" viewBox="0 0 480 480.00012" width="480pt" xmlns="http://www.w3.org/2000/svg"><path d="m479.960938 472v-288c0-.167969-.066407-.335938-.074219-.503906-.03125-.625-.136719-1.246094-.3125-1.847656.003906-.054688.003906-.105469 0-.160157-.070313-.207031-.207031-.367187-.292969-.566406-.195312-.488281-.441406-.957031-.730469-1.394531-.179687-.246094-.371093-.480469-.582031-.703125-.507812-.617188-1.121094-1.136719-1.808594-1.542969-.207031-.128906-.382812-.304688-.609375-.417969-.222656-.109375-.414062-.121093-.613281-.199219-.765625-.316406-1.574219-.5-2.402344-.542968-.183594 0-.351562-.089844-.542968-.089844h-40.03125v-168.03125c0-4.417969-3.582032-8-8-8h-368c-4.417969 0-8 3.582031-8 8v168h-40c-.175782 0-.328126.070312-.503907.078125-.519531.027344-1.035156.113281-1.535156.25-.308594.078125-.605469.175781-.898437.296875-.207032.078125-.421876.109375-.625.207031-.199219.097657-.398438.289063-.605469.414063-.6875.40625-1.300781.929687-1.808594 1.546875-.210937.21875-.40625.457031-.585937.703125-.285157.4375-.53125.90625-.726563 1.390625-.085937.203125-.222656.359375-.296875.570312-.003906.050781-.003906.105469 0 .160157-.171875.605468-.2773438 1.230468-.3125 1.863281 0 .160156-.0625.328125-.0625.488281v288.03125c-.00390625.855469.132812 1.707031.40625 2.519531 0 .121094.121094.199219.160156.3125.128906.273438.269532.542969.425782.800781.292968.574219.652343 1.109376 1.070312 1.597657.222656.25.460938.480469.714844.699219.484375.417968 1.023437.777343 1.597656 1.0625.257812.152343.527344.292968.800781.414062.886719.363281 1.828125.5625 2.785157.59375h464c1.28125.007812 2.542968-.332031 3.648437-.984375.574219-.285156 1.113281-.644531 1.597656-1.0625.253907-.214844.492188-.449219.714844-.695313.417969-.488281.773437-1.027343 1.0625-1.601562.164063-.253906.308594-.523438.433594-.800781.039062-.113281.117187-.199219.15625-.3125.269531-.820313.398437-1.679688.386719-2.542969zm-16-271.886719v255.773438l-168.59375-127.886719zm-15.792969-8.113281-16.207031 12.289062v-12.289062zm-384.207031-176h352v200.433594l-176 133.519531-176-133.519531zm120.589843 312-168.589843 127.886719v-255.773438zm-136.589843-136v12.289062l-16.207032-12.289062zm-16.21875 272 166.050781-125.953125 37.367187 28.351563c2.855469 2.167968 6.804688 2.167968 9.664063 0l37.335937-28.328126 166.015625 125.929688zm0 0"/><path d="m220.046875 202.847656-3.925781 19.550782c-.480469 2.355468.121094 4.800781 1.640625 6.660156 1.519531 1.863281 3.796875 2.941406 6.199219 2.941406h8v4.6875l-12.945313 12.914062c-5.632813 5.628907-8.105469 13.6875-6.597656 21.507813 1.503906 7.820313 6.789062 14.386719 14.109375 17.523437l12.5625 5.375c2.441406 1.046876 4.203125 3.234376 4.707031 5.84375.5 2.609376-.324219 5.296876-2.203125 7.171876l-7.289062 7.289062c-2.082032 2.007812-2.914063 4.984375-2.183594 7.78125.734375 2.796875 2.917968 4.980469 5.714844 5.710938 2.796874.734374 5.773437-.101563 7.78125-2.179688l7.285156-7.289062c5.632812-5.628907 8.105468-13.6875 6.601562-21.507813s-6.792968-14.386719-14.113281-17.523437l-12.558594-5.375c-2.441406-1.046876-4.207031-3.238282-4.707031-5.84375-.503906-2.609376.324219-5.296876 2.203125-7.175782l15.289063-15.285156c1.492187-1.492188 2.335937-3.515625 2.34375-5.625v-8h8c2.402343 0 4.675781-1.078125 6.195312-2.941406 1.519531-1.859375 2.125-4.304688 1.644531-6.660156l-3.929687-19.589844c31.570312-16.410156 52.089844-68.410156 52.089844-98.808594 0-39.765625-32.234376-72-72-72-39.765626 0-72 32.234375-72 72 0 30.441406 20.574218 82.550781 52.085937 98.847656zm13.679687 13.152344 1.65625-8.265625c3.042969.363281 6.113282.363281 9.152344 0l1.65625 8.265625zm6.234376-168c30.910156.039062 55.960937 25.089844 56 56 0 30.886719-22.503907 77.816406-47.945313 86.558594-3.875 1.425781-8.054687 1.792968-12.121094 1.074218-1.402343-.253906-2.785156-.628906-4.125-1.121093-25.304687-8.695313-47.808593-55.625-47.808593-86.511719.039062-30.910156 25.085937-55.960938 56-56zm0 0"/><path d="m239.960938 80c13.253906 0 24 10.746094 24 24 0 4.417969 3.582031 8 8 8 4.417968 0 8-3.582031 8-8-.027344-22.082031-17.921876-39.972656-40-40-4.417969 0-8 3.582031-8 8s3.582031 8 8 8zm0 0"/></svg>