<svg height="483pt" viewBox="0 -1 483.98147 483" width="483pt" xmlns="http://www.w3.org/2000/svg"><path d="m232.78125 127.492188-139.085938-37.273438c-4.269531-1.144531-8.65625 1.386719-9.800781 5.65625l-31.054687 115.910156c-10.636719 39.6875 10.519531 80.980469 48.941406 95.53125l-37.375 139.46875-54.09375-14.488281c-2.796875-.839844-5.828125-.097656-7.910156 1.945313-2.085938 2.042968-2.890625 5.058593-2.105469 7.867187.785156 2.8125 3.035156 4.972656 5.878906 5.636719l123.640625 33.128906c.675782.179688 1.371094.269531 2.070313.273438 4.015625-.003907 7.40625-2.980469 7.929687-6.960938.519532-3.980469-1.988281-7.730469-5.867187-8.769531l-54.085938-14.488281 37.398438-139.597657c40.601562 7.066407 79.820312-18.234375 90.121093-58.136719l31.0625-115.90625c1.144532-4.269531-1.390624-8.65625-5.664062-9.796874zm-135.46875-19.753907 123.636719 33.136719-9.101563 33.96875-32.234375 9.648438c-15.371093 4.398437-31.898437 1.902343-45.285156-6.839844-15.597656-10.40625-34.738281-14.066406-53.074219-10.144532zm16.261719 186.578125c-34.148438-9.148437-54.414063-44.253906-45.253907-78.402344l8.191407-30.625 4.261719-1.222656c15.1875-4.367187 31.527343-1.824218 44.664062 6.960938 11.5 7.660156 25.015625 11.730468 38.832031 11.703125 6.773438.027343 13.515625-.949219 20-2.894531l22.699219-6.816407-15.019531 56c-9.183594 34.125-44.253907 54.386719-78.40625 45.296875zm0 0"/><path d="m483.710938 437.953125c-1.144532-4.261719-5.527344-6.792969-9.792969-5.65625l-54.09375 14.488281-37.386719-139.46875c38.425781-14.550781 59.582031-55.84375 48.945312-95.53125l-31.054687-115.910156c-1.144531-4.269531-5.53125-6.800781-9.800781-5.65625l-139.089844 37.273438c-4.269531 1.140624-6.808594 5.527343-5.664062 9.796874l31.066406 115.90625c10.300781 39.902344 49.519531 65.203126 90.117187 58.136719l37.402344 139.597657-54.089844 14.488281c-3.875 1.039062-6.382812 4.789062-5.863281 8.769531.523438 3.980469 3.914062 6.957031 7.929688 6.960938.699218-.003907 1.394531-.09375 2.070312-.273438l123.640625-33.128906c4.269531-1.140625 6.804687-5.523438 5.664063-9.792969zm-96.800782-330.214844 14.28125 53.28125-7.242187-1.601562c-5.757813-1.3125-11.644531-1.96875-17.550781-1.960938-15.828126-.023437-31.300782 4.679688-44.441407 13.503907-12.8125 8.527343-28.269531 12.164062-43.542969 10.242187l-14.832031-1.832031-10.3125-38.488282zm-94.625 141.3125-14.175781-53.015625 8.386719 1.03125c19.082031 2.398438 38.386718-2.144531 54.398437-12.800781 14.59375-9.6875 32.5-13.023437 49.601563-9.230469l15.4375 3.441406 10.050781 37.46875c9.144531 34.144532-11.121094 69.238282-45.265625 78.386719-34.144531 9.144531-69.238281-11.121093-78.382812-45.265625zm0 0"/><path d="m250.109375 56.492188v-48c0-4.417969-3.582031-8-8-8s-8 3.582031-8 8v48c0 4.417968 3.582031 8 8 8s8-3.582032 8-8zm0 0"/><path d="m195.183594 71.210938c1.417968 2.496093 4.066406 4.039062 6.9375 4.046874 2.871094.003907 5.523437-1.527343 6.953125-4.015624 1.429687-2.492188 1.417969-5.554688-.035157-8.03125l-24-41.601563c-1.417968-2.496094-4.066406-4.039063-6.9375-4.042969-2.871093-.007812-5.523437 1.523438-6.953124 4.015625-1.429688 2.488281-1.417969 5.550781.035156 8.027344zm0 0"/><path d="m278.109375 74.140625c3.828125 2.207031 8.71875.894531 10.929687-2.929687l24-41.601563c1.453126-2.476563 1.464844-5.539063.035157-8.027344-1.429688-2.492187-4.082031-4.023437-6.953125-4.015625-2.871094.003906-5.519532 1.546875-6.9375 4.042969l-24 41.601563c-2.210938 3.824218-.898438 8.71875 2.925781 10.929687zm0 0"/></svg>