<svg height="480pt" viewBox="-92 0 480 480.02809" width="480pt" xmlns="http://www.w3.org/2000/svg"><path d="m112.640625 253.628906c-1.160156-4.414062-1.796875-8.949218-1.894531-13.511718-.183594-4.378907-3.785156-7.832032-8.167969-7.832032-2.121094.042969-4.140625.929688-5.609375 2.464844-1.46875 1.53125-2.269531 3.585938-2.222656 5.710938.117187 5.828124.921875 11.625 2.398437 17.261718.929688 3.507813 4.101563 5.949219 7.730469 5.953125.691406 0 1.382812-.089843 2.054688-.265625 2.058593-.535156 3.816406-1.871094 4.886718-3.703125 1.070313-1.835937 1.367188-4.023437.824219-6.078125zm0 0"/><path d="m168.074219 296.027344c-3.132813 0-6.261719-.265625-9.351563-.800782-13.65625-2.191406-26.050781-9.253906-34.894531-19.886718-1.796875-2.289063-4.691406-3.421875-7.5625-2.960938-2.871094.460938-5.269531 2.445313-6.257813 5.179688-.988281 2.734375-.414062 5.789062 1.5 7.980468 14.035157 16.726563 34.730469 26.417969 56.566407 26.488282 4.417969 0 8-3.582032 8-8 0-4.417969-3.582031-8-8-8zm0 0"/><path d="m288.074219.0273438h-36.304688c-10.472656-.0390626-19.75 6.7382812-22.894531 16.7304682l-22.648438 71.269532h-14.542968c-4.046875-48.550782-43.820313-86.375-92.515625-87.9765628-48.695313-1.6015622-90.867188 33.5273438-98.09375 81.7109378-7.226563 48.179687 22.785156 94.136719 69.808593 106.890625l-7.777343 42.167968c-.046875.304688-.085938.609376-.109375.917969-3.640625 51.472657 30.777344 97.914063 81.078125 109.410157v99.199218c-20 1.484375-39.375 7.617188-56.582031 17.914063l-11.523438 6.886719c-3.101562 1.839843-4.585938 5.53125-3.628906 9.007812.960937 3.476562 4.128906 5.882812 7.734375 5.871094h176c3.597656 0 6.75-2.402344 7.707031-5.871094.957031-3.464844-.515625-7.144531-3.601562-8.992188l-11.519532-6.886718c-17.210937-10.296875-36.585937-16.429688-56.585937-17.914063v-99.199219c50.320312-11.484374 84.753906-57.941406 81.105469-109.425781 0-.300781-.066407-.613281-.113282-.917969l-25.128906-136.25c-.699219-3.789062-4.007812-6.542968-7.863281-6.542968h-17.054688l21.136719-66.398438c1.042969-3.328125 4.125-5.59375 7.613281-5.601562h36.304688c4.417969 0 8-3.582032 8-8 0-4.417969-3.582031-8.0000002-8-8.0000002zm-198.582031 176.0000002 13.246093-72h98.398438l-22.902344 72zm-55.378907-29.351563c-9.976562-12.152343-16.121093-26.996093-17.648437-42.648437h60.296875zm0-101.296875 42.648438 42.648438h-60.296875c1.527344-15.652344 7.667968-30.496094 17.648437-42.648438zm69.960938-28.957031c15.652343 1.519531 30.496093 7.664063 42.648437 17.644531l-42.648437 42.648438zm-16 60.292969-42.648438-42.648438c12.152344-9.980468 26.996094-16.125 42.648438-17.644531zm27.3125 11.3125 42.625-42.625c9.988281 12.140625 16.140625 26.980468 17.671875 42.625zm-69.886719 69.890625 38.046875-38.050781-9.777344 53.007812c-10.339843-3.011719-19.960937-8.101562-28.269531-14.957031zm178.804688 306.109375h-112.460938c12.832031-5.125 26.5-7.835938 40.320312-8 4.382813-.046875 7.910157-3.613282 7.910157-8v-104.3125c2.082031.160156 4.144531.203125 6.214843.242187.59375 0 1.195313.070313 1.785157.070313.59375 0 1.175781-.0625 1.761719-.070313 2.078124-.039062 4.160156-.082031 6.238281-.242187v104.3125c0 4.386718 3.527343 7.953125 7.914062 8 13.816407.164062 27.484375 2.875 40.316407 8zm-41.519532-137.253906h-.046875c-7.265625 1.238281-14.65625 1.550781-22 .925781-2.453125-.207031-4.910156-.519531-7.375-.933594-45.226562-7.300781-77.476562-47.808594-74.457031-93.523437l7.566406-41.214844h163.203125l7.597657 41.226562c3.019531 45.722656-29.246094 86.234375-74.488282 93.519532zm50.625-222.746094 13.28125 72h-51.671875l22.902344-72zm0 0"/></svg>