<svg height="482pt" viewBox="0 0 482 482.5241" width="482pt" xmlns="http://www.w3.org/2000/svg"><path d="m189.269531 123.796875c-8.53125-8.585937-22.125-9.460937-31.683593-2.035156-9.558594 7.421875-12.078126 20.8125-5.871094 31.203125l-20.558594 43.453125-22.398438 47.28125-59.882812 126.367187-14.078125 29.695313v.066406l-33.769531 71.277344c-1.441406 3.058593-.808594 6.6875 1.578125 9.078125 2.390625 2.386718 6.023437 3.015625 9.078125 1.570312l165.34375-78.320312 54.089844-25.597656.085937-.066407 33.890625-16.054687 12.320312-5.839844 52.382813-24.800781c10.386719 6.15625 23.734375 3.621093 31.140625-5.917969 7.402344-9.535156 6.554688-23.09375-1.980469-31.632812zm-30.234375 84.855469c.007813 17.34375-13.804687 31.535156-31.144531 32l24.441406-51.59375c4.363281 5.597656 6.722657 12.496094 6.703125 19.59375zm-79.367187 133.824218c.730469.613282 1.441406 1.261719 2.121093 1.941407 9.933594 9.941406 12.222657 25.199219 5.636719 37.617187-6.585937 12.414063-20.5 19.082032-34.300781 16.433594l7.960938-16.800781zm-33.511719 70.695313c21.003906 5.933594 43.367188-3.066406 54.40625-21.894531 11.042969-18.828125 7.976562-42.734375-7.453125-58.171875-1.996094-1.984375-4.160156-3.792969-6.464844-5.40625l33.871094-71.488281c14.871094 2.03125 29.839844-3 40.464844-13.601563 18.738281-18.742187 18.738281-49.125 0-67.871094-.414063-.414062-.871094-.800781-1.304688-1.199219l3.671875-7.753906 153.65625 153.632813-9.03125 4.273437c-8.046875-14.976562-26.421875-21.015625-41.785156-13.734375s-22.324219 25.324219-15.832031 41.039063l-19.320313 9.152344c-15-24.144532-45.730468-33.1875-71.417968-21.019532-25.6875 12.171875-38.152344 41.675782-28.972657 68.578125l-105.585937 50zm218.601562-68.984375c-2.582031-7.066406.109376-14.972656 6.457032-19 6.351562-4.027344 14.652344-3.089844 19.941406 2.253906.921875.933594 1.726562 1.972656 2.398438 3.097656l-13.007813 6.167969zm-111.203124 52.648438-8.390626 4c-5.5-18.867188 3.515626-38.9375 21.277344-47.347657 17.761719-8.414062 39.003906-2.679687 50.113282 13.53125zm194.105468-80.703126c-3.160156 3.023438-8.140625 3.023438-11.304687 0l-169.710938-169.699218c-3.125-3.121094-3.128906-8.1875-.003906-11.316406 3.125-3.125 8.191406-3.125 11.316406-.003907l169.703125 169.714844c3.117188 3.121094 3.117188 8.179687 0 11.304687zm0 0"/><path d="m217.554688 308.539062c15.269531.003907 28.410156-10.777343 31.390624-25.75 2.984376-14.972656-5.027343-29.96875-19.128906-35.8125-14.105468-5.84375-30.375-.914062-38.855468 11.78125-8.484376 12.691407-6.820313 29.609376 3.972656 40.40625 5.984375 6.023438 14.132812 9.398438 22.621094 9.375zm-11.316407-43.320312c4.015625-4.160156 9.964844-5.828125 15.558594-4.363281 5.59375 1.464843 9.960937 5.832031 11.425781 11.425781 1.464844 5.597656-.203125 11.542969-4.363281 15.5625-6.332031 6.039062-16.289063 6.039062-22.621094 0-6.246093-6.25-6.246093-16.375 0-22.625zm0 0"/><path d="m149.667969 321.796875c8.101562-8.097656 9.351562-20.785156 2.996093-30.304687-6.359374-9.523438-18.5625-13.226563-29.140624-8.847657-10.578126 4.378907-16.589844 15.621094-14.359376 26.851563 2.230469 11.230468 12.085938 19.320312 23.535157 19.324218 6.371093.015626 12.480469-2.515624 16.96875-7.035156zm-24.96875-16.976563c0-3.621093 2.433593-6.792968 5.929687-7.730468 3.5-.9375 7.1875.589844 9 3.726562 1.808594 3.136719 1.289063 7.097656-1.273437 9.660156-3.121094 3.121094-8.1875 3.121094-11.3125 0-1.507813-1.496093-2.351563-3.535156-2.34375-5.65625zm0 0"/><path d="m388.132812 96.417969h-14.449218c-29.46875-.09375-55.988282 17.863281-66.847656 45.257812l-15.910157 39.765625c-1.644531 4.105469.351563 8.765625 4.453125 10.410156 4.105469 1.644532 8.765625-.351562 10.410156-4.457031l15.902344-39.777343c8.445313-21.308594 29.078125-35.277344 52-35.199219h14.449219c26.617187-.003907 51.0625-14.695313 63.558594-38.199219l29.855469-62.34375c1.441406-2.597656 1.320312-5.777344-.304688-8.261719-1.628906-2.484375-4.5-3.859375-7.453125-3.5781248-2.957031.2851558-5.511719 2.1796878-6.640625 4.9296878l-29.710938 62.007812c-9.757812 18.148438-28.707031 29.464844-49.3125 29.445313zm0 0"/><path d="m235.460938 135.132812c-.203126 4.414063 3.210937 8.15625 7.625 8.359376h.375c4.277343.003906 7.804687-3.359376 8-7.632813l1.734374-37.695313c.144532-20.605468 11.605469-39.460937 29.824219-49.082031l12.800781-6.75c12.867188-6.78125 23.363282-17.3125 30.105469-30.199219 1.367188-2.535156 1.265625-5.609374-.265625-8.050781-1.53125-2.4375-4.253906-3.867187-7.132812-3.738281-2.875.125-5.460938 1.789062-6.769532 4.355469-5.246093 10.023437-13.410156 18.214843-23.417968 23.488281l-12.800782 6.75c-23.351562 12.292969-38.078124 36.40625-38.34375 62.792969zm0 0"/><path d="m474.355469 168.417969h-15.277344c-18.199219-.0625-34.847656 10.230469-42.929687 26.535156l-9.894532 19.777344c-5.382812 10.875-16.484375 17.734375-28.617187 17.6875h-23.28125c-4.417969 0-8 3.582031-8 8s3.582031 8 8 8h23.28125c18.199219.0625 34.847656-10.230469 42.929687-26.535157l9.894532-19.777343c5.382812-10.871094 16.484374-17.734375 28.617187-17.6875h15.277344c4.417969 0 8-3.582031 8-8s-3.582031-8-8-8zm0 0"/><path d="m378.355469 72.417969c13.257812 0 24-10.742188 24-24 0-13.253907-10.742188-24-24-24-13.253907 0-24 10.746093-24 24 0 13.257812 10.746093 24 24 24zm0-32c4.417969 0 8 3.582031 8 8s-3.582031 8-8 8-8-3.582031-8-8 3.582031-8 8-8zm0 0"/><path d="m338.355469 184.417969c0 13.257812 10.746093 24 24 24 13.257812 0 24-10.742188 24-24 0-13.253907-10.742188-24-24-24-13.253907 0-24 10.746093-24 24zm32 0c0 4.417969-3.582031 8-8 8s-8-3.582031-8-8 3.582031-8 8-8 8 3.582031 8 8zm0 0"/><path d="m218.355469 64.417969c13.257812 0 24-10.742188 24-24 0-13.253907-10.742188-24-24-24-13.253907 0-24 10.746093-24 24 0 13.257812 10.746093 24 24 24zm0-32c4.417969 0 8 3.582031 8 8s-3.582031 8-8 8-8-3.582031-8-8 3.582031-8 8-8zm0 0"/><path d="m304.011719 102.074219c3.03125-3.136719 2.988281-8.128907-.097657-11.214844-3.085937-3.085937-8.074218-3.128906-11.214843-.097656l-8 8c-2.078125 2.011719-2.914063 4.984375-2.179688 7.78125.730469 2.796875 2.914063 4.980469 5.714844 5.714843 2.796875.730469 5.769531-.101562 7.777344-2.183593zm0 0"/><path d="m402.355469 272.417969h-16c-4.417969 0-8 3.582031-8 8s3.582031 8 8 8h16c4.417969 0 8-3.582031 8-8s-3.582031-8-8-8zm0 0"/><path d="m444.699219 250.761719-8 8c-2.078125 2.011719-2.914063 4.984375-2.179688 7.78125.730469 2.796875 2.914063 4.980469 5.714844 5.714843 2.796875.730469 5.769531-.101562 7.777344-2.183593l8-8c3.03125-3.136719 2.988281-8.128907-.097657-11.214844-3.085937-3.085937-8.074218-3.128906-11.214843-.097656zm0 0"/><path d="m422.78125 137.257812-16 8c-3.953125 1.976563-5.558594 6.78125-3.585938 10.738282 1.976563 3.953125 6.78125 5.558594 10.738282 3.582031l16-8c3.953125-1.972656 5.558594-6.78125 3.582031-10.734375-1.972656-3.953125-6.78125-5.558594-10.734375-3.585938zm0 0"/><path d="m202.355469 88.417969v8c0 4.417969 3.582031 8 8 8s8-3.582031 8-8v-8c0-4.417969-3.582031-8-8-8s-8 3.582031-8 8zm0 0"/><path d="m316.675781 58.738281c-2.308593 2.289063-3 5.746094-1.753906 8.75 1.246094 3 4.183594 4.949219 7.433594 4.929688.507812-.011719 1.015625-.066407 1.511719-.160157.535156-.074218 1.050781-.234374 1.53125-.480468.507812-.175782.992187-.417969 1.4375-.71875.417968-.296875.820312-.617188 1.199218-.960938 3.136719-3.136718 3.136719-8.222656 0-11.359375-3.136718-3.136719-8.222656-3.136719-11.359375 0zm0 0"/><path d="m269.867188 15.058594c.449218.300781.9375.542968 1.449218.71875.476563.246094.992188.40625 1.519532.480468.503906.09375 1.011718.148438 1.519531.160157.507812-.011719 1.015625-.066407 1.511719-.160157.535156-.074218 1.050781-.234374 1.53125-.480468.488281-.160156.949218-.402344 1.359374-.71875.425782-.28125.828126-.601563 1.199219-.960938 2.351563-2.25 3.050781-5.730468 1.757813-8.71875-.382813-1-.984375-1.898437-1.757813-2.640625-.371093-.355469-.773437-.675781-1.199219-.960937-.410156-.3125-.871093-.558594-1.359374-.71875-.480469-.242188-.996094-.40625-1.53125-.480469-.996094-.238281-2.035157-.238281-3.03125 0-.527344.074219-1.042969.238281-1.519532.480469-.511718.175781-1 .417968-1.449218.71875l-1.191407.960937c-3.09375 3.15625-3.09375 8.207031 0 11.359375zm0 0"/><path d="m278.757812 145.777344c-.410156-.3125-.871093-.558594-1.359374-.71875-.480469-.242188-.996094-.40625-1.53125-.480469-.996094-.238281-2.035157-.238281-3.03125 0-.527344.074219-1.042969.238281-1.519532.480469-.511718.175781-1 .417968-1.449218.71875-.414063.300781-.8125.621094-1.191407.960937-3.09375 3.15625-3.09375 8.207031 0 11.359375l1.191407.960938c.449218.300781.9375.542968 1.449218.71875.476563.246094.992188.40625 1.519532.480468.503906.09375 1.011718.148438 1.519531.160157.507812-.011719 1.015625-.066407 1.511719-.160157.535156-.074218 1.050781-.234374 1.53125-.480468.488281-.160156.949218-.402344 1.359374-.71875.425782-.28125.828126-.601563 1.199219-.960938 1.515625-1.503906 2.375-3.542968 2.398438-5.679687-.011719-1.042969-.230469-2.078125-.640625-3.039063-.382813-1-.984375-1.898437-1.757813-2.640625-.371093-.355469-.773437-.675781-1.199219-.960937zm0 0"/><path d="m460.675781 122.738281c-.707031.777344-1.273437 1.671875-1.679687 2.640625-.851563 1.9375-.851563 4.144532 0 6.082032.40625.96875.972656 1.859374 1.679687 2.636718 1.523438 1.476563 3.558594 2.308594 5.679688 2.320313 2.117187-.03125 4.148437-.859375 5.679687-2.320313.707032-.777344 1.277344-1.667968 1.679688-2.636718.855468-1.9375.855468-4.144532 0-6.082032-.402344-.96875-.972656-1.863281-1.679688-2.640625-3.207031-2.960937-8.152344-2.960937-11.359375 0zm0 0"/><path d="m426.355469 24.417969c2.128906.023437 4.175781-.8125 5.683593-2.316407 1.503907-1.507812 2.339844-3.554687 2.316407-5.683593-.03125-2.117188-.859375-4.144531-2.320313-5.679688-3.207031-2.960937-8.152344-2.960937-11.359375 0-3.09375 3.15625-3.09375 8.207031 0 11.359375 1.535157 1.464844 3.5625 2.292969 5.679688 2.320313zm0 0"/><path d="m316.675781 202.738281c-2.308593 2.289063-3 5.746094-1.753906 8.75 1.246094 3 4.183594 4.949219 7.433594 4.929688.507812-.011719 1.015625-.066407 1.511719-.160157.535156-.074218 1.050781-.234374 1.53125-.480468.507812-.175782.992187-.417969 1.4375-.71875l1.199218-.960938c3.136719-3.136718 3.136719-8.222656 0-11.359375-3.136718-3.136719-8.222656-3.136719-11.359375 0zm0 0"/><path d="m472.035156 210.738281c-3.207031-2.960937-8.152344-2.960937-11.359375 0-.707031.777344-1.273437 1.671875-1.679687 2.640625-.851563 1.9375-.851563 4.144532 0 6.082032.40625.96875.972656 1.859374 1.679687 2.636718 1.523438 1.476563 3.558594 2.308594 5.679688 2.320313 2.117187-.03125 4.148437-.859375 5.679687-2.320313.707032-.777344 1.277344-1.667968 1.679688-2.636718.855468-1.9375.855468-4.144532 0-6.082032-.402344-.96875-.972656-1.863281-1.679688-2.640625zm0 0"/></svg>