<svg height="480pt" viewBox="-8 0 480 480.06041" width="480pt" xmlns="http://www.w3.org/2000/svg"><path d="m464.011719 104.058594c.042969-11.570313-8.175781-21.523438-19.542969-23.671875-11.371094-2.148438-22.652344 4.121093-26.835938 14.910156-4.179687 10.789063-.070312 23.023437 9.777344 29.097656l-50.09375 73.945313-38.90625-112.734375c10.09375-4.855469 15.492188-16.042969 13-26.964844-2.488281-10.917969-12.199218-18.664063-23.398437-18.664063s-20.910157 7.746094-23.398438 18.664063c-2.488281 10.921875 2.90625 22.109375 13 26.964844l-36.21875 103.878906-39.496093-143.617187c10.304687-4.65625 15.957031-15.871094 13.574218-26.925782-2.382812-11.050781-12.15625-18.941406-23.460937-18.941406-11.304688 0-21.078125 7.890625-23.460938 18.941406-2.382812 11.054688 3.273438 22.269532 13.574219 26.925782l-39.097656 142.839843-36.574219-103.132812c10.085937-4.863281 15.46875-16.050781 12.976563-26.964844-2.492188-10.914063-12.203126-18.65625-23.398438-18.65625s-20.902344 7.742187-23.398438 18.65625c-2.492187 10.914063 2.894532 22.101563 12.980469 26.964844l-39.328125 112.75-49.707031-73.910157c9.589844-5.882812 13.804687-17.632812 10.144531-28.269531s-14.214844-17.300781-25.390625-16.039062c-11.179687 1.265625-19.976562 10.125-21.167969 21.308593-1.1875 11.1875 5.546876 21.695313 16.207032 25.285157l15.257812 274.617187c-13.902344 3.757813-23.570312 16.34375-23.617187 30.742188v16c0 17.675781 14.328125 32 32 32h384c17.671875 0 32-14.324219 32-32v-16c-.046875-14.398438-9.714844-26.984375-23.617188-30.742188l15.257813-274.617187c9.734375-3.269531 16.3125-12.367188 16.359375-22.640625zm-24-8c4.417969 0 8 3.582031 8 8 0 4.421875-3.582031 8-8 8s-8-3.578125-8-8c0-4.417969 3.582031-8 8-8zm-399.710938 172.960937 19.039063 19.039063-17.03125 17.035156zm381.421875 36.082031-17.039062-17.042968 19.039062-19.046875zm-93.710937-249.042968c4.417969 0 8 3.582031 8 8 0 4.421875-3.582031 8-8 8s-8-3.578125-8-8c0-4.417969 3.582031-8 8-8zm-96-40c4.417969 0 8 3.582031 8 8 0 4.421875-3.582031 8-8 8s-8-3.578125-8-8c0-4.417969 3.582031-8 8-8zm-96 40c4.417969 0 8 3.582031 8 8 0 4.421875-3.582031 8-8 8s-8-3.578125-8-8c0-4.417969 3.582031-8 8-8zm-46.398438 167.9375c3.003907-.382813 5.535157-2.433594 6.535157-5.296875l39.945312-114.527344 40.398438 113.921875c1.113281 3.335938 4.320312 5.515625 7.832031 5.320312 3.492187-.128906 6.5-2.511718 7.421875-5.882812l40.265625-147.230469 40.800781 148.199219c.925781 3.378906 3.941406 5.761719 7.441406 5.878906 3.496094.152344 6.667969-2.039062 7.757813-5.367187l40-114.542969 39.441406 114.199219c.988281 2.863281 3.507813 4.921875 6.511719 5.320312 3 .398438 5.972656-.933593 7.671875-3.441406l48.800781-72.078125-5.371094 96.589844-37.34375 37.347656c-3.121094 3.121094-3.121094 8.1875 0 11.308594l32.800782 32.800781-1.414063 25.542969h-374.195313l-1.414062-25.527344 32.800781-32.800781c3.121094-3.121094 3.121094-8.1875 0-11.308594l-37.328125-37.351563-5.359375-96.394531 48.320313 71.847657c1.691406 2.523437 4.667968 3.867187 7.679687 3.472656zm328.605469 144.0625-1.773438 32h-368.867187l-1.773437-32zm-394.207031-272c4.417969 0 8 3.582031 8 8 0 4.421875-3.582031 8-8 8s-8-3.578125-8-8c0-4.417969 3.582031-8 8-8zm416 336v16c0 8.839844-7.164063 16-16 16h-384c-8.835938 0-16-7.160156-16-16v-16c0-8.835938 7.164062-16 16-16h384c8.835937 0 16 7.164062 16 16zm0 0"/><path d="m225.109375 330.730469c1.433594 2.453125 4.0625 3.960937 6.902344 3.960937 2.839843 0 5.46875-1.507812 6.902343-3.960937l22.625-38.628907c1.460938-2.496093 1.460938-5.585937 0-8.082031l-22.625-38.632812c-1.546874-2.292969-4.132812-3.667969-6.902343-3.667969s-5.355469 1.375-6.902344 3.667969l-22.625 38.632812c-1.460937 2.496094-1.460937 5.585938 0 8.082031zm6.902344-65.46875 13.351562 22.796875-13.351562 22.800781-13.351563-22.800781zm0 0"/><path d="m321.109375 330.730469c1.433594 2.453125 4.0625 3.960937 6.902344 3.960937 2.839843 0 5.46875-1.507812 6.902343-3.960937l22.625-38.628907c1.460938-2.496093 1.460938-5.585937 0-8.082031l-22.625-38.632812c-1.546874-2.292969-4.132812-3.667969-6.902343-3.667969s-5.355469 1.375-6.902344 3.667969l-22.625 38.632812c-1.460937 2.496094-1.460937 5.585938 0 8.082031zm6.902344-65.46875 13.351562 22.796875-13.351562 22.800781-13.351563-22.800781zm0 0"/><path d="m129.109375 330.730469c1.433594 2.453125 4.0625 3.960937 6.902344 3.960937 2.839843 0 5.46875-1.507812 6.902343-3.960937l22.625-38.628907c1.460938-2.496093 1.460938-5.585937 0-8.082031l-22.625-38.632812c-1.546874-2.292969-4.132812-3.667969-6.902343-3.667969s-5.355469 1.375-6.902344 3.667969l-22.625 38.632812c-1.460937 2.496094-1.460937 5.585938 0 8.082031zm6.902344-65.46875 13.351562 22.796875-13.351562 22.800781-13.351563-22.800781zm0 0"/></svg>