<svg height="479pt" viewBox="-71 0 479 479.69926" width="479pt" xmlns="http://www.w3.org/2000/svg"><path d="m312.351562 279.699219h-10.234374c-10.089844-55.925781-53.847657-99.703125-109.765626-109.824219v-50.175781c0-4.417969-3.582031-8-8-8h-32c-4.421874 0-8 3.582031-8 8v50.175781c-55.917968 10.097656-99.664062 53.894531-109.699218 109.824219h-10.300782c-13.257812 0-24 10.746093-24 24 0 13.253906 10.742188 24 24 24h1.511719l25.308594 120.238281c3.960937 18.476562 20.253906 31.695312 39.144531 31.761719h156.066406c18.890626-.066407 35.183594-13.285157 39.144532-31.761719l25.308594-120.238281h1.515624c13.253907 0 24-10.746094 24-24 0-13.253907-10.746093-24-24-24zm-152-152h16v40.375c-2.65625-.160157-5.304687-.375-8-.375-2.699218 0-5.347656.214843-8 .375zm8 56c38.277344.0625 74.234376 18.375 96.796876 49.296875-6.085938-6.03125-14.332032-9.378906-22.902344-9.296875-8.921875-.03125-17.472656 3.5625-23.6875 9.960937-3.3125 3.835938-8.132813 6.042969-13.199219 6.042969-5.070313 0-9.890625-2.207031-13.203125-6.042969-6.238281-6.371094-14.78125-9.957031-23.699219-9.957031s-17.457031 3.585937-23.699219 9.957031c-3.320312 3.839844-8.148437 6.046875-13.226562 6.046875-5.082031 0-9.90625-2.207031-13.230469-6.046875-6.230469-6.398437-14.789062-9.992187-23.71875-9.960937-8.695312-.070313-17.050781 3.347656-23.199219 9.496093 22.546876-31.054687 58.589844-49.453124 96.96875-49.496093zm-109.921874 71.953125c8.640624-.1875 16.863281-3.742188 22.921874-9.90625 3.324219-3.839844 8.152344-6.046875 13.234376-6.046875 5.082031 0 9.910156 2.207031 13.234374 6.046875 6.246094 6.367187 14.792969 9.953125 23.710938 9.953125s17.460938-3.585938 23.707031-9.953125c3.316407-3.824219 8.132813-6.023438 13.199219-6.023438s9.882812 2.199219 13.199219 6.023438c6.238281 6.371094 14.773437 9.960937 23.6875 9.960937 8.914062 0 17.453125-3.589843 23.6875-9.960937 3.316406-3.832032 8.132812-6.03125 13.203125-6.03125 5.066406 0 9.882812 2.199218 13.199218 6.03125 6.03125 6.160156 14.234376 9.71875 22.855469 9.914062 3.386719 7.71875 5.941407 15.777344 7.625 24.039063h-235.023437c1.660156-8.261719 4.195312-16.320313 7.558594-24.046875zm8.398437 188.992187-24.621094-116.945312h31.3125l21.46875 136h-4.671875c-11.335937-.039063-21.113281-7.972657-23.488281-19.054688zm140.632813-116.945312-14.3125 136h-16.796876v-136zm39.527343 0-21.46875 136h-16.28125l14.3125-136zm-86.636719 136h-16.800781l-14.3125-136h31.113281zm-47.203124-136 14.3125 136h-16.28125l-21.46875-136zm156.722656 116.945312c-2.375 11.082031-12.152344 19.015625-23.488282 19.054688h-4.671874l21.46875-136h31.3125zm42.480468-132.945312h-288c-4.421874 0-8-3.582031-8-8s3.578126-8 8-8h288c4.417969 0 8 3.582031 8 8s-3.582031 8-8 8zm0 0"/><path d="m168.351562 95.699219c17.671876 0 32-14.328125 32-32 0-14.609375-20.800781-52.472657-25.027343-59.921875-1.535157-2.355469-4.160157-3.777344-6.972657-3.777344-2.816406 0-5.441406 1.421875-6.976562 3.777344-4.183594 7.449218-25.023438 45.3125-25.023438 59.921875 0 17.671875 14.324219 32 32 32zm0-71.105469c7.121094 12.230469 12.507813 25.390625 16 39.105469 0 8.835937-7.164062 16-16 16-8.839843 0-16-7.164063-16-16 3.488282-13.714844 8.875-26.875 16-39.105469zm0 0"/><path d="m168.351562 207.699219c.535157-.011719 1.070313-.066407 1.597657-.160157.5-.085937.988281-.25 1.441406-.480468.492187-.160156.949219-.402344 1.359375-.71875.480469-.320313.878906-.640625 1.28125-.960938 2.765625-2.714844 3.226562-7.007812 1.097656-10.25-2.132812-3.238281-6.257812-4.515625-9.847656-3.050781s-5.636719 5.265625-4.890625 9.070313c.746094 3.804687 4.082031 6.550781 7.960937 6.550781zm0 0"/><path d="m128.351562 223.699219c3.769532-.039063 6.988282-2.730469 7.699219-6.433594.707031-3.703125-1.292969-7.390625-4.785156-8.816406s-7.503906-.195313-9.589844 2.945312c-2.089843 3.140625-1.671875 7.316407.992188 9.984375 1.535156 1.460938 3.5625 2.289063 5.683593 2.320313zm0 0"/><path d="m208.351562 223.699219c2.125.023437 4.171876-.8125 5.679688-2.320313 1.503906-1.503906 2.339844-3.550781 2.320312-5.679687-.015624-1.046875-.230468-2.078125-.640624-3.039063-.730469-2.011718-2.3125-3.59375-4.320313-4.320312-2.984375-1.207032-6.398437-.550782-8.722656 1.679687-.703125.777344-1.273438 1.671875-1.679688 2.640625-.410156.960938-.625 1.992188-.636719 3.039063-.023437 2.128906.8125 4.175781 2.316407 5.679687 1.507812 1.507813 3.554687 2.34375 5.683593 2.320313zm0 0"/></svg>