<svg height="480pt" viewBox="-64 0 480 480.28363" width="480pt" xmlns="http://www.w3.org/2000/svg"><path d="m320.140625 232.285156c-.015625-34.550781-12.484375-67.933594-35.117187-94.035156 10.871093-45.101562-7.1875-92.242188-45.414063-118.53125-38.226563-26.292969-88.707031-26.292969-126.933594 0-38.230469 26.289062-56.289062 73.429688-45.414062 118.53125-22.632813 26.101562-35.101563 59.484375-35.121094 94.035156-17.671875 0-32 14.324219-32 32 0 17.671875 14.328125 32 32 32h1.273437l26.230469 150.855469c3.308594 19.171875 19.953125 33.171875 39.410157 33.144531h154.175781c19.457031.027344 36.101562-13.972656 39.40625-33.144531l26.234375-150.855469h1.269531c17.675781 0 32-14.328125 32-32 0-17.675781-14.324219-32-32-32zm-238.261719-86.59375c.167969-.242187.316406-.496094.453125-.761718.910157-1.253907 1.445313-2.738282 1.539063-4.285157.015625-.554687-.027344-1.105469-.121094-1.648437-.003906-.289063-.027344-.578125-.0625-.863282-10.933594-39.113281 3.925781-80.871093 37.109375-104.285156 33.183594-23.414062 77.507813-23.414062 110.691406 0 33.179688 23.414063 48.042969 65.171875 37.109375 104.285156-.035156.285157-.058594.574219-.0625.863282-.097656.542968-.136718 1.09375-.121094 1.648437.050782 1.554688.589844 3.054688 1.535157 4.285157.136719.265624.289062.519531.457031.761718 21.710938 23.609375 33.753906 54.515625 33.734375 86.59375h-256c-.019531-32.078125 12.023437-62.984375 33.738281-86.59375zm194.992188 298.703125c-1.980469 11.507813-11.964844 19.910157-23.640625 19.890625h-154.175781c-11.675782.019532-21.664063-8.382812-23.640626-19.890625l-25.761718-148.109375h252.976562zm43.269531-164.109375h-288c-8.835937 0-16-7.164062-16-16 0-8.839844 7.164063-16 16-16h288c8.835937 0 16 7.160156 16 16 0 8.835938-7.164063 16-16 16zm0 0"/><path d="m173.101562 55.644531c.960938.410157 1.996094.625 3.039063.640625 2.128906.019532 4.175781-.816406 5.683594-2.320312 1.503906-1.503906 2.339843-3.554688 2.316406-5.679688.027344-1.050781-.191406-2.09375-.640625-3.042968-.726562-2.007813-2.308594-3.589844-4.316406-4.320313-1.949219-.796875-4.132813-.796875-6.082032 0-2.007812.730469-3.59375 2.3125-4.320312 4.320313-.410156.964843-.625 1.996093-.640625 3.042968.03125 2.117188.859375 4.144532 2.320313 5.679688.765624.722656 1.660156 1.292968 2.640624 1.679687zm0 0"/><path d="m135.5 61.242188c-.386719-.976563-.953125-1.875-1.679688-2.636719-.777343-.707031-1.667968-1.277344-2.636718-1.683594-2.984375-1.214844-6.402344-.554687-8.722656 1.683594-.707032.777343-1.273438 1.667969-1.679688 2.636719-.410156.964843-.625 1.996093-.640625 3.042968-.019531 2.125.816406 4.175782 2.320313 5.679688 1.503906 1.503906 3.550781 2.339844 5.679687 2.320312 1.046875-.015625 2.078125-.230468 3.042969-.640625.96875-.40625 1.859375-.976562 2.636718-1.679687 1.460938-1.535156 2.289063-3.5625 2.320313-5.679688-.011719-1.046875-.230469-2.078125-.640625-3.042968zm0 0"/><path d="m107.660156 126.921875c.449219.304687.933594.546875 1.441406.722656.453126.230469.9375.390625 1.441407.480469 1.054687.210938 2.144531.210938 3.199219 0 .5-.089844.984374-.25 1.441406-.480469.507812-.175781.992187-.417969 1.4375-.722656l1.199218-.957031c1.460938-1.535156 2.289063-3.5625 2.320313-5.679688-.011719-1.046875-.230469-2.078125-.640625-3.042968-.402344-.96875-.972656-1.859376-1.679688-2.636719l-1.199218-.960938c-.445313-.304687-.929688-.546875-1.4375-.722656-.457032-.230469-.941406-.390625-1.441406-.476563-1.054688-.242187-2.148438-.242187-3.199219 0-.503907.085938-.988281.246094-1.441407.476563-.507812.175781-.992187.417969-1.441406.722656l-1.199218.960938c-.722657.761719-1.292969 1.660156-1.679688 2.636719-.410156.964843-.625 1.996093-.640625 3.042968.03125 2.117188.859375 4.144532 2.320313 5.679688zm0 0"/><path d="m253.820312 106.605469c-2.289062-2.308594-5.746093-3.003907-8.746093-1.757813-3.003907 1.246094-4.953125 4.1875-4.933594 7.4375.015625 1.042969.230469 2.078125.640625 3.039063.386719.976562.957031 1.875 1.679688 2.640625 3.136718 3.136718 8.222656 3.136718 11.359374 0 3.136719-3.136719 3.136719-8.222656 0-11.359375zm0 0"/><path d="m197.820312 125.964844c3.09375-3.15625 3.09375-8.207032 0-11.359375-2.300781-2.273438-5.738281-2.933594-8.71875-1.683594-.980468.386719-1.875.957031-2.640624 1.683594-.707032.777343-1.273438 1.667969-1.679688 2.636719-.851562 1.9375-.851562 4.144531 0 6.082031.40625.96875.972656 1.859375 1.679688 2.640625.765624.722656 1.660156 1.292968 2.640624 1.679687.960938.410157 1.996094.625 3.039063.640625 2.117187-.03125 4.148437-.859375 5.679687-2.320312zm0 0"/><path d="m173.101562 208.921875c-.980468.386719-1.875.957031-2.640624 1.683594-3.09375 3.152343-3.09375 8.203125 0 11.359375.765624.722656 1.660156 1.292968 2.640624 1.679687.960938.410157 1.996094.625 3.039063.640625 2.117187-.03125 4.148437-.859375 5.679687-2.320312.34375-.382813.667969-.78125.960938-1.203125.304688-.445313.546875-.929688.71875-1.4375.234375-.453125.394531-.9375.480469-1.441407.089843-.527343.144531-1.0625.160156-1.597656-.03125-2.121094-.859375-4.148437-2.320313-5.679687-2.300781-2.273438-5.738281-2.933594-8.71875-1.683594zm0 0"/><path d="m224.78125 155.324219c.175781.507812.417969.992187.71875 1.4375.296875.421875.617188.820312.960938 1.203125.753906.738281 1.652343 1.3125 2.640624 1.679687.960938.410157 1.996094.625 3.039063.640625 2.117187-.03125 4.148437-.859375 5.679687-2.320312.34375-.382813.667969-.78125.960938-1.203125.304688-.445313.546875-.929688.71875-1.4375.234375-.453125.394531-.9375.480469-1.441407.089843-.527343.144531-1.0625.160156-1.597656-.03125-2.121094-.859375-4.148437-2.320313-5.679687-.75-.742188-1.648437-1.316407-2.636718-1.683594-1.949219-.796875-4.132813-.796875-6.082032 0-.988281.367187-1.886718.941406-2.640624 1.683594-1.460938 1.53125-2.289063 3.558593-2.320313 5.679687.019531.535156.070313 1.070313.160156 1.597656.089844.503907.25.988282.480469 1.441407zm0 0"/><path d="m205.820312 178.605469c-3.207031-2.960938-8.148437-2.960938-11.359374 0-.722657.761719-1.292969 1.660156-1.679688 2.636719-.410156.964843-.625 1.996093-.640625 3.042968.03125 2.117188.859375 4.144532 2.320313 5.679688.765624.722656 1.660156 1.292968 2.640624 1.679687.960938.410157 1.996094.625 3.039063.640625 2.128906.019532 4.175781-.816406 5.683594-2.320312 1.503906-1.503906 2.339843-3.554688 2.316406-5.679688-.011719-1.046875-.230469-2.078125-.640625-3.042968-.386719-.976563-.953125-1.875-1.679688-2.636719zm0 0"/><path d="m269.101562 208.921875c-.980468.386719-1.875.957031-2.640624 1.683594-3.105469 3.128906-3.089844 8.183593.03125 11.296875 3.121093 3.113281 8.175781 3.113281 11.296874 0 3.125-3.113282 3.136719-8.167969.03125-11.296875-2.316406-2.238281-5.734374-2.898438-8.71875-1.683594zm0 0"/><path d="m125.820312 154.605469-1.199218-.960938c-.445313-.304687-.929688-.546875-1.4375-.722656-.457032-.230469-.941406-.390625-1.441406-.476563-1.054688-.242187-2.148438-.242187-3.199219 0-.503907.085938-.988281.246094-1.441407.476563-.507812.175781-.992187.417969-1.441406.722656l-1.199218.960938c-.722657.761719-1.292969 1.660156-1.679688 2.636719-.851562 1.9375-.851562 4.144531 0 6.082031.40625.96875.972656 1.859375 1.679688 2.640625l1.199218.957031c.449219.304687.933594.546875 1.441406.722656.453126.230469.9375.390625 1.441407.480469 1.054687.210938 2.144531.210938 3.199219 0 .5-.089844.984374-.25 1.441406-.480469.507812-.175781.992187-.417969 1.4375-.722656l1.199218-.957031c1.460938-1.535156 2.289063-3.5625 2.320313-5.679688.027344-1.050781-.191406-2.09375-.640625-3.042968-.402344-.96875-.972656-1.859376-1.679688-2.636719zm0 0"/><path d="m75.183594 208.921875c-1.460938-.636719-3.082032-.804687-4.640625-.476563-.503907.085938-.988281.246094-1.441407.476563-.507812.175781-.992187.417969-1.441406.722656-.417968.292969-.816406.613281-1.199218.960938-1.460938 1.53125-2.289063 3.558593-2.320313 5.679687.015625 1.042969.230469 2.078125.640625 3.039063.40625.96875.972656 1.859375 1.679688 2.640625l1.199218.957031c.449219.304687.933594.546875 1.441406.722656.453126.230469.9375.390625 1.441407.480469.527343.089844 1.0625.144531 1.597656.160156 2.117187-.03125 4.148437-.859375 5.679687-2.320312.707032-.78125 1.277344-1.671875 1.679688-2.640625.410156-.960938.628906-1.996094.640625-3.039063-.03125-2.121094-.859375-4.148437-2.320313-5.679687-.761718-.726563-1.660156-1.296875-2.636718-1.683594zm0 0"/><path d="m229.101562 71.644531c.960938.410157 1.996094.625 3.039063.640625 3.25.015625 6.191406-1.933594 7.4375-4.933594s.550781-6.460937-1.757813-8.746093c-2.300781-2.273438-5.738281-2.933594-8.71875-1.683594-.988281.367187-1.886718.941406-2.640624 1.683594-3.09375 3.152343-3.09375 8.203125 0 11.359375.753906.738281 1.652343 1.3125 2.640624 1.679687zm0 0"/><path d="m101.796875 186.628906c-3.136719-3.03125-8.128906-2.988281-11.214844.097656-3.085937 3.085938-3.128906 8.074219-.097656 11.214844l8 8c3.140625 3.03125 8.128906 2.988282 11.214844-.097656 3.085937-3.085938 3.128906-8.078125.097656-11.214844zm0 0"/><path d="m234.484375 194.628906-8 8c-2.078125 2.007813-2.914063 4.980469-2.179687 7.777344.730468 2.796875 2.917968 4.984375 5.714843 5.714844 2.796875.730468 5.769531-.101563 7.777344-2.179688l8-8c3.03125-3.140625 2.988281-8.128906-.097656-11.214844-3.085938-3.085937-8.074219-3.128906-11.214844-.097656zm0 0"/><path d="m138.484375 109.941406c3.125 3.121094 8.1875 3.121094 11.3125 0l8-8c3.03125-3.140625 2.988281-8.128906-.097656-11.214844-3.085938-3.085937-8.074219-3.128906-11.214844-.097656l-8 8c-3.121094 3.121094-3.121094 8.1875 0 11.3125zm0 0"/><path d="m205.796875 74.628906c-3.136719-3.03125-8.128906-2.988281-11.214844.097656-3.085937 3.085938-3.128906 8.074219-.097656 11.214844l8 8c3.140625 3.03125 8.128906 2.988282 11.214844-.097656 3.085937-3.085938 3.128906-8.078125.097656-11.214844zm0 0"/><path d="m176.140625 136.285156h-16c-4.417969 0-8 3.582032-8 8 0 4.417969 3.582031 8 8 8h16c4.417969 0 8-3.582031 8-8 0-4.417968-3.582031-8-8-8zm0 0"/><path d="m272.140625 192.285156c3.238281-.003906 6.152344-1.953125 7.390625-4.941406s.554688-6.429688-1.734375-8.714844l-8-8c-3.136719-3.03125-8.128906-2.988281-11.214844.097656-3.085937 3.085938-3.128906 8.074219-.097656 11.214844l8 8c1.5 1.5 3.535156 2.339844 5.65625 2.34375zm0 0"/><path d="m146.484375 178.628906-8 8c-2.078125 2.007813-2.914063 4.980469-2.179687 7.777344.730468 2.796875 2.917968 4.984375 5.714843 5.714844 2.796875.730468 5.769531-.101563 7.777344-2.179688l8-8c3.03125-3.140625 2.988281-8.128906-.097656-11.214844-3.085938-3.085937-8.074219-3.128906-11.214844-.097656zm0 0"/></svg>