<svg height="480pt" viewBox="0 0 480 480.00049" width="480pt" xmlns="http://www.w3.org/2000/svg"><path d="m240 0c-132.546875 0-240 107.453125-240 240s107.453125 240 240 240c6.839844 0 13.695312-.28125 20.425781-.800781 1.113281.539062 2.335938.8125 3.574219.800781h128c4.417969 0 8-3.582031 8-8v-53.175781c74.167969-66.328125 99.703125-171.550781 64.195312-264.5-35.507812-92.945313-124.695312-154.339844-224.195312-154.324219zm144 464h-112v-80.320312c-.003906-7.28125-3.316406-14.167969-9-18.71875l-16-12.800782c-9.492188-7.570312-15.015625-19.058594-15-31.199218v-64.960938c0-8.835938 7.164062-16 16-16h8v56c0 4.417969 3.582031 8 8 8s8-3.582031 8-8v-124c0-6.628906 5.371094-12 12-12s12 5.371094 12 12v76c0 4.417969 3.582031 8 8 8s8-3.582031 8-8v-108c0-6.628906 5.371094-12 12-12s12 5.371094 12 12v108c0 4.417969 3.582031 8 8 8s8-3.582031 8-8v-76c0-6.628906 5.371094-12 12-12s12 5.371094 12 12v76c0 4.417969 3.582031 8 8 8s8-3.582031 8-8v-42.71875c.015625-3.800781 1.585938-7.429688 4.34375-10.042969 2.234375-2.152343 5.242188-3.320312 8.34375-3.238281 6.359375.363281 11.324219 5.632812 11.3125 12v120.078125c.03125 10.636719-4.195312 20.84375-11.734375 28.347656l-13.203125 13.199219c-4.535156 4.496094-7.078125 10.625-7.0625 17.015625zm-216-224c.042969-39.746094 32.253906-71.957031 72-72 5.460938 0 10.902344.628906 16.214844 1.871094-.054688.714844-.214844 1.402344-.214844 2.128906v14.398438c-28.007812-8.472657-57.8125 6.105468-68.316406 33.417968s1.847656 58.105469 28.316406 70.582032v17.425781c-28.699219-10.226563-47.898438-37.359375-48-67.824219zm48 16v16c-13.773438-10.332031-19.390625-28.316406-13.945312-44.648438 5.441406-16.335937 20.726562-27.351562 37.945312-27.351562 5.511719-.015625 10.964844 1.136719 16 3.382812v20.617188h-8c-17.671875 0-32 14.328125-32 32zm184 140.617188v-13.976563c.003906-2.148437.867188-4.203125 2.398438-5.703125l13.203124-13.203125c10.542969-10.496094 16.449219-24.777344 16.398438-39.65625v-120.078125c.023438-14.859375-11.5625-27.152344-26.398438-28-4.726562-.21875-9.421874.835938-13.601562 3.046875v-7.046875c-.007812-7.425781-2.949219-14.546875-8.183594-19.816406-8.359375-8.421875-21.152344-10.582032-31.816406-5.375v-6.808594c-.007812-7.425781-2.949219-14.546875-8.183594-19.816406-8.007812-8.023438-20.0625-10.425782-30.535156-6.085938s-17.292969 14.566406-17.28125 25.902344v6.785156c-11.785156-5.746094-25.988281-2.382812-33.945312 8.039063-7.199219-1.890625-14.613282-2.839844-22.054688-2.824219-43.914062.0625-81.058594 32.488281-87.054688 75.988281-5.992187 43.503907 21.003907 84.765625 63.261719 96.699219 1 15.652344 8.550781 30.160156 20.800781 39.953125l16 12.800781c1.890626 1.515625 2.992188 3.8125 2.992188 6.238282v79.703124c-5.296875.359376-10.640625.617188-16 .617188-106.785156.121094-198.84375-75.070312-220.046875-179.730469-21.203125-104.660156 34.335937-209.753906 132.75-251.199219 98.414063-41.449218 212.402344-7.75 272.464844 80.542969 60.058593 88.292969 49.53125 206.691407-25.167969 283.003907zm0 0"/><path d="m240 32c-114.820312.128906-207.871094 93.179688-208 208 0 4.417969 3.582031 8 8 8s8-3.582031 8-8c.125-105.988281 86.011719-191.875 192-192 4.417969 0 8-3.582031 8-8s-3.582031-8-8-8zm0 0"/></svg>