<svg height="480pt" viewBox="-31 0 479 480" width="480pt" xmlns="http://www.w3.org/2000/svg"><path d="m416.09375 262.894531c-3.734375-96.027343-73.203125-176.796875-167.59375-194.847656v-12.046875c0-13.253906-10.746094-24-24-24h-8v-24c0-4.417969-3.582031-8-8-8s-8 3.582031-8 8v24h-8c-13.253906 0-24 10.746094-24 24v12.046875c-94.390625 18.050781-163.859375 98.820313-167.59375 194.847656-.246094 3.015625-.40625 6.050781-.40625 9.105469 0 114.875 93.125 208 208 208s208-93.125 208-208c0-3.054688-.160156-6.089844-.40625-9.105469zm-35.273438-75.925781c-14.363281-15.191406-31.148437-27.894531-49.664062-37.601562-9.660156-18.410157-22.285156-35.109376-37.367188-49.421876 37.84375 18.570313 68.453126 49.179688 87.03125 87.023438zm-164.320312 275.574219v-38.695313c11.152344-.292968 22.28125-1.253906 33.320312-2.871094-9.199218 21.71875-20.519531 37.007813-33.320312 41.566407zm-49.320312-41.597657c11.039062 1.628907 22.164062 2.597657 33.320312 2.902344v38.695313c-12.800781-4.558594-24.121094-19.847657-33.320312-41.566407zm82.640624-297.953124c-11.039062-1.609376-22.167968-2.554688-33.320312-2.839844v-38.695313c12.800781 4.558594 24.121094 19.847657 33.320312 41.566407zm110.527344 141.007812c-.292968-11.152344-1.253906-22.28125-2.871094-33.320312 21.71875 9.199218 37.007813 20.511718 41.597657 33.320312zm-16 0h-52.925781c-.230469-17.480469-1.347656-34.9375-3.347656-52.304688 17.679687 2.886719 35.117187 7.089844 52.167969 12.570313 2.363281 13.121094 3.738281 26.40625 4.113281 39.734375zm-68.925781 0h-58.921875v-58.929688c18.335938.339844 36.640625 1.707032 54.824219 4.105469 2.398437 18.183594 3.765625 36.488281 4.105469 54.824219zm-58.921875-74.921875v-52.933594c13.328125.375 26.613281 1.75 39.734375 4.113281 5.480469 17.050782 9.683594 34.488282 12.570313 52.167969-17.367188-2-34.824219-3.117187-52.304688-3.347656zm-16-107.621094v38.695313c-11.152344.292968-22.28125 1.253906-33.320312 2.871094 9.199218-21.71875 20.519531-37.007813 33.320312-41.566407zm0 54.6875v52.933594c-17.480469.230469-34.9375 1.347656-52.304688 3.347656 2.886719-17.679687 7.089844-35.117187 12.570313-52.167969 13.121094-2.363281 26.40625-3.738281 39.734375-4.113281zm0 68.925781v58.929688h-58.929688c.339844-18.335938 1.707032-36.640625 4.105469-54.824219 18.183594-2.398437 36.488281-3.765625 54.824219-4.105469zm-74.921875 58.929688h-52.933594c.375-13.328125 1.75-26.613281 4.113281-39.734375 17.050782-5.480469 34.488282-9.683594 52.167969-12.570313-2 17.367188-3.117187 34.824219-3.347656 52.304688zm-68.925781 0h-38.695313c4.558594-12.800781 19.847657-24.121094 41.597657-33.320312-1.628907 11.039062-2.597657 22.164062-2.902344 33.320312zm0 16c.292968 11.152344 1.253906 22.28125 2.871094 33.320312-21.71875-9.199218-37.007813-20.519531-41.566407-33.320312zm16 0h52.9375c.230468 17.480469 1.34375 34.9375 3.34375 52.304688-17.679688-2.886719-35.117188-7.089844-52.167969-12.570313-2.367187-13.121094-3.746094-26.40625-4.121094-39.734375zm68.925781 0h58.921875v58.929688c-18.335938-.339844-36.640625-1.707032-54.824219-4.105469-2.398437-18.183594-3.765625-36.488281-4.105469-54.824219zm58.921875 74.921875v52.933594c-13.328125-.375-26.613281-1.75-39.734375-4.113281-5.480469-17.050782-9.683594-34.488282-12.570313-52.167969 17.367188 2 34.824219 3.117187 52.304688 3.347656zm16 52.933594v-52.933594c17.480469-.230469 34.9375-1.347656 52.304688-3.347656-2.886719 17.679687-7.089844 35.117187-12.570313 52.167969-13.121094 2.363281-26.40625 3.738281-39.734375 4.113281zm0-68.925781v-58.929688h58.929688c-.339844 18.335938-1.707032 36.640625-4.105469 54.824219-18.183594 2.398437-36.488281 3.765625-54.824219 4.105469zm74.921875-58.929688h52.933594c-.375 13.328125-1.75 26.613281-4.113281 39.734375-17.050782 5.480469-34.488282 9.683594-52.167969 12.570313 2-17.367188 3.117187-34.824219 3.347656-52.304688zm68.925781 0h38.695313c-4.558594 12.800781-19.847657 24.121094-41.597657 33.320312 1.628907-11.039062 2.597657-22.164062 2.902344-33.320312zm-6.246094-67.777344c-2.785156-12.671875-6.527343-25.117187-11.203124-37.222656 21.476562 14.1875 38.558593 34.101562 49.3125 57.488281-11.726563-8.445312-24.550782-15.265625-38.109376-20.265625zm-17.839843-6.152344c-16.535157-4.96875-33.402344-8.757812-50.472657-11.335937-2.578124-17.070313-6.363281-33.9375-11.335937-50.46875 15.542969 3.996094 30.625 9.625 44.984375 16.796875 7.171875 14.367188 12.804688 29.457031 16.796875 45.007812zm-67.984375-79.671874c-5-13.570313-11.816406-26.398438-20.265625-38.132813 23.390625 10.757813 43.300781 27.847656 57.488281 49.335937-12.105469-4.675781-24.550781-8.417968-37.222656-11.203124zm-99.289063-38.109376c-8.445312 11.726563-15.265625 24.550782-20.265625 38.109376-12.671875 2.785156-25.117187 6.527343-37.222656 11.203124 14.1875-21.476562 34.101562-38.558593 57.488281-49.3125zm-26.398437 56c-4.972656 16.53125-8.761719 33.398438-11.335938 50.472657-17.074218 2.574219-33.941406 6.363281-50.472656 11.335937 3.996094-15.546875 9.625-30.625 16.796875-44.984375 14.363281-7.191406 29.445313-12.839843 44.992187-16.847656zm-79.691406 67.933594c-13.570313 5-26.398438 11.816406-38.132813 20.265625 10.757813-23.390625 27.847656-43.300781 49.335937-57.488281-4.675781 12.105469-8.417968 24.550781-11.203124 37.222656zm0 119.554688c2.785156 12.671875 6.527343 25.117187 11.203124 37.222656-21.476562-14.1875-38.558593-34.101562-49.3125-57.488281 11.726563 8.445312 24.550782 15.265625 38.109376 20.265625zm17.839843 6.152344c16.535157 4.96875 33.402344 8.757812 50.472657 11.335937 2.578124 17.070313 6.363281 33.9375 11.335937 50.46875-15.542969-3.996094-30.625-9.625-44.984375-16.796875-7.171875-14.367188-12.804688-29.457031-16.796875-45.007812zm67.984375 79.671874c5 13.570313 11.816406 26.398438 20.265625 38.132813-23.390625-10.757813-43.300781-27.847656-57.488281-49.335937 12.105469 4.675781 24.550781 8.417968 37.222656 11.203124zm99.289063 38.132813c8.449219-11.734375 15.265625-24.5625 20.265625-38.132813 12.671875-2.785156 25.117187-6.527343 37.222656-11.203124-14.1875 21.476562-34.101562 38.558593-57.488281 49.3125zm26.398437-56c4.972656-16.53125 8.761719-33.398437 11.335938-50.46875 17.074218-2.578125 33.941406-6.367187 50.472656-11.335937-3.996094 15.542968-9.625 30.621093-16.796875 44.980468-14.363281 7.183594-29.445313 12.824219-44.992187 16.824219zm79.691406-67.957031c13.570313-5 26.398438-11.816406 38.132813-20.265625-10.757813 23.390625-27.847656 43.300781-49.335937 57.488281 4.675781-12.105469 8.417968-24.550781 11.203124-37.222656zm-169.601562-275.777344c0-4.417969 3.582031-8 8-8h32c4.417969 0 8 3.582031 8 8v9.375c-15.949219-1.832031-32.050781-1.832031-48 0zm-61.289062 43.921875c-15.082032 14.3125-27.707032 31.011719-37.367188 49.421875-18.515625 9.703125-35.300781 22.410156-49.664062 37.601562 18.578124-37.84375 49.1875-68.453124 87.03125-87.023437zm-86.519532 257.679687c14.253906 14.960938 30.855469 27.488282 49.152344 37.09375 9.605469 18.296876 22.136719 34.898438 37.097656 49.152344-37.308594-18.679687-67.570312-48.9375-86.25-86.246094zm257.410156 86.207032c14.957032-14.253906 27.488282-30.859375 37.09375-49.152344 18.28125-9.597656 34.867188-22.113281 49.113282-37.054688-18.679688 37.285157-48.921875 67.527344-86.207032 86.207032zm0 0"/></svg>