<svg height="480pt" viewBox="0 0 480 480" width="480pt" xmlns="http://www.w3.org/2000/svg"><path d="m472 255.976562h-184v-71.40625l76.855469-76.855468c4.679687-4.726563 7.203125-11.175782 6.96875-17.824219s-3.207031-12.90625-8.207031-17.289063c-9.933594-8.203124-24.503907-7.382812-33.449219 1.886719l-51.671875 51.664063c-7.582032-8.984375-18.738282-14.167969-30.496094-14.175782h-16c-10.371094.011719-20.335938 4.039063-27.800781 11.242188l-66.398438 17.855469c-10.492187 2.804687-17.792969 12.304687-17.800781 23.167969v43.734374c0 13.253907 10.746094 24 24 24s24-10.746093 24-24v-25.296874l24-6.398438v79.695312h-184c-4.417969 0-8 3.582032-8 8v208c0 4.417969 3.582031 8 8 8h464c4.417969 0 8-3.582031 8-8v-208c0-4.417968-3.582031-8-8-8zm-267.136719-96.496093c-1.960937-1.53125-4.535156-2.046875-6.933593-1.382813l-40 10.710938c-3.5.9375-5.929688 4.109375-5.929688 7.730468v31.4375c0 4.417969-3.582031 8-8 8s-8-3.582031-8-8v-43.734374c.003906-3.617188 2.433594-6.785157 5.929688-7.722657l68.550781-18.398437c1.46875-.402344 2.792969-1.207032 3.824219-2.328125 4.515624-5.003907 10.953124-7.847657 17.695312-7.816407h16c9.425781 0 17.96875 5.539063 21.816406 14.144532 1.074219 2.40625 3.257813 4.128906 5.847656 4.605468 2.589844.480469 5.25-.34375 7.113282-2.207031l58.710937-58.703125c3.019531-3.300781 8.042969-3.785156 11.640625-1.128906 1.648438 1.476562 2.625 3.5625 2.703125 5.773438.082031 2.210937-.746093 4.359374-2.289062 5.949218l-79.199219 79.199219c-1.5 1.496094-2.339844 3.527344-2.34375 5.648437v74.71875h-64v-90.160156c-.003906-2.484375-1.164062-4.824218-3.136719-6.335937zm259.136719 304.496093h-448v-192h448zm0 0"/><path d="m48 239.976562c0 4.417969 3.582031 8 8 8h112c4.417969 0 8-3.582031 8-8 0-4.417968-3.582031-8-8-8h-112c-4.417969 0-8 3.582032-8 8zm0 0"/><path d="m304 239.976562c0 4.417969 3.582031 8 8 8h112c4.417969 0 8-3.582031 8-8 0-4.417968-3.582031-8-8-8h-112c-4.417969 0-8 3.582032-8 8zm0 0"/><path d="m276.609375 87.976562h19.390625c4.417969 0 8-3.582031 8-8v-24c0-4.417968-3.582031-8-8-8h-.640625c-3.953125-27.535156-27.542969-47.976562-55.359375-47.976562s-51.40625 20.441406-55.359375 47.976562h-.640625c-4.417969 0-8 3.582032-8 8v24c0 4.417969 3.582031 8 8 8h19.375c6.339844 14.578126 20.722656 24.007813 36.617188 24.007813 15.894531 0 30.277343-9.429687 36.617187-24.007813zm11.390625-16h-8c.003906-2.6875-.265625-5.367187-.800781-8h8.800781zm-48-56c19 .023438 35.371094 13.390626 39.199219 32h-7.398438c-7.496093-10.066406-19.3125-16-31.863281-16-12.554688 0-24.367188 5.933594-31.867188 16h-7.269531c3.828125-18.609374 20.199219-31.976562 39.199219-32zm-48 56v-8h8.800781c-.066406.296876-.039062.609376-.097656.90625-.449219 2.335938-.683594 4.710938-.703125 7.09375zm48 24c-11-.011718-20.582031-7.496093-23.257812-18.167968-.515626-1.898438-.769532-3.863282-.742188-5.832032-.035156-11.003906 7.4375-20.609374 18.109375-23.285156 10.675781-2.671875 21.792969 2.285156 26.945313 12.007813.722656 1.351562 1.3125 2.773437 1.769531 4.238281.144531.457031.3125.902344.421875 1.367188.484375 1.851562.738281 3.757812.753906 5.671874.007812 1.863282-.230469 3.71875-.703125 5.519532-2.554687 10.808594-12.191406 18.453125-23.296875 18.480468zm0 0"/></svg>