<svg height="480pt" viewBox="0 0 480 480.22859" width="480pt" xmlns="http://www.w3.org/2000/svg"><path d="m240.109375 128.230469c-61.855469 0-112 50.140625-112 112 0 61.855469 50.144531 112 112 112s112-50.144531 112-112c-.066406-61.832031-50.171875-111.9375-112-112zm0 208c-53.019531 0-96-42.984375-96-96 0-53.019531 42.980469-96 96-96s96 42.980469 96 96c-.054687 52.992187-43.003906 95.941406-96 96zm0 0"/><path d="m419.175781 399.804688c85.902344-96.257813 80.339844-243.207032-12.597656-332.691407s-239.992187-89.484375-332.929687 0-98.5 236.433594-12.59375 332.691407c.179687.261718.375.515624.582031.75l.121093.066406c45.445313 50.664062 110.292969 79.609375 178.351563 79.609375s132.90625-28.945313 178.351563-79.609375l.121093-.066406c.210938-.238282.410157-.488282.59375-.75zm-179.066406-383.574219c86.574219-.054688 165.417969 49.816406 202.46875 128.0625 37.046875 78.242187 25.664063 170.835937-29.234375 237.777343l-4.914062-5.769531c-6.078126-7.109375-14.964844-11.203125-24.320313-11.203125-9.351563 0-18.238281 4.09375-24.320313 11.203125l-11.511718 13.441407c-3.125 3.40625-7.539063 5.347656-12.167969 5.347656-4.625 0-9.039063-1.941406-12.167969-5.347656l-11.511718-13.441407c-6.078126-7.109375-14.964844-11.203125-24.320313-11.203125-9.351563 0-18.238281 4.09375-24.320313 11.203125l-11.511718 13.441407c-3.125 3.40625-7.539063 5.347656-12.167969 5.347656-4.625 0-9.039063-1.941406-12.167969-5.347656l-11.511718-13.441407c-6.078126-7.109375-14.964844-11.203125-24.320313-11.203125-9.351563 0-18.238281 4.09375-24.320313 11.203125l-11.511718 13.441407c-3.125 3.40625-7.539063 5.347656-12.167969 5.347656-4.625 0-9.039063-1.941406-12.167969-5.347656l-11.511718-13.441407c-6.078126-7.113281-14.96875-11.207031-24.324219-11.207031s-18.242188 4.09375-24.324219 11.207031l-4.894531 5.742188c-54.882813-66.9375-66.261719-159.519531-29.214844-237.753907 37.046875-78.234374 115.875-128.101562 202.4375-128.058593zm0 448c-61.503906.015625-120.296875-25.335938-162.503906-70.074219l6.335937-7.441406c3.128906-3.40625 7.542969-5.347656 12.167969-5.347656 4.628906 0 9.042969 1.941406 12.167969 5.347656l11.511718 13.441406c6.082032 7.109375 14.96875 11.203125 24.320313 11.203125 9.355469 0 18.242187-4.09375 24.320313-11.203125l11.511718-13.441406c3.128906-3.40625 7.542969-5.347656 12.167969-5.347656 4.628906 0 9.042969 1.941406 12.167969 5.347656l11.511718 13.441406c6.082032 7.109375 14.96875 11.203125 24.320313 11.203125 9.355469 0 18.242187-4.09375 24.320313-11.203125l11.511718-13.441406c3.128906-3.40625 7.542969-5.347656 12.167969-5.347656 4.628906 0 9.042969 1.941406 12.167969 5.347656l11.511718 13.441406c6.082032 7.109375 14.96875 11.203125 24.320313 11.203125 9.355469 0 18.242187-4.09375 24.320313-11.203125l11.511718-13.441406c3.128906-3.402344 7.542969-5.335938 12.164063-5.335938 4.625 0 9.035156 1.933594 12.164062 5.335938l6.351563 7.457031c-42.214844 44.730469-101.003906 70.074219-162.511719 70.058594zm0 0"/><path d="m240.109375 88.230469c13.253906 0 24-10.746094 24-24 0-13.257813-10.746094-24-24-24s-24 10.742187-24 24c0 13.253906 10.746094 24 24 24zm0-32c4.417969 0 8 3.578125 8 8 0 4.417969-3.582031 8-8 8s-8-3.582031-8-8c0-4.421875 3.582031-8 8-8zm0 0"/><path d="m72.109375 224.230469c13.253906 0 24-10.746094 24-24 0-13.257813-10.746094-24-24-24s-24 10.742187-24 24c0 13.253906 10.746094 24 24 24zm0-32c4.417969 0 8 3.578125 8 8 0 4.417969-3.582031 8-8 8s-8-3.582031-8-8c0-4.421875 3.582031-8 8-8zm0 0"/><path d="m416.109375 248.230469c-13.253906 0-24 10.742187-24 24 0 13.253906 10.746094 24 24 24s24-10.746094 24-24c0-13.257813-10.746094-24-24-24zm0 32c-4.417969 0-8-3.582031-8-8 0-4.421875 3.582031-8 8-8s8 3.578125 8 8c0 4.417969-3.582031 8-8 8zm0 0"/><path d="m128.109375 112.230469c0 8.835937-7.164063 16-16 16s-16-7.164063-16-16c0-8.839844 7.164063-16 16-16s16 7.160156 16 16zm0 0"/><path d="m400.109375 176.230469c0 8.835937-7.164063 16-16 16s-16-7.164063-16-16c0-8.839844 7.164063-16 16-16s16 7.160156 16 16zm0 0"/><path d="m152.109375 336.230469c0 8.835937-7.164063 16-16 16s-16-7.164063-16-16c0-8.839844 7.164063-16 16-16s16 7.160156 16 16zm0 0"/><path d="m314.429688 85.910156c3.15625 3.09375 8.207031 3.09375 11.359374 0 .707032-.78125 1.277344-1.671875 1.679688-2.640625.855469-1.9375.855469-4.144531 0-6.082031-.402344-.96875-.972656-1.859375-1.679688-2.640625-3.207031-2.957031-8.152343-2.957031-11.359374 0-.707032.78125-1.273438 1.671875-1.679688 2.640625-.851562 1.9375-.851562 4.144531 0 6.082031.40625.96875.972656 1.859375 1.679688 2.640625zm0 0"/><path d="m168.109375 64.230469c2.121094-.019531 4.15625-.847657 5.679687-2.320313 3.09375-3.15625 3.09375-8.207031 0-11.363281l-1.199218-.957031c-.445313-.300782-.929688-.542969-1.441406-.722656-.476563-.242188-.992188-.402344-1.527344-.480469-2.609375-.519531-5.308594.289062-7.199219 2.160156-.722656.765625-1.292969 1.664063-1.679687 2.640625-.40625.964844-.621094 1.996094-.632813 3.042969.027344 2.117187.855469 4.144531 2.320313 5.679687 1.523437 1.476563 3.558593 2.304688 5.679687 2.320313zm0 0"/><path d="m125.070312 152.867188c-.980468.386718-1.875.957031-2.640624 1.679687-3.09375 3.15625-3.09375 8.207031 0 11.363281.753906.738282 1.652343 1.3125 2.640624 1.679688.960938.410156 1.996094.625 3.039063.640625 2.121094-.019531 4.15625-.847657 5.679687-2.320313 3.09375-3.15625 3.09375-8.207031 0-11.363281l-1.199218-.957031c-.445313-.300782-.929688-.542969-1.441406-.722656-.476563-.242188-.992188-.402344-1.527344-.480469-1.527344-.320313-3.121094-.152344-4.550782.480469zm0 0"/><path d="m42.429688 261.910156c2.289062 2.304688 5.746093 3 8.75 1.753906 3-1.246093 4.949218-4.183593 4.929687-7.433593.023437-1.050781-.195313-2.089844-.640625-3.042969-.386719-.976562-.957031-1.875-1.679688-2.640625-.765624-.71875-1.660156-1.289063-2.640624-1.679687-2.980469-1.214844-6.398438-.554688-8.71875 1.679687-.738282.753906-1.3125 1.652344-1.679688 2.640625-.855469 1.9375-.855469 4.144531 0 6.082031.386719.976563.957031 1.875 1.679688 2.640625zm0 0"/><path d="m93.710938 330.546875c-1.863282-1.925781-4.578126-2.769531-7.203126-2.234375-2.628906.535156-4.796874 2.375-5.757812 4.875-.855469 1.9375-.855469 4.144531 0 6.082031.726562 2.007813 2.308594 3.589844 4.320312 4.320313 2.957032 1.214844 6.355469.554687 8.640626-1.679688 1.511718-1.507812 2.375-3.546875 2.398437-5.679687-.039063-2.132813-.898437-4.167969-2.398437-5.683594zm0 0"/><path d="m338.429688 354.546875c-3.09375 3.15625-3.09375 8.207031 0 11.363281 1.523437 1.476563 3.558593 2.304688 5.679687 2.320313 3.613281-.023438 6.761719-2.460938 7.6875-5.949219.925781-3.492188-.601563-7.167969-3.726563-8.976562-3.125-1.808594-7.074218-1.300782-9.640624 1.242187zm0 0"/><path d="m368.109375 304.230469c2.117187-.03125 4.148437-.863281 5.679687-2.320313.707032-.78125 1.277344-1.671875 1.679688-2.640625.855469-1.9375.855469-4.144531 0-6.082031-.402344-.96875-.972656-1.859375-1.679688-2.640625-3.207031-2.957031-8.152343-2.957031-11.359374 0-.707032.78125-1.273438 1.671875-1.679688 2.640625-.449219.949219-.667969 1.992188-.640625 3.042969-.019531 2.125.816406 4.175781 2.320313 5.679687 1.503906 1.503906 3.550781 2.339844 5.679687 2.320313zm0 0"/><path d="m426.429688 221.910156c.378906.339844.777343.660156 1.191406.957032.449218.304687.9375.546874 1.449218.722656.453126.230468.9375.390625 1.441407.480468.527343.085938 1.0625.140626 1.597656.160157 2.128906.019531 4.175781-.816407 5.679687-2.320313 1.507813-1.503906 2.34375-3.554687 2.320313-5.679687-.011719-1.046875-.230469-2.078125-.640625-3.042969-1.371094-3.609375-5.191406-5.65625-8.957031-4.800781-.503907.089843-.988281.25-1.441407.480469-.511718.179687-1 .417968-1.449218.722656l-1.191406.957031c-.722657.765625-1.292969 1.664063-1.679688 2.640625-.449219.949219-.667969 1.992188-.640625 3.042969.027344 2.117187.855469 4.144531 2.320313 5.679687zm0 0"/><path d="m330.429688 141.910156c3.15625 3.09375 8.207031 3.09375 11.359374 0 .320313-.402344.640626-.800781.960938-1.28125.574219-.878906.976562-1.855468 1.191406-2.878906.101563-.503906.15625-1.011719.167969-1.519531.023437-1.050781-.195313-2.089844-.640625-3.042969-.402344-.96875-.972656-1.859375-1.679688-2.640625-3.207031-2.957031-8.152343-2.957031-11.359374 0-.707032.78125-1.273438 1.671875-1.679688 2.640625-.410156.964844-.628906 1.996094-.640625 3.042969.027344 2.117187.855469 4.144531 2.320313 5.679687zm0 0"/><path d="m370.453125 109.882812c3.140625 3.035157 8.128906 2.988282 11.214844-.09375 3.085937-3.085937 3.128906-8.078124.097656-11.214843l-8-8c-3.136719-3.035157-8.128906-2.988281-11.214844.097656-3.085937 3.085937-3.128906 8.074219-.097656 11.210937zm0 0"/><path d="m170.453125 90.574219c-3.121094 3.121093-3.121094 8.1875 0 11.308593l8 8c3.140625 3.035157 8.128906 2.988282 11.214844-.09375 3.085937-3.085937 3.128906-8.078124.097656-11.214843l-8-8c-3.125-3.125-8.1875-3.125-11.3125 0zm0 0"/><path d="m266.453125 117.882812c3.125 3.125 8.1875 3.125 11.3125 0l8-8c3.03125-3.136718 2.988281-8.125-.097656-11.210937-3.085938-3.085937-8.074219-3.132813-11.214844-.097656l-8 8c-3.121094 3.121093-3.121094 8.1875 0 11.308593zm0 0"/><path d="m98.453125 258.574219-8 8c-2.078125 2.007812-2.914063 4.980469-2.179687 7.777343.730468 2.796876 2.914062 4.984376 5.710937 5.714844 2.800781.730469 5.773437-.101562 7.78125-2.183594l8-8c3.03125-3.136718 2.988281-8.125-.097656-11.210937-3.085938-3.085937-8.074219-3.132813-11.214844-.097656zm0 0"/><path d="m397.765625 322.574219c-3.136719-3.035157-8.128906-2.988281-11.214844.097656-3.085937 3.085937-3.128906 8.074219-.097656 11.210937l8 8c3.140625 3.035157 8.128906 2.988282 11.214844-.09375 3.085937-3.085937 3.128906-8.078124.097656-11.214843zm0 0"/><path d="m389.765625 218.574219c-3.125-3.125-8.1875-3.125-11.3125 0l-8 8c-2.078125 2.007812-2.914063 4.980469-2.179687 7.777343.730468 2.796876 2.914062 4.984376 5.710937 5.714844 2.800781.730469 5.773437-.101562 7.78125-2.183594l8-8c3.125-3.121093 3.125-8.1875 0-11.308593zm0 0"/><path d="m416.109375 168.230469c4.417969 0 8-3.582031 8-8v-16c0-4.421875-3.582031-8-8-8s-8 3.578125-8 8v16c0 4.417969 3.582031 8 8 8zm0 0"/><path d="m61.765625 298.574219-8-8c-2.007813-2.082031-4.980469-2.914063-7.78125-2.183594-2.796875.734375-4.980469 2.917969-5.710937 5.714844-.734376 2.796875.101562 5.769531 2.179687 7.777343l8 8c3.140625 3.035157 8.128906 2.988282 11.214844-.09375 3.085937-3.085937 3.128906-8.078124.097656-11.214843zm0 0"/><path d="m64.109375 152.230469c2.121094-.003907 4.15625-.84375 5.65625-2.347657l8-8c3.03125-3.136718 2.988281-8.125-.097656-11.210937-3.085938-3.085937-8.074219-3.132813-11.214844-.097656l-8 8c-2.285156 2.285156-2.96875 5.726562-1.730469 8.714843 1.234375 2.988282 4.152344 4.9375 7.386719 4.941407zm0 0"/></svg>