<svg height="480pt" viewBox="-4 0 480 480" width="480pt" xmlns="http://www.w3.org/2000/svg"><path d="m160 104c0-22.089844-17.90625-40-40-40-22.089844 0-40 17.910156-40 40s17.910156 40 40 40c22.082031-.027344 39.972656-17.917969 40-40zm-40 24c-13.253906 0-24-10.746094-24-24s10.746094-24 24-24 24 10.746094 24 24-10.746094 24-24 24zm0 0"/><path d="m360 104c0-22.089844-17.90625-40-40-40-22.089844 0-40 17.910156-40 40s17.910156 40 40 40c22.082031-.027344 39.972656-17.917969 40-40zm-40 24c-13.253906 0-24-10.746094-24-24s10.746094-24 24-24 24 10.746094 24 24-10.746094 24-24 24zm0 0"/><path d="m472 32v-24c0-4.417969-3.582031-8-8-8h-48c-4.417969 0-8 3.582031-8 8v24c.050781 14.632812 10.023438 27.367188 24.214844 30.929688-.09375.351562-.167969.707031-.214844 1.070312v17.472656c-9.554688 3.378906-15.957031 12.394532-16 22.527344v40h-376c-22.078125.027344-39.9726562 17.917969-40 40v96c-.0507812 6.332031 2.472656 12.414062 6.984375 16.855469 6.910156 7.027343 17.402344 9.132812 26.488281 5.3125 8.882813-3.722657 14.625-12.449219 14.527344-22.078125v-88.089844h8v260c0 15.464844 12.535156 28 28 28s28-12.535156 28-28v-132h16v132c0 15.464844 12.535156 28 28 28s28-12.535156 28-28v-260h16v88c-.050781 6.332031 2.472656 12.414062 6.984375 16.855469 6.910156 7.035156 17.410156 9.140625 26.496094 5.3125 8.878906-3.722657 14.621093-12.453125 14.519531-22.078125v-88.089844h8v260c0 15.464844 12.535156 28 28 28s28-12.535156 28-28v-132h16v132c0 15.464844 12.535156 28 28 28s28-12.535156 28-28v-252c0-4.417969 3.582031-8 8-8h48c13.253906 0 24-10.746094 24-24v-64c-.042969-10.132812-6.445312-19.148438-16-22.527344v-17.472656c-.046875-.363281-.121094-.71875-.214844-1.070312 14.195313-3.5625 24.164063-16.296876 24.214844-30.929688zm-139.3125 128-12.6875 12.6875-12.6875-12.6875zm-198.910156 0c-2.824219 4.945312-8.082032 7.996094-13.777344 7.996094s-10.953125-3.050782-13.773438-7.996094zm-37.777344 292c0 6.628906-5.371094 12-12 12-6.625 0-12-5.371094-12-12v-132h24zm72 0c0 6.628906-5.371094 12-12 12-6.625 0-12-5.371094-12-12v-132h24zm8-276c-4.417969 0-8 3.582031-8 8v120h-96v-120c0-4.417969-3.582031-8-8-8h-16c-8.835938 0-16 7.164062-16 16v88.089844c.105469 3.058594-1.621094 5.890625-4.390625 7.199218-3.15625 1.441407-6.878906.75-9.304687-1.730468-1.5-1.457032-2.332032-3.46875-2.304688-5.558594v-96c0-13.253906 10.746094-24 24-24h49.136719c3.59375 14.113281 16.300781 23.992188 30.863281 23.992188s27.273438-9.878907 30.863281-23.992188h57.136719c-.277344.382812-.519531.800781-.800781 1.191406-.277344.394532-.460938.679688-.695313 1.03125-1.230468 1.882813-2.300781 3.859375-3.199218 5.921875-.128907.296875-.230469.609375-.351563.917969-.914063 2.199219-1.621094 4.476562-2.121094 6.800781v.113281zm120 276c0 6.628906-5.371094 12-12 12-6.625 0-12-5.371094-12-12v-132h24zm72 0c0 6.628906-5.371094 12-12 12-6.625 0-12-5.371094-12-12v-132h24zm80-284c0 4.417969-3.582031 8-8 8h-48c-13.253906 0-24 10.746094-24 24v104h-96v-120c0-4.417969-3.582031-8-8-8h-16c-8.835938 0-16 7.164062-16 16v88.089844c.105469 3.058594-1.621094 5.890625-4.390625 7.199218-3.15625 1.449219-6.882813.757813-9.304687-1.730468-1.5-1.457032-2.332032-3.46875-2.304688-5.558594v-96c0-13.253906 10.746094-24 24-24h44.6875l29.65625 29.65625c3.125 3.121094 8.1875 3.121094 11.3125 0l29.65625-29.65625h60.6875c8.835938 0 16-7.164062 16-16v-40c0-4.417969 3.582031-8 8-8s8 3.582031 8 8zm8-136c0 8.835938-7.164062 16-16 16s-16-7.164062-16-16v-16h32zm0 0"/></svg>