<svg height="480pt" viewBox="0 0 480.00067 480" width="480pt" xmlns="http://www.w3.org/2000/svg"><path d="m128 88c-25.777344 0-64 20.160156-64 48s38.222656 48 64 48c25.289062 0 72-19.792969 72-48s-46.710938-48-72-48zm0 80c-19.832031 0-48-16.550781-48-32s28.167969-32 48-32c19.585938 0 56 16.449219 56 32s-36.414062 32-56 32zm0 0"/><path d="m352 88c-25.289062 0-72 19.792969-72 48s46.710938 48 72 48c25.777344 0 64-20.160156 64-48s-38.222656-48-64-48zm0 80c-19.585938 0-56-16.449219-56-32s36.414062-32 56-32c19.832031 0 48 16.550781 48 32s-28.167969 32-48 32zm0 0"/><path d="m473.007812 7.136719c-4.460937-4.59375-10.605468-7.1718752-17.007812-7.136719-13.253906 0-24 10.746094-24 24v17.664062c-12.367188-6.375-26.085938-9.6875-40-9.664062h-88c-27.019531-.121094-51.777344 15.0625-63.921875 39.199219-12.25-24.113281-37.03125-39.273438-64.078125-39.199219h-88c-48.601562 0-88 39.398438-88 88 .0742188 66.242188 53.757812 119.925781 120 120h24c36.617188-.097656 70.515625-19.34375 89.367188-50.734375 1.421874-2.304687 3.9375-3.707031 6.644531-3.707031s5.222656 1.402344 6.644531 3.707031c18.84375 31.386719 52.734375 50.632813 89.34375 50.734375h24c26 .042969 51.296875-8.453125 72-24.183594v240.183594c0 13.253906 10.746094 24 24 24s24-10.746094 24-24v-432c.046875-6.335938-2.476562-12.421875-6.992188-16.863281zm-137.007812 216.863281c-30.960938-.078125-59.628906-16.332031-75.59375-42.863281-4.296875-7.164063-12.042969-11.546875-20.398438-11.546875-8.355468 0-16.101562 4.382812-20.398437 11.546875-15.96875 26.53125-44.644531 42.789062-75.609375 42.863281h-24c-57.410156-.066406-103.933594-46.589844-104-104 0-39.765625 32.234375-72 72-72h88c21.035156-.066406 40.3125 11.714844 49.847656 30.464844 2.71875 5.316406 8.183594 8.664062 14.15625 8.664062s11.441406-3.347656 14.15625-8.664062c9.53125-18.746094 28.808594-30.527344 49.839844-30.464844h88c15.59375-.039062 30.773438 5.042969 43.199219 14.464844 18.207031 13.503906 28.898437 34.867187 28.800781 57.535156.027344 27.207031-10.648438 53.332031-29.726562 72.730469-19.484376 20.074219-46.296876 31.363281-74.273438 31.269531zm128-44.160156v276.160156c0 4.417969-3.582031 8-8 8s-8-3.582031-8-8v-254.488281c.742188-.800781 1.367188-1.695313 2.089844-2.519531 1.78125-2.039063 3.519531-4.09375 5.148437-6.222657 1.007813-1.320312 1.96875-2.664062 2.921875-4 1.503906-2.132812 2.933594-4.3125 4.289063-6.535156.488281-.824219 1.078125-1.578125 1.550781-2.394531zm-6.070312-117.949219c-.976563-1.097656-1.984376-2.160156-3.019532-3.203125-1.597656-1.597656-3.199218-3.199219-4.964844-4.664062-.671874-.589844-1.25-1.253907-1.945312-1.832032v-28.191406c0-4.417969 3.582031-8 8-8 2.15625-.007812 4.21875.878906 5.695312 2.449219 1.492188 1.457031 2.324219 3.464843 2.304688 5.550781v45.335938c-.535156-.800782-1.199219-1.421876-1.769531-2.167969-1.367188-1.808594-2.78125-3.574219-4.300781-5.277344zm0 0"/></svg>