<svg height="480pt" viewBox="0 0 480 480" width="480pt" xmlns="http://www.w3.org/2000/svg"><path d="m240 0c-132.546875 0-240 107.453125-240 240s107.453125 240 240 240 240-107.453125 240-240c-.148438-132.484375-107.515625-239.851562-240-240zm0 464c-123.710938 0-224-100.289062-224-224s100.289062-224 224-224 224 100.289062 224 224c-.140625 123.652344-100.347656 223.859375-224 224zm0 0"/><path d="m238.449219 312h1.597656c21.957031-.4375 39.464844-18.480469 39.246094-40.441406-.21875-21.960938-18.082031-39.648438-40.046875-39.648438-21.960938 0-39.824219 17.6875-40.042969 39.648438-.21875 21.960937 17.289063 40.003906 39.246094 40.441406zm-14.746094-57.601562c4.421875-4.125 10.25-6.414063 16.296875-6.398438h.953125c11.441406.425781 20.988281 8.871094 22.804687 20.175781 1.816407 11.304688-4.605468 22.316407-15.335937 26.304688s-22.785156-.160157-28.792969-9.90625c-6.003906-9.75-4.289062-22.382813 4.097656-30.175781zm0 0"/><path d="m411.953125 273.816406c-4.5-6.199218-11.710937-9.851562-19.367187-9.816406h-.082032c-10.472656-.023438-19.734375 6.792969-22.824218 16.800781-17.777344 56.664063-70.289063 95.226563-129.679688 95.226563s-111.902344-38.5625-129.679688-95.226563c-4-12.65625-17.5-19.675781-30.15625-15.675781-12.65625 3.996094-19.675781 17.5-15.675781 30.15625 24.121094 76.632812 95.171875 128.757812 175.511719 128.757812s151.390625-52.125 175.511719-128.757812c2.34375-7.3125 1.019531-15.304688-3.558594-21.464844zm-11.707031 16.65625c-22.023438 69.964844-86.894532 117.554688-160.246094 117.554688s-138.222656-47.589844-160.246094-117.554688c-.773437-2.457031-.324218-5.136718 1.207032-7.207031s3.960937-3.285156 6.535156-3.265625c3.476562-.003906 6.546875 2.273438 7.558594 5.601562 19.875 63.332032 78.566406 106.429688 144.945312 106.429688s125.070312-43.097656 144.945312-106.429688c1.011719-3.328124 4.082032-5.605468 7.558594-5.601562h.082032c2.558593.007812 4.964843 1.230469 6.476562 3.296875 1.515625 2.066406 1.953125 4.730469 1.183594 7.175781zm0 0"/><path d="m123.785156 169.167969-9.824218 30.246093c-1.074219 3.296876.101562 6.910157 2.90625 8.949219 2.804687 2.035157 6.601562 2.035157 9.40625-.003906l25.726562-18.695313 25.726562 18.695313c2.804688 2.039063 6.601563 2.039063 9.40625.003906 2.804688-2.039062 3.980469-5.652343 2.90625-8.949219l-9.824218-30.246093 25.730468-18.695313c2.800782-2.039062 3.976563-5.648437 2.90625-8.945312-1.074218-3.296875-4.144531-5.527344-7.613281-5.527344h-31.796875l-9.832031-30.246094c-1.082031-3.285156-4.144531-5.503906-7.601563-5.503906-3.457031 0-6.519531 2.21875-7.601562 5.503906l-9.847656 30.246094h-31.796875c-3.46875 0-6.539063 2.230469-7.613281 5.527344-1.070313 3.296875.105468 6.90625 2.90625 8.945312zm16.589844-17.167969c3.464844 0 6.539062-2.230469 7.609375-5.527344l4-12.359375 4 12.359375c1.070313 3.296875 4.140625 5.527344 7.609375 5.527344h13l-10.523438 7.640625c-2.800781 2.035156-3.972656 5.648437-2.902343 8.945313l4 12.359374-10.511719-7.640624c-2.804688-2.039063-6.605469-2.039063-9.410156 0l-10.511719 7.640624 4-12.359374c1.074219-3.296876-.097656-6.910157-2.902344-8.945313l-10.457031-7.640625zm0 0"/><path d="m299.785156 169.167969-9.824218 30.246093c-1.074219 3.296876.101562 6.910157 2.90625 8.949219 2.804687 2.035157 6.601562 2.035157 9.40625-.003906l25.726562-18.695313 25.726562 18.695313c2.804688 2.039063 6.601563 2.039063 9.40625.003906 2.804688-2.039062 3.980469-5.652343 2.90625-8.949219l-9.824218-30.246093 25.730468-18.695313c2.800782-2.039062 3.976563-5.648437 2.90625-8.945312-1.074218-3.296875-4.144531-5.527344-7.613281-5.527344h-31.796875l-9.832031-30.246094c-1.082031-3.285156-4.144531-5.503906-7.601563-5.503906-3.457031 0-6.519531 2.21875-7.601562 5.503906l-9.847656 30.246094h-31.796875c-3.46875 0-6.539063 2.230469-7.613281 5.527344-1.070313 3.296875.105468 6.90625 2.90625 8.945312zm16.589844-17.167969c3.464844 0 6.539062-2.230469 7.609375-5.527344l4-12.359375 4 12.359375c1.070313 3.296875 4.140625 5.527344 7.609375 5.527344h13l-10.523438 7.640625c-2.800781 2.035156-3.972656 5.648437-2.902343 8.945313l4 12.359374-10.511719-7.640624c-2.804688-2.039063-6.605469-2.039063-9.410156 0l-10.511719 7.640624 4-12.359374c1.074219-3.296876-.097656-6.910157-2.902344-8.945313l-10.457031-7.640625zm0 0"/></svg>