<svg height="482pt" viewBox="0 0 482 482.17201" width="482pt" xmlns="http://www.w3.org/2000/svg"><path d="m273.96875 319.136719 18.136719-18.152344 12.238281 12.242187c19.453125 19.550782 45.917969 30.503907 73.496094 30.421876h32.242187c4.417969 0 8-3.578126 8-8 0-4.417969-3.582031-8-8-8h-32.242187c-23.324219.066406-45.707032-9.203126-62.160156-25.734376l-12.246094-12.246093 38.398437-38.402344c3.125-3.125 3.125-8.1875 0-11.3125l-203.566406-203.589844c-.714844-.703125-1.554687-1.265625-2.472656-1.65625l-.472657-.199219c-.230468-.082031-.441406-.21875-.679687-.28125l-124.449219-33.945312c-2.769531-.753906-5.730468.03125-7.761718 2.0625-2.03125 2.03125-2.816407 4.992188-2.0625 7.761719l33.945312 124.457031c.046875.167969.152344.320312.207031.488281.105469.300781.226563.59375.367188.878907.332031.691406.761719 1.328124 1.273437 1.898437.070313.078125.105469.199219.183594.277344l337.984375 337.960937c5.023437 5.199219 12.457031 7.285156 19.449219 5.453125 6.992187-1.828125 12.453125-7.289062 14.285156-14.28125 1.828125-6.996093-.253906-14.429687-5.453125-19.453125zm-28.304688 5.664062-34.785156-34.75 108.90625-49.511719 5.03125 5.03125zm-57.382812-57.382812 108.910156-49.503907 10.542969 10.535157-108.902344 49.511719zm-33.945312-33.945313 108.914062-49.496094 21.855469 21.859376-108.90625 49.503906zm-22.65625-22.621094 108.90625-49.503906 10.550781 10.542969-108.878907 49.503906zm-33.945313-33.9375 108.914063-49.511718 21.886718 21.847656-108.902344 49.519531zm-22.621094-22.632812 108.910157-49.503906 10.542968 10.542968-108.878906 49.507813zm-21.785156-21.832031 79.199219-79.199219 39.417968 39.417969-108.882812 49.535156zm63.808594-86.398438-71.015625 70.976563-26.632813-97.625zm274.160156 418.710938c-1.5625 1.5625-4.09375 1.5625-5.65625 0l-128.632813-128.648438 5.65625-5.65625 128.632813 128.640625c1.554687 1.5625 1.554687 4.085938 0 5.648438zm0 0"/><path d="m439.761719 329.96875c-2.320313-2.234375-5.738281-2.894531-8.722657-1.679688-.976562.386719-1.875.957032-2.640624 1.679688-.703126.78125-1.273438 1.671875-1.679688 2.640625-.410156.960937-.625 1.996094-.636719 3.039063-.078125 3.257812 1.910157 6.207031 4.957031 7.363281.964844.410156 1.996094.625 3.042969.636719 2.125.023437 4.175781-.8125 5.679688-2.316407 1.503906-1.507812 2.339843-3.554687 2.320312-5.683593-.015625-1.042969-.230469-2.078126-.640625-3.039063-.40625-.96875-.976562-1.859375-1.679687-2.640625zm0 0"/><path d="m434.082031 287.648438c-4.421875 0-8 3.582031-8 8v16c0 4.421874 3.578125 8 8 8 4.417969 0 8-3.578126 8-8v-16c0-4.417969-3.582031-8-8-8zm0 0"/><path d="m411.457031 301.707031c-3.140625-3.03125-8.128906-2.988281-11.214843.097657-3.085938 3.085937-3.128907 8.074218-.097657 11.214843l11.3125 11.320313c3.136719 3.03125 8.128907 2.988281 11.214844-.097656 3.085937-3.085938 3.128906-8.078126.097656-11.214844zm0 0"/><path d="m411.457031 346.960938-11.3125 11.320312c-2.078125 2.007812-2.914062 4.984375-2.183593 7.78125.734374 2.796875 2.917968 4.980469 5.714843 5.714844 2.796875.730468 5.773438-.101563 7.78125-2.183594l11.3125-11.320312c3.03125-3.136719 2.988281-8.128907-.097656-11.214844-3.085937-3.085938-8.078125-3.128906-11.214844-.097656zm0 0"/><path d="m434.082031 351.648438c-4.421875 0-8 3.582031-8 8v16c0 4.421874 3.578125 8 8 8 4.417969 0 8-3.578126 8-8v-16c0-4.417969-3.582031-8-8-8zm0 0"/><path d="m456.703125 346.960938c-3.136719-3.03125-8.128906-2.988282-11.214844.097656-3.085937 3.085937-3.128906 8.078125-.097656 11.214844l11.3125 11.320312c3.140625 3.03125 8.128906 2.988281 11.214844-.097656 3.085937-3.085938 3.128906-8.074219.097656-11.214844zm0 0"/><path d="m474.082031 327.648438h-16c-4.421875 0-8 3.582031-8 8 0 4.421874 3.578125 8 8 8h16c4.417969 0 8-3.578126 8-8 0-4.417969-3.582031-8-8-8zm0 0"/><path d="m451.046875 326.683594c2.121094 0 4.15625-.84375 5.65625-2.34375l11.3125-11.320313c3.03125-3.140625 2.988281-8.128906-.097656-11.214843-3.085938-3.085938-8.074219-3.128907-11.214844-.097657l-11.3125 11.320313c-2.285156 2.285156-2.96875 5.726562-1.730469 8.714844 1.238282 2.992187 4.152344 4.9375 7.386719 4.941406zm0 0"/></svg>