<svg height="474pt" viewBox="-14 0 474 474.27109" width="474pt" xmlns="http://www.w3.org/2000/svg"><path d="m440.671875 440.101562-123.144531-123.054687 21.855468-21.839844c.175782 1.398438.28125 2.878907.335938 4.648438-.542969 8.597656 2.636719 17.015625 8.730469 23.109375 6.09375 6.089844 14.511719 9.269531 23.109375 8.722656 4.519531-.679688 9.09375.828125 12.324218 4.058594 3.230469 3.234375 4.734376 7.804687 4.054688 12.324218-.539062 8.609376 2.644531 17.03125 8.742188 23.128907 6.097656 6.101562 14.519531 9.289062 23.128906 8.75 4.511718-.578125 9.042968.914062 12.328125 4.058593 3.140625 3.03125 8.128906 2.988282 11.214843-.097656 3.085938-3.085937 3.128907-8.074218.097657-11.214844-6.128907-6.050781-14.53125-9.230468-23.128907-8.753906-4.527343.6875-9.109374-.820312-12.34375-4.058594-3.234374-3.238281-4.738281-7.824218-4.046874-12.347656.53125-8.605468-2.65625-17.023437-8.753907-23.117187-6.09375-6.09375-14.515625-9.277344-23.121093-8.738281-4.503907.664062-9.0625-.839844-12.285157-4.0625-3.222656-3.21875-4.730469-7.773438-4.066406-12.28125.183594-5.789063-1.121094-11.53125-3.789063-16.671876l5.023438-5.058593c9.351562-9.378907 9.351562-24.558594 0-33.941407l-186.6875-186.695312 7.902344-7.90625c4.292968-4.296875 5.785156-10.65625 3.84375-16.414062-1.9375-5.757813-6.96875-9.917969-12.988282-10.746094l-159.785156-21.824219c-2.480468-.351563-4.980468.492187-6.742187 2.273437-1.769531 1.765626-2.609375 4.257813-2.273438 6.734376l21.816407 159.785156c.8125 6.035156 4.980468 11.089844 10.753906 13.03125 5.773437 1.941406 12.152344.4375 16.445312-3.878906l7.90625-7.90625 186.679688 186.691406c9.371094 9.367187 24.5625 9.367187 33.9375 0l11.511718-11.511719 123.09375 123.039063c3.703126 3.785156 8.769532 5.921874 14.066407 5.933593h.117187c5.304688.007813 10.394532-2.101562 14.136719-5.863281 3.777344-3.699219 5.90625-8.761719 5.914063-14.046875.023437-5.355469-2.105469-10.492187-5.914063-14.257813zm-220.101563-129.132812 90.527344-90.53125 8.6875 8.691406-90.527344 90.527344zm-20-20 90.527344-90.53125 8.6875 8.691406-90.527344 90.527344zm-20-20 90.527344-90.53125 8.6875 8.691406-90.527344 90.527344zm-20-20 90.527344-90.53125 8.6875 8.691406-90.527344 90.527344zm-20-20 90.527344-90.53125 8.6875 8.691406-90.527344 90.527344zm-20-20 90.527344-90.53125 8.6875 8.691406-90.527344 90.527344zm-20-20 90.527344-90.53125 8.6875 8.691406-90.527344 90.527344zm-62.683593-24.257812-20.398438-149.359376 149.390625 20.359376zm121.050781-98.398438 20.847656 20.847656-90.527344 90.496094-20.847656-20.847656zm107.496094 277.199219c-3.125 3.121093-8.1875 3.121093-11.3125 0l-14.550782-14.542969 90.527344-90.53125 14.542969 14.554688c3.121094 3.121093 3.121094 8.1875 0 11.3125zm162.976562 111.511719h-.050781c-.75.769531-1.777344 1.207031-2.855469 1.207031-1.050781-.011719-2.050781-.445313-2.777344-1.207031l-123.15625-123.015626 5.644532-5.648437 123.144531 123.0625c.773437.757813 1.207031 1.792969 1.199219 2.875 0 1.023437-.417969 2.007813-1.148438 2.726563zm0 0"/></svg>