<svg height="485pt" viewBox="0 -2 485.90605 485" width="485pt" xmlns="http://www.w3.org/2000/svg"><path d="m258.929688 482.070312h-32c-2.210938.003907-4.324219-.90625-5.839844-2.515624-1.515625-1.609376-2.296875-3.773438-2.160156-5.980469l6.464843-103.449219c.984375-15.78125.355469-31.625-1.878906-47.277344l-12.503906-87.640625c-.332031-2.296875.355469-4.625 1.875-6.375 1.519531-1.753906 3.722656-2.761719 6.042969-2.761719h32c3.980468 0 7.355468 2.925782 7.921874 6.863282l12.519532 87.640625c2.386718 16.738281 3.0625 33.675781 2.007812 50.550781l-6.449218 103.441406c-.261719 4.222656-3.765626 7.511719-8 7.503906zm-23.488282-16h16l5.992188-95.945312c.984375-15.78125.355468-31.625-1.878906-47.277344l-11.558594-80.777344h-15.839844l11.199219 78.503907c2.386719 16.738281 3.0625 33.675781 2.007812 50.550781zm0 0"/><path d="m186.929688 482.070312h-32c-4.03125 0-7.433594-3.003906-7.933594-7.007812l-10.730469-85.792969c-3.292969-26.246093-13.367187-51.183593-29.230469-72.351562l-38.617187-54.207031c-1.734375-2.4375-1.964844-5.644532-.59375-8.304688 1.371093-2.660156 4.113281-4.332031 7.105469-4.335938h32c2.585937 0 5.011718 1.253907 6.511718 3.359376l38.503906 54.007812c17.476563 23.355469 28.574219 50.855469 32.195313 79.800781l10.726563 85.839844c.285156 2.277344-.421876 4.566406-1.941407 6.285156-1.515625 1.722657-3.699219 2.707031-5.996093 2.707031zm-24.933594-16h15.871094l-9.601563-76.800781c-3.292969-26.246093-13.367187-51.183593-29.230469-72.351562l-36.222656-50.847657h-12.355469l29.488281 41.367188c17.476563 23.355469 28.574219 50.855469 32.195313 79.800781zm0 0"/><path d="m330.929688 482.070312h-32c-2.292969 0-4.476563-.984374-5.996094-2.707031-1.515625-1.71875-2.222656-4.007812-1.9375-6.285156l10.582031-84.695313c3.75-29.683593 14.074219-58.160156 30.214844-83.351562l40.53125-59.464844c1.488281-2.1875 3.960937-3.496094 6.605469-3.496094h32c2.964843 0 5.6875 1.640626 7.070312 4.261719 1.386719 2.621094 1.207031 5.792969-.460938 8.242188l-40.398437 59.296875c-14.792969 23.128906-24.25 49.257812-27.691406 76.496094l-10.582031 84.695312c-.5 4.003906-3.902344 7.007812-7.9375 7.007812zm-22.933594-16h15.871094l9.710937-77.6875c3.75-29.683593 14.074219-58.160156 30.214844-83.351562l32-46.960938h-12.628907l-38.023437 55.800782c-14.792969 23.128906-24.25 49.257812-27.691406 76.496094zm0 0"/><path d="m191.019531 221.984375c-2.417969-.003906-4.707031-1.097656-6.222656-2.980469-1.519531-1.878906-2.105469-4.347656-1.59375-6.710937l8.695313-40.277344-35.632813-20.722656c-2.992187-1.738281-4.523437-5.210938-3.796875-8.597657.730469-3.382812 3.554688-5.917968 7-6.273437l40.988281-4.175781 8.699219-40.289063c.726562-3.390625 3.558594-5.925781 7.007812-6.277343 3.453126-.351563 6.738282 1.558593 8.136719 4.734374l16.636719 37.703126 41-4.183594c3.441406-.308594 6.703125 1.585937 8.136719 4.730468 1.402343 3.171876.597656 6.886719-1.992188 9.199219l-30.710937 27.472657 16.648437 37.703124c1.398438 3.167969.597657 6.875-1.980469 9.1875-2.578124 2.308594-6.351562 2.699219-9.347656.964844l-35.625-20.722656-30.710937 27.472656c-1.46875 1.316406-3.367188 2.039063-5.335938 2.042969zm-5.425781-72.136719 19.371094 11.261719c2.992187 1.742187 4.527344 5.214844 3.796875 8.601563l-4.726563 21.894531 16.695313-14.933594c2.585937-2.3125 6.363281-2.699219 9.359375-.953125l19.359375 11.265625-9.046875-20.496094c-1.402344-3.175781-.601563-6.890625 1.984375-9.203125l16.695312-14.933594-22.289062 2.269532c-3.4375.324218-6.699219-1.574219-8.125-4.71875l-9.050781-20.503906-4.6875 21.871093c-.730469 3.390625-3.558594 5.921875-7.007813 6.273438zm21.480469-10.234375"/><path d="m42.042969 247.453125c-2.355469.007813-4.59375-1.023437-6.117188-2.820313-1.523437-1.792968-2.179687-4.167968-1.792969-6.492187l6.742188-40.652344-36.550781-18.976562c-3.082031-1.59375-4.785157-4.992188-4.214844-8.414063.566406-3.421875 3.273437-6.085937 6.703125-6.601562l40.75-6.152344 6.746094-40.648438c.566406-3.417968 3.269531-6.082031 6.695312-6.601562 3.425782-.488281 6.78125 1.253906 8.351563 4.335938l18.398437 36.800781 40.753906-6.144531c3.421876-.511719 6.785157 1.238281 8.335938 4.332031 1.546875 3.09375.933594 6.835937-1.527344 9.269531l-29.320312 28.984375 18.398437 36.863281c1.550781 3.097656.929688 6.84375-1.539062 9.277344s-6.222657 3-9.300781 1.402344l-36.535157-18.984375-29.351562 28.921875c-1.5 1.476562-3.519531 2.304687-5.625 2.300781zm-8.503907-71.78125 19.886719 10.320313c3.078125 1.59375 4.777344 4.992187 4.210938 8.414062l-3.664063 22.0625 15.949219-15.71875c2.46875-2.4375 6.226563-3.003906 9.304687-1.40625l19.878907 10.320312-10.023438-20.042968c-1.546875-3.097656-.929687-6.839844 1.535157-9.269532l15.960937-15.730468-22.144531 3.34375c-3.425782.503906-6.789063-1.242188-8.351563-4.335938l-10.023437-20-3.664063 22.105469c-.566406 3.417969-3.269531 6.082031-6.695312 6.601563zm20.960938-11.25"/><path d="m443.289062 247.671875c-2.125 0-4.160156-.847656-5.664062-2.351563l-29.09375-29.144531-36.753906 18.695313c-3.089844 1.574218-6.84375.976562-9.292969-1.476563-2.453125-2.457031-3.039063-6.210937-1.457031-9.300781l18.742187-36.703125-29.109375-29.152344c-2.457031-2.453125-3.050781-6.207031-1.472656-9.296875 1.574219-3.089844 4.964844-4.8125 8.390625-4.261718l40.695313 6.480468 18.738281-36.707031c1.574219-3.089844 4.960937-4.8125 8.386719-4.265625 3.425781.546875 6.109374 3.238281 6.644531 6.667969l6.398437 40.710937 40.699219 6.472656c3.425781.535157 6.117187 3.21875 6.664063 6.644532.546874 3.421875-1.175782 6.8125-4.265626 8.386718l-36.734374 18.679688 6.398437 40.710938c.363281 2.3125-.304687 4.664062-1.824219 6.441406-1.519531 1.777344-3.742187 2.800781-6.078125 2.800781zm-33.222656-49.28125c2.128906 0 4.171875.84375 5.671875 2.351563l15.824219 15.847656-3.488281-22.128906c-.546875-3.429688 1.183593-6.820313 4.28125-8.390626l20-10.152343-22.121094-3.519531c-3.421875-.546876-6.101563-3.234376-6.640625-6.65625l-3.527344-22.070313-10.183594 19.917969c-1.554687 3.105468-4.957031 4.835937-8.382812 4.265625l-22.121094-3.519531 15.824219 15.847656c2.453125 2.453125 3.042969 6.207031 1.464844 9.296875l-10.191407 19.949219 20-10.160157c1.113282-.5625 2.34375-.859375 3.589844-.863281zm0 0"/><path d="m295.089844 107.453125c-2.75.003906-5.308594-1.40625-6.773438-3.734375l-11.9375-18.960938-21.71875 5.503907c-3.359375.851562-6.882812-.558594-8.730468-3.488281-1.847657-2.933594-1.597657-6.71875.617187-9.382813l14.34375-17.214844-11.945313-18.953125c-1.851562-2.933594-1.601562-6.726562.621094-9.390625 2.21875-2.667969 5.90625-3.597656 9.125-2.304687l20.800782 8.320312 14.328124-17.21875c2.214844-2.667968 5.898438-3.601562 9.121094-2.316406 3.222656 1.289062 5.246094 4.503906 5.011719 7.964844l-1.484375 22.34375 20.796875 8.320312c3.234375 1.277344 5.269531 4.496094 5.042969 7.964844-.230469 3.46875-2.671875 6.390625-6.042969 7.234375l-21.71875 5.488281-1.472656 22.402344c-.238281 3.449219-2.671875 6.355469-6.023438 7.199219-.640625.152343-1.300781.226562-1.960937.222656zm-15.039063-39.878906c2.75 0 5.304688 1.410156 6.769531 3.734375l1.910157 3.042968.234375-3.585937c.238281-3.449219 2.667968-6.351563 6.023437-7.199219l3.480469-.878906-3.335938-1.335938c-3.222656-1.285156-5.246093-4.5-5.019531-7.960937l.242188-3.574219-2.296875 2.757813c-2.222656 2.664062-5.910156 3.589843-9.128906 2.296875l-3.328126-1.335938 1.914063 3.039063c1.84375 2.929687 1.597656 6.714843-.617187 9.375l-2.304688 2.761719 3.480469-.878907c.644531-.167969 1.308593-.257812 1.976562-.257812zm0 0"/><path d="m439.089844 91.453125c-2.75.003906-5.308594-1.40625-6.773438-3.734375l-11.9375-18.960938-21.71875 5.503907c-3.359375.851562-6.882812-.558594-8.730468-3.488281-1.847657-2.933594-1.597657-6.71875.617187-9.382813l14.34375-17.214844-11.945313-18.953125c-1.851562-2.933594-1.601562-6.726562.621094-9.390625 2.21875-2.667969 5.90625-3.597656 9.125-2.304687l20.800782 8.320312 14.328124-17.21875c2.214844-2.667968 5.898438-3.601562 9.121094-2.316406 3.222656 1.289062 5.246094 4.503906 5.011719 7.964844l-1.484375 22.34375 20.796875 8.320312c3.234375 1.277344 5.269531 4.496094 5.042969 7.964844-.230469 3.46875-2.671875 6.390625-6.042969 7.234375l-21.734375 5.480469-1.472656 22.402344c-.242188 3.449218-2.671875 6.351562-6.023438 7.199218-.636718.15625-1.289062.230469-1.945312.230469zm-15.039063-39.878906c2.75 0 5.304688 1.410156 6.769531 3.734375l1.910157 3.042968.234375-3.585937c.238281-3.449219 2.667968-6.351563 6.023437-7.199219l3.480469-.878906-3.335938-1.335938c-3.238281-1.292968-5.265624-4.527343-5.019531-8l.242188-3.578124-2.296875 2.761718c-2.210938 2.675782-5.902344 3.621094-9.128906 2.335938l-3.328126-1.335938 1.914063 3.039063c1.84375 2.929687 1.597656 6.714843-.617187 9.375l-2.304688 2.761719 3.480469-.878907c.644531-.167969 1.308593-.257812 1.976562-.257812zm0 0"/><path d="m116.011719 114.941406c-2.132813 0-4.179688-.851562-5.679688-2.363281-1.503906-1.515625-2.339843-3.566406-2.320312-5.699219l.261719-31.808594-30.140626-10.078124c-3.277343-1.109376-5.46875-4.195313-5.4375-7.652344.03125-3.453125 2.277344-6.5 5.570313-7.550782l30.328125-9.597656.265625-31.808594c.03125-3.464843 2.289063-6.515624 5.59375-7.558593s6.90625.160156 8.917969 2.980469l18.472656 25.882812 30.328125-9.601562c3.304687-1.046876 6.910156.15625 8.925781 2.976562s1.984375 6.621094-.078125 9.40625l-18.9375 25.601562 18.480469 25.878907c2.019531 2.820312 1.988281 6.621093-.074219 9.410156s-5.683593 3.933594-8.972656 2.832031l-30.183594-10.058594-18.90625 25.601563c-1.511719 2.023437-3.890625 3.210937-6.414062 3.207031zm-9.472657-57.320312 12.320313 4.121094c3.289063 1.097656 5.492187 4.191406 5.464844 7.65625l-.113281 13 7.726562-10.457032c2.0625-2.78125 5.683594-3.921875 8.96875-2.824218l12.328125 4.121093-7.550781-10.582031c-2.015625-2.824219-1.984375-6.621094.078125-9.410156l7.730469-10.441406-12.394532 3.90625c-3.304687 1.042968-6.902344-.15625-8.917968-2.976563l-7.554688-10.574219-.09375 13c-.03125 3.464844-2.292969 6.519532-5.601562 7.558594zm9.992188-11.550782"/></svg>