<svg height="480pt" viewBox="0 0 480.0001 480" width="480pt" xmlns="http://www.w3.org/2000/svg"><path d="m247.359375 236.960938c-.40625-.96875-.972656-1.863282-1.679687-2.640626-3.207032-2.960937-8.152344-2.960937-11.359376 0-.707031.777344-1.273437 1.671876-1.679687 2.640626-.449219.949218-.667969 1.988281-.640625 3.039062.015625.535156.066406 1.070312.160156 1.601562.085938.5.25.984376.480469 1.4375.175781.511719.417969.996094.71875 1.441407.296875.417969.617187.820312.960937 1.199219 3.15625 3.09375 8.203126 3.09375 11.359376 0l.960937-1.199219c.300781-.449219.539063-.933594.71875-1.441407.234375-.449218.394531-.9375.472656-1.4375.097657-.53125.15625-1.066406.167969-1.601562-.011719-1.046875-.230469-2.078125-.640625-3.039062zm0 0"/><path d="m248 112c0-4.417969-3.582031-8-8-8s-8 3.582031-8 8v96c0 4.417969 3.582031 8 8 8s8-3.582031 8-8zm0 0"/><path d="m211.71875 223.023438c3.140625 3.03125 8.128906 2.988281 11.214844-.097657 3.085937-3.085937 3.128906-8.074219.097656-11.214843l-67.878906-67.878907c-3.125-3.125-8.195313-3.125-11.320313 0s-3.125 8.195313 0 11.320313zm0 0"/><path d="m112 232c-4.417969 0-8 3.582031-8 8s3.582031 8 8 8h96c4.417969 0 8-3.582031 8-8s-3.582031-8-8-8zm0 0"/><path d="m223.03125 256.976562c-3.125-3.125-8.1875-3.125-11.3125 0l-67.886719 67.871094c-3.125 3.125-3.125 8.195313 0 11.320313s8.195313 3.125 11.320313 0l67.878906-67.878907c3.125-3.125 3.125-8.1875 0-11.3125zm0 0"/><path d="m240 264c-4.417969 0-8 3.582031-8 8v96c0 4.417969 3.582031 8 8 8s8-3.582031 8-8v-96c0-4.417969-3.582031-8-8-8zm0 0"/><path d="m268.28125 256.976562c-3.140625-3.03125-8.128906-2.988281-11.214844.097657-3.085937 3.085937-3.128906 8.074219-.097656 11.214843l67.878906 67.878907c3.125 3.125 8.195313 3.125 11.320313 0s3.125-8.195313 0-11.320313zm0 0"/><path d="m272 232c-4.417969 0-8 3.582031-8 8s3.582031 8 8 8h96c4.417969 0 8-3.582031 8-8s-3.582031-8-8-8zm0 0"/><path d="m256.96875 223.023438c3.125 3.125 8.1875 3.125 11.3125 0l67.886719-67.871094c3.125-3.125 3.125-8.195313 0-11.320313s-8.195313-3.125-11.320313 0l-67.878906 67.878907c-3.125 3.125-3.125 8.1875 0 11.3125zm0 0"/><path d="m376 112h71.953125c8.5.027344 16.660156-3.332031 22.675781-9.339844 6.011719-6.003906 9.386719-14.160156 9.371094-22.660156.03125-17.578125-14.148438-31.882812-31.726562-32h-16.273438v-15.9375c.066406-17.574219-14.074219-31.898438-31.648438-32.0625h-.421874c-8.488282.0078125-16.621094 3.390625-22.609376 9.402344-5.992187 6.011718-9.34375 14.160156-9.320312 22.644531v71.953125c0 4.417969 3.582031 8 8 8zm8-79.953125c-.011719-4.257813 1.671875-8.34375 4.683594-11.359375 3.011718-3.011719 7.097656-4.699219 11.355468-4.6875h.074219c4.203125.082031 8.21875 1.753906 11.246094 4.671875 3.019531 2.992187 4.691406 7.078125 4.640625 11.328125v24c0 4.417969 3.582031 8 8 8h24.046875c4.21875.027344 8.257813 1.699219 11.257813 4.664062 6.207031 6.261719 6.230468 16.351563.046874 22.640626-3.023437 3.039062-7.136718 4.738281-11.421874 4.71875h-63.929688zm0 0"/><path d="m104 368h-71.953125c-8.5-.027344-16.660156 3.332031-22.671875 9.339844-6.015625 6.003906-9.390625 14.160156-9.375 22.660156-.03125 17.578125 14.148438 31.882812 31.726562 32h16.273438v15.910156c-.078125 17.585938 14.066406 31.925782 31.648438 32.089844h.421874c8.488282-.007812 16.621094-3.390625 22.613282-9.402344 5.988281-6.011718 9.339844-14.160156 9.316406-22.644531v-71.953125c0-4.417969-3.582031-8-8-8zm-8 79.953125c.011719 4.25-1.667969 8.332031-4.667969 11.34375-3.003906 3.011719-7.082031 4.703125-11.332031 4.703125h-.070312c-4.238282-.003906-8.300782-1.691406-11.289063-4.691406-2.988281-3.003906-4.65625-7.074219-4.640625-11.308594v-24c0-4.417969-3.582031-8-8-8h-24.070312c-6.457032-.015625-12.269532-3.910156-14.738282-9.875-2.472656-5.964844-1.117187-12.828125 3.433594-17.40625 3.019531-3.039062 7.136719-4.738281 11.421875-4.71875h63.953125zm0 0"/><path d="m352 136c2.121094 0 4.15625-.84375 5.65625-2.34375l8-8c3.03125-3.140625 2.988281-8.128906-.097656-11.214844-3.085938-3.085937-8.074219-3.128906-11.214844-.097656l-8 8c-2.285156 2.289062-2.972656 5.730469-1.734375 8.71875s4.15625 4.9375 7.390625 4.9375zm0 0"/><path d="m122.34375 346.34375-8 8c-2.078125 2.007812-2.914062 4.984375-2.179688 7.78125.730469 2.796875 2.914063 4.980469 5.710938 5.710938 2.796875.734374 5.773438-.101563 7.78125-2.179688l8-8c3.03125-3.140625 2.988281-8.128906-.097656-11.214844-3.085938-3.085937-8.074219-3.128906-11.214844-.097656zm0 0"/><path d="m24 104.921875 25.816406-3.097656 10.917969 23.59375c2.546875 5.664062 8.191406 9.300781 14.402344 9.277343.671875 0 1.339843-.039062 2.007812-.121093 6.917969-.757813 12.519531-5.957031 13.792969-12.796875l5.0625-25.496094 25.808594-3.105469c6.878906-.828125 12.445312-5.992187 13.785156-12.789062 1.34375-6.800781-1.847656-13.6875-7.898438-17.066407l-22.71875-12.664062 5.03125-25.496094c1.339844-6.800781-1.851562-13.6875-7.90625-17.0625-6.050781-3.375-13.585937-2.472656-18.667968 2.238282l-19.066406 17.664062-22.703126-12.65625c-6.054687-3.378906-13.597656-2.472656-18.679687 2.242188-5.082031 4.71875-6.550781 12.171874-3.632813 18.460937l10.929688 23.585937-19.082031 17.679688c-5.078125 4.714844-6.539063 12.164062-3.625 18.453125 2.914062 6.285156 9.546875 9.980469 16.425781 9.15625zm17.160156-33.5625c5.082032-4.714844 6.554688-12.164063 3.640625-18.457031l-10.9375-23.582032 22.710938 12.664063c6.050781 3.371094 13.585937 2.46875 18.664062-2.242187l19.082031-17.78125v.101562l-5.03125 25.496094c-1.34375 6.804687 1.847657 13.695312 7.902344 17.074218l22.703125 12.664063-25.796875 3.09375c-6.890625.824219-12.464844 5.992187-13.800781 12.800781l-5.023437 25.503906-10.921876-23.597656c-2.621093-5.648437-8.277343-9.261718-14.503906-9.265625-.644531 0-1.289062.039063-1.925781.121094l-25.808594 3.09375zm0 0"/><path d="m460.800781 374.71875-25.761719 3.488281-11.269531-23.414062c-3.007812-6.246094-9.691406-9.847657-16.5625-8.921875-6.867187.929687-12.359375 6.171875-13.597656 12.992187l-4.648437 25.601563-25.761719 3.488281c-6.867188.929687-12.355469 6.179687-13.589844 12.996094-1.238281 6.820312 2.054687 13.664062 8.160156 16.945312l22.871094 12.320313-4.640625 25.546875c-1.328125 6.828125 1.988281 13.722656 8.152344 16.949219 2.351562 1.285156 4.984375 1.960937 7.664062 1.96875 4.105469-.015626 8.042969-1.625 10.984375-4.488282l18.800781-17.960937 22.894532 12.320312c6.101562 3.285157 13.625 2.265625 18.632812-2.523437 5.011719-4.785156 6.371094-12.253906 3.367188-18.5l-11.296875-23.421875 18.792969-17.960938c5.011718-4.789062 6.367187-12.257812 3.363281-18.503906-3.003907-6.246094-9.6875-9.847656-16.554688-8.921875zm-16.640625 33.816406c-5.03125 4.777344-6.390625 12.261719-3.359375 18.503906l11.269531 23.433594-22.886718-12.328125c-6.105469-3.289062-13.632813-2.273437-18.648438 2.519531l-18.773437 17.960938 4.628906-25.5625c1.265625-6.824219-2.035156-13.6875-8.160156-16.957031l-22.878907-12.320313 25.761719-3.480468c6.878907-.914063 12.378907-6.167969 13.597657-13l4.648437-25.601563 11.273437 23.410156c2.984376 6.269531 9.6875 9.882813 16.566407 8.925781l25.753906-3.480468zm0 0"/><path d="m125.65625 114.34375c-3.140625-3.03125-8.128906-2.988281-11.214844.097656-3.085937 3.085938-3.128906 8.074219-.097656 11.214844l8 8c3.140625 3.03125 8.128906 2.988281 11.214844-.097656 3.085937-3.085938 3.128906-8.074219.097656-11.214844zm0 0"/><path d="m360 368c3.234375 0 6.152344-1.949219 7.390625-4.9375s.550781-6.429688-1.734375-8.71875l-8-8c-3.140625-3.03125-8.128906-2.988281-11.214844.097656-3.085937 3.085938-3.128906 8.074219-.097656 11.214844l8 8c1.5 1.5 3.535156 2.34375 5.65625 2.34375zm0 0"/><path d="m240 80c13.253906 0 24-10.746094 24-24s-10.746094-24-24-24-24 10.746094-24 24 10.746094 24 24 24zm0-32c4.417969 0 8 3.582031 8 8s-3.582031 8-8 8-8-3.582031-8-8 3.582031-8 8-8zm0 0"/><path d="m240 408c-13.253906 0-24 10.746094-24 24s10.746094 24 24 24 24-10.746094 24-24-10.746094-24-24-24zm0 32c-4.417969 0-8-3.582031-8-8s3.582031-8 8-8 8 3.582031 8 8-3.582031 8-8 8zm0 0"/><path d="m400 232c-4.417969 0-8 3.582031-8 8s3.582031 8 8 8h16c4.417969 0 8-3.582031 8-8s-3.582031-8-8-8zm0 0"/><path d="m80 232h-16c-4.417969 0-8 3.582031-8 8s3.582031 8 8 8h16c4.417969 0 8-3.582031 8-8s-3.582031-8-8-8zm0 0"/><path d="m456 216c-13.253906 0-24 10.746094-24 24s10.746094 24 24 24 24-10.746094 24-24-10.746094-24-24-24zm0 32c-4.417969 0-8-3.582031-8-8s3.582031-8 8-8 8 3.582031 8 8-3.582031 8-8 8zm0 0"/><path d="m24 264c13.253906 0 24-10.746094 24-24s-10.746094-24-24-24-24 10.746094-24 24 10.746094 24 24 24zm0-32c4.417969 0 8 3.582031 8 8s-3.582031 8-8 8-8-3.582031-8-8 3.582031-8 8-8zm0 0"/></svg>