<svg height="479pt" viewBox="0 -57 479.49026 479" width="479pt" xmlns="http://www.w3.org/2000/svg"><path d="m4.128906 15.328125c9.234375 4.980469 18.777344 9.375 28.570313 13.152344l-29.601563 110.398437c-.847656 3.132813.28125 6.46875 2.859375 8.441406 2.574219 1.972657 6.089844 2.195313 8.894531.558594l51.863282-29.917968 29.925781 51.871093c1.429687 2.472657 4.070313 4 6.929687 4 .347657-.003906.695313-.023437 1.039063-.066406 3.210937-.417969 5.851563-2.734375 6.6875-5.863281l30.191406-112.625c13.882813 1.898437 27.953125 3.371094 42.082031 4.394531v106.160156c0 4.417969 3.582032 8 8 8h96c4.417969 0 8-3.582031 8-8v-106.183593c16.910157-1.25 33.601563-3.089844 49.925782-5.546876l71.402344 108.136719c1.894531 2.882813 5.417968 4.226563 8.75 3.335938 3.332031-.890625 5.71875-3.8125 5.921874-7.253907l7.6875-127.058593c12.347657-4.460938 24.359376-9.808594 35.9375-16 3.875-2.125 5.292969-6.988281 3.167969-10.863281-2.125-3.875-6.992187-5.292969-10.867187-3.167969-12.375 6.609375-25.253906 12.226562-38.519532 16.800781-11.460937 4-23.742187 7.582031-36.6875 10.769531-.496093.117188-.949218.261719-1.445312.382813-.730469.175781-1.515625.320312-2.25.496094-12.800781 3.039062-26.296875 5.710937-40.390625 7.925781-19.800781 3.152343-40.351563 5.417969-61.113281 6.722656-31.628906 2-63.347656 2-94.976563 0-18.597656-1.152344-37.214843-3.089844-55.3125-5.769531-31.253906-4.371094-61.984375-11.902344-91.71875-22.480469-11.445312-4.085937-22.566406-9.027344-33.273437-14.78125-3.859375-2.007813-8.613282-.558594-10.703125 3.257813-2.089844 3.816406-.746094 8.601562 3.023437 10.773437zm96.722656 129.773437-24.273437-42.070312c-2.210937-3.828125-7.101563-5.136719-10.929687-2.929688l-42.078126 24.273438 24.246094-90.496094c25.351563 8.460938 51.355469 14.8125 77.753906 18.992188zm178.71875-37.421874c-4.941406-2.859376-7.984374-8.136719-7.984374-13.847657 0-5.710937 3.042968-10.988281 7.984374-13.847656zm137.464844 25.726562-54.167968-82.039062c2.398437-.425782 4.664062-.902344 7-1.351563 1.808593-.351563 3.621093-.6875 5.414062-1.046875 6.503906-1.320312 12.914062-2.707031 19.121094-4.203125.535156-.132813 1.039062-.277344 1.601562-.40625 5.703125-1.398437 11.246094-2.894531 16.6875-4.457031 1.710938-.488282 3.398438-.992188 5.078125-1.496094 1.679688-.503906 3.464844-.984375 5.136719-1.511719zm-137.464844-72.695312v2.257812c-14.113281 3.589844-23.992187 16.296875-23.992187 30.863281 0 14.5625 9.878906 27.269531 23.992187 30.863281v33.136719h-80v-97.121093c12.847657.6875 26.152344 1.121093 40 1.121093 13.847657 0 27.199219-.433593 40-1.121093zm0 0"/><path d="m467.488281 193.296875c-10.699219 5.753906-21.8125 10.699219-33.253906 14.789063-29.71875 10.574218-60.433594 18.105468-91.671875 22.472656-18.113281 2.679687-36.730469 4.617187-55.359375 5.769531-31.625 2-63.34375 2-94.96875 0-20.738281-1.304687-41.289063-3.570313-61.105469-6.722656-7.464844-1.167969-14.746094-2.453125-21.839844-3.863281-.40625-.078126-.800781-.175782-1.191406-.261719-19.574218-3.816407-38.863281-8.976563-57.726562-15.449219-13.261719-4.578125-26.144532-10.195312-38.519532-16.800781-3.875-2.125-8.742187-.707031-10.867187 3.167969s-.707031 8.738281 3.167969 10.863281c11.582031 6.1875 23.589844 11.535156 35.9375 16l7.6875 127.050781c.214844 3.429688 2.597656 6.34375 5.917968 7.230469 3.324219.890625 6.839844-.445313 8.738282-3.3125l71.398437-108.136719c16.304688 2.464844 33.035157 4.296875 49.929688 5.546875v106.191406c0 4.417969 3.582031 8 8 8h96c4.417969 0 8-3.582031 8-8v-106.160156c14.136719-1.03125 28.207031-2.496094 42.082031-4.394531l30.191406 112.625c.835938 3.128906 3.476563 5.445312 6.6875 5.863281.347656.042969.695313.0625 1.046875.066406 2.855469-.003906 5.492188-1.527343 6.921875-4l29.917969-51.871093 51.871094 29.917968c2.804687 1.617188 6.304687 1.390625 8.871093-.582031 2.570313-1.96875 3.695313-5.292969 2.859376-8.417969l-29.601563-110.398437c9.792969-3.777344 19.335937-8.167969 28.570313-13.152344 2.570312-1.335937 4.21875-3.960937 4.308593-6.859375.085938-2.898438-1.402343-5.617188-3.890625-7.105469-2.488281-1.488281-5.585937-1.515625-8.101562-.066406zm-187.757812 59.414063v22.929687l-66.335938-22.265625c8.574219.289062 17.375.457031 26.335938.457031 13.855469 0 27.167969-.433593 40-1.121093zm-80 60.070312v-15.109375l80 26.847656v15.121094zm80-5.140625-80-26.859375v-15.109375l80 26.847656zm-217.464844 17.765625-5.839844-96.511719c1.65625.519531 3.390625.992188 5.070313 1.496094 1.683594.503906 3.457031 1.03125 5.210937 1.535156 5.375 1.539063 10.847657 3.007813 16.472657 4.394531.589843.144532 1.160156.3125 1.75.453126 6.183593 1.496093 12.566406 2.875 19.039062 4.1875 1.832031.367187 3.6875.710937 5.546875 1.0625 2.308594.449218 4.574219.917968 6.917969 1.34375zm137.464844 4.265625 60.070312 20.160156h-60.070312zm213.910156-37.601563c-3.824219-2.203124-8.710937-.890624-10.917969 2.929688l-24.273437 42.09375-24.71875-92.222656c26.394531-4.175782 52.402343-10.527344 77.75-18.992188l24.25 90.496094zm0 0"/><path d="m231.570312 149.832031c13.253907 0 24-10.746093 24-24 0-13.253906-10.746093-24-24-24-13.253906 0-24 10.746094-24 24 0 13.253907 10.746094 24 24 24zm0-32c4.417969 0 8 3.582031 8 8s-3.582031 8-8 8c-4.417968 0-8-3.582031-8-8s3.582032-8 8-8zm0 0"/><path d="m223.570312 85.832031c3.769532-.039062 6.992188-2.730469 7.699219-6.433593.707031-3.703126-1.292969-7.394532-4.785156-8.820313-3.488281-1.425781-7.5-.191406-9.589844 2.949219-2.085937 3.140625-1.671875 7.316406.996094 9.984375 1.535156 1.460937 3.5625 2.289062 5.679687 2.320312zm0 0"/><path d="m68.53125 70.472656c-.980469.386719-1.875.957032-2.640625 1.679688-3.105469 3.128906-3.09375 8.183594.03125 11.296875 3.121094 3.113281 8.175781 3.113281 11.296875 0s3.136719-8.167969.03125-11.296875c-2.300781-2.269532-5.742188-2.933594-8.71875-1.679688zm0 0"/><path d="m41.890625 88.152344c-3.136719 3.136718-3.136719 8.222656 0 11.359375s8.222656 3.136719 11.359375 0 3.136719-8.222657 0-11.359375c-3.136719-3.136719-8.222656-3.136719-11.359375 0zm0 0"/><path d="m69.25 59.511719c1.460938-1.535157 2.289062-3.5625 2.320312-5.679688.027344-1.050781-.191406-2.089843-.640624-3.039062-.386719-.980469-.957032-1.878907-1.679688-2.640625-3.207031-2.960938-8.152344-2.960938-11.359375 0-.742187.75-1.3125 1.648437-1.679687 2.640625-.410157.960937-.628907 1.992187-.640626 3.039062-.019531 3.25 1.929688 6.1875 4.933594 7.433594 3 1.246094 6.457032.554687 8.746094-1.753906zm0 0"/><path d="m89.890625 96.152344c-3.105469 3.128906-3.09375 8.183594.03125 11.296875 3.121094 3.113281 8.175781 3.113281 11.296875 0s3.136719-8.167969.03125-11.296875c-3.214844-2.941406-8.144531-2.941406-11.359375 0zm0 0"/><path d="m109.25 64.152344c-2.316406-2.238282-5.738281-2.898438-8.71875-1.679688-.96875.402344-1.863281.972656-2.640625 1.679688-.742187.75-1.3125 1.648437-1.679687 2.640625-.410157.960937-.628907 1.992187-.640626 3.039062.011719.535157.066407 1.070313.160157 1.597657.085937.503906.25.988281.480469 1.441406.175781.511718.414062.996094.71875 1.441406l.960937 1.199219c3.152344 3.09375 8.203125 3.09375 11.359375 0l.960938-1.199219c.300781-.445312.542968-.929688.71875-1.441406.230468-.453125.394531-.9375.480468-1.441406.09375-.527344.144532-1.0625.160156-1.597657-.03125-2.117187-.859374-4.148437-2.320312-5.679687zm0 0"/></svg>