<svg height="480pt" viewBox="0 0 480 480" width="480pt" xmlns="http://www.w3.org/2000/svg"><path d="m472 0h-464c-4.417969 0-8 3.582031-8 8v464c0 4.417969 3.582031 8 8 8h464c4.417969 0 8-3.582031 8-8v-464c0-4.417969-3.582031-8-8-8zm-8 200h-81.03125c1.035156-5.34375-.730469-10.851562-4.683594-14.59375s-9.546875-5.207031-14.828125-3.878906l-83.457031 17.785156v-183.3125h184zm0 64h-91.199219l-18.640625-24 18.640625-24h91.199219zm-238.199219 13.183594c-4.691406-1.726563-9.007812-4.332032-12.722656-7.679688-.886719-.734375-1.714844-1.539062-2.476563-2.398437l-.144531-.160157-.058593-.082031c-.046876-.0625-.125-.121093-.183594-.183593-.054688-.0625-.167969-.191407-.261719-.289063-.898437-1.09375-1.738281-2.238281-2.511719-3.421875-.59375-.800781-1.273437-1.601562-1.792968-2.480469-.679688-1.226562-1.296876-2.492187-1.839844-3.785156-.410156-.878906-.921875-1.71875-1.265625-2.625-.5-1.46875-.914063-2.960937-1.246094-4.476563-.191406-.800781-.503906-1.601562-.65625-2.402343-.863281-4.742188-.863281-9.601563 0-14.34375.160156-.847657.480469-1.648438.6875-2.480469.324219-1.492188.730469-2.960938 1.222656-4.40625.34375-.898438.847657-1.710938 1.25-2.585938.550781-1.308593 1.175781-2.585937 1.863281-3.832031.527344-.871093 1.214844-1.648437 1.808594-2.480469.765625-1.167968 1.59375-2.292968 2.480469-3.375.117187-.121093.238281-.246093.351563-.375l.070312-.074218.097656-.09375c.859375-1.042969 1.824219-1.996094 2.871094-2.847656 11.234375-9.71875 26.863281-12.566407 40.800781-7.433594 4.691407 1.726562 9.007813 4.332031 12.71875 7.679687.886719.734375 1.71875 1.539063 2.480469 2.402344l.144531.160156.054688.078125c.050781.066406.128906.121094.183593.183594.058594.066406.167969.191406.265626.289062.894531 1.089844 1.730468 2.230469 2.503906 3.40625.59375.839844 1.28125 1.601563 1.800781 2.496094.675781 1.222656 1.289063 2.480469 1.832031 3.769532.414063.886718.925782 1.726562 1.269532 2.640624.496093 1.460938.910156 2.949219 1.242187 4.457032.199219.796875.511719 1.597656.664063 2.398437.445312 2.363281.675781 4.761719.695312 7.167969 0 2.414062-.21875 4.824219-.65625 7.199219-.152344.800781-.464844 1.601562-.671875 2.402343-.324219 1.503907-.738281 2.988282-1.230469 4.445313-.335937.890625-.800781 1.695313-1.242187 2.5625-.550781 1.316406-1.175781 2.605469-1.871094 3.855469-.519531.863281-1.199219 1.597656-1.785156 2.445312-.773438 1.179688-1.609375 2.320313-2.503907 3.410156-.117187.121094-.238281.246094-.351562.375l-.070312.074219-.097657.09375c-.859375 1.042969-1.824219 1.996094-2.871093 2.847657-11.234376 9.753906-26.886719 12.617187-40.847657 7.472656zm-35.199219-10.847656-77.800781 16.59375 25.679688-33.136719c4.460937-5.765625 4.460937-13.820313 0-19.585938l-25.496094-32.902343.222656-.121094 77.386719 16.480468c-.136719.246094-.226562.519532-.355469.800782-.796875 1.597656-1.542969 3.152344-2.191406 4.800781-.109375.261719-.238281.527344-.34375.796875-.71875 1.898438-1.335937 3.832031-1.847656 5.792969-.136719.550781-.246094 1.105469-.375 1.65625-.34375 1.503906-.628907 3.023437-.855469 4.558593-.082031.59375-.175781 1.1875-.242188 1.785157-.511718 4.105469-.511718 8.261719 0 12.367187.066407.601563.160157 1.191406.242188 1.792969.222656 1.527344.503906 3.039063.855469 4.542969.128906.5625.238281 1.121094.382812 1.671875.503907 1.964843 1.121094 3.898437 1.839844 5.792969.105469.265624.234375.519531.335937.800781.667969 1.648437 1.410157 3.246093 2.226563 4.800781.132813.214844.207031.472656.335937.710938zm-174.601562-50.335938h91.199219l18.625 24-1.648438 2.121094-16.976562 21.878906h-91.199219zm273.761719 49.601562c.796875-1.601562 1.542969-3.152343 2.191406-4.800781.109375-.273437.238281-.535156.34375-.800781.71875-1.894531 1.335937-3.828125 1.847656-5.792969.136719-.550781.246094-1.101562.375-1.65625.34375-1.503906.628907-3.023437.855469-4.558593.082031-.59375.175781-1.183594.242188-1.785157.511718-4.105469.511718-8.261719 0-12.367187-.066407-.601563-.160157-1.199219-.25-1.800782-.214844-1.527343-.496094-3.03125-.800782-4.535156-.132812-.558594-.246094-1.121094-.390625-1.671875-.503906-1.960937-1.117187-3.890625-1.839843-5.785156-.105469-.269531-.230469-.535156-.34375-.800781-.65625-1.636719-1.398438-3.246094-2.214844-4.796875-.121094-.242188-.210938-.496094-.335938-.738281l77.757813-16.640626-25.679688 33.136719c-4.460937 5.765625-4.460937 13.820313 0 19.585938l25.496094 32.902343-.222656.121094-77.386719-16.480468c.136719-.246094.195312-.519532.355469-.734376zm-25.761719-249.601562v173.425781c-.375-.1875-.800781-.304687-1.160156-.480469-1.253906-.5625-2.511719-1.097656-3.808594-1.601562-.640625-.238281-1.296875-.441406-1.941406-.65625-1.1875-.375-2.402344-.71875-3.585938-1.023438-.679687-.167968-1.359375-.328124-2.046875-.472656-1.273437-.269531-2.5625-.480468-3.863281-.65625-.609375-.085937-1.21875-.191406-1.832031-.253906-3.832031-.429688-7.699219-.429688-11.53125 0-.597657.0625-1.175781.167969-1.765625.246094-1.34375.175781-2.671875.394531-4 .671875-.617188.128906-1.226563.28125-1.839844.425781-1.34375.335938-2.679688.714844-4 1.144531-.488281.160157-.984375.308594-1.464844.488281-1.703125.605469-3.367187 1.289063-4.992187 2.046876l-.183594.078124v-173.382812zm-64 0v183.296875l-82.96875-17.601563c-5.3125-1.515624-11.035156-.164062-15.113281 3.566407-4.074219 3.730469-5.925781 9.308593-4.886719 14.738281h-81.03125v-184zm-184 264h81.03125c-.875 4.480469.222656 9.121094 3.007812 12.734375 3.015626 3.910156 7.664063 6.222656 12.601563 6.265625 1.320313.003906 2.632813-.171875 3.902344-.527344l83.457031-17.785156v183.3125h-184zm200 184v-173.425781c.328125.160156.6875.265625 1.015625.417969 1.382813.625 2.785156 1.199218 4.207031 1.710937.386719.136719.800782.265625 1.160156.386719 11.515626 3.90625 24 3.878906 35.496094-.074219l.679688-.222656c1.796875-.625 3.5625-1.34375 5.28125-2.152344l.160156-.066406v173.425781zm64 0v-183.296875l82.96875 17.601563c5.3125 1.515624 11.035156.164062 15.113281-3.566407 4.074219-3.730469 5.925781-9.308593 4.886719-14.738281h81.03125v184zm0 0"/><path d="m317.207031 123.945312c1.15625 3.285157 4.347657 5.410157 7.824219 5.214844l31.785156-1.304687 11.054688 29.832031c1.164062 3.132812 4.152344 5.214844 7.496094 5.214844h.328124c3.464844-.140625 6.441407-2.492188 7.375-5.832032l8.59375-30.621093 31.777344-1.296875c3.457032-.144532 6.433594-2.5 7.367188-5.835938.933594-3.332031-.382813-6.890625-3.265625-8.8125l-26.464844-17.601562 8.585937-30.621094c.929688-3.335938-.394531-6.890625-3.277343-8.808594-2.882813-1.914062-6.667969-1.761718-9.386719.382813l-24.953125 19.71875-26.445313-17.679688c-2.886718-1.921875-6.679687-1.765625-9.398437.382813-2.71875 2.152344-3.746094 5.808594-2.539063 9.058594l11.03125 29.863281-24.941406 19.730469c-2.703125 2.140624-3.730468 5.773437-2.546875 9.015624zm44.503907-28.898437-4.511719-12.183594 10.816406 7.199219c2.886719 1.925781 6.679687 1.769531 9.398437-.382812l10.195313-8.078126-3.503906 12.519532c-.929688 3.328125.386719 6.878906 3.261719 8.800781l10.816406 7.199219-12.984375.527344c-3.460938.140624-6.4375 2.496093-7.375 5.832031l-3.503907 12.558593-4.519531-12.191406c-1.164062-3.132812-4.152343-5.214844-7.496093-5.214844h-.328126l-12.992187.527344 10.214844-8.054687c2.710937-2.160157 3.722656-5.8125 2.511719-9.058594zm0 0"/><path d="m56.855469 125.6875 31.800781.929688 8.945312 30.527343c.972657 3.324219 3.980469 5.644531 7.445313 5.742188h.234375c3.367188 0 6.375-2.117188 7.519531-5.285157l10.710938-29.945312 31.792969.9375c3.449218.042969 6.554687-2.078125 7.765624-5.304688 1.167969-3.261718.101563-6.90625-2.636718-9.023437l-25.175782-19.441406 10.710938-29.953125c1.144531-3.25.078125-6.867188-2.644531-8.980469-2.722657-2.113281-6.492188-2.242187-9.355469-.324219l-26.273438 17.9375-25.167968-19.441406c-2.738282-2.144531-6.550782-2.273438-9.429688-.320312-2.875 1.953124-4.160156 5.542968-3.175781 8.882812l8.933594 30.527344-26.269531 17.925781c-2.867188 1.953125-4.148438 5.53125-3.175782 8.859375s3.980469 5.648438 7.445313 5.75zm35.816406-22.597656c2.878906-1.949219 4.171875-5.53125 3.199219-8.867188l-3.648438-12.460937 10.289063 7.933593c2.742187 2.117188 6.53125 2.230469 9.390625.28125l10.746094-7.328124-4.375 12.238281c-1.167969 3.261719-.101563 6.90625 2.636718 9.023437l10.289063 7.945313-13-.375c-3.460938-.097657-6.59375 2.042969-7.757813 5.304687l-4.386718 12.230469-3.648438-12.480469c-.972656-3.324218-3.976562-5.640625-7.4375-5.742187l-13.023438-.394531zm0 0"/><path d="m159.199219 390.320312-23.679688-21.222656 12.832031-29.097656c1.402344-3.167969.605469-6.882812-1.972656-9.195312-2.582031-2.3125-6.355468-2.703126-9.355468-.964844l-27.511719 16-23.679688-21.230469c-2.582031-2.3125-6.359375-2.703125-9.355469-.960937-2.996093 1.738281-4.535156 5.210937-3.804687 8.597656l6.679687 31.097656-27.511718 16c-3 1.738281-4.539063 5.214844-3.808594 8.605469.730469 3.386719 3.558594 5.921875 7.007812 6.273437l31.640626 3.257813 6.6875 31.085937c.722656 3.394532 3.550781 5.933594 7 6.289063h.800781c3.164062 0 6.03125-1.867188 7.3125-4.757813l12.871093-29.082031 31.640626 3.25c3.441406.3125 6.703124-1.585937 8.136718-4.730469 1.421875-3.164062.644532-6.886718-1.929687-9.214844zm-41.941407-5.839843c-3.445312-.335938-6.714843 1.5625-8.128906 4.71875l-5.265625 11.890625-2.726562-12.707032c-.726563-3.386718-3.554688-5.921874-7-6.277343l-12.96875-1.304688 11.199219-6.527343c3-1.742188 4.535156-5.210938 3.808593-8.601563l-2.726562-12.710937 9.75 8.640624c2.582031 2.308594 6.355469 2.695313 9.351562.957032l11.203125-6.519532-5.265625 11.882813c-1.402343 3.171875-.601562 6.886719 1.984375 9.199219l9.679688 8.671875zm0 0"/><path d="m428.472656 376.992188-28.191406-14.746094 5.304688-31.359375c.578124-3.414063-1.109376-6.816407-4.179688-8.421875-3.070312-1.605469-6.824219-1.054688-9.300781 1.367187l-22.730469 22.265625-28.183594-14.746094c-3.070312-1.601562-6.820312-1.046874-9.296875 1.375-2.476562 2.421876-3.109375 6.160157-1.574219 9.265626l14.144532 28.503906-22.738282 22.238281c-2.449218 2.429687-3.066406 6.15625-1.527343 9.246094 1.535156 3.089843 4.882812 4.84375 8.296875 4.355469l31.503906-4.609376 14.136719 28.480469c1.355469 2.734375 4.148437 4.460938 7.199219 4.449219.394531 0 .785156-.03125 1.175781-.089844 3.429687-.503906 6.140625-3.160156 6.71875-6.574218l5.304687-31.359376 31.394532-4.632812c3.425781-.507812 6.136718-3.160156 6.714843-6.578125.582031-3.414063-1.105469-6.8125-4.171875-8.421875zm-42.097656 4.664062c-3.421875.507812-6.132812 3.164062-6.710938 6.574219l-2.167968 12.800781-5.785156-11.640625c-1.347657-2.71875-4.121094-4.445313-7.160157-4.445313-.390625 0-.785156.03125-1.175781.085938l-12.855469 1.898438 9.289063-9.089844c2.484375-2.417969 3.132812-6.160156 1.597656-9.273438l-5.773438-11.644531 11.511719 6.023437c3.070313 1.605469 6.824219 1.054688 9.304688-1.371093l9.285156-9.09375-2.167969 12.800781c-.574218 3.417969 1.113282 6.816406 4.1875 8.421875l11.511719 6.023437zm0 0"/></svg>