<svg height="480pt" viewBox="-104 0 480 480.02929" width="480pt" xmlns="http://www.w3.org/2000/svg"><path d="m272.015625 192.027344c0-13.257813-10.746094-24-24-24h-7.097656c22.683593-22.921875 29.351562-57.234375 16.90625-86.980469-12.449219-29.746094-41.566407-49.085937-73.808594-49.019531-5.105469.046875-10.195313.582031-15.199219 1.597656-26.09375-30.5625-68.476562-41.609375-106.167968-27.675781-37.691407 13.933593-62.695313 49.890625-62.632813 90.078125.0507812 28.054687 12.339844 54.691406 33.648437 72.941406-3.980468 1.03125-7.609374 3.121094-10.503906 6.039062-4.605468 4.460938-7.183594 10.609376-7.144531 17.019532.042969 10.132812 6.445313 19.148437 16 22.527344v33.472656c.054687 19.734375 14.511719 36.472656 34.03125 39.398437l59.847656 179.550781c2.605469 7.796876 9.902344 13.050782 18.121094 13.050782s15.515625-5.253906 18.117187-13.050782l59.84375-179.542968c19.523438-2.921875 33.988282-19.667969 34.039063-39.40625v-33.449219c3.339844-1.132813 6.371094-3.03125 8.855469-5.535156 4.601562-4.460938 7.183594-10.609375 7.144531-17.015625zm-24-80c.042969 23.316406-12.660156 44.796875-33.113281 56h-61.808594c-2.082031-1.148438-4.089844-2.425782-6.007812-3.832032-20.320313-14.351562-30.480469-39.183593-26.035157-63.660156 4.441407-24.476562 22.679688-44.15625 46.746094-50.445312 19.1875-4.984375 39.601563-.808594 55.289063 11.304687 15.691406 12.117188 24.894531 30.808594 24.929687 50.632813zm-232-16c-.015625-32.1875 19.253906-61.246094 48.910156-73.753906 29.652344-12.507813 63.914063-6.027344 86.953125 16.449218-.089844 0-.160156.09375-.25.136719-3.160156 1.398437-6.226562 3-9.183594 4.796875-.480468.296875-.964843.585938-1.445312.890625-2.816406 1.796875-5.519531 3.773437-8.089844 5.910156l-1.3125 1.136719c-2.542968 2.203125-4.949218 4.566406-7.199218 7.070312-.246094.289063-.480469.59375-.726563.882813-2.242187 2.566406-4.320313 5.277344-6.21875 8.109375-.09375.152344-.214844.296875-.308594.449219-1.875 2.894531-3.558593 5.902343-5.050781 9.007812-.230469.480469-.480469.953125-.703125 1.441407-1.390625 3.035156-2.589844 6.15625-3.59375 9.34375-.183594.582031-.351563 1.167968-.527344 1.757812-.957031 3.265625-1.707031 6.589844-2.238281 9.953125-.074219.488281-.121094.976563-.183594 1.472656-.527344 3.625-.804687 7.28125-.832031 10.945313.011719 2.964844.191406 5.925781.535156 8.871094.105469.933593.28125 1.855468.414063 2.78125.296875 2 .640625 4 1.089844 5.945312.238281 1.046875.503906 2.082031.800781 3.121094.503906 1.847656 1.070312 3.664062 1.695312 5.464844.34375 1 .671875 1.992187 1.0625 2.972656.800781 1.976562 1.65625 3.90625 2.585938 5.808594.34375.722656.640625 1.457031 1.007812 2.160156 1.3125 2.472656 2.746094 4.875 4.304688 7.199218.582031.867188 1.230469 1.675782 1.839843 2.523438 1.085938 1.488281 2.191407 2.964844 3.382813 4.382812.800781.9375 1.601563 1.832032 2.398437 2.734376.609376.664062 1.160157 1.371093 1.792969 2.007812h-65.839843c-27.527344-13.421875-45.015626-41.347656-45.070313-71.972656zm200 176h-24.609375c-4.417969 0-8 3.578125-8 8 0 4.417968 3.582031 8 8 8h13.503906l-57.953125 173.871094c-.5 1.179687-1.660156 1.945312-2.941406 1.945312-1.285156 0-2.441406-.765625-2.945313-1.945312l-57.953124-173.871094h76.625c4.417968 0 8-3.582032 8-8 0-4.421875-3.582032-8-8-8h-87.726563c-13.253906 0-24-10.746094-24-24v-32h192v32c0 13.253906-10.746094 24-24 24zm37.542969-74.296875c-1.460938 1.484375-3.460938 2.3125-5.542969 2.296875h-208c-4.417969 0-8-3.582032-8-8-.003906-2.160156.882813-4.226563 2.457031-5.707032 1.457032-1.484374 3.460938-2.3125 5.542969-2.292968h208c4.417969 0 8 3.578125 8 8 .003906 2.15625-.886719 4.222656-2.457031 5.703125zm0 0"/><path d="m68.976562 71.386719c2.976563 1.273437 6.429688.609375 8.71875-1.679688 2.289063-2.289062 2.957032-5.746093 1.679688-8.722656-.386719-.976563-.957031-1.875-1.679688-2.640625-3.207031-2.957031-8.152343-2.957031-11.359374 0-.722657.765625-1.292969 1.664062-1.679688 2.640625-1.277344 2.976563-.613281 6.429687 1.679688 8.722656.765624.722657 1.660156 1.292969 2.640624 1.679688zm0 0"/><path d="m96.566406 59.066406c.472656.953125 1.066406 1.839844 1.769532 2.640625 3.152343 3.09375 8.203124 3.09375 11.359374 0 .703126-.78125 1.273438-1.671875 1.679688-2.640625.851562-1.9375.851562-4.144531 0-6.082031-.386719-.976563-.957031-1.875-1.679688-2.640625-1.921874-1.875-4.644531-2.683594-7.28125-2.160156-.5.089844-.984374.25-1.4375.480468-.511718.175782-1 .417969-1.449218.722657-.414063.296875-.8125.617187-1.191406.957031-.722657.765625-1.292969 1.664062-1.679688 2.640625-.449219.949219-.667969 1.992187-.640625 3.042969-.015625 1.039062.171875 2.070312.550781 3.039062zm0 0"/><path d="m85.695312 133.707031c2.289063-2.292969 2.953126-5.746093 1.679688-8.722656-.386719-.976563-.957031-1.875-1.679688-2.640625-3.207031-2.957031-8.152343-2.957031-11.359374 0-.722657.765625-1.292969 1.664062-1.679688 2.640625-1.453125 3.523437-.222656 7.582031 2.945312 9.703125 3.167969 2.117188 7.390626 1.707031 10.09375-.980469zm0 0"/><path d="m93.695312 146.34375c-3.207031-2.957031-8.152343-2.957031-11.359374 0-.722657.765625-1.292969 1.664062-1.679688 2.640625-.855469 1.9375-.855469 4.144531 0 6.082031.40625.96875.972656 1.859375 1.679688 2.640625 3.152343 3.09375 8.203124 3.09375 11.359374 0 .703126-.78125 1.273438-1.671875 1.679688-2.640625.855469-1.9375.855469-4.144531 0-6.082031-.386719-.976563-.957031-1.875-1.679688-2.640625zm0 0"/><path d="m43.054688 103.386719c2.011718-.730469 3.59375-2.3125 4.320312-4.320313.851562-1.9375.851562-4.144531 0-6.082031-.386719-.976563-.957031-1.875-1.679688-2.640625-2.324218-2.226562-5.738281-2.886719-8.71875-1.679688-2.011718.730469-3.59375 2.3125-4.320312 4.320313-.449219.949219-.667969 1.992187-.640625 3.042969-.015625 1.039062.171875 2.070312.550781 3.039062.472656.953125 1.066406 1.839844 1.769532 2.640625 2.289062 2.289063 5.742187 2.953125 8.71875 1.679688zm0 0"/><path d="m58.335938 101.707031c.765624.722657 1.660156 1.292969 2.640624 1.679688 1.933594.851562 4.140626.851562 6.078126 0 2.011718-.730469 3.59375-2.3125 4.320312-4.320313.851562-1.9375.851562-4.144531 0-6.082031-.386719-.976563-.957031-1.875-1.679688-2.640625-2.300781-2.269531-5.742187-2.929688-8.71875-1.679688-.980468.386719-1.875.957032-2.640624 1.679688-1.464844 1.53125-2.296876 3.5625-2.320313 5.683594-.015625 1.039062.171875 2.070312.550781 3.039062.472656.953125 1.066406 1.839844 1.769532 2.640625zm0 0"/><path d="m34.335938 69.707031c2.289062 2.289063 5.742187 2.953125 8.71875 1.679688.96875-.410157 1.859374-.976563 2.640624-1.679688 2.289063-2.292969 2.953126-5.746093 1.679688-8.722656-.386719-.976563-.957031-1.875-1.679688-2.640625-2.300781-2.269531-5.742187-2.929688-8.71875-1.679688-2.011718.730469-3.59375 2.3125-4.320312 4.320313-.449219.949219-.667969 1.992187-.640625 3.042969-.015625 1.039062.171875 2.070312.550781 3.039062.472656.953125 1.066406 1.839844 1.769532 2.640625zm0 0"/><path d="m80.015625 48.027344c2.121094-.003906 4.15625-.84375 5.65625-2.347656l8-8c2.078125-2.007813 2.914063-4.980469 2.179687-7.777344-.730468-2.796875-2.914062-4.980469-5.710937-5.714844-2.800781-.730469-5.773437.101562-7.78125 2.183594l-8 8c-2.289063 2.285156-2.972656 5.726562-1.734375 8.714844 1.238281 2.988281 4.15625 4.9375 7.390625 4.941406zm0 0"/><path d="m56.015625 144.027344c3.234375-.003906 6.152344-1.953125 7.386719-4.941406 1.238281-2.988282.554687-6.429688-1.730469-8.714844l-8-8c-3.140625-3.035156-8.128906-2.988282-11.214844.097656-3.085937 3.085938-3.128906 8.074219-.097656 11.210938l8 8c1.5 1.503906 3.535156 2.34375 5.65625 2.347656zm0 0"/><path d="m88.015625 88.027344c-4.417969 0-8 3.578125-8 8v8c0 4.417968 3.582031 8 8 8s8-3.582032 8-8v-8c0-4.421875-3.582031-8-8-8zm0 0"/></svg>