<svg height="480pt" viewBox="-112 0 480 480.00744" width="480pt" xmlns="http://www.w3.org/2000/svg"><path d="m256.003906 216.007812c-.03125-8.957031-5.058594-17.144531-13.03125-21.226562 22.136719-56.191406-10.898437-112-40.160156-136.871094-38.257812-32.527344-101.328125-56.398437-104-57.398437-2.238281-.839844-4.738281-.636719-6.808594.558593-2.070312 1.191407-3.5 3.25-3.894531 5.609376-.074219.449218-8 44.597656-44.183594 65.136718-21.410156 12.359375-36.363281 33.4375-40.953125 57.726563-4.757812 22.328125-1.648437 45.613281 8.800782 65.914062-1.679688.972657-3.226563 2.160157-4.601563 3.535157-4.609375 4.457031-7.1992188 10.601562-7.16796875 17.015624.04296875 10.132813 6.44531275 19.148438 15.99999975 22.527344v41.472656c.042969 19.359376 13.941406 35.90625 33 39.296876l21.039063 140.269531c1.71875 11.777343 11.84375 20.488281 23.746093 20.433593h68.429688c11.902344.054688 22.03125-8.660156 23.746094-20.441406l21.039062-140.261718c19.058594-3.390626 32.957032-19.9375 33-39.296876v-41.449218c3.339844-1.132813 6.375-3.027344 8.855469-5.535156 4.601563-4.460938 7.183594-10.605469 7.144531-17.015626zm-237.359375-83.199218c3.675781-19.777344 15.792969-36.96875 33.183594-47.082032 24.53125-15.109374 42.339844-39.039062 49.777344-66.871093 18.359375 7.589843 62.621093 27.253906 90.839843 51.246093 36.683594 28.882813 50.566407 78.117188 34.375 121.90625h-198.496093c-10.585938-17.804687-14.042969-38.953124-9.679688-59.199218zm181.359375 171.199218h-96.609375c-4.417969 0-8 3.582032-8 8 0 4.417969 3.582031 8 8 8h87.320313l-20.574219 137.175782c-.605469 3.910156-3.960937 6.804687-7.921875 6.824218h-68.429688c-3.957031-.019531-7.3125-2.910156-7.921874-6.816406l-20.574219-137.183594h6.472656c4.417969 0 8-3.582031 8-8 0-4.417968-3.582031-8-8-8h-15.761719c-13.253906 0-24-10.746093-24-24v-40h192v40c0 13.253907-10.746094 24-24 24zm37.542969-82.296874c-1.457031 1.488281-3.460937 2.316406-5.542969 2.296874h-208c-4.417968 0-8-3.582031-8-8-.003906-2.160156.886719-4.222656 2.457032-5.703124 1.457031-1.488282 3.460937-2.316407 5.542968-2.296876h208c4.417969 0 8 3.582032 8 8 .003906 2.160157-.882812 4.222657-2.457031 5.703126zm0 0"/></svg>