<svg height="479pt" viewBox="-7 0 479 479.9725" width="479pt" xmlns="http://www.w3.org/2000/svg"><path d="m392.484375 335.972656h-22.75l-132.089844-315.878906c-4.589843-12.054688-16.125-20.0390625-29.019531-20.09375-12.898438-.0546875-24.5 7.832031-29.195312 19.84375l-152.261719 364.128906h-2.683594c-13.253906 0-24 10.746094-24 24s10.746094 24 24 24h28.089844c10.175781 28.777344 37.390625 48.011719 67.910156 48h272c39.765625 0 72-32.234375 72-72s-32.234375-72-72-72zm-20 48h-188.414063l169.214844-45.886718zm-209.980469-282.175781 82.613282-22.359375 11.777343 28.160156-109.207031 29.65625zm-22.648437 54.175781 123.269531-33.488281 11.808594 28.238281-149.910156 40.699219zm-22.648438 54.160156 163.953125-44.503906 11.796875 28.222656-190.582031 51.722657zm-22.65625 54.160157 204.640625-55.550781 11.808594 28.238281-231.203125 62.6875zm-22.609375 54.078125 245.28125-66.496094 11.800782 28.21875-271.914063 73.71875zm122.351563-292.597656c2.269531-5.929688 7.984375-9.828126 14.332031-9.773438s11.992188 4.050781 14.15625 10.019531l16.105469 38.527344-68.578125 18.5625zm-145.007813 346.742187 285.960938-77.542969 11.808594 28.199219-224.121094 60.800781h-78.449219zm-32.800781 35.457031c0-4.417968 3.582031-8 8-8h368c4.421875 0 8 3.582032 8 8 0 4.417969-3.578125 8-8 8h-368c-4.417969 0-8-3.582031-8-8zm415.648437 39.609375c-10.515624 10.507813-24.777343 16.40625-39.648437 16.390625h-272c-21.605469-.023437-41.273437-12.476562-50.535156-32h322.535156c13.257813 0 24-10.746094 24-24s-10.742187-24-24-24h-2.679687l-13.375-32h16.054687c22.644531.015625 43.058594 13.65625 51.730469 34.574219 8.675781 20.917969 3.90625 45-12.082032 61.035156zm0 0"/></svg>