<svg height="483pt" viewBox="-1 0 483 483.75" width="483pt" xmlns="http://www.w3.org/2000/svg"><path d="m456.375 435.75h-6l-111.296875-305.976562c14.683594-5.207032 23.480469-20.234376 20.835937-35.585938-2.640624-15.351562-15.957031-26.570312-31.535156-26.570312s-28.894531 11.21875-31.535156 26.570312c-2.644531 15.351562 6.152344 30.378906 20.835938 35.585938l-40.625 111.753906-.054688.101562v.066406l-8 21.894532-15.679688-37.183594c-.042968-.105469-.128906-.167969-.175781-.265625l-34.9375-82.816406-2.398437-5.644531-15.433594-36.664063 9.769531 7.09375c2.800781 2.039063 6.601563 2.039063 9.402344.003906 2.804687-2.039062 3.980469-5.652343 2.90625-8.949219l-9.832031-30.246093 25.730468-18.695313c2.808594-2.042968 3.980469-5.660156 2.898438-8.960937-1.078125-3.300781-4.164062-5.527344-7.636719-5.511719h-31.796875l-9.832031-30.246094c-1.082031-3.285156-4.144531-5.503906-7.601563-5.503906-3.457031 0-6.519531 2.21875-7.601562 5.503906l-9.847656 30.246094h-31.796875c-3.46875 0-6.539063 2.230469-7.613281 5.527344-1.070313 3.296875.105468 6.90625 2.90625 8.945312l25.730468 18.695313-9.832031 30.246093c-1.074219 3.296876.101563 6.910157 2.90625 8.949219 2.804687 2.035157 6.601563 2.035157 9.40625-.003906l9.734375-7.09375-40.230469 95.351563-24.800781 58.71875v.039062l-76.273438 180.625h-2.695312c-13.222656.074219-23.925781 10.777344-24 24 0 13.253906 10.746094 24 24 24h432c13.222656-.074219 23.925781-10.777344 24-24 0-13.253906-10.746094-24-24-24zm-112 0h-2.695312l-15.578126-36.902344 104.722657 29.957032 2.527343 6.945312zm-102.449219-195.136719 18.089844 42.855469c-10.851563 1.644531-21.433594-4.285156-25.703125-14.394531-4.265625-10.113281-1.132812-21.832031 7.613281-28.460938zm47.769531 12.960938 86.398438 24.65625 12.746094 35.046875-109.441406-31.246094zm15.792969-43.425781 51.101563 14.601562 12.714844 34.9375-74.128907-21.183594zm-.226562 139.34375 107.914062 30.816406 10.886719 29.921875-105.953125-30.3125zm-8-18.917969-12.839844-30.398438 111.152344 31.671875 10.871093 29.894532zm13.699219-135.496094 17.414062-47.921875 21.464844 58.992188zm1.414062-95.328125c0-8.835938 7.164062-16 16-16s16 7.164062 16 16-7.164062 16-16 16-16-7.164062-16-16zm-89.769531 95.199219c-2.03125.542969-4.125.8125-6.230469.800781-10.792969-.019531-20.242188-7.242188-23.097656-17.648438-2.855469-10.410156 1.585937-21.441406 10.859375-26.96875zm-49.855469-143.199219c3.464844 0 6.539062-2.230469 7.609375-5.527344l4.015625-12.359375 4 12.359375c1.074219 3.300782 4.152344 5.535156 7.625 5.527344h13l-10.511719 7.640625c-2.808593 2.035156-3.984375 5.644531-2.914062 8.945313l4 12.359374-10.511719-7.640624c-2.804688-2.039063-6.601562-2.039063-9.40625 0l-10.511719 7.640624 4-12.359374c1.066407-3.300782-.109375-6.910157-2.914062-8.945313l-10.480469-7.640625zm-28.375 176c0 12.566406-9.691406 23.007812-22.222656 23.9375l16.621094-39.363281c3.621093 4.324219 5.605468 9.785156 5.601562 15.425781zm-57.175781 106.839844c17.828125 7.101562 28.097656 25.863281 24.476562 44.707031-3.617187 18.84375-20.113281 32.464844-39.300781 32.453125-5.628906.019531-11.195312-1.164062-16.328125-3.472656zm-37.351563 88.359375c7.089844 3.160156 14.765625 4.796875 22.527344 4.800781 26.785156-.019531 49.808594-19.007812 54.925781-45.300781 5.117188-26.292969-9.101562-52.53125-33.925781-62.59375l22.152344-52.480469c1.605468.222656 3.226562.347656 4.847656.375 16.96875.023438 32.101562-10.679688 37.730469-26.6875 5.632812-16.003906.539062-33.824219-12.707031-44.433594l38.976562-92.3125 13.601562 32.113282c-18.566406 9.519531-26.648437 31.746093-18.53125 50.96875 8.113282 19.21875 29.679688 28.929687 49.449219 22.261718l6.769531 16c-16.988281 10.242188-23.867187 31.40625-16.15625 49.675782 7.714844 18.273437 27.683594 28.101562 46.867188 23.070312l57.9375 137.34375h-279.875zm-33.472656 36.800781c-.003906-2.15625.886719-4.21875 2.457031-5.695312 1.453125-1.496094 3.457031-2.328126 5.542969-2.304688h320c4.417969 0 8 3.582031 8 8 .003906 2.15625-.882812 4.214844-2.449219 5.695312-1.457031 1.492188-3.464843 2.324219-5.550781 2.304688h-320c-4.417969 0-8-3.582031-8-8zm445.550781 5.695312c-1.457031 1.492188-3.464843 2.324219-5.550781 2.304688h-89.359375c.246094-.6875.375-1.425781.558594-2.136719.113281-.472656.273437-.925781.359375-1.40625.285156-1.46875.433594-2.960937.441406-4.457031-.007812-1.511719-.160156-3.019531-.457031-4.503906-.085938-.472656-.238281-.902344-.351563-1.359375-.183594-.710938-.320312-1.449219-.558594-2.136719h89.367188c4.417969 0 8 3.582031 8 8 .003906 2.15625-.882812 4.214844-2.449219 5.695312zm0 0"/><path d="m212.589844 340.917969 25.730468-18.695313c2.800782-2.039062 3.976563-5.648437 2.90625-8.945312-1.074218-3.296875-4.144531-5.527344-7.613281-5.527344h-31.796875l-9.832031-30.246094c-1.082031-3.285156-4.144531-5.503906-7.601563-5.503906-3.457031 0-6.519531 2.21875-7.601562 5.503906l-9.847656 30.246094h-31.796875c-3.46875 0-6.539063 2.230469-7.613281 5.527344-1.070313 3.296875.105468 6.90625 2.90625 8.945312l25.730468 18.695313-9.832031 30.246093c-1.074219 3.296876.101563 6.910157 2.90625 8.949219 2.804687 2.035157 6.601563 2.035157 9.40625-.003906l25.734375-18.695313 25.734375 18.695313c2.804687 2.039063 6.601563 2.039063 9.40625.003906 2.804687-2.039062 3.980469-5.652343 2.90625-8.949219zm-17.015625-.582031 4 12.359374-10.511719-7.640624c-2.804688-2.039063-6.601562-2.039063-9.40625 0l-10.511719 7.640624 4-12.359374c1.066407-3.300782-.109375-6.910157-2.914062-8.945313l-10.480469-7.640625h13c3.464844 0 6.539062-2.230469 7.609375-5.527344l4-12.359375 4 12.359375c1.070313 3.296875 4.140625 5.527344 7.609375 5.527344h13l-10.515625 7.640625c-2.792969 2.042969-3.953125 5.652344-2.878906 8.945313zm0 0"/><path d="m264.375 363.75c-17.671875 0-32 14.328125-32 32s14.328125 32 32 32 32-14.328125 32-32-14.328125-32-32-32zm0 48c-8.835938 0-16-7.164062-16-16s7.164062-16 16-16 16 7.164062 16 16-7.164062 16-16 16zm0 0"/></svg>