<svg height="480pt" viewBox="0 -1 480 480" width="480pt" xmlns="http://www.w3.org/2000/svg"><path d="m4.660156 15.097656c8.105469 4.363282 16.46875 8.242188 25.039063 11.609375l8.894531 114.472657c.253906 3.386718 2.625 6.246093 5.90625 7.125 3.28125.882812 6.761719-.40625 8.679688-3.214844l57.917968-84.535156 7.496094 96.625c.253906 3.386718 2.625 6.246093 5.90625 7.125 3.28125.882812 6.761719-.40625 8.679688-3.214844l62.0625-90.558594 37.390624 105.734375c1.132813 3.199219 4.152344 5.335937 7.546876 5.335937 3.390624-.003906 6.410156-2.144531 7.535156-5.34375l37.253906-105.695312 62.050781 90.527344c1.917969 2.800781 5.394531 4.085937 8.671875 3.207031 3.277344-.882813 5.644532-3.734375 5.902344-7.117187l7.496094-96.609376 57.929687 84.519532c1.917969 2.800781 5.394531 4.085937 8.671875 3.207031 3.277344-.882813 5.644532-3.734375 5.902344-7.117187l8.90625-114.417969c8.609375-3.441407 17.023438-7.359375 25.199219-11.734375 3.878906-2.117188 5.304687-6.980469 3.1875-10.859375-2.117188-3.878907-6.980469-5.308594-10.859375-3.1875-9.09375 4.90625-18.5 9.210937-28.152344 12.894531-3.382812 1.386719-6.847656 2.695312-10.402344 3.929688-15.507812 5.339843-31.320312 9.757812-47.351562 13.238281-5.628906 1.238281-11.378906 2.398437-17.238282 3.488281l-.113281.039062-.367187.074219c-1.160156.269531-2.332032.480469-3.511719.628907-4 .800781-8 1.480468-12.207031 2.113281-19.808594 3.144531-40.359375 5.402343-60.976563 6.703125l-5.449219.3125h-.472656c-13.488281.800781-27.574218 1.199218-41.6875 1.199218-6.992187 0-14.023437-.09375-21.09375-.285156-6.96875-.203125-13.875-.496094-20.617187-.890625h-.847657l-4.96875-.300781c-18.585937-1.144531-37.199218-3.089844-55.28125-5.761719-6.152343-.945312-12.152343-1.902343-18.070312-3h-.054688l-3.921874-.703125c-23.664063-4.304687-46.925782-10.578125-69.542969-18.753906l-1.921875-.703125c-1.007813-.375-2.007813-.800781-3.007813-1.183594l-.632812-.257812c-9.546875-3.589844-18.839844-7.832031-27.804688-12.695313-3.855469-1.953125-8.566406-.496094-10.640625 3.296875-2.074218 3.792969-.761718 8.546875 2.96875 10.734375zm48.132813 102.242188-6.542969-84.242188c2.519531.882813 5.144531 1.707032 7.746094 2.554688 1.191406.382812 2.351562.800781 3.558594 1.167968 5.167968 1.597657 10.472656 3.152344 15.917968 4.65625 1.082032.292969 2.210938.566407 3.304688.855469 4.464844 1.179688 9 2.304688 13.601562 3.375 1.703125.398438 3.421875.800781 5.160156 1.167969 1.597657.351562 3.144532.734375 4.800782 1.082031zm80 16-6.238281-80.535156c2.75.453124 5.542968.886718 8.375 1.320312 8.6875 1.285156 17.503906 2.398438 26.402343 3.316406 2.8125.304688 5.644531.515625 8.476563.800782 4.539062.425781 9.066406.914062 13.601562 1.25zm107.371093 16.261718-31.355468-88.644531c2.105468.085938 4.265625.125 6.402344.199219 1.902343.0625 3.792968.128906 5.710937.175781 6.160156.160157 12.34375.246094 18.550781.261719h.730469c6.464844 0 12.871094-.109375 19.199219-.269531 1.792968-.050781 3.535156-.113281 5.3125-.167969 2.214844-.074219 4.472656-.113281 6.65625-.210938zm187.199219-32.230468-47.59375-69.441406c1.128907-.230469 2.207031-.503907 3.320313-.742188 1.96875-.425781 3.90625-.863281 5.847656-1.304688 3.5625-.816406 7.078125-1.660156 10.542969-2.527343 1.800781-.457031 3.601562-.902344 5.378906-1.367188 3.808594-1.007812 7.527344-2.066406 11.199219-3.136719 1.304687-.382812 2.632812-.746093 3.917968-1.136718 4.746094-1.441406 9.402344-2.925782 13.914063-4.496094zm-73.722656-64.566406-6.238281 80.527343-50.59375-73.832031c5.28125-.394531 10.496094-.984375 15.738281-1.503906 3.199219-.3125 6.398437-.554688 9.527344-.90625 9.816406-1.109375 19.535156-2.398438 29.0625-3.902344.832031-.121094 1.671875-.25 2.503906-.382812zm0 0"/><path d="m296.097656 253.601562c0-30.925781-25.070312-56-56-56-30.925781 0-56 25.074219-56 56 0 28.472657 21.136719 81.664063 50.769532 87.425782l9.4375 18.894531c2.417968 4.804687 2.820312 10.375 1.125 15.476563-1.695313 5.105468-5.351563 9.320312-10.164063 11.726562-16.355469 8.121094-24.078125 27.171875-18 44.390625l6.953125 39.511719c.6875 3.808594 4.007812 6.578125 7.878906 6.574218.46875 0 .933594-.039062 1.394532-.117187 4.351562-.765625 7.257812-4.914063 6.492187-9.265625l-7.085937-40.214844c-.089844-.488281-.21875-.96875-.390626-1.433594-3.664062-9.695312.613282-20.585937 9.894532-25.199218 17.855468-8.960938 25.105468-30.675782 16.214844-48.566406l-6.847657-13.707032c26.214844-11.511718 44.328125-59.09375 44.328125-85.496094zm-56 72c-19.4375 0-40-46.824218-40-72 0-22.089843 17.910156-40 40-40 22.09375 0 40 17.910157 40 40 0 25.175782-20.558594 72-40 72zm0 0"/><path d="m404.164062 356.425781c-4.3125-2.457031-7.40625-6.597656-8.546874-11.425781-1.140626-4.832031-.222657-9.917969 2.527343-14.042969l9.890625-14.84375c5.265625-7.878906 8.070313-17.144531 8.0625-26.621093v-8.578126l48.535156-48.535156c6.027344-5.988281 9.417969-14.128906 9.425782-22.625.011718-8.496094-3.363282-16.644531-9.375-22.648437-5.996094-6.019531-14.144532-9.402344-22.640625-9.402344-8.496094 0-16.644531 3.382813-22.640625 9.402344l-11.304688 11.296875-11.253906-11.261719c-9.140625-9.136719-22.875-11.890625-34.832031-6.980469s-19.792969 16.519532-19.875 29.441406c-.03125 8.542969 3.363281 16.738282 9.425781 22.753907l48.535156 48.558593v8.578126c.007813 6.320312-1.863281 12.496093-5.375 17.75l-9.886718 14.839843c-5.210938 7.820313-6.945313 17.449219-4.785157 26.59375 2.160157 9.140625 8.015625 16.980469 16.175781 21.640625 5.054688 2.886719 8.386719 8.054688 8.9375 13.847656.546876 5.796876-1.761718 11.496094-6.1875 15.277344l-15.039062 12.90625c-10.398438 8.914063-13.972656 23.457032-8.886719 36.175782l9.597657 24.046874c1.21875 3.046876 4.171874 5.039063 7.449218 5.03125 1.015625.003907 2.023438-.1875 2.96875-.566406 4.105469-1.636718 6.105469-6.296875 4.464844-10.398437l-9.601562-24.058594c-2.542969-6.355469-.757813-13.628906 4.441406-18.085937l15.039062-12.898438c8.386719-7.167969 12.761719-17.972656 11.71875-28.957031-1.039062-10.984375-7.363281-20.777344-16.949218-26.242188zm-46.027343-146.765625c.011719-4.269531 1.742187-8.351562 4.800781-11.328125 6.242188-6.21875 16.34375-6.195312 22.5625.046875l16.957031 16.960938c3.125 3.121094 8.1875 3.121094 11.3125 0l17.007813-17.007813c6.324218-6.050781 16.300781-6.019531 22.585937.070313 3.015625 2.96875 4.710938 7.023437 4.710938 11.257812.011719 4.28125-1.695313 8.390625-4.734375 11.40625l-45.242188 45.226563-45.222656-45.226563c-3.042969-3.015625-4.75-7.125-4.738281-11.40625zm0 0"/><path d="m128.632812 232.378906c6.027344-5.988281 9.417969-14.128906 9.425782-22.625.011718-8.496094-3.363282-16.644531-9.375-22.648437-5.996094-6.019531-14.144532-9.402344-22.640625-9.402344-8.496094 0-16.644531 3.382813-22.640625 9.402344l-11.304688 11.296875-11.253906-11.296875c-9.144531-9.140625-22.886719-11.890625-34.847656-6.972657-11.957032 4.917969-19.789063 16.539063-19.859375 29.46875-.03125 8.542969 3.363281 16.738282 9.425781 22.753907l48.535156 48.558593v8.578126c-.007812 9.476562 2.796875 18.742187 8.066406 26.621093l9.886719 14.84375c2.753907 4.125 3.667969 9.210938 2.527344 14.042969-1.140625 4.828125-4.234375 8.96875-8.542969 11.425781-9.570312 5.46875-15.886718 15.25-16.929687 26.222657-1.042969 10.972656 3.320312 21.765624 11.6875 28.9375l15.058593 12.914062c5.195313 4.460938 6.976563 11.730469 4.429688 18.085938l-9.597656 24.050781c-1.640625 4.101562.355468 8.761719 4.460937 10.398437.941407.375 1.941407.570313 2.953125.566406 3.273438.003907 6.21875-1.992187 7.433594-5.03125l9.597656-24.039062c5.089844-12.714844 1.519532-27.261719-8.878906-36.175781l-15.054688-12.921875c-4.421874-3.78125-6.722656-9.480469-6.175781-15.273438.550781-5.792968 3.882813-10.957031 8.933594-13.84375 8.160156-4.660156 14.015625-12.5 16.175781-21.640625 2.160156-9.144531.429688-18.773437-4.78125-26.59375l-9.890625-14.839843c-3.507812-5.253907-5.371093-11.433594-5.359375-17.75v-8.578126zm-106.496093-22.71875c.011719-4.269531 1.742187-8.351562 4.800781-11.328125 6.242188-6.21875 16.34375-6.195312 22.5625.046875l16.957031 16.960938c3.125 3.121094 8.1875 3.121094 11.3125 0l17.007813-17.007813c6.324218-6.050781 16.300781-6.019531 22.585937.070313 3.015625 2.96875 4.710938 7.023437 4.710938 11.257812.011719 4.28125-1.695313 8.390625-4.734375 11.40625l-45.242188 45.226563-45.222656-45.226563c-3.042969-3.015625-4.75-7.125-4.738281-11.40625zm0 0"/><path d="m333.753906 271.945312c-3.136718-3.03125-8.128906-2.988281-11.214844.097657-3.085937 3.085937-3.128906 8.078125-.097656 11.214843l7.03125 7.035157c6.246094 6.246093 6.246094 16.375 0 22.621093l-7.03125 7.03125c-2.078125 2.011719-2.914062 4.984376-2.179687 7.78125.730469 2.796876 2.914062 4.980469 5.710937 5.714844 2.796875.730469 5.773438-.101562 7.78125-2.183594l7.03125-7.03125c12.492188-12.496093 12.492188-32.75 0-45.246093zm0 0"/><path d="m461.753906 351.945312c-3.136718-3.03125-8.128906-2.988281-11.214844.097657-3.085937 3.085937-3.128906 8.078125-.097656 11.214843l7.03125 7.035157c6.246094 6.246093 6.246094 16.375 0 22.621093l-7.03125 7.03125c-2.078125 2.011719-2.914062 4.984376-2.179687 7.78125.730469 2.796876 2.914062 4.980469 5.710937 5.714844 2.796875.730469 5.773438-.101562 7.78125-2.183594l7.03125-7.03125c12.492188-12.496093 12.492188-32.75 0-45.246093zm0 0"/><path d="m323.816406 411.257812c3.035156-3.136718 2.992188-8.128906-.09375-11.214843-3.085937-3.085938-8.078125-3.128907-11.214844-.097657l-7.035156 7.035157c-12.492187 12.496093-12.492187 32.75 0 45.246093l7.035156 7.03125c3.136719 3.03125 8.128907 2.988282 11.214844-.097656 3.085938-3.085937 3.128906-8.074218.09375-11.214844l-7.03125-7.03125c-6.246094-6.246093-6.246094-16.375 0-22.621093zm0 0"/><path d="m171.816406 371.257812c3.035156-3.136718 2.992188-8.128906-.09375-11.214843-3.085937-3.085938-8.078125-3.128907-11.214844-.097657l-7.035156 7.035157c-12.492187 12.496093-12.492187 32.75 0 45.246093l7.035156 7.03125c3.136719 3.03125 8.128907 2.988282 11.214844-.097656 3.085938-3.085937 3.128906-8.074218.09375-11.214844l-7.03125-7.03125c-6.246094-6.246093-6.246094-16.375 0-22.621093zm0 0"/><path d="m180.785156 184.914062c-6.246094-6.246093-6.246094-16.375 0-22.621093 3.03125-3.140625 2.988282-8.128907-.097656-11.214844s-8.074219-3.128906-11.214844-.097656c-12.492187 12.496093-12.492187 32.75 0 45.246093 3.140625 3.03125 8.128906 2.988282 11.214844-.097656 3.085938-3.085937 3.128906-8.074218.097656-11.214844zm0 0"/><path d="m13.753906 311.945312c-3.136718-3.03125-8.128906-2.988281-11.214844.097657-3.085937 3.085937-3.128906 8.078125-.097656 11.214843l7.03125 7.035157c6.246094 6.246093 6.246094 16.375 0 22.621093l-7.03125 7.03125c-2.078125 2.011719-2.914062 4.984376-2.179687 7.78125.730469 2.796876 2.914062 4.980469 5.710937 5.714844 2.796875.730469 5.773438-.101562 7.78125-2.183594l7.03125-7.03125c12.492188-12.496093 12.492188-32.75 0-45.246093zm0 0"/><path d="m151.296875 281.179688 8-16c1.976563-3.953126.371094-8.761719-3.582031-10.738282-3.953125-1.972656-8.761719-.367187-10.738282 3.585938l-8 16c-1.972656 3.953125-.367187 8.761718 3.585938 10.734375 3.953125 1.976562 8.761719.371093 10.734375-3.582031zm0 0"/><path d="m469.753906 295.945312c-3.136718-3.03125-8.128906-2.988281-11.214844.097657-3.085937 3.085937-3.128906 8.078125-.097656 11.214843l8 8c3.140625 3.03125 8.128906 2.988282 11.214844-.097656 3.085938-3.085937 3.128906-8.074218.097656-11.214844zm0 0"/><path d="m157.777344 311.921875c-1.871094-1.9375-4.601563-2.789063-7.242188-2.253906-2.644531.535156-4.828125 2.378906-5.796875 4.894531-.851562 1.9375-.851562 4.144531 0 6.082031.40625.964844.976563 1.859375 1.679688 2.640625 3.15625 3.09375 8.207031 3.09375 11.359375 0 .707031-.78125 1.273437-1.675781 1.679687-2.640625.855469-1.9375.855469-4.144531 0-6.082031-.386719-.976562-.957031-1.875-1.679687-2.640625zm0 0"/><path d="m340.578125 358.964844c-.445313-.304688-.929687-.546875-1.441406-.722656-.453125-.230469-.9375-.390626-1.4375-.480469-2.359375-.5-4.816407.09375-6.683594 1.617187-1.863281 1.523438-2.9375 3.816406-2.917969 6.222656-.027344 1.050782.191406 2.09375.640625 3.042969.40625.964844.976563 1.859375 1.679688 2.640625.765625.722656 1.660156 1.292969 2.640625 1.679688 2.976562 1.273437 6.429687.609375 8.71875-1.679688.707031-.78125 1.273437-1.675781 1.679687-2.640625.410157-.964843.628907-1.996093.640625-3.042969-.011718-2.121093-.84375-4.15625-2.320312-5.679687-.378906-.339844-.78125-.660156-1.199219-.957031zm0 0"/><path d="m308.578125 182.964844c-.445313-.304688-.929687-.546875-1.441406-.722656-.476563-.242188-.992188-.40625-1.527344-.480469-2.609375-.519531-5.308594.289062-7.199219 2.160156-.722656.765625-1.292968 1.664063-1.679687 2.640625-.855469 1.9375-.855469 4.144531 0 6.082031.40625.964844.976562 1.859375 1.679687 2.640625 3.15625 3.09375 8.207032 3.09375 11.359375 0 .703125-.78125 1.273438-1.675781 1.679688-2.640625.855469-1.9375.855469-4.144531 0-6.082031-.386719-.976562-.957031-1.875-1.679688-2.640625-.378906-.339844-.777343-.660156-1.191406-.957031zm0 0"/><path d="m412.578125 150.964844c-.445313-.304688-.929687-.546875-1.441406-.722656-.476563-.242188-.992188-.40625-1.527344-.480469-3.738281-.820313-7.511719 1.222656-8.871094 4.800781-1.425781 3.351562-.414062 7.242188 2.46875 9.464844 2.882813 2.226562 6.902344 2.226562 9.78125 0 2.882813-2.222656 3.898438-6.113282 2.46875-9.464844-.40625-.96875-.972656-1.859375-1.679687-2.640625-.378906-.339844-.78125-.660156-1.199219-.957031zm0 0"/><path d="m445.777344 423.921875c-.390625-.359375-.820313-.683594-1.277344-.957031-.410156-.316406-.871094-.5625-1.363281-.722656-.476563-.242188-.992188-.40625-1.527344-.480469-1.527344-.324219-3.121094-.15625-4.550781.480469-.980469.386718-1.875.957031-2.640625 1.679687-.707031.78125-1.273438 1.671875-1.679688 2.640625-1.425781 3.351562-.414062 7.242188 2.46875 9.464844 2.882813 2.226562 6.902344 2.226562 9.78125 0 2.882813-2.222656 3.898438-6.113282 2.46875-9.464844-.40625-.96875-.972656-1.859375-1.679687-2.640625zm0 0"/><path d="m189.777344 431.921875c-.777344-.703125-1.671875-1.269531-2.640625-1.679687-2.976563-1.25-6.417969-.589844-8.71875 1.679687-.707031.78125-1.273438 1.671875-1.679688 2.640625-.449219.949219-.667969 1.992188-.640625 3.039062-.019531 2.128907.816406 4.175782 2.320313 5.683594.796875.703125 1.683593 1.292969 2.640625 1.757813.96875.382812 2 .574219 3.039062.558593 2.128906.019532 4.175782-.816406 5.679688-2.316406 1.472656-1.527344 2.304687-3.5625 2.320312-5.683594-.011718-1.042968-.230468-2.078124-.640625-3.039062-.386719-.976562-.957031-1.875-1.679687-2.640625zm0 0"/><path d="m61.777344 431.921875c-3.207032-2.957031-8.152344-2.957031-11.359375 0-.722657.765625-1.292969 1.664063-1.679688 2.640625-1.425781 3.351562-.414062 7.242188 2.46875 9.464844 2.882813 2.226562 6.902344 2.226562 9.78125 0 2.882813-2.222656 3.898438-6.113282 2.46875-9.464844-.386719-.976562-.957031-1.875-1.679687-2.640625zm0 0"/><path d="m29.777344 279.921875c-.378906-.339844-.78125-.660156-1.199219-.957031-.445313-.304688-.929687-.546875-1.441406-.722656-.453125-.230469-.9375-.390626-1.4375-.480469-2.636719-.523438-5.359375.285156-7.28125 2.160156-.722657.765625-1.292969 1.664063-1.679688 2.640625-.855469 1.9375-.855469 4.144531 0 6.082031.40625.964844.976563 1.859375 1.679688 2.640625 2.289062 2.289063 5.742187 2.953125 8.71875 1.679688.96875-.410156 1.863281-.976563 2.640625-1.679688.707031-.78125 1.273437-1.675781 1.679687-2.640625.855469-1.9375.855469-4.144531 0-6.082031-.386719-.976562-.957031-1.875-1.679687-2.640625zm0 0"/><path d="m76.578125 150.964844c-.445313-.304688-.929687-.546875-1.441406-.722656-.476563-.242188-.992188-.40625-1.527344-.480469-2.605469-.484375-5.289063.320312-7.199219 2.160156-1.496094 1.511719-2.328125 3.554687-2.3125 5.679687-.039062 3.257813 1.902344 6.210938 4.90625 7.472657 3 1.261719 6.46875.574219 8.765625-1.734375s2.964844-5.78125 1.6875-8.777344c-.386719-.976562-.957031-1.875-1.679687-2.640625-.378906-.339844-.78125-.660156-1.199219-.957031zm0 0"/><path d="m13.753906 423.945312c-3.136718-3.03125-8.128906-2.988281-11.214844.097657-3.085937 3.085937-3.128906 8.078125-.097656 11.214843l8 8c2.007813 2.082032 4.984375 2.914063 7.78125 2.183594 2.796875-.734375 4.980469-2.917968 5.714844-5.714844.730469-2.796874-.105469-5.769531-2.183594-7.78125zm0 0"/></svg>