<svg height="480pt" viewBox="-48 0 480 480" width="480pt" xmlns="http://www.w3.org/2000/svg"><path d="m132.746094 147.464844c-8.429688-19.210938-12.769532-39.960938-12.746094-60.9375v-38.527344c4.417969 0 8-3.582031 8-8v-32c0-4.417969-3.582031-8-8-8h-64c-4.417969 0-8 3.582031-8 8v32c0 4.417969 3.582031 8 8 8v38.527344c.023438 20.976562-4.316406 41.726562-12.742188 60.9375l-22.457031 51.34375c-13.757812 31.328125-20.8437498 65.175781-20.800781 99.390625v173.800781c0 4.417969 3.582031 8 8 8h160c4.417969 0 8-3.582031 8-8v-173.800781c.042969-34.214844-7.039062-68.0625-20.800781-99.390625zm-68.746094-131.464844h48v16h-48zm96 448h-144v-165.800781c-.039062-32.011719 6.585938-63.679688 19.457031-92.992188l22.457031-51.34375c9.3125-21.222656 14.109376-44.15625 14.085938-67.335937v-38.527344h32v38.527344c-.023438 23.179687 4.773438 46.113281 14.089844 67.335937l22.453125 51.34375c12.871093 29.3125 19.496093 60.980469 19.457031 92.992188zm0 0"/><path d="m104.566406 202.832031 6.65625 15.199219c3.4375 7.878906 6.367188 15.964844 8.777344 24.214844 1 3.410156 4.125 5.753906 7.679688 5.753906.761718 0 1.519531-.109375 2.25-.320312 4.242187-1.238282 6.671874-5.6875 5.429687-9.925782-2.613281-8.902344-5.792969-17.628906-9.511719-26.128906l-6.65625-15.199219c-1.082031-2.710937-3.554687-4.613281-6.449218-4.96875-2.898438-.355469-5.753907.894531-7.464844 3.257813-1.707032 2.367187-1.988282 5.472656-.742188 8.109375zm0 0"/><path d="m94.25 179.199219c1.269531 2.917969 4.152344 4.800781 7.335938 4.800781 1.101562.003906 2.191406-.226562 3.199218-.671875 4.042969-1.773437 5.886719-6.484375 4.117188-10.527344l-5.476563-12.542969c-1.851562-3.90625-6.472656-5.636718-10.433593-3.90625-3.960938 1.726563-5.832032 6.292969-4.222657 10.304688zm0 0"/><path d="m40 280c-4.417969 0-8 3.582031-8 8v136c0 4.417969 3.582031 8 8 8h96c4.417969 0 8-3.582031 8-8v-136c0-4.417969-3.582031-8-8-8zm88 136h-80v-120h80zm0 0"/><path d="m358.398438 460.800781c-15.835938-11.824219-34.695313-18.925781-54.398438-20.480469v-112.726562c45.277344-4.171875 79.941406-42.125 80-87.59375 0-.378906-.023438-.761719-.078125-1.136719l-4.210937-29.488281v-.054688l-11.789063-82.457031c-.566406-3.9375-3.941406-6.863281-7.921875-6.863281h-128c-3.980469 0-7.355469 2.925781-7.917969 6.863281l-16 112c-.054687.375-.082031.757813-.082031 1.136719.058594 45.46875 34.722656 83.421875 80 87.59375v112.734375c-19.703125 1.554687-38.5625 8.652344-54.398438 20.480469l-6.402343 4.800781c-2.746094 2.066406-3.867188 5.660156-2.777344 8.921875s4.140625 5.464844 7.578125 5.46875h128c3.445312 0 6.5-2.203125 7.589844-5.46875 1.089844-3.269531-.035156-6.863281-2.789063-8.929688zm-119.460938-324.800781h114.125l9.601562 67.199219-15.398437 1.722656c-17.496094 1.957031-35.207031.484375-52.136719-4.347656l-.953125-.277344c-19.65625-5.582031-40.238281-7.132813-60.511719-4.5625l-3.320312.410156zm-14.9375 104.550781 4-28 7.632812-.933593c18.097657-2.324219 36.480469-.964844 54.039063 4l.9375.277343c18.972656 5.4375 38.824219 7.101563 58.4375 4.898438l15.882813-1.777344 3.070312 21.535156c0 39.765625-32.234375 72-72 72s-72-32.234375-72-72zm35.390625 223.449219c23.289063-10.441406 49.929687-10.441406 73.21875 0zm0 0"/></svg>