<svg height="481pt" viewBox="-9 7 481 481.43897" width="481pt" xmlns="http://www.w3.org/2000/svg"><path d="m296.21875 353.4375h21.730469c29.210937.113281 56.019531-16.160156 69.398437-42.128906 29.667969-58.175782 25.25-127.902344-11.527344-181.871094h-79.601562v32h58.878906c26.265625 38.550781 29.421875 88.355469 8.234375 129.914062-9.558593 18.542969-28.707031 30.164063-49.570312 30.085938h-17.542969" fill="#acdee0"/><path d="m296.21875 113.4375v342.6875c-.132812 9.6875-8.085938 17.4375-17.773438 17.3125h-212.449218c-9.6875.125-17.644532-7.625-17.777344-17.3125v-342.6875zm0 0" fill="#c0e5e7"/><path d="m80.21875 124.636719v297.136719c.003906 10.859374 8.804688 19.660156 19.664062 19.664062h144.671876c10.859374-.003906 19.660156-8.804688 19.664062-19.664062v-300.335938zm0 0" fill="#81d0d3"/><path d="m220.875 208.847656-9.96875-6.121094c-13.273438-8.128906-30.101562-7.617187-42.863281 1.296876l-10.734375 7.535156c-11.683594 8.164062-26.878906 9.332031-39.671875 3.054687l-37.417969-17.976562v225.136719c.003906 10.859374 8.804688 19.660156 19.664062 19.664062h144.671876c10.859374-.003906 19.660156-8.804688 19.664062-19.664062v-212.335938c-12.703125 12.472656-28.109375 8.800781-43.34375-.589844zm0 0" fill="#f8cf26"/><path d="m80.21875 137.4375c1.660156-2.46875 3.0625-5.101562 4.183594-7.855469 7.996094 7.597657 19.007812 11.148438 29.933594 9.65625 10.925781-1.496093 20.582031-7.871093 26.242187-17.335937 4.421875 10.398437 14.472656 17.289062 25.761719 17.660156 11.292968.375 21.777344-5.839844 26.871094-15.925781 6.707031 9.097656 19.269531 11.53125 28.886718 5.601562 7.269532 15.054688 22.539063 24.601563 39.257813 24.542969 13.554687.375 26.484375-5.683594 34.863281-16.34375m0 0c5.554688-7.632812 8.542969-16.832031 8.535156-26.269531-.125-13.8125-6.875-26.722657-18.144531-34.707031-11.269531-7.984376-25.6875-10.074219-38.757813-5.613282 4.785157-10.191406 2.441407-22.308594-5.796874-29.984375-8.238282-7.671875-20.488282-9.152343-30.316407-3.65625-9.828125 5.496094-14.984375 16.707031-12.757812 27.742188-.585938.378906-1.175781.746093-1.714844 1.167969 2.714844-6.882813.726563-14.734376-4.945313-19.492188-5.667968-4.757812-13.742187-5.359375-20.054687-1.492188.066406-.847656.257813-1.664062.257813-2.535156.058593-18.761718-14.878907-34.136718-33.636719-34.617187-18.757813-.480469-34.460938 14.109375-35.363281 32.851562-8.757813-8.199219-22.007813-9.28125-31.976563-2.605469-9.96875 6.671876-14.019531 19.335938-9.773437 30.554688-.96875-.144531-1.945313-.222656-2.921876-.238281-11.878906-.105469-21.59375 9.433593-21.703124 21.3125 0 2.816406.574218 5.605469 1.679687 8.199219-5.363281 2.152343-8.886719 7.335937-8.914063 13.113281.007813 2.695312.800782 5.335937 2.28125 7.589843-14.710937 2.878907-24.664062 16.683594-22.742187 31.546876 1.921875 14.867187 15.054687 25.691406 30.015625 24.730468 14.960938-.957031 26.605469-13.367187 26.613281-28.355468-.035156-2.4375-.390625-4.859376-1.054687-7.203126.351562 0 .6875.105469 1.054687.105469 5.417969 0 10.34375 1.097657 14.136719-2.136719" fill="#f2f2f2"/><g fill="#f4e09c"><path d="m136.21875 265.4375c0 8.835938-7.164062 16-16 16s-16-7.164062-16-16 7.164062-16 16-16 16 7.164062 16 16zm0 0"/><path d="m200.21875 313.4375c0 8.835938-7.164062 16-16 16s-16-7.164062-16-16 7.164062-16 16-16 16 7.164062 16 16zm0 0"/><path d="m152.21875 377.4375c0 8.835938-7.164062 16-16 16s-16-7.164062-16-16 7.164062-16 16-16 16 7.164062 16 16zm0 0"/></g><path d="m382.433594 124.941406c-1.488282-2.191406-3.964844-3.503906-6.613282-3.503906h-64.199218c.714844-3.378906 1.09375-6.816406 1.132812-10.269531-.082031-14.058594-5.972656-27.460938-16.273437-37.027344s-24.097657-14.453125-38.125-13.503906c0-.246094 0-.488281 0-.734375.011719-14.734375-9.492188-27.792969-23.515625-32.316406-14.023438-4.523438-29.363282.527343-37.964844 12.492187-4.851562-3.824219-10.925781-5.757813-17.09375-5.441406-3.554688-18.851563-19.296875-32.988281-38.421875-34.503907-19.125-1.515624-36.894531 9.96875-43.371094 28.027344-3.8125-1.460937-7.855469-2.207031-11.9375-2.210937-18.742187.023437-33.929687 15.210937-33.953125 33.953125v1.390625c-13.375 3.011719-22.902344 14.851562-22.980468 28.5625 0 1.554687.125 3.105469.375 4.640625-4.839844 4.183594-7.617188 10.269531-7.609376 16.671875 0 .777343.042969 1.558593.128907 2.335937-13.210938 5.746094-21.765625 18.769532-21.792969 33.175782.167969 20.242187 16.6875 36.53125 36.929688 36.414062 1.054687 0 2.039062-.214844 3.070312-.304688v273.335938c.160156 14.097656 11.6875 25.414062 25.785156 25.3125h212.429688c14.101562.101562 25.628906-11.214844 25.785156-25.3125v-94.6875h13.730469c32.246093.21875 61.859375-17.773438 76.527343-46.496094 30.90625-60.796875 26.292969-133.589844-12.042968-190zm-94.214844 331.183594c-.15625 5.261719-4.519531 9.417969-9.785156 9.3125h-212.429688c-5.261718.105469-9.628906-4.050781-9.785156-9.3125v-278.398438c7.609375-4.550781 13.296875-11.71875 16-20.160156v264.207032c.019531 15.273437 12.394531 27.648437 27.664062 27.664062h144.671876c15.273437-.015625 27.648437-12.390625 27.664062-27.664062v-261.070313c5.625-1.074219 11.03125-3.070313 16-5.914063zm-174.109375-234.328125c15.410156 7.578125 33.722656 6.164063 47.789063-3.6875l10.746093-7.535156c10.132813-7.109375 23.527344-7.511719 34.070313-1.023438l9.976562 6.113281c15.007813 9.214844 28.207032 11.75 39.527344 7.925782v198.183594c-.007812 6.4375-5.226562 11.65625-11.664062 11.664062h-144.671876c-6.4375-.007812-11.65625-5.226562-11.664062-11.664062v-212.6875zm-25.890625-30.535156v-49.152344c6.515625 3.578125 13.824219 5.460937 21.257812 5.472656 11.308594.050781 22.203126-4.277343 30.398438-12.070312 7.011719 7.660156 16.914062 12.039062 27.300781 12.070312s20.3125-4.285156 27.371094-11.902343c7.171875 4.609374 15.964844 5.953124 24.183594 3.6875 8.648437 12.503906 22.359375 20.574218 37.488281 22.070312v44.359375c-5.65625 4.265625-14.480469 6.449219-31.199219-3.796875l-9.96875-6.113281c-15.992187-9.808594-36.285156-9.179688-51.640625 1.597656l-10.734375 7.539063c-9.292969 6.496093-21.390625 7.417968-31.558593 2.398437zm201.601562-58.625c-6.15625 7.671875-15.304687 12.335937-25.128906 12.800781h-8.152344c-11.785156-1.574219-22-8.953125-27.199218-19.648438-.976563-2.039062-2.769532-3.570312-4.9375-4.214843-2.167969-.644531-4.507813-.34375-6.4375.832031-6.097656 3.710938-14.019532 2.1875-18.304688-3.519531-1.652344-2.246094-4.351562-3.46875-7.128906-3.230469-2.773438.238281-5.226562 1.90625-6.472656 4.398438-3.691406 7.289062-11.269532 11.78125-19.4375 11.515624-8.164063-.261718-15.441406-5.230468-18.65625-12.738281-1.164063-2.789062-3.796875-4.683593-6.808594-4.902343s-5.890625 1.277343-7.441406 3.867187c-5.054688 8.578125-14.285156 13.828125-24.238282 13.785156-7.28125.011719-14.289062-2.785156-19.5625-7.808593-1.726562-1.636719-4.097656-2.421876-6.460937-2.132813-2.367187.285156-4.480469 1.609375-5.769531 3.613281-.777344 1.308594-1.457032 2.671875-2.03125 4.082032-.320313.742187-.632813 1.550781-.984375 2.207031-1.636719.261719-3.304688.308593-4.953125.136719-1.035156-.082032-2.074219-.105469-3.113282-.074219-.207031 0-.855468-.101563-1.054687-.121094-2.574219-.183594-5.078125.902344-6.703125 2.90625-1.636719 1.988281-2.214844 4.644531-1.550781 7.136719.488281 1.675781.757812 3.40625.796875 5.152344-.3125 11.332031-9.589844 20.355468-20.925782 20.355468-11.335937 0-20.613281-9.023437-20.929687-20.355468.109375-10.003907 7.433594-18.464844 17.320313-20 2.652343-.453126 4.894531-2.207032 5.976562-4.667969 1.082031-2.460938.859375-5.300781-.601562-7.558594-.640626-.964844-.988282-2.09375-1-3.253906-.003907-2.535157 1.535156-4.816407 3.890624-5.761719 1.980469-.808594 3.550782-2.378906 4.367188-4.355469.816406-1.980469.804688-4.203125-.03125-6.171875-.6875-1.601562-1.039062-3.328125-1.039062-5.070312.113281-7.457032 6.238281-13.410156 13.695312-13.3125.609375.015625 1.21875.070312 1.824219.167968 2.777343.382813 5.554687-.714843 7.316406-2.894531 1.761719-2.183593 2.257813-5.125 1.296875-7.761719-.753906-1.964843-1.15625-4.046874-1.183594-6.152343-.035156-7.121094 4.164063-13.585938 10.6875-16.449219 6.519532-2.859375 14.121094-1.574219 19.335938 3.273438 2.285156 2.089843 5.570312 2.675781 8.433594 1.503906 2.867187-1.171875 4.796874-3.894532 4.960937-6.984375.628906-14.511719 12.828125-25.804688 27.34375-25.324219 14.515625.484375 25.933594 12.5625 25.597656 27.085938-.070312.519531-.125 1.023437-.167969 1.597656-.210937 2.980468 1.257813 5.828125 3.804688 7.390625 2.546875 1.558593 5.75 1.570312 8.308594.027343 2.871094-1.648437 6.398437-1.664062 9.285156-.039062 2.882812 1.625 4.699219 4.648438 4.777344 7.957031-.011719 1.140625-.238282 2.269531-.660156 3.328125-1.300782 3.359375-.195313 7.167969 2.695312 9.3125 2.894531 2.140625 6.859375 2.089844 9.695312-.128906.296876-.222656.617188-.421875 1.09375-.726562 2.761719-1.769532 4.164063-5.046876 3.539063-8.265626-.234375-1.15625-.355469-2.335937-.363281-3.519531 0-9.910156 8.035156-17.945312 17.945312-17.945312s17.945313 8.035156 17.945313 17.945312c-.019531 2.617188-.617188 5.199219-1.753907 7.558594-1.351562 2.894531-.859374 6.3125 1.261719 8.699219 2.117188 2.390625 5.449219 3.292968 8.484375 2.292968 10.632813-3.664062 22.378906-2 31.570313 4.480469 9.195312 6.480469 14.710937 16.988281 14.828125 28.234375.007812 7.695313-2.402344 15.199219-6.894532 21.445313zm14.398438 36.800781h46.542969c22.515625 35.71875 24.589843 80.648438 5.457031 118.289062-8.148438 15.917969-24.582031 25.867188-42.464844 25.710938h-9.535156zm76 138.25c-11.949219 23.34375-36.046875 37.953125-62.269531 37.75h-13.730469v-16h9.535156c23.898438.160156 45.839844-13.171875 56.707032-34.457031 22.445312-44.167969 19.097656-97.054688-8.746094-138.039063-1.488282-2.191406-3.972656-3.503906-6.625-3.503906h-50.871094v-13.757812c.480469-.738282.960938-1.472657 1.402344-2.242188h65.894531c32.972656 51.164062 36.285156 115.988281 8.703125 170.25zm0 0"/><path d="m120.21875 289.4375c13.253906 0 24-10.746094 24-24s-10.746094-24-24-24-24 10.746094-24 24 10.746094 24 24 24zm0-32c4.417969 0 8 3.582031 8 8s-3.582031 8-8 8-8-3.582031-8-8 3.582031-8 8-8zm0 0"/><path d="m184.21875 337.4375c13.253906 0 24-10.746094 24-24s-10.746094-24-24-24-24 10.746094-24 24 10.746094 24 24 24zm0-32c4.417969 0 8 3.582031 8 8s-3.582031 8-8 8-8-3.582031-8-8 3.582031-8 8-8zm0 0"/><path d="m112.21875 377.4375c0 13.253906 10.746094 24 24 24s24-10.746094 24-24-10.746094-24-24-24-24 10.746094-24 24zm32 0c0 4.417969-3.582031 8-8 8s-8-3.582031-8-8 3.582031-8 8-8 8 3.582031 8 8zm0 0"/><path d="m192.21875 417.4375h24c13.253906 0 24-10.746094 24-24v-96h-16v96c0 4.417969-3.582031 8-8 8h-24zm0 0"/></svg>