<svg height="479pt" viewBox="0 -23 479.95153 479" width="479pt" xmlns="http://www.w3.org/2000/svg"><path d="m183.976562 288.476562h56v24h-56zm0 0" fill="#556180"/><path d="m79.976562 216.476562v-48h32l56 96" fill="#556180"/><path d="m447.976562 376.476562v-24c0-79.53125-64.472656-144-144-144v69c0 19.328126-15.671874 35-35 35h-73.28125c-2.054687 0-3.71875-1.667968-3.71875-3.722656.007813-17.679687-8.824218-34.191406-23.535156-44l-63.203125-42.125c-21.699219-14.453125-47.191406-22.160156-73.261719-22.152344v176zm0 0" fill="#ed1c24"/><path d="m47.976562 424.476562h400c13.253907 0 24-10.746093 24-24 0-13.253906-10.746093-24-24-24h-416c-13.253906 0-24 10.746094-24 24 0 13.253907 10.746094 24 24 24zm0 0" fill="#f8cf26"/><path d="m428.65625 280.644531c-47.25 1.75-84.65625 40.550781-84.679688 87.832031v8h104v-24c0-25.230468-6.664062-50.007812-19.320312-71.832031zm0 0" fill="#29485a"/><path d="m119.976562 376.476562c0-35.347656-28.65625-64-64-64h-24v64zm0 0" fill="#29485a"/><path d="m31.976562 256.476562h40c8.835938 0 16 7.164063 16 16 0 8.835938-7.164062 16-16 16h-40" fill="#f8cf26"/><path d="m447.976562 320.476562h-40c-8.835937 0-16 7.164063-16 16 0 8.835938 7.164063 16 16 16h40" fill="#f2f2f2"/><path d="m455.976562 369.613281v-17.136719c-.09375-83.910156-68.09375-151.910156-152-152-4.417968 0-8 3.582032-8 8v32h-16v-8c0-4.417968-3.582031-8-8-8-4.417968 0-8 3.582032-8 8v32c0 4.417969 3.582032 8 8 8 4.417969 0 8-3.582031 8-8v-8h16v21c-.019531 14.902344-12.097656 26.980469-27 27h-21v-16c0-4.417968-3.582031-8-8-8h-47.058593c-4.484375-8.554687-10.953125-15.914062-18.863281-21.457031l-55.167969-94.542969c-1.425781-2.472656-4.058594-3.996093-6.910157-4h-32c-4.417968 0-8 3.582032-8 8v29.832032c-10.414062-3.085938-21.15625-4.945313-32-5.535156v-192.296876h-16v369.136719c-15.585937 4.011719-25.753906 18.992188-23.722656 34.957031 2.035156 15.964844 15.628906 27.925782 31.722656 27.90625h416c16.09375.019532 29.6875-11.941406 31.71875-27.90625 2.03125-15.964843-8.132812-30.945312-23.71875-34.957031zm-16.394531-25.136719h-31.605469c-4.417968 0-8-3.582031-8-8 0-4.417968 3.582032-8 8-8h29.78125c.925782 5.292969 1.535157 10.632813 1.824219 16zm-5.652343-32h-25.953126c-13.253906 0-24 10.746094-24 24 0 13.253907 10.746094 24 24 24h32v8h-88c.050782-41.117187 31.222657-75.515624 72.136719-79.601562 4.011719 7.539062 7.300781 15.441406 9.816407 23.601562zm-201.953126-16v8h-32.152343c-.203125-2.691406-.585938-5.363281-1.144531-8zm-144-120h19.40625l36.265626 62.167969-33.953126-22.640625c-6.882812-4.550781-14.148437-8.488281-21.71875-11.769531zm-48 88h32c4.417969 0 8 3.582032 8 8 0 4.417969-3.582031 8-8 8h-32zm0 32h32c13.253907 0 24-10.746093 24-24 0-13.253906-10.746093-24-24-24h-32v-39.746093c21.734376 1.375 42.722657 8.460937 60.839844 20.546875l63.199219 42.125c12.5 8.316406 19.996094 22.34375 19.960937 37.351562.003907 6.46875 5.242188 11.714844 11.710938 11.722656h73.289062c23.738282-.027343 42.972657-19.261718 43-43v-60.800781c41.242188 2.492188 79.113282 23.617188 102.902344 57.398438-45.640625 8.296875-78.835937 48.015625-78.902344 94.402343h-208.472656c-4.109375-36.414062-34.882812-63.949218-71.527344-64h-16zm0 24h16c27.824219.035157 51.417969 20.464844 55.429688 48h-71.429688zm408 96h-416c-8.835937 0-16-7.164062-16-16 0-8.835937 7.164063-16 16-16h416c8.835938 0 16 7.164063 16 16 0 8.835938-7.164062 16-16 16zm0 0"/></svg>