<svg height="480pt" viewBox="-4 0 480 480.564" width="480pt" xmlns="http://www.w3.org/2000/svg"><path d="m312.28125 416.5625h64l-32-48zm0 0" fill="#ec008c"/><path d="m112.28125 416.5625h64l-32-48zm0 0" fill="#00aaad"/><path d="m112.28125 416.5625h64v40h-64zm0 0" fill="#29485a"/><path d="m312.28125 416.5625h64v40h-64zm0 0" fill="#29485a"/><path d="m304.28125 200.5625c0 35.347656-28.652344 64-64 64-35.34375 0-64-28.652344-64-64 0-35.34375 28.65625-64 64-64 35.347656 0 64 28.65625 64 64zm0 0" fill="#ed1c24"/><path d="m240.28125 264.5625-88 208h176zm0 0" fill="#0378a3"/><path d="m400.28125 432.5625h64l-32-48zm0 0" fill="#fff200"/><path d="m8.28125 432.5625h64l-32-48zm0 0" fill="#b2d235"/><path d="m8.28125 432.5625h64v40h-64zm0 0" fill="#29485a"/><path d="m400.28125 432.5625h64v40h-64zm0 0" fill="#29485a"/><path d="m280.28125 48.5625c0 22.09375-17.90625 40-40 40-22.089844 0-40-17.90625-40-40 0-22.089844 17.910156-40 40-40 22.09375 0 40 17.910156 40 40zm0 0" fill="#b2d235"/><path d="m392.28125 96.5625c0 22.09375-17.90625 40-40 40-22.089844 0-40-17.90625-40-40 0-22.089844 17.910156-40 40-40 22.09375 0 40 17.910156 40 40zm0 0" fill="#00aaad"/><path d="m432.28125 200.5625c0 22.09375-17.90625 40-40 40-22.089844 0-40-17.90625-40-40 0-22.089844 17.910156-40 40-40 22.09375 0 40 17.910156 40 40zm0 0" fill="#ec008c"/><path d="m384.28125 312.5625c0 22.09375-17.90625 40-40 40-22.089844 0-40-17.90625-40-40 0-22.089844 17.910156-40 40-40 22.09375 0 40 17.910156 40 40zm0 0" fill="#fff200"/><path d="m280.28125 352.5625c0 22.09375-17.90625 40-40 40-22.089844 0-40-17.90625-40-40 0-22.089844 17.910156-40 40-40 22.09375 0 40 17.910156 40 40zm0 0" fill="#f9a01b"/><path d="m176.28125 312.5625c0 22.09375-17.90625 40-40 40-22.089844 0-40-17.90625-40-40 0-22.089844 17.910156-40 40-40 22.09375 0 40 17.910156 40 40zm0 0" fill="#b2d235"/><path d="m128.28125 200.5625c0 22.09375-17.90625 40-40 40-22.089844 0-40-17.90625-40-40 0-22.089844 17.910156-40 40-40 22.09375 0 40 17.910156 40 40zm0 0" fill="#00aaad"/><path d="m168.28125 96.5625c0 22.09375-17.90625 40-40 40-22.089844 0-40-17.90625-40-40 0-22.089844 17.910156-40 40-40 22.09375 0 40 17.910156 40 40zm0 0" fill="#f15a24"/><path d="m208.28125 472.5625h64v-16c0-17.671875-14.324219-32-32-32-17.671875 0-32 14.328125-32 32zm0 0" fill="#29485a"/><path d="m8.28125 480.5625h64c4.417969 0 8-3.582031 8-8v-40c0-.054688 0-.09375 0-.152344-.023438-.925781-.207031-1.839844-.542969-2.703125-.09375-.222656-.203125-.441406-.320312-.65625-.132813-.316406-.28125-.625-.449219-.925781l-21.207031-31.769531c21.25 2.863281 42.878906.480469 63-6.933594l-15.136719 22.703125c-.164062.300781-.316406.609375-.445312.925781-.121094.214844-.226563.433594-.320313.65625-.339844.863281-.523437 1.777344-.546875 2.703125v.152344 40c0 4.417969 3.582031 8 8 8h34.699219l-2.066407 4.882812c-1.042968 2.464844-.785156 5.289063.6875 7.523438 1.476563 2.234375 3.972657 3.585938 6.648438 3.59375h176c2.683594.003906 5.1875-1.34375 6.671875-3.578125 1.480469-2.238281 1.742187-5.070313.695313-7.539063l-2.0625-4.882812h42.695312c4.417969 0 8-3.582031 8-8v-40c0-.054688 0-.09375 0-.152344-.023438-.925781-.207031-1.839844-.542969-2.703125-.09375-.222656-.203125-.441406-.320312-.65625-.132813-.316406-.28125-.625-.449219-.925781l-16.445312-24.617188c13.675781 4.84375 28.078124 7.328126 42.589843 7.34375 2.304688 0 4.609375-.214843 6.921875-.335937l-22.402344 33.601563c-.164062.300781-.316406.609374-.445312.925781-.121094.214843-.226562.433593-.320312.65625-.339844.863281-.523438 1.777343-.546876 2.703125v.152344 40c0 4.417968 3.582032 8 8 8h64c4.421876 0 8-3.582032 8-8v-39.992188c0-.054688 0-.09375 0-.152344-.019531-.925781-.203124-1.839844-.542968-2.703125-.09375-.222656-.203125-.441406-.320313-.65625-.128906-.316406-.28125-.625-.445312-.925781l-32-48c-1.890625-2.515625-5.074219-3.695312-8.144531-3.007812l-.082032-.394532c-24.183594 4.785156-49.273437 1.40625-71.335937-9.597656l-11.519531-5.761719c-1.789063-.890625-3.84375-1.082031-5.769532-.535156l-46.726562 13.351563-7.152344-16.734376-.246094.101563c.152344-1.429687.214844-2.886719.230469-4.359375 7.117187-2.222656 14.066406-4.945312 20.800781-8.144531 11.550782 12.980469 29.222656 18.6875 46.1875 14.925781 16.960938-3.765625 30.554688-16.417969 35.53125-33.066406 4.976563-16.644532.554688-34.683594-11.558594-47.136719 5.636719-9.882813 10.199219-20.34375 13.597657-31.203125 26.511719.023438 48.019531-21.449219 48.042969-47.957031.019531-26.511719-21.453126-48.019531-47.960938-48.042969-2.222656-7.113281-4.945312-14.066406-8.144531-20.796875 13.078125-11.527344 18.863281-29.246094 15.113281-46.269531-3.75-17.023438-16.449219-30.667969-33.160156-35.632813-16.710938-4.960937-34.796875-.460937-47.234375 11.757813-9.878907-5.648438-20.339844-10.210938-31.199219-13.617188.003906-26.507812-21.484375-47.99999975-47.996094-48.003906-26.507812-.00390625-48 21.488281-48.003906 47.996094-10.859375 3.398437-21.320312 7.957031-31.199219 13.601562-12.523437-11.742187-30.371093-15.890625-46.785156-10.875-16.417969 5.015625-28.898437 18.429688-32.722656 35.167969-3.820313 16.734375 1.597656 34.234375 14.210937 45.882813-3.191406 6.730468-5.90625 13.679687-8.128906 20.789062-26.507812.015625-47.984375 21.519531-47.96875 48.03125.015625 26.507812 21.515625 47.984375 48.027344 47.96875 3.398437 10.859375 7.957031 21.320312 13.597656 31.203125-11.742188 12.519531-15.886719 30.367187-10.871094 46.785156s18.429688 28.898438 35.164063 32.71875c16.738281 3.824219 34.238281-1.597656 45.882812-14.210937 6.734375 3.195312 13.679688 5.910156 20.792969 8.128906 0 1.472656.082031 2.929688.234375 4.359375l-.234375-.101563-4.335938 10.320313-42.351562-7.058594c-2.003906-.332031-4.058594.105469-5.75 1.234375-28.511719 19.003906-63.9375 24.515625-96.875 15.070313l-.527344-.152344-.09375.382813c-3.226562-.96875-6.710937.183593-8.722656 2.882812l-32 48c-.164062.300781-.316406.609375-.445312.925781-.121094.214844-.226563.433594-.320313.65625-.351563.859375-.546875 1.777344-.578125 2.703125v.152344 40c0 4.417969 3.582031 8 8 8zm448-16h-48v-24h48zm-24-65.597656 17.058594 25.597656h-34.113282zm-278.535156 49.597656h-33.464844v-24h43.625zm110.535156 16h-48v-8c0-13.253906 10.746094-24 24-24s24 10.746094 24 24zm104-40v24h-41.464844l-10.160156-24zm-24-41.597656 17.058594 25.597656h-34.113282zm-18.726562-.753906-16.402344 24.59375-7.511719-17.761719zm-39.90625-45.207032c-2.933594-8.546875-8.214844-16.09375-15.238282-21.777344l-18.496094-43.71875c12.160157-2 23.597657-7.101562 33.214844-14.808593l23.648438 23.648437c-12.621094 13.820313-16.007813 33.742188-8.664063 50.960938-4.710937 2.167968-9.542969 4.078125-14.464843 5.71875zm-101.367188-136.441406c0-30.925781 25.074219-56 56-56 30.929688 0 56 25.074219 56 56 0 30.929688-25.070312 56-56 56-30.910156-.039062-55.960938-25.085938-56-56zm-15.511719-8h-33.175781c-2.972656-17.324219-15.15625-31.648438-31.777344-37.367188 1.636719-4.921874 3.535156-9.75 5.699219-14.464843 17.214844 7.347656 37.136719 3.960937 50.957031-8.664063l23.632813 23.632813c-8.507813 10.582031-13.828125 23.371093-15.335938 36.863281zm151.320313-60.496094c13.820312 12.625 33.742187 16.011719 50.960937 8.664063 2.160157 4.714843 4.0625 9.542969 5.695313 14.464843-16.621094 5.71875-28.800782 20.042969-31.777344 37.367188h-33.175781c-1.507813-13.492188-6.824219-26.28125-15.335938-36.863281zm-79.808594 153.027344 8.585938 20.269531c-5.671876-1.078125-11.496094-1.078125-17.167969 0zm0 35.46875c17.675781 0 32 14.328125 32 32 0 17.675781-14.324219 32-32 32-17.671875 0-32-14.324219-32-32 0-17.671875 14.328125-32 32-32zm104 24c-17.671875 0-32-14.324219-32-32 0-17.671875 14.328125-32 32-32 17.675781 0 32 14.328125 32 32 0 17.675781-14.324219 32-32 32zm22.128906-74.550781c-14.125-7.390625-31.003906-7.253907-45.007812.359375l-24.960938-24.960938c8.515625-10.570312 13.84375-23.355468 15.351563-36.847656h33.175781c2.988281 17.378906 15.230469 31.734375 31.921875 37.425781-2.75 8.3125-6.257813 16.355469-10.480469 24.023438zm25.871094-101.449219c17.675781 0 32 14.328125 32 32 0 17.675781-14.324219 32-32 32-17.671875 0-32-14.324219-32-32 0-17.671875 14.328125-32 32-32zm-40-104c17.675781 0 32 14.328125 32 32 0 17.675781-14.324219 32-32 32-17.671875 0-32-14.324219-32-32 0-17.671875 14.328125-32 32-32zm-66.574219-.597656c8.300781 2.75 16.335938 6.257812 24 10.472656-7.390625 14.125-7.257812 31 .359375 45.007812l-24.90625 24.925782c-10.589844-8.5-23.378906-13.820313-36.878906-15.335938v-33.191406c17.375-2.96875 31.730469-15.199219 37.425781-31.878906zm-45.425781-47.402344c17.675781 0 32 14.328125 32 32 0 17.675781-14.324219 32-32 32-17.671875 0-32-14.324219-32-32 0-17.671875 14.328125-32 32-32zm-45.421875 47.386719c5.6875 16.683593 20.046875 28.921875 37.421875 31.894531v33.191406c-13.496094 1.515625-26.285156 6.835938-36.878906 15.335938l-24.929688-24.925782c7.609375-13.996093 7.75-30.859374.378906-44.976562 7.660157-4.238281 15.695313-7.761719 24.007813-10.519531zm-66.578125.613281c17.675781 0 32 14.328125 32 32 0 17.675781-14.324219 32-32 32-17.671875 0-32-14.324219-32-32 0-17.671875 14.328125-32 32-32zm-40 168c-17.671875 0-32-14.324219-32-32 0-17.671875 14.328125-32 32-32 17.675781 0 32 14.328125 32 32 0 17.675781-14.324219 32-32 32zm47.3125-24h33.175781c1.511719 13.492188 6.835938 26.277344 15.351563 36.847656l-24.960938 24.960938c-13.992187-7.609375-30.855468-7.75-44.972656-.375-4.238281-7.660156-7.761719-15.695313-10.523438-24 16.699219-5.683594 28.953126-20.046875 31.929688-37.433594zm.6875 136c-17.671875 0-32-14.324219-32-32 0-17.671875 14.328125-32 32-32 17.675781 0 32 14.328125 32 32 0 17.675781-14.324219 32-32 32zm44.167969-13.230469c7.347656-17.21875 3.960937-37.136719-8.664063-50.960937l23.648438-23.648438c9.613281 7.707032 21.050781 12.804688 33.207031 14.808594l-18.496094 43.722656c-7.007812 5.6875-12.273437 13.234375-15.199219 21.773438-4.933593-1.632813-9.769531-3.53125-14.496093-5.695313zm2.890625 89.007813c.402344-.792969.675781-1.648438.796875-2.527344l16.304687-38.527344c8.902344 13.296875 23.847656 21.277344 39.847656 21.277344s30.949219-7.980469 39.847657-21.277344l36.074219 85.277344h-35.929688v-8c0-22.089844-17.90625-40-40-40-22.089844 0-40 17.910156-40 40v8h-35.925781l18.328125-43.320312c.234375-.285157.453125-.589844.65625-.902344zm-1.800782-37.457032-7.023437 16.601563-13.335937-20zm-37.257812.082032 17.058594 25.597656h-34.113282zm-104 16 17.058594 25.597656h-34.113282zm-24 41.597656h48v24h-48zm0 0"/></svg>