<svg height="480pt" viewBox="-96 0 480 480" width="480pt" xmlns="http://www.w3.org/2000/svg"><path d="m24 112h240v160h-240zm0 0" fill="#808080"/><path d="m56 144h176v96h-176zm0 0" fill="#c0e5e7"/><path d="m56 216 72-72h48l-96 96h-24zm0 0" fill="#4ec3c7"/><path d="m144 240 88-88v88zm0 0" fill="#4ec3c7"/><path d="m24 48h240v64h-240zm0 0" fill="#0378a3"/><path d="m24 272h240v64h-240zm0 0" fill="#29485a"/><path d="m24 48h-16v-40h272v40zm0 0" fill="#29485a"/><path d="m24 336h240v136h-240zm0 0" fill="#0378a3"/><path d="m88 368h112c8.800781 0 16 7.199219 16 16s-7.199219 16-16 16h-112c-8.800781 0-16-7.199219-16-16s7.199219-16 16-16zm0 0" fill="#f8cf26"/><path d="m80 400h128v72h-128zm0 0" fill="#29485a"/><path d="m208 249c-5 0-9-4-9-9s4-9 9-9 9 4 9 9-4 9-9 9zm0-16c-3.898438 0-7 3.101562-7 7s3.101562 7 7 7 7-3.101562 7-7-3.101562-7-7-7zm0 0" fill="#ed1c24"/><path d="m272 472v-416h8c4.398438 0 8-3.601562 8-8v-40c0-4.398438-3.601562-8-8-8h-272c-4.398438 0-8 3.601562-8 8v40c0 4.398438 3.601562 8 8 8h8v416c0 4.398438 3.601562 8 8 8h240c4.398438 0 8-3.601562 8-8zm-256-432v-24h256v24zm184 424h-112v-56h112zm0-72h-112c-4.398438 0-8-3.601562-8-8s3.601562-8 8-8h112c4.398438 0 8 3.601562 8 8s-3.601562 8-8 8zm56 72h-40v-62.199219c9.898438-8.800781 10.699219-23.902343 1.898438-33.800781-4.597657-5.101562-11.097657-8-17.898438-8h-112c-13.199219 0-24 10.601562-24 23.800781 0 6.800781 2.898438 13.398438 8 17.898438v62.300781h-40v-120h224zm0-136h-224v-48h224zm-124.699219-176h25.398438l-80 80h-12.699219v-12.699219zm-67.300781 44.699219v-44.699219h44.699219zm115.300781-44.699219h41.398438l-80 80h-41.398438zm44.699219 19.300781v60.699219h-2.199219c-4.300781-7.601562-14-10.300781-21.601562-5.898438-2.5 1.398438-4.5 3.398438-5.898438 5.898438h-30.902343zm32 92.699219h-40v-10.199219c2.398438-1.402343 4.398438-3.402343 5.800781-5.800781h10.199219c4.398438 0 8-3.601562 8-8v-96c0-4.398438-3.601562-8-8-8h-176c-4.398438 0-8 3.601562-8 8v96c0 4.398438 3.601562 8 8 8h138.199219c1.402343 2.398438 3.402343 4.398438 5.800781 5.800781v10.199219h-88v-8h-16v8h-16v-8h-16v8h-32v-144h224zm0-160h-224v-48h224zm0 0"/></svg>