<svg height="480pt" viewBox="-24 0 480 480" width="480pt" xmlns="http://www.w3.org/2000/svg"><path d="m136 408h160v64h-160zm0 0" fill="#29485a"/><path d="m160 216h112v192h-112zm0 0" fill="#0378a3"/><path d="m112 216h48v192h-48zm0 0" fill="#556180"/><path d="m272 216h48v192h-48zm0 0" fill="#556180"/><path d="m352 8h64v400h-64zm0 0" fill="#666"/><path d="m368 408h32v32h-32zm0 0" fill="#808080"/><path d="m400 440h24v32h-80v-32zm0 0" fill="#4d4d4d"/><path d="m16 8h64v400h-64zm0 0" fill="#666"/><path d="m32 408h32v32h-32zm0 0" fill="#808080"/><path d="m64 440h24v32h-80v-32zm0 0" fill="#4d4d4d"/><path d="m248 280c0 17.671875-14.328125 32-32 32s-32-14.328125-32-32 14.328125-32 32-32 32 14.328125 32 32zm0 0" fill="#6ac9cd"/><path d="m232 360c0 8.835938-7.164062 16-16 16s-16-7.164062-16-16 7.164062-16 16-16 16 7.164062 16 16zm0 0" fill="#6ac9cd"/><path d="m336 432v48h96v-48h-24v-16h16v-416h-80v416h16v16zm24-416h48v384h-48zm32 400v16h-16v-16zm16 32h8v16h-64v-16zm0 0"/><path d="m0 432v48h96v-48h-24v-16h16v-416h-80v416h16v16zm24-416h48v384h-48zm32 400v16h-16v-16zm16 32h8v16h-64v-16zm0 0"/><path d="m216 240c-22.089844 0-40 17.910156-40 40s17.910156 40 40 40 40-17.910156 40-40c-.027344-22.082031-17.917969-39.972656-40-40zm0 64c-13.253906 0-24-10.746094-24-24s10.746094-24 24-24 24 10.746094 24 24-10.746094 24-24 24zm0 0"/><path d="m216 336c-13.253906 0-24 10.746094-24 24s10.746094 24 24 24 24-10.746094 24-24-10.746094-24-24-24zm0 32c-4.417969 0-8-3.582031-8-8s3.582031-8 8-8 8 3.582031 8 8-3.582031 8-8 8zm0 0"/><path d="m40 32h16v128h-16zm0 0"/><path d="m40 224h16v160h-16zm0 0"/><path d="m376 32h16v128h-16zm0 0"/><path d="m376 216h16v168h-16zm0 0"/><path d="m224 424h16v32h-16zm0 0"/><path d="m256 424h16v32h-16zm0 0"/><path d="m288 240h16v16h-16zm0 0"/><path d="m288 272h16v32h-16zm0 0"/><path d="m288 320h16v64h-16zm0 0"/><path d="m128 240h16v16h-16zm0 0"/><path d="m128 272h16v32h-16zm0 0"/><path d="m128 320h16v64h-16zm0 0"/><path d="m208 32h16v104h-16zm0 0"/><path d="m266.34375 138.347656 48-48 11.3125 11.316406-48 47.996094zm0 0"/><path d="m106.34375 101.660156 11.3125-11.316406 48 48-11.316406 11.3125zm0 0"/><path d="m250.339844 98.34375 16-15.996094 11.3125 11.3125-15.996094 16zm0 0"/><path d="m154.347656 93.65625 11.3125-11.3125 15.996094 15.996094-11.3125 11.3125zm0 0"/><path d="m104 416h24v64h176v-64h24v-208h-224zm176-192h32v176h-32zm-112 0h96v176h-96zm0 192h120v48h-144v-48zm-48-192h32v176h-32zm0 0"/><path d="m160 432h48v16h-48zm0 0"/></svg>