<svg height="480pt" viewBox="-104 0 480 480" width="480pt" xmlns="http://www.w3.org/2000/svg"><path d="m40 376h192v64h-192zm0 0" fill="#603813"/><path d="m56 440h160v32h-160zm0 0" fill="#4d4d4d"/><path d="m40 8h192v368h-192zm0 0" fill="#a67c52"/><path d="m200 248c0 35.347656-28.652344 64-64 64s-64-28.652344-64-64 28.652344-64 64-64 64 28.652344 64 64zm0 0" fill="#29485a"/><path d="m168 248c0 17.671875-14.328125 32-32 32s-32-14.328125-32-32 14.328125-32 32-32 32 14.328125 32 32zm0 0" fill="#666"/><path d="m184 88c0 26.507812-21.492188 48-48 48s-48-21.492188-48-48 21.492188-48 48-48 48 21.492188 48 48zm0 0" fill="#29485a"/><path d="m152 88c0 8.835938-7.164062 16-16 16s-16-7.164062-16-16 7.164062-16 16-16 16 7.164062 16 16zm0 0" fill="#666"/><path d="m8 24h32v400h-32zm0 0" fill="#8c6239"/><path d="m232 24h32v400h-32zm0 0" fill="#8c6239"/><path d="m136 320c39.765625 0 72-32.234375 72-72s-32.234375-72-72-72-72 32.234375-72 72c.042969 39.746094 32.253906 71.957031 72 72zm0-128c30.929688 0 56 25.070312 56 56s-25.070312 56-56 56-56-25.070312-56-56c.039062-30.910156 25.089844-55.960938 56-56zm0 0"/><path d="m136 288c22.089844 0 40-17.910156 40-40s-17.910156-40-40-40-40 17.910156-40 40c.027344 22.082031 17.917969 39.972656 40 40zm0-64c13.253906 0 24 10.746094 24 24s-10.746094 24-24 24-24-10.746094-24-24 10.746094-24 24-24zm0 0"/><path d="m136 144c30.929688 0 56-25.070312 56-56s-25.070312-56-56-56-56 25.070312-56 56c.039062 30.910156 25.089844 55.960938 56 56zm0-96c22.089844 0 40 17.910156 40 40s-17.910156 40-40 40-40-17.910156-40-40c.027344-22.082031 17.917969-39.972656 40-40zm0 0"/><path d="m136 112c13.253906 0 24-10.746094 24-24s-10.746094-24-24-24-24 10.746094-24 24 10.746094 24 24 24zm0-32c4.417969 0 8 3.582031 8 8s-3.582031 8-8 8-8-3.582031-8-8 3.582031-8 8-8zm0 0"/><path d="m88 400h96v16h-96zm0 0"/><path d="m264 16h-24v-8c0-4.417969-3.582031-8-8-8h-192c-4.417969 0-8 3.582031-8 8v8h-24c-4.417969 0-8 3.582031-8 8v400c0 4.417969 3.582031 8 8 8h24v8c0 4.417969 3.582031 8 8 8h8v16h-40v16h256v-16h-40v-16h8c4.417969 0 8-3.582031 8-8v-8h24c4.417969 0 8-3.582031 8-8v-400c0-4.417969-3.582031-8-8-8zm-232 360v40h-16v-384h16zm176 88h-144v-16h144zm16-40v8h-176v-48h176zm0-400v344h-176v-352h176zm32 392h-16v-384h16zm0 0"/></svg>