<svg height="484pt" viewBox="-63 0 484 484.13073" width="484pt" xmlns="http://www.w3.org/2000/svg"><path d="m162.277344 242.960938-22.335938 30.335937c-1.148437 1.144531-1.492187 2.867187-.875 4.363281.621094 1.496094 2.078125 2.46875 3.695313 2.46875h44.691406c1.617187 0 3.074219-.972656 3.695313-2.46875.617187-1.496094.273437-3.21875-.871094-4.363281l-22.335938-30.335937c-.753906-.75-1.769531-1.171876-2.832031-1.171876-1.066406 0-2.082031.421876-2.832031 1.171876zm0 0" fill="#f4adc9"/><path d="m221.109375 148.128906c.148437-.453125 5.453125-13.269531 5.597656-13.710937 7.613281-21.707031 26.292969-37.65625 48.921875-41.78125 22.628906-4.121094 45.734375 4.21875 60.511719 21.84375 14.78125 17.625 18.964844 41.828125 10.957031 63.394531-12 33.246094-59.542968 80.566406-92.796875 68.566406-13.082031-4.710937-27.921875-25.964844-33.191406-42.3125" fill="#6ac9cd"/><path d="m93.109375 175.691406c-24.9375-8.667968-52.632813-1.132812-69.742187 18.964844-17.113282 20.097656-20.128907 48.644531-7.597657 71.875 16.800781 31.113281 70.808594 70.871094 101.914063 54.078125 11.902344-6.398437 18.726562-20.191406 21.671875-36.488281l1.664062-16c.347657-10.726563-.492187-21.457032-2.503906-32" fill="#fbb03b"/><path d="m116.460938 324.507812-2.175782 28.175782 37.644532-25.105469-26.820313-8.824219c-1.925781-.636718-4.039063-.355468-5.726563.769532-1.691406 1.121093-2.769531 2.960937-2.921874 4.984374zm0 0" fill="#ffd949"/><path d="m245.171875 245.644531-24.0625 14.8125 42.453125 15.671875-8.664062-26.894531c-.621094-1.925781-2.089844-3.460937-3.988282-4.160156-1.898437-.703125-4.015625-.492188-5.738281.570312zm0 0" fill="#3fa9f5"/><path d="m221.445312 127.378906 6.300782-88.199218c.800781-11.207032-6.09375-21.53125-16.75-25.089844-7.183594-2.386719-15.066406-1.335938-21.375 2.851562-6.304688 4.191406-10.332032 11.050782-10.914063 18.597656l-5.007812 65.152344c-5.691407-.746094-11.457031-.746094-17.152344 0l-5.382813-70.039062c-.523437-6.816406-3.886718-13.097656-9.269531-17.308594-5.382812-4.210938-12.285156-5.964844-19.027343-4.835938-12.335938 2.050782-21.109376 13.117188-20.296876 25.597657l6.21875 93.226562c-10.132812 12.679688-15.664062 28.421875-15.679687 44.65625.316406 38.855469 31.097656 70.609375 69.925781 72.140625 27.996094.832032 53.929688-14.664062 66.460938-39.714844 12.535156-25.046874 9.390625-55.09375-8.0625-77.003906zm0 0" fill="#f4adc9"/><path d="m181.109375 196.128906c0 8.839844-7.164063 16-16 16-8.839844 0-16-7.160156-16-16 0-8.835937 7.160156-16 16-16 8.835937 0 16 7.164063 16 16zm0 0" fill="#f0f"/><path d="m165.109375 220.128906c13.253906 0 24-10.742187 24-24 0-13.253906-10.746094-24-24-24-13.257813 0-24 10.746094-24 24 0 13.257813 10.742187 24 24 24zm0-32c4.417969 0 8 3.582032 8 8 0 4.421875-3.582031 8-8 8-4.421875 0-8-3.578125-8-8 0-4.417968 3.578125-8 8-8zm0 0"/><path d="m311.363281 88.425781c-29.082031-10.429687-61.582031-1.144531-80.761719 23.082031l5.128907-71.761718c1.050781-17.785156-12.371094-33.121094-30.140625-34.433594-17.769532-1.3125-33.300782 11.886719-34.875 29.632812l-4.398438 57.183594c-.800781 0-1.601562 0-2.402344 0l-4.796874-62.09375c-1.277344-17.820312-16.757813-31.230468-34.578126-29.9531248-17.820312 1.2773438-31.226562 16.7578128-29.953124 34.5781248l6.007812 90.214844c-8.757812 11.847656-14.023438 25.914062-15.199219 40.601562-27.269531-5.195312-55.09375 5.777344-71.480469 28.191407-16.382812 22.410156-18.394531 52.253906-5.167968 76.664062 14.402344 26.640625 56.800781 62.292969 92.082031 62.292969 2.355469-.015625 4.710937-.207031 7.039063-.574219l-1.550782 20c-.234375 3.046875 1.289063 5.957031 3.921875 7.507813 2.636719 1.546875 5.921875 1.457031 8.46875-.226563l12.175781-8.113281 20.914063 31.367188-32-12c-6.070313-2.269532-12.867187-1.421876-18.191406 2.269531-5.324219 3.695312-8.5 9.761719-8.496094 16.242187v20c-.125 6.542969 3.054687 12.707032 8.457031 16.398438 5.398438 3.695312 12.296875 4.417968 18.347656 1.929687-12.210937 16.382813-18.808593 36.269531-18.804687 56.703125h16c-.015625-23.054687 10.0625-44.960937 27.574219-59.957031l12.425781-10.648437v70.605468h16v-70.605468l12.421875 10.648437c17.511719 14.996094 27.589844 36.902344 27.578125 59.957031h16c0-20.433594-6.597656-40.320312-18.808594-56.703125 6.050781 2.386719 12.890625 1.617188 18.261719-2.054687s8.570312-9.765625 8.546875-16.273438v-20c-.003906-6.476562-3.183594-12.542968-8.507813-16.234375-5.328124-3.691406-12.125-4.535156-18.191406-2.261719l-32 12 69.21875-103.816406 13.160156 4.859375c.886719.324219 1.828126.492188 2.773438.496094 2.558594-.003906 4.960938-1.226563 6.464844-3.296875 1.503906-2.066406 1.929687-4.726562 1.144531-7.160156l-5.601563-17.3125c36.90625 0 78.03125-45.34375 89.015626-75.761719 13.464843-37.386719-5.867188-78.621094-43.222657-92.183594zm-196.320312 43.90625 1.929687-2.402343-6.402344-96.296876c-.589843-8.386718 5.304688-15.847656 13.601563-17.214843.910156-.148438 1.828125-.222657 2.75-.222657 8.523437.035157 15.585937 6.609376 16.242187 15.101563l6.023438 78.347656 8.289062-.984375c5.0625-.601562 10.183594-.601562 15.246094 0l8.289063.984375 5.695312-73.515625c.828125-9.015625 8.730469-15.707031 17.757813-15.035156 9.03125.667969 15.859375 8.453125 15.347656 17.492188l-6.527344 91.304687 1.941406 2.398437c20.480469 25.714844 18.117188 62.765626-5.464843 85.664063-12.300781 12.257813-29.148438 18.84375-46.503907 18.175781-34.582031-1.203125-62.03125-29.523437-62.148437-64.125-.011719-14.425781 4.90625-28.421875 13.933594-39.671875zm42.066406 189.238281c-.777344-.707031-1.6875-1.25-2.675781-1.597656l-18.191406-5.96875c5.152343-7.847656 8.6875-16.644531 10.402343-25.875h10.464844zm-8.386719-68.367187c-.070312-.960937-.136718-1.921875-.214844-2.886719.863282.191406 1.742188.316406 2.625.476563zm3.695313 18.925781 12.691406-12.6875 12.6875 12.6875zm-129.597657-9.382812c-10.519531-19.539063-8.511718-43.445313 5.125-60.953125 13.632813-17.511719 36.320313-25.316407 57.84375-19.902344 3.554688 27.363281 20.828126 51.015625 45.804688 62.734375 1.136719 7.679688 1.617188 15.441406 1.433594 23.203125l1.015625.039063-6.589844 6.589843c-1.949219 1.929688-2.761719 4.726563-2.15625 7.398438.601563 2.671875 2.542969 4.84375 5.128906 5.746093-1.699219 10.566407-7.675781 19.960938-16.519531 25.984376-25.429688 13.746093-75.367188-21.703126-91.101562-50.839844zm101.488282 64.175781 9.519531 3.121094-10.320313 6.886719zm32.078125 7.3125c.253906-.203125.496093-.421875.722656-.65625v28.152344l-12.90625-19.359375zm-45.480469 78.0625c-1.125-.667969-1.804688-1.890625-1.78125-3.199219v-20c-.023438-1.230468.578125-2.394531 1.597656-3.085937 1.007813-.722657 2.3125-.882813 3.464844-.425781l30.921875 11.59375-30.570313 15.285156c-1.15625.601562-2.550781.539062-3.648437-.167969zm105.136719-26.710937c1.152343-.441407 2.453125-.28125 3.464843.425781 1.019532.691406 1.621094 1.855469 1.601563 3.085937v20c.019531 1.308594-.660156 2.53125-1.785156 3.199219-1.101563.722656-2.503907.785156-3.664063.167969l-30.550781-15.285156zm-42.933594-23.855469v-73.601563h24c3.234375 0 6.148437-1.949218 7.386719-4.9375 1.238281-2.988281.554687-6.429687-1.734375-8.714844l-23.613281-23.617187c15.742187-2.753906 30.289062-10.203125 41.726562-21.367187 1.113281-1.082032 2.105469-2.25 3.144531-3.378907 2.773438 5.996094 6.441407 11.53125 10.886719 16.417969l-17.992188 11.078125c-2.605468 1.605469-4.070312 4.558594-3.769531 7.605469.304688 3.050781 2.320313 5.65625 5.195313 6.714844l13.855468 5.121093zm66.191406-103.0625 8.535157-5.25 3.070312 9.542969zm100.292969-83.503907c-11.238281 31.132813-55.414062 73.503907-82.550781 63.757813-11.679688-4.222656-18.335938-17.261719-21.960938-28 13.226563-23.839844 13.375-52.777344.394531-76.75 12.195313-27.371094 43.773438-40.289063 71.652344-29.320313 27.882813 10.972657 42.191406 41.945313 32.464844 70.289063zm0 0"/><path d="m285.109375 108.128906v16c1.300781 0 32 .371094 32 32h16c.484375-12.871094-4.414063-25.367187-13.523437-34.476562-9.109376-9.109375-21.605469-14.007813-34.476563-13.523438zm0 0"/><path d="m58.050781 210.417969-4.941406-6.289063-4.914063-6.308594c-10.691406 8.761719-17.515624 21.367188-19.007812 35.109376-.234375 15.640624 6.449219 30.589843 18.265625 40.839843l11.308594-11.3125c-8.417969-7.0625-13.378907-17.421875-13.597657-28.414062 1.167969-9.21875 5.769532-17.652344 12.886719-23.625zm0 0"/></svg>