<svg height="480pt" viewBox="0 0 480 480" width="480pt" xmlns="http://www.w3.org/2000/svg"><path d="m8 8h464v464h-464zm0 0" fill="#b51d28"/><path d="m441.886719 360.6875-158.398438-285.160156c-8.46875-15.234375-24.527343-24.683594-41.957031-24.683594s-33.488281 9.449219-41.957031 24.683594l-158.445313 285.160156c-8.261718 14.867188-8.035156 32.996094.589844 47.65625 8.625 14.65625 24.363281 23.65625 41.371094 23.65625h316.839844c17.007812 0 32.746093-9 41.371093-23.65625 8.625-14.660156 8.847657-32.789062.585938-47.65625zm-41.949219 39.3125h-316.859375c-5.667969 0-10.910156-3-13.785156-7.886719s-2.949219-10.925781-.195313-15.882812l158.398438-285.167969c2.816406-5.089844 8.179687-8.253906 14-8.253906 5.820312 0 11.183594 3.164062 14 8.253906l158.398437 285.167969c2.75 4.953125 2.679688 10.988281-.191406 15.871093-2.867187 4.886719-8.101563 7.886719-13.765625 7.898438zm0 0" fill="#29485a"/><path d="m272 178.839844c0 17.671875-14.328125 32-32 32s-32-14.328125-32-32 14.328125-32 32-32 32 14.328125 32 32zm0 0" fill="#f8cf26"/><path d="m240 234.839844c0 17.671875-14.328125 32-32 32s-32-14.328125-32-32 14.328125-32 32-32 32 14.328125 32 32zm0 0" fill="#77442b"/><path d="m304 234.839844c0 17.671875-14.328125 32-32 32s-32-14.328125-32-32 14.328125-32 32-32 32 14.328125 32 32zm0 0" fill="#c0e5e7"/><path d="m272 290.839844c0 17.671875-14.328125 32-32 32s-32-14.328125-32-32 14.328125-32 32-32 32 14.328125 32 32zm0 0" fill="#ed1c24"/><path d="m336 290.839844c0 17.671875-14.328125 32-32 32s-32-14.328125-32-32 14.328125-32 32-32 32 14.328125 32 32zm0 0" fill="#7ac943"/><path d="m208 290.839844c0 17.671875-14.328125 32-32 32s-32-14.328125-32-32 14.328125-32 32-32 32 14.328125 32 32zm0 0" fill="#009245"/><path d="m240 346.839844c0 17.671875-14.328125 32-32 32s-32-14.328125-32-32 14.328125-32 32-32 32 14.328125 32 32zm0 0" fill="#f15a24"/><path d="m176 346.839844c0 17.671875-14.328125 32-32 32s-32-14.328125-32-32 14.328125-32 32-32 32 14.328125 32 32zm0 0" fill="#0071bc"/><path d="m304 346.839844c0 17.671875-14.328125 32-32 32s-32-14.328125-32-32 14.328125-32 32-32 32 14.328125 32 32zm0 0" fill="#333"/><path d="m368 346.839844c0 17.671875-14.328125 32-32 32s-32-14.328125-32-32 14.328125-32 32-32 32 14.328125 32 32zm0 0" fill="#fbb03b"/><path d="m290.464844 71.640625c-9.875-17.78125-28.617188-28.808594-48.957032-28.808594-20.339843 0-39.078124 11.027344-48.957031 28.808594l-158.414062 285.160156c-9.640625 17.34375-9.378907 38.496094.683593 55.597657 10.0625 17.101562 28.425782 27.601562 48.269532 27.601562h316.839844c19.839843 0 38.203124-10.5 48.265624-27.601562 10.0625-17.101563 10.324219-38.253907.683594-55.597657zm143.933594 332.648437c-7.132813 12.265626-20.28125 19.785157-34.46875 19.710938h-316.839844c-14.175782 0-27.289063-7.5-34.476563-19.714844s-7.375-27.320312-.492187-39.710937l158.398437-285.160157c7.054688-12.703124 20.441407-20.582031 34.972657-20.582031s27.917968 7.878907 34.972656 20.582031l158.398437 285.160157c6.960938 12.367187 6.785157 27.511719-.464843 39.714843zm0 0"/><path d="m262.488281 87.199219c-4.234375-7.617188-12.265625-12.34375-20.980469-12.34375-8.714843 0-16.746093 4.726562-20.980468 12.34375l-158.421875 285.144531c-4.132813 7.433594-4.019531 16.496094.292969 23.824219 4.3125 7.332031 12.179687 11.832031 20.679687 11.832031h316.859375c8.5 0 16.371094-4.5 20.679688-11.832031 4.3125-7.328125 4.425781-16.390625.292968-23.824219zm144.34375 300.878906c-1.417969 2.464844-4.054687 3.972656-6.894531 3.945313h-316.859375c-2.832031 0-5.453125-1.5-6.886719-3.941407-1.4375-2.441406-1.476562-5.460937-.101562-7.9375l158.398437-285.167969c1.410157-2.542968 4.089844-4.121093 6.996094-4.121093s5.585937 1.578125 6.996094 4.121093l158.398437 285.167969c1.402344 2.457031 1.382813 5.472657-.046875 7.910157zm0 0"/><path d="m340.367188 307.28125c5.351562-11.628906 4.757812-25.121094-1.589844-36.234375-6.351563-11.113281-17.675782-18.476563-30.410156-19.765625 5.351562-11.628906 4.757812-25.121094-1.589844-36.234375-6.351563-11.113281-17.675782-18.476563-30.410156-19.765625 2.378906-5.15625 3.617187-10.765625 3.632812-16.441406 0-22.089844-17.910156-40-40-40s-40 17.910156-40 40c.015625 5.675781 1.253906 11.285156 3.632812 16.441406-12.734374 1.289062-24.058593 8.652344-30.410156 19.765625-6.347656 11.113281-6.941406 24.605469-1.589844 36.234375-12.734374 1.289062-24.058593 8.652344-30.410156 19.765625-6.347656 11.113281-6.941406 24.605469-1.589844 36.234375-18.175781 1.9375-32.710937 15.980469-35.273437 34.078125-2.558594 18.101563 7.507813 35.625 24.429687 42.53125 16.925782 6.90625 36.378907 1.425781 47.210938-13.296875 7.460938 10.210938 19.351562 16.25 32 16.25s24.539062-6.039062 32-16.25c7.460938 10.210938 19.351562 16.25 32 16.25s24.539062-6.039062 32-16.25c10.832031 14.710938 30.277344 20.183594 47.195312 13.277344 16.914063-6.90625 26.976563-24.421875 24.421876-42.511719-2.558594-18.09375-17.082032-32.132813-35.25-34.078125zm-68.367188-96.441406c13.253906 0 24 10.746094 24 24s-10.746094 24-24 24-24-10.746094-24-24 10.746094-24 24-24zm-32-56c13.253906 0 24 10.746094 24 24s-10.746094 24-24 24-24-10.746094-24-24 10.746094-24 24-24zm-32 56c13.253906 0 24 10.746094 24 24s-10.746094 24-24 24-24-10.746094-24-24 10.746094-24 24-24zm-64 160c-13.253906 0-24-10.746094-24-24s10.746094-24 24-24 24 10.746094 24 24-10.746094 24-24 24zm32-56c-13.253906 0-24-10.746094-24-24s10.746094-24 24-24 24 10.746094 24 24-10.746094 24-24 24zm32 56c-13.253906 0-24-10.746094-24-24s10.746094-24 24-24 24 10.746094 24 24-10.746094 24-24 24zm32-56c-13.253906 0-24-10.746094-24-24s10.746094-24 24-24 24 10.746094 24 24-10.746094 24-24 24zm32 56c-13.253906 0-24-10.746094-24-24s10.746094-24 24-24 24 10.746094 24 24-10.746094 24-24 24zm32-56c-13.253906 0-24-10.746094-24-24s10.746094-24 24-24 24 10.746094 24 24-10.746094 24-24 24zm32 56c-13.253906 0-24-10.746094-24-24s10.746094-24 24-24 24 10.746094 24 24-10.746094 24-24 24zm0 0"/><path d="m8 480h464c4.417969 0 8-3.582031 8-8v-464c0-4.417969-3.582031-8-8-8h-464c-4.417969 0-8 3.582031-8 8v464c0 4.417969 3.582031 8 8 8zm8-464h448v448h-448zm0 0"/></svg>