<svg height="479pt" viewBox="7 8 479 479.92465" width="479pt" xmlns="http://www.w3.org/2000/svg"><path d="m120.945312 64-10.25-10.246094c-7.589843-7.597656-7.589843-19.910156 0-27.507812l4.496094-4.492188c7.597656-7.59375 19.90625-7.59375 27.503906 0l10.25 10.246094zm0 0" fill="#f8cf26"/><path d="m240.945312 256.472656v117.855469c-.003906 10.566406-5.105468 20.484375-13.707031 26.625-8.644531 6.179687-19.757812 7.777344-29.792969 4.277344-10.039062-3.5-17.75-11.660157-20.675781-21.878907l-.371093-1.261718c-1.054688-3.695313-1.449219-7.546875-1.167969-11.378906l6.632812-90.710938 1.542969-20.367188 1.320312-18.058593.21875-2.941407v-54.632812l1.925782-24 3.480468-47.527344c1.730469-23.679687-6.921874-46.941406-23.710937-63.730468l-17.65625-17.644532-29.320313 29.390625 9.703126 7.757813c16.738281 13.390625 25.078124 34.679687 21.890624 55.875l-36.882812 245.429687c-5.09375 27.851563 3.886719 56.425781 24 76.351563 34.800781 34.792968 91.210938 34.792968 126.007812 0l6.402344-6.398438c16.742188-16.703125 26.152344-39.382812 26.160156-63.03125l.222657-63.777344zm0 0" fill="#e2c675"/><path d="m394.289062 8.335938c-4.234374-1.269532-8.691406 1.136718-9.960937 5.367187l-9.785156 32.535156c-8.773438-7.101562-20.957031-8.238281-30.894531-2.886719-9.964844 5.371094-15.71875 16.214844-14.574219 27.476563s8.957031 20.730469 19.796875 23.988281c2.632812.785156 5.367187 1.183594 8.113281 1.183594 7.476563.082031 14.667969-2.882812 19.917969-8.210938 5.25-5.328124 8.105468-12.558593 7.914062-20.035156l12.542969-41.800781 23.679687 7.109375 4.59375-15.328125zm0 0" fill="#f8cf26"/><path d="m107.289062 29.65625-13.65625-13.65625h-12.6875v-16h16c2.121094 0 4.15625.84375 5.65625 2.34375l16 16zm0 0" fill="#29485a"/><path d="m416.945312 368c-4.417968 0-8 3.582031-8 8v34.808594c-3.738281-1.824219-7.839843-2.785156-12-2.808594-15.464843 0-28 12.535156-28 28s12.535157 28 28 28c15.460938 0 28-12.535156 28-28-.039062-1.339844-.175781-2.679688-.410156-4h.410156v-48h24v-16zm0 0" fill="#06aae9"/><path d="m368.945312 68c0 6.628906-5.375 12-12 12-6.628906 0-12-5.371094-12-12s5.371094-12 12-12c6.625 0 12 5.371094 12 12zm0 0" fill="#f8cf26"/><path d="m97.824219 164.550781.320312-.117187-19.816406-52.875c-1.546875-4.117188-6.128906-6.214844-10.257813-4.695313l-49.132812 18.113281c-1.996094.734376-3.617188 2.234376-4.503906 4.167969-.890625 1.933594-.96875 4.140625-.226563 6.136719l11.714844 31.367188c-1.332031.203124-2.636719.539062-3.898437 1-10.335938 3.792968-15.660157 15.230468-11.910157 25.582031 3.746094 10.351562 15.160157 15.730469 25.527344 12.027343 10.371094-3.699218 15.796875-15.085937 12.144531-25.472656h.101563l-15.878907-42.578125 34.128907-12.574219 10.007812 26.566407c-1.390625.199219-2.753906.542969-4.074219 1.023437-10.320312 3.777344-15.664062 15.171875-11.960937 25.519532 3.699219 10.351562 15.058594 15.773437 25.433594 12.144531 10.375-3.628907 15.878906-14.949219 12.320312-25.351563zm0 0" fill="#24ae5f"/><g fill="#e4af18"><path d="m208.945312 176c0 8.835938-7.164062 16-16 16-8.839843 0-16-7.164062-16-16s7.160157-16 16-16c8.835938 0 16 7.164062 16 16zm0 0"/><path d="m208.945312 224c0 8.835938-7.164062 16-16 16-8.839843 0-16-7.164062-16-16s7.160157-16 16-16c8.835938 0 16 7.164062 16 16zm0 0"/><path d="m208.945312 272c0 8.835938-7.164062 16-16 16-8.839843 0-16-7.164062-16-16s7.160157-16 16-16c8.835938 0 16 7.164062 16 16zm0 0"/></g><path d="m270.078125 451.558594 6.402344-6.398438c18.28125-18.175781 28.53125-42.910156 28.464843-68.6875v-44.6875l9.871094 9.871094 11.3125-11.3125-95.527344-95.527344-11.3125 11.3125 13.65625 13.65625v114.542969c-.011718 7.980469-3.867187 15.46875-10.351562 20.121094-6.539062 4.664062-14.933594 5.863281-22.515625 3.21875-7.582031-2.648438-13.410156-8.8125-15.621094-16.53125l-.351562-1.28125c-.804688-2.789063-1.109375-5.695313-.898438-8.589844l5.535157-75.691406c8.988281 1.710937 18.164062-1.839844 23.664062-9.148438 5.5-7.308593 6.363281-17.109375 2.230469-25.273437-4.132813-8.160156-12.546875-13.261719-21.691407-13.152344-.234374 0-.441406.0625-.671874.0625v-.125c.222656 0 .4375.0625.664062.0625 13.253906 0 24-10.746094 24-24s-10.746094-24-24-24c12.746094.019531 23.273438-9.949219 23.941406-22.679688.667969-12.726562-8.753906-23.75-21.429687-25.0625l2.871093-39.203124c1.917969-25.996094-7.585937-51.539063-26.03125-69.957032l-12.410156-12.417968 8.625-8.625-11.3125-11.3125-7.09375 7.097656-1.746094-1.742188c-9.40625-9.371094-24.171874-10.664062-35.0625-3.066406l-10.6875-10.6875c-1.5-1.5-3.535156-2.34375-5.65625-2.34375h-16v16h12.6875l8.34375 8.34375c-7.597656 10.890625-6.308593 25.65625 3.0625 35.0625l1.746094 1.746094-8.378906 8.367187 11.335938 11.28125 10.035156-10.03125 4.613281 3.703125c14.488281 11.632813 21.703125 30.082032 18.953125 48.457032l-36.878906 245.40625c-6.558594 41.316406 14.257812 82.148437 51.546875 101.109374 37.285156 18.960938 82.546875 11.730469 112.066406-17.910156zm-77.132813-283.558594c4.417969 0 8 3.582031 8 8s-3.582031 8-8 8c-4.417968 0-8-3.582031-8-8s3.582032-8 8-8zm0 48c4.417969 0 8 3.582031 8 8s-3.582031 8-8 8c-4.417968 0-8-3.582031-8-8s3.582032-8 8-8zm0 48c4.417969 0 8 3.582031 8 8s-3.582031 8-8 8c-4.417968 0-8-3.582031-8-8s3.582032-8 8-8zm56 110.328125v-98.542969l40 40v60.6875c.023438 20.3125-7.628906 39.882813-21.433593 54.785156l-29.382813-29.386718c6.929688-7.5 10.789063-17.332032 10.816406-27.542969zm-130.847656-324.488281-1.746094-1.742188c-4.464843-4.476562-4.464843-11.71875 0-16.195312l4.496094-4.496094c4.472656-4.46875 11.722656-4.46875 16.191406 0l1.746094 1.746094zm41.070313 75.464844c3.566406-24.007813-5.875-48.101563-24.800781-63.296876l-3.199219-2.582031 17.433593-17.433593 12.382813 12.40625c15.152344 15.132812 22.960937 36.117187 21.390625 57.472656l-3.261719 44.570312c-5.980469 4.171875-9.714843 10.855469-10.136719 18.132813-.421874 7.277343 2.511719 14.347656 7.96875 19.1875v12.476562c-5.046874 4.46875-7.957031 10.871094-8.003906 17.609375-.042968 6.738282 2.78125 13.179688 7.769532 17.710938l-1.015626 13.824218c-8.054687 8.257813-9.015624 21.109376-2.28125 30.472657l-5.421874 74.144531h-44.089844zm-15.097657 314.941406c-5.023437-5.027344-9.371093-10.691406-12.925781-16.847656-7.980469-14.441407-11.285156-31-9.464843-47.398438h45.664062c.171875 2.785156.628906 5.546875 1.367188 8.238281l.359374 1.273438c3.550782 12.777343 13.167969 22.984375 25.714844 27.289062 4.367188 1.539063 8.964844 2.328125 13.597656 2.335938 5.75-.03125 11.425782-1.308594 16.632813-3.746094l31.199219 31.203125c-31.992188 29.335938-81.402344 28.300781-112.144532-2.347656zm0 0"/><path d="m325.167969 280c-.035157-30.914062-25.085938-55.964844-56-56v16c22.082031.027344 39.972656 17.917969 40 40zm0 0"/><path d="m261.167969 176v16c52.996093.058594 95.941406 43.003906 96 96h16c-.066407-61.828125-50.171875-111.933594-112-112zm0 0"/><path d="m384.816406 67.761719 12.542969-41.800781 23.679687 7.109374 4.59375-15.328124-31.34375-9.40625c-4.234374-1.269532-8.691406 1.136718-9.960937 5.367187l-9.785156 32.535156c-8.773438-7.101562-20.957031-8.238281-30.894531-2.886719-9.964844 5.371094-15.71875 16.214844-14.574219 27.476563s8.957031 20.730469 19.796875 23.988281c2.632812.785156 5.367187 1.183594 8.113281 1.183594 7.476563.082031 14.667969-2.882812 19.917969-8.210938 5.25-5.328124 8.105468-12.558593 7.914062-20.035156zm-16.382812 3.679687c-1.640625 5.484375-6.929688 9.046875-12.632813 8.507813-5.699219-.539063-10.226562-5.035157-10.804687-10.730469-.578125-5.699219 2.949218-11.011719 8.421875-12.6875 5.476562-1.679688 11.375.746094 14.085937 5.789062 1.511719 2.796876 1.84375 6.082032.929688 9.128907zm0 0"/><path d="m103.207031 162.320312c-2.085937-5.613281-5.933593-10.402343-10.96875-13.648437l-13.910156-37.113281c-1.546875-4.117188-6.128906-6.214844-10.257813-4.695313l-49.132812 18.113281c-1.996094.734376-3.617188 2.234376-4.503906 4.167969-.890625 1.933594-.96875 4.140625-.226563 6.136719l9.449219 25.292969c-1.492188.265625-2.960938.648437-4.390625 1.152343-13.164063 4.644532-20.945313 18.226563-18.289063 31.929688s14.949219 23.390625 28.894532 22.777344c13.945312-.613282 25.335937-11.351563 26.777344-25.234375 5.277343 5.585937 12.609374 8.765625 20.296874 8.800781 9.144532-.015625 17.707032-4.496094 22.933594-12 5.226563-7.503906 6.457032-17.089844 3.296875-25.671875zm-63.367187 30.703126c-2.394532 5.199218-8.132813 7.984374-13.699219 6.648437s-9.414063-6.421875-9.191406-12.140625c.226562-5.722656 4.460937-10.488281 10.113281-11.382812 5.65625-.894532 11.15625 2.328124 13.136719 7.699218 1.113281 2.984375.984375 6.289063-.359375 9.175782zm9.425781-24.222657c-2.183594-2.285156-4.742187-4.179687-7.5625-5.601562l-9.695313-25.992188 34.128907-12.574219 7.367187 19.648438c-12.84375 1.449219-22.9375 11.660156-24.238281 24.519531zm31.832031 14.488281c-4.066406 1.691407-8.734375 1.023438-12.160156-1.746093s-5.058594-7.191407-4.253906-11.523438c.804687-4.332031 3.917968-7.875 8.109375-9.226562 1.324219-.515625 2.730469-.78125 4.152343-.792969 5.753907.066406 10.652344 4.210938 11.671876 9.878906 1.015624 5.664063-2.132813 11.253906-7.503907 13.320313zm0 0"/><path d="m240.945312 72h16v48h-16zm0 0"/><path d="m67.289062 274.34375 16-15.996094 11.3125 11.3125-15.996093 16zm0 0"/><path d="m432.945312 216h32v16h-32zm0 0"/><path d="m11.285156 349.660156 11.3125-11.3125 16 15.996094-11.316406 11.3125zm0 0"/><path d="m335.085938 358.949219 29.402343-12.609375 6.304688 14.703125-29.402344 12.609375zm0 0"/><path d="m355.289062 130.339844 15.996094-15.996094 11.316406 11.3125-16 15.996094zm0 0"/><path d="m443.285156 90.339844 16-15.996094 11.3125 11.3125-15.996094 16zm0 0"/><path d="m288.945312 16h16v16h-16zm0 0"/><path d="m51.292969 458.34375 15.996093-16 11.3125 11.316406-15.996093 15.996094zm0 0"/><path d="m299.285156 453.65625 11.316406-11.3125 15.996094 15.996094-11.3125 11.3125zm0 0"/><path d="m408.945312 376v34.808594c-3.738281-1.824219-7.839843-2.785156-12-2.808594-15.464843 0-28 12.535156-28 28s12.535157 28 28 28c15.460938 0 28-12.535156 28-28-.039062-1.339844-.175781-2.679688-.410156-4h.410156v-48h24v-16h-32c-4.417968 0-8 3.582031-8 8zm-12 72c-6.628906 0-12-5.371094-12-12s5.371094-12 12-12c6.625 0 12 5.371094 12 12s-5.375 12-12 12zm0 0"/></svg>