<svg height="480pt" viewBox="0 -17 480.10183 480" width="480pt" xmlns="http://www.w3.org/2000/svg"><path d="m36.382812 214.117188h130.582032v80h-130.582032zm0 0" fill="#c1272d"/><path d="m36.382812 214.117188-4.28125-14.664063c-8.019531-27.519531-14.449218-55.480469-19.253906-83.738281l-3.472656-17.367188c-3.609375-18.109375.222656-36.910156 10.640625-52.160156 10.597656-15.488281 26.875-26.171875 45.300781-29.734375l35.746094-7.007813c11.128906-2.183593 22.613281-1.730468 33.535156 1.328126 23.800782 6.464843 40.371094 28 40.527344 52.664062v14.679688l9.296875-2.28125c13.5625-3.378907 27.667969 2.980468 34.113281 15.382812 3.546875 6.960938 4.121094 15.0625 1.597656 22.457031l-4 11.847657c-10.972656 32.226562-27.625 62.230468-49.167968 88.59375zm0 0" fill="#ed1c24"/><path d="m36.382812 238.117188h130.582032v32h-130.582032zm0 0" fill="#e6e6e6"/><path d="m444.460938 294.117188h-127.125v-80h127.125zm0 0" fill="#c1272d"/><path d="m444.460938 214.117188 4.160156-14.664063c7.816406-27.539063 14.074218-55.496094 18.753906-83.738281l3.375-17.367188c3.523438-18.070312-.195312-36.804687-10.351562-52.160156-10.164063-15.382812-26.035157-26.082031-44.105469-29.734375l-34.796875-7.007813c-10.835938-2.183593-22.035156-1.730468-32.65625 1.328126-23.414063 6.804687-39.5 28.28125-39.449219 52.664062v14.679688l-9.046875-2.28125c-13.3125-3.328126-27.140625 3.078124-33.210938 15.382812-3.46875 6.984375-4.042968 15.054688-1.597656 22.457031l3.925782 11.847657c10.628906 32.113281 26.835937 62.105468 47.875 88.59375zm0 0" fill="#ed1c24"/><path d="m444.460938 270.117188h-127.125v-32h127.125zm0 0" fill="#e6e6e6"/><path d="m352.046875 390.117188-112 48-112-48v-112l16-16h192l16 16zm0 0" fill="#e4af18"/><path d="m160.046875 369.011719v-74.894531h160v74.894531l-80 34.289062zm0 0" fill="#f4bf1a"/><path d="m352.046875 278.117188h16l24 8 80 16v64l-80 16-24 8h-16zm0 0" fill="#f4bf1a"/><path d="m384.046875 317.148438 56 11.199218v11.535156l-56 11.199219zm0 0" fill="#f8cf26"/><path d="m128.046875 278.117188h-16l-24 8-80 16v64l80 16 24 8h16zm0 0" fill="#f4bf1a"/><g fill="#f8cf26"><path d="m40.046875 339.882812v-11.535156l56-11.199218v33.933593zm0 0"/><path d="m160.046875 366.117188 80-72h-80zm0 0"/><path d="m320.046875 366.117188-80-72h80zm0 0"/></g><path d="m378.972656 310.957031c-1.851562 1.519531-2.929687 3.792969-2.925781 6.191407v33.933593c0 4.417969 3.582031 8 8 8 .535156 0 1.070313-.050781 1.597656-.152343l56-11.199219c3.726563-.757813 6.402344-4.035157 6.402344-7.839844v-11.542969c0-3.800781-2.675781-7.078125-6.402344-7.839844l-56-11.199218c-2.355469-.484375-4.808593.121094-6.671875 1.648437zm13.074219 15.957031 36.039063 7.203126-36.039063 7.199218zm0 0"/><path d="m94.445312 309.316406-56 11.199219c-3.722656.761719-6.398437 4.039063-6.398437 7.839844v11.535156c0 3.804687 2.675781 7.082031 6.398437 7.839844l56 11.199219c.527344.101562 1.0625.152343 1.601563.152343 4.417969 0 8-3.582031 8-8v-33.933593c.003906-2.40625-1.074219-4.683594-2.9375-6.203126-1.859375-1.523437-4.308594-2.125-6.664063-1.644531zm-6.398437 32-36.039063-7.199218 36.039063-7.203126zm0 0"/><path d="m156.894531 376.363281 80 34.289063c2.011719.863281 4.289063.863281 6.304688 0l80-34.289063c2.941406-1.261719 4.847656-4.152343 4.847656-7.351562v-74.894531c0-4.417969-3.582031-8-8-8h-160c-4.417969 0-8 3.582031-8 8v74.894531c0 3.199219 1.90625 6.089843 4.847656 7.351562zm155.152344-74.246093v46.039062l-51.152344-46.039062zm-4.472656 63.542968-67.527344 28.945313-67.527344-28.945313 67.527344-60.785156zm-139.527344-63.542968h51.152344l-51.152344 46.039062zm0 0"/><path d="m4.957031 117.050781c4.867188 28.5625 11.367188 56.820313 19.464844 84.640625l4 13.601563v74.636719l-21.976563 4.347656c-3.722656.757812-6.398437 4.035156-6.398437 7.839844v64c0 3.800781 2.675781 7.078124 6.398437 7.839843l79.511719 15.910157 23.527344 7.832031c.828125.277343 1.691406.417969 2.5625.417969h14.398437l110.488282 47.351562c2.011718.863281 4.292968.863281 6.304687 0l110.449219-47.351562h14.359375c.859375-.003907 1.710937-.144532 2.527344-.417969l23.527343-7.832031 79.542969-15.910157c3.726563-.761719 6.402344-4.039062 6.402344-7.839843v-64c0-3.804688-2.675781-7.082032-6.402344-7.839844l-17.597656-3.523438v-76.636718c-.03125-1.816407-.691406-3.5625-1.863281-4.945313l2.132812-7.535156c7.886719-27.753907 14.203125-55.929688 18.929688-84.394531l3.382812-17.375c3.976563-20.128907-.171875-41.011719-11.535156-58.09375-11.292969-17.203126-29.019531-29.152344-49.199219-33.167969l-34.800781-7.011719c-12.089844-2.410156-24.582031-1.902344-36.441406 1.480469-26.785156 7.871093-45.195313 32.433593-45.238282 60.351562v4.433594c-13.132812-2.878906-26.800781 1.519531-35.789062 11.519531-8.988281 9.996094-11.910156 24.054688-7.652344 36.808594l3.929688 11.847656c10.898437 33.015625 27.554687 63.84375 49.191406 91.054688.304688.292968.628906.5625.976562.800781v34.226563h-137.105468v-37.257813c21.285156-26.542969 37.78125-56.59375 48.746094-88.800781l4-11.847656c3.183593-9.445313 2.4375-19.773438-2.074219-28.664063-7.957031-15.566406-25.519531-23.683594-42.535157-19.664063v-4.496093c-.25-28.226563-19.1875-52.863281-46.398437-60.367188-12.132813-3.375-24.882813-3.878906-37.242187-1.472656l-35.6875 7.046875c-20.523438 3.914062-38.652344 15.8125-50.398438 33.089844-11.667969 17.007812-15.949219 38.015625-11.863281 58.230468zm115.089844 265.066407h-6.703125l-22.769531-7.585938c-.3125-.113281-.632813-.199219-.960938-.253906l-73.566406-14.714844v-50.894531l73.597656-14.710938c.328125-.058593.648438-.144531.960938-.257812l22.738281-7.582031h6.703125zm-75.664063-95.425782v-8.574218h42.351563l-.746094.246093zm0-24.574218v-16h114.582032v8h-14.917969c-2.121094 0-4.15625.84375-5.65625 2.34375l-5.65625 5.65625zm0-32v-8h114.582032v8zm302.976563 32-5.65625-5.65625c-1.5-1.5-3.535156-2.34375-5.65625-2.34375h-8v-8h112v16zm-19.3125-32v-8h112v8zm112 48v9.4375l-45.945313-9.191407-.742187-.246093zm24 30.550781v50.894531l-73.601563 14.714844c-.324218.054687-.648437.140625-.960937.253906l-22.734375 7.585938h-6.703125v-96h6.703125l22.769531 7.582031c.308594.113281.632813.199219.957031.257812zm-186.984375-185.664063-3.921875-11.847656c-1.769531-5.402344-1.355469-11.285156 1.152344-16.382812 4.347656-8.984376 14.417969-13.667969 24.089843-11.203126l9.046876 2.28125c2.390624.605469 4.921874.074219 6.867187-1.4375 1.945313-1.511718 3.085937-3.835937 3.09375-6.296874v-14.691407c.011719-20.792969 13.714844-39.101562 33.664063-44.972656 9.390624-2.679687 19.289062-3.070313 28.863281-1.136719l34.792969 7c16.003906 3.191406 30.058593 12.675782 39.015624 26.320313 9.039063 13.585937 12.335938 30.195312 9.175782 46.207031l-3.425782 17.601562c-4.628906 27.949219-10.820312 55.613282-18.550781 82.871094l-2.480469 8.800782h-117.214843c-19.320313-25.003907-34.257813-53.109376-44.167969-83.113282zm55.671875 147.113282 11.3125 11.308593v103.417969l-104 44.566406-104-44.566406v-103.417969l11.3125-11.308593zm-306.105469-219.433594c9.382813-13.78125 23.847656-23.277344 40.226563-26.398438l35.742187-6.96875c9.90625-1.9375 20.128906-1.53125 29.847656 1.183594 20.300782 5.566406 34.453126 23.914062 34.679688 44.960938v14.65625c0 2.453124 1.132812 4.773437 3.0625 6.292968 1.933594 1.515625 4.457031 2.058594 6.84375 1.472656l9.285156-2.269531c9.945313-2.484375 20.300782 2.136719 25.089844 11.199219 2.59375 5.023438 3.019531 10.890625 1.183594 16.238281l-4 11.855469c-10.25 30.148438-25.628906 58.296875-45.457032 83.210938h-120.75l-2.601562-8.90625c-7.945312-27.308594-14.320312-55.054688-19.085938-83.09375l-3.480468-17.371094c-3.21875-15.996094.179687-32.613282 9.414062-46.0625zm0 0"/></svg>