<svg height="480pt" viewBox="-16 0 480 480.02747" width="480pt" xmlns="http://www.w3.org/2000/svg"><path d="m295.9375 72.023438c0 35.347656-28.652344 64-64 64-35.34375 0-64-28.652344-64-64 0-35.34375 28.65625-64 64-64 35.347656 0 64 28.65625 64 64zm0 0" fill="#3c494e"/><path d="m167.9375 88.023438c0 26.511718-21.488281 48-48 48-26.507812 0-48-21.488282-48-48 0-26.507813 21.492188-48 48-48 26.511719 0 48 21.492187 48 48zm0 0" fill="#3c494e"/><path d="m263.9375 72.023438c0 17.675781-14.324219 32-32 32-17.671875 0-32-14.324219-32-32 0-17.671876 14.328125-32 32-32 17.675781 0 32 14.328124 32 32zm0 0" fill="#999"/><path d="m135.9375 88.023438c0 8.835937-7.164062 16-16 16s-16-7.164063-16-16c0-8.835938 7.164062-16 16-16s16 7.164062 16 16zm0 0" fill="#ccc"/><path d="m63.9375 136.023438h224c22.101562 0 40 17.902343 40 40v120c0 22.101562-17.898438 40-40 40h-224c-22.097656 0-40-17.898438-40-40v-120c0-22.097657 17.902344-40 40-40zm0 0" fill="#0378a3"/><path d="m295.9375 184.023438v104c0 8.800781-7.199219 16-16 16h-208c-8.796875 0-16-7.199219-16-16v-104c0-8.796876 7.203125-16 16-16h208c8.800781 0 16 7.203124 16 16zm0 0" fill="#29485a"/><path d="m279.9375 304.523438h-208c-9.097656 0-16.5-7.398438-16.5-16.5v-104c0-9.097657 7.402344-16.5 16.5-16.5h208c9.101562 0 16.5 7.402343 16.5 16.5v104c0 9.101562-7.398438 16.5-16.5 16.5zm-208-136c-8.5 0-15.5 7-15.5 15.5v104c0 8.5 7 15.5 15.5 15.5h208c8.5 0 15.5-7 15.5-15.5v-104c0-8.5-7-15.5-15.5-15.5zm0 0" fill="#0378a3"/><g fill="#29485a"><path d="m327.9375 176.023438v120l112 40v-208zm0 0"/><path d="m127.9375 336.023438-116.699219 116.703124c-2.097656 2.097657-3.300781 5-3.300781 8 0 6.199219 5.101562 11.296876 11.300781 11.296876h6.101563c4.199218 0 8.300781-1.699219 11.300781-4.699219l131.296875-131.300781zm0 0"/><path d="m231.9375 336.023438 116.703125 116.703124c2.097656 2.097657 3.296875 5 3.296875 8 0 6.199219-5.097656 11.296876-11.296875 11.296876h-6.101563c-4.199218 0-8.300781-1.699219-11.300781-4.699219l-131.300781-131.300781zm0 0"/></g><path d="m231.9375 112.023438c22.101562 0 40-17.898438 40-40 0-22.097657-17.898438-40-40-40-22.097656 0-40 17.902343-40 40 0 22.101562 17.902344 40 40 40zm0-64c13.300781 0 24 10.703124 24 24 0 13.300781-10.699219 24-24 24-13.296875 0-24-10.699219-24-24 0-13.296876 10.703125-24 24-24zm0 0"/><path d="m119.9375 112.023438c13.300781 0 24-10.699219 24-24 0-13.296876-10.699219-24-24-24-13.296875 0-24 10.703124-24 24 0 13.300781 10.703125 24 24 24zm0-32c4.402344 0 8 3.601562 8 8 0 4.402343-3.597656 8-8 8-4.398438 0-8-3.597657-8-8 0-4.398438 3.601562-8 8-8zm0 0"/><path d="m303.9375 288.023438v-104c0-13.296876-10.699219-24-24-24h-208c-13.296875 0-24 10.703124-24 24v104c0 13.300781 10.703125 24 24 24h208c13.300781 0 24-10.699219 24-24zm-240 0v-104c0-4.398438 3.601562-8 8-8h208c4.402344 0 8 3.601562 8 8v104c0 4.402343-3.597656 8-8 8h-208c-4.398438 0-8-3.597657-8-8zm0 0"/><path d="m19.238281 480.023438h6.101563c6.398437 0 12.5-2.5 17-7l129-129h17.398437l129 129c4.5 4.5 10.601563 7.101562 17 7h6.101563c10.699218 0 19.300781-8.597657 19.300781-19.296876 0-5.101562-2-10-5.703125-13.703124l-103-103h36.5c22.300781 0 41.601562-15.398438 46.703125-37.097657l102.597656 36.597657c4.199219 1.5 8.699219-.699219 10.199219-4.796876.300781-.902343.5-1.800781.5-2.703124v-208c0-4.398438-3.597656-8-8-8-1.097656 0-2.199219.203124-3.199219.601562l-102.300781 43.800781c-5.296875-21.300781-24.5-36.402343-46.5-36.402343h-10.796875c31-24.898438 35.796875-70.199219 10.898437-101.199219-24.898437-31-70.199218-35.800781-101.199218-10.898438-11.5 9.300781-19.902344 21.898438-24 36.199219-19.800782-23.699219-55.101563-26.800781-78.800782-7-23.699218 19.800781-26.800781 55.101562-7 78.800781 1.199219 1.398438 2.5 2.800781 3.800782 4.097657h-16.902344c-26.5 0-48 21.5-48 48v120c0 26.5 21.5 48 48 48h44.703125l-103 103c-7.5 7.5-7.5 19.800781 0 27.300781 3.597656 3.699219 8.5 5.699219 13.597656 5.699219zm316.699219-298.699219 96-41.097657v184.5l-96-34.203124zm7 277c1.300781 1.300781 1.300781 3.402343 0 4.699219-.597656.601562-1.5 1-2.296875 1h-6.101563c-2.101562 0-4.199218-.796876-5.699218-2.296876l-117.601563-117.703124h17.402344zm-111-442.300781c30.902344 0 56 25.101562 56 56 0 30.902343-25.097656 56-56 56-30.898438 0-56-25.097657-56-56 0-30.898438 25.101562-56 56-56zm-60.796875 94.5c4.199219 6.601562 9.5 12.601562 15.597656 17.5h-27.699219c5.101563-5 9.300782-11 12.101563-17.5zm-91.203125-22.5c0-22.097657 17.902344-40 40-40 22.101562 0 40 17.902343 40 40 0 22.101562-17.898438 40-40 40-22.097656 0-40-17.898438-40-40zm-16 240c-17.699219 0-32-14.296876-32-32v-120c0-17.699219 14.300781-32 32-32h224c17.703125 0 32 14.300781 32 32v120c0 17.703124-14.296875 32-32 32zm-47 130.300781 114.300781-114.300781h17.402344l-117.703125 117.703124c-1.5 1.5-3.5 2.296876-5.699219 2.296876h-6.097656c-1.800781 0-3.300781-1.5-3.300781-3.296876.097656-.902343.398437-1.703124 1.097656-2.402343zm0 0"/></svg>