<svg height="480pt" viewBox="0 0 480 480.01683" width="480pt" xmlns="http://www.w3.org/2000/svg"><path d="m312.007812 162.679688c.367188 42.34375-33.660156 76.96875-76 77.335937-42.34375-.367187-76.371093-34.992187-76-77.335937v-67.664063l28.496094 29c-.164062-47.121094 26.101563-90.355469 68-111.917969l8-4.082031c-6.210937 31.589844-3.617187 64.277344 7.503906 94.488281l7.847657 21.289063c.542969 1.546875 2.003906 2.578125 3.644531 2.578125 1.636719 0 3.097656-1.03125 3.644531-2.578125l24.863281-48.113281zm0 0" fill="#f15a24"/><path d="m288.007812 272.019531 24.003907-24.003906 160 160-24.003907 24.003906zm0 0" fill="#a67c52"/><path d="m8.011719 408.019531 160-160 24 24.003907-159.996094 160zm0 0" fill="#a67c52"/><path d="m264.007812 204.015625c0-19.882813-14.328124-36-32-36-17.675781 0-32 16.117187-32 36s14.324219 36 32 36c17.671876 0 32-16.117187 32-36zm0 0" fill="#fbb03b"/><path d="m224.007812 296.015625h32v176h-32zm0 0" fill="#c69c6d"/><path d="m269.328125 1.617188c-2.445313-1.847657-5.730469-2.136719-8.457031-.746094l-8 4.082031c-38.878906 19.789063-65.488282 57.480469-71.128906 100.734375l-16-16.292969c-2.277344-2.316406-5.726563-3.027343-8.730469-1.796875-3.003907 1.226563-4.96875 4.148438-4.972657 7.394532v67.664062c-.3125 46.730469 37.238282 84.902344 83.96875 85.359375.671876 0 1.320313-.085937 1.992188-.101563.671875-.015624 1.328125.101563 2.007812.101563v-.207031c45.074219-2.554688 80.246094-39.980469 80-85.128906v-87c0-3.691407-2.527343-6.90625-6.117187-7.773438-3.585937-.871094-7.304687.828125-8.996094 4.109375l-20.800781 40.210937-4.605469-12.480468c-10.636719-28.828125-13.128906-60.027344-7.203125-90.175782.617188-3-.53125-6.085937-2.957031-7.953124zm3.03125 124.917968c1.664063 4.585938 5.960937 7.679688 10.835937 7.808594s9.332032-2.734375 11.234376-7.222656l9.578124-18.527344v54.085938c.257813 36.847656-28.558593 67.359374-65.359374 69.199218-16.699219-.867187-29.550782-15.082031-28.738282-31.78125-.039062-13.160156 10.582032-23.871094 23.746094-23.9375 9.640625.054688 17.425781 7.902344 17.398438 17.542969.023437 6.835937-5.484376 12.402344-12.320313 12.449219-4.585937-.035156-8.273437-3.773438-8.246094-8.359375h-16c-.015625 13.414062 10.832031 24.3125 24.246094 24.359375 15.667969-.050782 28.339844-12.777344 28.320313-28.449219.023437-18.476563-14.921876-33.484375-33.398438-33.542969-21.992188.078125-39.773438 17.945313-39.746094 39.9375-.011718 6.910156 1.402344 13.75 4.152344 20.085938-18.875-13.046875-30.117188-34.554688-30.054688-57.503906v-48.109376l14.800782 15.046876c2.273437 2.308593 5.71875 3.015624 8.722656 1.789062 3-1.230469 4.964844-4.148438 4.972656-7.390625-.300781-41.75 21.714844-80.484375 57.734375-101.597656-2.992187 28.03125.519531 56.375 10.265625 82.832031zm0 0"/><path d="m375.398438 300.089844c.390624-4 .609374-8 .609374-12.074219v-8h-16v4.6875l-42.34375-42.34375c-3.125-3.121094-8.1875-3.121094-11.3125 0l-24 24c-3.125 3.125-3.125 8.1875 0 11.3125l24.984376 24.984375c-13.367188 7.933594-28.039063 13.421875-43.328126 16.207031v-22.847656c0-4.417969-3.582031-8-8-8h-32c-4.417968 0-8 3.582031-8 8v22.847656c-15.292968-2.785156-29.964843-8.273437-43.328124-16.207031l24.984374-24.984375c3.121094-3.125 3.121094-8.1875 0-11.3125l-24-24c-3.125-3.121094-8.1875-3.121094-11.3125 0l-50.121093 50.121094c-.0625-1.496094-.222657-2.960938-.222657-4.464844h-16c.046876 6.378906.601563 12.742187 1.65625 19.03125l-95.3125 95.3125c-3.125 3.125-3.125 8.1875 0 11.3125l24 24c3.125 3.125 8.1875 3.125 11.3125 0l80.460938-80.464844c22.4375 31.832031 58.9375 50.777344 97.882812 50.808594v64c0 4.417969 3.582032 8 8 8h32c4.417969 0 8-3.582031 8-8v-64.40625c38.039063-2.550781 72.601563-23.042969 93.085938-55.199219l85.257812 85.261719c3.125 3.125 8.1875 3.125 11.3125 0l24-24c3.121094-3.125 3.121094-8.1875 0-11.3125zm-343.390626 120.613281-12.6875-12.6875 82.695313-82.695313c2.019531 6.144532 4.539063 12.113282 7.527344 17.847657zm82.992188-108.367187 53.007812-53.007813 12.6875 12.6875-59.199218 59.203125c-2.773438-6.070312-4.949219-12.394531-6.496094-18.882812zm101.007812 79.679687c-34.714843-.03125-67.125-17.382813-86.402343-46.253906l31.539062-31.535157c16.691407 10.589844 35.351563 17.699219 54.863281 20.902344zm32 72h-16v-56h16zm0-72h-16v-55.199219c2.664063.144532 5.328126.304688 8 .304688 2.671876 0 5.335938-.160156 8-.304688zm0-71.199219c-5.328124.320313-10.671874.320313-16 0v-16.800781h16zm16 70.761719v-56.480469c19.519532-3.199218 38.191407-10.308594 54.894532-20.90625l26.558594 26.5625c-17.222657 29.226563-47.628907 48.210938-81.453126 50.855469zm88.871094-65.960937-53.558594-53.601563 12.6875-12.6875 46.398438 46.402344c-1.171875 6.796875-3.023438 13.460937-5.527344 19.886719zm95.128906 95.085937-82.9375-82.933594c2.757813-6.023437 5-12.265625 6.703126-18.664062l88.921874 88.910156zm0 0"/></svg>