<svg height="482pt" viewBox="-1 0 482 482.99234" width="482pt" xmlns="http://www.w3.org/2000/svg"><path d="m152.496094 434.992188v40h-144v-246.769532c0-110.457031 89.542968-200 200-200-2.695313.386719-5.367188.859375-8 1.417969l72-2.648437h.617187c110.117188-.003907 199.386719 89.265624 199.382813 199.382812v248.617188h-144v-40zm0 0" fill="#ffd949"/><path d="m208.496094 98.992188v-58.742188c0-8.492188 3.371094-16.632812 9.375-22.632812 12.496094-12.492188 32.753906-12.492188 45.25 0 6.003906 6 9.375 14.140624 9.375 22.632812v58.742188" fill="#f2f2f2"/><path d="m104.496094 122.992188h-8.664063c-44.65625.859374-80.171875 37.742187-79.335937 82.398437v51.203125c-.835938 44.65625 34.679687 81.539062 79.335937 82.398438h289.328125c44.65625-.859376 80.171875-37.742188 79.335938-82.398438v-51.203125c.835937-44.65625-34.679688-81.539063-79.335938-82.398437z" fill="#f2f2f2"/><path d="m184.496094 450.992188h112v32h-112zm0 0" fill="#ecc19c"/><path d="m304.496094 122.992188-10.503906-10.496094c-29.542969-29.554688-77.457032-29.554688-107 0l-10.496094 10.496094zm0 0" fill="#4ec3c7"/><path d="m376.496094 338.992188v12.921874c0 32.027344-15.558594 62.0625-41.726563 80.535157-56.515625 39.894531-132.027343 39.894531-188.546875 0-26.167968-18.472657-41.726562-48.507813-41.726562-80.535157v-12.921874zm0 0" fill="#f5e0cd"/><path d="m48.496094 259.328125c.003906 26.324219 21.34375 47.660156 47.664062 47.664063h288.671875c26.324219-.003907 47.660157-21.339844 47.664063-47.664063v-56.671875c-.003906-26.320312-21.339844-47.660156-47.664063-47.664062h-288.671875c-26.320312.003906-47.660156 21.34375-47.664062 47.664062zm0 0" fill="#4ec3c7"/><path d="m48.496094 274.992188h29.664062c10.125 0 18.335938-8.210938 18.335938-18.335938v-51.328125c0-10.125-8.210938-18.335937-18.335938-18.335937h-61.664062v88zm0 0" fill="#c1272d"/><path d="m432.496094 274.992188h-29.664063c-10.125 0-18.335937-8.210938-18.335937-18.335938v-51.328125c0-10.125 8.210937-18.335937 18.335937-18.335937h61.664063v88zm0 0" fill="#c1272d"/><path d="m8.496094 482.992188h144c4.417968 0 8-3.582032 8-8v-24.566407c5.199218 2.78125 10.542968 5.292969 16 7.527344v25.039063h16v-19.617188c31.335937 9.226562 64.664062 9.226562 96 0v19.617188h16v-25.046876c5.460937-2.230468 10.800781-4.742187 16-7.527343v24.574219c0 4.417968 3.582031 8 8 8h144c4.417968 0 8-3.582032 8-8v-248.617188c-.121094-114.019531-92.175782-206.605469-206.191406-207.382812-7.308594-12.015626-20.449219-19.246094-34.511719-18.9843755-14.0625.2578125-26.925781 7.9687495-33.785157 20.2499995-113.839843 1.46875-205.390624 94.109376-205.511718 207.957032v246.777344c0 4.417968 3.582031 8 8 8zm142.34375-57.078126c-24.03125-16.988281-38.324219-44.574218-38.34375-74v-4.921874h256v4.921874c-.019532 29.425782-14.316406 57.015626-38.351563 74-53.773437 37.851563-125.53125 37.851563-179.304687 0zm251.992187-246.921874c-14.53125.035156-26.300781 11.804687-26.335937 26.335937v51.328125c.035156 14.53125 11.804687 26.300781 26.335937 26.335938h13.664063c-7.425782 10.03125-19.15625 15.964843-31.640625 16h-288.695313c-12.492187-.027344-24.230468-5.960938-31.664062-16h13.640625c14.539062-.023438 26.324219-11.796876 26.359375-26.335938v-51.328125c-.035156-14.53125-11.804688-26.300781-26.335938-26.335937h-13.664062c7.425781-10.03125 19.160156-15.964844 31.640625-16h288.695312c12.492188.027343 24.230469 5.960937 31.664063 16zm20.863281 16c.515626 2.523437.785157 5.089843.800782 7.664062v56.671875c-.015625 2.574219-.285156 5.140625-.800782 7.664063h-20.863281c-5.703125-.007813-10.328125-4.632813-10.335937-10.335938v-51.328125c.007812-5.703125 4.632812-10.328125 10.335937-10.335937zm-345.535156 0c5.703125.007812 10.328125 4.632812 10.335938 10.335937v51.328125c-.007813 5.703125-4.632813 10.328125-10.335938 10.335938h-20.863281c-.515625-2.523438-.78125-5.089844-.800781-7.664063v-56.671875c.019531-2.574219.285156-5.140625.800781-7.664062zm18 120h288.671875c21.550781-.035157 41.144531-12.496094 50.3125-32h16.632813c-9.90625 28.414062-36.527344 47.597656-66.617188 48h-289.328125c-30.089843-.402344-56.710937-19.585938-66.617187-48h16.632812c9.167969 19.503906 28.761719 31.964843 50.3125 32zm368.335938 152h-128v-26.144532c.953125-.640625 1.9375-1.199218 2.871094-1.863281 28.28125-19.980469 45.109374-52.445313 45.128906-87.070313v-4.921874h.664062c34.566406-.335938 65.679688-21.042969 79.335938-52.800782zm-8-261.601563v51.203125c-.035156 3.480469-.300782 6.953125-.800782 10.398438h-15.792968c.378906-2.539063.574218-5.097657.59375-7.664063v-56.671875c-.019532-2.566406-.214844-5.125-.59375-7.664062h15.792968c.5 3.445312.765626 6.917968.800782 10.398437zm-14.070313-68.078125c-15.648437-14.304688-36.066406-22.261719-57.265625-22.320312h-77.351562l-8.113282-8.160157c-5.683593-5.644531-12.148437-10.4375-19.199218-14.238281v-52.34375c-.054688-1.703125-.222656-3.402344-.496094-5.082031 68.515625 2.523437 130.460938 41.472656 162.425781 102.128906zm-225.929687-97.0625c.015625-6.363281 2.542968-12.460938 7.03125-16.96875 9.492187-9.074219 24.445312-9.074219 33.9375 0 4.488281 4.507812 7.015625 10.605469 7.03125 16.96875v45.597656c-15.660156-4.65625-32.339844-4.65625-48 0zm68.472656 74.742188h-88.945312c25.503906-22.167969 63.441406-22.167969 88.945312 0zm-84.097656-78.601563c-.117188 1.289063-.375 2.546875-.375 3.859375v52.34375c-7.039063 3.808594-13.492188 8.613281-19.160156 14.261719l-8.152344 8.136719h-77.351563c-20.332031.023437-39.988281 7.324218-55.40625 20.574218 32.464844-58.832031 93.304688-96.4375 160.445313-99.175781zm-105.039063 94.601563h289.328125c30.089844.402343 56.710938 19.585937 66.617188 48h-16.632813c-9.167969-19.503907-28.761719-31.964844-50.3125-32h-288.671875c-21.550781.035156-41.144531 12.496093-50.3125 32h-16.632812c9.90625-28.414063 36.527344-47.597657 66.617187-48zm-71.335937 74.398437c.035156-3.480469.300781-6.953125.800781-10.398437h15.792969c-.378906 2.539062-.574219 5.097656-.59375 7.664062v56.671875c.019531 2.566406.214844 5.125.59375 7.664063h-15.792969c-.5-3.445313-.765625-6.917969-.800781-10.398438zm-8 88.800781c13.65625 31.757813 44.769531 52.464844 79.335937 52.800782h.664063v4.921874c.019531 34.625 16.839844 67.09375 45.121094 87.078126.933593.664062 1.925781 1.222656 2.878906 1.871093v26.128907h-128zm0 0"/><path d="m187.648438 379.640625-6.304688 14.703125c37.789062 16.117188 80.515625 16.117188 118.304688 0l-6.304688-14.703125c-33.761719 14.390625-71.933594 14.390625-105.695312 0zm0 0"/></svg>