<svg height="480pt" viewBox="0 0 480 480" width="480pt" xmlns="http://www.w3.org/2000/svg"><path d="m472 240c0 128.128906-103.871094 232-232 232s-232-103.871094-232-232 103.871094-232 232-232 232 103.871094 232 232zm0 0" fill="#f8cf26"/><path d="m424 240c0 101.621094-82.378906 184-184 184s-184-82.378906-184-184 82.378906-184 184-184 184 82.378906 184 184zm0 0" fill="#ed1c24"/><path d="m392 240c0 83.949219-68.050781 152-152 152s-152-68.050781-152-152 68.050781-152 152-152 152 68.050781 152 152zm0 0" fill="#29485a"/><path d="m8 248h.199219c-.085938-2.664062-.199219-5.320312-.199219-8zm0 0"/><path d="m8 232v8c0-2.679688.113281-5.335938.199219-8zm0 0"/><path d="m471.800781 232c.085938 2.664062.199219 5.320312.199219 8v-8zm0 0"/><path d="m472 248v-8c0 2.679688-.113281 5.335938-.199219 8zm0 0"/><path d="m248 8h-8c2.679688 0 5.335938.113281 8 .199219zm0 0"/><path d="m232 8v.199219c2.664062-.085938 5.320312-.199219 8-.199219zm0 0"/><path d="m248 472v-.199219c-2.664062.085938-5.320312.199219-8 .199219zm0 0"/><path d="m232 472h8c-2.679688 0-5.335938-.113281-8-.199219zm0 0"/><path d="m240 120-88 120 88 120 88-120zm0 0" fill="#f8cf26"/><path d="m240 480c132.546875 0 240-107.453125 240-240s-107.453125-240-240-240-240 107.453125-240 240c.148438 132.484375 107.515625 239.851562 240 240zm-8-16.199219c-53.839844-1.902343-105.171875-23.214843-144.527344-60l22.617188-22.617187c33.34375 30.804687 76.554687 48.746094 121.910156 50.617187zm-110.472656-330.960937c-24.777344 27.292968-39.3125 62.339844-41.121094 99.160156h-16.207031c1.839843-41.109375 18.085937-80.261719 45.890625-110.601562zm-.128906-22.75c30.339843-27.804688 69.492187-44.050782 110.601562-45.890625v16.207031c-36.820312 1.808594-71.867188 16.34375-99.160156 41.121094zm-40.992188 137.910156c1.800781 36.832031 16.335938 71.898438 41.121094 99.199219l-11.4375 11.441406c-27.8125-30.347656-44.058594-69.515625-45.890625-110.640625zm151.59375 167.800781c-41.109375-1.839843-80.261719-18.085937-110.601562-45.890625l11.441406-11.4375c27.292968 24.777344 62.339844 39.3125 99.160156 41.121094zm16 48v-32c45.351562-1.859375 88.5625-19.789062 121.910156-50.578125l22.617188 22.617188c-39.363282 36.773437-90.695313 58.066406-144.527344 59.960937zm167.800781-215.800781c-1.839843 41.109375-18.085937 80.261719-45.890625 110.601562l-11.4375-11.441406c24.777344-27.292968 39.3125-62.339844 41.121094-99.160156zm-57.328125-115.160156 11.4375-11.441406c27.804688 30.339843 44.050782 69.492187 45.890625 110.601562h-16.207031c-1.808594-36.820312-16.34375-71.867188-41.121094-99.160156zm.128906 237.070312c-30.339843 27.804688-69.492187 44.050782-110.601562 45.890625v-16.207031c36.832031-1.800781 71.898438-16.335938 99.199219-41.121094zm45.238282 22.617188-22.617188-22.617188c30.789063-33.347656 48.71875-76.558594 50.578125-121.910156h32c-1.894531 53.832031-23.1875 105.164062-59.960937 144.527344zm59.960937-160.527344h-32c-1.859375-45.351562-19.789062-88.5625-50.578125-121.910156l22.617188-22.617188c36.773437 39.363282 58.066406 90.695313 59.960937 144.527344zm-215.800781-215.800781c53.832031 1.894531 105.164062 23.1875 144.527344 59.960937l-22.617188 22.617188c-33.347656-30.789063-76.558594-48.71875-121.910156-50.578125zm0 48c41.109375 1.839843 80.261719 18.085937 110.601562 45.890625l-11.441406 11.4375c-27.292968-24.777344-62.339844-39.3125-99.160156-41.121094zm136 175.800781c0 79.527344-64.472656 144-144 144s-144-64.472656-144-144 64.472656-144 144-144c79.492188.09375 143.90625 64.507812 144 144zm-152-223.800781v32c-45.351562 1.859375-88.5625 19.789062-121.910156 50.578125l-22.617188-22.617188c39.363282-36.773437 90.695313-58.066406 144.527344-59.960937zm-155.839844 71.273437 22.617188 22.617188c-30.789063 33.347656-48.71875 76.558594-50.578125 121.910156h-32c1.894531-53.832031 23.1875-105.164062 59.960937-144.527344zm-27.960937 160.527344c1.859375 45.351562 19.789062 88.5625 50.578125 121.910156l-22.617188 22.617188c-36.773437-39.363282-58.066406-90.695313-59.960937-144.527344zm0 0"/><path d="m233.542969 364.734375c1.507812 2.058594 3.90625 3.277344 6.457031 3.277344s4.949219-1.21875 6.457031-3.277344l88-120c2.070313-2.816406 2.070313-6.652344 0-9.46875l-88-120c-1.578125-1.949219-3.953125-3.078125-6.457031-3.078125s-4.878906 1.128906-6.457031 3.078125l-88 120c-2.070313 2.816406-2.070313 6.652344 0 9.46875zm6.457031-231.207031 78.078125 106.472656-78.078125 106.472656-78.078125-106.472656zm0 0"/></svg>