<svg height="480pt" viewBox="0 0 480.5899 480" width="480pt" xmlns="http://www.w3.org/2000/svg"><path d="m328.589844 328.886719-48-240h-80l-48 240zm0 0" fill="#d4eded"/><g fill="#c0e5e7"><path d="m200.589844 88.886719-95.433594-40-56.566406 56.566406 104 227.433594"/><path d="m328.589844 328.886719 104-223.433594-56.566406-56.566406-95.433594 40zm0 0"/><path d="m328.589844 332.886719c0-15.464844-39.398438-28-88-28-48.601563 0-88 12.535156-88 28 0 15.460937 39.398437 28 88 28 48.601562 0 88-12.539063 88-28zm0 0"/></g><path d="m240.589844 8.886719c22.089844 0 40 17.90625 40 40v40h-80v-40c0-22.09375 17.910156-40 40-40zm0 0" fill="#999"/><path d="m460.875 20.597656c15.621094 15.621094 15.621094 40.949219 0 56.570313l-28.285156 28.285156-56.566406-56.570313 28.28125-28.285156c15.621093-15.621094 40.949218-15.621094 56.570312 0zm0 0" fill="#808080"/><path d="m105.160156 48.886719-56.566406 56.566406-28.285156-28.285156c-15.621094-15.621094-15.621094-40.945313 0-56.566407 15.621094-15.621093 40.945312-15.621093 56.566406 0zm0 0" fill="#808080"/><path d="m8.589844 480.886719c0-22.09375 17.910156-40 40-40s40 17.90625 40 40" fill="#0378a3"/><path d="m96.589844 480.886719c0-22.09375 17.910156-40 40-40s40 17.90625 40 40" fill="#fbcc34"/><path d="m224.589844 480.886719c0-22.09375 17.910156-40 40-40s40 17.90625 40 40" fill="#4d4d4d"/><path d="m192.589844 480.886719v-57.378907c0-4.242187 1.6875-8.3125 4.6875-11.3125 6.25-6.246093 16.375-6.246093 22.625 0 3 3 4.6875 7.070313 4.6875 11.3125v57.378907" fill="#f0d0b4"/><path d="m304.589844 480.886719v-57.378907c0-4.242187 1.6875-8.3125 4.6875-11.3125 6.25-6.246093 16.375-6.246093 22.625 0 3 3 4.6875 7.070313 4.6875 11.3125v57.378907" fill="#f0d0b4"/><path d="m360.589844 480.886719c0-22.09375 17.910156-40 40-40s40 17.90625 40 40" fill="#4d4d4d"/><path d="m440.589844 480.886719v-57.378907c0-4.242187 1.6875-8.3125 4.6875-11.3125 6.25-6.246093 16.375-6.246093 22.625 0 3 3 4.6875 7.070313 4.6875 11.3125v57.378907" fill="#f0d0b4"/><path d="m240.589844 189.492188 11.503906 35.394531h37.214844l-30.109375 21.871093 11.503906 35.398438-30.113281-21.878906-30.113282 21.878906 11.503907-35.398438-30.109375-21.871093h37.214844zm0 0" fill="#ed1c24"/><path d="m.589844 376.886719h480v16h-480zm0 0"/><path d="m240.589844.886719c-26.5.023437-47.972656 21.5-48 48v39.199219l-47.839844 239.199218.800781.152344c-.605469 1.753906-.929687 3.59375-.960937 5.449219 0 24.734375 49.769531 36 96 36 46.230468 0 96-11.265625 96-36-.027344-1.84375-.347656-3.671875-.945313-5.417969l.800781-.152344-47.855468-239.230468v-39.199219c-.027344-26.5-21.5-47.976563-48-48zm-32 48c0-17.675781 14.328125-32 32-32s32 14.324219 32 32v32h-64zm112 284c0 5.980469-27.199219 20-80 20-52.800782 0-80-14.019531-80-20 0-5.984375 27.199218-20 80-20 52.800781 0 80 14.015625 80 20zm-4-23.058594c-24.21875-9.324219-50.058594-13.726563-76-12.941406-25.941406-.785157-51.78125 3.617187-76 12.941406l42.558594-212.941406h66.882812zm0 0"/><path d="m432.589844.886719c-12.738282-.039063-24.957032 5.027343-33.9375 14.0625l-27.382813 27.375-62.28125 31.417969 7.203125 14.285156 58.261719-29.398438 48.863281 48.871094-30.238281 82.632812 15.023437 5.503907 31.398438-85.785157 27.027344-27.03125c13.722656-13.726562 17.828125-34.371093 10.398437-52.304687-7.425781-17.933594-24.925781-29.625-44.335937-29.628906zm22.625 70.621093-22.625 22.632813-45.257813-45.253906 22.632813-22.625c12.65625-12.097657 32.59375-12.097657 45.25 0 12.492187 12.496093 12.492187 32.75 0 45.246093zm0 0"/><path d="m82.527344 14.949219c-12.054688-12.476563-29.898438-17.484375-46.683594-13.089844-16.78125 4.394531-29.886719 17.5-34.28125 34.28125-4.390625 16.78125.613281 34.628906 13.089844 46.679687l27.121094 27.128907 31.390624 77.925781 14.851563-5.980469-30.027344-74.523437 48.929688-48.886719 66.398437 29.746094 6.546875-14.609375-70.097656-31.449219zm-33.9375 79.191406-22.625-22.632813c-8.316406-8.035156-11.652344-19.929687-8.726563-31.121093 2.929688-11.1875 11.667969-19.921875 22.855469-22.851563 11.1875-2.929687 23.085938.40625 31.121094 8.726563l22.632812 22.625zm0 0"/><path d="m136.589844 432.886719c-19.101563.023437-36.375 11.355469-44 28.871093-9.082032-20.832031-31.523438-32.4375-53.769532-27.8125-22.25 4.625-38.203124 24.214844-38.230468 46.941407h16c0-17.675781 14.328125-32 32-32s32 14.324219 32 32h24c0-17.675781 14.328125-32 32-32s32 14.324219 32 32h16c-.027344-26.5-21.5-47.976563-48-48zm0 0"/><path d="m303.621094 406.539062c-4.515625 4.492188-7.050782 10.601563-7.03125 16.96875v21.695313c-18.171875-16.425781-45.828125-16.425781-64 0v-21.695313c.015625-6.367187-2.515625-12.476562-7.03125-16.96875-9.496094-9.0625-24.441406-9.0625-33.9375 0-4.515625 4.492188-7.050782 10.601563-7.03125 16.96875v57.378907h16v-57.378907c0-4.417968 3.582031-8 8-8 4.417968 0 8 3.582032 8 8v57.378907h16c0-17.675781 14.328125-32 32-32s32 14.324219 32 32h16v-57.378907c0-4.417968 3.582031-8 8-8 4.417968 0 8 3.582032 8 8v57.378907h16v-57.378907c.015625-6.367187-2.515625-12.476562-7.03125-16.96875-9.496094-9.0625-24.441406-9.0625-33.9375 0zm0 0"/><path d="m439.621094 406.539062c-4.515625 4.492188-7.050782 10.601563-7.03125 16.96875v21.695313c-14.074219-12.679687-34.296875-15.882813-51.597656-8.164063-17.304688 7.714844-28.433594 24.902344-28.402344 43.847657h16c0-17.675781 14.328125-32 32-32s32 14.324219 32 32h16v-57.378907c0-4.417968 3.582031-8 8-8 4.417968 0 8 3.582032 8 8v57.378907h16v-57.378907c.015625-6.367187-2.515625-12.476562-7.03125-16.96875-9.496094-9.0625-24.441406-9.0625-33.9375 0zm0 0"/><path d="m248.199219 187.019531c-1.082031-3.28125-4.144531-5.5-7.601563-5.5-3.457031 0-6.519531 2.21875-7.601562 5.5l-9.71875 29.867188h-31.40625c-3.46875-.003907-6.539063 2.230469-7.609375 5.523437-1.074219 3.296875.101562 6.910156 2.902343 8.945313l25.425782 18.457031-9.703125 29.878906c-1.066407 3.296875.109375 6.902344 2.910156 8.9375 2.804687 2.035156 6.597656 2.035156 9.402344 0l25.390625-18.457031 25.40625 18.457031c2.804687 2.035156 6.597656 2.035156 9.402344 0 2.800781-2.035156 3.976562-5.640625 2.910156-8.9375l-9.71875-29.878906 25.40625-18.457031c2.804687-2.035157 3.976562-5.640625 2.910156-8.9375-1.066406-3.292969-4.132812-5.527344-7.597656-5.53125h-31.40625zm3.390625 62.210938 3.886718 12-10.183593-7.402344c-2.804688-2.039063-6.601563-2.039063-9.40625 0l-10.183594 7.402344 3.886719-12c1.066406-3.296875-.105469-6.902344-2.902344-8.9375l-10.195312-7.40625h12.59375c3.46875 0 6.542968-2.230469 7.617187-5.53125l3.886719-12 3.886718 12c1.070313 3.296875 4.144532 5.527343 7.609376 5.53125h12.601562l-10.195312 7.40625c-2.796876 2.035156-3.96875 5.640625-2.902344 8.9375zm0 0"/><path d="m426.933594 283.226562 16-16 11.3125 11.316407-15.996094 15.996093zm0 0"/><path d="m354.9375 214.542969 11.3125-11.3125 15.996094 15.996093-11.3125 11.3125zm0 0"/><path d="m66.933594 259.230469 15.996094-16 11.316406 11.316406-16 15.996094zm0 0"/><path d="m2.933594 182.542969 11.316406-11.3125 15.996094 16-11.3125 11.3125zm0 0"/><path d="m114.933594 131.226562 15.996094-15.996093 11.316406 11.3125-16 15.996093zm0 0"/><path d="m32.589844 336.886719h16v16h-16zm0 0"/><path d="m442.9375 131.222656 15.996094-15.996094 11.3125 11.3125-15.996094 16zm0 0"/><path d="m328.589844 112.886719h16v16h-16zm0 0"/></svg>