<svg height="471.99658pt" viewBox="12 8 471.99658 471.99658" width="471.99658pt" xmlns="http://www.w3.org/2000/svg"><path d="m252 132 123.996094-124 88 88-124 123.996094zm0 0" fill="#c69c6d"/><path d="m296 176 123.996094-124 44 44-124 123.996094zm0 0" fill="#a67c52"/><path d="m7.996094 375.996094 224-224 88 88-224 224zm0 0" fill="#97d7d9"/><path d="m8 376h36.140625c12.714844 0 24.90625-5.050781 33.898437-14.042969l12.109376-12.109375c8.871093-8.867187 20.894531-13.847656 33.433593-13.847656h13.703125c9.421875 0 18.457032-3.742188 25.121094-10.402344l12.433594-12.429687c10.984375-10.992188 25.890625-17.167969 41.429687-17.167969h47.730469l-168 168zm0 0" fill="#00bbd6"/><path d="m232 152 88 88h40l-128-128zm0 0" fill="#4ec3c7"/><path d="m90.34375 469.652344c3.121094 3.125 8.1875 3.125 11.308594 0l221.65625-221.652344h36.691406c3.234375-.003906 6.148438-1.953125 7.386719-4.941406 1.238281-2.988282.554687-6.429688-1.734375-8.714844l-14.34375-14.34375 118.34375-118.347656c3.125-3.121094 3.125-8.1875 0-11.308594l-88-88c-3.121094-3.125-8.1875-3.125-11.308594 0l-118.34375 118.34375-14.347656-14.34375c-2.285156-2.289062-5.726563-2.972656-8.714844-1.734375s-4.9375 4.152344-4.9375 7.390625v36.6875l-221.65625 221.65625c-3.125 3.121094-3.125 8.1875 0 11.308594zm362.34375-373.652344-112.6875 112.6875-32.691406-32.6875 112.691406-112.691406zm-76.6875-76.691406 32.6875 32.691406-112.6875 112.6875-32.691406-32.6875zm-136 112 94.34375 94.34375 6.34375 6.347656h-17.378906l-83.308594-83.3125zm-8 32 76.6875 76.691406-48 48h-44.417969c-14.558593-.019531-28.71875 4.777344-40.269531 13.636719v-21.636719h-16v32h4.6875l-7.9375 7.933594c-5.152344 5.179687-12.160156 8.082031-19.464844 8.066406h-13.703125c-14.652343.039062-28.695312 5.855469-39.085937 16.183594l-12.113282 12.117187c-7.472656 7.515625-17.644531 11.726563-28.242187 11.699219h-16.796875zm-187.859375 220.691406c9.359375.015625 18.566406-2.332031 26.777344-6.816406l28.28125 21.214844 9.597656-12.800782-24.621094-18.464844 11.636719-11.628906c7.382812-7.34375 17.359375-11.480468 27.769531-11.503906h13.703125c11.550782.03125 22.636719-4.558594 30.777344-12.753906l12.433594-12.421875c9.464844-9.523438 22.347656-14.859375 35.773437-14.824219h28.417969l-148.6875 148.6875-68.691406-68.6875zm0 0"/><path d="m200 232h32v16h-32zm0 0"/><path d="m130.34375 370.339844 16-16 11.3125 11.316406-15.996094 15.996094zm0 0"/><path d="m114.34375 290.339844 15.996094-15.996094 11.316406 11.3125-16 15.996094zm0 0"/><path d="m256.847656 252.421875 8-15.996094 14.308594 7.152344-8 16zm0 0"/><path d="m74.34375 421.660156 11.316406-11.316406 15.996094 16-11.3125 11.3125zm0 0"/></svg>