<svg height="448pt" viewBox="0 -24 448.0131 448" width="448pt" xmlns="http://www.w3.org/2000/svg"><path d="m397.78125 22.632812c-51.195312-20.140624-108.253906-19.335937-158.863281 2.238282l-33.703125 14.34375 5.601562 93.5625 9.660156 87.816406-1.492187 6.492188c-1.488281 6.507812 21.015625 28.203124 21.015625 28.203124 22.296875 21.203126 51.835938 33.109376 82.605469 33.292969 47.800781-.3125 89.664062-32.125 102.769531-78.09375l1.910156-6.511719c2.207032-7.523437 3.621094-15.261718 4.210938-23.082031l8.503906-141.679687zm-5.78125 197.527344c-8.585938-30.6875-40.746094-58.824218-72-58.824218-31.257812 0-63.417969 28.136718-72 58.824218v-24.511718c0-39.765626 32.234375-72 72-72 39.761719 0 72 32.234374 72 72zm0 0" fill="#556180"/><path d="m200.566406 125.785156c-51.199218-20.140625-108.261718-19.335937-158.871094 2.238282l-33.695312 14.34375 8.503906 141.71875c.585938 7.8125 2 15.535156 4.207032 23.050781l1.910156 6.535156c13.113281 45.964844 54.972656 77.765625 102.769531 78.078125 47.789063-.308594 89.644531-32.105469 102.761719-78.0625l1.917968-6.519531c2.207032-7.523438 3.617188-15.261719 4.207032-23.082031l2.746094-45.773438 5.757812-95.914062zm-.566406 143.207032c0 39.765624-32.238281 72-72 72-39.765625 0-72-32.234376-72-72v-24.511719c8.582031 30.6875 40.742188 58.824219 72 58.824219 31.253906 0 63.414062-28.136719 72-58.824219zm0 0" fill="#ffd949"/><path d="m13.03125 309.382812 1.917969 6.519532c13.835937 49.558594 58.988281 83.828125 110.441406 83.828125s96.601563-34.269531 110.441406-83.828125l1.910157-6.519532c2.375-8.101562 3.890624-16.433593 4.519531-24.855468l.9375-15.640625c22.679687 17.761719 50.601562 27.507812 79.40625 27.722656 51.429687-.078125 96.542969-34.324219 110.441406-83.839844l1.910156-6.503906c2.378907-8.105469 3.894531-16.441406 4.519531-24.867187l8.523438-141.703126c.207031-3.457031-1.832031-6.660156-5.058594-7.925781l-42.230468-16.585937c-53.128907-21.015625-112.414063-20.175782-164.929688 2.328125l-33.695312 14.34375c-3.113282 1.324219-5.058594 4.464843-4.855469 7.839843l4.6875 78.066407c-52.738281-20.40625-111.371094-19.363281-163.351563 2.902343l-33.703125 14.34375c-3.109375 1.324219-5.050781 4.464844-4.847656 7.839844l8.511719 141.824219c.632812 8.371094 2.140625 16.65625 4.503906 24.710937zm229.015625-277.152343c48.65625-20.839844 103.574219-21.613281 152.800781-2.152344l36.796875 14.457031-8.125 135.761719c-.546875 7.261719-1.859375 14.445313-3.914062 21.429687l-1.910157 6.519532c-11.933593 42.679687-50.773437 72.230468-95.089843 72.347656-28.625-.242188-56.105469-11.277344-76.941407-30.90625-.433593-.433594-.800781-.894531-1.226562-1.335938l.570312-9.550781.671876-11.082031c.398437.167969.808593.304688 1.230468.410156 3.964844.546875 7.722656-1.917968 8.800782-5.769531 7.894531-28.230469 37.945312-52.984375 64.296874-52.984375 26.351563 0 56.398438 24.753906 64.292969 52.984375.96875 3.453125 4.113281 5.835937 7.699219 5.839844.363281 0 .730469-.023438 1.09375-.070313 3.972656-.550781 6.925781-3.957031 6.90625-7.96875v-24.511718c.363281-44.582032-35.421875-81.050782-80-81.527344-29.328125.136718-56.222656 16.347656-70.042969 42.214844l.800781-13.488282c.207032-3.460937-1.835937-6.660156-5.0625-7.929687l-27.367187-10.75-4.800781-79.800781zm14.511719 154.722656c3.5625-32.347656 30.894531-56.835937 63.441406-56.835937 32.542969 0 59.875 24.488281 63.4375 56.835937-15.191406-19.96875-38.386719-32.253906-63.4375-33.601563-25.054688 1.347657-48.25 13.632813-63.441406 33.601563zm-211.761719-51.570313c48.660156-20.835937 103.578125-21.609374 152.800781-2.152343l36.800782 14.457031-8.097657 135.761719c-.546875 7.261719-1.855469 14.449219-3.902343 21.4375l-1.910157 6.519531c-11.835937 42.746094-50.738281 72.34375-95.089843 72.34375-44.351563 0-83.253907-29.597656-95.089844-72.34375l-1.917969-6.519531c-2.039063-6.9375-3.347656-14.070313-3.894531-21.277344l-8.167969-136.089844zm0 0"/><path d="m155.445312 212.640625c4.539063-7.757813 12.632813-12.757813 21.601563-13.335937 8.96875.582031 17.0625 5.578124 21.597656 13.335937 2.515625 3.632813 7.5 4.542969 11.132813 2.027344 3.636718-2.515625 4.542968-7.5 2.027344-11.132813-7.453126-12.15625-20.511719-19.761718-34.765626-20.246094-14.242187.484376-27.292968 8.082032-34.746093 20.230469-1.707031 2.347657-2.007813 5.4375-.789063 8.070313 1.222656 2.632812 3.773438 4.398437 6.667969 4.613281s5.679687-1.152344 7.273437-3.578125zm0 0"/><path d="m52.140625 212.640625c4.539063-7.757813 12.632813-12.757813 21.601563-13.335937 8.96875.578124 17.0625 5.578124 21.601562 13.335937 2.511719 3.632813 7.496094 4.542969 11.128906 2.027344 3.636719-2.515625 4.542969-7.5 2.03125-11.132813-7.457031-12.15625-20.511718-19.757812-34.761718-20.246094-14.246094.480469-27.296876 8.082032-34.75 20.230469-1.710938 2.347657-2.011719 5.4375-.792969 8.070313 1.222656 2.632812 3.773437 4.398437 6.667969 4.613281 2.894531.214844 5.679687-1.152344 7.273437-3.578125zm0 0"/><path d="m63.703125 242.320312c-1.078125-3.851562-4.832031-6.316406-8.792969-5.769531-3.964844.542969-6.914062 3.929688-6.910156 7.929688v24.511719c-.347656 44.570312 35.429688 81.015624 80 81.496093 44.566406-.480469 80.34375-36.925781 80-81.496093v-24.511719c0-4-2.949219-7.386719-6.910156-7.929688-3.960938-.546875-7.71875 1.917969-8.796875 5.769531-7.894531 28.222657-37.941407 52.96875-64.292969 52.96875-26.355469 0-56.402344-24.746093-64.296875-52.96875zm127.734375 35.367188c-3.5625 32.347656-30.894531 56.832031-63.4375 56.832031-32.546875 0-59.878906-24.484375-63.441406-56.832031 15.195312 19.960938 38.390625 32.246094 63.441406 33.601562 25.050781-1.355468 48.242188-13.640624 63.4375-33.601562zm0 0"/><path d="m374.253906 104.886719c14.246094-.480469 27.300782-8.082031 34.753906-20.230469 1.707032-2.347656 2.007813-5.4375.789063-8.070312-1.222656-2.632813-3.773437-4.402344-6.667969-4.613282-2.894531-.214844-5.679687 1.152344-7.273437 3.578125-4.09375 8.179688-12.453125 13.347657-21.601563 13.347657-9.144531 0-17.507812-5.167969-21.597656-13.347657-2.515625-3.632812-7.5-4.539062-11.132812-2.027343-3.636719 2.515624-4.542969 7.5-2.027344 11.132812 7.457031 12.148438 20.511718 19.746094 34.757812 20.230469zm0 0"/><path d="m270.957031 104.886719c14.246094-.484375 27.292969-8.082031 34.746094-20.230469 1.707031-2.347656 2.011719-5.4375.789063-8.070312-1.21875-2.632813-3.773438-4.402344-6.667969-4.613282-2.894531-.214844-5.679688 1.152344-7.273438 3.578125-4.539062 7.757813-12.632812 12.757813-21.601562 13.335938-8.964844-.582031-17.058594-5.578125-21.597657-13.335938-2.515624-3.632812-7.5-4.539062-11.132812-2.027343-3.632812 2.515624-4.542969 7.5-2.027344 11.132812 7.460938 12.148438 20.515625 19.75 34.765625 20.230469zm0 0"/></svg>