<svg height="480pt" viewBox="0 0 480 480" width="480pt" xmlns="http://www.w3.org/2000/svg"><path d="m88 400v-98.832031c0-7.273438 5.894531-13.167969 13.167969-13.167969h53.664062c7.273438 0 13.167969 5.894531 13.167969 13.167969v98.832031" fill="#e74c3d"/><path d="m312 400v-98.832031c0-7.273438 5.894531-13.167969 13.167969-13.167969h53.664062c7.273438 0 13.167969 5.894531 13.167969 13.167969v98.832031" fill="#e74c3d"/><g fill="#c1272d"><path d="m88 400v-98.832031c0-7.273438-5.894531-13.167969-13.167969-13.167969h-53.664062c-7.273438 0-13.167969 5.894531-13.167969 13.167969v98.832031"/><path d="m392 392v-90.832031c0-7.273438 5.894531-13.167969 13.167969-13.167969h53.664062c7.273438 0 13.167969 5.894531 13.167969 13.167969v90.832031"/><path d="m200 400v-98.832031c0-7.273438 5.894531-13.167969 13.167969-13.167969h53.664062c7.273438 0 13.167969 5.894531 13.167969 13.167969v98.832031"/><path d="m88 448v-82.832031c0-7.273438 5.894531-13.167969 13.167969-13.167969h53.664062c7.273438 0 13.167969 5.894531 13.167969 13.167969v90.832031"/><path d="m392 456v-90.832031c0-7.273438-5.894531-13.167969-13.167969-13.167969h-53.664062c-7.273438 0-13.167969 5.894531-13.167969 13.167969v90.832031"/></g><path d="m88 456v-90.832031c0-7.273438-5.894531-13.167969-13.167969-13.167969h-53.664062c-7.273438 0-13.167969 5.894531-13.167969 13.167969v82.832031" fill="#e74c3d"/><path d="m200 456v-90.832031c0-7.273438 5.894531-13.167969 13.167969-13.167969h53.664062c7.273438 0 13.167969 5.894531 13.167969 13.167969v90.832031" fill="#e74c3d"/><path d="m392 456v-90.832031c0-7.273438 5.894531-13.167969 13.167969-13.167969h53.664062c7.273438 0 13.167969 5.894531 13.167969 13.167969v90.832031" fill="#e74c3d"/><path d="m8 8h464v232h-464zm0 0" fill="#29485a"/><path d="m8 480v-42.832031c0-7.273438 5.894531-13.167969 13.167969-13.167969h53.664062c7.273438 0 13.167969 5.894531 13.167969 13.167969v42.832031" fill="#c1272d"/><path d="m88 480v-42.832031c0-7.273438 5.894531-13.167969 13.167969-13.167969h53.664062c7.273438 0 13.167969 5.894531 13.167969 13.167969v42.832031" fill="#e74c3d"/><path d="m104 424c0-13.253906 10.746094-24 24-24s24 10.746094 24 24" fill="#1a1a1a"/><path d="m392 480v-42.832031c0-7.273438 5.894531-13.167969 13.167969-13.167969h53.664062c7.273438 0 13.167969 5.894531 13.167969 13.167969v42.832031" fill="#c1272d"/><path d="m408.070312 424c-.070312-.625-.070312-1.257812-.070312-1.886719 0-13.257812 10.746094-24 24-24s24 10.742188 24 24c0 .628907 0 1.261719-.070312 1.886719" fill="#f8cf26"/><path d="m312 480v-42.832031c0-7.273438 5.894531-13.167969 13.167969-13.167969h53.664062c7.273438 0 13.167969 5.894531 13.167969 13.167969v42.832031" fill="#e74c3d"/><path d="m200 480v-42.832031c0-7.273438 5.894531-13.167969 13.167969-13.167969h53.664062c7.273438 0 13.167969 5.894531 13.167969 13.167969v42.832031" fill="#c1272d"/><path d="m216 424c0-13.253906 10.746094-24 24-24s24 10.746094 24 24" fill="#1a1a1a"/><path d="m24.070312 352c-.070312-.625-.070312-1.257812-.070312-1.886719 0-13.257812 10.746094-24 24-24s24 10.742188 24 24c0 .628907 0 1.261719-.070312 1.886719" fill="#f8cf26"/><path d="m103.9375 351.40625c0-.621094-.042969-1.246094 0-1.886719.324219-13.253906 11.335938-23.734375 24.589844-23.40625 13.253906.324219 23.734375 11.335938 23.410156 24.589844 0 .433594 0 .863281-.074219 1.296875" fill="#f8cf26"/><path d="m408.070312 352c-.070312-.625-.070312-1.257812-.070312-1.886719 0-13.257812 10.746094-24 24-24s24 10.742188 24 24c0 .628907 0 1.261719-.070312 1.886719" fill="#1a1a1a"/><path d="m32 32h416v184h-416zm0 0" fill="#e6e6e6"/><path d="m8 248h464c4.417969 0 8-3.582031 8-8v-232c0-4.417969-3.582031-8-8-8h-464c-4.417969 0-8 3.582031-8 8v232c0 4.417969 3.582031 8 8 8zm8-232h448v216h-448zm0 0"/><path d="m16 448v-10.832031c.003906-2.851563 2.316406-5.164063 5.167969-5.167969h53.664062c2.851563.003906 5.164063 2.316406 5.167969 5.167969v42.832031h16v-42.832031c.003906-2.851563 2.316406-5.164063 5.167969-5.167969h53.664062c2.851563.003906 5.164063 2.316406 5.167969 5.167969v42.832031h16v-178.832031c-.011719-11.683594-9.484375-21.15625-21.167969-21.167969h-53.664062c-4.800781.019531-9.449219 1.691406-13.167969 4.726562-3.71875-3.035156-8.367188-4.707031-13.167969-4.726562h-53.664062c-11.683594.011719-21.1562502 9.484375-21.167969 21.167969v178.832031h16zm98.222656-32c2.824219-4.945312 8.082032-7.996094 13.777344-7.996094s10.953125 3.050782 13.777344 7.996094zm-18.222656-72v-42.832031c.003906-2.851563 2.316406-5.164063 5.167969-5.167969h53.664062c2.851563.003906 5.164063 2.316406 5.167969 5.167969v43.542969c-.199219-.046876-.382812-.136719-.59375-.183594-2.675781-15.273438-15.941406-26.410156-31.445312-26.410156-15.507813 0-28.769532 11.136718-31.449219 26.410156-.175781 0-.335938.113281-.511719.160156zm46.6875 0h-29.535156c2.484375-5.960938 8.308594-9.84375 14.769531-9.84375 6.457031 0 12.28125 3.882812 14.765625 9.84375zm-46.6875 64v-42.832031c.003906-2.851563 2.316406-5.164063 5.167969-5.167969h53.664062c2.851563.003906 5.164063 2.316406 5.167969 5.167969v51.542969c-.34375-.085938-.65625-.222657-1.007812-.285157-3.4375-14.332031-16.253907-24.4375-30.992188-24.4375s-27.554688 10.105469-30.992188 24.4375c-.351562.0625-.664062.199219-1.007812.285157zm-80-106.832031c.003906-2.851563 2.316406-5.164063 5.167969-5.167969h53.664062c2.851563.003906 5.164063 2.316406 5.167969 5.167969v43.542969c-.191406-.046876-.367188-.136719-.558594-.175782-2.679687-15.265625-15.941406-26.40625-31.441406-26.40625s-28.761719 11.140625-31.441406 26.40625c-.191406.050782-.367188.128906-.558594.175782zm46.777344 42.832031h-29.554688c2.480469-5.972656 8.3125-9.863281 14.777344-9.863281s12.296875 3.890625 14.777344 9.863281zm-46.777344 56v-34.832031c.003906-2.851563 2.316406-5.164063 5.167969-5.167969h53.664062c2.851563.003906 5.164063 2.316406 5.167969 5.167969v51.542969c-1.6875-.453126-3.421875-.691407-5.167969-.710938h-53.664062c-1.746094.019531-3.480469.257812-5.167969.710938zm0 0"/><path d="m480 456v-154.832031c-.011719-11.683594-9.484375-21.15625-21.167969-21.167969h-53.664062c-4.800781.019531-9.449219 1.691406-13.167969 4.726562-3.71875-3.035156-8.367188-4.707031-13.167969-4.726562h-53.664062c-11.683594.011719-21.15625 9.484375-21.167969 21.167969v178.832031h16v-42.832031c.003906-2.851563 2.316406-5.164063 5.167969-5.167969h53.664062c2.851563.003906 5.164063 2.316406 5.167969 5.167969v42.832031h16v-42.832031c.003906-2.851563 2.316406-5.164063 5.167969-5.167969h53.664062c2.851563.003906 5.164063 2.316406 5.167969 5.167969v42.832031h16zm-96-56v16.710938c-1.6875-.453126-3.421875-.691407-5.167969-.710938h-53.664062c-1.746094.019531-3.480469.257812-5.167969.710938v-51.542969c.003906-2.851563 2.316406-5.164063 5.167969-5.167969h53.664062c2.851563.003906 5.164063 2.316406 5.167969 5.167969zm0-56v.710938c-1.6875-.453126-3.421875-.691407-5.167969-.710938h-53.664062c-1.746094.019531-3.480469.257812-5.167969.710938v-43.542969c.003906-2.851563 2.316406-5.164063 5.167969-5.167969h53.664062c2.851563.003906 5.164063 2.316406 5.167969 5.167969zm33.222656 72c2.480469-5.972656 8.3125-9.863281 14.777344-9.863281s12.296875 3.890625 14.777344 9.863281zm46.777344.710938c-.191406-.046876-.367188-.136719-.558594-.175782-2.679687-15.265625-15.941406-26.40625-31.441406-26.40625s-28.761719 11.140625-31.441406 26.40625c-.191406.050782-.367188.128906-.558594.175782v-51.542969c.003906-2.851563 2.316406-5.164063 5.167969-5.167969h53.664062c2.851563.003906 5.164063 2.316406 5.167969 5.167969zm-46.777344-72.710938c2.480469-5.972656 8.3125-9.863281 14.777344-9.863281s12.296875 3.890625 14.777344 9.863281zm46.777344.710938c-.191406-.046876-.367188-.136719-.558594-.175782-2.679687-15.265625-15.941406-26.40625-31.441406-26.40625s-28.761719 11.140625-31.441406 26.40625c-.191406.050782-.367188.128906-.558594.175782v-43.542969c.003906-2.851563 2.316406-5.164063 5.167969-5.167969h53.664062c2.851563.003906 5.164063 2.316406 5.167969 5.167969zm0 0"/><path d="m272 480h16v-178.832031c-.011719-11.683594-9.484375-21.15625-21.167969-21.167969h-53.664062c-11.683594.011719-21.15625 9.484375-21.167969 21.167969v178.832031h16v-42.832031c.003906-2.851563 2.316406-5.164063 5.167969-5.167969h53.664062c2.851563.003906 5.164063 2.316406 5.167969 5.167969zm-64-178.832031c.003906-2.851563 2.316406-5.164063 5.167969-5.167969h53.664062c2.851563.003906 5.164063 2.316406 5.167969 5.167969v43.542969c-1.6875-.453126-3.421875-.691407-5.167969-.710938h-53.664062c-1.746094.019531-3.480469.257812-5.167969.710938zm18.222656 114.832031c2.824219-4.945312 8.082032-7.996094 13.777344-7.996094s10.953125 3.050782 13.777344 7.996094zm44.800782.425781c-3.4375-14.332031-16.253907-24.4375-30.992188-24.4375s-27.550781 10.105469-30.992188 24.4375c-.351562.0625-.664062.199219-1.007812.285157v-51.542969c.003906-2.839844 2.296875-5.144531 5.136719-5.167969h53.664062c2.851563.003906 5.164063 2.316406 5.167969 5.167969v51.542969c-.34375-.085938-.65625-.222657-1.007812-.285157zm0 0"/><path d="m448 24h-416c-4.417969 0-8 3.582031-8 8v184c0 4.417969 3.582031 8 8 8h416c4.417969 0 8-3.582031 8-8v-184c0-4.417969-3.582031-8-8-8zm-8 184h-400v-168h400zm0 0"/></svg>