<svg height="487pt" viewBox="-44 0 487 487.96106" width="487pt" xmlns="http://www.w3.org/2000/svg"><path d="m40.472656 247.960938h64v232h-64zm0 0" fill="#f7931e"/><path d="m40.472656 255.960938v38.527343c9.570313-3.355469 15.980469-12.386719 16-22.527343v-16zm0 0" fill="#e57e25"/><path d="m104.472656 247.960938h64v232h-64zm0 0" fill="#ffd949"/><path d="m168.472656 247.960938h64v232h-64zm0 0" fill="#f7931e"/><path d="m232.472656 247.960938h64v232h-64zm0 0" fill="#ffd949"/><path d="m296.472656 247.960938h64v232h-64zm0 0" fill="#f7931e"/><path d="m344.472656 255.960938v16c.019532 10.140624 6.429688 19.171874 16 22.527343v-38.527343zm0 0" fill="#e57e25"/><path d="m256.472656 479.960938v-75.199219c.011719-18.097657-8.722656-35.082031-23.449218-45.601563-19.472657-13.910156-45.628907-13.910156-65.101563 0-14.726563 10.519532-23.460937 27.503906-23.449219 45.601563v75.199219zm0 0" fill="#0378a3"/><path d="m200.472656 55.960938v-48l72 32zm0 0" fill="#f15a24"/><g fill="#e57e25"><path d="m56.472656 255.960938v16c0 13.253906 10.746094 24 24 24s24-10.746094 24-24v-16zm0 0"/><path d="m104.472656 255.960938v16c0 13.253906 10.746094 24 24 24s24-10.746094 24-24v-16zm0 0"/><path d="m152.472656 255.960938v16c0 13.253906 10.746094 24 24 24s24-10.746094 24-24v-16zm0 0"/><path d="m200.472656 255.960938v16c0 13.253906 10.746094 24 24 24s24-10.746094 24-24v-16zm0 0"/><path d="m248.472656 255.960938v16c0 13.253906 10.746094 24 24 24s24-10.746094 24-24v-16zm0 0"/><path d="m296.472656 255.960938v16c0 13.253906 10.746094 24 24 24s24-10.746094 24-24v-16zm0 0"/></g><path d="m8.472656 247.960938v16c0 13.253906 10.746094 24 24 24s24-10.746094 24-24v-16zm0 0" fill="#fbb03b"/><path d="m56.472656 247.960938v16c0 13.253906 10.746094 24 24 24s24-10.746094 24-24v-16zm0 0" fill="#ffd949"/><path d="m104.472656 247.960938v16c0 13.253906 10.746094 24 24 24s24-10.746094 24-24v-16zm0 0" fill="#fbb03b"/><path d="m152.472656 247.960938v16c0 13.253906 10.746094 24 24 24s24-10.746094 24-24v-16zm0 0" fill="#ffd949"/><path d="m200.472656 247.960938v16c0 13.253906 10.746094 24 24 24s24-10.746094 24-24v-16zm0 0" fill="#fbb03b"/><path d="m248.472656 247.960938v16c0 13.253906 10.746094 24 24 24s24-10.746094 24-24v-16zm0 0" fill="#ffd949"/><path d="m296.472656 247.960938v16c0 13.253906 10.746094 24 24 24s24-10.746094 24-24v-16zm0 0" fill="#fbb03b"/><path d="m344.472656 247.960938v16c0 13.253906 10.746094 24 24 24s24-10.746094 24-24v-16zm0 0" fill="#ffd949"/><path d="m200.472656 247.960938v-192l96 192zm0 0" fill="#ffd949"/><path d="m392.472656 247.960938h-96l-96-192zm0 0" fill="#f7931e"/><path d="m8.472656 247.960938 192-192-96 192zm0 0" fill="#ffd949"/><path d="m104.472656 247.960938 96-192v192zm0 0" fill="#f7931e"/><path d="m160.472656 95.960938s36 44 80 0l-40-40zm0 0" fill="#0378a3"/><path d="m400.375 247.464844c-.046875-.71875-.191406-1.429688-.429688-2.113282-.089843-.253906-.152343-.503906-.265624-.75-.375-.84375-.898438-1.617187-1.542969-2.28125l-181.703125-181.710937 57.773437-12.800781c3.371094-.75 5.882813-3.578125 6.226563-7.011719.34375-3.4375-1.558594-6.707031-4.714844-8.109375l-72-32c-2.464844-1.09375-5.320312-.871094-7.589844.59375-2.269531 1.46875-3.644531 3.980469-3.65625 6.679688v44.6875l-189.65625 189.65625c-.644531.664062-1.167968 1.4375-1.542968 2.28125-.113282.246093-.175782.496093-.265626.75-.238281.683593-.382812 1.394531-.429687 2.113281 0 .175781-.097656.320312-.097656.496093v16c0 17.671876 14.328125 32 32 32v184.015626c0 4.417968 3.582031 8 8 8h319.992187c4.417969 0 8-3.582032 8-8v-184c17.671875 0 32-14.328126 32-32v-16c0-.175782-.089844-.320313-.097656-.496094zm-63.902344 16.496094c0 8.835937-7.164062 16-16 16-8.835937 0-16-7.164063-16-16v-8h32zm-200 208h-24v-180.449219c13.15625 7.871093 30.074219 5.078125 40-6.605469 2.292969 2.621094 4.992188 4.851562 8 6.605469v63.457031c-15.117187 12.113281-23.941406 30.417969-24 49.792969zm-72-216h32v8c0 8.835937-7.164062 16-16 16-8.835937 0-16-7.164063-16-16zm136-188.6875 28.390625 28.390624c-8.238281 7.640626-19.074219 11.863282-30.3125 11.816407-9.925781-.851563-19.304687-4.914063-26.71875-11.566407zm88 196.6875c0 8.835937-7.164062 16-16 16-8.835937 0-16-7.164063-16-16v-8h32zm-48 0c0 8.835937-7.164062 16-16 16-8.835937 0-16-7.164063-16-16v-8h32zm-48 0c0 8.835937-7.164062 16-16 16-8.835937 0-16-7.164063-16-16v-8h32zm-48 0c0 8.835937-7.164062 16-16 16-8.835937 0-16-7.164063-16-16v-8h32zm104-24h-40v-117.191407c4.933594-.800781 9.738282-2.265625 14.28125-4.351562l60.773438 121.542969zm-56-117.039063v117.039063h-75.054687l60.65625-121.320313c4.585937 2.066406 9.429687 3.507813 14.398437 4.28125zm-16 173.039063c9.226563-.03125 17.980469-4.0625 24-11.054688 6.015625 6.992188 14.773438 11.023438 24 11.054688v49.695312c-15.386718-6.253906-32.613281-6.253906-48 0zm64-4.449219c3.007813-1.753907 5.707032-3.984375 8-6.605469 9.925782 11.683594 26.84375 14.476562 40 6.605469v180.449219h-24v-67.199219c-.050781-19.382813-8.875-37.695313-24-49.816407zm104-51.550781h-43.054687l-64.945313-129.902344c1.265625-.96875 2.527344-1.945313 3.777344-3.007813l132.910156 132.910157zm-136-219.6875 38.574219 17.144531-38.574219 8.566406zm-48 86.984374c1.136719 1 2.398438 2.054688 3.816406 3.152344l-64.761718 129.550782h-71.742188zm-144 156.703126v-8h32v8c0 8.835937-7.164062 16-16 16-8.835937 0-16-7.164063-16-16zm32 27.550781c3.007813-1.753907 5.707032-3.984375 8-6.605469 9.925782 11.683594 26.84375 14.476562 40 6.605469v180.449219h-48zm104 180.449219v-67.199219c0-26.511719 21.488282-48 48-48 26.507813 0 48 21.488281 48 48v67.199219zm200 0h-48v-180.449219c13.15625 7.871093 30.074219 5.078125 40-6.605469 2.292969 2.621094 4.992188 4.851562 8 6.605469zm32-208c0 8.835937-7.164062 16-16 16-8.835937 0-16-7.164063-16-16v-8h32zm0 0"/></svg>