<svg height="480pt" viewBox="-8 8 480 480" width="480pt" xmlns="http://www.w3.org/2000/svg"><path d="m256 102.054688v-23.109376c0-24.9375-9.90625-48.851562-27.535156-66.480468l-4.464844-4.464844c0 53.019531-42.980469 96-96 96h-54.28125c-21.027344-.351562-38.9375 15.203125-41.535156 36.070312-1.707032 17.722657 8.535156 34.425782 25.105468 40.9375l-1.289062-.34375v106.535157l-24 16.800781v107.503906l52.367188-1.304687 46.402343-1.160157 43.628907 16.34375c10.742187 4.03125 22.851562 1.410157 30.960937-6.703124l5.6875-5.6875c-1.160156-.871094-2.253906-1.824219-3.472656-2.632813l-36.566407-24.382813c-1.949218-1.304687-3.589843-3.023437-4.800781-5.03125-13.851562-23.308593-16.144531-51.71875-6.207031-76.945312h39.304688c8.5625.113281 16.949218-2.441406 24-7.304688 9.847656-6.019531 16.09375-16.503906 16.695312-28.03125v-4.664062c-17.671875 0-32-14.328125-32-32s14.328125-32 32-32l16-16 8.800781-2.945312c9.074219-3.011719 15.195313-11.496094 15.199219-21.054688-15.367188-15.367188-24-36.210938-24-57.945312zm0 0" fill="#f0d0b4"/><path d="m224 8v-8h-224v360h56v-179.335938c-15.902344-6.929687-25.527344-23.320312-23.832031-40.585937 2.59375-20.878906 20.515625-36.4375 41.550781-36.078125h54.28125c53.019531 0 96-42.980469 96-96" fill="#4ec3c7"/><path d="m352 240 77.039062 77.039062c7.015626 7.019532 10.960938 16.535157 10.960938 26.457032.003906 13.53125-10.964844 24.503906-24.496094 24.503906-9.921875 0-19.4375-3.945312-26.457031-10.960938l-77.046875-77.039062" fill="#666"/><path d="m352 320c13.253906 0 24-10.746094 24-24l32 32c0 13.253906-10.746094 24-24 24zm0 0" fill="#808080"/><path d="m174.398438 425.382812-43.621094-16.34375-46.402344 1.160157 11.625 69.800781h144v-8.984375c-.039062-22.816406-10.769531-44.292969-28.992188-58.023437l-5.6875 5.6875c-8.105468 8.097656-20.191406 10.71875-30.921874 6.703124zm0 0" fill="#f4adc9"/><path d="m16 480v-32c0-35.347656 28.652344-64 64-64s64 28.652344 64 64v32" fill="#ecc19c"/><path d="m352 236c0 24.300781-19.699219 44-44 44s-44-19.699219-44-44 19.699219-44 44-44 44 19.699219 44 44zm0 0" fill="#29485a"/><path d="m208 132v12h16v-12c0-15.464844-12.535156-28-28-28s-28 12.535156-28 28v12h16v-12c0-6.628906 5.371094-12 12-12s12 5.371094 12 12zm0 0"/><path d="m360 236.65625c0-.222656 0-.433594 0-.65625 0-28.71875-23.28125-52-52-52s-52 23.28125-52 52 23.28125 52 52 52h.65625l59.34375 59.3125v132.6875h16v-116.742188c8.472656 8.132813 19.75 12.695313 31.496094 12.742188 17.941406-.019531 32.480468-14.554688 32.503906-32.496094-.03125-12.039062-4.8125-23.582031-13.304688-32.121094zm-52 35.34375c-19.882812 0-36-16.117188-36-36s16.117188-36 36-36 36 16.117188 36 36c-.023438 19.875-16.125 35.976562-36 36zm79.015625 71.703125-3.015625-3.015625v-12.6875h-12.6875l-4-4c5.355469-2.925781 9.769531-7.308594 12.734375-12.640625l19.648437 19.648437c-1.230468 6.425782-6.253906 11.457032-12.679687 12.695313zm28.480469 16.296875c-5.457032-.042969-10.800782-1.59375-15.433594-4.480469 9.832031-5.683593 15.898438-16.164062 15.9375-27.519531 0-2.121094-.84375-4.15625-2.34375-5.65625l-32-32c-2.289062-2.285156-5.730469-2.972656-8.71875-1.734375s-4.9375 4.15625-4.9375 7.390625c-.007812 7.667969-5.460938 14.253906-12.992188 15.695312l-27.519531-27.519531c13.039063-5.304687 23.382813-15.648437 28.6875-28.6875l67.199219 67.199219c5.503906 5.535156 8.601562 13.011719 8.625 20.816406-.011719 9.109375-7.394531 16.488282-16.503906 16.496094zm0 0"/><path d="m240 256c-13.253906 0-24-10.746094-24-24s10.746094-24 24-24c2.121094 0 4.15625-.84375 5.65625-2.34375l14.664062-14.664062 7.03125-2.34375c12.339844-4.101563 20.660157-15.648438 20.648438-28.648438 0-2.121094-.84375-4.15625-2.34375-5.65625-13.914062-13.835938-21.710938-32.660156-21.65625-52.28125v-23.117188c.074219-27.074218-10.683594-53.050781-29.878906-72.136718l-4.464844-4.464844c-2.289062-2.2851562-5.730469-2.972656-8.71875-1.734375s-4.9375 4.15625-4.9375 7.390625c-.058594 48.578125-39.421875 87.941406-88 88h-54.28125c-25.125-.285156-46.441406 18.371094-49.496094 43.3125-1.84375 18.746094 7.457032 36.832031 23.777344 46.238281v166.449219h-48v16h24v34.839844c-10.355469 12.773437-16.003906 28.71875-16 45.160156v32h16v-32c-.03125-24.277344 15.605469-45.804688 38.703125-53.285156 23.101563-7.480469 48.386719.796875 62.59375 20.484375l-.113281.289062.449218.160157c6.742188 9.4375 10.367188 20.75 10.367188 32.351562v32h16v-32c-.019531-8.183594-1.445312-16.300781-4.214844-24l23.757813 8.902344c13.683593 5.109375 29.089843 1.777344 39.433593-8.535156l.519532-.519532c13.0625 12.210938 20.484375 29.289063 20.503906 47.167969v8.984375h16v-8.984375c.035156-27.050781-13.480469-52.324219-36-67.3125l-36.558594-24.375c-.972656-.648437-1.792968-1.5-2.402344-2.496094-11.601562-19.558593-14.25-43.15625-7.269531-64.800781h33.550781c10.230469.132812 20.242188-2.945312 28.632813-8.800781 11.972656-7.507813 19.476563-20.441407 20.046875-34.566407v-4.664062c0-4.417969-3.582031-8-8-8zm-21.34375 34.175781c-5.683594 3.914063-12.453125 5.949219-19.351562 5.824219h-55.304688c-4.417969 0-8 3.582031-8 8s3.582031 8 8 8h4.984375c-6.484375 24.761719-2.765625 51.085938 10.328125 73.078125 1.820312 3.011719 4.277344 5.589844 7.199219 7.554687l31.929687 21.289063c-5.832031 5.125-13.996094 6.660156-21.289062 4l-41.601563-15.585937c-23.453125-28.617188-64.804687-34.746094-95.550781-14.160157v-20.175781h16c4.417969 0 8-3.582031 8-8v-168.734375c2.640625.46875 5.316406.714844 8 .734375 4.417969 0 8-3.582031 8-8s-3.582031-8-8-8c-9.046875.003906-17.667969-3.824219-23.738281-10.53125-6.066407-6.707031-9.015625-15.667969-8.109375-24.667969 2.234375-16.753906 16.699218-29.15625 33.601562-28.800781h54.246094c50.210938-.066406 93.230469-35.9375 102.320312-85.320312 11.515626 14.984374 17.734376 33.367187 17.679688 52.265624v23.117188c-.0625 22.546875 8.40625 44.28125 23.703125 60.839844-1.03125 4.949218-4.617187 8.976562-9.414063 10.570312l-8.800781 2.933594c-1.179687.398438-2.25 1.058594-3.128906 1.9375l-13.808594 13.808594c-19.738281 1.734375-35.234375 17.660156-36.425781 37.441406-1.191406 19.777344 12.277344 37.449219 31.667969 41.542969-1.566407 7.886719-6.320313 14.773437-13.136719 19.039062zm0 0"/><path d="m121.105469 64.078125-2.242188 15.84375c2.125.234375 4.261719.34375 6.402344.324219 16.550781 0 60.261719-5.597656 74.453125-62.308594l-15.519531-3.875c-13.953125 55.960938-61.078125 50.289062-63.09375 50.015625zm0 0"/></svg>