<svg height="479pt" viewBox="7 9 479 479.288" width="479pt" xmlns="http://www.w3.org/2000/svg"><g fill="#ed1c24"><path d="m107.257812 333.65625-25.515624 64 64-25.527344c-6.789063-6.136718-14.277344-13.28125-19.757813-18.753906s-12.617187-13-18.726563-19.71875zm0 0"/><path d="m190.542969 352.59375c-1.980469-4.566406-2.855469-9.53125-2.550781-14.496094-8.289063-6.859375-16.527344-14.167968-24.542969-22.175781-1.945313-1.945313-3.730469-3.898437-5.601563-5.851563-.238281.25-.40625.539063-.648437.800782-6.8125 6.664062-15.960938 10.394531-25.488281 10.402344-.527344 0-1.054688 0-1.597657-.042969-5.671875-.234375-11.171875-2.007813-15.914062-5.125l-.382813.972656c6.503906 7.457031 16.40625 17.921875 23.472656 24.992187 6.855469 6.859376 17.464844 16.875 25.085938 23.425782l28.800781-11.488282c-.304687-.617187-.566406-1.160156-.664062-1.375"/><path d="m166.230469 295.65625c2.785156 2.984375 5.601562 5.976562 8.5625 8.953125 6.0625 6.054687 12.253906 11.65625 18.488281 17.023437 1.488281-2.496093 3.273438-4.804687 5.3125-6.878906 6.230469-6.339844 14.601562-10.121094 23.476562-10.609375 3.152344-.105469 6.296876.25 9.34375 1.046875-10.671874-8.304687-20.847656-17.230468-30.46875-26.734375-18.488281-18.0625-34.429687-38.558593-47.386718-60.921875l-15.015625 37.648438c7.558593.648437 14.71875 3.675781 20.449219 8.648437 8.128906 8.445313 10.914062 20.695313 7.238281 31.824219zm0 0"/><path d="m294.992188 184.40625c-44.230469-44.238281-91.390626-68.796875-105.335938-54.839844-1.132812 1.203125-2.011719 2.621094-2.585938 4.167969l-.078124-.078125-25.535157 64.0625c8.675781 18.308594 19.890625 35.300781 33.3125 50.472656 1.515625-6.175781 4.699219-11.816406 9.199219-16.3125 5.996094-6.074218 14.035156-9.703125 22.558594-10.183594 8.425781-.554687 16.683594 2.550782 22.65625 8.519532 11.980468 12.964844 11.234375 33.167968-1.664063 45.21875-4.449219 4.46875-10.023437 7.652344-16.136719 9.207031 15.070313 12.933594 31.421876 24.296875 48.800782 33.902344l65.121094-25.957031-.097657-.097657c1.726563-.566406 3.308594-1.503906 4.632813-2.746093 13.945312-13.941407-10.609375-61.101563-54.847656-105.335938zm0 0"/><path d="m253.574219 329.152344 7.625-3.039063c-3.695313-2.28125-7.503907-4.753906-11.375-7.402343 1.765625 3.273437 3.03125 6.792968 3.75 10.441406zm0 0"/><path d="m222.855469 320.128906c-4.902344.300782-9.519531 2.417969-12.953125 5.933594-5.503906 5.125-7.351563 13.078125-4.671875 20.105469.144531.3125.53125 1.097656.921875 1.878906l32.183594-12.800781c-.191407-3.960938-1.589844-7.769532-4-10.917969-3.03125-3.003906-7.222657-4.539063-11.480469-4.199219zm0 0"/></g><path d="m294.996094 184.40625c-44.234375-44.234375-91.398438-68.785156-105.34375-54.839844-13.945313 13.949219 10.605468 61.113282 54.839844 105.34375 44.230468 44.230469 91.394531 68.785156 105.339843 54.835938 13.945313-13.945313-10.605469-61.109375-54.835937-105.339844zm0 0" fill="#81d0d3"/><path d="m137.742188 45.65625c0 13.253906-10.742188 24-24 24-13.253907 0-24-10.746094-24-24s10.746093-24 24-24c13.257812 0 24 10.746094 24 24zm0 0" fill="#f8cf26"/><path d="m377.742188 357.65625c0 13.253906-10.742188 24-24 24-13.253907 0-24-10.746094-24-24s10.746093-24 24-24c13.257812 0 24 10.746094 24 24zm0 0" fill="#f8cf26"/><path d="m188.265625 154.367188c6.773437 21.335937 27.199219 51.535156 56.230469 80.535156s59.199218 49.457031 80.535156 56.234375c-6.34375-21.144531-26.855469-51.59375-56-80.753907-29.144531-29.160156-59.625-49.671874-80.765625-56.015624zm0 0" fill="#0378a3"/><path d="m145.921875 299.535156c7.160156-6.273437 7.945313-17.144531 1.757813-24.382812-4.480469-3.167969-9.921876-4.683594-15.390626-4.28125l-11.882812 29.816406c2.757812 2.84375 6.53125 4.480469 10.488281 4.550781 5.589844.292969 11.039063-1.777343 15.027344-5.703125zm0 0" fill="#ed1c24"/><path d="m237.871094 241.527344c-2.59375-2.535156-6.097656-3.929688-9.726563-3.871094h-.800781c-4.546875.292969-8.820312 2.257812-12 5.519531-6.640625 5.808594-7.382812 15.875-1.664062 22.59375 2.796874 2.691407 6.585937 4.101563 10.464843 3.886719 4.542969-.292969 8.820313-2.257812 12-5.519531 6.664063-5.792969 7.433594-15.871094 1.726563-22.609375zm0 0" fill="#ed1c24"/><path d="m417.742188 81.65625v-28h-16v28c0 11.046875-8.953126 20-20 20h-8c-19.871094.023438-35.976563 16.125-36 36v28h16v-28c0-11.046875 8.957031-20 20-20h8c19.875-.023438 35.980468-16.128906 36-36zm0 0"/><path d="m217.742188 77.65625v-16c0-13.253906-10.742188-24-24-24-4.417969 0-8-3.582031-8-8v-16h-16v16c0 13.253906 10.746093 24 24 24 4.421874 0 8 3.582031 8 8v16zm0 0"/><path d="m465.742188 301.65625h-16c-4.417969 0-8-3.582031-8-8 0-13.253906-10.742188-24-24-24h-16v16h16c4.421874 0 8 3.582031 8 8 0 13.253906 10.746093 24 24 24h16zm0 0"/><path d="m145.742188 45.65625c0-17.671875-14.324219-32-32-32-17.671876 0-32 14.328125-32 32s14.328124 32 32 32c17.675781 0 32-14.328125 32-32zm-32 16c-8.835938 0-16-7.164062-16-16s7.164062-16 16-16c8.839843 0 16 7.164062 16 16s-7.160157 16-16 16zm0 0"/><path d="m353.742188 325.65625c-17.671876 0-32 14.328125-32 32s14.328124 32 32 32c17.675781 0 32-14.328125 32-32s-14.324219-32-32-32zm0 48c-8.835938 0-16-7.164062-16-16s7.164062-16 16-16c8.839843 0 16 7.164062 16 16s-7.160157 16-16 16zm0 0"/><path d="m262.589844 90.074219 39.996094-79.996094 14.3125 7.152344-40 80zm0 0"/><path d="m124.089844 96-10.347656 10.34375-10.34375-10.34375-11.308594 11.3125 10.34375 10.34375-10.34375 10.34375 11.308594 11.3125 10.34375-10.34375 10.347656 10.34375 11.308594-11.3125-10.34375-10.34375 10.34375-10.34375zm0 0"/><path d="m452.089844 336-10.347656 10.34375-10.34375-10.34375-11.308594 11.3125 10.34375 10.34375-10.34375 10.34375 11.308594 11.3125 10.34375-10.34375 10.347656 10.34375 11.308594-11.3125-10.34375-10.34375 10.34375-10.34375zm0 0"/><path d="m447.398438 0-11.308594 11.3125 10.34375 10.34375-10.34375 10.34375 11.308594 11.3125 10.34375-10.34375 10.347656 10.34375 11.308594-11.3125-10.34375-10.34375 10.34375-10.34375-11.308594-11.3125-10.347656 10.34375zm0 0"/><path d="m385.742188 189.65625h80v16h-80zm0 0"/><path d="m179.292969 303.042969 1.164062-23.804688 15.980469.78125-1.164062 23.804688zm0 0"/><path d="m264.914062 293.6875 12.484376-12.484375 11.3125 11.3125-12.484376 12.484375zm0 0"/><path d="m177.722656 214.09375 1.171875-23.796875 15.980469.789063-1.171875 23.792968zm0 0"/><path d="m144.164062 335.230469 12.484376-12.484375 11.316406 11.3125-12.484375 12.488281zm0 0"/><path d="m24.230469 466.457031c3.09375-3.09375 7.292969-4.824219 11.664062-4.800781h5.34375c17.941407-.019531 32.484375-14.554688 32.503907-32.496094v-5.351562c-.019532-4.375 1.710937-8.578125 4.800781-11.671875l7.671875-7.671875 253.929687-102.960938c5.714844-.007812 11.214844-2.1875 15.382813-6.097656 6.664062-6.664062 11.351562-20.863281-4.160156-50.664062-13.578126-24.351563-30.652344-46.585938-50.679688-65.988282-19.414062-20.03125-41.660156-37.113281-66.023438-50.699218-29.808593-15.511719-44-10.839844-50.664062-4.167969-4 4.203125-6.214844 9.792969-6.183594 15.59375l-102.878906 253.671875-7.679688 7.671875c-6.113281 6.085937-9.535156 14.359375-9.515624 22.984375v5.351562c-.011719 9.109375-7.394532 16.488282-16.503907 16.496094h-5.34375c-8.613281-.015625-16.878906 3.410156-22.949219 9.519531l-12.800781 12.800781 11.3125 11.3125zm179.914062-127.066406c.410157-10.261719 8.488281-18.566406 18.734375-19.261719 4.238282-.332031 8.414063 1.191406 11.441406 4.175782.648438.652343 1.230469 1.371093 1.734376 2.144531zm46.75-18.964844c-.222656-.433593-.429687-.875-.679687-1.289062l1.480468.96875zm19.410157-7.875c-13.929688-7.945312-27.019532-17.277343-39.074219-27.855469 13.15625-3.289062 23.222656-13.890624 25.824219-27.199218 14.574218 13.050781 30.601562 24.378906 47.769531 33.761718 2.917969 1.519532 5.648437 2.789063 8.28125 3.941407zm-42.160157-74.894531c3.640625-.066406 7.15625 1.328125 9.757813 3.871094 5.714844 6.71875 4.972656 16.78125-1.664063 22.59375-3.175781 3.261718-7.453125 5.226562-12 5.519531-3.898437.246094-7.726562-1.152344-10.550781-3.855469-5.71875-6.71875-4.976562-16.785156 1.664062-22.59375 3.175782-3.265625 7.449219-5.238281 11.992188-5.535156zm-24.335937-67.902344c21.9375 12.535156 41.984375 28.125 59.535156 46.300782 18.175781 17.570312 33.761719 37.632812 46.296875 59.585937-21.875-12.660156-41.898437-28.273437-59.503906-46.402344-18.113281-17.605469-33.710938-37.621093-46.359375-59.484375zm-8.464844-34.496094c1.582031-1.21875 3.566406-1.789062 5.550781-1.601562 9.328125.886719 18.34375 3.828125 26.402344 8.609375 22.90625 12.824219 43.8125 28.925781 62.0625 47.796875 18.875 18.253906 34.976563 39.164062 47.800781 62.074219 9.175782 17.597656 10.078125 28.917969 7.039063 31.960937-2.101563 1.441406-4.699219 1.976563-7.199219 1.476563v-.0625l-.105469.046875c-1.886719-.1875-3.757812-.515625-5.597656-.984375-8.21875-22.636719-29-52.277344-56.570313-79.847657-27.566406-27.566406-57.207031-48.351562-79.847656-56.566406-.46875-1.839844-.792968-3.710937-.976562-5.601562l.113281-.277344-.152344-.066406c-.460937-2.421875.074219-4.929688 1.480469-6.957032zm-11.128906 31.039063c1.152344 2.625 2.402344 5.351563 3.945312 8.269531 9.359375 17.179688 20.671875 33.21875 33.710938 47.800782-13.316406 2.597656-23.90625 12.699218-27.128906 25.878906-10.585938-12.074219-19.929688-25.1875-27.894532-39.132813zm-24.917969 61.429687c12.0625 18.324219 26.023437 35.328126 41.648437 50.730469 9.398438 9.414063 19.335938 18.277344 29.757813 26.542969-2.820313-.671875-5.722656-.964844-8.625-.863281-8.875.488281-17.246094 4.269531-23.476563 10.605469-2.039062 2.074218-3.824218 4.386718-5.3125 6.882812-6.234374-5.367188-12.425781-10.96875-18.488281-17.023438-2.976562-2.976562-5.777343-5.96875-8.5625-8.953124 3.675781-11.128907.890625-23.378907-7.238281-31.824219-3.226562-3.210938-7.140625-5.644531-11.449219-7.121094zm-17.785156 43.859376c2.328125.636718 4.453125 1.867187 6.167969 3.566406 6.1875 7.238281 5.402343 18.109375-1.757813 24.382812-3.429687 3.519532-8.042969 5.636719-12.945313 5.9375-1.679687.085938-3.367187-.101562-4.984374-.5625zm-19.535157 48.15625c3.253907 1.128906 6.667969 1.714843 10.113282 1.746093h1.671875c8.871093-.5 17.242187-4.28125 23.476562-10.609375.242188-.238281.410157-.527344.648438-.800781 1.867187 1.953125 3.648437 3.90625 5.601562 5.851563 8 8 16.253907 15.316406 24.542969 22.175781-.113281 2.542969.066406 5.09375.542969 7.597656l-32.863281 13.328125c-6.199219-5.351562-12.367188-10.96875-18.398438-16.960938-6.03125-5.992187-11.632812-12.183593-16.96875-18.398437zm-8.34375 20.570312c3.984376 4.398438 8.113282 8.753906 12.390626 13.0625 4.277343 4.308594 8.632812 8.441406 13.066406 12.394531l-42.824219 17.367188zm0 0"/></svg>