<svg height="487pt" viewBox="6 -8 487.144 487" width="487pt" xmlns="http://www.w3.org/2000/svg"><path d="m27.574219 235.820312v53.640626l40-40" fill="#00aaad"/><path d="m91.574219 259.820312v53.640626l48-48" fill="#ec008c"/><path d="m163.574219 265.460938 16 64 24-64" fill="#00aaad"/><path d="m227.574219 265.460938 32 48 16-56" fill="#ec008c"/><path d="m307.574219 241.460938 24 48 14-56" fill="#00aaad"/><path d="m35.574219 315.820312v73.457032l54.546875-54.542969" fill="#f9a01b"/><path d="m123.574219 347.820312v74.183594l65.457031-65.453125" fill="#b2d235"/><path d="m221.761719 356.550781 21.8125 87.269531 32.730469-87.269531" fill="#f9a01b"/><path d="m309.03125 356.550781 43.632812 65.453125 21.824219-76.367187" fill="#b2d235"/><path d="m418.121094 323.820312 32.726562 65.457032 19.089844-76.367188" fill="#f9a01b"/><path d="m259.574219 27.820312c0 8.839844-7.160157 16-16 16-8.835938 0-16-7.160156-16-16 0-8.835937 7.164062-16 16-16 8.839843 0 16 7.164063 16 16zm0 0" fill="#97d7d9"/><g fill="#f8cf26"><path d="m19.574219 114.820312c13.257812 0 24-17.460937 24-39 0 21.539063 10.746093 39 24 39-13.253907 0-24 17.464844-24 39 0-21.535156-10.742188-39-24-39zm0 0"/><path d="m219.574219 178.820312c13.257812 0 24-17.460937 24-39 0 21.539063 10.746093 39 24 39-13.253907 0-24 17.464844-24 39 0-21.535156-10.742188-39-24-39zm0 0"/><path d="m419.574219 82.820312c13.257812 0 24-17.460937 24-39 0 21.539063 10.746093 39 24 39-13.253907 0-24 17.464844-24 39 0-21.535156-10.742188-39-24-39zm0 0"/></g><path d="m315.574219 315.820312c0 8.839844-7.160157 16-16 16-8.835938 0-16-7.160156-16-16 0-8.835937 7.164062-16 16-16 8.839843 0 16 7.164063 16 16zm0 0" fill="#d4eded"/><path d="m443.574219 187.820312c0 8.839844-7.160157 16-16 16-8.835938 0-16-7.160156-16-16 0-8.835937 7.164062-16 16-16 8.839843 0 16 7.164063 16 16zm0 0" fill="#d4eded"/><path d="m91.574219 203.820312c0 8.839844-7.160157 16-16 16-8.835938 0-16-7.160156-16-16 0-8.835937 7.164062-16 16-16 8.839843 0 16 7.164063 16 16zm0 0" fill="#d4eded"/><path d="m19.574219 242.125v47.335938c.003906 3.234374 1.953125 6.152343 4.941406 7.390624 2.988281 1.238282 6.429687.554688 8.714844-1.734374l34.289062-34.289063c5.320313 1.65625 10.679688 3.203125 16.054688 4.578125v48.054688c.003906 3.234374 1.953125 6.152343 4.941406 7.390624 2.988281 1.238282 6.429687.554688 8.714844-1.734374l43.273437-43.296876c5.929688.617188 11.855469 1.175782 17.800782 1.511719l13.511718 54.042969c.847656 3.394531 3.808594 5.847656 7.304688 6.046875h.453125c3.339843 0 6.328125-2.066406 7.496093-5.191406l20.800782-55.496094c5.542968-.417969 11.082031-.871094 16.601562-1.535156l28.4375 42.65625c1.484375 2.226562 3.980469 3.566406 6.65625 3.566406.414063 0 .828125-.035156 1.234375-.105469 3.082031-.476562 5.605469-2.703125 6.464844-5.703125l14.847656-52c8-2.261719 16-4.726562 23.847657-7.535156l18.445312 36.894531c1.492188 3 4.691406 4.75 8.019531 4.394532 3.328125-.355469 6.082031-2.75 6.902344-5.992188l13.960937-55.855469 5.855469-2.929687-7.152343-14.3125-12 6c-101.054688 50.222656-219.796876 50.222656-320.847657 0l-12-6-7.144531 14.34375 12 6c2.496094 1.242187 5.054688 2.3125 7.574219 3.503906zm315.011719 2.3125-5.523438 22.097656-8.109375-16.21875c4.574219-1.859375 9.117187-3.820312 13.632813-5.878906zm-70.402344 23.921875-7.503906 26.269531-14.609376-21.910156c7.40625-1.238281 14.761719-2.691406 22.074219-4.359375zm-84.609375 9.605469c3.632812 0 7.257812-.207032 10.882812-.3125l-9.351562 24.945312-6.195313-24.800781c1.5625.046875 3.113282.167969 4.664063.167969zm-80-8.6875c6.933593 1.515625 13.914062 2.824218 20.9375 3.929687l-20.9375 20.941407zm-64-20c4.960937 2.0625 9.945312 4.054687 14.976562 5.894531l-14.976562 14.976563zm0 0"/><path d="m27.574219 322.535156v66.742188c.003906 3.234375 1.953125 6.152344 4.941406 7.390625s6.429687.554687 8.714844-1.734375l48.195312-48.191406c8.660157 2.742187 17.375 5.238281 26.148438 7.496093v67.765625c.003906 3.238282 1.953125 6.152344 4.941406 7.390625s6.429687.554688 8.714844-1.734375l59.945312-59.957031c9.207031.984375 18.398438 1.75 27.671875 2.230469l18.960938 75.832031c.847656 3.398437 3.808594 5.847656 7.304687 6.046875h.460938c3.339843.003906 6.328125-2.066406 7.496093-5.191406l29.019532-77.390625c8.726562-.625 17.4375-1.417969 26.125-2.488281l39.800781 59.695312c1.484375 2.226562 3.980469 3.5625 6.65625 3.558594.414063 0 .824219-.03125 1.230469-.09375 3.085937-.480469 5.609375-2.710938 6.464844-5.710938l20.695312-72.464844c12.21875-3.410156 24.34375-7.160156 36.320312-11.496093l26.3125 52.613281c1.355469 2.710938 4.125 4.425781 7.152344 4.425781.292969 0 .589844-.015625.878906-.046875 3.328126-.371094 6.070313-2.769531 6.882813-6.015625l19.09375-76.363281-1.296875-.316406 1.296875.316406.273437-1.101562 9.167969-4.585938-7.152343-14.3125-16.359376 8.179688c-60.542968 30.164062-126.660156 47.507812-194.21875 50.941406l-.605468-.222656-.089844.246093c-28.460938 1.4375-56.992188.425781-85.277344-3.023437l-.066406-.070313-.054688.046875c-55.613281-6.722656-109.664062-22.929687-159.800781-47.917968l-16.367187-8.179688-7.152344 14.3125 16.375 8.183594c3.679688 1.851562 7.472656 3.441406 11.199219 5.195312zm431.683593.152344-10.882812 43.671875-16-32c9.039062-3.628906 18-7.519531 26.882812-11.671875zm-96.195312 33.796875-13.328125 46.6875-25.964844-38.941406c13.175781-2.089844 26.285157-4.625 39.292969-7.746094zm-119.488281 14.210937c6.402343 0 12.722656-.3125 19.082031-.546874l-17.550781 46.808593-11.640625-46.550781c3.375.0625 6.734375.289062 10.109375.289062zm-112-12.472656c12.457031 2.789063 25.019531 5.015625 37.601562 6.863282l-37.601562 37.601562zm-88-28.289062c9.496093 4.054687 19.113281 7.777344 28.800781 11.199218l-28.800781 28.832032zm0 0"/><path d="m243.574219 51.820312c13.257812 0 24-10.742187 24-24 0-13.253906-10.742188-24-24-24-13.253907 0-24 10.746094-24 24 0 13.257813 10.746093 24 24 24zm0-32c4.421875 0 8 3.582032 8 8 0 4.417969-3.578125 8-8 8-4.417969 0-8-3.582031-8-8 0-4.417968 3.582031-8 8-8zm0 0"/><path d="m288.894531 4.285156 5.320313 15.089844c.335937-.121094 33.511718-11.074219 90.832031 8l5.058594-15.203125c-63.074219-20.964844-99.691407-8.4375-101.210938-7.886719zm0 0"/><path d="m341.175781 88.621094 12.800781-9.597656c-17.179687-21.476563-42.910156-34.34375-70.402343-35.203126v16c22.421875.984376 43.363281 11.457032 57.601562 28.800782zm0 0"/><path d="m192.9375 19.375 5.320312-15.089844c-1.523437-.550781-38.144531-13.070312-101.210937 7.945313l5.058594 15.199219c57.328125-19.136719 90.488281-8.175782 90.832031-8.054688zm0 0"/><path d="m203.574219 59.820312v-16c-27.488281.859376-53.21875 13.726563-70.398438 35.203126l12.800781 9.597656c14.238282-17.34375 35.179688-27.816406 57.597657-28.800782zm0 0"/><path d="m43.574219 67.820312c-4.417969 0-8 3.582032-8 8 0 17.746094-8.445313 31-16 31-4.417969 0-8 3.582032-8 8 0 4.417969 3.582031 8 8 8 7.554687 0 16 13.257813 16 31 0 4.417969 3.582031 8 8 8 4.421875 0 8-3.582031 8-8 0-17.742187 8.449219-31 16-31 4.421875 0 8-3.582031 8-8 0-4.417968-3.578125-8-8-8-7.550781 0-16-13.253906-16-31 0-4.417968-3.578125-8-8-8zm0 54.671876c-1.648438-2.789063-3.636719-5.367188-5.917969-7.671876 2.28125-2.304687 4.269531-4.878906 5.917969-7.671874 1.652343 2.792968 3.640625 5.367187 5.921875 7.671874-2.28125 2.304688-4.269532 4.882813-5.921875 7.671876zm0 0"/><path d="m211.574219 178.820312c0 4.417969 3.582031 8 8 8 7.554687 0 16 13.257813 16 31 0 4.417969 3.582031 8 8 8 4.421875 0 8-3.582031 8-8 0-17.742187 8.449219-31 16-31 4.421875 0 8-3.582031 8-8 0-4.417968-3.578125-8-8-8-7.550781 0-16-13.253906-16-31 0-4.417968-3.578125-8-8-8-4.417969 0-8 3.582032-8 8 0 17.746094-8.445313 31-16 31-4.417969 0-8 3.582032-8 8zm32-7.671874c1.652343 2.792968 3.640625 5.367187 5.921875 7.671874-2.28125 2.304688-4.269532 4.882813-5.921875 7.671876-1.648438-2.789063-3.636719-5.367188-5.917969-7.671876 2.28125-2.304687 4.269531-4.878906 5.917969-7.671874zm0 0"/><path d="m467.574219 90.820312c4.421875 0 8-3.582031 8-8 0-4.417968-3.578125-8-8-8-7.550781 0-16-13.253906-16-31 0-4.417968-3.578125-8-8-8-4.417969 0-8 3.582032-8 8 0 17.746094-8.445313 31-16 31-4.417969 0-8 3.582032-8 8 0 4.417969 3.582031 8 8 8 7.554687 0 16 13.257813 16 31 0 4.417969 3.582031 8 8 8 4.421875 0 8-3.582031 8-8 0-17.742187 8.449219-31 16-31zm-24-.328124c-1.648438-2.789063-3.636719-5.367188-5.917969-7.671876 2.28125-2.304687 4.269531-4.878906 5.917969-7.671874 1.652343 2.792968 3.640625 5.367187 5.921875 7.671874-2.28125 2.304688-4.269532 4.882813-5.921875 7.671876zm0 0"/><path d="m55.140625 37.167969 24.003906-16.003907 8.875 13.3125-24.003906 16.003907zm0 0"/><path d="m108.917969 111.386719 16-24.003907 13.3125 8.875-16 24.003907zm0 0"/><path d="m357.917969 105.476562 11.316406-11.3125 15.996094 15.996094-11.3125 11.3125zm0 0"/><path d="m397.921875 33.480469 11.316406-11.3125 15.996094 15.996093-11.3125 11.3125zm0 0"/><path d="m275.574219 315.820312c0 13.257813 10.746093 24 24 24 13.257812 0 24-10.742187 24-24 0-13.253906-10.742188-24-24-24-13.253907 0-24 10.746094-24 24zm32 0c0 4.417969-3.578125 8-8 8-4.417969 0-8-3.582031-8-8 0-4.417968 3.582031-8 8-8 4.421875 0 8 3.582032 8 8zm0 0"/><path d="m427.574219 211.820312c13.257812 0 24-10.742187 24-24 0-13.253906-10.742188-24-24-24-13.253907 0-24 10.746094-24 24 0 13.257813 10.746093 24 24 24zm0-32c4.421875 0 8 3.582032 8 8 0 4.417969-3.578125 8-8 8-4.417969 0-8-3.582031-8-8 0-4.417968 3.582031-8 8-8zm0 0"/><path d="m75.574219 227.820312c13.257812 0 24-10.742187 24-24 0-13.253906-10.742188-24-24-24-13.253907 0-24 10.746094-24 24 0 13.257813 10.746093 24 24 24zm0-32c4.421875 0 8 3.582032 8 8 0 4.417969-3.578125 8-8 8-4.417969 0-8-3.582031-8-8 0-4.417968 3.582031-8 8-8zm0 0"/></svg>