<svg height="480pt" viewBox="0 -32 480.03983 480" width="480pt" xmlns="http://www.w3.org/2000/svg"><path d="m240.019531 344.019531h-73.007812c-5.453125.003907-10.53125 2.78125-13.472657 7.375l-19.351562 30.226563c-10.824219 16.902344-25.503906 26.398437-40.800781 26.398437-15.304688 0-29.976563-9.496093-40.796875-26.398437l-29.683594-46.402344c-10.082031-16.941406-15.238281-36.359375-14.886719-56.070312v-1.167969c0-36.417969 15.863281-68.152344 38.480469-76.984375 28.679688-11.214844 59.203125-16.96875 90-16.976563h207.039062c30.796876.007813 61.320313 5.761719 90 16.976563 22.617188 8.800781 38.480469 40.566406 38.480469 76.984375v1.167969c.363281 19.722656-4.789062 39.15625-14.878906 56.113281l-29.679687 46.398437c-10.824219 16.902344-25.496094 26.398438-40.800782 26.398438-15.304687 0-29.984375-9.496094-40.800781-26.398438l-19.359375-30.265625c-2.941406-4.59375-8.019531-7.371093-13.472656-7.375zm0 0" fill="#666"/><path d="m440.019531 276.019531c0 28.71875-23.28125 52-52 52s-52-23.28125-52-52 23.28125-52 52-52 52 23.28125 52 52zm0 0" fill="#3c494e"/><path d="m416.019531 276.019531c0 15.464844-12.535156 28-28 28-15.464843 0-28-12.535156-28-28 0-15.464843 12.535157-28 28-28 15.464844 0 28 12.535157 28 28zm0 0" fill="#808080"/><path d="m152.019531 152.019531h176v32h-176zm0 0" fill="#3c494e"/><path d="m264.019531.0195312v7.9999998c0 8.835938-7.164062 16-16 16h-88c-26.507812 0-48 21.492188-48 48 0 26.511719 21.492188 48 48 48h48c8.835938 0 16 7.164063 16 16v16h32v-16c0-26.507812-21.488281-48-48-48h-48c-8.835937 0-16-7.164062-16-16 0-8.835937 7.164063-16 16-16h88c26.511719 0 48-21.488281 48-48v-7.9999998zm0 0" fill="#e6e6e6"/><path d="m388.019531 312.019531c19.882813 0 36-16.117187 36-36 0-19.882812-16.117187-36-36-36-19.882812 0-36 16.117188-36 36 .023438 19.875 16.128907 35.976563 36 36zm0-56c11.046875 0 20 8.953125 20 20s-8.953125 20-20 20-20-8.953125-20-20 8.953125-20 20-20zm0 0"/><path d="m40.019531 288.019531h40v40c0 4.417969 3.582031 8 8 8s8-3.582031 8-8v-40h48c4.417969 0 8-3.582031 8-8s-3.582031-8-8-8h-48v-48c0-4.417969-3.582031-8-8-8s-8 3.582031-8 8v48h-40c-4.417969 0-8 3.582031-8 8s3.582031 8 8 8zm0 0"/><path d="m264.019531 304.019531h32v16h-32zm0 0"/><path d="m184.019531 304.019531h32v16h-32zm0 0"/><path d="m45.851562 385.933594c12.230469 19.117187 29.558594 30.085937 47.527344 30.085937s35.304688-10.96875 47.535156-30.085937l19.355469-30.226563c1.46875-2.296875 4.011719-3.6875 6.742188-3.6875h146.015625c2.730468-.003906 5.269531 1.382813 6.746094 3.679688l19.351562 30.234375c12.230469 19.117187 29.558594 30.085937 47.535156 30.085937 17.976563 0 35.296875-10.96875 47.527344-30.085937l29.679688-46.363282c10.953124-18.222656 16.550781-39.164062 16.152343-60.421874v-1.167969c0-39.695313-17.917969-74.402344-43.574219-84.441407-29.605468-11.59375-61.121093-17.535156-92.914062-17.519531h-7.511719v-24c0-4.417969-3.582031-8-8-8h-64v-8c-.035156-30.914062-25.085937-55.964843-56-56h-48c-4.417969 0-8-3.582031-8-8s3.582031-8 8-8h88c30.914063-.035156 55.964844-25.085937 56-56v-7.9999998h-16v7.9999998c-.027343 22.082031-17.917969 39.972657-40 40h-88c-13.253906 0-24 10.746094-24 24 0 13.253907 10.746094 24 24 24h48c22.082031.027344 39.972657 17.921875 40 40v8h-16v-8c0-13.253906-10.746093-24-24-24h-48c-22.089843 0-40-17.910156-40-40 0-22.089843 17.910157-40 40-40h88c13.253907 0 24-10.746093 24-24v-7.9999998h-16v7.9999998c0 4.417969-3.582031 8-8 8h-88c-30.925781 0-56 25.074219-56 56 0 30.929688 25.074219 56 56 56h48c4.417969 0 8 3.582031 8 8v8h-64c-4.417969 0-8 3.582031-8 8v24h-7.511719c-31.792968-.015625-63.308593 5.925781-92.910156 17.519531-25.65625 10.015626-43.5781248 44.746094-43.5781248 84.441407v1.167969c-.3984372 21.257812 5.1992188 42.199218 16.1523438 60.421874zm114.167969-225.914063h160v16h-160zm-144 117.960938c0-32.738281 14.046875-61.960938 33.390625-69.535157 27.753906-10.867187 57.292969-16.4375 87.097656-16.425781h207.023438c29.804688-.011719 59.34375 5.558594 87.097656 16.425781 19.34375 7.574219 33.390625 36.796876 33.390625 69.535157v1.167969c.335938 18.191406-4.371093 36.121093-13.601562 51.800781l-29.679688 46.398437c-9.398437 14.609375-21.519531 22.671875-34.078125 22.671875s-24.6875-8.0625-34.070312-22.710937l-19.355469-30.234375c-4.398437-6.898438-12.023437-11.070313-20.207031-11.054688h-146.015625c-8.183594-.015625-15.808594 4.15625-20.207031 11.054688l-19.351563 30.234375c-9.386719 14.648437-21.480469 22.710937-34.074219 22.710937-12.589844 0-24.679687-8.0625-34.0625-22.710937l-29.679687-46.402344c-9.230469-15.664062-13.941407-33.578125-13.617188-51.757812zm0 0"/><path d="m388.019531 336.019531c33.136719 0 60-26.863281 60-60s-26.863281-60-60-60-60 26.863281-60 60c.035157 33.121094 26.878907 59.964844 60 60zm0-104c24.300781 0 44 19.699219 44 44s-19.699219 44-44 44-44-19.699219-44-44c.027344-24.289062 19.710938-43.972656 44-44zm0 0"/><path d="m192.019531 224.019531h96v16h-96zm0 0"/></svg>