<svg height="480pt" viewBox="0 0 480 480" width="480pt" xmlns="http://www.w3.org/2000/svg"><path d="m240 96c-18.980469.039062-37.800781 3.457031-55.585938 10.089844-2.289062 12.507812-3.453124 25.195312-3.476562 37.910156h59.0625zm0 0" fill="#d4eded"/><path d="m299.0625 144h36.9375c-.023438-5.738281-.558594-11.460938-1.601562-17.105469-11.910157-8.691406-24.972657-15.691406-38.804688-20.796875 2.285156 12.503906 3.449219 25.1875 3.46875 37.902344zm0 0" fill="#d4eded"/><path d="m334.398438 126.894531c-5.570313-30.671875-25.691407-56.730469-53.957032-69.878906 7.011719 15.6875 12.101563 32.164063 15.152344 49.074219 13.835938 5.105468 26.894531 12.109375 38.804688 20.804687zm0 0" fill="#4ec3c7"/><path d="m240 96v-48c-13.976562.011719-27.777344 3.089844-40.433594 9.015625-7.011718 15.6875-12.101562 32.164063-15.152344 49.074219 17.785157-6.632813 36.605469-10.050782 55.585938-10.089844zm0 0" fill="#4ec3c7"/><path d="m295.585938 106.089844c-3.050782-16.910156-8.140626-33.386719-15.152344-49.074219-12.65625-5.925781-26.457032-9.003906-40.433594-9.015625v48c18.980469.039062 37.800781 3.457031 55.585938 10.089844zm0 0" fill="#d4eded"/><path d="m180.9375 144c.023438 12.714844 1.1875 25.402344 3.476562 37.910156 17.785157 6.632813 36.605469 10.050782 55.585938 10.089844v-48zm0 0" fill="#4ec3c7"/><path d="m240 192c18.980469-.039062 37.800781-3.457031 55.585938-10.089844 2.289062-12.507812 3.453124-25.195312 3.476562-37.910156h-59.0625zm0 0" fill="#d4eded"/><path d="m240 96v48h59.0625c-.023438-12.714844-1.1875-25.402344-3.476562-37.910156-17.785157-6.632813-36.605469-10.050782-55.585938-10.089844zm0 0" fill="#4ec3c7"/><path d="m199.566406 57.015625c-28.269531 13.148437-48.390625 39.207031-53.964844 69.878906 11.910157-8.691406 24.972657-15.691406 38.804688-20.796875 3.054688-16.914062 8.144531-33.394531 15.160156-49.082031zm0 0" fill="#d4eded"/><path d="m240 192v48c13.976562-.007812 27.777344-3.089844 40.433594-9.023438 7.015625-15.683593 12.101562-32.15625 15.152344-49.066406-17.785157 6.632813-36.605469 10.050782-55.585938 10.089844zm0 0" fill="#4ec3c7"/><path d="m280.433594 230.976562c28.265625-13.148437 48.390625-39.199218 53.964844-69.871093-11.910157 8.691406-24.972657 15.691406-38.804688 20.796875-3.050781 16.910156-8.144531 33.390625-15.160156 49.074218zm0 0" fill="#d4eded"/><path d="m299.0625 144c-.023438 12.714844-1.1875 25.402344-3.476562 37.910156 13.832031-5.101562 26.894531-12.101562 38.804687-20.796875 1.046875-5.644531 1.585937-11.371093 1.609375-17.113281zm0 0" fill="#4ec3c7"/><path d="m145.601562 161.105469c5.574219 30.667969 25.695313 56.722656 53.957032 69.871093-7.015625-15.683593-12.101563-32.15625-15.152344-49.066406-13.835938-5.105468-26.894531-12.109375-38.804688-20.804687zm0 0" fill="#4ec3c7"/><path d="m180.9375 144h-36.9375c.023438 5.738281.558594 11.460938 1.601562 17.105469 11.910157 8.691406 24.972657 15.691406 38.804688 20.796875-2.285156-12.503906-3.449219-25.1875-3.46875-37.902344zm0 0" fill="#d4eded"/><path d="m184.414062 181.910156c3.050782 16.910156 8.136719 33.382813 15.152344 49.066406 12.65625 5.933594 26.457032 9.015626 40.433594 9.023438v-48c-18.980469-.039062-37.800781-3.457031-55.585938-10.089844zm0 0" fill="#d4eded"/><path d="m184.414062 106.089844c-13.832031 5.101562-26.894531 12.101562-38.804687 20.796875-1.046875 5.644531-1.585937 11.371093-1.609375 17.113281h36.9375c.023438-12.714844 1.1875-25.402344 3.476562-37.910156zm0 0" fill="#4ec3c7"/><path d="m443.433594 248c0-22.089844 12.796875-40 28.566406-40-15.777344 0-28.566406-17.910156-28.566406-40 0 22.089844-12.800782 40-28.578125 40 15.785156 0 28.578125 17.910156 28.578125 40zm0 0" fill="#6ac9cd"/><path d="m92.566406 152c0-22.089844 12.800782-40 28.578125-40-15.785156 0-28.578125-17.910156-28.578125-40 0 22.089844-12.796875 40-28.566406 40 15.777344 0 28.566406 17.910156 28.566406 40zm0 0" fill="#6ac9cd"/><path d="m72 384c0-30.929688 17.910156-56 40-56-22.089844 0-40-25.070312-40-56 0 30.929688-17.910156 56-40 56 22.089844 0 40 25.070312 40 56zm0 0" fill="#6ac9cd"/><g fill="#f8cf26"><path d="m400 336c0 13.253906-10.746094 24-24 24s-24-10.746094-24-24 10.746094-24 24-24 24 10.746094 24 24zm0 0"/><path d="m200 296c0 8.835938-7.164062 16-16 16s-16-7.164062-16-16 7.164062-16 16-16 16 7.164062 16 16zm0 0"/><path d="m424 104c0 8.835938-7.164062 16-16 16s-16-7.164062-16-16 7.164062-16 16-16 16 7.164062 16 16zm0 0"/><path d="m40 232c0 8.835938-7.164062 16-16 16s-16-7.164062-16-16 7.164062-16 16-16 16 7.164062 16 16zm0 0"/></g><path d="m316.566406 472c0-22.089844 12.800782-40 28.578125-40-15.785156 0-28.578125-17.910156-28.578125-40 0 22.089844-12.796875 40-28.566406 40 15.777344 0 28.566406 17.910156 28.566406 40zm0 0" fill="#6ac9cd"/><path d="m344 144c-.085938-54.28125-41.878906-99.382812-96-103.59375v-40.40625h-16v40.40625c-56.203125 4.367188-98.683594 52.730469-95.765625 109.027344 2.921875 56.292968 50.179687 100.003906 106.53125 98.53125s101.261719-47.59375 101.234375-103.964844zm-191.007812-12.480469c6.78125-4.734375 13.941406-8.894531 21.40625-12.449219-.636719 5.601563-1.03125 11.273438-1.230469 16.929688h-20.761719c.136719-1.511719.394531-2.992188.585938-4.480469zm-.585938 20.480469h20.746094c.199218 5.65625.589844 11.304688 1.230468 16.929688-7.460937-3.554688-14.617187-7.71875-21.390624-12.449219-.191407-1.488281-.449219-2.96875-.585938-4.480469zm7.027344 27.273438c5.804687 3.164062 11.792968 5.980468 17.933594 8.4375 1.613281 8.003906 3.667968 15.914062 6.160156 23.6875-10.390625-8.71875-18.632813-19.710938-24.09375-32.125zm17.933594-78.984376c-6.140626 2.453126-12.128907 5.269532-17.933594 8.4375 5.460937-12.414062 13.703125-23.40625 24.09375-32.125-2.488282 7.773438-4.542969 15.683594-6.160156 23.6875zm54.632812 131.304688c-9.035156-.796875-17.894531-3.003906-26.246094-6.539062-4.394531-10.171876-7.953125-20.6875-10.640625-31.4375 12.042969 3.304687 24.414063 5.265624 36.886719 5.855468zm0-48.105469c-13.796875-.691406-27.4375-3.242187-40.550781-7.59375-1.234375-7.910156-2.003907-15.890625-2.304688-23.894531h42.855469zm0-47.488281h-42.855469c.300781-8.003906 1.070313-15.984375 2.304688-23.894531 13.113281-4.351563 26.753906-6.902344 40.550781-7.59375zm0-47.472656c-12.472656.585937-24.84375 2.546875-36.886719 5.847656 2.6875-10.746094 6.246094-21.257812 10.640625-31.429688 8.351563-3.535156 17.210938-5.742187 26.246094-6.539062zm95.007812 67.953125c-6.78125 4.734375-13.941406 8.894531-21.40625 12.449219.636719-5.601563 1.03125-11.273438 1.230469-16.929688h20.742188c-.117188 1.511719-.375 2.992188-.566407 4.480469zm.585938-20.480469h-20.746094c-.199218-5.65625-.589844-11.304688-1.230468-16.929688 7.460937 3.554688 14.617187 7.71875 21.390624 12.449219.191407 1.488281.449219 2.96875.585938 4.480469zm-7.027344-27.273438c-5.804687-3.167968-11.792968-5.984374-17.933594-8.4375-1.617187-8.003906-3.671874-15.914062-6.160156-23.6875 10.390625 8.714844 18.636719 19.710938 24.09375 32.125zm-72.566406-52.320312c9.035156.796875 17.894531 3.003906 26.246094 6.539062 4.394531 10.171876 7.953125 20.683594 10.640625 31.429688-12.042969-3.300781-24.414063-5.261719-36.886719-5.847656zm26.246094 168.648438c-8.351563 3.535156-17.210938 5.742187-26.246094 6.539062v-32.121094c12.472656-.589844 24.84375-2.550781 36.886719-5.855468-2.6875 10.75-6.246094 21.265624-10.640625 31.4375zm14.304687-49.160157c-13.113281 4.351563-26.753906 6.902344-40.550781 7.59375v-31.488281h42.855469c-.300781 8.003906-1.070313 15.984375-2.304688 23.894531zm-40.550781-39.894531v-31.488281c13.796875.691406 27.4375 3.242187 40.550781 7.59375 1.234375 7.910156 2.003907 15.890625 2.304688 23.894531zm48.472656 75.398438c2.492188-7.773438 4.546875-15.683594 6.160156-23.6875 6.140626-2.457032 12.128907-5.273438 17.933594-8.4375-5.460937 12.414062-13.703125 23.40625-24.09375 32.125zm0 0"/><path d="m472 200c-11.152344 0-20.566406-14.65625-20.566406-32 0-4.417969-3.582032-8-8-8-4.417969 0-8 3.582031-8 8 0 17.34375-9.425782 32-20.578125 32-4.417969 0-8 3.582031-8 8s3.582031 8 8 8c11.152343 0 20.578125 14.65625 20.578125 32 0 4.417969 3.582031 8 8 8 4.417968 0 8-3.582031 8-8 0-17.34375 9.414062-32 20.566406-32 4.417969 0 8-3.582031 8-8s-3.582031-8-8-8zm-28.566406 17.703125c-2.191406-3.625-4.921875-6.898437-8.097656-9.703125 3.175781-2.804688 5.90625-6.078125 8.097656-9.703125 2.1875 3.625 4.914062 6.894531 8.085937 9.703125-3.171875 2.808594-5.898437 6.078125-8.085937 9.703125zm0 0"/><path d="m84.566406 152c0 4.417969 3.582032 8 8 8 4.417969 0 8-3.582031 8-8 0-17.34375 9.425782-32 20.578125-32 4.417969 0 8-3.582031 8-8s-3.582031-8-8-8c-11.152343 0-20.578125-14.65625-20.578125-32 0-4.417969-3.582031-8-8-8-4.417968 0-8 3.582031-8 8 0 17.34375-9.414062 32-20.566406 32-4.417969 0-8 3.582031-8 8s3.582031 8 8 8c11.152344 0 20.566406 14.65625 20.566406 32zm8-49.703125c2.191406 3.625 4.921875 6.898437 8.097656 9.703125-3.175781 2.804688-5.90625 6.078125-8.097656 9.703125-2.1875-3.625-4.914062-6.894531-8.085937-9.703125 3.171875-2.808594 5.898437-6.078125 8.085937-9.703125zm0 0"/><path d="m32 336c17.34375 0 32 21.984375 32 48 0 4.417969 3.582031 8 8 8s8-3.582031 8-8c0-26.015625 14.65625-48 32-48 4.417969 0 8-3.582031 8-8s-3.582031-8-8-8c-17.34375 0-32-21.984375-32-48 0-4.417969-3.582031-8-8-8s-8 3.582031-8 8c0 26.015625-14.65625 48-32 48-4.417969 0-8 3.582031-8 8s3.582031 8 8 8zm40-28.65625c3.902344 8.109375 9.65625 15.183594 16.800781 20.65625-7.144531 5.472656-12.898437 12.546875-16.800781 20.65625-3.902344-8.109375-9.65625-15.183594-16.800781-20.65625 7.144531-5.472656 12.898437-12.546875 16.800781-20.65625zm0 0"/><path d="m376 368c17.671875 0 32-14.328125 32-32s-14.328125-32-32-32-32 14.328125-32 32 14.328125 32 32 32zm0-48c8.835938 0 16 7.164062 16 16s-7.164062 16-16 16-16-7.164062-16-16 7.164062-16 16-16zm0 0"/><path d="m160 296c0 13.253906 10.746094 24 24 24s24-10.746094 24-24-10.746094-24-24-24-24 10.746094-24 24zm32 0c0 4.417969-3.582031 8-8 8s-8-3.582031-8-8 3.582031-8 8-8 8 3.582031 8 8zm0 0"/><path d="m432 104c0-13.253906-10.746094-24-24-24s-24 10.746094-24 24 10.746094 24 24 24 24-10.746094 24-24zm-32 0c0-4.417969 3.582031-8 8-8s8 3.582031 8 8-3.582031 8-8 8-8-3.582031-8-8zm0 0"/><path d="m48 232c0-13.253906-10.746094-24-24-24s-24 10.746094-24 24 10.746094 24 24 24 24-10.746094 24-24zm-24 8c-4.417969 0-8-3.582031-8-8s3.582031-8 8-8 8 3.582031 8 8-3.582031 8-8 8zm0 0"/><path d="m256.6875 275.257812 14.628906-6.5 32 72-14.628906 6.5zm0 0"/><path d="m330.347656 245.65625 11.316406-11.3125 24 24-11.3125 11.316406zm0 0"/><path d="m106.347656 234.34375 24-24 11.3125 11.3125-24 24zm0 0"/><path d="m90.34375 442.34375 32-32 11.3125 11.3125-32 32zm0 0"/><path d="m232 376h16v40h-16zm0 0"/><path d="m441.34375 332.4375 13.3125-8.875 16.003906 24-13.316406 8.875zm0 0"/><path d="m288 440c11.152344 0 20.566406 14.65625 20.566406 32 0 4.417969 3.582032 8 8 8 4.417969 0 8-3.582031 8-8 0-17.34375 9.425782-32 20.578125-32 4.417969 0 8-3.582031 8-8s-3.582031-8-8-8c-11.152343 0-20.578125-14.65625-20.578125-32 0-4.417969-3.582031-8-8-8-4.417968 0-8 3.582031-8 8 0 17.34375-9.414062 32-20.566406 32-4.417969 0-8 3.582031-8 8s3.582031 8 8 8zm28.566406-17.703125c2.191406 3.625 4.921875 6.898437 8.097656 9.703125-3.175781 2.804688-5.90625 6.078125-8.097656 9.703125-2.1875-3.625-4.914062-6.894531-8.085937-9.703125 3.171875-2.808594 5.898437-6.078125 8.085937-9.703125zm0 0"/></svg>