<svg height="480pt" viewBox="-63 0 479 480" width="480pt" xmlns="http://www.w3.org/2000/svg"><path d="m64.5 24h224v144h-224zm0 0" fill="#999"/><path d="m64.5 168h224v144h-224zm0 0" fill="#808080"/><path d="m64.5 312h224v144h-224zm0 0" fill="#999"/><path d="m16.5 464h32v16h16v-16h224v16h16v-16h32v16h16v-480h-16v16h-32v-16h-16v16h-224v-16h-16v16h-32v-16h-16v480h16zm288-432h32v32h-32zm0 48h32v32h-32zm0 48h32v32h-32zm0 48h32v32h-32zm0 48h32v32h-32zm0 48h32v32h-32zm0 48h32v32h-32zm0 48h32v32h-32zm0 48h32v32h-32zm-240-288v-96h224v128h-224zm0 144v-96h224v128h-224zm0 144v-96h224v128h-224zm-48-384h32v32h-32zm0 48h32v32h-32zm0 48h32v32h-32zm0 48h32v32h-32zm0 48h32v32h-32zm0 48h32v32h-32zm0 48h32v32h-32zm0 48h32v32h-32zm0 48h32v32h-32zm0 0"/></svg>