<svg height="480pt" viewBox="0 -20 480.00484 480" width="480pt" xmlns="http://www.w3.org/2000/svg"><path d="m432.003906 240.003906c0 106.039063-85.960937 192-192 192-106.039062 0-192-85.960937-192-192 0-106.039062 85.960938-192 192-192 106.039063 0 192 85.960938 192 192zm0 0" fill="#f7f2da"/><path d="m304.003906 144.003906c0 22.089844-17.90625 40-40 40-22.089844 0-40-17.910156-40-40 0-22.09375 17.910156-40 40-40 22.09375 0 40 17.90625 40 40zm0 0" fill="#ccc"/><path d="m8.003906 287.699219c.171875-19.855469 14.84375-36.59375 34.503906-39.359375 12.898438-1.695313 25.800782 3.0625 34.511719 12.71875l28.503907 26.085937 82.257812 68.402344c6.054688 5.066406 8.292969 13.378906 5.597656 20.800781-2.691406 6.941406-9.144531 11.714844-16.574218 12.253906l-1.816407.160157c-3.371093.3125-6.765625-.296875-9.816406-1.765625l-112-53.914063-21.046875-8.9375c-14.613281-6.222656-24.105469-20.5625-24.121094-36.445312zm0 0" fill="#f15a24"/><path d="m469.203125 301.738281c6.695313-18.695312-1.296875-39.472656-18.796875-48.855469-11.519531-6.058593-25.28125-6.058593-36.800781 0l-35.761719 14.640626-100.800781 35.773437c-7.445313 2.65625-12.429688 9.695313-12.460938 17.601563.128907 7.464843 4.554688 14.179687 11.359375 17.246093l1.597656.800781c3.0625 1.457032 6.460938 2.058594 9.832032 1.738282l123.707031-11.921875 22.855469-1.121094c15.886718-.777344 29.773437-10.972656 35.269531-25.902344zm0 0" fill="#f15a24"/><path d="m294.84375 118.808594c4.402344 18.113281-4.351562 36.855468-21.0625 45.105468-16.714844 8.25-36.914062 3.804688-48.617188-10.703124 3.699219 16.078124 16.910157 28.226562 33.242188 30.570312s32.421875-5.601562 40.496094-19.992188c8.070312-14.390624 6.457031-32.265624-4.058594-44.980468zm0 0" fill="#b3b3b3"/><path d="m64.003906 288.003906c0 8.835938-7.164062 16-16 16-8.835937 0-16-7.164062-16-16 0-8.839844 7.164063-16 16-16 8.835938 0 16 7.160156 16 16zm0 0" fill="#0378a3"/><path d="m448.003906 288.003906c0 8.835938-7.164062 16-16 16-8.835937 0-16-7.164062-16-16 0-8.839844 7.164063-16 16-16 8.835938 0 16 7.160156 16 16zm0 0" fill="#0378a3"/><path d="m434.40625 335.601562c19.042969-.972656 35.679688-13.191406 42.3125-31.070312 4.984375-13.289062 3.75-28.113281-3.359375-40.394531-7.109375-12.285157-19.347656-20.734375-33.355469-23.03125 0-.367188 0-.734375 0-1.101563 0-110.457031-89.542968-200-200-200-110.457031 0-200 89.542969-200 200v.734375c-20.933594 3.375-37.105468 20.191407-39.65625 41.242188-2.554687 21.046875 9.128906 41.246093 28.648438 49.527343l20.710937 8.796876 24.859375 12c37.125 54.929687 99.136719 87.800781 165.4375 87.699218 4.359375 0 8.695313-.175781 13-.449218 1.257813-.082032 2.488282-.214844 3.738282-.320313 3.125-.257813 6.253906-.566406 9.351562-.96875 1.304688-.167969 2.589844-.367187 3.886719-.558594 3.160156-.472656 6.289062-1.015625 9.410156-1.601562 1.078125-.214844 2.160156-.421875 3.199219-.65625 3.679687-.789063 7.328125-1.683594 10.949218-2.6875.449219-.128907.90625-.230469 1.355469-.359375 3.199219-.894532 6.328125-1.894532 9.453125-2.953125 12.066406 6.929687 25.742188 10.570312 39.65625 10.554687v-16c-6.441406.003906-12.847656-.96875-19-2.882812 2.074219-.976563 4.128906-1.976563 6.167969-3.023438.96875-.488281 1.921875-1.007812 2.871094-1.511718 2.722656-1.445313 5.40625-2.957032 8.050781-4.535157 1.183594-.703125 2.359375-1.398437 3.527344-2.128906 2.328125-1.457031 4.625-2.976563 6.894531-4.527344 1.320313-.894531 2.640625-1.769531 3.9375-2.6875 1.953125-1.410156 3.847656-2.898437 5.75-4.367187 3.867187-3 7.640625-6.136719 11.320313-9.417969.472656-.429687.96875-.800781 1.433593-1.253906 2.230469-2.042969 4.375-4.175781 6.519531-6.328125.71875-.722656 1.457032-1.425782 2.167969-2.167969l.359375-.363281v13.195312h16v-16h-13.285156c1.015625-1.105468 1.964844-2.28125 2.964844-3.410156.753906-.847656 1.496094-1.695312 2.242187-2.558594 1.855469-2.175781 3.671875-4.394531 5.445313-6.65625.3125-.402344.648437-.800781.960937-1.175781h-.046875c6.242188-8.09375 11.859375-16.652344 16.800782-25.601563zm-349.082031 4.074219-29.015625-13.960937-21.046875-8.914063c-13.128907-5.59375-20.890625-19.277343-18.957031-33.414062 1.933593-14.136719 13.082031-25.238281 27.226562-27.105469 10.550781-1.28125 21.058594 2.71875 28.082031 10.695312l28.800781 26.335938 82.246094 68.394531c3.5 2.917969 4.78125 7.726563 3.199219 12-1.679687 4.003907-5.492187 6.707031-9.832031 6.960938l-1.765625.167969c-1.925781.171874-3.859375-.179688-5.601563-1.015626zm261.792969 50.039063c-1.136719.800781-2.304688 1.597656-3.464844 2.398437-2.144532 1.472657-4.304688 2.914063-6.511719 4.28125-1.03125.648438-2.085937 1.273438-3.136719 1.894531-2.472656 1.464844-4.96875 2.882813-7.503906 4.226563-.855469.460937-1.710938.917969-2.574219 1.359375-3.023437 1.550781-6.09375 3.019531-9.207031 4.398438l-1.257812.570312c-2.335938 1.015625-4.726563 1.902344-7.113282 2.824219-16.539062-12.015625-26.332031-31.222657-26.34375-51.664063h-16c.003906 21.703125 8.855469 42.46875 24.511719 57.503906-3.070313.796876-6.175781 1.597657-9.304687 2.277344-.972657.21875-1.957032.402344-2.941407.601563-2.871093.566406-5.761719 1.066406-8.671875 1.503906-1.191406.175781-2.402344.359375-3.578125.511719-2.847656.367187-5.71875.65625-8.597656.894531-1.144531.089844-2.289063.21875-3.441406.289063-3.976563.257812-7.976563.417968-11.976563.417968-49.585937.078125-97.089844-19.941406-131.664062-55.488281l53.351562 25.6875c3.625 1.738281 7.589844 2.640625 11.609375 2.640625.800781 0 1.601563 0 2.398438-.113281l1.785156-.167969c10.570313-.808594 19.710937-7.671875 23.433594-17.601562 3.835937-10.578126.609375-22.429688-8.066407-29.597657l-81.925781-68.113281-28-25.550781c-7.082031-7.796875-16.550781-13.019531-26.921875-14.847657 0-.289062 0-.570312 0-.847656 0-101.621094 82.378906-184 184-184s184 82.378906 184 184v1.085938c-4.660156.757812-9.171875 2.246094-13.367187 4.417968l-35.433594 14.496094-100.796875 35.78125c-10.636719 3.726563-17.769531 13.75-17.808594 25.015625.074219 10.59375 6.285156 20.183594 15.917969 24.585938l1.601563.800781c3.59375 1.710938 7.523437 2.601562 11.503906 2.597656.847656.003906 1.691406-.039062 2.535156-.125l18.648438-1.792968c6.175781 19.890624 21.609374 35.554687 41.40625 42.023437-.359376.238281-.726563.542969-1.109376.824219zm37.601562-36.089844c-1.570312 1.992188-3.167969 3.941406-4.800781 5.855469-.761719.898437-1.539063 1.777343-2.3125 2.65625-1.753907 1.976562-3.527344 3.929687-5.351563 5.824219-.746094.800781-1.511718 1.503906-2.265625 2.265624-1.886719 1.886719-3.785156 3.777344-5.742187 5.601563-18.394532-1.484375-34.3125-13.367187-40.960938-30.578125l72.265625-6.96875c-3.359375 5.289062-6.984375 10.402344-10.859375 15.320312zm-64.617188-24.160156c0-.488282-.074218-.964844-.074218-1.460938h-16.023438c0 1.015625.105469 2 .152344 3l-17.488281 1.6875c-1.921875.171875-3.855469-.175781-5.597657-1l-1.601562-.800781c-3.96875-1.738281-6.605469-5.582031-6.792969-9.914063.003907-4.546874 2.863281-8.601562 7.144531-10.132812l101.167969-35.914062 36.367188-14.925782c9.195312-4.808594 20.160156-4.808594 29.351562 0 12.605469 6.640625 19.214844 20.882813 16.15625 34.796875-3.054687 13.914063-15.03125 24.070313-29.257812 24.816407l-23.199219 1.152343zm0 0"/><path d="m296.003906 232.003906h16v24h-16zm0 0"/><path d="m248.003906 224.003906h16v-32c11.824219-.003906 23.226563-4.394531 32-12.320312v36.320312h16v-72c.027344-24.417968-18.277344-44.964844-42.535156-47.746094-24.261719-2.777343-46.738281 13.097657-52.234375 36.890626-5.492187 23.789062 7.75 47.914062 30.769531 56.054687zm-16-80c0-17.675781 14.328125-32 32-32 17.675782 0 32 14.324219 32 32 0 17.671875-14.324218 32-32 32v-24h-16v19.550782c-9.867187-5.671876-15.964844-16.171876-16-27.550782zm0 0"/><path d="m248.003906 248.003906h16v16h-16zm0 0"/><path d="m360.003906 424.003906h16v16h-16zm0 0"/><path d="m480.003906 80.003906c-44.160156-.050781-79.949218-35.839844-80-79.99999975h-16c.058594 52.99218775 43.003906 95.94140575 96 95.99999975zm0 0"/><path d="m.00390625 96.003906c52.99609375-.058594 95.94531275-43.007812 95.99999975-95.99999975h-16c-.046875 44.16015575-35.835937 79.94921875-79.99999975 79.99999975zm0 0"/><path d="m32.003906.00390625c0 17.67187475-14.324218 31.99999975-31.99999975 31.99999975v16c26.49999975-.027344 47.97265575-21.503906 47.99999975-47.99999975zm0 0"/><path d="m480.003906 32.003906c-17.671875 0-32-14.328125-32-31.99999975h-16c.027344 26.49609375 21.503906 47.97265575 48 47.99999975zm0 0"/><path d="m48.003906 264.003906c-13.253906 0-24 10.742188-24 24 0 13.253906 10.746094 24 24 24s24-10.746094 24-24c0-13.257812-10.746094-24-24-24zm0 32c-4.417968 0-8-3.582031-8-8 0-4.417968 3.582032-8 8-8 4.417969 0 8 3.582032 8 8 0 4.417969-3.582031 8-8 8zm0 0"/><path d="m456.003906 288.003906c0-13.257812-10.746094-24-24-24s-24 10.742188-24 24c0 13.253906 10.746094 24 24 24s24-10.746094 24-24zm-24 8c-4.417968 0-8-3.582031-8-8 0-4.417968 3.582032-8 8-8 4.417969 0 8 3.582032 8 8 0 4.417969-3.582031 8-8 8zm0 0"/></svg>