<svg height="480pt" viewBox="-24 0 480 480" width="480pt" xmlns="http://www.w3.org/2000/svg"><path d="m328 320h96v-312h-224v80" fill="#f2f2f2"/><path d="m232 400h96v-312h-224v72" fill="#e6e6e6"/><path d="m232 400v-240h-224v312h224z" fill="#f2f2f2"/><path d="m120 412.304688-40-94.96875 40-94.976563 40 94.976563zm0 0" fill="#ed1c24"/><path d="m232 282.902344c5.773438 4.785156 13.023438 7.425781 20.519531 7.464844 19.59375.03125 35.480469-18.109376 35.480469-40.457032 0-22.34375-15.886719-40.453125-35.480469-40.453125-.175781 0-.351562 0-.535156 0 .34375-2.242187.523437-4.507812.535156-6.777343.386719-15.054688-7.484375-29.113282-20.519531-36.65625" fill="#4d4d4d"/><path d="m232 320h32l-32-32.558594" fill="#4d4d4d"/><path d="m328 118.183594 8.289062-8.429688c5.257813-5.394531 12.46875-8.433594 20-8.433594s14.742188 3.039063 20 8.433594c11.039063 11.320313 11.039063 29.378906 0 40.703125l-48.289062 49.128907" fill="#ed1c24"/><path d="m8 480h224c4.417969 0 8-3.582031 8-8v-64h88c4.417969 0 8-3.582031 8-8v-72h88c4.417969 0 8-3.582031 8-8v-312c0-4.417969-3.582031-8-8-8h-224c-4.417969 0-8 3.582031-8 8v72h-88c-4.417969 0-8 3.582031-8 8v64h-88c-4.417969 0-8 3.582031-8 8v312c0 4.417969 3.582031 8 8 8zm200-464h208v296h-80v-109.136719l45.992188-46.800781c14.066406-14.445312 14.066406-37.46875 0-51.917969-12.195313-12.476562-31.59375-14.390625-45.992188-4.535156v-11.609375c0-4.417969-3.582031-8-8-8h-120zm128 164v-58.542969l5.992188-6.097656c7.941406-7.777344 20.644531-7.777344 28.582031 0 7.996093 8.203125 7.996093 21.285156 0 29.488281zm-224-84h208v296h-80v-64h24c3.21875-.003906 6.125-1.9375 7.367188-4.90625 1.246093-2.96875.589843-6.394531-1.664063-8.695312l-15.824219-16.101563c24.722656-2.261719 43.285156-23.585937 42.121094-48.386719.789062-22.199218-13.96875-41.960937-35.480469-47.511718.101563-16.089844-7.53125-31.25-20.519531-40.75v-1.648438c0-4.417969-3.582031-8-8-8h-120zm134.191406 118.695312c1.628906 1.769532 3.925782 2.773438 6.328125 2.761719 15.152344 0 27.480469 14.542969 27.480469 32.453125 0 17.914063-12.328125 32.488282-27.480469 32.488282-4.433593-.039063-8.769531-1.308594-12.519531-3.671876v-93.78125c2.988281 5.441407 4.542969 11.554688 4.519531 17.765626-.011719 1.875-.160156 3.75-.449219 5.601562-.246093 2.332031.527344 4.660156 2.121094 6.382812zm-1.269531 97.304688h-4.921875v-5.007812zm-228.921875-144h208v296h-208zm0 0"/><path d="m127.367188 219.257812c-1.25-2.960937-4.152344-4.886718-7.367188-4.886718s-6.117188 1.925781-7.367188 4.886718l-40 94.964844c-.839843 1.988282-.839843 4.230469 0 6.21875l40 94.964844c1.25 2.960938 4.152344 4.886719 7.367188 4.886719s6.117188-1.925781 7.367188-4.886719l40-94.964844c.839843-1.988281.839843-4.230468 0-6.21875zm-7.367188 172.4375-31.320312-74.398437 31.320312-74.320313 31.320312 74.398438zm0 0"/><path d="m32 184h16v32h-16zm0 0"/><path d="m128 112h16v32h-16zm0 0"/><path d="m224 32h16v32h-16zm0 0"/><path d="m384 264h16v32h-16zm0 0"/><path d="m192 416h16v32h-16zm0 0"/><path d="m288 344h16v32h-16zm0 0"/></svg>