<svg height="480pt" viewBox="-52 8 480 480" width="480pt" xmlns="http://www.w3.org/2000/svg"><path d="m136 240h52.25c19.742188 0 35.75 16.007812 35.75 35.753906-.007812 12.554688-6.59375 24.183594-17.359375 30.644532l-6.304687 3.785156c-3.542969 2.125-5.75 5.917968-5.851563 10.050781-.097656 4.128906 1.925781 8.023437 5.363281 10.316406 20.089844 13.394531 32.15625 35.945313 32.152344 60.089844v1.359375c0 24.894531-12.824219 48.03125-33.9375 61.222656-19.648438 12.277344-42.351562 18.78125-65.519531 18.777344h-25.085938c-23.171875 0-45.875-6.511719-65.519531-18.792969-21.109375-13.1875-33.933594-36.320312-33.9375-61.207031v-1.359375c0-24.140625 12.066406-46.683594 32.152344-60.074219 3.4375-2.292968 5.460937-6.183594 5.363281-10.316406-.101563-4.132812-2.308594-7.925781-5.851563-10.050781l-6.304687-3.800781c-10.761719-6.460938-17.351563-18.089844-17.359375-30.644532 0-19.746094 16.007812-35.753906 35.753906-35.753906zm0 0" fill="#0378a3"/><path d="m41.9375 453.207031c19.644531 12.28125 42.347656 18.792969 65.519531 18.792969h25.085938c23.171875 0 45.875-6.511719 65.519531-18.792969 21.109375-13.1875 33.933594-36.320312 33.9375-61.207031v-1.359375c-.035156-12.964844-3.566406-25.675781-10.222656-36.800781-18.328125 16.453125-45.863282 17.253906-65.113282 1.886718l-4.664062-3.726562-72 24-8.144531 16.296875c-4.589844 9.175781-14.933594 13.933594-24.886719 11.445313-8.96875-2.253907-18.386719 1.371093-23.527344 9.058593l-7.441406 11.199219v.800781c5.910156 11.644531 14.875 21.464844 25.9375 28.40625zm0 0" fill="#4ec3c7"/><path d="m96 8h48v56h-48zm0 0" fill="#0378a3"/><path d="m104 64h32v272h-32zm0 0" fill="#a67c52"/><path d="m160 376c0 22.089844-17.910156 40-40 40s-40-17.910156-40-40 17.910156-40 40-40 40 17.910156 40 40zm0 0" fill="#1a1a1a"/><path d="m80 280c0 8.835938-7.164062 16-16 16s-16-7.164062-16-16 7.164062-16 16-16 16 7.164062 16 16zm0 0" fill="#f8cf26"/><path d="m35.710938 323.910156c-22.328126 14.855469-35.7382818 39.910156-35.710938 66.730469v1.359375c-.0820312 27.671875 14.1875 53.40625 37.695312 68 20.917969 13.074219 45.09375 20.003906 69.761719 20h25.085938c24.671875.003906 48.847656-6.925781 69.769531-20 23.503906-14.597656 37.769531-40.332031 37.6875-68v-1.359375c.027344-26.820313-13.378906-51.875-35.710938-66.730469-1.167968-.761718-1.851562-2.078125-1.808593-3.46875.019531-1.394531.765625-2.675781 1.96875-3.386718l6.3125-3.78125c16.863281-10.117188 24.90625-30.246094 19.65625-49.199219-5.25-18.957031-22.5-32.078125-42.167969-32.074219h-44.25v-160c4.417969 0 8-3.582031 8-8v-8h24v-16h-24v-16h24v-16h-24c0-4.417969-3.582031-8-8-8h-48c-4.417969 0-8 3.582031-8 8h-24v16h24v16h-24v16h24v8c0 4.417969 3.582031 8 8 8v160h-44.246094c-19.667968-.003906-36.921875 13.117188-42.171875 32.074219-5.25 18.953125 2.792969 39.082031 19.660157 49.199219l6.308593 3.78125c1.203125.710937 1.949219 1.992187 1.96875 3.386718.042969 1.390625-.640625 2.707032-1.808593 3.46875zm188.289062 66.730469v1.359375c.054688 22.136719-11.359375 42.722656-30.167969 54.398438-18.375 11.5-39.613281 17.597656-61.289062 17.601562h-25.085938c-21.675781 0-42.910156-6.101562-61.28125-17.601562-8.65625-5.410157-15.890625-12.816407-21.101562-21.597657l5.023437-7.535156c3.265625-4.875 9.234375-7.179687 14.925782-5.769531 12.558593 3.183594 25.726562-2.167969 32.503906-13.207032 10.277344 19.515626 32.535156 29.519532 53.953125 24.242188 21.421875-5.277344 36.484375-24.472656 36.519531-46.53125-.003906-1.671875-.089844-3.339844-.261719-5 16.925781 6.503906 35.929688 4.65625 51.285157-4.984375 3.269531 7.800781 4.960937 16.167969 4.976562 24.625zm-80-142.640625h44.25c12.472656 0 23.414062 8.324219 26.742188 20.347656 3.328124 12.023438-1.773438 24.789063-12.472657 31.203125l-6.304687 3.785157c-5.890625 3.539062-9.558594 9.851562-9.722656 16.722656-.160157 6.875 3.207031 13.351562 8.925781 17.164062 6.011719 4.035156 11.296875 9.0625 15.628906 14.867188-15.3125 9.8125-35.175781 8.765625-49.375-2.601563l-4.09375-3.28125c-3.757813-4.714843-8.363281-8.6875-13.578125-11.710937zm-40-232h32v40h-32zm24 56v256.71875c-5.289062-.957031-10.710938-.957031-16 0v-256.71875zm-8 272c17.671875 0 32 14.328125 32 32s-14.328125 32-32 32-32-14.328125-32-32 14.328125-32 32-32zm-76.214844-40.664062-6.304687-3.785157c-10.699219-6.414062-15.800781-19.179687-12.472657-31.203125 3.328126-12.023437 14.269532-20.347656 26.746094-20.347656h44.246094v86.496094c-14.160156 8.203125-23.167969 23.050781-23.894531 39.398437l-7.410157 14.824219c-2.894531 5.839844-9.472656 8.867188-15.789062 7.265625-11.644531-2.875-23.878906 1.488281-31.074219 11.078125-1.199219-4.929688-1.8125-9.988281-1.832031-15.0625v-1.359375c-.019531-21.472656 10.714844-41.527344 28.59375-53.417969 5.71875-3.8125 9.085938-10.289062 8.921875-17.164062-.164063-6.871094-3.832031-13.183594-9.722656-16.722656zm0 0"/><path d="m96 432h48v16h-48zm0 0"/><path d="m88 280c0-13.253906-10.746094-24-24-24s-24 10.746094-24 24 10.746094 24 24 24 24-10.746094 24-24zm-32 0c0-4.417969 3.582031-8 8-8s8 3.582031 8 8-3.582031 8-8 8-8-3.582031-8-8zm0 0"/></svg>