<svg height="491pt" viewBox="0 -5 491.312 491" width="491pt" xmlns="http://www.w3.org/2000/svg"><path d="m245.65625 32.15625c22.089844 0 40 17.910156 40 40v40h-80v-40c0-22.089844 17.910156-40 40-40zm0 0" fill="#666"/><path d="m465.941406 42.734375c15.621094 15.621094 15.621094 40.945313 0 56.566406l-28.285156 28.285157-56.566406-56.566407 28.285156-28.285156c15.621094-15.621094 40.945312-15.621094 56.566406 0zm0 0" fill="#999"/><path d="m25.371094 43.304688c15.621094-15.621094 40.945312-15.621094 56.566406 0l28.285156 28.285156-56.566406 56.566406-28.285156-28.28125c-15.621094-15.621094-15.621094-40.949219 0-56.570312zm0 0" fill="#4d4d4d"/><path d="m285.65625 112.15625 95.433594-41.136719 56.566406 56.570313-32 312.566406zm0 0" fill="#f2afb3"/><path d="m205.65625 112.15625-95.433594-40.566406-56.566406 56.566406 32 312zm0 0" fill="#f4e09c"/><path d="m85.65625 440.15625 120-328h80l120 328zm0 0" fill="#c0e5e7"/><path d="m405.65625 440.15625c0-17.671875-71.632812-32-160-32s-160 14.328125-160 32 71.632812 32 160 32 160-14.328125 160-32zm0 0" fill="#acdee0"/><path d="m205.65625 120.15625h80c4.417969 0 8-3.582031 8-8v-40c-.042969-23.398438-16.933594-43.359375-40-47.28125v-24.71875h-16v24.71875c-23.066406 3.921875-39.957031 23.882812-40 47.28125v40c0 4.417969 3.582031 8 8 8zm8-48c0-17.671875 14.328125-32 32-32s32 14.328125 32 32v32h-64zm0 0"/><path d="m115.878906 77.242188c3.125-3.121094 3.125-8.1875 0-11.308594l-28.277344-28.28125c-16.65625-16.6875-42.980468-18.777344-62.058593-4.921875l-14.230469-14.230469-11.3125 11.3125 14.320312 14.34375c-13.34375 19.0625-11.070312 44.953125 5.390626 61.398438l28.289062 28.28125c3.125 3.125 8.1875 3.125 11.3125 0zm-84.855468 16.976562c-12.5-12.5-12.5-32.761719 0-45.261719s32.765624-12.5 45.265624 0l22.621094 22.621094-45.253906 45.265625zm0 0"/><path d="m491.3125 29.8125-11.3125-11.3125-14.007812 14.007812c-19.039063-14.070312-45.5-12.128906-62.28125 4.566407l-28.277344 28.28125c-3.125 3.125-3.125 8.1875 0 11.3125l56.566406 56.574219c3.125 3.125 8.1875 3.125 11.3125 0l28.289062-28.285157c16.285157-16.359375 18.636719-41.984375 5.597657-61.03125zm-31.023438 63.839844-22.632812 22.625-45.257812-45.265625 22.625-22.625c12.5-12.496094 32.765624-12.496094 45.265624 0 12.5 12.5 12.5 32.765625 0 45.265625zm0 0"/><path d="m404.378906 375.566406 17.269532-232.003906 15.957031 1.1875-17.269531 232.003906zm0 0"/><path d="m306.503906 96.808594 55.996094-24.011719 6.304688 14.707031-55.996094 24.011719zm0 0"/><path d="m53.691406 144.8125 15.945313-1.324219 18.65625 224-15.945313 1.328125zm0 0"/><path d="m122.503906 87.511719 6.300782-14.703125 56.003906 24-6.304688 14.707031zm0 0"/><path d="m293.128906 125.285156-14.945312 5.742188 110.054687 286.152344c-45.679687-16.769532-137.4375-17.023438-142.582031-17.023438s-96.902344.253906-142.59375 17.023438l110.066406-286.152344-14.945312-5.742188-118.054688 306.941406c-1.570312 2.351563-2.429687 5.105469-2.472656 7.929688 0 39.542969 161.144531 40 168 40s168-.457031 168-40c-.042969-2.824219-.902344-5.578125-2.472656-7.929688zm-47.472656 338.871094c-93.144531 0-146.640625-15.113281-151.726562-23.199219l.695312-1.832031c8.238281-8.914062 61.214844-22.96875 151.03125-22.96875 90.175781 0 143.199219 14.160156 151.070312 23.070312l.488282 1.289063c-6.085938 8.863281-59.445313 23.640625-151.558594 23.640625zm0 0"/></svg>