<svg height="480pt" viewBox="-72 0 480 480" width="480pt" xmlns="http://www.w3.org/2000/svg"><path d="m8 8h320v464h-320zm0 0" fill="#0378a3"/><path d="m40 40h256v304h-256zm0 0" fill="#97d7d9"/><path d="m208 408c0 22.089844-17.910156 40-40 40s-40-17.910156-40-40 17.910156-40 40-40 40 17.910156 40 40zm0 0" fill="#b3b3b3"/><path d="m184 408c0 8.835938-7.164062 16-16 16s-16-7.164062-16-16 7.164062-16 16-16 16 7.164062 16 16zm0 0" fill="#e6e6e6"/><path d="m40 136 96-96h64l-160 160zm0 0" fill="#29485a"/><path d="m40 280 240-240h16v136l-168 168h-88zm0 0" fill="#29485a"/><path d="m336 472v-464c0-4.417969-3.582031-8-8-8h-320c-4.417969 0-8 3.582031-8 8v464c0 4.417969 3.582031 8 8 8h320c4.417969 0 8-3.582031 8-8zm-16-8h-304v-448h304zm0 0"/><path d="m168 384c-13.253906 0-24 10.746094-24 24s10.746094 24 24 24 24-10.746094 24-24-10.746094-24-24-24zm0 32c-4.417969 0-8-3.582031-8-8s3.582031-8 8-8 8 3.582031 8 8-3.582031 8-8 8zm0 0"/><path d="m168 360c-26.507812 0-48 21.492188-48 48s21.492188 48 48 48 48-21.492188 48-48c-.027344-26.5-21.5-47.972656-48-48zm0 80c-17.671875 0-32-14.328125-32-32s14.328125-32 32-32 32 14.328125 32 32-14.328125 32-32 32zm0 0"/><path d="m40 352h256c4.417969 0 8-3.582031 8-8v-304c0-4.417969-3.582031-8-8-8h-256c-4.417969 0-8 3.582031-8 8v304c0 4.417969 3.582031 8 8 8zm248-16h-140.6875l140.6875-140.6875zm-240-288h68.6875l-68.6875 68.6875zm0 91.3125 91.3125-91.3125h41.375l-132.6875 132.6875zm0 64 155.3125-155.3125h57.375l-212.6875 212.6875zm0 80 235.3125-235.3125h4.6875v124.6875l-163.3125 163.3125h-76.6875zm0 0"/></svg>