<svg height="487pt" viewBox="-2 0 487 487.76053" width="487pt" xmlns="http://www.w3.org/2000/svg"><path d="m282.570312 112.074219-168 192 .675782 4.710937c4.203125 29.429688 29.40625 51.289063 59.132812 51.289063h4.191406l182.402344-165.824219zm0 0" fill="#808080"/><path d="m474.570312 104.074219c0 53.019531-42.980468 96-96 96-53.015624 0-96-42.980469-96-96s42.984376-96 96-96c53.019532 0 96 42.980469 96 96zm0 0" fill="#0378a3"/><path d="m325.414062 30.886719-2.160156-5.191407c-9.332031 6.59375-17.414062 14.792969-23.882812 24.210938l2.082031 4.980469c23.855469 57.226562 66.378906 104.695312 120.648437 134.671875 10.625-5.425782 20.148438-12.785156 28.078126-21.703125l-2.785157-1.519531c-54.898437-29.941407-97.933593-77.722657-121.980469-135.449219zm0 0" fill="#f8cf26"/><path d="m221.574219 221.070312 25.992187-25.992187c6.078125-6.074219 15.929688-6.074219 22.003906 0l9.996094 9.996094c6.078125 6.078125 6.078125 15.929687 0 22.003906l-25.992187 25.996094c-6.078125 6.074219-15.929688 6.074219-22.003907 0l-9.996093-9.996094c-6.078125-6.078125-6.078125-15.929687 0-22.007813zm0 0" fill="#4d4d4d"/><path d="m87.46875 464.136719c9.46875-2.707031 17.199219-9.554688 21.027344-18.628907 3.828125-9.070312 3.34375-19.386718-1.324219-28.058593l-4.902344-9.105469c-3.496093-6.414062-2.332031-14.367188 2.855469-19.511719l32.070312-32.070312c11.011719 7.347656 23.945313 11.28125 37.183594 11.3125h7.289063l177.984375-161.808594c43.078125 7.96875 86.53125-11.910156 108.664062-49.714844 22.136719-37.804687 18.210938-85.425781-9.820312-119.09375-28.027344-33.667969-74.148438-46.160156-115.339844-31.242187-41.191406 14.917968-68.613281 54.050781-68.585938 97.859375 0 1.597656.171876 3.140625.242188 4.71875l-168.679688 192.800781 1.191407 8.351562c1.984375 13.683594 8.128906 26.425782 17.601562 36.496094l-31.105469 31.101563c-10.199218 10.132812-12.480468 25.78125-5.601562 38.402343l4.90625 9.109376c2.371094 4.402343 2.621094 9.644531.679688 14.253906-1.945313 4.605468-5.871094 8.085937-10.679688 9.460937l-82.746094 23.613281 4.386719 15.378907zm291.101562-448.0625c33.515626-.0625 64.140626 18.949219 78.953126 49.011719 14.816406 30.058593 11.234374 65.929687-9.230469 92.464843-51.53125-29.035156-91.992188-74.328125-115.046875-128.796875 13.664062-8.296875 29.339844-12.683594 45.324218-12.679687zm-58.519531 22.460937c24.136719 55.003906 65.109375 100.921875 117.015625 131.136719-4.542968 4.070313-9.496094 7.660156-14.78125 10.710937-50.917968-29.238281-90.800781-74.421874-113.496094-128.574218l-.304687-.726563c3.441406-4.546875 7.316406-8.75 11.566406-12.546875zm-21.597656 29.386719c22.957031 49.425781 59.660156 91.199219 105.71875 120.328125-33.03125 10.117188-68.929687-.058594-91.738281-26.011719-22.804688-25.949219-28.285156-62.859375-14.003906-94.316406zm-175.289063 239.734375-.152343-1.078125 154.855469-176.976563c8.371093 32.746094 32.097656 59.40625 63.648437 71.527344l-166.039063 150.945313h-1.097656c-25.703125-.113281-47.464844-18.988281-51.214844-44.417969zm0 0"/><path d="m225.917969 258.738281c9.207031 9.175781 24.101562 9.175781 33.308593 0l26-25.992187c9.195313-9.207032 9.195313-24.117188 0-33.320313l-10-10c-9.207031-9.175781-24.101562-9.175781-33.308593 0l-26 25.992188c-9.195313 9.203125-9.195313 24.113281 0 33.320312zm1.308593-32 26-25.992187c2.953126-2.953125 7.738282-2.953125 10.691407 0l10 10.007812c2.941406 2.949219 2.941406 7.726563 0 10.679688l-26 25.992187c-2.953125 2.949219-7.738281 2.949219-10.691407 0l-10-10.007812c-2.941406-2.953125-2.941406-7.730469 0-10.679688zm0 0"/><path d="m426.203125 50.074219c-6.105469-5.390625-13.082031-9.707031-20.632813-12.761719l-6 14.824219c5.871094 2.382812 11.292969 5.742187 16.042969 9.9375zm0 0"/><path d="m441.5625 138.960938c12.011719-21.707032 12.011719-48.066407 0-69.777344l-13.980469 7.777344c9.320313 16.871093 9.320313 37.351562 0 54.222656zm0 0"/><path d="m44.917969 53.730469 11.3125-11.3125 104.003906 104-11.316406 11.316406zm0 0"/><path d="m186.570312.0742188h16v136.0000002h-16zm0 0"/><path d="m18.570312 192.074219h136v16h-136zm0 0"/><path d="m325.0625 334.300781 11.265625-11.351562 104.394531 103.605469-11.261718 11.351562zm0 0"/><path d="m346.542969 280.574219 136-.53125.0625 16-136 .53125zm0 0"/><path d="m274.097656 328.101562 16-.054687.46875 136-16 .054687zm0 0"/></svg>