<svg height="480pt" viewBox="0 -8 480 480" width="480pt" xmlns="http://www.w3.org/2000/svg"><path d="m40 96.097656h400c17.671875 0 32 14.328125 32 32v264c0 17.671875-14.328125 32-32 32h-400c-17.671875 0-32-14.328125-32-32v-264c0-17.671875 14.328125-32 32-32zm0 0" fill="#48a0dc"/><path d="m56 128.097656h368c8.835938 0 16 7.164063 16 16v216c0 8.835938-7.164062 16-16 16h-368c-8.835938 0-16-7.164062-16-16v-216c0-8.835937 7.164062-16 16-16zm0 0" fill="#29485a"/><path d="m304 96.097656-4.71875-4.671875c-33.105469-32.765625-86.507812-32.492187-119.273438.617188l-4.007812 4.054687zm0 0" fill="#4d4d4d"/><path d="m48 424.097656h384v32h-384zm0 0" fill="#29485a"/><path d="m40 432.097656v24c0 4.417969 3.582031 8 8 8h384c4.417969 0 8-3.582031 8-8v-24c22.082031-.027344 39.972656-17.917968 40-40v-264c-.027344-22.078125-17.917969-39.972656-40-40h-132.710938l-2.402343-2.359375c-13.554688-13.449219-30.96875-22.332031-49.816407-25.40625l46.578126-46.578125c2.078124-2.007812 2.914062-4.984375 2.179687-7.78125-.730469-2.796875-2.914063-4.980468-5.710937-5.710937-2.796876-.734375-5.773438.101562-7.78125 2.179687l-50.335938 50.34375-50.34375-50.34375c-3.140625-3.03125-8.128906-2.988281-11.214844.097656-3.085937 3.085938-3.128906 8.078126-.097656 11.214844l46.59375 46.59375c-19.210938 3.09375-36.9375 12.222656-50.609375 26.070313l-1.664063 1.679687h-132.664062c-22.082031.027344-39.9726562 17.921875-40 40v264c.0273438 22.082032 17.917969 39.972656 40 40zm384 16h-368v-16h368zm-184.449219-373.0625c15.359375-.007812 30.375 4.539063 43.152344 13.0625h-85.503906c12.5-8.476562 27.25-13.027344 42.351562-13.0625zm-223.550781 53.0625c0-13.253906 10.746094-24 24-24h400c13.253906 0 24 10.746094 24 24v264c0 13.253906-10.746094 24-24 24h-400c-13.253906 0-24-10.746094-24-24zm0 0"/><path d="m56 384.097656h368c13.253906 0 24-10.746094 24-24v-216c0-13.253906-10.746094-24-24-24h-368c-13.253906 0-24 10.746094-24 24v216c0 13.253906 10.746094 24 24 24zm-8-240c0-4.417968 3.582031-8 8-8h368c4.417969 0 8 3.582032 8 8v216c0 4.417969-3.582031 8-8 8h-368c-4.417969 0-8-3.582031-8-8zm0 0"/><path d="m376 392.097656h32v16h-32zm0 0"/><path d="m328 392.097656h16v16h-16zm0 0"/></svg>