<svg height="480pt" viewBox="0 -14 480 480" width="480pt" xmlns="http://www.w3.org/2000/svg"><path d="m416 187.199219 22.855469-24c-6.574219-6.25-10.296875-14.925781-10.296875-24 0-9.070313 3.722656-17.746094 10.296875-24l-107.710938-104-3.457031 3.335937c-11.988281 11.410156-30.820312 11.410156-42.808594 0l-3.445312-3.335937-177.433594 176zm0 0" fill="#009245"/><path d="m144 187.199219 126.296875-125.246094c15.511719-14.777344 39.894531-14.777344 55.40625 0l60.59375 58.496094c7.324219 6.96875 11.472656 16.640625 11.472656 26.75 0 10.113281-4.148437 19.78125-11.472656 26.753906l-13.730469 13.246094" fill="#71c285"/><path d="m41.144531 187.199219h397.710938c.324219 17.984375 15.160156 32.308593 33.144531 32v192c-17.984375-.308594-32.820312 14.015625-33.144531 32h-397.710938c-.324219-17.984375-15.160156-32.308594-33.144531-32v-192c17.984375.308593 32.820312-14.015625 33.144531-32zm0 0" fill="#24ae5f"/><path d="m88.960938 411.199219h302.078124c26.496094.535156 48.414063-20.503907 48.960938-47v-98c-.546875-26.496094-22.464844-47.535157-48.960938-47h-302.078124c-26.496094-.535157-48.414063 20.503906-48.960938 47v98c.546875 26.496093 22.464844 47.535156 48.960938 47zm0 0" fill="#71c285"/><path d="m240 267.335938 13.414062 39.863281h43.410157l-35.121094 24.640625 13.417969 39.855468-35.121094-24.632812-35.121094 24.632812 13.417969-39.855468-35.121094-24.640625h43.410157zm0 0" fill="#39b54a"/><path d="m194.726562 187.199219c6.769532-19.203125 24.914063-32.046875 45.273438-32.046875s38.503906 12.84375 45.273438 32.046875" fill="#009245"/><path d="m88.960938 419.199219h302.078124c30.898438.496093 56.375-24.101563 56.960938-55v-98c-.585938-30.894531-26.0625-55.496094-56.960938-55h-302.078124c-30.898438-.496094-56.375 24.105469-56.960938 55v98c.585938 30.898437 26.0625 55.496093 56.960938 55zm-40.960938-153c.582031-22.0625 18.894531-39.5 40.960938-39h302.078124c22.066407-.5 40.378907 16.9375 40.960938 39v98c-.582031 22.0625-18.894531 39.503906-40.960938 39h-302.078124c-22.066407.503906-40.378907-16.9375-40.960938-39zm0 0"/><path d="m33.144531 443.199219v8h413.710938v-8c.339843-13.558594 11.582031-24.289063 25.144531-24h8v-208h-8c-13.5625.292969-24.804688-10.4375-25.144531-24v-8h-12.191407l15.464844-16.238281-5.714844-5.511719c-5.011718-4.746094-7.855468-11.34375-7.855468-18.25 0-6.902344 2.84375-13.503907 7.855468-18.246094l5.984376-5.753906-119.253907-115.121094-9.007812 8.722656c-8.882813 8.433594-22.816407 8.433594-31.695313 0l-9.089844-8.800781-180.648437 179.199219h-67.558594v8c-.339843 13.5625-11.582031 24.292969-25.144531 24h-8v208h8c13.5625-.289063 24.804688 10.441406 25.144531 24zm248.457031-420.894531c14.421876 11.699218 35.078126 11.675781 49.46875-.066407l96.839844 93.515625c-9.867187 14.183594-9.792968 33.03125.1875 47.140625l-15.53125 16.304688h-20.238281c8.683594-8.515625 13.535156-20.191407 13.445313-32.351563-.089844-12.164062-5.117188-23.765625-13.925782-32.152344l-60.582031-58.503906c-18.679687-17.71875-47.96875-17.683594-66.601563.082032l-123.960937 122.925781h-17.277344zm35.789063 156.894531h-26.949219c-9.207031-19.511719-28.847656-31.957031-50.421875-31.957031s-41.210937 12.445312-50.417969 31.957031h-26.175781l112.421875-111.496094c12.414063-11.789063 31.890625-11.789063 44.304688 0l60.582031 58.503906c5.773437 5.460938 9.039063 13.054688 9.039063 20.996094 0 7.945313-3.265626 15.539063-9.039063 20.996094l-11.398437 11h-35.304688l-30.34375-106.199219-15.375 4.398438zm-45.390625 0h-64c7.554688-10.070313 19.410156-16 32-16s24.445312 5.929687 32 16zm-256 47.242187c16.066406-2.988281 28.789062-15.289062 32.320312-31.242187h383.359376c3.53125 15.953125 16.253906 28.253906 32.320312 31.242187v177.558594c-16.054688 2.980469-28.773438 15.261719-32.320312 31.199219h-383.359376c-3.546874-15.9375-16.265624-28.21875-32.320312-31.199219zm0 0"/><path d="m189.527344 392.238281 50.472656-35.398437 50.472656 35.398437-19.273437-57.285156 50.960937-35.753906h-62.960937l-19.199219-56.941407-19.199219 56.941407h-62.960937l50.960937 35.753906zm18.976562-77.039062h23.832032l7.664062-22.785157 7.664062 22.785157h23.832032l-19.28125 13.519531 7.554687 22.441406-19.769531-13.871094-19.769531 13.910157 7.554687-22.398438zm0 0"/><path d="m67.175781 262.878906 14.207031-7.359375 66.285157 128-14.207031 7.359375zm0 0"/><path d="m324.121094 383.34375 74.582031-135.992188 14.03125 7.691407-74.585937 135.996093zm0 0"/></svg>