<svg height="469.33334pt" viewBox="0 0 469.33334 469.33334" width="469.33334pt" xmlns="http://www.w3.org/2000/svg"><path d="m298.667969 0c-64 0-85.335938 42.667969-85.335938 85.332031h21.335938c0-42.664062 21.332031-64 64-64zm0 0" fill="#7d1a00"/><path d="m320 42.667969c-64 0-64 21.332031-85.332031 21.332031-21.335938 0-21.335938-21.332031-85.335938-21.332031s-149.332031 42.664062-149.332031 149.332031 64 102.398438 64 172.800781c0 70.398438 42.667969 104.53125 85.332031 104.53125 64 0 64-21.332031 85.335938-21.332031 21.332031 0 21.332031 21.332031 85.332031 21.332031 42.667969 0 85.332031-34.132812 85.332031-104.53125 0-66.132812 64-66.132812 64-172.800781s-85.332031-149.332031-149.332031-149.332031zm0 0" fill="#c82e25"/><path d="m149.332031 469.332031c-41.101562 0-85.332031-32.707031-85.332031-104.53125 0-31.5625-13.136719-48.46875-27.042969-66.375l33.699219-26.175781c15.199219 19.574219 36.011719 46.363281 36.011719 92.550781 0 45.667969 22.976562 61.867188 42.664062 61.867188 29.148438 0 37.554688-4.855469 44.96875-9.136719 7.875-4.550781 21.085938-12.199219 40.367188-12.199219s32.488281 7.648438 40.382812 12.21875l-21.375 36.917969c-6-3.46875-11.1875-6.46875-19.007812-6.46875-7.824219 0-13.011719 3-19.011719 6.46875-13.582031 7.84375-28.855469 14.863281-66.324219 14.863281zm0 0" fill="#af0a00"/><path d="m320 469.332031c-37.457031 0-52.730469-7.019531-66.28125-14.84375l42.644531-73.90625c2.855469 1.648438 5.574219 3.210938 20.53125 3.398438 1.15625-2.375 3.105469-8.03125 3.105469-19.179688 0-57.9375 26.34375-92.507812 43.78125-115.382812 14.300781-18.78125 20.21875-26.554688 20.21875-57.417969 0-60.917969-53.3125-64-64-64v-85.332031c60.03125 0 149.332031 39.769531 149.332031 149.332031 0 59.65625-20.007812 85.925781-37.65625 109.105469-14.144531 18.5625-26.34375 34.5625-26.34375 63.695312 0 71.824219-44.226562 104.53125-85.332031 104.53125zm0 0" fill="#af0a00"/><path d="m180.523438 96.808594c-20.1875-20.191406-60.070313-13.042969-89.082032 15.96875-29.007812 29.007812-36.15625 68.890625-15.964844 89.082031 20.1875 20.1875 60.070313 13.039063 89.082032-15.96875 29.007812-29.007813 36.15625-68.890625 15.964844-89.082031zm0 0" fill="#d2514a"/><path d="m123.703125 110.960938c-8.839844-8.835938-28.40625-3.597657-43.707031 11.703124-15.300782 15.296876-20.539063 34.867188-11.699219 43.707032s28.40625 3.601562 43.707031-11.699219c15.300782-15.300781 20.539063-34.871094 11.699219-43.710937zm0 0" fill="#de807a"/></svg>