<svg height="469pt" viewBox="-64 0 469 469.33334" width="469pt" xmlns="http://www.w3.org/2000/svg"><path d="m234.832031 85.332031c0-64-21.332031-85.332031-64-85.332031-42.664062 0-64 21.332031-64 85.332031s-106.664062 106.667969-106.664062 213.335938c0 106.664062 64 170.664062 170.664062 170.664062 106.667969 0 170.667969-64 170.667969-170.664062 0-106.667969-106.667969-149.335938-106.667969-213.335938zm0 0" fill="#e0d4b7"/><path d="m277.5 234.667969c0 11.78125-9.550781 21.332031-21.332031 21.332031-11.785157 0-21.335938-9.550781-21.335938-21.332031 0-11.785157 9.550781-21.335938 21.335938-21.335938 11.78125 0 21.332031 9.550781 21.332031 21.335938zm0 0" fill="#d4c3a2"/><path d="m320.167969 298.667969c-10.652344-.003907-19.671875 7.847656-21.140625 18.394531-1.464844 10.546875 5.074218 20.5625 15.320312 23.464844 10.246094 2.898437 21.0625-2.199219 25.34375-11.953125.542969-4.351563.964844-8.789063 1.261719-13.316407-2.210937-9.703124-10.835937-16.585937-20.785156-16.589843zm0 0" fill="#d4c3a2"/><path d="m42.832031 298.667969h-21.332031c0-52.25 30.988281-88.65625 58.332031-120.773438 23.773438-27.914062 48.335938-56.769531 48.335938-92.5625 0-54.425781 13.757812-64 42.664062-64v21.335938c-15.082031 0-21.332031 0-21.332031 42.664062 0 43.648438-27.15625 75.53125-53.40625 106.375-27.394531 32.179688-53.261719 62.5625-53.261719 106.960938zm0 0" fill="#eae2ce"/><path d="m170.832031 469.332031c-106.863281 0-170.664062-63.800781-170.664062-170.664062h21.332031c0 94.90625 54.425781 149.332031 149.332031 149.332031s149.335938-54.425781 149.335938-149.332031c0-52.261719-31-88.667969-58.355469-120.792969-24.84375-29.175781-48.3125-56.738281-48.3125-92.542969 0-59.289062-18.488281-64-42.667969-64v-21.332031c45.460938 0 64 24.71875 64 85.332031 0 27.949219 21 52.605469 43.230469 78.710938 29.730469 34.925781 63.4375 74.507812 63.4375 134.625 0 106.863281-63.800781 170.664062-170.667969 170.664062zm0 0" fill="#d4c3a2"/><path d="m170.832031 426.667969c-58.8125 0-106.664062-53.074219-106.664062-118.304688h21.332031c0 53.46875 38.28125 96.96875 85.332031 96.96875 47.054688 0 85.335938-43.5 85.335938-96.96875 0-52.707031-38.0625-116.363281-85.335938-116.363281v-21.332031c61.054688 0 106.667969 72.695312 106.667969 137.695312 0 65.230469-47.855469 118.304688-106.667969 118.304688zm0 0" fill="#d4c3a2"/><path d="m256.167969 308.363281c0 53.554688-38.207031 96.96875-85.335938 96.96875-47.128906 0-85.332031-43.414062-85.332031-96.96875 0-53.554687 38.203125-116.363281 85.332031-116.363281 47.128907 0 85.335938 62.808594 85.335938 116.363281zm0 0" fill="#993b17"/><g fill="#8b2800"><path d="m170.832031 405.332031v-42.664062c23.53125 0 42.667969-24.367188 42.667969-54.304688 0-37.28125-27-73.695312-42.667969-73.695312v-42.667969c47.273438 0 85.335938 63.65625 85.335938 116.363281 0 53.46875-38.28125 96.96875-85.335938 96.96875zm0 0"/><path d="m192.167969 362.667969c0 11.78125-9.550781 21.332031-21.335938 21.332031-11.78125 0-21.332031-9.550781-21.332031-21.332031 0-11.785157 9.550781-21.335938 21.332031-21.335938 11.785157 0 21.335938 9.550781 21.335938 21.335938zm0 0"/><path d="m213.5 266.667969c0 5.890625-4.777344 10.664062-10.667969 10.664062s-10.664062-4.773437-10.664062-10.664062 4.773437-10.667969 10.664062-10.667969 10.667969 4.777344 10.667969 10.667969zm0 0"/><path d="m192.167969 288c0 5.890625-4.777344 10.667969-10.667969 10.667969s-10.667969-4.777344-10.667969-10.667969 4.777344-10.667969 10.667969-10.667969 10.667969 4.777344 10.667969 10.667969zm0 0"/></g><path d="m96.09375 191.707031-16.25-13.832031c23.761719-27.894531 48.324219-56.75 48.324219-92.542969h21.332031c0 43.648438-27.15625 75.53125-53.40625 106.375zm0 0" fill="#f3eee3"/><path d="m164.605469 235.519531c-8.320313-4.035156-21.824219 6.640625-30.167969 23.84375-8.339844 17.203125-8.359375 34.417969-.042969 38.453125 8.320313 4.03125 21.824219-6.644531 30.167969-23.847656 8.339844-17.199219 8.359375-34.417969.042969-38.449219zm0 0" fill="#b7745a"/><path d="m170.832031 106.667969c0 11.78125-9.550781 21.332031-21.332031 21.332031s-21.332031-9.550781-21.332031-21.332031c0-11.785157 9.550781-21.335938 21.332031-21.335938s21.332031 9.550781 21.332031 21.335938zm0 0" fill="#f3eee3"/><path d="m128.167969 160c0 5.890625-4.777344 10.667969-10.667969 10.667969s-10.667969-4.777344-10.667969-10.667969 4.777344-10.667969 10.667969-10.667969 10.667969 4.777344 10.667969 10.667969zm0 0" fill="#f3eee3"/><path d="m85.5 256c0 11.78125-9.550781 21.332031-21.332031 21.332031-11.785157 0-21.335938-9.550781-21.335938-21.332031s9.550781-21.332031 21.335938-21.332031c11.78125 0 21.332031 9.550781 21.332031 21.332031zm0 0" fill="#eae2ce"/><path d="m192.167969 170.667969c0 11.78125-9.550781 21.332031-21.335938 21.332031-11.78125 0-21.332031-9.550781-21.332031-21.332031 0-11.785157 9.550781-21.335938 21.332031-21.335938 11.785157 0 21.335938 9.550781 21.335938 21.335938zm0 0" fill="#d4c3a2"/></svg>