<svg height="469.33334pt" viewBox="0 0 469.33334 469.33334" width="469.33334pt" xmlns="http://www.w3.org/2000/svg"><path d="m402.285156 0c-67.046875 0-167.617187 42.667969-274.285156 149.332031l-21.332031 21.335938c0 64-42.667969 64-42.667969 64-36.976562 56.292969-64 114.878906-64 170.664062 0 0 0 64 67.046875 64s142.222656-42.664062 231.621094-128c55.871093-53.332031 170.664062-192 170.664062-277.332031 0 0 0-64-67.046875-64zm0 0" fill="#ad6143"/><path d="m354.996094 50.335938c-27.855469-27.855469-123.410156 22.542968-213.429688 112.5625-15.34375 15.339843-29.425781 30.828124-42.273437 46.128906-3.273438 7.199218-8.332031 13.445312-14.703125 18.132812-52.527344 67.421875-76.804688 127.949219-55.585938 149.167969 27.855469 27.855469 123.410156-22.539063 213.429688-112.558594 90.023437-90.023437 140.417968-185.578125 112.5625-213.433593zm0 0" fill="#a34e2d"/><path d="m67.042969 469.332031v-42.664062c54.144531 0 120.269531-38 202.164062-116.210938 65.75-62.75 157.460938-186.875 157.460938-246.457031h42.664062c0 85.625-117.207031 226.292969-170.664062 277.332031-90.210938 86.125-165.980469 128-231.625 128zm0 0" fill="#c28a73"/><path d="m297.707031 176.042969-20.707031-5.042969c1.019531-4.230469-.144531-7.832031-3.582031-11.0625-4.210938-3.957031-16.042969-10.605469-47.898438-10.605469-23.351562 0-51.582031 3.667969-79.5 10.355469l-4.957031-20.75c29.480469-7.0625 59.480469-10.9375 84.457031-10.9375 30.3125 0 50.773438 5.355469 62.5 16.394531 9.023438 8.460938 12.542969 20 9.6875 31.648438zm0 0" fill="#993b17"/><path d="m95.230469 255.855469c-8.582031.050781-17.160157-.484375-25.667969-1.605469l2.957031-21.125c28.8125 3.957031 75.355469-1.0625 117.4375-12.980469l5.792969 20.542969c-34.144531 9.644531-70.792969 15.167969-100.519531 15.167969zm0 0" fill="#ad6143"/><path d="m130.039062 163.851562c-8.273437 2.339844-16.074218 4.847657-23.398437 7.460938-.21875 45.179688-21.769531 58.105469-34.144531 61.8125 28.453125 3.910156 73.171875-.457031 117.464844-12.976562 62.636718-17.710938 100-44.667969 83.453124-60.210938-16.546874-15.546875-80.734374-13.792969-143.375 3.914062zm0 0" fill="#fdcf6d"/><path d="m120.417969 189.125-6.710938-20.25c5.230469-1.730469 10.6875-3.4375 16.355469-5.019531 32.625-9.230469 67.417969-14.523438 95.457031-14.523438 13.6875 0 38.105469 1.375 47.898438 10.605469l-14.625 15.542969c-.042969 0-7.25-4.8125-33.273438-4.8125-26.164062 0-58.851562 5-89.6875 13.726562-5.351562 1.5-10.476562 3.085938-15.414062 4.730469zm0 0" fill="#fdab00"/><path d="m40.707031 329.144531-10.832031-18.375c22.8125-13.414062 55.3125-23.1875 78.125-27.875 17.917969-3.644531 35.0625-5.5625 49.625-5.5625 24.375 0 40.480469 5.210938 49.1875 15.9375l-16.582031 13.460938c-1.960938-2.4375-9.0625-8.0625-32.605469-8.0625-13.167969 0-28.832031 1.769531-45.355469 5.144531-20.144531 4.125-51 13.230469-71.5625 25.332031zm0 0" fill="#993b17"/><path d="m55.707031 384c-24.375 0-40.476562-5.207031-49.1875-15.9375l16.585938-13.457031c1.957031 2.4375 9.0625 8.0625 32.601562 8.0625 13.167969 0 28.835938-1.773438 45.355469-5.148438 40.9375-8.375 87.269531-27.6875 90.75-44.25l20.875 4.375c-8.25 39.375-97.230469 58.710938-107.355469 60.792969-17.914062 3.644531-35.0625 5.5625-49.625 5.5625zm0 0" fill="#b7745a"/><path d="m191.789062 309.789062c-3.285156-13.390624-44.058593-14.898437-91.070312-3.371093-47.011719 11.53125-82.457031 31.734375-79.175781 45.125 3.285156 13.390625 44.058593 14.902343 91.070312 3.371093s82.460938-31.730468 79.175781-45.125zm0 0" fill="#fdcf6d"/><path d="m41.480469 354.8125-17.523438-12.144531c8.105469-11.730469 41.835938-29.335938 88.335938-38.855469 16.476562-3.355469 32.144531-5.144531 45.332031-5.144531 15.332031 0 23.457031 2.351562 27.582031 4.3125l-9.207031 19.25c-.1875-.085938-4.8125-2.230469-18.375-2.230469-11.769531 0-25.957031 1.625-41.042969 4.730469-47.25 9.644531-72.226562 26.25-75.101562 30.082031zm0 0" fill="#fdab00"/><path d="m426.019531 40.3125-20.875-4.375c.539063-2.296875-.039062-4.714844-1.5625-6.519531-2.9375-3.625-9.9375-6.25-19.6875-7.417969l2.5-21.167969c15.980469 1.875 27 6.8125 33.730469 15.105469 5.609375 6.785156 7.785156 15.777344 5.894531 24.375zm0 0" fill="#a34e2d"/><path d="m269.042969 106.667969c-24.375 0-40.480469-5.210938-49.1875-15.9375l16.582031-13.460938c1.957031 2.4375 9.0625 8.0625 32.605469 8.0625 13.164062 0 28.832031-1.769531 45.351562-5.144531l4.25 20.917969c-17.894531 3.644531-35.039062 5.5625-49.601562 5.5625zm0 0" fill="#ad6143"/><path d="m405.121094 32.457031c-3.28125-13.390625-44.054688-14.902343-91.066406-3.371093-47.011719 11.53125-82.460938 31.730468-79.175782 45.125 3.28125 13.390624 44.054688 14.898437 91.066406 3.371093 47.011719-11.53125 82.460938-31.734375 79.175782-45.125zm0 0" fill="#fdcf6d"/><path d="m254.8125 77.480469-17.519531-12.148438c8.101562-11.726562 41.832031-29.332031 88.332031-38.851562 16.480469-3.355469 32.144531-5.148438 45.332031-5.148438 15.335938 0 23.460938 2.355469 27.585938 4.3125l-9.210938 19.25c-.1875-.082031-4.8125-2.226562-18.375-2.226562-11.769531 0-25.957031 1.625-41.039062 4.726562-47.25 9.648438-72.230469 26.25-75.105469 30.085938zm0 0" fill="#fdab00"/><path d="m384 117.332031c0-5.890625-14.328125-10.664062-32-10.664062s-32 4.773437-32 10.664062 14.328125 10.667969 32 10.667969 32-4.777344 32-10.667969zm0 0" fill="#a34e2d"/><path d="m320 234.667969c0-11.785157-14.328125-21.335938-32-21.335938s-32 9.550781-32 21.335938c0 11.78125 14.328125 21.332031 32 21.332031s32-9.550781 32-21.332031zm0 0" fill="#a34e2d"/><path d="m85.332031 426.667969c0-11.785157-14.324219-21.335938-32-21.335938-17.671875 0-32 9.550781-32 21.335938 0 11.78125 14.328125 21.332031 32 21.332031 17.675781 0 32-9.550781 32-21.332031zm0 0" fill="#c28a73"/><path d="m448 64c0 11.78125-9.550781 21.332031-21.332031 21.332031-11.785157 0-21.335938-9.550781-21.335938-21.332031s9.550781-21.332031 21.335938-21.332031c11.78125 0 21.332031 9.550781 21.332031 21.332031zm0 0" fill="#c28a73"/><path d="m426.667969 149.332031c0-11.78125-14.328125-21.332031-32-21.332031-17.675781 0-32 9.550781-32 21.332031 0 11.785157 14.324219 21.335938 32 21.335938 17.671875 0 32-9.550781 32-21.335938zm0 0" fill="#a34e2d"/><path d="m277.332031 309.332031c0-5.890625-9.550781-10.664062-21.332031-10.664062s-21.332031 4.773437-21.332031 10.664062 9.550781 10.667969 21.332031 10.667969 21.332031-4.777344 21.332031-10.667969zm0 0" fill="#a34e2d"/><path d="m128 384c0-11.78125-19.101562-21.332031-42.667969-21.332031-23.5625 0-42.664062 9.550781-42.664062 21.332031s19.101562 21.332031 42.664062 21.332031c23.566407 0 42.667969-9.550781 42.667969-21.332031zm0 0" fill="#b7745a"/><g fill="#993b17"><path d="m256 245.332031c0-5.890625-9.550781-10.664062-21.332031-10.664062-11.785157 0-21.335938 4.773437-21.335938 10.664062s9.550781 10.667969 21.335938 10.667969c11.78125 0 21.332031-4.777344 21.332031-10.667969zm0 0"/><path d="m213.332031 277.332031c0-11.78125-14.324219-21.332031-32-21.332031-17.671875 0-32 9.550781-32 21.332031 0 11.785157 14.328125 21.335938 32 21.335938 17.675781 0 32-9.550781 32-21.335938zm0 0"/><path d="m320 138.667969c0-5.890625-9.550781-10.667969-21.332031-10.667969-11.785157 0-21.335938 4.777344-21.335938 10.667969s9.550781 10.664062 21.335938 10.664062c11.78125 0 21.332031-4.773437 21.332031-10.664062zm0 0"/></g><path d="m341.332031 181.332031c0-5.890625-9.550781-10.664062-21.332031-10.664062s-21.332031 4.773437-21.332031 10.664062 9.550781 10.667969 21.332031 10.667969 21.332031-4.777344 21.332031-10.667969zm0 0" fill="#a34e2d"/></svg>