<svg height="469pt" viewBox="0 -64 469.33334 469" width="469pt" xmlns="http://www.w3.org/2000/svg"><path d="m320 .167969h-170.667969c-82.472656 0-149.332031 47.753906-149.332031 106.664062 0 20.039063 7.878906 38.71875 21.332031 54.734375v179.933594h426.667969v-170.667969c13.457031-16.015625 21.332031-43.960937 21.332031-64 0-58.910156-66.859375-106.664062-149.332031-106.664062zm0 0" fill="#ad6143"/><path d="m298.667969 106.832031c0-58.910156-66.859375-106.664062-149.335938-106.664062-82.472656 0-149.332031 47.753906-149.332031 106.664062 0 20.039063 7.878906 47.984375 21.332031 64v170.667969h256v-170.667969c13.457031-16.015625 21.335938-43.960937 21.335938-64zm0 0" fill="#c99884"/><path d="m64 320.167969h-21.332031v-157.105469l-5-5.949219c-9.15625-10.90625-16.335938-32.988281-16.335938-50.28125 0-47.050781 57.417969-85.332031 128-85.332031v21.332031c-56.820312 0-106.664062 29.90625-106.664062 64 0 13.199219 5.976562 30.1875 11.332031 36.554688l10 11.90625zm0 0" fill="#d7b2a4"/><g fill="#b7745a"><path d="m277.332031 341.5h-213.332031v-21.332031h192v-157.105469l5-5.949219c10.21875-12.175781 16.332031-35.125 16.332031-50.28125 0-47.050781-57.414062-85.332031-128-85.332031v-21.332031c82.34375 0 149.335938 47.851562 149.335938 106.664062 0 19.179688-7.324219 47.324219-21.335938 64zm0 0"/><path d="m170.667969 74.832031c0 5.890625-4.777344 10.667969-10.667969 10.667969s-10.667969-4.777344-10.667969-10.667969 4.777344-10.664062 10.667969-10.664062 10.667969 4.773437 10.667969 10.664062zm0 0"/><path d="m106.667969 170.832031c0-11.78125-4.777344-21.332031-10.667969-21.332031s-10.667969 9.550781-10.667969 21.332031c0 11.785157 4.777344 21.335938 10.667969 21.335938s10.667969-9.550781 10.667969-21.335938zm0 0"/><path d="m234.667969 192.167969c0 11.78125-9.550781 21.332031-21.335938 21.332031-11.78125 0-21.332031-9.550781-21.332031-21.332031 0-11.785157 9.550781-21.335938 21.332031-21.335938 11.785157 0 21.335938 9.550781 21.335938 21.335938zm0 0"/><path d="m149.332031 245.5c0 5.890625-4.773437 10.667969-10.664062 10.667969s-10.667969-4.777344-10.667969-10.667969 4.777344-10.667969 10.667969-10.667969 10.664062 4.777344 10.664062 10.667969zm0 0"/><path d="m85.332031 288.167969c0 5.890625-4.773437 10.664062-10.664062 10.664062s-10.667969-4.773437-10.667969-10.664062 4.777344-10.667969 10.667969-10.667969 10.664062 4.777344 10.664062 10.667969zm0 0"/></g><path d="m277.332031 170.832031h170.667969v170.667969h-170.667969zm0 0" fill="#a34e2d"/><path d="m448 341.5h-149.332031v-21.332031h128v-157.105469l5-5.949219c10.21875-12.175781 16.332031-35.125 16.332031-50.28125 0-47.050781-57.417969-85.332031-128-85.332031v-21.332031c82.34375 0 149.332031 47.851562 149.332031 106.664062 0 19.179688-7.320312 47.324219-21.332031 64zm0 0" fill="#993b17"/><path d="m298.667969 32.167969c0-5.890625-9.550781-10.667969-21.335938-10.667969-11.78125 0-21.332031 4.777344-21.332031 10.667969s9.550781 10.664062 21.332031 10.664062c11.785157 0 21.335938-4.773437 21.335938-10.664062zm0 0" fill="#a34e2d"/><path d="m362.667969 53.5c0-5.890625-9.550781-10.667969-21.335938-10.667969-11.78125 0-21.332031 4.777344-21.332031 10.667969s9.550781 10.667969 21.332031 10.667969c11.785157 0 21.335938-4.777344 21.335938-10.667969zm0 0" fill="#a34e2d"/><path d="m405.332031 96.167969c0-5.890625-9.550781-10.667969-21.332031-10.667969s-21.332031 4.777344-21.332031 10.667969 9.550781 10.664062 21.332031 10.664062 21.332031-4.773437 21.332031-10.664062zm0 0" fill="#a34e2d"/><path d="m448 138.832031c0-5.890625-9.550781-10.664062-21.332031-10.664062-11.785157 0-21.335938 4.773437-21.335938 10.664062s9.550781 10.667969 21.335938 10.667969c11.78125 0 21.332031-4.777344 21.332031-10.667969zm0 0" fill="#993b17"/><path d="m448 320.167969c0 11.78125-9.550781 21.332031-21.332031 21.332031-11.785157 0-21.335938-9.550781-21.335938-21.332031 0-11.785157 9.550781-21.335938 21.335938-21.335938 11.78125 0 21.332031 9.550781 21.332031 21.335938zm0 0" fill="#993b17"/><path d="m320 224.167969c0 5.890625-4.777344 10.664062-10.667969 10.664062s-10.664062-4.773437-10.664062-10.664062 4.773437-10.667969 10.664062-10.667969 10.667969 4.777344 10.667969 10.667969zm0 0" fill="#993b17"/><path d="m384 277.5c0 11.78125-9.550781 21.332031-21.332031 21.332031-11.785157 0-21.335938-9.550781-21.335938-21.332031s9.550781-21.332031 21.335938-21.332031c11.78125 0 21.332031 9.550781 21.332031 21.332031zm0 0" fill="#993b17"/><path d="m405.332031 181.5c0 5.890625-4.773437 10.667969-10.664062 10.667969s-10.667969-4.777344-10.667969-10.667969 4.777344-10.667969 10.667969-10.667969 10.664062 4.777344 10.664062 10.667969zm0 0" fill="#993b17"/><path d="m362.667969 160.167969c0-5.890625-9.550781-10.667969-21.335938-10.667969-11.78125 0-21.332031 4.777344-21.332031 10.667969s9.550781 10.664062 21.332031 10.664062c11.785157 0 21.335938-4.773437 21.335938-10.664062zm0 0" fill="#a34e2d"/></svg>