<svg height="469pt" viewBox="0 -64 469.33334 469" width="469pt" xmlns="http://www.w3.org/2000/svg"><path d="m336.6875 1.09375c-59.925781-6.160156-54.410156 20.40625-102.019531 20.40625-42.667969 0-42.667969 42.667969-85.335938 42.667969-42.664062 0-42.664062 42.664062-85.332031 42.664062-18.585938 0-33.125 8.097657-43.617188 17.238281-13.378906 11.660157-20.382812 29.015626-20.382812 46.761719v170.667969h469.332031v-192c0-75.972656-57.074219-140.640625-132.644531-148.40625zm0 0" fill="#fee3aa"/><path d="m0 256.167969h469.332031v85.332031h-469.332031zm0 0" fill="#c99884"/><path d="m426.667969 277.5c-15.085938 0-23.054688-7.96875-28.875-13.792969-5.230469-5.226562-7.792969-7.539062-13.792969-7.539062s-8.5625 2.3125-13.792969 7.539062c-5.820312 5.824219-13.789062 13.792969-28.875 13.792969-15.082031 0-23.050781-7.96875-28.875-13.792969-5.226562-5.226562-7.789062-7.539062-13.789062-7.539062s-8.5625 2.3125-13.792969 7.539062c-5.824219 5.824219-13.792969 13.792969-28.875 13.792969s-23.050781-7.96875-28.875-13.792969c-5.230469-5.226562-7.792969-7.539062-13.792969-7.539062s-8.5625 2.3125-13.789062 7.539062c-5.824219 5.824219-13.792969 13.792969-28.875 13.792969-15.085938 0-23.054688-7.96875-28.875-13.792969-5.230469-5.226562-7.792969-7.539062-13.792969-7.539062s-8.5625 2.3125-13.792969 7.539062c-5.820312 5.824219-13.789062 13.792969-28.875 13.792969-15.082031 0-23.050781-7.96875-28.875-13.792969-5.226562-5.226562-7.789062-7.539062-13.789062-7.539062s-8.5625 2.3125-13.792969 7.539062c-5.824219 5.824219-13.792969 13.792969-28.875 13.792969v-21.332031c6 0 8.5625-2.3125 13.792969-7.542969 5.820312-5.824219 13.789062-13.792969 28.875-13.792969 15.082031 0 23.050781 7.96875 28.875 13.792969 5.226562 5.230469 7.789062 7.542969 13.789062 7.542969s8.5625-2.3125 13.792969-7.542969c5.824219-5.824219 13.792969-13.792969 28.875-13.792969s23.050781 7.96875 28.875 13.792969c5.230469 5.230469 7.792969 7.542969 13.792969 7.542969s8.5625-2.3125 13.789062-7.542969c5.824219-5.824219 13.792969-13.792969 28.875-13.792969 15.085938 0 23.054688 7.96875 28.875 13.792969 5.230469 5.230469 7.792969 7.542969 13.792969 7.542969s8.5625-2.3125 13.792969-7.542969c5.820312-5.824219 13.789062-13.792969 28.875-13.792969 15.082031 0 23.050781 7.96875 28.875 13.792969 5.226562 5.230469 7.789062 7.542969 13.789062 7.542969s8.5625-2.3125 13.792969-7.542969c5.824219-5.824219 13.792969-13.792969 28.875-13.792969s23.050781 7.96875 28.875 13.792969c5.230469 5.230469 7.792969 7.542969 13.792969 7.542969s8.5625-2.3125 13.789062-7.542969c5.824219-5.824219 13.792969-13.792969 28.875-13.792969v21.335938c-6 0-8.5625 2.3125-13.789062 7.539062-5.824219 5.824219-13.792969 13.792969-28.875 13.792969zm0 0" fill="#a34e2d"/><path d="m336.6875 1.09375c-59.925781-6.160156-54.410156 20.40625-102.019531 20.40625-42.667969 0-42.667969 42.667969-85.335938 42.667969-42.664062 0-42.664062 42.664062-85.332031 42.664062-18.585938 0-33.125 8.097657-43.617188 17.238281-13.378906 11.660157-20.382812 29.015626-20.382812 46.761719v21.335938c15.082031 0 23.050781-7.96875 28.875-13.792969 5.230469-5.230469 7.792969-7.542969 13.792969-7.542969s8.5625 2.3125 13.789062 7.542969c5.824219 5.824219 13.792969 13.792969 28.875 13.792969 15.085938 0 23.054688-7.96875 28.875-13.792969 5.230469-5.230469 7.792969-7.542969 13.792969-7.542969s8.5625 2.3125 13.792969 7.542969c5.820312 5.824219 13.789062 13.792969 28.875 13.792969 15.082031 0 23.050781-7.96875 28.875-13.792969 5.226562-5.230469 7.789062-7.542969 13.789062-7.542969s8.5625 2.3125 13.792969 7.542969c5.824219 5.824219 13.792969 13.792969 28.875 13.792969s23.050781-7.96875 28.875-13.792969c5.230469-5.230469 7.792969-7.542969 13.792969-7.542969s8.5625 2.3125 13.789062 7.542969c5.824219 5.824219 13.792969 13.792969 28.875 13.792969 15.085938 0 23.054688-7.96875 28.875-13.792969 5.230469-5.230469 7.792969-7.542969 13.792969-7.542969s8.5625 2.3125 13.792969 7.542969c5.820312 5.824219 13.789062 13.792969 28.875 13.792969 15.082031 0 23.050781-7.96875 28.875-13.792969 5.226562-5.230469 7.789062-7.542969 13.789062-7.542969v-21.332031c0-75.972656-57.074219-140.640625-132.644531-148.40625zm0 0" fill="#993b17"/><path d="m341.332031 170.832031c-6.25 0-9.25-3-13.789062-7.539062-5.8125-5.824219-13.773438-13.792969-28.875-13.792969-15.105469 0-23.0625 7.96875-28.867188 13.78125-4.550781 4.550781-7.550781 7.550781-13.800781 7.550781s-9.25-3-13.792969-7.539062c-5.8125-5.824219-13.769531-13.792969-28.875-13.792969-15.101562 0-23.0625 7.96875-28.863281 13.78125-4.550781 4.550781-7.550781 7.550781-13.800781 7.550781s-9.25-3-13.792969-7.539062c-5.8125-5.824219-13.769531-13.792969-28.875-13.792969s-23.0625 7.96875-28.863281 13.78125c-4.554688 4.550781-7.554688 7.550781-13.804688 7.550781s-9.25-3-13.789062-7.539062c-4.324219-4.324219-10.21875-10.242188-19.53125-12.65625l5.351562-20.648438c13.804688 3.574219 22.5 11.511719 27.96875 16.929688 7.261719-7.199219 20.125-18.75 42.667969-18.75s35.394531 11.550781 42.667969 18.75c7.257812-7.199219 20.125-18.75 42.664062-18.75 22.542969 0 35.398438 11.550781 42.667969 18.75 7.261719-7.199219 20.125-18.75 42.667969-18.75 22.539062 0 35.394531 11.550781 42.664062 18.75 7.261719-7.199219 20.125-18.75 42.667969-18.75 23.949219 0 36.96875 13.039062 43.96875 20.050781l-15.105469 15.0625c-5.800781-5.8125-13.757812-13.78125-28.863281-13.78125s-23.0625 7.96875-28.863281 13.78125c-4.554688 4.550781-7.554688 7.550781-13.804688 7.550781zm0 0" fill="#a34e2d"/><path d="m426.667969 192.167969c-15.0625 0-23.023438-7.949219-28.835938-13.75-5.394531-5.40625-7.8125-7.585938-13.832031-7.585938s-8.4375 2.179688-13.78125 7.53125c-5.863281 5.855469-13.824219 13.804688-28.886719 13.804688s-23.019531-7.949219-28.832031-13.75c-5.394531-5.40625-7.8125-7.585938-13.832031-7.585938-6.023438 0-8.4375 2.179688-13.78125 7.53125-5.867188 5.855469-13.824219 13.804688-28.886719 13.804688s-23.019531-7.949219-28.832031-13.75c-5.398438-5.40625-7.8125-7.585938-13.835938-7.585938-6.019531 0-8.4375 2.179688-13.78125 7.53125-5.863281 5.855469-13.820312 13.804688-28.882812 13.804688s-23.023438-7.949219-28.835938-13.75c-5.394531-5.40625-7.8125-7.585938-13.832031-7.585938s-8.4375 2.179688-13.78125 7.53125c-5.863281 5.855469-13.824219 13.804688-28.886719 13.804688s-23.019531-7.949219-28.832031-13.75c-5.394531-5.40625-7.8125-7.585938-13.832031-7.585938-6.023438 0-8.4375 2.179688-13.78125 7.53125-3.398438 3.398438-7.617188 7.617188-13.617188 10.492188l-9.207031-19.25c2.707031-1.292969 5.03125-3.617188 7.730469-6.3125 5.800781-5.8125 13.757812-13.792969 28.875-13.792969 15.113281 0 23.070312 7.980469 28.882812 13.800781 5.105469 5.09375 7.8125 7.53125 13.78125 7.53125s8.679688-2.4375 13.773438-7.519531c5.820312-5.832031 13.78125-13.8125 28.894531-13.8125s23.074219 7.980469 28.886719 13.800781c5.101562 5.09375 7.8125 7.53125 13.78125 7.53125s8.675781-2.4375 13.769531-7.519531c5.824219-5.832031 13.78125-13.8125 28.894531-13.8125 15.117188 0 23.074219 7.980469 28.886719 13.800781 5.105469 5.09375 7.8125 7.53125 13.78125 7.53125s8.675781-2.4375 13.769531-7.519531c5.824219-5.832031 13.78125-13.8125 28.898438-13.8125 15.113281 0 23.070312 7.980469 28.882812 13.800781 5.105469 5.09375 7.8125 7.53125 13.78125 7.53125s8.679688-2.4375 13.773438-7.519531c5.820312-5.832031 13.78125-13.8125 28.894531-13.8125s23.074219 7.980469 28.886719 13.800781c5.101562 5.09375 7.8125 7.53125 13.78125 7.53125s8.675781-2.4375 13.769531-7.519531c2.351562-2.457031 4.878906-4.742188 7.5625-6.832031v-6.980469c0-69.425781-56.457031-126.84375-125.855469-127.980469l.355469-21.332031c80.957031 1.332031 146.832031 68.3125 146.832031 149.3125v21.332031l-6.09375 1.210938c-2.59375 1.226562-4.84375 3.476562-7.695312 6.332031-5.855469 5.84375-13.8125 13.792969-28.875 13.792969zm0 0" fill="#7d1a00"/><path d="m77.144531 154.988281c-9.902343-.035156-19.671875-2.292969-28.582031-6.613281l9.488281-19.105469c3.429688 1.636719 33.8125 15.292969 49.742188-16.539062 13.613281-27.230469 35.914062-27.230469 52.207031-27.230469 16.699219 0 25.75-.6875 33.125-15.4375 17.574219-35.136719 40.988281-32.855469 58.050781-31.15625 13.648438 1.300781 20.523438 2.011719 27.28125-11.511719l19.085938 9.542969c-13.324219 26.644531-33.648438 24.65625-48.449219 23.199219-15.59375-1.53125-25.886719-2.542969-36.886719 19.46875-13.613281 27.226562-35.914062 27.226562-52.207031 27.226562-16.699219 0-25.75.6875-33.125 15.4375-12.59375 25.179688-32.230469 32.71875-49.730469 32.71875zm0 0" fill="#a34e2d"/><path d="m126.875 122.269531-19.082031-9.539062c13.613281-27.230469 35.914062-27.230469 52.207031-27.230469 16.699219 0 25.75-.6875 33.125-15.4375 17.574219-35.136719 40.988281-32.855469 58.050781-31.15625 13.648438 1.300781 20.523438 2.011719 27.28125-11.511719l19.085938 9.542969c-13.324219 26.644531-33.648438 24.65625-48.449219 23.199219-15.59375-1.53125-25.886719-2.542969-36.886719 19.46875-13.613281 27.226562-35.914062 27.226562-52.207031 27.226562-16.699219 0-25.75.6875-33.125 15.4375zm0 0" fill="#b7745a"/><path d="m469.332031 170.832031c-6.25 0-9.09375 2.835938-13.789062 7.542969-5.824219 5.824219-13.792969 13.792969-28.875 13.792969-15.085938 0-23.054688-7.96875-28.875-13.792969-4.699219-4.707031-7.542969-7.542969-13.792969-7.542969s-9.09375 2.835938-13.792969 7.542969c-5.820312 5.824219-13.789062 13.792969-28.875 13.792969-15.082031 0-23.050781-7.96875-28.875-13.792969-4.695312-4.707031-7.539062-7.542969-13.789062-7.542969s-9.09375 2.835938-13.792969 7.542969c-5.824219 5.824219-13.792969 13.792969-28.875 13.792969s-23.050781-7.96875-28.875-13.792969c-4.699219-4.707031-7.542969-7.542969-13.792969-7.542969s-9.09375 2.835938-13.789062 7.542969c-5.824219 5.824219-13.792969 13.792969-28.875 13.792969-15.085938 0-23.054688-7.96875-28.875-13.792969-4.699219-4.707031-7.542969-7.542969-13.792969-7.542969s-9.09375 2.835938-13.792969 7.542969c-5.820312 5.824219-13.789062 13.792969-28.875 13.792969-15.082031 0-23.050781-7.96875-28.875-13.792969-4.695312-4.707031-7.539062-7.542969-13.789062-7.542969s-9.09375 2.835938-13.792969 7.542969c-5.824219 5.824219-13.792969 13.792969-28.875 13.792969v21.332031c22.519531 0 35.394531-11.550781 42.667969-18.75 7.269531 7.199219 20.144531 18.75 42.664062 18.75 22.523438 0 35.398438-11.550781 42.667969-18.75 7.269531 7.199219 20.144531 18.75 42.667969 18.75 22.519531 0 35.394531-11.550781 42.664062-18.75 7.273438 7.199219 20.148438 18.75 42.667969 18.75s35.394531-11.550781 42.667969-18.75c7.269531 7.199219 20.144531 18.75 42.664062 18.75 22.523438 0 35.398438-11.550781 42.667969-18.75 7.269531 7.199219 20.144531 18.75 42.667969 18.75 22.59375 0 35.40625-11.582031 42.664062-18.769531zm0 0" fill="#fdcf6d"/><g fill="#b7745a"><path d="m469.332031 277.5v-10.667969l-.175781 10.667969zm0 0"/><path d="m469.332031 256.167969c-6.25 0-9.09375 2.832031-13.789062 7.539062-5.824219 5.824219-13.792969 13.792969-28.875 13.792969-15.085938 0-23.054688-7.96875-28.875-13.792969-4.699219-4.707031-7.542969-7.539062-13.792969-7.539062s-9.09375 2.832031-13.792969 7.539062c-5.820312 5.824219-13.789062 13.792969-28.875 13.792969-15.082031 0-23.050781-7.96875-28.875-13.792969-4.695312-4.707031-7.539062-7.539062-13.789062-7.539062s-9.09375 2.832031-13.792969 7.539062c-5.824219 5.824219-13.792969 13.792969-28.875 13.792969s-23.050781-7.96875-28.875-13.792969c-4.699219-4.707031-7.542969-7.539062-13.792969-7.539062s-9.09375 2.832031-13.789062 7.539062c-5.824219 5.824219-13.792969 13.792969-28.875 13.792969-15.085938 0-23.054688-7.96875-28.875-13.792969-4.699219-4.707031-7.542969-7.539062-13.792969-7.539062s-9.09375 2.832031-13.792969 7.539062c-5.820312 5.824219-13.789062 13.792969-28.875 13.792969-15.082031 0-23.050781-7.96875-28.875-13.792969-4.695312-4.707031-7.539062-7.539062-13.789062-7.539062s-9.09375 2.832031-13.792969 7.539062c-5.824219 5.824219-13.792969 13.792969-28.875 13.792969v21.332031c22.519531 0 35.394531-11.550781 42.667969-18.75 7.269531 7.199219 20.144531 18.75 42.664062 18.75 22.523438 0 35.398438-11.550781 42.667969-18.75 7.269531 7.199219 20.144531 18.75 42.667969 18.75 22.519531 0 35.394531-11.550781 42.664062-18.75 7.273438 7.199219 20.148438 18.75 42.667969 18.75s35.394531-11.550781 42.667969-18.75c7.269531 7.199219 20.144531 18.75 42.664062 18.75 22.523438 0 35.398438-11.550781 42.667969-18.75 7.269531 7.199219 20.144531 18.75 42.667969 18.75 22.59375 0 35.40625-11.578125 42.664062-18.769531zm0 0"/></g></svg>