<svg height="469pt" viewBox="-21 0 469 469.33335" width="469pt" xmlns="http://www.w3.org/2000/svg"><path d="m426.832031 362.667969c0-21.335938-21.332031-21.335938-21.332031-21.335938v-21.332031s21.332031 0 21.332031-21.332031c0-21.335938-21.332031-21.335938-21.332031-21.335938v-21.332031h-384v21.332031s-21.332031 0-21.332031 21.335938c0 21.332031 21.332031 21.332031 21.332031 21.332031v21.332031s-21.332031 0-21.332031 21.335938c0 21.332031 21.332031 21.332031 21.332031 21.332031v21.332031s-21.332031 0-21.332031 21.335938c0 21.332031 21.332031 21.332031 21.332031 21.332031v21.332031h384v-21.332031s21.332031 0 21.332031-21.332031c0-21.335938-21.332031-21.335938-21.332031-21.335938v-21.332031s21.332031 0 21.332031-21.332031zm0 0" fill="#c11107"/><g fill="#c82e25"><path d="m426.832031 298.667969h-277.332031s0-21.335938 21.332031-21.335938h234.667969c21.332031 0 21.332031 21.335938 21.332031 21.335938zm0 0"/><path d="m426.832031 362.667969h-277.332031s0-21.335938 21.332031-21.335938h234.667969c21.332031 0 21.332031 21.335938 21.332031 21.335938zm0 0"/><path d="m426.832031 426.667969h-277.332031s0-21.335938 21.332031-21.335938h234.667969c21.332031 0 21.332031 21.335938 21.332031 21.335938zm0 0"/></g><path d="m256.167969 320h149.332031v21.332031h-149.332031zm0 0" fill="#af0a00"/><path d="m256.167969 384h149.332031v21.332031h-149.332031zm0 0" fill="#af0a00"/><path d="m106.832031 320h213.335938v85.332031h-213.335938zm0 0" fill="#f59707"/><path d="m405.5 138.667969c0-76.585938-85.960938-138.667969-192-138.667969s-192 62.082031-192 138.667969c0 76.582031 85.960938 138.664062 192 138.664062s192-62.082031 192-138.664062zm0 0" fill="#afa8a8"/><path d="m213.5 234.667969c-89.332031 0-149.332031-49.636719-149.332031-96 0-46.367188 60-96 149.332031-96v21.332031c-79.3125 0-128 43.488281-128 74.667969 0 31.175781 48.6875 74.664062 128 74.664062zm0 0" fill="#988f8f"/><path d="m213.5 277.332031v-21.332031c94.105469 0 170.667969-52.636719 170.667969-117.332031 0-64.699219-76.5625-117.335938-170.667969-117.335938v-21.332031c105.875 0 192 62.207031 192 138.667969 0 76.457031-86.125 138.664062-192 138.664062zm0 0" fill="#988f8f"/><path d="m213.5 256c-100.582031 0-170.667969-61.832031-170.667969-117.332031s70.085938-117.335938 170.667969-117.335938 170.667969 61.835938 170.667969 117.335938-70.085938 117.332031-170.667969 117.332031zm0-213.332031c-85.480469 0-149.332031 50.6875-149.332031 96s63.851562 96 149.332031 96 149.332031-50.6875 149.332031-96-63.851562-96-149.332031-96zm0 0" fill="#c5c0c0"/><path d="m82.832031 94.675781-16.207031-13.851562c18.8125-22.023438 47.125-39.667969 79.75-49.6875l6.25 20.394531c-28.769531 8.84375-53.5625 24.167969-69.792969 43.144531zm0 0" fill="#edebeb"/><path d="m213.5 192c-51.042969 0-85.332031-27.574219-85.332031-53.332031 0-25.761719 34.289062-53.335938 85.332031-53.335938s85.332031 27.574219 85.332031 53.335938c0 25.757812-34.289062 53.332031-85.332031 53.332031zm0-85.332031c-39.0625 0-64 18.945312-64 32 0 13.050781 24.9375 32 64 32s64-18.949219 64-32c0-13.054688-24.9375-32-64-32zm0 0" fill="#c5c0c0"/><path d="m149.5 138.667969h-21.332031c0-25.761719 34.289062-53.335938 85.332031-53.335938v21.335938c-39.0625 0-64 18.945312-64 32zm0 0" fill="#edebeb"/><path d="m.167969 448h426.664062v21.332031h-426.664062zm0 0" fill="#988f8f"/><path d="m.167969 256h426.664062v21.332031h-426.664062zm0 0" fill="#988f8f"/><path d="m277.5 426.667969c0-21.335938-21.332031-21.335938-21.332031-21.335938v-21.332031s21.332031 0 21.332031-21.332031c0-21.335938-21.332031-21.335938-21.332031-21.335938v-21.332031s21.332031 0 21.332031-21.332031c0-21.335938-21.332031-21.335938-21.332031-21.335938v-21.332031h-234.667969v21.332031s-21.332031 0-21.332031 21.335938c0 21.332031 21.332031 21.332031 21.332031 21.332031v21.332031s-21.332031 0-21.332031 21.335938c0 21.332031 21.332031 21.332031 21.332031 21.332031v21.332031s-21.332031 0-21.332031 21.335938c0 21.332031 21.332031 21.332031 21.332031 21.332031v21.332031h234.667969v-21.332031s21.332031 0 21.332031-21.332031zm0 0" fill="#cd3e36"/><path d="m277.5 362.667969h-277.332031s0-21.335938 21.332031-21.335938h234.667969c21.332031 0 21.332031 21.335938 21.332031 21.335938zm0 0" fill="#d96c66"/><path d="m277.5 426.667969h-277.332031s0-21.335938 21.332031-21.335938h234.667969c21.332031 0 21.332031 21.335938 21.332031 21.335938zm0 0" fill="#d96c66"/><path d="m277.5 298.667969h-277.332031s0-21.335938 21.332031-21.335938h234.667969c21.332031 0 21.332031 21.335938 21.332031 21.335938zm0 0" fill="#d96c66"/><path d="m.167969 448h277.332031v21.332031h-277.332031zm0 0" fill="#d5d1d1"/><path d="m.167969 256h277.332031v21.332031h-277.332031zm0 0" fill="#d5d1d1"/><path d="m277.5 362.667969c0 35.34375-28.652344 64-64 64s-64-28.65625-64-64c0-35.347657 28.652344-64 64-64s64 28.652343 64 64zm0 0" fill="#f59707"/><path d="m256.167969 341.332031v-21.332031c1.433593-.078125 2.859375-.261719 4.269531-.550781-17.828125-19.472657-45.78125-26-70.390625-16.4375-24.605469 9.5625-40.816406 33.253906-40.816406 59.65625 0 26.398437 16.210937 50.089843 40.816406 59.652343 24.609375 9.5625 52.5625 3.035157 70.390625-16.4375-1.410156-.285156-2.835938-.46875-4.269531-.550781v-21.332031s21.332031 0 21.332031-21.332031c0-21.335938-21.332031-21.335938-21.332031-21.335938zm0 0" fill="#fdbc34"/><path d="m106.832031 320v85.332031h149.335938v-21.332031s21.332031 0 21.332031-21.332031c0-21.335938-21.332031-21.335938-21.332031-21.335938v-21.332031zm0 0" fill="#fdbc34"/><path d="m21.5 320h85.332031v21.332031h-85.332031zm0 0" fill="#c11107"/><path d="m21.5 384h85.332031v21.332031h-85.332031zm0 0" fill="#c11107"/><path d="m106.832031 320h149.335938v21.332031h-149.335938zm0 0" fill="#fdab00"/><path d="m256.167969 320h64v21.332031h-64zm0 0" fill="#ef7f00"/><path d="m256.167969 384h64v21.332031h-64zm0 0" fill="#ef7f00"/><path d="m106.832031 384h149.335938v21.332031h-149.335938zm0 0" fill="#fdab00"/><path d="m277.5 362.667969h-170.667969v-21.335938h149.335938c21.332031 0 21.332031 21.335938 21.332031 21.335938zm0 0" fill="#fdcf6d"/><path d="m106.832031 384h149.335938v21.332031h-149.335938zm0 0" fill="#fdcf6d"/><path d="m42.832031 277.332031h42.667969v21.335938h-42.667969zm0 0" fill="#e59b96"/><path d="m42.832031 341.332031h42.667969v21.335938h-42.667969zm0 0" fill="#e59b96"/><path d="m42.832031 405.332031h42.667969v21.335938h-42.667969zm0 0" fill="#e59b96"/><path d="m320.167969 277.332031h42.664062v21.335938h-42.664062zm0 0" fill="#cd3e36"/><path d="m320.167969 341.332031h42.664062v21.335938h-42.664062zm0 0" fill="#cd3e36"/><path d="m320.167969 405.332031h42.664062v21.335938h-42.664062zm0 0" fill="#cd3e36"/><path d="m213.5 170.667969c-35.292969 0-64-14.355469-64-32 0-17.648438 28.707031-32 64-32v21.332031c-22.457031 0-36.875 6.574219-41.542969 10.667969 4.667969 4.09375 19.085938 10.664062 41.542969 10.664062zm0 0" fill="#988f8f"/></svg>