<svg height="469pt" viewBox="-85 0 469 469.33334" width="469pt" xmlns="http://www.w3.org/2000/svg"><path d="m256.167969 0h-213.335938v21.332031l-30.167969 30.171875c-8.003906 8-12.496093 18.851563-12.496093 30.167969v305.988281c0 11.316406 4.492187 22.167969 12.496093 30.171875l30.167969 30.167969v21.332031h213.335938v-21.332031l30.167969-30.167969c8.003906-8.003906 12.496093-18.855469 12.496093-30.171875v-305.988281c0-11.316406-4.492187-22.167969-12.496093-30.167969l-30.167969-30.171875zm0 0" fill="#c11107"/><path d="m21.5 0h256v21.332031h-256zm0 0" fill="#afa8a8"/><path d="m21.5 448h256v21.332031h-256zm0 0" fill="#afa8a8"/><path d="m170.832031 387.660156v-305.988281c0-11.316406-4.492187-22.167969-12.496093-30.167969l-30.167969-30.171875v-21.332031h-85.335938v21.332031l-30.167969 30.171875c-8.003906 8-12.496093 18.851563-12.496093 30.167969v305.988281c0 11.316406 4.492187 22.167969 12.496093 30.171875l30.167969 30.167969v21.332031h85.335938v-21.332031l30.167969-30.167969c8.003906-8.003906 12.496093-18.855469 12.496093-30.171875zm0 0" fill="#cd3e36"/><g fill="#d5d1d1"><path d="m21.5 0h128v21.332031h-128zm0 0"/><path d="m21.5 448h128v21.332031h-128zm0 0"/><path d="m85.941406 448c0-149.332031 127.558594-128 127.558594-213.332031 0-149.335938 85.332031-85.335938 85.332031-170.667969v106.667969s-85.332031 0-85.332031 85.332031c0 64-44.914062 42.667969-44.914062 192zm0 0"/></g><path d="m170.140625 405.421875s.425781-5.910156.691406-8.664063v-94.796874c-37.085937 27.140624-84.890625 54.574218-84.890625 146.039062h42.226563zm0 0" fill="#edebeb"/><path d="m192.386719 448c-.21875-42.667969 42.445312-67.660156 42.445312-128 0-85.332031 64-65.886719 64-107.609375v86.277344s-64 0-64 42.664062v106.667969zm0 0" fill="#d5d1d1"/><path d="m21.5 85.332031h21.332031v298.667969h-21.332031zm0 0" fill="#d96c66"/><path d="m21.5 149.332031h21.332031v170.667969h-21.332031zm0 0" fill="#e59b96"/><path d="m42.832031 21.332031h85.335938v21.335938h-85.335938zm0 0" fill="#c82e25"/><path d="m149.5 21.332031h106.667969v21.335938h-106.667969zm0 0" fill="#af0a00"/></svg>