<svg height="469pt" viewBox="0 0 469.33375 469" width="469pt" xmlns="http://www.w3.org/2000/svg"><path d="m0 405.015625v.003906c0 35.609375 28.871094 64.480469 64.484375 64.480469 13.554687 0 26.761719-4.269531 37.753906-12.207031l314.433594-227.09375c33.070313-23.882813 52.660156-62.195313 52.660156-102.992188 0-70.160156-56.878906-127.039062-127.039062-127.039062-40.796875 0-79.109375 19.589843-102.992188 52.660156l-227.09375 314.433594c-7.933593 10.992187-12.207031 24.199219-12.207031 37.753906zm0 0" fill="#ef7f00"/><path d="m89.847656 307.09375 149.285156-192.039062 33.6875 26.1875-149.285156 192.039062zm0 0" fill="#f59707"/><path d="m129.617188 255.9375 74.765624-96.175781 33.6875 26.1875-74.765624 96.175781zm0 0" fill="#fdbc34"/><path d="m64.480469 469.5c-35.59375-.042969-64.4375002-28.886719-64.480469-64.480469h42.667969c.003906 8.191407 4.59375 15.691407 11.886719 19.421875 7.292968 3.730469 16.0625 3.058594 22.707031-1.734375l314.4375-227.09375c21.929687-15.890625 34.929687-41.320312 34.96875-68.40625.046875-18.316406-5.925781-36.140625-17-50.726562l34.039062-25.710938c16.691407 21.980469 25.695313 48.839844 25.625 76.4375-.058593 40.78125-19.632812 79.066407-52.65625 102.992188l-314.4375 227.09375c-10.976562 7.964843-24.195312 12.238281-37.757812 12.207031zm0 0" fill="#e76400"/><path d="m421.625 149.5c-22.25 0-47.886719-12.355469-68.574219-33.050781-14.957031-14.9375-25.757812-32.699219-30.4375-49.992188l20.585938-5.5625c3.71875 13.742188 12.570312 28.117188 24.9375 40.46875 24.789062 24.792969 58.414062 34.054688 72.78125 19.71875l15.082031 15.085938c-8.71875 8.71875-20.605469 13.332031-34.375 13.332031zm0 0" fill="#e76400"/><path d="m421.203125 48.296875c-25.542969-25.542969-58.132813-34.371094-72.789063-19.714844s-5.828124 47.242188 19.714844 72.789063c25.546875 25.542968 58.132813 34.371094 72.789063 19.714844s5.828125-47.246094-19.714844-72.789063zm0 0" fill="#fdbc34"/><path d="m387.15625 61.011719c-15.933594-15.9375-35.042969-22.664063-42.675781-15.03125-7.632813 7.632812-.90625 26.742187 15.03125 42.675781 15.933593 15.933594 35.039062 22.664062 42.675781 15.03125 7.632812-7.636719.902344-26.742188-15.03125-42.675781zm0 0" fill="#f59707"/><path d="m117.332031 405.5c-42.1875 0-53.332031-34.886719-53.332031-53.332031h10.667969l10.664062-.0625c.0625 5.351562 1.886719 32.0625 32 32.0625zm0 0" fill="#e76400"/><path d="m224 341.5c-56.707031 0-87.230469-46.636719-95.449219-71.292969l20.230469-6.769531c.78125 2.3125 19.894531 56.730469 75.21875 56.730469zm0 0" fill="#e76400"/><path d="m309.332031 277.5c-92.59375 0-116.78125-92.480469-117.007812-93.417969l20.6875-5.195312c.800781 3.15625 20.570312 77.28125 96.320312 77.28125zm0 0" fill="#e76400"/><g fill="#f59707"><path d="m309.332031 298.832031c-114.09375 0-138.226562-114.09375-138.457031-115.238281l20.917969-4.207031c.8125 4.007812 21.125 98.113281 117.539062 98.113281zm0 0"/><path d="m371.238281 234.625c-112-22.394531-135.3125-110.78125-136.25-114.542969l20.6875-5.207031c.824219 3.230469 21.40625 79.167969 119.75 98.832031zm0 0"/><path d="m224 362.832031c-92.59375 0-116.78125-92.476562-117.011719-93.414062l20.6875-5.199219c.804688 3.15625 20.574219 77.28125 96.324219 77.28125zm0 0"/><path d="m117.332031 426.832031c-48.695312 0-72.550781-46.582031-73.539062-48.5625l19.0625-9.570312c.1875.375 19.101562 36.800781 54.476562 36.800781zm0 0"/></g><path d="m394.667969 213.5c-137.085938 0-138.667969-116.15625-138.667969-117.332031l21.332031-.03125c.023438 3.914062 1.929688 96.03125 117.335938 96.03125zm0 0" fill="#e76400"/></svg>