<svg height="469pt" viewBox="0 -21 469.33334 469" width="469pt" xmlns="http://www.w3.org/2000/svg"><path d="m0 298.832031 64 128 405.332031-149.332031-42.664062-128s-64-149.332031-256-149.332031zm0 0" fill="#fdab00"/><path d="m72.957031 423.519531-7.375-20 376.980469-138.894531-35.8125-107.542969 20.25-6.75 42.3125 127.167969zm0 0" fill="#f59707"/><path d="m277.332031 213.5c0 35.347656-28.652343 64-64 64-35.34375 0-64-28.652344-64-64s28.65625-64 64-64c35.347657 0 64 28.652344 64 64zm0 0" fill="#f59707"/><path d="m213.332031 277.480469c-16.980469.054687-33.277343-6.691407-45.25-18.730469l15.085938-15.082031c16.082031 16.082031 44.25 16.082031 60.332031 0 6.023438-5.988281 10.097656-13.65625 11.6875-22l20.957031 4.039062c-5.816406 30.085938-32.167969 51.808594-62.8125 51.773438zm0 0" fill="#fdbc34"/><path d="m170.667969.167969-170.667969 298.664062 426.667969-149.332031s-64-149.332031-256-149.332031zm0 0" fill="#fdbc34"/><path d="m66.761719 230.253906 308.972656-108.109375 7.042969 20.125-308.972656 108.109375zm0 0" fill="#fdcf6d"/><path d="m213.332031 149.5c-35.34375 0-64 28.652344-64 64 .070313 10.601562 2.804688 21.015625 7.949219 30.285156l118.910156-41.617187c-5.445312-30.457031-31.921875-52.640625-62.859375-52.667969zm0 0" fill="#fdab00"/><path d="m170.667969 213.5h-21.335938c-.03125-31.078125 22.289063-57.675781 52.898438-63.039062 30.609375-5.367188 60.644531 12.054687 71.1875 41.289062l-20.085938 7.207031c-7.035156-19.472656-27.054687-31.066406-47.445312-27.480469-20.390625 3.589844-35.253907 21.316407-35.21875 42.023438zm0 0" fill="#f59707"/><path d="m106.667969 149.5c35.34375 0 64-14.328125 64-32 0-15.132812-21.066407-27.734375-49.292969-31.070312l-35.011719 61.269531c6.703125 1.167969 13.496094 1.769531 20.304688 1.800781zm0 0" fill="#fdab00"/><path d="m149.269531 117.519531c-.875 0-7.789062-5.9375-24.1875-8.976562l3.875-20.960938c24.960938 4.625 41.710938 16.648438 41.710938 29.917969h-21.335938c-.015625.015625-.039062.023438-.0625.019531zm0 0" fill="#f59707"/><path d="m277.332031 42.832031c-11.433593 0-21.769531 3.421875-29.429687 8.914063-7.746094-5.378906-20.300782-8.914063-34.570313-8.914063-23.5625 0-42.664062 9.550781-42.664062 21.335938 0 11.78125 19.101562 21.332031 42.664062 21.332031 7.652344.042969 15.265625-1.070312 22.582031-3.296875 4.453126 14.105469 21.253907 24.628906 41.417969 24.628906 23.566407 0 42.667969-14.324219 42.667969-32 0-17.671875-19.101562-32-42.667969-32zm0 0" fill="#fdab00"/><path d="m248.105469 77.875-12.398438-8.625c-2.707031-1.875-10.5-5.082031-22.375-5.082031v-21.335938c13.585938 0 26.5 3.335938 34.542969 8.898438l.019531.019531c8.0625-5.75 18.5-8.917969 29.4375-8.917969 23.523438 0 42.667969 14.355469 42.667969 32h-21.332031c0-4.289062-8.960938-10.664062-21.335938-10.664062-6.539062 0-12.582031 1.75-17.019531 4.914062zm0 0" fill="#f59707"/><path d="m106.667969 330.832031c0 17.675781-14.328125 32-32 32-17.675781 0-32-14.324219-32-32 0-17.671875 14.324219-32 32-32 17.671875 0 32 14.328125 32 32zm0 0" fill="#f59707"/><path d="m74.667969 362.832031c-17.667969-.019531-31.980469-14.332031-32-32h21.332031c0 5.890625 4.777344 10.667969 10.667969 10.667969s10.664062-4.777344 10.664062-10.667969h21.335938c-.019531 17.667969-14.335938 31.980469-32 32zm0 0" fill="#fdbc34"/><path d="m298.667969 298.832031c0 11.785157-9.550781 21.335938-21.335938 21.335938-11.78125 0-21.332031-9.550781-21.332031-21.335938 0-11.78125 9.550781-21.332031 21.332031-21.332031 11.785157 0 21.335938 9.550781 21.335938 21.332031zm0 0" fill="#f59707"/><path d="m277.332031 320.167969c-11.777343-.007813-21.324219-9.554688-21.332031-21.335938h42.667969c-.007813 11.78125-9.554688 21.328125-21.335938 21.335938zm0 0" fill="#fdbc34"/><path d="m384 192.167969c-16.699219.019531-31.847656 9.796875-38.742188 25.003906-4.496093-2.378906-9.503906-3.636719-14.589843-3.671875-14.867188-.085938-27.832031 10.070312-31.304688 24.523438-3.472656 14.453124 3.464844 29.394531 16.746094 36.070312s29.410156 3.324219 38.9375-8.089844c13.992187 13 34.925781 15.101563 51.226563 5.144532 16.296874-9.960938 23.976562-29.546876 18.792968-47.933594-5.183594-18.382813-21.964844-31.070313-41.066406-31.046875zm0 0" fill="#f59707"/><path d="m330.667969 277.5c-17.667969-.019531-31.980469-14.335938-32-32h21.332031c-.019531 9 12.542969 14.082031 18.6875 6.769531l16.375 13.710938c-5.988281 7.308593-14.945312 11.539062-24.394531 11.519531zm0 0" fill="#fdbc34"/><path d="m384 277.5c-10.761719-.027344-21.109375-4.136719-28.957031-11.5l14.5-15.625c6.175781 5.832031 15.230469 7.417969 23.019531 4.035156 7.792969-3.382812 12.816406-11.082031 12.769531-19.578125h21.335938c-.03125 23.554688-19.117188 42.636719-42.667969 42.667969zm0 0" fill="#fdbc34"/><path d="m407.082031 157.957031c-2.351562-5.4375-59.976562-133.476562-230.4375-136.394531l.375-21.332031c184.023438 3.144531 247.042969 143.269531 249.648438 149.226562zm0 0" fill="#fdab00"/></svg>