<svg height="469pt" viewBox="0 0 469.33348 469" width="469pt" xmlns="http://www.w3.org/2000/svg"><path d="m298.667969 42.832031s-21.335938-42.664062-85.335938-42.664062-85.332031 42.664062-85.332031 42.664062 21.332031 42.667969 85.332031 42.667969 85.335938-42.667969 85.335938-42.667969zm0 0" fill="#ef7f00"/><path d="m298.667969 21.5c58.910156 0 106.664062 47.757812 106.664062 106.667969-58.910156 0-106.664062-47.757813-106.664062-106.667969zm0 0" fill="#f59707"/><path d="m469.332031 341.5c0 70.691406-57.304687 128-128 128-70.691406 0-128-57.308594-128-128s57.308594-128 128-128c70.695313 0 128 57.308594 128 128zm0 0" fill="#af0a00"/><path d="m213.332031 341.5c.007813 23.488281 6.515625 46.515625 18.804688 66.53125 50.378906 30.839844 115.328125 23.136719 157.097656-18.628906 41.769531-41.769532 49.46875-106.722656 18.628906-157.101563-39.472656-24.164062-88.925781-25.097656-129.285156-2.441406-40.359375 22.652344-65.316406 65.359375-65.246094 111.640625zm0 0" fill="#c11107"/><path d="m277.332031 341.5h-42.664062c.066406-58.882812 47.785156-106.597656 106.664062-106.667969v42.667969c-35.328125.039062-63.960937 28.667969-64 64zm0 0" fill="#cd3e36"/><path d="m362.667969 256.167969c0 11.78125-9.550781 21.332031-21.335938 21.332031-11.78125 0-21.332031-9.550781-21.332031-21.332031 0-11.785157 9.550781-21.335938 21.332031-21.335938 11.785157 0 21.335938 9.550781 21.335938 21.335938zm0 0" fill="#af0a00"/><path d="m341.332031 256.167969h-21.332031c0-48.65625-21.1875-67.960938-43.613281-88.398438-19.21875-17.519531-39.105469-35.625-41.6875-70.820312-.960938-13.03125 5.039062-39.3125 21.382812-56.90625 10.90625-11.96875 26.398438-18.714844 42.585938-18.542969v21.332031c-10.269531-.230469-20.121094 4.054688-26.949219 11.730469-12.125 13.050781-16.300781 33.34375-15.75 40.824219 1.96875 26.707031 17.175781 40.570312 34.78125 56.613281 23.707031 21.605469 50.582031 46.09375 50.582031 104.167969zm0 0" fill="#e76400"/><path d="m256 341.5c0 70.691406-57.308594 128-128 128s-128-57.308594-128-128 57.308594-128 128-128 128 57.308594 128 128zm0 0" fill="#c82e25"/><path d="m0 341.5c.00390625 23.488281 6.511719 46.515625 18.800781 66.53125 50.378907 30.839844 115.332031 23.136719 157.101563-18.628906 41.765625-41.769532 49.46875-106.722656 18.628906-157.101563-39.472656-24.164062-88.925781-25.097656-129.285156-2.441406-40.359375 22.652344-65.3164065 65.359375-65.246094 111.640625zm0 0" fill="#cd3e36"/><path d="m170.667969 256.167969c0 11.78125-9.550781 21.332031-21.335938 21.332031-11.78125 0-21.332031-9.550781-21.332031-21.332031 0-11.785157 9.550781-21.335938 21.332031-21.335938 11.785157 0 21.335938 9.550781 21.335938 21.335938zm0 0" fill="#c82e25"/><path d="m149.332031 256.167969h-21.332031c0-41.730469 18.644531-60.355469 35.105469-76.78125 15.5-15.492188 28.894531-28.855469 28.894531-61.886719 0-96 64.1875-96 106.667969-96v21.332031c-43.886719 0-85.335938 0-85.335938 74.667969 0 41.875-18.675781 60.519531-35.15625 76.980469-15.476562 15.457031-28.84375 28.800781-28.84375 61.6875zm0 0" fill="#f59707"/><path d="m320 21.5c0 11.78125-9.550781 21.332031-21.332031 21.332031-11.785157 0-21.335938-9.550781-21.335938-21.332031s9.550781-21.332031 21.335938-21.332031c11.78125 0 21.332031 9.550781 21.332031 21.332031zm0 0" fill="#993b17"/><path d="m64 341.5h-42.667969c.070313-58.882812 47.785157-106.597656 106.667969-106.667969v42.667969c-35.332031.039062-63.960938 28.667969-64 64zm0 0" fill="#d96c66"/></svg>