<svg height="469.33367pt" viewBox="0 0 469.33367 469.33367" width="469.33367pt" xmlns="http://www.w3.org/2000/svg"><path d="m21.332031 341.332031 341.335938-341.332031 106.664062 106.667969-341.332031 341.332031zm0 0" fill="#8b2800"/><path d="m362.667969 0v30.167969l76.5 76.5-311.167969 311.167969-84.042969-84.042969-15.082031 15.082031 99.125 99.125 341.332031-341.332031zm0 0" fill="#7d1a00"/><path d="m170.667969 213.332031 85.332031-85.332031 85.332031 85.332031-85.332031 85.335938zm0 0" fill="#a34e2d"/><path d="m256 298.667969v-21.332031l64-64-64-64v-21.335938l86.433594 84.230469zm0 0" fill="#993b17"/><path d="m192 213.335938 64 64v-21.335938l-42.667969-42.664062zm0 0" fill="#c99884"/><path d="m192 213.335938 64-64v21.332031l-42.667969 42.667969zm0 0" fill="#ad6143"/><path d="m0 341.332031 128 128 149.332031-149.332031c0-70.691406-57.304687-128-128-128zm0 0" fill="#c82e25"/><path d="m0 341.332031 128 128 149.332031-149.332031c0-70.691406-57.304687-128-128-128zm0 0" fill="#c82e25"/><path d="m276.9375 309.8125c-2.4375-30.324219-15.597656-58.792969-37.125-80.292969l-30.167969 30.1875c12.070313 12.039063 20.25 27.421875 23.480469 44.15625l-105.125 105.132813v60.335937l149.707031-149.707031zm0 0" fill="#c11107"/><path d="m277.332031 106.667969 85.335938-85.335938 85.332031 85.335938-85.332031 85.332031zm0 0" fill="#a34e2d"/><path d="m362.667969 192v-21.332031l64-64-64-64v-21.332031l86.433593 84.230468zm0 0" fill="#993b17"/><path d="m298.667969 106.667969 64 64v-21.332031l-42.667969-42.667969zm0 0" fill="#b7745a"/><path d="m298.667969 106.667969 64-64v21.332031l-42.667969 42.667969zm0 0" fill="#ad6143"/><path d="m48.917969 347.582031 106.664062-106.664062 30.167969 30.164062-106.667969 106.667969zm0 0" fill="#d2514a"/><path d="m80.917969 315.582031 53.332031-53.332031 30.167969 30.167969-53.335938 53.332031zm0 0" fill="#e59b96"/></svg>