<svg height="469pt" viewBox="-32 0 469 469.33334" width="469pt" xmlns="http://www.w3.org/2000/svg"><path d="m405.582031 0c0 42.667969-42.664062 42.667969-42.664062 42.667969-21.335938 0-21.335938 21.332031-21.335938 21.332031 0 21.332031-21.332031 21.332031-21.332031 21.332031-21.332031 0-21.332031 21.335938-21.332031 21.335938 0 21.332031-21.335938 21.332031-21.335938 21.332031v21.332031h-235.390625c.726563-42.664062 22.058594-64 64.726563-64 21.332031 0 21.332031-21.332031 21.332031-21.332031 0-21.332031 21.332031-21.332031 21.332031-21.332031 21.335938 0 21.335938-21.335938 21.335938-21.335938 0-21.332031 21.332031-21.332031 21.332031-21.332031h42.667969v21.332031c0 11.785157 9.550781 21.335938 21.332031 21.335938s21.332031-9.550781 21.332031-21.335938c0-11.78125 9.550781-21.332031 21.335938-21.332031zm0 0" fill="#f3eee3"/><path d="m21.582031 128h277.335938c11.78125 0 21.332031 9.550781 21.332031 21.332031v298.667969c0 11.78125-9.550781 21.332031-21.332031 21.332031h-277.335938c-11.78125 0-21.332031-9.550781-21.332031-21.332031v-298.667969c0-11.78125 9.550781-21.332031 21.332031-21.332031zm0 0" fill="#eae2ce"/><path d="m213.582031 128h85.335938c11.78125 0 21.332031 9.550781 21.332031 21.332031v298.667969c0 11.78125-9.550781 21.332031-21.332031 21.332031h-85.335938c-11.78125 0-21.332031-9.550781-21.332031-21.332031v-298.667969c0-11.78125 9.550781-21.332031 21.332031-21.332031zm0 0" fill="#d4c3a2"/><path d="m234.917969 469.332031h64c11.78125 0 21.332031-9.550781 21.332031-21.332031v-256h-85.332031zm0 0" fill="#c5af83"/><path d="m266.917969 192c17.671875 0 32 14.328125 32 32v21.332031c0 17.675781-14.328125 32-32 32-17.675781 0-32-14.324219-32-32v-21.332031c0-17.671875 14.324219-32 32-32zm0 0" fill="#b99e69"/><path d="m266.917969 341.332031c17.671875 0 32 14.328125 32 32v21.335938c0 17.671875-14.328125 32-32 32-17.675781 0-32-14.328125-32-32v-21.335938c0-17.671875 14.324219-32 32-32zm0 0" fill="#b99e69"/><path d="m266.917969 170.667969c17.671875 0 32 14.324219 32 32v21.332031c0 17.671875-14.328125 32-32 32-17.675781 0-32-14.328125-32-32v-21.332031c0-17.675781 14.324219-32 32-32zm0 0" fill="#e0d4b7"/><path d="m266.917969 320c17.671875 0 32 14.328125 32 32v21.332031c0 17.675781-14.328125 32-32 32-17.675781 0-32-14.324219-32-32v-21.332031c0-17.671875 14.324219-32 32-32zm0 0" fill="#e0d4b7"/><path d="m288.25 170.667969c64.800781 0 117.332031 52.53125 117.332031 117.332031s-52.53125 117.332031-117.332031 117.332031c-17.671875 0-32-14.324219-32-32 0-17.671875 14.328125-32 32-32 29.457031 0 53.332031-23.875 53.332031-53.332031s-23.875-53.332031-53.332031-53.332031c-17.671875 0-32-14.328125-32-32 0-17.675781 14.328125-32 32-32zm0 0" fill="#eae2ce"/><path d="m288.25 405.332031c-17.664062-.019531-31.980469-14.332031-32-32h21.332031c.003907 5.890625 4.777344 10.664063 10.667969 10.667969 52.996094-.058594 95.941406-43.003906 96-96h21.332031c-.070312 64.769531-52.5625 117.261719-117.332031 117.332031zm0 0" fill="#d4c3a2"/><path d="m362.917969 288h-21.335938c-.035156-29.441406-23.890625-53.296875-53.332031-53.332031v-21.335938c41.214844.050781 74.617188 33.453125 74.667969 74.667969zm0 0" fill="#d4c3a2"/><path d="m21.582031 149.332031h149.335938v21.335938h-149.335938zm0 0" fill="#f3eee3"/><path d="m213.582031 149.332031h85.335938v21.335938h-85.335938zm0 0" fill="#eae2ce"/><path d="m.25 213.507812v170.074219c39.503906 26.398438 84.980469 29.523438 110.378906 4.128907 30.605469-30.609376 20.328125-90.511719-22.957031-133.800782-26.445313-26.441406-59.042969-40.390625-87.421875-40.402344zm0 0" fill="#993b17"/><path d="m84.8125 332.78125c-2.8125-16.40625-12.769531-34.15625-27.3125-48.699219-17.0625-17.0625-39.5625-28.082031-57.332031-28.082031v-21.332031c23.488281 0 51.238281 13.15625 72.414062 34.332031 17.59375 17.59375 29.710938 39.519531 33.25 60.175781zm0 0" fill="#ad6143"/><path d="m57.5 284.082031c-17.0625-17.0625-39.5625-28.082031-57.332031-28.082031v-21.332031c23.488281 0 51.238281 13.15625 72.414062 34.332031zm0 0" fill="#b7745a"/><g fill="#7d1a00"><path d="m105.832031 329.175781c3.136719 18.25-.519531 33.679688-10.289062 43.449219-7.449219 7.4375-18.242188 11.375-31.210938 11.375-20.933593 0-44.136719-10.316406-64.082031-27.269531v27.109375c20.488281 13.65625 43.117188 21.492187 64.082031 21.492187 18.75 0 34.761719-6.09375 46.292969-17.625 14.8125-14.789062 20.574219-36.863281 16.230469-62.132812zm0 0"/><path d="m75.042969 341.332031c-4.929688-.125-10.792969-2.070312-10.792969-10.664062 0-12.867188-8.519531-32-31.875-32-4.925781-.125-10.792969-2.074219-10.792969-10.667969 0-10.667969-6.007812-25.496094-21.332031-30.296875v30.296875c0 23.480469 19.136719 32 32 32 8.59375 0 10.542969 5.863281 10.667969 10.667969 0 23.476562 19.132812 32 32 32 8.59375 0 10.539062 5.863281 10.664062 10.664062v10.667969h21.335938v-10.667969c0-12.863281-8.523438-32-31.875-32zm0 0"/></g></svg>