<svg height="469pt" viewBox="0 -42 469.33336 469" width="469pt" xmlns="http://www.w3.org/2000/svg"><path d="m426.667969.167969c0 42.664062-42.667969 42.664062-42.667969 42.664062-21.332031 0-21.332031 21.335938-21.332031 21.335938 0 21.332031-21.335938 21.332031-21.335938 21.332031-21.332031 0-21.332031 21.332031-21.332031 21.332031 0 21.335938-21.332031 21.335938-21.332031 21.335938v21.332031h-235.390625c.722656-42.667969 22.054687-64 64.722656-64 21.332031 0 21.332031-21.332031 21.332031-21.332031 0-21.335938 21.335938-21.335938 21.335938-21.335938 21.332031 0 21.332031-21.332031 21.332031-21.332031 0-21.332031 21.332031-21.332031 21.332031-21.332031h42.667969v21.332031c0 11.78125 9.550781 21.332031 21.332031 21.332031 11.785157 0 21.335938-9.550781 21.335938-21.332031s9.550781-21.332031 21.332031-21.332031zm0 0" fill="#f3eee3"/><path d="m213.332031 128.167969h-213.332031v128c0 85.332031 85.332031 106.664062 85.332031 106.664062s0 21.335938 21.335938 21.335938h213.332031c21.332031 0 21.332031-21.335938 21.332031-21.335938s85.335938-21.332031 85.335938-106.664062v-128zm0 0" fill="#eae2ce"/><path d="m149.332031 362.832031s85.335938-21.332031 85.335938-106.664062v-128h192v128c0 85.332031-85.335938 106.664062-85.335938 106.664062s0 21.335938-21.332031 21.335938h-170.667969zm0 0" fill="#e0d4b7"/><path d="m213.332031 170.832031h-192v85.335938c0 42.664062 42.667969 85.332031 85.335938 85.332031h213.332031c42.667969 0 85.332031-42.667969 85.332031-85.332031v-85.335938zm0 0" fill="#993b17"/><path d="m21.332031 170.832031v85.335938c0 32.648437 25.027344 65.125 55.875 78.65625-18.304687-16.40625-34.539062-41.441407-34.539062-78.65625v-85.335938zm0 0" fill="#c28a73"/><path d="m234.667969 256.167969c0 42.664062-21.335938 69.332031-42.667969 85.332031h128c42.667969 0 85.332031-42.667969 85.332031-85.332031v-85.335938h-170.664062zm0 0" fill="#8b2800"/><path d="m341.332031 170.832031v166.847657c34.449219-10.96875 64-46.054688 64-81.511719v-85.335938zm0 0" fill="#7d1a00"/><path d="m128 320.167969c-35.332031-.039063-63.960938-28.671875-64-64v-64h42.667969v64c.015625 11.773437 9.554687 21.316406 21.332031 21.332031zm0 0" fill="#ad6143"/><path d="m64 192.167969h42.667969v42.664062h-42.667969zm0 0" fill="#c99884"/><path d="m21.332031 128.167969h192v21.332031h-192zm0 0" fill="#f3eee3"/><path d="m341.332031 170.832031c0 11.785157 9.550781 21.335938 21.335938 21.335938h21.332031c23.5625 0 42.667969 19.101562 42.667969 42.664062 0 23.566407-19.105469 42.667969-42.667969 42.667969h-21.332031c-11.785157 0-21.335938 9.550781-21.335938 21.332031 0 11.785157 9.550781 21.335938 21.335938 21.335938h21.332031c47.128906 0 85.332031-38.207031 85.332031-85.335938 0-47.128906-38.203125-85.332031-85.332031-85.332031h-21.332031c-11.785157 0-21.335938 9.550781-21.335938 21.332031zm0 0" fill="#eae2ce"/><path d="m384 298.832031h-21.332031v-21.332031h21.332031c23.554688-.023438 42.644531-19.113281 42.667969-42.667969h21.332031c-.039062 35.332031-28.667969 63.960938-64 64zm0 0" fill="#d4c3a2"/><path d="m436.53125 198.261719c-11.980469-17.171875-31.59375-27.414063-52.53125-27.429688h-21.332031v-21.332031h21.332031c27.910156.027344 54.050781 13.667969 70.03125 36.550781zm0 0" fill="#f3eee3"/></svg>