<svg height="469.33334pt" viewBox="0 0 469.33334 469.33334" width="469.33334pt" xmlns="http://www.w3.org/2000/svg"><path d="m405.332031 170.667969c-47.128906 0-85.332031-38.207031-85.332031-85.335938-47.128906 0-85.332031-38.203125-85.332031-85.332031-129.605469 0-234.667969 105.0625-234.667969 234.667969 0 129.601562 105.0625 234.664062 234.667969 234.664062 129.601562 0 234.664062-105.0625 234.664062-234.664062-.054687-27.359375-4.910156-54.496094-14.351562-80.171875-14.433594 10.484375-31.808594 16.144531-49.648438 16.171875zm0 0" fill="#993b17"/><path d="m64 234.667969h-21.332031c0-88.59375 62.644531-167.292969 148.96875-187.136719l4.769531 20.792969c-76.71875 17.632812-132.40625 87.59375-132.40625 166.34375zm0 0" fill="#a34e2d"/><path d="m234.667969 469.332031c-129.398438 0-234.667969-105.269531-234.667969-234.664062h42.667969c0 105.863281 86.132812 192 192 192 105.863281 0 192-86.136719 192-192-.003907-7.65625-.480469-15.300781-1.429688-22.898438-6.582031 1.046875-13.238281 1.566407-19.90625 1.5625-56.375-.003906-106.113281-36.878906-122.5-90.820312-44.683593-13.449219-78.453125-50.238281-88.039062-95.90625l41.726562-8.855469c7.371094 33.621094 34.039063 59.632812 67.835938 66.15625l14.394531 2.675781 2.675781 14.398438c7.546875 40.398437 42.808594 69.6875 83.90625 69.6875 10.003907.007812 19.921875-1.777344 29.292969-5.273438l22.53125-8.394531 5.65625 23.363281c4.3125 17.78125 6.5 36.007813 6.519531 54.304688 0 129.394531-105.269531 234.664062-234.664062 234.664062zm0 0" fill="#8b2800"/><path d="m74.667969 234.667969v-21.335938c17.664062-.019531 31.980469-14.332031 32-32h21.332031c-.035156 29.441407-23.890625 53.300781-53.332031 53.335938zm0 0" fill="#8b2800"/><path d="m106.667969 181.332031c0 17.675781-14.328125 32-32 32-17.675781 0-32-14.324219-32-32 0-17.671875 14.324219-32 32-32 17.671875 0 32 14.328125 32 32zm0 0" fill="#7d1a00"/><path d="m224 320v-21.332031c17.664062-.019531 31.980469-14.335938 32-32h21.332031c-.035156 29.441406-23.890625 53.296875-53.332031 53.332031zm0 0" fill="#8b2800"/><path d="m256 266.667969c0 17.671875-14.328125 32-32 32s-32-14.328125-32-32c0-17.675781 14.328125-32 32-32s32 14.324219 32 32zm0 0" fill="#7d1a00"/><path d="m224 170.667969v-21.335938c17.664062-.019531 31.980469-14.332031 32-32h21.332031c-.035156 29.441407-23.890625 53.300781-53.332031 53.335938zm0 0" fill="#8b2800"/><path d="m256 117.332031c0 17.675781-14.328125 32-32 32s-32-14.324219-32-32c0-17.671875 14.328125-32 32-32s32 14.328125 32 32zm0 0" fill="#7d1a00"/><path d="m309.332031 448c-29.441406-.035156-53.296875-23.890625-53.332031-53.332031h21.332031c0 17.671875 14.328125 32 32 32 17.675781 0 32-14.328125 32-32h21.335938c-.035157 29.441406-23.894531 53.296875-53.335938 53.332031zm0 0" fill="#8b2800"/><path d="m341.332031 394.667969c0 17.671875-14.324219 32-32 32-17.671875 0-32-14.328125-32-32 0-17.675781 14.328125-32 32-32 17.675781 0 32 14.324219 32 32zm0 0" fill="#7d1a00"/><path d="m362.667969 234.667969v-21.335938c11.773437-.015625 21.316406-9.554687 21.332031-21.332031h21.332031c-.023437 23.554688-19.109375 42.644531-42.664062 42.667969zm0 0" fill="#8b2800"/><path d="m384 192c0 11.78125-9.550781 21.332031-21.332031 21.332031-11.785157 0-21.335938-9.550781-21.335938-21.332031s9.550781-21.332031 21.335938-21.332031c11.78125 0 21.332031 9.550781 21.332031 21.332031zm0 0" fill="#7d1a00"/><path d="m85.332031 384v-21.332031c11.777344-.015625 21.320313-9.558594 21.335938-21.335938h21.332031c-.023438 23.554688-19.113281 42.644531-42.667969 42.667969zm0 0" fill="#8b2800"/><path d="m106.667969 341.332031c0 11.785157-9.550781 21.335938-21.335938 21.335938-11.78125 0-21.332031-9.550781-21.332031-21.335938 0-11.78125 9.550781-21.332031 21.332031-21.332031 11.785157 0 21.335938 9.550781 21.335938 21.332031zm0 0" fill="#7d1a00"/><g fill="#8b2800"><path d="m416 314.667969c0 8.835937-7.164062 16-16 16s-16-7.164063-16-16c0-8.835938 7.164062-16 16-16s16 7.164062 16 16zm0 0"/><path d="m341.332031 266.667969c0 11.78125-9.550781 21.332031-21.332031 21.332031s-21.332031-9.550781-21.332031-21.332031c0-11.785157 9.550781-21.335938 21.332031-21.335938s21.332031 9.550781 21.332031 21.335938zm0 0"/><path d="m213.332031 341.332031c0 11.785157-9.550781 21.335938-21.332031 21.335938s-21.332031-9.550781-21.332031-21.335938c0-11.78125 9.550781-21.332031 21.332031-21.332031s21.332031 9.550781 21.332031 21.332031zm0 0"/><path d="m448 213.332031c0 11.785157-9.550781 21.335938-21.332031 21.335938-11.785157 0-21.335938-9.550781-21.335938-21.335938 0-11.78125 9.550781-21.332031 21.335938-21.332031 11.78125 0 21.332031 9.550781 21.332031 21.332031zm0 0"/><path d="m128 277.332031c0 11.785157-9.550781 21.335938-21.332031 21.335938-11.785157 0-21.335938-9.550781-21.335938-21.335938 0-11.78125 9.550781-21.332031 21.335938-21.332031 11.78125 0 21.332031 9.550781 21.332031 21.332031zm0 0"/><path d="m234.667969 192c0 11.78125-9.550781 21.332031-21.335938 21.332031-11.78125 0-21.332031-9.550781-21.332031-21.332031s9.550781-21.332031 21.332031-21.332031c11.785157 0 21.335938 9.550781 21.335938 21.332031zm0 0"/></g><path d="m149.332031 106.667969c0 11.78125-9.550781 21.332031-21.332031 21.332031s-21.332031-9.550781-21.332031-21.332031c0-11.785157 9.550781-21.335938 21.332031-21.335938s21.332031 9.550781 21.332031 21.335938zm0 0" fill="#a34e2d"/></svg>