<svg height="469pt" viewBox="-42 0 469 469.33334" width="469pt" xmlns="http://www.w3.org/2000/svg"><path d="m42.832031 106.667969v106.664062c0 94.257813 76.410157 170.667969 170.667969 170.667969v-106.667969c0-94.253906-76.410156-170.664062-170.667969-170.664062zm0 0" fill="#a34e2d"/><path d="m179.042969 358.644531c-67.453125-15.785156-115.082031-76.039062-114.875-145.3125v-70.9375h21.332031v70.9375c-.175781 59.378907 40.644531 111.023438 98.457031 124.5625zm0 0" fill="#ad6143"/><path d="m64.167969 142.394531h21.332031v70.9375h-21.332031zm0 0" fill="#c28a73"/><path d="m341.5 106.667969v106.664062c0 94.257813-76.410156 170.667969-170.667969 170.667969v-106.667969c0-94.253906 76.410157-170.664062 170.667969-170.664062zm0 0" fill="#993b17"/><path d="m277.5 119.1875v8.8125l7.105469 1.207031c8.527343 3.015625 14.226562 11.082031 14.226562 20.125 0 9.046875-5.699219 17.109375-14.226562 20.125l-7.105469 1.210938v42.664062l7.105469 1.210938c8.527343 3.015625 14.226562 11.078125 14.226562 20.125 0 9.042969-5.699219 17.109375-14.226562 20.125l-7.105469 2.519531v41.355469h21.332031v-27.054688c13.203125-7.621093 21.335938-21.703125 21.335938-36.945312 0-15.242188-8.132813-29.328125-21.335938-36.949219v-11.4375c13.203125-7.621094 21.335938-21.707031 21.335938-36.949219 0-15.242187-8.132813-29.324219-21.335938-36.945312v-.125c-7.253906 1.832031-14.382812 4.148437-21.332031 6.925781zm0 0" fill="#8b2800"/><path d="m192.167969 362.667969c23.5625 0 42.664062 19.101562 42.664062 42.664062v21.335938c0 23.5625-19.101562 42.664062-42.664062 42.664062-23.566407 0-42.667969-19.101562-42.667969-42.664062v-21.335938c0-23.5625 19.101562-42.664062 42.667969-42.664062zm0 0" fill="#993b17"/><path d="m192.167969 469.332031v-21.332031c11.777343-.011719 21.320312-9.554688 21.332031-21.332031v-21.335938h21.332031v21.335938c-.027343 23.550781-19.113281 42.636719-42.664062 42.664062zm0 0" fill="#8b2800"/><path d="m277.5 213.332031v-42.664062c11.789062.007812 21.347656-9.546875 21.347656-21.335938 0-11.785156-9.558594-21.339843-21.347656-21.332031v-21.332031c0-21.335938-21.332031-21.335938-21.332031-21.335938v-21.332031c0-21.332031-21.335938-21.332031-21.335938-21.332031s-21.332031-42.667969-42.664062-42.667969c-21.335938 0-42.667969 42.667969-42.667969 42.667969s-21.332031 0-21.332031 21.332031v21.332031s-21.335938 0-21.335938 21.335938v234.664062c0 64 21.335938 85.335938 64 85.335938h42.667969c42.667969 0 64-21.335938 64-85.335938v-85.332031c11.78125 0 21.332031-9.550781 21.332031-21.332031 0-11.785157-9.550781-21.335938-21.332031-21.335938zm0 0" fill="#fdab00"/><path d="m213.5 64v21.332031s-21.332031 0-21.332031 21.335938v21.332031c-11.785157 0-21.335938 9.550781-21.335938 21.332031 0 11.785157 9.550781 21.335938 21.335938 21.335938v42.664062c-11.785157 0-21.335938 9.550781-21.335938 21.335938 0 11.78125 9.550781 21.332031 21.335938 21.332031v85.332031c0 52.105469 14.386719 75.632813 42.664062 82.6875 28.28125-7.054687 42.667969-30.582031 42.667969-82.6875v-85.332031c11.78125 0 21.332031-9.550781 21.332031-21.332031 0-11.785157-9.550781-21.335938-21.332031-21.335938v-42.664062c11.789062.007812 21.347656-9.546875 21.347656-21.335938 0-11.785156-9.558594-21.339843-21.347656-21.332031v-21.332031c0-21.335938-21.332031-21.335938-21.332031-21.335938v-21.332031c0-21.332031-21.335938-21.332031-21.335938-21.332031s-21.332031 0-21.332031 21.332031zm0 0" fill="#f59707"/><path d="m149.5 106.667969c0 11.78125-9.550781 21.332031-21.332031 21.332031-11.785157 0-21.335938-9.550781-21.335938-21.332031 0-11.785157 9.550781-21.335938 21.335938-21.335938 11.78125 0 21.332031 9.550781 21.332031 21.335938zm0 0" fill="#fdbc34"/><path d="m170.832031 64c0 11.78125-9.550781 21.332031-21.332031 21.332031s-21.332031-9.550781-21.332031-21.332031 9.550781-21.332031 21.332031-21.332031 21.332031 9.550781 21.332031 21.332031zm0 0" fill="#fdbc34"/><path d="m149.5 53.332031c0 5.890625-4.777344 10.667969-10.667969 10.667969s-10.664062-4.777344-10.664062-10.667969 4.773437-10.664062 10.664062-10.664062 10.667969 4.773437 10.667969 10.664062zm0 0" fill="#fee3aa"/><path d="m213.5 64c0 11.78125-9.550781 21.332031-21.332031 21.332031-11.785157 0-21.335938-9.550781-21.335938-21.332031s9.550781-21.332031 21.335938-21.332031c11.78125 0 21.332031 9.550781 21.332031 21.332031zm0 0" fill="#fdbc34"/><path d="m192.167969 106.667969c0 11.78125-9.550781 21.332031-21.335938 21.332031-11.78125 0-21.332031-9.550781-21.332031-21.332031 0-11.785157 9.550781-21.335938 21.332031-21.335938 11.785157 0 21.335938 9.550781 21.335938 21.335938zm0 0" fill="#fdbc34"/><path d="m170.832031 149.332031c0 11.785157-9.550781 21.335938-21.332031 21.335938s-21.332031-9.550781-21.332031-21.335938c0-11.78125 9.550781-21.332031 21.332031-21.332031s21.332031 9.550781 21.332031 21.332031zm0 0" fill="#fdbc34"/><path d="m149.5 192c0 11.78125-9.550781 21.332031-21.332031 21.332031-11.785157 0-21.335938-9.550781-21.335938-21.332031s9.550781-21.332031 21.335938-21.332031c11.78125 0 21.332031 9.550781 21.332031 21.332031zm0 0" fill="#fdbc34"/><path d="m128.167969 149.332031c0 11.785157-9.550781 21.335938-21.335938 21.335938-11.78125 0-21.332031-9.550781-21.332031-21.335938 0-11.78125 9.550781-21.332031 21.332031-21.332031 11.785157 0 21.335938 9.550781 21.335938 21.332031zm0 0" fill="#fdbc34"/><path d="m256.167969 149.332031c0 11.785157-9.550781 21.335938-21.335938 21.335938-11.78125 0-21.332031-9.550781-21.332031-21.335938 0-11.78125 9.550781-21.332031 21.332031-21.332031 11.785157 0 21.335938 9.550781 21.335938 21.332031zm0 0" fill="#fdab00"/><path d="m213.5 149.332031c0 11.785157-9.550781 21.335938-21.332031 21.335938-11.785157 0-21.335938-9.550781-21.335938-21.335938 0-11.78125 9.550781-21.332031 21.335938-21.332031 11.78125 0 21.332031 9.550781 21.332031 21.332031zm0 0" fill="#fdbc34"/><path d="m170.832031 320c0 11.78125-9.550781 21.332031-21.332031 21.332031s-21.332031-9.550781-21.332031-21.332031 9.550781-21.332031 21.332031-21.332031 21.332031 9.550781 21.332031 21.332031zm0 0" fill="#fdbc34"/><path d="m128.167969 320c0 11.78125-9.550781 21.332031-21.335938 21.332031-11.78125 0-21.332031-9.550781-21.332031-21.332031s9.550781-21.332031 21.332031-21.332031c11.785157 0 21.335938 9.550781 21.335938 21.332031zm0 0" fill="#fdbc34"/><path d="m256.167969 320c0 11.78125-9.550781 21.332031-21.335938 21.332031-11.78125 0-21.332031-9.550781-21.332031-21.332031s9.550781-21.332031 21.332031-21.332031c11.785157 0 21.335938 9.550781 21.335938 21.332031zm0 0" fill="#fdab00"/><path d="m298.832031 320c0 11.78125-9.550781 21.332031-21.332031 21.332031s-21.332031-9.550781-21.332031-21.332031 9.550781-21.332031 21.332031-21.332031 21.332031 9.550781 21.332031 21.332031zm0 0" fill="#fdab00"/><path d="m213.5 320c0 11.78125-9.550781 21.332031-21.332031 21.332031-11.785157 0-21.335938-9.550781-21.335938-21.332031s9.550781-21.332031 21.335938-21.332031c11.78125 0 21.332031 9.550781 21.332031 21.332031zm0 0" fill="#fdbc34"/><path d="m192.167969 192c0 11.78125-9.550781 21.332031-21.335938 21.332031-11.78125 0-21.332031-9.550781-21.332031-21.332031s9.550781-21.332031 21.332031-21.332031c11.785157 0 21.335938 9.550781 21.335938 21.332031zm0 0" fill="#fdbc34"/><path d="m234.832031 192c0 11.78125-9.550781 21.332031-21.332031 21.332031s-21.332031-9.550781-21.332031-21.332031 9.550781-21.332031 21.332031-21.332031 21.332031 9.550781 21.332031 21.332031zm0 0" fill="#fdab00"/><path d="m149.5 277.332031c0 11.785157-9.550781 21.335938-21.332031 21.335938-11.785157 0-21.335938-9.550781-21.335938-21.335938 0-11.78125 9.550781-21.332031 21.335938-21.332031 11.78125 0 21.332031 9.550781 21.332031 21.332031zm0 0" fill="#fdbc34"/><path d="m128.167969 266.667969c0 5.890625-4.777344 10.664062-10.667969 10.664062s-10.667969-4.773437-10.667969-10.664062 4.777344-10.667969 10.667969-10.667969 10.667969 4.777344 10.667969 10.667969zm0 0" fill="#fee3aa"/><path d="m192.167969 309.332031c0 5.890625-4.777344 10.667969-10.667969 10.667969s-10.667969-4.777344-10.667969-10.667969 4.777344-10.664062 10.667969-10.664062 10.667969 4.773437 10.667969 10.664062zm0 0" fill="#fee3aa"/><path d="m192.167969 277.332031c0 11.785157-9.550781 21.335938-21.335938 21.335938-11.78125 0-21.332031-9.550781-21.332031-21.335938 0-11.78125 9.550781-21.332031 21.332031-21.332031 11.785157 0 21.335938 9.550781 21.335938 21.332031zm0 0" fill="#fdbc34"/><path d="m234.832031 277.332031c0 11.785157-9.550781 21.335938-21.332031 21.335938s-21.332031-9.550781-21.332031-21.335938c0-11.78125 9.550781-21.332031 21.332031-21.332031s21.332031 9.550781 21.332031 21.332031zm0 0" fill="#fdab00"/><path d="m149.5 362.667969c0 11.78125-9.550781 21.332031-21.332031 21.332031-11.785157 0-21.335938-9.550781-21.335938-21.332031 0-11.785157 9.550781-21.335938 21.335938-21.335938 11.78125 0 21.332031 9.550781 21.332031 21.335938zm0 0" fill="#fdbc34"/><path d="m192.167969 362.667969c0 11.78125-9.550781 21.332031-21.335938 21.332031-11.78125 0-21.332031-9.550781-21.332031-21.332031 0-11.785157 9.550781-21.335938 21.332031-21.335938 11.785157 0 21.335938 9.550781 21.335938 21.335938zm0 0" fill="#fdbc34"/><path d="m234.832031 362.667969c0 11.78125-9.550781 21.332031-21.332031 21.332031s-21.332031-9.550781-21.332031-21.332031c0-11.785157 9.550781-21.335938 21.332031-21.335938s21.332031 9.550781 21.332031 21.335938zm0 0" fill="#fdbc34"/><path d="m277.5 362.667969c0 11.78125-9.550781 21.332031-21.332031 21.332031-11.785157 0-21.335938-9.550781-21.335938-21.332031 0-11.785157 9.550781-21.335938 21.335938-21.335938 11.78125 0 21.332031 9.550781 21.332031 21.335938zm0 0" fill="#fdab00"/><path d="m234.832031 106.667969c0 11.78125-9.550781 21.332031-21.332031 21.332031s-21.332031-9.550781-21.332031-21.332031c0-11.785157 9.550781-21.335938 21.332031-21.335938s21.332031 9.550781 21.332031 21.335938zm0 0" fill="#fdab00"/><path d="m128.167969 234.667969c0 11.78125-9.550781 21.332031-21.335938 21.332031-11.78125 0-21.332031-9.550781-21.332031-21.332031 0-11.785157 9.550781-21.335938 21.332031-21.335938 11.785157 0 21.335938 9.550781 21.335938 21.335938zm0 0" fill="#fdbc34"/><path d="m170.832031 234.667969c0 11.78125-9.550781 21.332031-21.332031 21.332031s-21.332031-9.550781-21.332031-21.332031c0-11.785157 9.550781-21.335938 21.332031-21.335938s21.332031 9.550781 21.332031 21.335938zm0 0" fill="#fdbc34"/><path d="m213.5 234.667969c0 11.78125-9.550781 21.332031-21.332031 21.332031-11.785157 0-21.335938-9.550781-21.335938-21.332031 0-11.785157 9.550781-21.335938 21.335938-21.335938 11.78125 0 21.332031 9.550781 21.332031 21.335938zm0 0" fill="#fdbc34"/><path d="m170.832031 426.667969h106.667969c42.667969 0 106.667969-42.667969 106.667969-149.335938h-64c-82.476563 0-149.335938 66.859375-149.335938 149.335938zm0 0" fill="#a34e2d"/><path d="m237.957031 358.792969-16.457031-13.605469c24.277344-29.480469 60.476562-46.546875 98.667969-46.519531v21.332031c-31.828125-.019531-61.988281 14.214844-82.210938 38.792969zm0 0" fill="#8b2800"/><path d="m277.5 426.667969h-83.5625v-42.667969h83.5625c21.207031 0 57.105469-23.707031 63.125-87.332031l42.457031 4c-8.707031 92.445312-67.914062 126-105.582031 126zm0 0" fill="#993b17"/><path d="m226.75 405.011719-5.1875-20.6875c.8125-.210938 81.230469-21.417969 121.0625-101.09375l19.082031 9.539062c-44.351562 88.699219-131.269531 111.324219-134.957031 112.242188zm0 0" fill="#ad6143"/><path d="m234.832031 426.667969h-21.332031c0-82.34375-67-149.335938-149.332031-149.335938v-21.332031c94.101562 0 170.664062 76.5625 170.664062 170.667969zm0 0" fill="#993b17"/><path d="m213.5 426.667969h-106.667969c-42.664062 0-106.664062-42.667969-106.664062-149.335938h64c82.472656 0 149.332031 66.859375 149.332031 149.335938zm0 0" fill="#b7745a"/><path d="m152.25 366.59375c-19.859375-29.132812-52.828125-46.570312-88.082031-46.59375v-21.332031c42.300781.027343 81.863281 20.941406 105.707031 55.882812zm0 0" fill="#a34e2d"/><path d="m190.394531 426.667969h-83.5625c-37.664062 0-96.875-33.554688-105.582031-126l42.457031-4c6.023438 63.625 41.917969 87.332031 63.125 87.332031h83.5625zm0 0" fill="#ad6143"/><path d="m192.167969 53.332031c0 5.890625-4.777344 10.667969-10.667969 10.667969s-10.667969-4.777344-10.667969-10.667969 4.777344-10.664062 10.667969-10.664062 10.667969 4.773437 10.667969 10.664062zm0 0" fill="#fee3aa"/><path d="m234.832031 53.332031c0 5.890625-4.773437 10.667969-10.664062 10.667969s-10.667969-4.777344-10.667969-10.667969 4.777344-10.664062 10.667969-10.664062 10.664062 4.773437 10.664062 10.664062zm0 0" fill="#fdab00"/><path d="m256.167969 96c0 5.890625-4.777344 10.667969-10.667969 10.667969s-10.667969-4.777344-10.667969-10.667969 4.777344-10.667969 10.667969-10.667969 10.667969 4.777344 10.667969 10.667969zm0 0" fill="#fdab00"/><path d="m277.5 138.667969c0 5.890625-4.777344 10.664062-10.667969 10.664062s-10.664062-4.773437-10.664062-10.664062 4.773437-10.667969 10.664062-10.667969 10.667969 4.777344 10.667969 10.667969zm0 0" fill="#fdab00"/><path d="m277.5 224c0 5.890625-4.777344 10.667969-10.667969 10.667969s-10.664062-4.777344-10.664062-10.667969 4.773437-10.667969 10.664062-10.667969 10.667969 4.777344 10.667969 10.667969zm0 0" fill="#fdab00"/><g fill="#fee3aa"><path d="m128.167969 96c0 5.890625-4.777344 10.667969-10.667969 10.667969s-10.667969-4.777344-10.667969-10.667969 4.777344-10.667969 10.667969-10.667969 10.667969 4.777344 10.667969 10.667969zm0 0"/><path d="m170.832031 96c0 5.890625-4.773437 10.667969-10.664062 10.667969s-10.667969-4.777344-10.667969-10.667969 4.777344-10.667969 10.667969-10.667969 10.664062 4.777344 10.664062 10.667969zm0 0"/><path d="m106.832031 138.667969c0 5.890625-4.773437 10.664062-10.664062 10.664062s-10.667969-4.773437-10.667969-10.664062 4.777344-10.667969 10.667969-10.667969 10.664062 4.777344 10.664062 10.667969zm0 0"/><path d="m149.5 138.667969c0 5.890625-4.777344 10.664062-10.667969 10.664062s-10.664062-4.773437-10.664062-10.664062 4.773437-10.667969 10.664062-10.667969 10.667969 4.777344 10.667969 10.667969zm0 0"/><path d="m192.167969 138.667969c0 5.890625-4.777344 10.664062-10.667969 10.664062s-10.667969-4.773437-10.667969-10.664062 4.777344-10.667969 10.667969-10.667969 10.667969 4.777344 10.667969 10.667969zm0 0"/><path d="m170.832031 266.667969c0 5.890625-4.773437 10.664062-10.664062 10.664062s-10.667969-4.773437-10.667969-10.664062 4.777344-10.667969 10.667969-10.667969 10.664062 4.777344 10.664062 10.667969zm0 0"/><path d="m106.832031 224c0 5.890625-4.773437 10.667969-10.664062 10.667969s-10.667969-4.777344-10.667969-10.667969 4.777344-10.667969 10.667969-10.667969 10.664062 4.777344 10.664062 10.667969zm0 0"/><path d="m149.5 224c0 5.890625-4.777344 10.667969-10.667969 10.667969s-10.664062-4.777344-10.664062-10.667969 4.773437-10.667969 10.664062-10.667969 10.667969 4.777344 10.667969 10.667969zm0 0"/><path d="m192.167969 224c0 5.890625-4.777344 10.667969-10.667969 10.667969s-10.667969-4.777344-10.667969-10.667969 4.777344-10.667969 10.667969-10.667969 10.667969 4.777344 10.667969 10.667969zm0 0"/><path d="m128.167969 181.332031c0 5.890625-4.777344 10.667969-10.667969 10.667969s-10.667969-4.777344-10.667969-10.667969 4.777344-10.664062 10.667969-10.664062 10.667969 4.773437 10.667969 10.664062zm0 0"/><path d="m170.832031 181.332031c0 5.890625-4.773437 10.667969-10.664062 10.667969s-10.667969-4.777344-10.667969-10.667969 4.777344-10.664062 10.667969-10.664062 10.664062 4.773437 10.664062 10.664062zm0 0"/></g><path d="m213.5 181.332031c0 5.890625-4.777344 10.667969-10.667969 10.667969s-10.664062-4.777344-10.664062-10.667969 4.773437-10.664062 10.664062-10.664062 10.667969 4.773437 10.667969 10.664062zm0 0" fill="#fdcf6d"/><path d="m213.5 266.667969c0 5.890625-4.777344 10.664062-10.667969 10.664062s-10.664062-4.773437-10.664062-10.664062 4.773437-10.667969 10.664062-10.667969 10.667969 4.777344 10.667969 10.667969zm0 0" fill="#fdcf6d"/><path d="m213.5 96c0 5.890625-4.777344 10.667969-10.667969 10.667969s-10.664062-4.777344-10.664062-10.667969 4.773437-10.667969 10.664062-10.667969 10.667969 4.777344 10.667969 10.667969zm0 0" fill="#fdcf6d"/><path d="m234.832031 138.667969c0 5.890625-4.773437 10.664062-10.664062 10.664062s-10.667969-4.773437-10.667969-10.664062 4.777344-10.667969 10.667969-10.667969 10.664062 4.777344 10.664062 10.667969zm0 0" fill="#fdcf6d"/><path d="m202.832031 426.667969c-139.25 0-202.664062-71.886719-202.664062-138.667969h21.332031c0 56.511719 56.75 117.332031 181.332031 117.332031zm0 0" fill="#a34e2d"/><path d="m201.082031 405.1875c-131.851562-21.96875-176.625-108.738281-178.457031-112.417969l19.0625-9.570312c.417969.8125 42.292969 80.84375 162.894531 100.945312zm0 0" fill="#c99884"/><path d="m245.5 426.667969-.042969-21.335938c4-.019531 98-1.957031 117.523438-119.082031l21.039062 3.5c-22.5625 135.355469-137.351562 136.917969-138.519531 136.917969zm0 0" fill="#8b2800"/><path d="m170.832031 426.667969h21.335938v21.332031h-21.335938zm0 0" fill="#ad6143"/></svg>