<svg height="469.33334pt" viewBox="0 0 469.33334 469.33334" width="469.33334pt" xmlns="http://www.w3.org/2000/svg"><path d="m426.667969 106.667969v-21.335938c0-47.128906-38.207031-85.332031-85.335938-85.332031l42.667969 85.332031-85.332031-42.664062c0 47.128906 38.203125 85.332031 85.332031 85.332031h21.332031v42.667969c-47.128906 0-85.332031 38.203125-85.332031 85.332031l21.332031 21.332031c47.128907 0 85.335938-38.203125 85.335938-85.332031 0 0 42.664062 0 42.664062-42.667969 0-42.664062-42.664062-42.664062-42.664062-42.664062zm0 0" fill="#c82e25"/><path d="m85.332031 128c47.128907 0 85.335938-38.203125 85.335938-85.332031l-85.335938 42.664062 42.667969-85.332031c-47.128906 0-85.332031 38.203125-85.332031 85.332031v21.335938s-42.667969 0-42.667969 42.664062c0 42.667969 42.667969 42.667969 42.667969 42.667969 0 47.128906 38.203125 85.332031 85.332031 85.332031l21.332031-21.332031c0-47.128906-38.203125-85.332031-85.332031-85.332031v-42.667969zm0 0" fill="#c82e25"/><path d="m341.457031 277.457031-18.207031-18.207031 15.082031-15.082031 11.292969 11.300781c31.863281-4.183594 55.691406-31.332031 55.707031-63.46875l.125-21.082031 21.023438-.25c8.039062-.09375 21.519531-2.992188 21.519531-21.335938 0-4.65625 0-18.84375-18.519531-21.125l2.625-21.164062c23.3125 2.863281 37.226562 18.675781 37.226562 42.289062 0 29.125-21.394531 42.417969-42.601562 42.667969l-.0625.0625c-.039063 45.199219-35.3125 82.527344-80.4375 85.125zm0 0" fill="#af0a00"/><path d="m123.105469 277.1875c-45.148438-2.605469-80.425781-39.96875-80.4375-85.1875-21.292969-.25-42.667969-13.542969-42.667969-42.667969 0-23.601562 13.917969-39.414062 37.230469-42.289062l2.625 21.164062c-18.523438 2.292969-18.523438 16.46875-18.523438 21.125 0 18.34375 13.4375 21.242188 21.460938 21.335938h21.207031v21.332031c.007812 33.910156 26.460938 61.929688 60.3125 63.894531zm0 0" fill="#af0a00"/><path d="m106.667969 298.667969c-35.347657 0-64 28.652343-64 64 0 0-42.667969 0-42.667969 42.664062 0 42.667969 42.667969 42.667969 42.667969 42.667969v-42.667969l21.332031-21.332031c35.347656 0 64-28.652344 64-64zm0 0" fill="#c82e25"/><path d="m42.667969 435.6875h-21.335938v-39.1875l33.835938-33.832031h8.832031c22.207031-.09375 40.671875-17.132813 42.542969-39.261719l21.25 1.6875c-2.789063 33.199219-30.476563 58.769531-63.792969 58.90625l-21.332031 21.332031zm0 0" fill="#af0a00"/><path d="m362.667969 298.667969c35.34375 0 64 28.652343 64 64 0 0 42.664062 0 42.664062 42.664062 0 42.667969-42.664062 42.667969-42.664062 42.667969v-42.667969l-21.335938-21.332031c-35.34375 0-64-28.652344-64-64zm0 0" fill="#c82e25"/><path d="m448 435.6875h-21.332031v-30.355469l-21.335938-21.332031c-33.316406-.136719-61.003906-25.707031-63.789062-58.90625l21.25-1.6875c1.871093 22.128906 20.332031 39.167969 42.539062 39.261719h8.835938l33.832031 33.832031zm0 0" fill="#af0a00"/><path d="m170.667969 384-21.335938-21.332031-4.503906 2.25c-23.386719 11.695312-38.160156 35.597656-38.160156 61.75 0 23.5625 19.101562 42.664062 42.664062 42.664062 0-21.332031-21.332031-42.664062-21.332031-42.664062 23.5625 0 42.667969-19.105469 42.667969-42.667969zm0 0" fill="#c82e25"/><path d="m125.417969 459.769531c-3.238281-6.621093-7.464844-12.707031-12.542969-18.050781l15.125-15.042969c6.851562 7.117188 12.523438 15.289063 16.792969 24.199219zm2.582031-33.101562h-9.707031v-21.335938h9.707031c10.703125-.015625 19.742188-7.949219 21.144531-18.5625l21.167969 2.75c-2.8125 21.234375-20.894531 37.109375-42.3125 37.148438zm0 0" fill="#af0a00"/><path d="m298.667969 384 21.332031-21.332031 4.503906 2.25c23.390625 11.695312 38.164063 35.597656 38.164063 61.75 0 23.5625-19.105469 42.664062-42.667969 42.664062 0-21.332031 21.332031-42.664062 21.332031-42.664062-23.5625 0-42.664062-19.105469-42.664062-42.667969zm0 0" fill="#c82e25"/><g fill="#af0a00"><path d="m338.980469 464.875-9.5-19.105469c6.242187-3.09375 10.578125-9.039062 11.625-15.925781l21.082031 3.144531c-2.0625 13.785157-10.726562 25.6875-23.207031 31.886719zm2.351562-38.207031c-21.414062-.046875-39.492187-15.917969-42.3125-37.148438l21.167969-2.75c1.402344 10.613281 10.441406 18.546875 21.144531 18.5625zm0 0"/><path d="m85.332031 128v-21.332031c29.28125.011719 54.832031-19.851563 62.042969-48.230469l20.667969 5.269531c-9.613281 37.832031-43.675781 64.3125-82.710938 64.292969zm0 0"/><path d="m51.933594 104.414062 48.113281-96.222656 19.082031 9.539063-48.113281 96.226562zm0 0"/><path d="m350.207031 17.726562 19.085938-9.539062 48.101562 96.230469-19.082031 9.539062zm0 0"/><path d="m384 128c-39.03125.019531-73.097656-26.460938-82.707031-64.292969l20.664062-5.269531c7.210938 28.378906 32.761719 48.242188 62.042969 48.230469zm0 0"/><path d="m121.785156 383.667969c-4.699218 5.9375-8.386718 12.609375-10.914062 19.746093 8.628906 8.308594 18.25 15.523438 28.644531 21.480469 8.210937-2.3125 15.535156-7.046875 21.015625-13.585937-14.523438-6.726563-27.664062-16.097656-38.746094-27.640625zm0 0"/><path d="m347.550781 383.667969c-11.085937 11.542969-24.226562 20.914062-38.75 27.640625 5.480469 6.539062 12.804688 11.273437 21.019531 13.585937 10.394532-5.957031 20.015626-13.171875 28.640626-21.480469-2.527344-7.136718-6.214844-13.808593-10.910157-19.746093zm0 0"/><path d="m381.371094 266.925781c6.671875-3.5 12.847656-7.871093 18.371094-12.992187-8.527344-25.078125-26.742188-45.324219-53.210938-59.542969-5.292969 5.101563-9.902344 10.863281-13.71875 17.144531 25.542969 12.898438 42.398438 31.761719 48.558594 55.390625zm0 0"/><path d="m69.59375 253.933594c5.519531 5.121094 11.699219 9.492187 18.367188 12.992187 6.164062-23.628906 23.015624-42.492187 48.558593-55.390625-3.8125-6.28125-8.425781-12.042968-13.71875-17.144531-26.46875 14.21875-44.683593 34.464844-53.207031 59.542969zm0 0"/><path d="m108.097656 366.210938c-12.460937-19.160157-20.027344-41.085938-22.039062-63.851563-7.324219 2.503906-14.132813 6.328125-20.078125 11.285156 3.238281 23.058594 11.464843 45.132813 24.101562 64.691407 6.652344-2.988282 12.746094-7.085938 18.015625-12.125zm0 0"/><path d="m403.355469 313.644531c-5.949219-4.957031-12.753907-8.78125-20.082031-11.285156-2.011719 22.765625-9.578126 44.691406-22.039063 63.851563 5.273437 5.039062 11.363281 9.136718 18.015625 12.125 12.636719-19.558594 20.863281-41.632813 24.105469-64.691407zm0 0"/></g><path d="m384 288c0 64.800781-42.667969 138.667969-149.332031 138.667969-106.667969 0-149.335938-73.867188-149.335938-138.667969s66.859375-96 149.335938-96c82.472656 0 149.332031 31.199219 149.332031 96zm0 0" fill="#c82e25"/><path d="m208.820312 239.179688c-10.535156-10.535157-36.160156-1.996094-57.230468 19.078124-21.070313 21.070313-29.613282 46.695313-19.078125 57.230469 10.535156 10.535157 36.160156 1.992188 57.230469-19.078125 21.074218-21.070312 29.613281-46.695312 19.078124-57.230468zm0 0" fill="#d96c66"/><path d="m148.207031 342.460938c-2.636719-2.632813-9.042969-.5-14.308593 4.769531-5.269532 5.269531-7.402344 11.675781-4.769532 14.308593 2.632813 2.632813 9.039063.5 14.308594-4.769531 5.265625-5.269531 7.402344-11.675781 4.769531-14.308593zm0 0" fill="#d96c66"/><path d="m234.667969 426.667969v-42.667969c78.644531 0 106.664062-49.59375 106.664062-96 0-39.363281-57.457031-53.332031-106.664062-53.332031v-42.667969c92.101562 0 149.332031 36.78125 149.332031 96 0 69.019531-46.167969 138.667969-149.332031 138.667969zm0 0" fill="#c11107"/><path d="m192 224c0 17.671875-14.328125 32-32 32s-32-14.328125-32-32 14.328125-32 32-32 32 14.328125 32 32zm0 0" fill="#2b1718"/><path d="m192 202.667969c0 5.890625-4.777344 10.664062-10.667969 10.664062s-10.664062-4.773437-10.664062-10.664062 4.773437-10.667969 10.664062-10.667969 10.667969 4.777344 10.667969 10.667969zm0 0" fill="#afa8a8"/><path d="m341.332031 224c0 17.671875-14.324219 32-32 32-17.671875 0-32-14.328125-32-32s14.328125-32 32-32c17.675781 0 32 14.328125 32 32zm0 0" fill="#2b1718"/><path d="m341.332031 202.667969c0 5.890625-4.773437 10.664062-10.664062 10.664062s-10.667969-4.773437-10.667969-10.664062 4.777344-10.667969 10.667969-10.667969 10.664062 4.777344 10.664062 10.667969zm0 0" fill="#afa8a8"/><path d="m277.332031 384c0 11.78125-9.550781 21.332031-21.332031 21.332031s-21.332031-9.550781-21.332031-21.332031 9.550781-21.332031 21.332031-21.332031 21.332031 9.550781 21.332031 21.332031zm0 0" fill="#c11107"/><path d="m362.667969 330.667969c0 17.671875-14.328125 32-32 32-17.675781 0-32-14.328125-32-32 0-17.675781 14.324219-32 32-32 17.671875 0 32 14.324219 32 32zm0 0" fill="#c11107"/><path d="m170.667969 373.332031c0 5.890625-4.777344 10.667969-10.667969 10.667969s-10.667969-4.777344-10.667969-10.667969 4.777344-10.664062 10.667969-10.664062 10.667969 4.773437 10.667969 10.664062zm0 0" fill="#c11107"/><path d="m277.332031 266.667969c0 5.890625-4.773437 10.664062-10.664062 10.664062s-10.667969-4.773437-10.667969-10.664062 4.777344-10.667969 10.667969-10.667969 10.664062 4.777344 10.664062 10.667969zm0 0" fill="#c11107"/><path d="m256 288c0 5.890625-4.777344 10.667969-10.667969 10.667969s-10.664062-4.777344-10.664062-10.667969 4.773437-10.667969 10.664062-10.667969 10.667969 4.777344 10.667969 10.667969zm0 0" fill="#c11107"/><path d="m213.332031 352c0 5.890625-4.773437 10.667969-10.664062 10.667969s-10.667969-4.777344-10.667969-10.667969 4.777344-10.667969 10.667969-10.667969 10.664062 4.777344 10.664062 10.667969zm0 0" fill="#c11107"/><path d="m86.542969 218.0625c-4.234375-8.835938-12.890625-14.71875-22.667969-15.394531l.125-21.335938c1.144531 0 28.3125.3125 41.667969 27.273438zm0 0" fill="#d96c66"/><path d="m372.230469 218.0625-19.125-9.457031c13.351562-26.960938 40.519531-27.273438 41.664062-27.273438l.125 21.335938c-9.773437.675781-18.429687 6.558593-22.664062 15.394531zm0 0" fill="#d96c66"/><path d="m42.667969 128h21.332031v42.667969h-21.332031zm0 0" fill="#d2514a"/><path d="m405.332031 128h21.335938v42.667969h-21.335938zm0 0" fill="#d2514a"/><path d="m64 352.125-21.332031-.125c0-12.863281 8.519531-32 32-32v21.332031c-8.585938 0-10.542969 5.867188-10.667969 10.792969zm0 0" fill="#d2514a"/><path d="m405.332031 352.125c-.125-4.925781-2.082031-10.792969-10.664062-10.792969v-21.332031c23.476562 0 32 19.136719 32 32h-10.667969zm0 0" fill="#d2514a"/></svg>