<svg height="469pt" viewBox="0 0 469 469.33402" width="469pt" xmlns="http://www.w3.org/2000/svg"><path d="m93.785156 469.332031h3.191406c17.226563 0 31.191407-13.964843 31.191407-31.1875.027343-6.851562-2.234375-13.515625-6.429688-18.9375-6.28125-8.078125-14.90625-21.644531-14.90625-35.207031 0-42.667969 21.335938-64 21.335938-64l-106.667969-64s-21.332031 21.332031-21.332031 85.332031c0 69.398438 56.433593 110.578125 77.515625 123.535157 4.847656 2.957031 10.425781 4.503906 16.101562 4.464843zm0 0" fill="#e76400"/><path d="m469.5 93.621094v3.1875c0 17.226562-13.964844 31.191406-31.191406 31.191406-6.851563.027344-13.515625-2.234375-18.933594-6.425781-8.078125-6.285157-21.644531-14.90625-35.207031-14.90625-42.667969 0-64 21.332031-64 21.332031l-64-106.667969s21.332031-21.332031 85.332031-21.332031c69.398438 0 110.574219 56.4375 123.535156 77.515625 2.957032 4.847656 4.503906 10.425781 4.464844 16.105469zm0 0" fill="#e76400"/><path d="m438.3125 128c-6.878906.042969-13.566406-2.234375-18.988281-6.46875-7.105469-5.53125-21.199219-14.863281-35.15625-14.863281-17.636719 0-33.667969 3.507812-47.65625 10.445312l-18.949219-38.226562c19.9375-9.875 42.34375-14.886719 66.605469-14.886719 5.195312.011719 10.375.539062 15.46875 1.574219-14.71875-12.492188-34.179688-22.90625-58.136719-22.90625v-42.667969c68.488281 0 109.199219 54.207031 123.53125 77.511719 2.953125 4.847656 4.5 10.425781 4.46875 16.101562v3.199219c-.019531 17.214844-13.96875 31.167969-31.1875 31.1875zm-9.636719-28.144531c.007813.015625.019531.027343.03125.039062-.011719-.011719-.023437-.023437-.03125-.039062zm16.835938-12.011719c.015625.015625.03125.03125.050781.042969-.019531-.011719-.035156-.027344-.050781-.042969zm0 0" fill="#ef7f00"/><path d="m.167969 256c0-42.667969 42.664062-106.667969 64-106.667969 42.664062 0 128 85.335938 128 106.667969s-42.667969 85.332031-64 85.332031c-21.335938 0-128-37.628906-128-85.332031zm0 0" fill="#e76400"/><path d="m128.167969 341.332031c10.167969 0 25.179687-14.539062 38.109375-32.070312 5.789062-7.902344 11.046875-16.175781 15.746094-24.769531 4.746093-8.835938 8.199218-17.109376 9.535156-23.425782l-41.839844-7.828125c-1.917969 8.023438-18.761719 34.125-28.417969 44.148438-24.976562-6.03125-73.738281-30.699219-78.46875-41.386719h-42.664062c0 47.703125 106.664062 85.332031 128 85.332031zm0 0" fill="#ef7f00"/><path d="m256.167969 0c-42.667969 0-106.667969 42.667969-106.667969 64 0 42.667969 85.332031 128 106.667969 128 21.332031 0 85.332031-42.667969 85.332031-64s-37.628906-128-85.332031-128zm0 0" fill="#cc4900"/><path d="m297.511719 120.957031c-10.167969 9.761719-35.554688 26.5625-44.148438 28.5625l7.96875 41.851563c24.949219-5.335938 80.167969-43.554688 80.167969-63.371094 0-21.332031-37.628906-128-85.332031-128l-1.824219 42.40625c12.300781 4.949219 37.042969 53.519531 43.167969 78.550781zm0 0" fill="#ef7f00"/><path d="m277.5 277.332031c-42.667969 42.667969-64 42.667969-85.332031 42.667969-21.335938 0-192-127.96875-192-170.652344 0-42.679687 106.664062-149.347656 171.558593-149.347656 41.773438 0 148.441407 170.667969 148.441407 213.332031 0 21.335938-42.667969 64-42.667969 64zm0 0" fill="#cc4900"/><path d="m87.09375 157.292969-35.5625-23.585938c19.40625-29.257812 69.5-74.695312 102.59375-87.238281l15.125 39.894531c-21.925781 8.304688-65.6875 46.085938-82.15625 70.929688zm0 0" fill="#e76400"/><path d="m194.136719 320-.105469-42.667969c13.457031-.03125 23.1875-.050781 53.292969-30.15625 14.664062-14.707031 26.175781-30.40625 29.875-36.96875-5.617188-32.53125-87.136719-157-111.28125-168.4375l9.945312-41.363281c41.25 8.15625 144.304688 169.332031 144.304688 212.925781l-.179688 2.78125c-2.789062 21.21875-42.082031 60.8125-42.476562 61.210938-39.449219 39.445312-60.261719 42.625-83.375 42.675781zm84.09375-111.863281" fill="#e76400"/><path d="m192.167969 138.667969c0 5.890625-4.777344 10.664062-10.667969 10.664062s-10.667969-4.773437-10.667969-10.664062 4.777344-10.667969 10.667969-10.667969 10.667969 4.777344 10.667969 10.667969zm0 0" fill="#fdab00"/><path d="m149.5 224c0 5.890625-4.773438 10.667969-10.667969 10.667969-5.890625 0-10.664062-4.777344-10.664062-10.667969s4.773437-10.667969 10.664062-10.667969c5.894531 0 10.667969 4.777344 10.667969 10.667969zm0 0" fill="#fdab00"/><path d="m234.832031 224c0 5.890625-4.773437 10.667969-10.664062 10.667969s-10.667969-4.777344-10.667969-10.667969 4.777344-10.667969 10.667969-10.667969 10.664062 4.777344 10.664062 10.667969zm0 0" fill="#fdab00"/><path d="m42.832031 373.332031c0 5.890625-4.773437 10.667969-10.664062 10.667969s-10.667969-4.777344-10.667969-10.667969 4.777344-10.664062 10.667969-10.664062 10.664062 4.773437 10.664062 10.664062zm0 0" fill="#fdbc34"/><g fill="#ef7f00"><path d="m85.5 437.332031c0 5.890625-4.773438 10.667969-10.667969 10.667969-5.890625 0-10.664062-4.777344-10.664062-10.667969s4.773437-10.664062 10.664062-10.664062c5.894531 0 10.667969 4.773437 10.667969 10.664062zm0 0"/><path d="m277.5 53.332031c0 5.890625-4.773438 10.667969-10.667969 10.667969-5.890625 0-10.664062-4.777344-10.664062-10.667969s4.773437-10.664062 10.664062-10.664062c5.894531 0 10.667969 4.773437 10.667969 10.664062zm0 0"/><path d="m256.167969 32c0 5.890625-4.777344 10.667969-10.667969 10.667969s-10.667969-4.777344-10.667969-10.667969 4.777344-10.667969 10.667969-10.667969 10.667969 4.777344 10.667969 10.667969zm0 0"/></g><path d="m341.5 32c0 5.890625-4.773438 10.667969-10.667969 10.667969-5.890625 0-10.664062-4.777344-10.664062-10.667969s4.773437-10.667969 10.664062-10.667969c5.894531 0 10.667969 4.777344 10.667969 10.667969zm0 0" fill="#fdbc34"/><path d="m42.832031 245.332031c0 5.890625-4.773437 10.667969-10.664062 10.667969s-10.667969-4.777344-10.667969-10.667969 4.777344-10.664062 10.667969-10.664062 10.664062 4.773437 10.664062 10.664062zm0 0" fill="#ef7f00"/><path d="m106.832031 288c0 5.890625-4.773437 10.667969-10.664062 10.667969s-10.667969-4.777344-10.667969-10.667969 4.777344-10.667969 10.667969-10.667969 10.664062 4.777344 10.664062 10.667969zm0 0" fill="#ef7f00"/><path d="m106.832031 138.667969c0 5.890625-4.773437 10.664062-10.664062 10.664062s-10.667969-4.773437-10.667969-10.664062 4.777344-10.667969 10.667969-10.667969 10.664062 4.777344 10.664062 10.667969zm0 0" fill="#fdcf6d"/><path d="m128.167969 74.667969c0 5.890625-4.777344 10.664062-10.667969 10.664062s-10.667969-4.773437-10.667969-10.664062 4.777344-10.667969 10.667969-10.667969 10.667969 4.777344 10.667969 10.667969zm0 0" fill="#fdcf6d"/><path d="m64.167969 138.667969c0 5.890625-4.777344 10.664062-10.667969 10.664062s-10.667969-4.773437-10.667969-10.664062 4.777344-10.667969 10.667969-10.667969 10.667969 4.777344 10.667969 10.667969zm0 0" fill="#fdcf6d"/><path d="m128.140625 439.195312c.011719-.351562.027344-.699218.027344-1.050781.027343-6.851562-2.234375-13.519531-6.429688-18.9375-6.28125-8.078125-14.90625-21.644531-14.90625-35.207031 0-21.585938 5.460938-37.703125 10.859375-48.367188l-38.640625-18.238281c-9.875 19.9375-14.882812 42.34375-14.882812 66.605469 0 25.324219 12.957031 47.324219 23.875 61.386719l.847656 1.289062-11.246094 18.15625c4.167969 2.5625 8.894531 4.074219 13.773438 4.410157.070312.003906.136719.015624.207031.019531.664062.042969 1.332031.0625 2.003906.066406.054688 0 .105469.003906.15625.003906h3.191406c.359376 0 .714844-.015625 1.070313-.027343 16.382813-.578126 29.523437-13.730469 30.09375-30.109376zm0 0" fill="#ef7f00"/></svg>