<svg height="468pt" viewBox="0 0 468 468.13694" width="468pt" xmlns="http://www.w3.org/2000/svg"><path d="m29.800781 437.207031c41.234375 41.238281 108.09375 41.238281 149.332031 0l59.589844-70.324219c39.144532-46.195312 82.03125-89.085937 128.226563-128.226562l70.328125-59.59375c41.238281-41.234375 41.238281-108.09375 0-149.332031-32.988282-32.988281-84.214844-39.242188-124.171875-15.164063l-25.160157 15.164063c-105.78125 63.75-194.394531 152.363281-258.144531 258.144531l-15.164062 25.160156c-24.082031 39.957032-17.824219 91.183594 15.164062 124.171875zm0 0" fill="#fdab00"/><path d="m51.171875 335.054688-18.269531-11.023438 15.167968-25.144531c62.039063-102.738281 148.144532-188.84375 250.882813-250.886719l25.15625-15.164062c12.484375-7.523438 26.78125-11.496094 41.355469-11.5v21.332031c-10.691406 0-21.183594 2.917969-30.34375 8.4375l-25.144532 15.167969c-99.777343 60.242187-183.394531 143.859374-243.636718 243.632812zm0 0" fill="#fdbc34"/><path d="m104.464844 468.136719c-28.019532.082031-54.910156-11.058594-74.667969-30.925781l30.167969-30.167969c11.777344 11.839843 27.800781 18.476562 44.5 18.425781 16.550781 0 32.355468-6.257812 43.34375-17.1875l58.375-68.988281c40.667968-47.972657 85.210937-92.519531 133.175781-133.1875l69.054687-58.417969c23.226563-23.332031 23.226563-63.25-1.304687-87.789062l30.167969-30.167969c41.175781 41.261719 41.175781 108.070312 0 149.332031l-70.34375 59.605469c-46.175782 39.148437-89.054688 82.027343-128.199219 128.207031l-59.613281 70.335938c-19.777344 19.835937-46.644532 30.964843-74.65625 30.925781zm0 0" fill="#f59707"/><path d="m102.414062 465.011719-15.085937-15.082031 149.335937-149.335938c112.9375-112.9375 169.65625-182.0625 189.664063-231.15625l19.75 8.0625c-21.144531 51.875-79.257813 123.117188-194.332031 238.179688zm0 0" fill="#ef7f00"/><path d="m82.433594 445.210938-19.300782-9.085938c.925782-2 24.101563-50.101562 130.863282-156.863281 40.988281-40.988281 78.136718-73.582031 110.90625-102.332031 50.863281-44.617188 87.605468-76.855469 100.09375-107.492188l19.75 8.0625c-14.386719 35.292969-52.71875 68.917969-105.769532 115.460938-32.53125 28.539062-69.398437 60.882812-109.898437 101.382812-103.28125 103.28125-126.425781 150.398438-126.644531 150.867188zm0 0" fill="#fdbc34"/><path d="m61.078125 442.054688-17.75-11.835938c12.511719-18.769531 23.179687-39.488281 34.46875-61.425781 26.125-50.769531 55.742187-108.324219 117.34375-154.519531 34.25-25.699219 46.398437-47.03125 59.242187-69.617188 17.800782-31.289062 36.195313-63.632812 113.050782-102.0625l9.542968 19.085938c-71.054687 35.519531-87.085937 63.695312-104.054687 93.519531-13.363281 23.488281-27.175781 47.78125-64.988281 76.136719-57.667969 43.257812-84.863282 96.101562-111.167969 147.21875-11.570313 22.488281-22.5 43.726562-35.6875 63.5zm0 0" fill="#ef7f00"/><path d="m61.078125 442.054688-17.75-11.835938c14.386719-21.570312 23.78125-45.90625 33.730469-71.65625 18.300781-47.34375 39.03125-101.007812 96.75-144.289062 30.675781-23.011719 46.5625-48.46875 63.394531-75.417969 27.824219-44.5625 56.59375-90.644531 153.40625-118.3125l5.855469 20.519531c-88.917969 25.398438-114.292969 66.054688-141.167969 109.09375-17.125 27.429688-34.832031 55.78125-68.695313 81.179688-52.8125 39.613281-71.53125 88.0625-89.636718 134.914062-10.386719 26.886719-20.199219 52.273438-35.886719 75.804688zm0 0" fill="#f59707"/><path d="m103.445312 254.429688-17.167968-12.6875c33.71875-45.59375 72.542968-87.175782 115.71875-123.9375l13.832031 16.25c-41.9375 35.699218-79.644531 76.085937-112.382813 120.375zm0 0" fill="#fdcf6d"/></svg>