<svg height="469.33334pt" viewBox="0 0 469.33334 469.33334" width="469.33334pt" xmlns="http://www.w3.org/2000/svg"><path d="m448 234.667969c-21.332031 106.664062-85.332031 213.332031-85.332031 213.332031s-21.335938 21.332031-128 21.332031c-106.667969 0-128-21.332031-128-21.332031s-64-106.667969-85.335938-213.332031zm0 0" fill="#c82e25"/><path d="m278.707031 467.917969-2.9375-42.5625c30.667969-2.125 47.710938-6.34375 55.855469-9.023438 11.738281-21.113281 41.261719-77.019531 61.105469-139h-72.730469v-42.664062h128.800781l-7 26.738281c-21.863281 83.480469-64.332031 160.894531-76.820312 182.644531l-3.324219 5.773438-6.011719 2.851562c-9.113281 4.335938-31.21875 12.085938-76.9375 15.242188zm0 0" fill="#af0a00"/><path d="m226.835938 469.234375c.019531-.003906.078124-.074219.101562-.074219 33.121094-46.261718 79.738281-127.890625 93.0625-234.492187h-298.667969c21.335938 106.664062 85.335938 213.332031 85.335938 213.332031s20.484375 20.191406 120.167969 21.234375zm0 0" fill="#d2514a"/><path d="m234.667969 384c-43.730469 0-80.855469-16.0625-104.3125-44.59375-7.828125 1.320312-15.753907 1.964844-23.6875 1.925781v-42.664062c10.101562 0 18.695312-1.21875 25.539062-3.625l16.386719-5.761719 8.957031 14.875c8.367188 13.886719 29.523438 37.175781 77.117188 37.175781 37.4375 0 58.457031-14.632812 69.5-26.914062l31.726562 28.539062c-23.8125 26.46875-59.757812 41.042969-101.226562 41.042969zm0 0" fill="#c82e25"/><path d="m362.667969 341.332031c-14.929688 0-28.28125-2.03125-39.6875-6.039062l14.144531-40.25c12.949219 4.550781 35.21875 5.925781 48.625-2l21.730469 36.707031c-12.980469 7.6875-28.0625 11.582031-44.8125 11.582031zm0 0" fill="#af0a00"/><path d="m426.667969 170.667969s-21.335938-170.667969-192-170.667969c-170.667969 0-192 170.667969-192 170.667969s-42.667969 0-42.667969 42.664062c0 42.667969 64 42.667969 64 42.667969s0 42.667969 42.667969 42.667969c42.664062 0 42.664062-21.335938 42.664062-21.335938 0 21.335938 21.335938 64 85.335938 64s85.332031-42.664062 85.332031-64c0 0 0 21.335938 42.667969 21.335938 42.664062 0 42.664062-42.667969 42.664062-42.667969s64 0 64-42.667969c0-42.664062-42.664062-42.664062-42.664062-42.664062zm0 0" fill="#fdcf6d"/><path d="m362.667969 277.332031c18.34375 0 21.238281-13.445312 21.332031-21.457031l.042969-21.144531 21.238281-.0625c.394531 0 42.71875-1.292969 42.71875-21.335938 0-18.34375-13.449219-21.238281-21.457031-21.332031l.25-21.332031c21.175781.25 42.539062 13.539062 42.539062 42.664062 0 33.742188-41.851562 42.65625-64 42.667969v.019531c-.25 21.28125-13.539062 42.648438-42.664062 42.648438zm0 0" fill="#fdbc34"/><path d="m129.792969 443.25c-42.96875-64.449219-64.355469-127.875-65.242188-130.542969l20.230469-6.75c.207031.625 21.449219 63.492188 62.761719 125.460938zm0 0" fill="#d96c66"/><path d="m170.667969 64c-106.667969 0-128 106.667969-128 106.667969s-42.667969 0-42.667969 42.664062c0 42.667969 64 42.667969 64 42.667969s0 42.667969 42.667969 42.667969c42.664062 0 42.664062-21.335938 42.664062-21.335938 0 21.335938 21.335938 64 85.335938 64 85.332031 0 106.664062-277.332031-64-277.332031zm0 0" fill="#fee3aa"/><path d="m234.667969 341.332031c-54.8125 0-78.105469-31.164062-83.855469-53.332031h-6.5c-6.03125 5.988281-17.886719 10.667969-37.644531 10.667969-29.125 0-42.417969-21.398438-42.667969-42.605469l-.074219-.0625c-22.050781 0-63.925781-8.917969-63.925781-42.667969 0-29.125 21.394531-42.414062 42.605469-42.664062l8.613281-.09375.230469 21.332031-8.605469.09375c-8.03125.09375-21.511719 2.988281-21.511719 21.332031 0 20.042969 42.324219 21.335938 42.75 21.335938l21 .1875.25 20.957031c.09375 8.042969 2.992188 21.519531 21.335938 21.519531 13.90625 0 19.84375-2.675781 21.800781-3.863281l1.019531-6.800781h41.179688v10.664062c0 9.011719 10.863281 42.667969 64 42.667969zm0 0" fill="#fdcf6d"/><path d="m213.332031 64c0 11.78125-9.550781 21.332031-21.332031 21.332031s-21.332031-9.550781-21.332031-21.332031 9.550781-21.332031 21.332031-21.332031 21.332031 9.550781 21.332031 21.332031zm0 0" fill="#993b17"/><path d="m320 42.667969c0 11.78125-9.550781 21.332031-21.332031 21.332031-11.785157 0-21.335938-9.550781-21.335938-21.332031 0-11.785157 9.550781-21.335938 21.335938-21.335938 11.78125 0 21.332031 9.550781 21.332031 21.335938zm0 0" fill="#993b17"/><path d="m277.332031 213.332031c0 11.785157-9.550781 21.335938-21.332031 21.335938s-21.332031-9.550781-21.332031-21.335938c0-11.78125 9.550781-21.332031 21.332031-21.332031s21.332031 9.550781 21.332031 21.332031zm0 0" fill="#ad6143"/><path d="m384 128c0 11.78125-9.550781 21.332031-21.332031 21.332031-11.785157 0-21.335938-9.550781-21.335938-21.332031s9.550781-21.332031 21.335938-21.332031c11.78125 0 21.332031 9.550781 21.332031 21.332031zm0 0" fill="#993b17"/><path d="m149.332031 149.332031c0 11.785157-9.550781 21.335938-21.332031 21.335938s-21.332031-9.550781-21.332031-21.335938c0-11.78125 9.550781-21.332031 21.332031-21.332031s21.332031 9.550781 21.332031 21.332031zm0 0" fill="#ad6143"/><path d="m288 117.332031c0 11.785157-9.550781 21.335938-21.332031 21.335938-11.785157 0-21.335938-9.550781-21.335938-21.335938 0-11.78125 9.550781-21.332031 21.335938-21.332031 11.78125 0 21.332031 9.550781 21.332031 21.332031zm0 0" fill="#fdcf6d"/><path d="m320 128c0 11.78125-9.550781 21.332031-21.332031 21.332031-11.785157 0-21.335938-9.550781-21.335938-21.332031s9.550781-21.332031 21.335938-21.332031c11.78125 0 21.332031 9.550781 21.332031 21.332031zm0 0" fill="#fdcf6d"/><path d="m213.332031 160c0 5.890625-4.773437 10.667969-10.664062 10.667969s-10.667969-4.777344-10.667969-10.667969 4.777344-10.667969 10.667969-10.667969 10.664062 4.777344 10.664062 10.667969zm0 0" fill="#fdcf6d"/><path d="m426.667969 234.667969c0 11.78125-9.550781 21.332031-21.335938 21.332031-11.78125 0-21.332031-9.550781-21.332031-21.332031 0-11.785157 9.550781-21.335938 21.332031-21.335938 11.785157 0 21.335938 9.550781 21.335938 21.335938zm0 0" fill="#fdbc34"/><path d="m298.667969 277.332031c0 11.785157-9.550781 21.335938-21.335938 21.335938-11.78125 0-21.332031-9.550781-21.332031-21.335938 0-11.78125 9.550781-21.332031 21.332031-21.332031 11.785157 0 21.335938 9.550781 21.335938 21.332031zm0 0" fill="#fdcf6d"/><path d="m362.667969 213.332031c0 11.785157-9.550781 21.335938-21.335938 21.335938-11.78125 0-21.332031-9.550781-21.332031-21.335938 0-11.78125 9.550781-21.332031 21.332031-21.332031 11.785157 0 21.335938 9.550781 21.335938 21.332031zm0 0" fill="#fdbc34"/><g fill="#fdcf6d"><path d="m149.332031 266.667969c0 5.890625-4.773437 10.664062-10.664062 10.664062s-10.667969-4.773437-10.667969-10.664062 4.777344-10.667969 10.667969-10.667969 10.664062 4.777344 10.664062 10.667969zm0 0"/><path d="m213.332031 234.667969c0 11.78125-9.550781 21.332031-21.332031 21.332031s-21.332031-9.550781-21.332031-21.332031c0-11.785157 9.550781-21.335938 21.332031-21.335938s21.332031 9.550781 21.332031 21.335938zm0 0"/><path d="m106.667969 106.667969c0 11.78125-9.550781 21.332031-21.335938 21.332031-11.78125 0-21.332031-9.550781-21.332031-21.332031 0-11.785157 9.550781-21.335938 21.332031-21.335938 11.785157 0 21.335938 9.550781 21.335938 21.335938zm0 0"/><path d="m149.332031 74.667969c0 5.890625-4.773437 10.664062-10.664062 10.664062s-10.667969-4.773437-10.667969-10.664062 4.777344-10.667969 10.667969-10.667969 10.664062 4.777344 10.664062 10.667969zm0 0"/></g></svg>