<svg height="469pt" viewBox="0 -21 469.33334 469" width="469pt" xmlns="http://www.w3.org/2000/svg"><path d="m469.332031 202.273438c0-111.621094-105.0625-202.105469-234.664062-202.105469-129.605469 0-234.667969 90.484375-234.667969 202.105469v22.453124c0 111.621094 105.0625 202.105469 234.667969 202.105469 129.601562 0 234.664062-90.484375 234.664062-202.105469zm-234.664062 67.367187c-44.742188 0-82.917969-23.25-98.757813-56.140625 15.839844-32.890625 54.015625-56.140625 98.757813-56.140625 44.738281 0 82.914062 23.25 98.753906 56.140625-15.839844 32.890625-54.015625 56.140625-98.753906 56.140625zm0 0" fill="#fdbc34"/><path d="m234.667969 426.832031c-129.398438 0-234.667969-90.664062-234.667969-202.101562v-22.460938h42.667969v22.460938c0 87.914062 86.125 159.4375 192 159.4375s192-71.523438 192-159.4375v-22.460938h42.664062v22.460938c0 111.4375-105.269531 202.101562-234.664062 202.101562zm0 0" fill="#f59707"/><path d="m448 128.167969c-21.332031-21.335938 0-42.667969-21.332031-64-15.210938-15.210938-41.8125-11.59375-64-21.335938-5.945313-4.042969-18.449219-18.449219-21.335938-21.332031-21.332031-21.332031-106.664062-21.332031-106.664062-21.332031h-42.667969c-42.667969 0-64 21.332031-85.332031 21.332031-21.335938 0-42.667969 21.332031-42.667969 21.332031s-21.332031 21.335938-20.882812 42.667969c0 0-.449219 21.332031-21.785157 42.667969-21.332031 21.332031-21.332031 42.664062-21.332031 42.664062s0 21.335938 21.332031 42.667969c3.957031 3.808594 6.808594 8.617188 8.253907 13.914062.277343.78125.46875 1.597657.761718 2.371094 2.804688 15.902344-9.015625 31.808594-9.015625 47.714844 0 21.332031 21.335938 21.332031 21.335938 21.332031 21.332031 0 21.332031 21.335938 21.332031 21.335938 0 21.332031 21.332031 21.332031 21.332031 21.332031 21.335938 0 21.335938 21.332031 21.335938 21.332031 0 21.335938 21.332031 21.335938 21.332031 21.335938s21.332031 0 21.332031-21.335938c0-21.332031 21.335938-21.332031 21.335938-21.332031 21.332031 0 21.332031 21.332031 21.332031 21.332031s0 42.667969 42.667969 42.667969c42.664062 0 42.664062-42.667969 42.664062-42.667969 0-21.332031 21.335938-21.332031 21.335938-21.332031s21.332031 0 21.332031 21.332031c0 21.335938 21.332031 21.335938 21.332031 21.335938 21.335938 0 21.335938-21.335938 21.335938-21.335938v-21.332031c0-21.332031 21.332031-21.332031 21.332031-21.332031s21.332031 0 21.332031-21.335938c0-21.332031 21.335938-21.332031 21.335938-21.332031 21.332031 0 21.332031-21.332031 21.332031-21.332031 0-20.570313 21.332031-21.335938 21.332031-64 0-21.335938 0-42.667969-21.332031-64zm-106.667969 32c0 41.234375-47.753906 74.664062-106.664062 74.664062-58.910157 0-106.667969-33.429687-106.667969-74.664062 0-41.238281 47.757812-74.667969 106.667969-74.667969 58.910156 0 106.664062 33.429688 106.664062 74.667969zm0 0" fill="#993b17"/><path d="m234.667969 298.832031c-95.710938 0-170.667969-60.914062-170.667969-138.664062 0-5.226563.347656-10.445313 1.042969-15.625l21.125 2.832031c-.5625 4.242188-.839844 8.515625-.835938 12.792969 0 65.789062 65.605469 117.332031 149.335938 117.332031 83.726562 0 149.332031-51.542969 149.332031-117.332031h21.332031c0 77.75-74.957031 138.664062-170.664062 138.664062zm0 0" fill="#ad6143"/><path d="m234.667969 298.832031c-42 0-82.085938-12-112.855469-33.8125l12.332031-17.414062c27.210938 19.269531 62.898438 29.894531 100.523438 29.894531 34.5625 0 66.769531-8.644531 93.144531-25l11.25 18.125c-29.769531 18.457031-65.875 28.207031-104.394531 28.207031zm0 0" fill="#c28a73"/><path d="m398.207031 95.625c-2.332031-1.082031-11.539062-2.769531-15-3.394531-11.457031-2.085938-24.1875-4.398438-37.707031-10.335938l-6.8125-3.769531c-7.917969-5.375-15.75-13.644531-25.167969-23.875l-1.25-1.417969c-6.957031-3.707031-39.6875-9.957031-77.625-10h-42.644531c-16.542969 0-27.855469 4.710938-40.980469 10.148438-12.6875 5.25-27.039062 11.1875-44.351562 11.1875-4.511719 2.390625-8.695313 5.34375-12.460938 8.789062-4.539062 4.6875-8.144531 11.585938-8.4375 13.5625l-21.3125-.332031c0-9.707031 8.773438-22.25 14.667969-28.3125 5.1875-5.042969 18.417969-15.042969 27.542969-15.042969 13.082031 0 24.289062-4.644531 36.164062-9.5625 13.960938-5.789062 28.375-11.769531 49.167969-11.769531h42.667969c28.8125.042969 77.625 4.6875 90.957031 14.582031l3.730469 3.855469c8.0625 8.75 15.3125 16.457031 21.3125 20.542969l3.4375 1.894531c11.207031 4.917969 22.601562 7 32.664062 8.8125 15.1875 2.769531 21.148438 4.394531 24.8125 8.0625l-7.539062 7.542969zm0 0" fill="#ad6143"/><path d="m345.480469 81.875-6.792969-3.75c-7.917969-5.375-15.75-13.644531-25.167969-23.875l-1.25-1.417969c-6.957031-3.707031-39.664062-9.957031-77.625-10h-42.644531v-21.332031h42.667969c28.789062.042969 77.625 4.6875 90.957031 14.582031l3.730469 3.855469c8.0625 8.75 15.3125 16.457031 21.3125 20.542969l3.4375 1.894531zm0 0" fill="#c28a73"/><path d="m234.667969 405.5c-29.125 0-42.417969-21.394531-42.667969-42.605469 0-.332031-.25-21.394531-21.332031-21.394531-.210938 0-21.335938.25-21.335938 21.332031 0 12.625-8.3125 21-21.1875 21.335938-13.0625-.335938-21.476562-8.917969-21.476562-21.335938 0-.207031-.25-21.332031-21.335938-21.332031-13.0625-.332031-21.332031-8.707031-21.332031-21.332031 0-.210938-.25-21.335938-21.332031-21.335938-13.0625-.332031-21.335938-8.707031-21.335938-21.332031 0-7.1875 2.417969-14.394531 4.730469-21.355469 2.894531-8.6875 5.832031-17.601562 4.292969-26.351562l-.5-1.542969c-1.441407-5.601562-4.390625-10.703125-8.523438-14.75-20.125-20.125-21.269531-40.25-21.332031-42.480469.167969-4.394531 1.894531-23.414062 21.332031-42.851562 20.917969-20.917969 21.773438-41.792969 21.792969-42.6875l21.332031.457031c-.0625 3.0625-1.375 30.644531-28.039062 57.3125-14.292969 14.292969-15.085938 27.75-15.085938 27.875.023438 0 .835938 13.042969 15.085938 27.292969 6.746093 6.628906 11.582031 14.957031 14 24.101562l.707031 2.523438c2.707031 15.101562-1.4375 27.644531-4.769531 37.707031-1.835938 5.5-3.6875 11.019531-3.6875 14.75 27.707031 0 42.664062 21.980469 42.664062 42.667969 27.710938 0 42.667969 21.976562 42.667969 42.664062 0-27.707031 21.980469-42.664062 42.667969-42.664062 27.707031 0 42.664062 21.957031 42.664062 42.601562.085938 7.917969 2.980469 21.398438 21.335938 21.398438 18.332031 0 21.226562-13.4375 21.332031-21.460938 0-27.582031 21.980469-42.539062 42.667969-42.539062s42.664062 14.957031 42.664062 42.664062v-21.332031c0-27.707031 21.917969-42.667969 42.542969-42.667969.125-27.707031 22.105469-42.664062 42.792969-42.664062 0-15.105469 6.726562-24.730469 11.625-31.730469 5.226562-7.457031 9.707031-13.832031 9.707031-32.269531 0-19.648438 0-33.835938-15.082031-48.917969-16.917969-16.917969-16.917969-35.0625-16.917969-47.082031 0-9.710938-.1875-12.6875-4.417969-16.917969l15.085938-15.082031c10.664062 10.664062 10.664062 21.519531 10.664062 32 0 10.976562 0 21.332031 10.667969 32 21.332031 21.332031 21.332031 43.019531 21.332031 64 0 25.164062-7.5 35.851562-13.519531 44.4375-4.207031 6.019531-7.8125 11.164062-7.8125 19.5625-.332031 13.0625-8.707031 21.332031-21.332031 21.332031-.210938 0-21.335938.25-21.335938 21.332031 0 12.625-8.3125 21-21.1875 21.335938-.476562 0-21.476562.25-21.476562 21.332031v21.332031c-.335938 13.0625-8.710938 21.335938-21.335938 21.335938-13.0625-.335938-21.332031-8.710938-21.332031-21.335938 0-21.082031-21.125-21.332031-21.332031-21.332031-.210938 0-21.335938.25-21.335938 21.332031-.25 21.292969-13.539062 42.667969-42.664062 42.667969zm0 0" fill="#8b2800"/><g fill="#7d1a00"><path d="m128 277.5c0 11.78125-9.550781 21.332031-21.332031 21.332031-11.785157 0-21.335938-9.550781-21.335938-21.332031s9.550781-21.332031 21.335938-21.332031c11.78125 0 21.332031 9.550781 21.332031 21.332031zm0 0"/><path d="m170.667969 64.167969c0 11.78125-9.550781 21.332031-21.335938 21.332031-11.78125 0-21.332031-9.550781-21.332031-21.332031 0-11.785157 9.550781-21.335938 21.332031-21.335938 11.785157 0 21.335938 9.550781 21.335938 21.335938zm0 0"/><path d="m85.332031 149.5c0 11.78125-9.550781 21.332031-21.332031 21.332031s-21.332031-9.550781-21.332031-21.332031 9.550781-21.332031 21.332031-21.332031 21.332031 9.550781 21.332031 21.332031zm0 0"/><path d="m426.667969 234.832031c0 11.785157-9.550781 21.335938-21.335938 21.335938-11.78125 0-21.332031-9.550781-21.332031-21.335938 0-11.78125 9.550781-21.332031 21.332031-21.332031 11.785157 0 21.335938 9.550781 21.335938 21.332031zm0 0"/><path d="m320 298.832031c0 11.785157-9.550781 21.335938-21.332031 21.335938-11.785157 0-21.335938-9.550781-21.335938-21.335938 0-11.78125 9.550781-21.332031 21.335938-21.332031 11.78125 0 21.332031 9.550781 21.332031 21.332031zm0 0"/><path d="m213.332031 277.5c0 11.78125-9.550781 21.332031-21.332031 21.332031s-21.332031-9.550781-21.332031-21.332031 9.550781-21.332031 21.332031-21.332031 21.332031 9.550781 21.332031 21.332031zm0 0"/><path d="m256 21.5c0 11.78125-9.550781 21.332031-21.332031 21.332031-11.785157 0-21.335938-9.550781-21.335938-21.332031s9.550781-21.332031 21.335938-21.332031c11.78125 0 21.332031 9.550781 21.332031 21.332031zm0 0"/><path d="m362.667969 42.832031c0 11.785157-9.550781 21.335938-21.335938 21.335938-11.78125 0-21.332031-9.550781-21.332031-21.335938 0-11.78125 9.550781-21.332031 21.332031-21.332031 11.785157 0 21.335938 9.550781 21.335938 21.332031zm0 0"/><path d="m426.667969 128.167969c0 11.78125-9.550781 21.332031-21.335938 21.332031-11.78125 0-21.332031-9.550781-21.332031-21.332031 0-11.785157 9.550781-21.335938 21.332031-21.335938 11.785157 0 21.335938 9.550781 21.335938 21.335938zm0 0"/></g><path d="m234.667969 256.167969c-70.585938 0-128-43.0625-128-96h21.332031c0 41.164062 47.855469 74.664062 106.667969 74.664062s106.664062-33.5 106.664062-74.664062h21.335938c0 52.9375-57.417969 96-128 96zm0 0" fill="#8b2800"/><path d="m341.332031 160.167969h-42.664062c0-12.75-25.523438-32-64-32-38.480469 0-64 19.25-64 32h-42.667969c0-41.167969 47.855469-74.667969 106.667969-74.667969s106.664062 33.5 106.664062 74.667969zm0 0" fill="#f59707"/></svg>