<svg height="469pt" viewBox="-96 0 469 469.33334" width="469pt" xmlns="http://www.w3.org/2000/svg"><path d="m128.167969 469.332031c-64 0-128-64-128-170.664062 0-128 85.332031-234.667969 149.332031-234.667969 42.667969 0 64 21.332031 64 64s-21.332031 64-21.332031 106.667969c0 64 42.664062 64 42.664062 128 0 85.332031-64 106.664062-106.664062 106.664062zm0 0" fill="#c11107"/><path d="m192.167969 341.332031c0-64-42.667969-64-42.667969-128 0-42.664062 21.332031-64 21.332031-106.664062 0-17.777344-3.925781-31.628907-11.332031-42-3.257812-.296875-6.445312-.667969-10-.667969-64 0-149.332031 106.667969-149.332031 234.667969 0 57.019531 18.320312 101.773437 45.132812 131.125 10.207031 11.175781 24.824219 18.167969 39.960938 18.207031h.238281c42.667969 0 106.667969-21.332031 106.667969-106.667969zm0 0" fill="#cd3e36"/><path d="m44.230469 367.949219c-8-20.617188-12.0625-43.929688-12.0625-69.28125-.003907-18.78125 2.011719-37.507813 6.007812-55.855469l41.6875 9.082031c-3.347656 15.367188-5.03125 31.046875-5.03125 46.773438 0 20.050781 3.085938 38.164062 9.167969 53.84375zm0 0" fill="#de807a"/><path d="m128.167969 213.332031h-21.335938v-44.8125c-16.488281-3.5-30.3125-11.25-41.195312-23.09375l15.707031-14.4375c9.324219 10.148438 21.875 16.15625 37.324219 17.84375l9.5 1.042969v42.125c.6875-.011719 17.476562-.324219 36.039062-15.363281l13.4375 16.582031c-24.144531 19.550781-46.957031 20.113281-49.476562 20.113281zm0 0" fill="#c11107"/><path d="m64.167969 85.332031s0 64 64 64v42.667969s21.332031 0 42.664062-21.332031c0 0 21.335938 21.332031 42.667969 21.332031 0 0 21.332031-42.667969 21.332031-85.332031 0-42.667969-21.332031-64-64-64-42.664062 0-85.332031 21.332031-106.664062 42.664062zm0 0" fill="#fdab00"/><path d="m128.167969 194.011719v-44.679688c-42.710938 0-60.90625-30.28125-63.699219-58.613281l21.230469-2.082031c1.445312 14.695312 8.882812 39.363281 42.46875 39.363281h21.332031v33.082031c2.199219-1.695312 4.289062-3.53125 6.25-5.5l15.0625-15 15.074219 14.960938c4.550781 4.339843 9.648437 8.070312 15.164062 11.09375 5.398438-14.449219 12.449219-37.605469 12.449219-59.96875 0-31.105469-11.5625-42.667969-42.667969-42.667969v-21.332031c43.0625 0 64 20.9375 64 64 0 31.207031-11.289062 62.269531-18.007812 78.007812l-3.585938 8.355469-8.820312-2.207031c-17.511719-4.386719-32.90625-19.492188-33.5625-20.125l-.023438-.03125-.007812.019531c-8.007813 8.175781-17.734375 14.457031-28.480469 18.386719zm0 0" fill="#f59707"/><path d="m234.832031 106.667969h-21.332031c0-26.78125-9.375-34.542969-17.542969-38.3125l8.9375-19.375c20.148438 9.300781 29.9375 28.175781 29.9375 57.6875zm0 0" fill="#ef7f00"/><path d="m192.167969 64s0-21.332031 21.332031-42.667969c21.332031-21.332031 42.667969-21.332031 42.667969-21.332031s21.332031 0 21.332031 21.332031c0 21.335938-21.332031 21.335938-21.332031 21.335938s-42.667969 0-42.667969 21.332031zm0 0" fill="#fdab00"/><path d="m214.855469 57.6875c.097656-.203125.285156-.238281.398437-.417969 7.824219-14.417969 40.128906-14.597656 40.78125-14.601562l-.003906-21.335938c-11.042969 0-47.875 1.964844-60.199219 26.796875-3.53125 9.332032-3.664062 15.871094-3.664062 15.871094h21.332031c.039062-2.175781.59375-4.308594 1.621094-6.226562zm0 0" fill="#f59707"/><path d="m102.082031 104.875-11.832031-17.75c1.417969-.949219 35.207031-23.125 80.582031-23.125v21.332031c-38.988281 0-68.457031 19.34375-68.75 19.542969zm0 0" fill="#fdcf6d"/></svg>