<svg height="469pt" viewBox="0 -21 469.33334 469" width="469pt" xmlns="http://www.w3.org/2000/svg"><path d="m469.332031 170.832031c0-82.472656-85.332031-170.664062-234.664062-170.664062-170.667969 0-234.667969 109.523437-234.667969 192v64c0 82.472656 83.730469 170.664062 213.332031 170.664062 170.667969 0 256-109.523437 256-192zm-166.25 10.667969c13.128907-6.558594 30.109375-10.667969 48.917969-10.667969s35.789062 4.109375 48.917969 10.667969c-13.128907 6.558594-30.109375 10.667969-48.917969 10.667969s-35.789062-4.109375-48.917969-10.667969zm0 0" fill="#3b292a"/><path d="m303.082031 181.5c13.128907-6.558594 30.109375-10.667969 48.917969-10.667969s35.789062 4.109375 48.917969 10.667969c-13.128907 6.558594-30.109375 10.667969-48.917969 10.667969h117.332031v-21.335938c0-82.472656-85.332031-170.664062-234.664062-170.664062-170.667969 0-234.667969 109.523437-234.667969 192h352c-18.808594 0-35.789062-4.109375-48.917969-10.667969zm0 0" fill="#7d1a00"/><path d="m234.667969.167969c-170.667969 0-234.667969 109.523437-234.667969 192 0 82.472656 83.730469 170.664062 213.332031 170.664062 170.667969 0 256-109.523437 256-192 0-82.472656-85.332031-170.664062-234.664062-170.664062zm117.332031 192c-41.238281 0-74.667969-19.105469-74.667969-42.667969 0-23.566406 33.429688-42.667969 74.667969-42.667969s74.667969 19.101563 74.667969 42.667969c0 23.5625-33.429688 42.667969-74.667969 42.667969zm0 0" fill="#cd3e36"/><path d="m21.332031 170.832031h-10.664062v-21.332031h10.664062c3.792969-.4375 17.1875-8.292969 25.1875-12.980469 22.648438-13.25 50.730469-29.6875 81.480469-29.6875 23.980469 0 46.957031 5.75 69.167969 11.3125 20.75 5.179688 40.1875 10.023438 58.832031 10.023438h10.667969v21.332031h-10.667969c-21.269531 0-41.9375-5.15625-63.8125-10.613281-21.167969-5.292969-42.832031-10.71875-64.1875-10.71875-24.957031 0-50.269531 14.8125-70.605469 26.71875-16.914062 9.90625-27.644531 15.945312-36.0625 15.945312zm0 0" fill="#c82e25"/><path d="m42.667969 192.167969h-21.335938c0-135 139.542969-170.667969 213.335938-170.667969v21.332031c-66.417969 0-192 31.210938-192 149.335938zm0 0" fill="#d96c66"/><path d="m213.332031 362.832031c-127.601562 0-213.332031-88.25-213.332031-170.664062h21.332031c0 72.113281 77.148438 149.332031 192 149.332031 160.085938 0 234.667969-101.84375 234.667969-170.667969h21.332031c0 77.429688-81.351562 192-256 192zm0 0" fill="#7d1a00"/><g fill="#ecb8b5"><path d="m126.5 320.0625c-80.605469-11.511719-103.8125-89.644531-104.75-92.96875l20.5-5.886719c.8125 2.78125 20.5625 68.210938 87.25 77.730469zm0 0"/><path d="m85.332031 181.519531-21.332031-.019531c0-1.136719 1.292969-114.40625 113.375-159.238281l7.917969 19.8125c-98.398438 39.351562-99.9375 135.382812-99.960938 139.445312zm0 0"/><path d="m277.332031 341.5c-157.332031 0-170.519531-136.40625-170.625-137.78125l21.25-1.792969c.4375 4.824219 12 118.242188 149.375 118.242188zm0 0"/></g><path d="m151.355469 295.769531c-39.855469-39.550781-44.480469-89.925781-44.648438-92.050781l21.25-1.800781c.042969.445312 4.335938 44.863281 38.4375 78.707031zm0 0" fill="#d96c66"/><path d="m362.667969 256.167969c-114.75 0-127.792969-93.730469-127.917969-94.679688l21.167969-2.6875c.414062 3.105469 11.226562 76.03125 106.75 76.03125zm0 0" fill="#ecb8b5"/><path d="m279.832031 232.90625c-39.1875-27.675781-44.851562-69.644531-45.082031-71.417969l21.167969-2.6875c.039062.34375 4.9375 34.59375 36.207031 56.6875zm0 0" fill="#d96c66"/><path d="m320 298.832031c-124.644531 0-148.894531-114.09375-149.125-115.238281l20.917969-4.207031c.8125 4 21.332031 98.113281 128.207031 98.113281zm0 0" fill="#ecb8b5"/><path d="m212.875 258.074219c-33.332031-32.617188-41.667969-72.792969-42-74.480469l20.917969-4.207031c.0625.351562 7.539062 35.582031 36 63.4375zm0 0" fill="#d96c66"/><path d="m170.625 161.050781-21.25-1.769531c.105469-1.375 13.292969-137.78125 170.625-137.78125v21.332031c-137.9375 0-148.957031 113.398438-149.375 118.21875zm0 0" fill="#ecb8b5"/><path d="m234.332031 162.78125-20.6875-5.199219c.25-.9375 24.4375-93.414062 117.023438-93.414062 66.5 0 90.375 21.957031 92.875 24.457031l-15.085938 15.082031c-.0625-.050781-20.1875-18.207031-77.789062-18.207031-75.75 0-95.523438 74.125-96.335938 77.28125zm0 0" fill="#ecb8b5"/><path d="m128 234.832031c-24.832031 0-43.5625-6.25-60.082031-11.769531-15.417969-5.136719-28.730469-9.5625-46.585938-9.5625h-10.664062v-21.332031h10.664062c21.335938 0 37.585938 5.414062 53.3125 10.65625 16.460938 5.488281 32 10.675781 53.355469 10.675781 21.332031 0 43.019531-10.84375 64-21.332031 21.9375-10.96875 42.667969-21.335938 64-21.335938h10.667969v21.335938h-10.667969c-16.292969 0-34.832031 9.269531-54.457031 19.082031-23.1875 11.59375-47.167969 23.582031-73.542969 23.582031zm0 0" fill="#d96c66"/><path d="m21.332031 170.832031c21.335938 0 64-42.664062 106.667969-42.664062s85.332031 21.332031 128 21.332031v21.332031c-42.667969 0-85.332031 42.667969-128 42.667969s-64-21.332031-106.667969-21.332031zm0 0" fill="#ecb8b5"/><path d="m128 213.5c-21.332031 0-37.582031-5.417969-53.3125-10.65625-13.875-4.625-26.957031-8.988281-43.519531-10.292969l1.664062-21.269531c19.1875 1.511719 34.125 6.5 48.585938 11.324219 15.414062 5.132812 28.726562 9.5625 46.582031 9.5625 16.292969 0 34.832031-9.273438 54.457031-19.085938 19.5-9.75 39.667969-19.832031 61.460938-22.757812l2.832031 21.144531c-18.25 2.449219-36.8125 11.730469-54.75 20.699219-21.9375 10.96875-42.667969 21.332031-64 21.332031zm0 0" fill="#e59b96"/><path d="m448 149.5h-21.332031c0-23.53125-33.5-42.667969-74.667969-42.667969s-74.667969 19.136719-74.667969 42.667969h-21.332031c0-36.488281 41.269531-64 96-64s96 27.511719 96 64zm0 0" fill="#c11107"/></svg>