<svg height="469pt" viewBox="0 0 469.334 469" width="469pt" xmlns="http://www.w3.org/2000/svg"><path d="m21.335938 213.5v-128h85.332031v21.332031h42.667969v-42.664062h213.332031v-21.335938h85.332031v170.667969zm0 0" fill="#cc4900"/><path d="m256 .167969h85.332031v320h-85.332031zm0 0" fill="#e76400"/><path d="m277.332031 21.5h21.335938v320h-21.335938zm0 0" fill="#cc4900"/><path d="m42.667969 42.832031h85.332031v298.667969h-85.332031zm0 0" fill="#f59707"/><path d="m64 64.167969h21.332031v298.664062h-21.332031zm0 0" fill="#fdab00"/><path d="m64 106.832031h21.332031v106.667969h-21.332031zm0 0" fill="#fdbc34"/><path d="m42.667969 140.667969v72.832031h85.332031v-85.332031h-72.832031zm0 0" fill="#ef7f00"/><path d="m402.96875 59.527344 60.339844 60.339844-226.277344 226.273437-60.335938-60.339844zm0 0" fill="#f59707"/><path d="m323.125 173.957031 85.332031-85.332031 15.085938 15.082031-85.335938 85.335938zm0 0" fill="#fdbc34"/><path d="m277.335938 305.839844 21.332031-21.332032v-120.679687l-21.332031 21.332031zm0 0" fill="#ef7f00"/><path d="m192 21.5h85.332031v320h-85.332031zm0 0" fill="#fdab00"/><path d="m106.667969.167969h85.332031v320h-85.332031zm0 0" fill="#fdbc34"/><path d="m128 21.5h21.332031v298.667969h-21.332031zm0 0" fill="#fdcf6d"/><path d="m128 64.167969h21.332031v42.664062h-21.332031zm0 0" fill="#fee3aa"/><path d="m170.667969.167969h21.332031v320h-21.332031zm0 0" fill="#fdab00"/><path d="m192 42.832031h21.332031v277.335938h-21.332031zm0 0" fill="#f59707"/><path d="m248.992188 213.5h120.683593l64.914063-64.914062-20.421875-20.417969h-79.839844zm0 0" fill="#ef7f00"/><path d="m277.335938 213.5h21.332031v-49.671875l-21.332031 21.332031zm0 0" fill="#e76400"/><path d="m192 184.410156v29.089844h85.332031v-28.988281c-11.332031 4.59375-25.371093 7.65625-42.664062 7.65625-17.324219 0-31.316407-3.125-42.667969-7.757813zm0 0" fill="#f59707"/><path d="m106.667969 213.5h85.332031v-29.089844c-33.207031-13.554687-43.269531-40.300781-43.761719-41.660156l-4.863281-14.582031h-36.707031zm0 0" fill="#f59707"/><path d="m405.332031 149.5h-64s-21.332031 64-106.664062 64c-85.335938 0-106.667969-64-106.667969-64h-64l-64 64 42.667969 213.332031 42.664062 42.667969s64-21.332031 149.335938-21.332031c85.332031 0 149.332031 21.332031 149.332031 21.332031l42.667969-42.667969 42.664062-213.332031zm0 0" fill="#c11107"/><path d="m104.875 441.894531-17.3125-259.6875 21.292969-1.414062 15.675781 235.238281c36.304688-6.917969 73.175781-10.441406 110.136719-10.53125v21.332031c-39.574219.097657-79.027344 4.28125-117.742188 12.492188zm0 0" fill="#c82e25"/><path d="m91.125 235.65625 21.292969-1.417969 7.101562 106.550781-21.289062 1.421876zm0 0" fill="#d2514a"/><path d="m384.019531 469.21875-12.570312-3.40625c-24.335938-6.582031-74.46875-17.644531-136.78125-17.644531v-21.335938c43.703125.027344 87.253906 5.125 129.78125 15.1875l18.070312-271.1875h-27.695312c-12.992188 23.117188-46.40625 64-120.15625 64-80.710938 0-113.117188-48.96875-123.3125-70.019531l19.207031-9.292969c8.4375 17.429688 35.46875 57.980469 104.105469 57.980469 68.632812 0 95.664062-40.550781 104.101562-57.980469l2.917969-6.019531h63.644531zm0 0" fill="#af0a00"/><path d="m298.667969 320.167969c0 35.34375-28.65625 64-64 64-35.347657 0-64-28.65625-64-64 0-35.347657 28.652343-64 64-64 35.34375 0 64 28.652343 64 64zm0 0" fill="#fdab00"/><path d="m405.335938 149.5-21.335938 320 42.667969-42.667969 42.667969-213.332031zm0 0" fill="#af0a00"/><path d="m64 149.5 21.335938 320-42.667969-42.667969-42.667969-213.332031zm0 0" fill="#d2514a"/></svg>