<svg height="469pt" viewBox="-85 0 469 469.33334" width="469pt" xmlns="http://www.w3.org/2000/svg"><path d="m192.167969 192v-42.667969c0-42.664062-42.667969-64-42.667969-64v-42.664062h-106.667969v42.664062s-42.664062 21.335938-42.664062 64v42.667969c0 21.332031 21.332031 21.332031 21.332031 21.332031v21.335938s-21.332031 0-21.332031 21.332031v106.667969s0 21.332031 21.332031 21.332031v21.332031s-21.332031 0-21.332031 21.335938v21.332031c0 21.332031 21.332031 21.332031 21.332031 21.332031h149.332031s21.335938 0 21.335938-21.332031v-21.332031c0-21.335938-21.335938-21.335938-21.335938-21.335938v-21.332031c21.335938 0 21.335938-21.332031 21.335938-21.332031v-106.667969c0-21.332031-21.335938-21.332031-21.335938-21.332031v-21.335938s21.335938 0 21.335938-21.332031zm0 0" fill="#afa8a8"/><path d="m128.167969 448v-21.332031c0-21.335938-21.335938-21.335938-21.335938-21.335938v-21.332031c21.335938 0 21.335938-21.332031 21.335938-21.332031v-106.667969c0-21.332031-21.335938-21.332031-21.335938-21.332031v-21.335938s21.335938 0 21.335938-21.332031v-42.667969c0-42.664062-42.667969-64-42.667969-64v-42.664062h-42.667969v42.664062s-42.664062 21.335938-42.664062 64v42.667969c0 21.332031 21.332031 21.332031 21.332031 21.332031v21.335938s-21.332031 0-21.332031 21.332031v106.667969s0 21.332031 21.332031 21.332031v21.332031s-21.332031 0-21.332031 21.335938v21.332031c0 21.332031 21.332031 21.332031 21.332031 21.332031h85.332031s21.335938 0 21.335938-21.332031zm0 0" fill="#d5d1d1"/><path d="m42.832031 192h-21.332031v-42.667969c0-27.445312 27.699219-43.195312 30.855469-44.90625l11.601562-6.101562.210938-13.15625 21.332031.332031-.417969 25.800781-22.6875 11.949219c-.101562.050781-19.5625 10.988281-19.5625 26.082031zm0 0" fill="#edebeb"/><path d="m21.5 213.332031v21.335938s-21.332031 0-21.332031 21.332031v106.667969s0 21.332031 21.332031 21.332031v21.332031s-21.332031 0-21.332031 21.335938v21.332031c0 21.332031 21.332031 21.332031 21.332031 21.332031h149.332031s21.335938 0 21.335938-21.332031v-21.332031c0-21.335938-21.335938-21.335938-21.335938-21.335938v-21.332031c21.335938 0 21.335938-21.332031 21.335938-21.332031v-106.667969c0-21.332031-21.335938-21.332031-21.335938-21.332031v-21.335938zm0 0" fill="#edebeb"/><path d="m.167969 256h192v106.667969h-192zm0 0" fill="#cd3e36"/><path d="m42.832031 0h106.667969c11.78125 0 21.332031 9.550781 21.332031 21.332031v42.667969h-149.332031v-42.667969c0-11.78125 9.550781-21.332031 21.332031-21.332031zm0 0" fill="#c11107"/><path d="m85.5 0h-42.667969c-11.78125 0-21.332031 9.550781-21.332031 21.332031v42.667969h85.332031v-42.667969c0-11.78125-9.550781-21.332031-21.332031-21.332031zm0 0" fill="#cd3e36"/><path d="m149.5 213.332031h149.332031v234.667969c0 11.78125-9.550781 21.332031-21.332031 21.332031h-106.667969c-11.78125 0-21.332031-9.550781-21.332031-21.332031zm0 0" fill="#afa8a8"/><path d="m277.5 256v192h-42.667969v21.332031h42.667969c11.78125 0 21.332031-9.550781 21.332031-21.332031v-192zm0 0" fill="#988f8f"/><path d="m213.5 448v-234.667969h-64v234.667969c0 11.78125 9.550781 21.332031 21.332031 21.332031h21.335938c11.78125 0 21.332031-9.550781 21.332031-21.332031zm0 0" fill="#d5d1d1"/><path d="m170.832031 426.667969v-170.667969h106.667969v170.667969zm0 0" fill="#d5d1d1"/><path d="m170.832031 426.667969v-170.667969h42.667969v170.667969zm0 0" fill="#edebeb"/><path d="m149.5 256h42.667969v106.667969h-42.667969zm0 0" fill="#cd3e36"/><path d="m42.832031 21.332031h21.335938v42.667969h-21.335938zm0 0" fill="#c11107"/><path d="m64.167969 21.332031h21.332031v42.667969h-21.332031zm0 0" fill="#d2514a"/><path d="m21.5 21.332031h21.332031v42.667969h-21.332031zm0 0" fill="#d2514a"/><path d="m85.5 21.332031h21.332031v42.667969h-21.332031zm0 0" fill="#c11107"/><path d="m106.832031 21.332031h21.335938v42.667969h-21.335938zm0 0" fill="#c82e25"/><path d="m128.167969 21.332031h21.332031v42.667969h-21.332031zm0 0" fill="#af0a00"/><path d="m21.5 213.332031h85.332031v21.335938h-85.332031zm0 0" fill="#c5c0c0"/><path d="m21.5 384h85.332031v21.332031h-85.332031zm0 0" fill="#d5d1d1"/><path d="m85.5 64h64v21.332031h-64zm0 0" fill="#988f8f"/><path d="m277.5 288c0 5.890625-4.777344 10.667969-10.667969 10.667969s-10.664062-4.777344-10.664062-10.667969 4.773437-10.667969 10.664062-10.667969 10.667969 4.777344 10.667969 10.667969zm0 0" fill="#edebeb"/><g fill="#d5d1d1"><path d="m85.5 437.332031c0 5.890625-4.777344 10.667969-10.667969 10.667969s-10.664062-4.777344-10.664062-10.667969 4.773437-10.664062 10.664062-10.664062 10.667969 4.773437 10.667969 10.664062zm0 0"/><path d="m64.167969 416c0 5.890625-4.777344 10.667969-10.667969 10.667969s-10.667969-4.777344-10.667969-10.667969 4.777344-10.667969 10.667969-10.667969 10.667969 4.777344 10.667969 10.667969zm0 0"/><path d="m128.167969 416c0 5.890625-4.777344 10.667969-10.667969 10.667969s-10.667969-4.777344-10.667969-10.667969 4.777344-10.667969 10.667969-10.667969 10.667969 4.777344 10.667969 10.667969zm0 0"/><path d="m128.167969 245.332031c0 5.890625-4.777344 10.667969-10.667969 10.667969s-10.667969-4.777344-10.667969-10.667969 4.777344-10.664062 10.667969-10.664062 10.667969 4.773437 10.667969 10.664062zm0 0"/><path d="m85.5 224c0 5.890625-4.777344 10.667969-10.667969 10.667969s-10.664062-4.777344-10.664062-10.667969 4.773437-10.667969 10.664062-10.667969 10.667969 4.777344 10.667969 10.667969zm0 0"/><path d="m42.832031 245.332031c0 5.890625-4.773437 10.667969-10.664062 10.667969s-10.667969-4.777344-10.667969-10.667969 4.777344-10.664062 10.667969-10.664062 10.664062 4.773437 10.664062 10.664062zm0 0"/></g><path d="m234.832031 288c0 5.890625-4.773437 10.667969-10.664062 10.667969s-10.667969-4.777344-10.667969-10.667969 4.777344-10.667969 10.667969-10.667969 10.664062 4.777344 10.664062 10.667969zm0 0" fill="#edebeb"/><path d="m256.167969 266.667969c0 5.890625-4.777344 10.664062-10.667969 10.664062s-10.667969-4.773437-10.667969-10.664062 4.777344-10.667969 10.667969-10.667969 10.667969 4.777344 10.667969 10.667969zm0 0" fill="#edebeb"/><path d="m213.5 266.667969c0 5.890625-4.777344 10.664062-10.667969 10.664062s-10.664062-4.773437-10.664062-10.664062 4.773437-10.667969 10.664062-10.667969 10.667969 4.777344 10.667969 10.667969zm0 0" fill="#d5d1d1"/><path d="m213.5 309.332031c0 5.890625-4.777344 10.667969-10.667969 10.667969s-10.664062-4.777344-10.664062-10.667969 4.773437-10.664062 10.664062-10.664062 10.667969 4.773437 10.667969 10.664062zm0 0" fill="#d5d1d1"/><path d="m.167969 256v106.542969c0 .039062.011719.082031.011719.125h149.320312v-106.667969zm0 0" fill="#c11107"/><path d="m21.5 256h21.332031v106.667969h-21.332031zm0 0" fill="#d96c66"/><path d="m28.617188 156.816406h12.28125v61.417969h-12.28125zm0 0" fill="#af0a00"/></svg>