<svg height="470pt" viewBox="0 0 470.2068 470" width="470pt" xmlns="http://www.w3.org/2000/svg"><path d="m235.5 298.769531-64-64-79.621094 79.621094c-18.152344-18.554687-46.996094-21.429687-68.457031-6.820313-21.457031 14.613282-29.351563 42.503907-18.738281 66.195313 10.613281 23.691406 36.683594 36.367187 61.871094 30.078125-1.058594 4.003906-1.636719 8.121094-1.71875 12.257812 0 24.140626 16.210937 45.269532 39.527343 51.519532 23.316407 6.246094 47.921875-3.945313 59.992188-24.851563 12.070312-20.902343 8.59375-47.308593-8.476563-64.378906zm0 0" fill="#fee3aa"/><path d="m132.453125 467.570312c-16.066406 4.410157-33.273437 1.078126-46.535156-9.015624-13.257813-10.089844-21.054688-25.789063-21.082031-42.453126h42.664062c0 5.894532 4.777344 10.667969 10.667969 10.667969s10.667969-4.773437 10.667969-10.667969c.027343-2.824218-1.09375-5.535156-3.105469-7.519531-16.679688-16.65625-16.6875-43.683593-.019531-60.355469l49.457031-49.457031-18.75-18.75 30.167969-30.167969 48.914062 48.917969-79.625 79.625c13.449219 13.421875 18.839844 32.804688 13.714844 52.246094-4.957032 18.019531-19.085938 32.070313-37.136719 36.929687zm0 0" fill="#fdcf6d"/><path d="m86.167969 352.101562c0 17.675782-14.328125 32-32 32s-32-14.324218-32-32" fill="#fee3aa"/><path d="m54.167969 405.4375c-29.441407-.035156-53.296875-23.894531-53.332031-53.335938h42.664062c0 7.105469 7.59375 12.4375 14.210938 10.0625 4.253906-1.519531 7.101562-5.542968 7.125-10.0625h42.664062c0 29.457032-23.875 53.335938-53.332031 53.335938zm0 0" fill="#fdcf6d"/><path d="m320.835938.101562c-82.476563 0-149.335938 66.859376-149.335938 149.335938v64l-64 64c0 47.128906 38.207031 85.332031 85.335938 85.332031l64-64h64c82.488281.023438 149.371093-66.84375 149.371093-149.332031 0-82.492188-66.882812-149.3554688-149.371093-149.335938zm0 0" fill="#a34e2d"/><path d="m256.835938 149.4375h-42.667969c.070312-58.882812 47.785156-106.597656 106.667969-106.667969v42.667969c-35.332032.039062-63.960938 28.667969-64 64zm0 0" fill="#b7745a"/><g fill="#8b2800"><path d="m199.617188 355.988281-30.167969-30.167969 69.71875-69.71875h81.667969c58.921874.019532 106.699218-47.742187 106.699218-106.664062 0-58.925781-47.777344-106.683594-106.699218-106.667969v-42.667969c82.34375 0 149.332031 66.992188 149.332031 149.335938s-66.988281 149.332031-149.332031 149.332031h-64zm0 0"/><path d="m384.835938 245.4375c0 17.671875-14.328126 32-32 32-17.675782 0-32-14.328125-32-32 0-17.675781 14.324218-32 32-32 17.671874 0 32 14.324219 32 32zm0 0"/><path d="m427.5 85.4375c0 11.78125-9.550781 21.332031-21.332031 21.332031s-21.332031-9.550781-21.332031-21.332031 9.550781-21.335938 21.332031-21.335938 21.332031 9.554688 21.332031 21.335938zm0 0"/><path d="m406.167969 160.101562c0 5.894532-4.777344 10.667969-10.667969 10.667969s-10.664062-4.773437-10.664062-10.667969c0-5.890624 4.773437-10.664062 10.664062-10.664062s10.667969 4.773438 10.667969 10.664062zm0 0"/><path d="m256.835938 256.101562c0 11.785157-9.550782 21.335938-21.335938 21.335938-11.78125 0-21.332031-9.550781-21.332031-21.335938 0-11.78125 9.550781-21.332031 21.332031-21.332031 11.785156 0 21.335938 9.550781 21.335938 21.332031zm0 0"/><path d="m171.5 288.101562c0 5.894532-4.773438 10.667969-10.664062 10.667969-5.890626 0-10.667969-4.773437-10.667969-10.667969 0-5.890624 4.777343-10.664062 10.667969-10.664062 5.890624 0 10.664062 4.773438 10.664062 10.664062zm0 0"/></g><path d="m320.835938 160.101562c0 5.894532-4.777344 10.667969-10.667969 10.667969s-10.667969-4.773437-10.667969-10.667969c0-5.890624 4.777344-10.664062 10.667969-10.664062s10.667969 4.773438 10.667969 10.664062zm0 0" fill="#b7745a"/><path d="m278.167969 149.4375c0 11.78125-9.550781 21.332031-21.332031 21.332031s-21.335938-9.550781-21.335938-21.332031 9.554688-21.335938 21.335938-21.335938 21.332031 9.554688 21.332031 21.335938zm0 0" fill="#b7745a"/></svg>