<svg height="469pt" viewBox="0 -21 469.33334 469" width="469pt" xmlns="http://www.w3.org/2000/svg"><path d="m469.332031 256.167969c0 129.601562-105.0625 170.664062-234.664062 170.664062-129.605469 0-234.667969-41.0625-234.667969-170.664062 0-129.605469 105.0625-256 234.667969-256 149.332031 0 234.664062 170.664062 234.664062 256zm0 0" fill="#eae2ce"/><g fill="#e0d4b7"><path d="m234.667969 426.832031v-85.332031c149.332031 0 149.332031-55.519531 149.332031-85.332031h85.332031c0 113.25-78.957031 170.664062-234.664062 170.664062zm0 0"/><path d="m234.667969 426.832031c-193.960938 0-234.667969-92.8125-234.667969-170.664062h21.332031c0 100.476562 69.792969 149.332031 213.335938 149.332031 143.539062 0 213.332031-48.855469 213.332031-149.332031 0-82.730469-81-234.667969-213.332031-234.667969v-21.332031c145.5625 0 234.664062 165.75 234.664062 256 0 77.851562-40.707031 170.664062-234.664062 170.664062zm0 0"/><path d="m224 320.125c-31.128906.101562-61.007812-12.261719-82.957031-34.332031l15.082031-15.085938c37.492188 37.453125 98.242188 37.4375 135.710938-.035156 37.472656-37.472656 37.492187-98.222656.039062-135.714844l15.082031-15.082031c33.5625 33.546875 43.605469 84.007812 25.445313 127.847656s-60.949219 72.417969-108.402344 72.402344zm0 0"/></g><path d="m320 202.832031c0 53.019531-42.980469 96-96 96s-96-42.980469-96-96 42.980469-96 96-96 96 42.980469 96 96zm0 0" fill="#fdab00"/><path d="m125.957031 300.875c-54.097656-54.15625-54.078125-141.90625.050781-196.035156 54.128907-54.125 141.878907-54.148438 196.035157-.046875l-15.085938 15.082031c-45.824219-45.773438-120.070312-45.753906-165.871093.046875-45.796876 45.796875-45.816407 120.046875-.042969 165.871094zm0 0" fill="#f3eee3"/><path d="m226.367188 136.46875c-13.964844-13.964844-40.671876-9.898438-59.648438 9.082031-18.980469 18.980469-23.046875 45.683594-9.085938 59.648438 13.964844 13.960937 40.671876 9.894531 59.648438-9.082031 18.980469-18.980469 23.046875-45.6875 9.085938-59.648438zm0 0" fill="#fdbc34"/><path d="m209.183594 132.316406c-6.984375-6.980468-20.335938-4.949218-29.824219 4.542969-9.492187 9.488281-11.523437 22.839844-4.542969 29.824219 6.984375 6.980468 20.335938 4.949218 29.824219-4.542969 9.492187-9.488281 11.523437-22.839844 4.542969-29.824219zm0 0" fill="#fee3aa"/><path d="m224 298.8125c-25.472656.082031-49.917969-10.039062-67.875-28.105469l30.167969-30.164062c20.125 20.125 55.289062 20.125 75.414062 0 20.808594-20.835938 20.808594-54.582031 0-75.417969l30.167969-30.167969c27.457031 27.453125 35.671875 68.738281 20.8125 104.609375-14.859375 35.867188-49.863281 59.253906-88.6875 59.246094zm0 0" fill="#f59707"/></svg>