<svg height="469pt" viewBox="0 0 469 469.33374" width="469pt" xmlns="http://www.w3.org/2000/svg"><path d="m220.460938 469.332031h-141.921876c-20.800781.058594-38.589843-14.9375-42.058593-35.445312-11.886719-70.921875-36.3125-240.191407-36.3125-433.886719h298.664062c0 193.695312-24.425781 362.964844-36.3125 433.886719-3.46875 20.507812-21.257812 35.503906-42.058593 35.445312zm0 0" fill="#d5d1d1"/><path d="m170.832031 405.332031h64v21.335938h-64zm0 0" fill="#c5c0c0"/><path d="m220.457031 469.332031h-49.257812v-21.332031h49.257812c10.386719.070312 19.289063-7.40625 21.023438-17.644531 10.226562-60.980469 34.1875-222.917969 35.925781-409.125l21.332031.207031c-1.75 187.707031-25.914062 350.96875-36.21875 412.449219-3.4375 20.527343-21.246093 35.539062-42.0625 35.445312zm0 0" fill="#afa8a8"/><path d="m155.851562 433.886719c11.890626-70.921875 36.316407-240.191407 36.316407-433.886719h-192c0 193.695312 24.425781 362.964844 36.3125 433.886719 3.46875 20.507812 21.257812 35.503906 42.058593 35.445312h35.257813c20.800781.058594 38.589844-14.9375 42.054687-35.445312zm0 0" fill="#edebeb"/><path d="m64.167969 405.332031h64v21.335938h-64zm0 0" fill="#d5d1d1"/><path d="m277.394531 21.332031h-255.789062c1.417969 152.035157 17.601562 287.589844 29.144531 365.871094 1.542969 10.453125 10.535156 18.179687 21.101562 18.128906h155.296876c10.566406.050781 19.558593-7.675781 21.101562-18.128906 11.542969-78.28125 27.730469-213.835937 29.144531-365.871094zm0 0" fill="#fdab00"/><path d="m192.003906 21.332031h-170.398437c1.414062 152.035157 17.601562 287.589844 29.144531 365.871094 1.542969 10.453125 10.535156 18.179687 21.101562 18.128906h88.582032c12.109375-78.523437 30.078125-221.476562 31.570312-384zm0 0" fill="#fdbc34"/><path d="m75.605469 408.667969c-10.117188-63.886719-27.699219-193.542969-31.867188-344.074219l42.648438-1.1875c4.101562 148.136719 21.40625 275.71875 31.363281 338.59375zm0 0" fill="#fdcf6d"/><path d="m61.042969 301.8125c-6.742188-57.980469-11.679688-116.113281-14.6875-172.769531l42.601562-2.273438c2.960938 55.78125 7.835938 113.023438 14.460938 170.125zm0 0" fill="#fee3aa"/><path d="m85.5 448h21.332031v21.332031h-21.332031zm0 0" fill="#d5d1d1"/><path d="m469.5 341.332031c0 70.695313-57.308594 128-128 128s-128-57.304687-128-128c0-70.691406 57.308594-128 128-128s128 57.308594 128 128zm0 0" fill="#cc4900"/><path d="m312.410156 216.5625c-47.164062 10.453125-85.226562 48.515625-95.683594 95.679688-.128906.59375-.257812 1.1875-.378906 1.78125-14.675781 70.527343 49.9375 135.140624 120.464844 120.464843.589844-.125 1.183594-.25 1.777344-.382812 47.164062-10.453125 85.226562-48.519531 95.683594-95.683594.128906-.59375.257812-1.183594.382812-1.777344 14.671875-70.527343-49.941406-135.140625-120.464844-120.464843-.59375.121093-1.1875.25-1.78125.382812zm0 0" fill="#e76400"/><path d="m341.5 213.332031c11.78125 0 21.332031 9.550781 21.332031 21.335938 0 11.78125-9.550781 21.332031-21.332031 21.332031s-21.332031-9.550781-21.332031-21.332031c0-11.785157 9.550781-21.335938 21.332031-21.335938zm0 0" fill="#cc4900"/><path d="m313.410156 262.757812c-12.722656-12.722656-39.109375-6.957031-58.941406 12.875-19.832031 19.832032-25.597656 46.222657-12.878906 58.941407 12.722656 12.722656 39.109375 6.957031 58.945312-12.875 19.832032-19.832031 25.59375-46.222657 12.875-58.941407zm0 0" fill="#ef7f00"/><path d="m341.5 234.667969h-21.332031c0-40.335938 33.195312-59.292969 50.75-63.679688l5.164062 20.6875c-1.363281.367188-34.582031 9.398438-34.582031 42.992188zm0 0" fill="#7d1a00"/><path d="m341.5 437.332031c0 5.890625-4.777344 10.667969-10.667969 10.667969s-10.664062-4.777344-10.664062-10.667969 4.773437-10.664062 10.664062-10.664062 10.667969 4.773437 10.667969 10.664062zm0 0" fill="#bf3c00"/><path d="m405.5 330.667969c0 5.890625-4.777344 10.664062-10.667969 10.664062s-10.664062-4.773437-10.664062-10.664062 4.773437-10.667969 10.664062-10.667969 10.667969 4.777344 10.667969 10.667969zm0 0" fill="#cc4900"/><path d="m384.167969 266.667969c0 5.890625-4.777344 10.664062-10.667969 10.664062s-10.667969-4.773437-10.667969-10.664062 4.777344-10.667969 10.667969-10.667969 10.667969 4.777344 10.667969 10.667969zm0 0" fill="#cc4900"/><g fill="#bf3c00"><path d="m448.167969 394.667969c0 5.890625-4.777344 10.664062-10.667969 10.664062s-10.667969-4.773437-10.667969-10.664062 4.777344-10.667969 10.667969-10.667969 10.667969 4.777344 10.667969 10.667969zm0 0"/><path d="m469.5 352c0 5.890625-4.777344 10.667969-10.667969 10.667969s-10.664062-4.777344-10.664062-10.667969 4.773437-10.667969 10.664062-10.667969 10.667969 4.777344 10.667969 10.667969zm0 0"/><path d="m405.5 437.332031c0 5.890625-4.777344 10.667969-10.667969 10.667969s-10.664062-4.777344-10.664062-10.667969 4.773437-10.664062 10.664062-10.664062 10.667969 4.773437 10.667969 10.664062zm0 0"/></g><path d="m384.167969 394.667969c0 5.890625-4.777344 10.664062-10.667969 10.664062s-10.667969-4.773437-10.667969-10.664062 4.777344-10.667969 10.667969-10.667969 10.667969 4.777344 10.667969 10.667969zm0 0" fill="#cc4900"/><path d="m298.832031 394.667969c0 5.890625-4.773437 10.664062-10.664062 10.664062s-10.667969-4.773437-10.667969-10.664062 4.777344-10.667969 10.667969-10.667969 10.664062 4.777344 10.664062 10.667969zm0 0" fill="#cc4900"/><path d="m448.167969 288c0 5.890625-4.777344 10.667969-10.667969 10.667969s-10.667969-4.777344-10.667969-10.667969 4.777344-10.667969 10.667969-10.667969 10.667969 4.777344 10.667969 10.667969zm0 0" fill="#bf3c00"/></svg>