<svg height="469pt" viewBox="-42 0 469 469.34825" width="469pt" xmlns="http://www.w3.org/2000/svg"><path d="m298.855469 298.667969v-42.667969l67.660156-67.660156c23.566406-23.5625 23.570313-61.769532.003906-85.335938-23.566406-23.566406-61.773437-23.566406-85.335937.003906l-8.035156 8.035157c2.78125-8.292969 4.257812-16.964844 4.375-25.710938 0-47.128906-38.207032-85.332031-85.335938-85.332031-47.125 0-85.332031 38.203125-85.332031 85.332031.117187 8.746094 1.59375 17.417969 4.375 25.710938l-8.035157-8.035157c-23.5625-23.570312-61.769531-23.570312-85.335937-.003906s-23.5625 61.773438.003906 85.335938l67.660157 67.660156v42.667969l-67.660157 67.660156c-23.578125 23.558594-23.585937 61.777344-.015625 85.347656 23.570313 23.570313 61.785156 23.5625 85.347656-.015625l88.992188-88.992187 88.996094 88.992187c23.5625 23.578125 61.777344 23.585938 85.347656.015625 23.570312-23.570312 23.5625-61.789062-.015625-85.347656zm0 0" fill="#a34e2d"/><path d="m298.855469 298.667969v-42.667969l67.660156-67.660156c23.566406-23.5625 23.570313-61.769532.003906-85.335938-23.566406-23.566406-61.773437-23.566406-85.335937.003906l-8.035156 8.035157c2.78125-8.292969 4.257812-16.964844 4.375-25.710938 0-47.128906-38.207032-85.332031-85.335938-85.332031-47.125 0-85.332031 38.203125-85.332031 85.332031.117187 8.746094 1.59375 17.417969 4.375 25.710938l-8.035157-8.035157c-23.5625-23.570312-61.769531-23.570312-85.335937-.003906s-23.5625 61.773438.003906 85.335938l67.660157 67.660156v42.667969l-67.660157 67.660156c-23.578125 23.558594-23.585937 61.777344-.015625 85.347656 23.570313 23.570313 61.785156 23.5625 85.347656-.015625l88.992188-88.992187 88.996094 88.992187c23.5625 23.578125 61.777344 23.585938 85.347656.015625 23.570312-23.570312 23.5625-61.789062-.015625-85.347656zm0 0" fill="#a34e2d"/><g fill="#ad6143"><path d="m60.523438 448c-15.777344 0-30.003907-9.507812-36.035157-24.085938-6.035156-14.578124-2.691406-31.355468 8.472657-42.507812l73.894531-73.894531v-60.355469l-73.917969-73.894531c-11.148438-11.160157-14.480469-27.933594-8.445312-42.507813 6.035156-14.574218 20.253906-24.082031 36.03125-24.085937v21.332031c-7.152344.003906-13.59375 4.316406-16.328126 10.925781-2.730468 6.605469-1.210937 14.210938 3.847657 19.261719l80.144531 80.136719v78.019531l-80.144531 80.136719c-5.058594 5.050781-6.578125 12.652343-3.847657 19.261719 2.734376 6.609374 9.175782 10.921874 16.328126 10.925781zm0 0"/><path d="m323.855469 448c-10.339844-.023438-20.253907-4.128906-27.582031-11.425781l-78.335938-78.324219 15.085938-15.082031 78.351562 78.332031c3.3125 3.304688 7.800781 5.164062 12.480469 5.167969zm0 0"/><path d="m149.523438 85.332031h-21.335938c.039062-35.328125 28.671875-63.960937 64-64v21.335938c-23.550781.027343-42.636719 19.113281-42.664062 42.664062zm0 0"/></g><path d="m60.523438 469.332031v-21.332031c10.339843-.03125 20.25-4.136719 27.582031-11.425781l96.542969-96.53125 15.082031 15.082031-96.542969 96.53125c-11.339844 11.277344-26.671875 17.628906-42.664062 17.675781zm0 0" fill="#8b2800"/><path d="m323.855469 469.332031v-21.332031c15.773437-.007812 29.992187-9.511719 36.03125-24.085938 6.035156-14.574218 2.703125-31.347656-8.449219-42.507812l-73.914062-73.90625v-60.332031l73.914062-73.90625c11.152344-11.160157 14.484375-27.933594 8.449219-42.507813-6.039063-14.574218-20.257813-24.082031-36.03125-24.085937-10.339844.03125-20.253907 4.140625-27.582031 11.4375l-13.980469 13.957031-32-19.480469 2.519531-7.976562c2.117188-6.210938 3.253906-12.710938 3.375-19.273438-.035156-35.328125-28.667969-63.960937-64-64v-21.332031c47.109375.0507812 85.285156 38.226562 85.335938 85.332031-.027344 5.917969-.738282 11.8125-2.125 17.5625l3.6875 2.230469 2.101562-2.113281c17.257812-17.261719 43.210938-22.425781 65.757812-13.085938 22.546876 9.339844 37.25 31.34375 37.242188 55.75.042969 16.011719-6.316406 31.375-17.664062 42.667969l-67.667969 67.65625v42.667969l67.667969 67.65625c17.25 17.257812 22.410156 43.210937 13.070312 65.753906-9.335938 22.546875-31.335938 37.25-55.738281 37.253906zm0 0" fill="#8b2800"/><path d="m96.148438 126.136719-8.042969-8.042969c-7.332031-7.289062-17.242188-11.394531-27.582031-11.425781v-21.335938c15.992187.050781 31.324218 6.402344 42.664062 17.679688l8.042969 8.039062zm0 0" fill="#8b2800"/><path d="m192.1875 341.3125c-11.3125.019531-22.171875-4.46875-30.164062-12.480469l15.082031-15.082031c8.332031 8.332031 21.835937 8.332031 30.167969 0 8.328124-8.332031 8.328124-21.835938 0-30.167969l15.082031-15.082031c12.207031 12.195312 15.859375 30.546875 9.253906 46.488281-6.605469 15.941407-22.164063 26.332031-39.421875 26.324219zm0 0" fill="#993b17"/><path d="m213.523438 298.667969c0 11.78125-9.550782 21.332031-21.335938 21.332031-11.78125 0-21.332031-9.550781-21.332031-21.332031 0-11.785157 9.550781-21.335938 21.332031-21.335938 11.785156 0 21.335938 9.550781 21.335938 21.335938zm0 0" fill="#fdbc34"/><path d="m192.1875 255.980469c-11.3125.019531-22.171875-4.472657-30.164062-12.480469l15.082031-15.082031c8.332031 8.328125 21.835937 8.328125 30.167969 0 8.328124-8.332031 8.328124-21.835938 0-30.167969l15.082031-15.082031c12.207031 12.195312 15.859375 30.546875 9.253906 46.488281s-22.164063 26.332031-39.421875 26.324219zm0 0" fill="#993b17"/><path d="m213.523438 213.332031c0 11.785157-9.550782 21.335938-21.335938 21.335938-11.78125 0-21.332031-9.550781-21.332031-21.335938 0-11.78125 9.550781-21.332031 21.332031-21.332031 11.785156 0 21.335938 9.550781 21.335938 21.332031zm0 0" fill="#fdbc34"/><path d="m192.1875 202.667969c0 5.890625-4.773438 10.664062-10.664062 10.664062-5.890626 0-10.667969-4.773437-10.667969-10.664062s4.777343-10.667969 10.667969-10.667969c5.890624 0 10.664062 4.777344 10.664062 10.667969zm0 0" fill="#fdcf6d"/><path d="m192.1875 288c0 5.890625-4.773438 10.667969-10.664062 10.667969-5.890626 0-10.667969-4.777344-10.667969-10.667969s4.777343-10.667969 10.667969-10.667969c5.890624 0 10.664062 4.777344 10.664062 10.667969zm0 0" fill="#fdcf6d"/><path d="m170.855469 74.667969c0 5.890625-4.777344 10.664062-10.667969 10.664062s-10.664062-4.773437-10.664062-10.664062 4.773437-10.667969 10.664062-10.667969 10.667969 4.777344 10.667969 10.667969zm0 0" fill="#fdbc34"/><path d="m234.855469 74.667969c0 5.890625-4.777344 10.664062-10.667969 10.664062s-10.664062-4.773437-10.664062-10.664062 4.773437-10.667969 10.664062-10.667969 10.667969 4.777344 10.667969 10.667969zm0 0" fill="#fdbc34"/><path d="m170.855469 106.667969h42.667969v21.332031h-42.667969zm0 0" fill="#fdbc34"/><path d="m30.605469 201.03125-14.875-15.292969c3.894531-3.789062 5.792969-8.726562 5.792969-15.070312 0-12.625 8.269531-21 21.0625-21.335938 21.351562 0 21.601562-21.125 21.601562-21.332031 0-12.625 8.273438-21 21.0625-21.332031 6.625 0 11.726562-2.066407 15.496094-5.964844l15.171875 15.015625c-7.792969 8.03125-18.292969 12.28125-30.394531 12.28125 0 20.6875-14.960938 42.667969-42.667969 42.667969 0 12.0625-4.230469 22.5625-12.25 30.363281zm0 0" fill="#993b17"/><path d="m60.527344 85.332031c-23.792969-.003906-45.367188 13.980469-55.082032 35.703125-9.714843 21.722656-5.753906 47.125 10.113282 64.859375 3.878906-4.117187 6.019531-9.574219 5.964844-15.226562 0-21.335938 21.332031-21.335938 21.332031-21.335938 21.332031 0 21.332031-21.332031 21.332031-21.332031 0-21.332031 21.335938-21.332031 21.335938-21.332031 5.652343.035156 11.101562-2.101563 15.226562-5.964844-11.0625-9.894531-25.378906-15.367187-40.222656-15.371094zm0 0" fill="#fdbc34"/><path d="m21.523438 145.675781h-21.335938c.035156-33.308593 27.027344-60.300781 60.335938-60.34375 5.65625.007813 11.285156.828125 16.707031 2.4375l-6.042969 20.460938c-24.644531-7.375-49.664062 12.363281-49.664062 37.445312zm0 0" fill="#f59707"/><path d="m320.1875 128s0 21.332031 21.335938 21.332031c0 0 21.332031 0 21.332031 21.335938.039062 5.65625 2.113281 11.109375 5.84375 15.363281 10.125-10.984375 15.667969-25.421875 15.488281-40.359375.003906-23.808594-13.996094-45.394531-35.738281-55.097656-21.742188-9.707031-47.160157-5.71875-64.882813 10.183593 4.113282 3.917969 9.609375 6.042969 15.289063 5.910157 0 0 21.332031 0 21.332031 21.332031zm0 0" fill="#fdbc34"/><path d="m384.1875 145.675781h-21.332031c-.023438-21.53125-17.46875-38.980469-39-39.007812-3.605469-.003907-7.191407.519531-10.644531 1.550781l-6.085938-20.4375c5.429688-1.625 11.066406-2.449219 16.730469-2.449219 33.308593.042969 60.296875 27.035157 60.332031 60.34375zm0 0" fill="#f59707"/><path d="m106.855469 405.332031c0-20.6875-14.917969-42.664062-42.667969-42.664062 0-12.140625-4.246094-22.625-12.265625-30.402344l-15.085937 15.089844c4 3.726562 6.019531 8.882812 6.019531 15.3125 0 12.625 8.3125 21 21.457031 21.332031 20.960938 0 21.210938 21.125 21.210938 21.332031 0 12.625 8.3125 21 21.457031 21.335938 6.261719 0 11.507812 2.078125 15.191406 6.015625l15.078125-15.078125c-7.675781-7.917969-18.394531-12.273438-30.394531-12.273438zm0 0" fill="#993b17"/><path d="m85.523438 405.332031s0-21.332031-21.335938-21.332031c0 0-21.332031 0-21.332031-21.332031 0-7.429688-2.648438-12.160157-6.019531-15.316407l-18.972657 18.976563c-23.578125 23.558594-23.585937 61.777344-.015625 85.347656 23.570313 23.570313 61.785156 23.5625 85.347656-.015625l18.972657-18.972656c-3.15625-3.375-7.882813-6.019531-15.3125-6.019531 0 0-21.332031 0-21.332031-21.335938zm0 0" fill="#fdbc34"/><path d="m60.523438 469.332031c-33.308594-.039062-60.300782-27.035156-60.335938-60.34375h21.335938c-.003907 15.777344 9.496093 30.003907 24.074218 36.042969 14.574219 6.039062 31.351563 2.699219 42.507813-8.457031l7.0625-7.0625 15.082031 15.082031-7.0625 7.0625c-11.339844 11.277344-26.671875 17.628906-42.664062 17.675781zm0 0" fill="#f59707"/><path d="m384.1875 408.992188c.003906-16-6.355469-31.351563-17.671875-42.664063l-18.972656-18.976563c-3.375 3.15625-6.019531 7.886719-6.019531 15.316407 0 21.332031-21.335938 21.332031-21.335938 21.332031-21.332031 0-21.332031 21.332031-21.332031 21.332031 0 21.335938-21.332031 21.335938-21.332031 21.335938-7.429688 0-12.160157 2.644531-15.316407 6.019531l18.976563 18.972656c17.257812 17.257813 43.210937 22.417969 65.757812 13.082032 22.546875-9.339844 37.246094-31.34375 37.246094-55.75zm0 0" fill="#fdbc34"/><path d="m323.855469 469.332031v-21.332031c15.773437-.007812 29.992187-9.511719 36.03125-24.085938 6.035156-14.574218 2.703125-31.347656-8.449219-42.507812l-7-7 15.085938-15.082031 7 7c17.25 17.257812 22.410156 43.210937 13.070312 65.753906-9.335938 22.546875-31.335938 37.25-55.738281 37.253906zm0 0" fill="#f59707"/><path d="m298.855469 181.332031c0 5.890625-4.777344 10.667969-10.667969 10.667969s-10.664062-4.777344-10.664062-10.667969 4.773437-10.664062 10.664062-10.664062 10.667969 4.773437 10.667969 10.664062zm0 0" fill="#8b2800"/><path d="m213.523438 53.332031c0 5.890625-4.777344 10.667969-10.667969 10.667969s-10.667969-4.777344-10.667969-10.667969 4.777344-10.664062 10.667969-10.664062 10.667969 4.773437 10.667969 10.664062zm0 0" fill="#8b2800"/><path d="m298.855469 234.667969c0 11.78125-9.550781 21.332031-21.332031 21.332031s-21.335938-9.550781-21.335938-21.332031c0-11.785157 9.554688-21.335938 21.335938-21.335938s21.332031 9.550781 21.332031 21.335938zm0 0" fill="#8b2800"/><path d="m128.1875 362.667969c0 11.78125-9.550781 21.332031-21.332031 21.332031s-21.332031-9.550781-21.332031-21.332031c0-11.785157 9.550781-21.335938 21.332031-21.335938s21.332031 9.550781 21.332031 21.335938zm0 0" fill="#993b17"/><path d="m320.1875 341.332031c0 11.785157-9.550781 21.335938-21.332031 21.335938s-21.332031-9.550781-21.332031-21.335938c0-11.78125 9.550781-21.332031 21.332031-21.332031s21.332031 9.550781 21.332031 21.332031zm0 0" fill="#8b2800"/><path d="m256.1875 288c0 5.890625-4.773438 10.667969-10.664062 10.667969-5.890626 0-10.667969-4.777344-10.667969-10.667969s4.777343-10.667969 10.667969-10.667969c5.890624 0 10.664062 4.777344 10.664062 10.667969zm0 0" fill="#993b17"/><path d="m149.523438 181.332031c0 5.890625-4.777344 10.667969-10.667969 10.667969s-10.667969-4.777344-10.667969-10.667969 4.777344-10.664062 10.667969-10.664062 10.667969 4.773437 10.667969 10.664062zm0 0" fill="#993b17"/><path d="m256.1875 149.332031c0 11.785157-9.550781 21.335938-21.332031 21.335938s-21.332031-9.550781-21.332031-21.335938c0-11.78125 9.550781-21.332031 21.332031-21.332031s21.332031 9.550781 21.332031 21.332031zm0 0" fill="#8b2800"/><path d="m128.1875 138.667969c0 5.890625-4.773438 10.664062-10.664062 10.664062-5.890626 0-10.667969-4.773437-10.667969-10.664062s4.777343-10.667969 10.667969-10.667969c5.890624 0 10.664062 4.777344 10.664062 10.667969zm0 0" fill="#993b17"/></svg>