<svg height="469pt" viewBox="0 0 469.33381 469" width="469pt" xmlns="http://www.w3.org/2000/svg"><path d="m320 .167969s0 64 64 64c0 0 0 64 64 64 0 0 0-64-42.667969-64 0 0 42.667969 0 42.667969-64 0 0-64 0-64 42.664062 0 0 0-42.664062-64-42.664062zm0 0" fill="#fdab00"/><path d="m362.667969 128.167969h-21.335938v-32c0-42.1875 34.898438-53.335938 53.335938-53.335938l.0625 21.335938c-5.355469.0625-32.0625 1.882812-32.0625 32zm0 0" fill="#a34e2d"/><path d="m149.332031 394.832031c0 41.238281-33.429687 74.667969-74.664062 74.667969-41.238281 0-74.667969-33.429688-74.667969-74.667969 0-41.234375 33.429688-74.664062 74.667969-74.664062 41.234375 0 74.664062 33.429687 74.664062 74.664062zm0 0" fill="#d4c3a2"/><path d="m74.667969 469.480469c-19.8125.0625-38.824219-7.808594-52.792969-21.855469l30.167969-30.167969c12.082031 12.0625 33.164062 12.0625 45.25 0 12.472656-12.5 12.472656-32.738281 0-45.238281l30.164062-30.1875c21.359375 21.351562 27.75 53.464844 16.195313 81.367188-11.558594 27.898437-38.785156 46.085937-68.984375 46.082031zm0 0" fill="#c5af83"/><path d="m192 266.832031c0 41.238281-33.429688 74.667969-74.667969 74.667969-41.234375 0-74.664062-33.429688-74.664062-74.667969 0-41.234375 33.429687-74.664062 74.664062-74.664062 41.238281 0 74.667969 33.429687 74.667969 74.664062zm0 0" fill="#eae2ce"/><path d="m102.515625 238.984375c-6.980469-6.980469-20.332031-4.949219-29.824219 4.542969-9.488281 9.488281-11.523437 22.839844-4.539062 29.824218 6.980468 6.980469 20.332031 4.945313 29.824218-4.542968 9.488282-9.488282 11.519532-22.84375 4.539063-29.824219zm0 0" fill="#f3eee3"/><path d="m117.332031 341.480469c-19.808593.0625-38.820312-7.808594-52.789062-21.855469l30.164062-30.167969c12.085938 12.0625 33.167969 12.0625 45.25 0 12.472657-12.5 12.472657-32.738281 0-45.238281l30.167969-30.1875c21.359375 21.351562 27.75 53.464844 16.191406 81.367188-11.554687 27.898437-38.785156 46.085937-68.984375 46.082031zm0 0" fill="#e0d4b7"/><path d="m256 373.5c0 41.238281-33.429688 74.667969-74.667969 74.667969-41.234375 0-74.664062-33.429688-74.664062-74.667969s33.429687-74.667969 74.664062-74.667969c41.238281 0 74.667969 33.429688 74.667969 74.667969zm0 0" fill="#e0d4b7"/><path d="m166.515625 345.652344c-6.980469-6.984375-20.332031-4.949219-29.824219 4.539062-9.488281 9.492188-11.523437 22.84375-4.539062 29.824219 6.980468 6.980469 20.332031 4.949219 29.824218-4.539063 9.488282-9.492187 11.519532-22.84375 4.539063-29.824218zm0 0" fill="#eae2ce"/><path d="m181.332031 448.144531c-19.808593.0625-38.820312-7.804687-52.789062-21.851562l30.164062-30.167969c12.085938 12.0625 33.167969 12.0625 45.25 0 12.472657-12.5 12.472657-32.738281 0-45.238281l30.167969-30.1875c21.359375 21.347656 27.75 53.464843 16.191406 81.363281-11.554687 27.902344-38.785156 46.089844-68.984375 46.082031zm0 0" fill="#d4c3a2"/><path d="m298.667969 288.167969c0 41.234375-33.429688 74.664062-74.667969 74.664062s-74.667969-33.429687-74.667969-74.664062c0-41.238281 33.429688-74.667969 74.667969-74.667969s74.667969 33.429688 74.667969 74.667969zm0 0" fill="#d4c3a2"/><path d="m187.847656 260.316406c-6.980468-6.980468-20.332031-4.949218-29.824218 4.542969-9.488282 9.488281-11.519532 22.84375-4.539063 29.824219 6.980469 6.980468 20.332031 4.949218 29.824219-4.542969 9.488281-9.488281 11.523437-22.839844 4.539062-29.824219zm0 0" fill="#eae2ce"/><path d="m224 362.8125c-19.808594.0625-38.820312-7.808594-52.792969-21.855469l30.167969-30.164062c12.082031 12.0625 33.167969 12.0625 45.25 0 12.472656-12.503907 12.472656-32.738281 0-45.242188l30.167969-30.1875c21.355469 21.351563 27.75 53.464844 16.191406 81.367188-11.558594 27.898437-38.785156 46.089843-68.984375 46.082031zm0 0" fill="#c5af83"/><path d="m384 373.5c0 41.238281-33.429688 74.667969-74.667969 74.667969-41.234375 0-74.664062-33.429688-74.664062-74.667969s33.429687-74.667969 74.664062-74.667969c41.238281 0 74.667969 33.429688 74.667969 74.667969zm0 0" fill="#e0d4b7"/><path d="m313.773438 326.394531c-10.472657-10.472656-30.5-7.425781-44.734376 6.808594-14.234374 14.238281-17.285156 34.265625-6.8125 44.738281 10.472657 10.472656 30.5 7.421875 44.734376-6.8125 14.234374-14.234375 17.285156-34.261718 6.8125-44.734375zm0 0" fill="#eae2ce"/><path d="m309.332031 448.144531c-19.808593.0625-38.820312-7.804687-52.789062-21.851562l30.164062-30.167969c12.085938 12.0625 33.167969 12.0625 45.25 0 12.472657-12.5 12.472657-32.738281 0-45.238281l30.167969-30.1875c21.359375 21.347656 27.75 53.464843 16.191406 81.363281-11.554687 27.902344-38.785156 46.089844-68.984375 46.082031zm0 0" fill="#d4c3a2"/><path d="m362.667969 245.5c0 41.238281-33.429688 74.667969-74.667969 74.667969s-74.667969-33.429688-74.667969-74.667969 33.429688-74.667969 74.667969-74.667969 74.667969 33.429688 74.667969 74.667969zm0 0" fill="#c5af83"/><path d="m288 320.144531c-19.808594.0625-38.820312-7.804687-52.792969-21.851562l30.167969-30.167969c12.082031 12.0625 33.167969 12.0625 45.25 0 12.472656-12.5 12.472656-32.738281 0-45.238281l30.167969-30.1875c21.355469 21.347656 27.75 53.464843 16.191406 81.363281-11.558594 27.902344-38.785156 46.089844-68.984375 46.082031zm0 0" fill="#b99e69"/><path d="m426.667969 181.5c0 41.238281-33.429688 74.667969-74.667969 74.667969s-74.667969-33.429688-74.667969-74.667969 33.429688-74.667969 74.667969-74.667969 74.667969 33.429688 74.667969 74.667969zm0 0" fill="#e0d4b7"/><path d="m358.515625 132.316406c-6.980469-6.980468-20.332031-4.949218-29.824219 4.542969-9.488281 9.488281-11.523437 22.84375-4.539062 29.824219 6.980468 6.980468 20.332031 4.949218 29.824218-4.542969 9.488282-9.488281 11.519532-22.839844 4.539063-29.824219zm0 0" fill="#eae2ce"/><path d="m352 256.144531c-19.808594.0625-38.820312-7.804687-52.792969-21.851562l30.167969-30.167969c12.082031 12.0625 33.167969 12.0625 45.25 0 12.472656-12.5 12.472656-32.738281 0-45.238281l30.167969-30.1875c21.355469 21.347656 27.75 53.464843 16.191406 81.363281-11.558594 27.902344-38.785156 46.089844-68.984375 46.082031zm0 0" fill="#d4c3a2"/><path d="m469.332031 288.167969c0 41.234375-33.429687 74.664062-74.664062 74.664062-41.238281 0-74.667969-33.429687-74.667969-74.664062 0-41.238281 33.429688-74.667969 74.667969-74.667969 41.234375 0 74.664062 33.429688 74.664062 74.667969zm0 0" fill="#eae2ce"/><path d="m394.667969 362.8125c-19.8125.0625-38.824219-7.808594-52.792969-21.855469l30.167969-30.164062c12.082031 12.0625 33.164062 12.0625 45.25 0 12.472656-12.503907 12.472656-32.738281 0-45.242188l30.164062-30.1875c21.359375 21.351563 27.75 53.464844 16.195313 81.367188-11.558594 27.898437-38.785156 46.089843-68.984375 46.082031zm0 0" fill="#e0d4b7"/><path d="m341.332031 96.167969c0 41.234375-33.429687 74.664062-74.664062 74.664062-41.238281 0-74.667969-33.429687-74.667969-74.664062 0-41.238281 33.429688-74.667969 74.667969-74.667969 41.234375 0 74.664062 33.429688 74.664062 74.667969zm0 0" fill="#e0d4b7"/><path d="m266.667969 170.8125c-19.8125.0625-38.824219-7.808594-52.792969-21.855469l30.167969-30.164062c12.082031 12.0625 33.164062 12.0625 45.25 0 12.472656-12.503907 12.472656-32.738281 0-45.242188l30.164062-30.1875c21.359375 21.351563 27.75 53.464844 16.195313 81.367188-11.558594 27.898437-38.785156 46.089843-68.984375 46.082031zm0 0" fill="#d4c3a2"/><path d="m192 160.167969c0 41.234375-33.429688 74.664062-74.667969 74.664062-41.234375 0-74.664062-33.429687-74.664062-74.664062 0-41.238281 33.429687-74.667969 74.664062-74.667969 41.238281 0 74.667969 33.429688 74.667969 74.667969zm0 0" fill="#e0d4b7"/><path d="m121.773438 91.726562c-10.472657-10.472656-30.5-7.421874-44.734376 6.8125-14.234374 14.234376-17.285156 34.261719-6.8125 44.734376 10.472657 10.472656 30.5 7.421874 44.734376-6.8125 14.234374-14.234376 17.285156-34.261719 6.8125-44.734376zm0 0" fill="#eae2ce"/><path d="m117.332031 234.8125c-19.808593.0625-38.820312-7.808594-52.789062-21.855469l30.164062-30.164062c12.085938 12.0625 33.167969 12.0625 45.25 0 12.472657-12.503907 12.472657-32.738281 0-45.242188l30.167969-30.1875c21.359375 21.351563 27.75 53.464844 16.191406 81.367188-11.554687 27.898437-38.785156 46.089843-68.984375 46.082031zm0 0" fill="#d4c3a2"/><path d="m277.332031 160.167969c0 41.234375-33.429687 74.664062-74.664062 74.664062-41.238281 0-74.667969-33.429687-74.667969-74.664062 0-41.238281 33.429688-74.667969 74.667969-74.667969 41.234375 0 74.664062 33.429688 74.664062 74.667969zm0 0" fill="#eae2ce"/><path d="m202.667969 234.8125c-19.8125.0625-38.824219-7.808594-52.792969-21.855469l30.167969-30.164062c12.082031 12.0625 33.164062 12.0625 45.25 0 12.472656-12.503907 12.472656-32.738281 0-45.242188l30.164062-30.1875c21.359375 21.351563 27.75 53.464844 16.195313 81.367188-11.558594 27.898437-38.785156 46.089843-68.984375 46.082031zm0 0" fill="#e0d4b7"/><path d="m207.109375 91.726562c-10.472656-10.472656-30.503906-7.421874-44.738281 6.8125-14.234375 14.234376-17.285156 34.261719-6.8125 44.734376 10.472656 10.472656 30.503906 7.421874 44.738281-6.8125 14.234375-14.234376 17.28125-34.261719 6.8125-44.734376zm0 0" fill="#f3eee3"/><path d="m271.109375 27.726562c-10.472656-10.472656-30.503906-7.421874-44.738281 6.8125-14.234375 14.234376-17.285156 34.261719-6.8125 44.734376 10.472656 10.472656 30.503906 7.421874 44.738281-6.8125 14.234375-14.234376 17.28125-34.261719 6.8125-44.734376zm0 0" fill="#eae2ce"/><path d="m399.109375 241.058594c-10.472656-10.472656-30.503906-7.421875-44.738281 6.8125s-17.285156 34.265625-6.8125 44.738281 30.503906 7.421875 44.738281-6.8125 17.28125-34.265625 6.8125-44.738281zm0 0" fill="#f3eee3"/><path d="m57.773438 347.726562c-10.472657-10.472656-30.5-7.421874-44.734376 6.8125-14.234374 14.234376-17.285156 34.261719-6.8125 44.734376 10.472657 10.472656 30.5 7.421874 44.734376-6.8125 14.234374-14.234376 17.285156-34.261719 6.8125-44.734376zm0 0" fill="#e0d4b7"/></svg>