<svg height="469pt" viewBox="-85 0 469 469.33369" width="469pt" xmlns="http://www.w3.org/2000/svg"><path d="m228.585938 6.25c-8.332032-8.332031-21.839844-8.332031-30.171876 0-5.097656 5.097656-58.964843 58.964844-64 64-8.324218 8.332031-8.324218 21.835938.007813 30.164062 8.328125 8.328126 21.832031 8.332032 30.164063.003907 5.035156-5.035157 58.898437-58.902344 64-64 8.332031-8.332031 8.332031-21.839844 0-30.167969zm0 0" fill="#a34e2d"/><path d="m149.5 106.667969v-21.335938l64-64h21.332031c.011719 5.660157-2.238281 11.089844-6.25 15.085938l-64 63.988281c-3.988281 4.019531-9.417969 6.273438-15.082031 6.261719zm0 0" fill="#8b2800"/><path d="m256.167969 256v-21.332031c21.332031 0 21.332031-21.335938 21.332031-21.335938s0-21.332031-21.332031-21.332031h-213.335938c-21.332031 0-21.332031 21.332031-21.332031 21.332031s0 21.335938 21.332031 21.335938v21.332031s-42.664062 0-42.664062 42.667969v128c0 42.664062 42.664062 42.664062 42.664062 42.664062h213.335938s42.664062 0 42.664062-42.664062v-128c0-42.667969-42.664062-42.667969-42.664062-42.667969zm0 0" fill="#c5c0c0"/><path d="m234.832031 469.332031v-21.332031h21.292969c7.894531-.09375 21.375-2.988281 21.375-21.332031v-128c0-18.34375-13.4375-21.242188-21.457031-21.335938l.25-21.332031c21.164062.25 42.539062 13.542969 42.539062 42.667969v128c0 29.132812-21.394531 42.414062-42.582031 42.664062zm0 0" fill="#afa8a8"/><path d="m234.832031 426.667969v-128c0-42.667969-42.664062-42.667969-42.664062-42.667969v-21.332031c21.332031 0 21.332031-21.335938 21.332031-21.335938s0-21.332031-21.332031-21.332031h-149.335938c-21.332031 0-21.332031 21.332031-21.332031 21.332031s0 21.335938 21.332031 21.335938v21.332031s-42.664062 0-42.664062 42.667969v128c0 42.664062 42.664062 42.664062 42.664062 42.664062h149.335938s42.664062 0 42.664062-42.664062zm0 0" fill="#d5d1d1"/><path d="m85.5 448c-35.328125-.039062-63.960938-28.667969-64-64v-74.667969c.019531-17.664062 14.335938-31.980469 32-32h10.667969v21.335938h-10.667969c-5.886719.007812-10.660156 4.777343-10.667969 10.664062v74.667969c.027344 23.554688 19.113281 42.640625 42.667969 42.667969zm0 0" fill="#edebeb"/><path d="m42.832031 234.667969h128v21.332031h-128zm0 0" fill="#c5c0c0"/><path d="m85.5 448h128c35.347656 0 64-28.652344 64-64v-42.667969s-42.667969-42.664062-106.667969-42.664062-106.664062 21.332031-149.332031 21.332031v64c0 35.347656 28.652344 64 64 64zm0 0" fill="#e76400"/><path d="m170.832031 298.667969c-64 0-106.664062 21.332031-149.332031 21.332031v64c0 35.347656 28.652344 64 64 64h128c5.90625-.085938 11.769531-.996094 17.425781-2.707031 2.617188-5.859375 3.949219-12.210938 3.90625-18.625v-113.425781c-20.015625-9.460938-41.859375-14.4375-64-14.574219zm0 0" fill="#ef7f00"/><path d="m85.5 448c-35.328125-.039062-63.960938-28.667969-64-64v-64h21.332031v64c.027344 23.554688 19.113281 42.640625 42.667969 42.667969zm0 0" fill="#fdbc34"/><path d="m21.5 341.332031h21.332031v42.667969h-21.332031zm0 0" fill="#fee3aa"/><path d="m128.167969 256c0 11.78125-9.550781 21.332031-21.335938 21.332031-11.78125 0-21.332031-9.550781-21.332031-21.332031s9.550781-21.332031 21.332031-21.332031c11.785157 0 21.335938 9.550781 21.335938 21.332031zm0 0" fill="#ef7f00"/><path d="m42.832031 192c0 21.332031 21.335938 21.332031 21.335938 21.332031 21.332031 0 21.332031 21.335938 42.664062 21.335938 21.335938 0 21.335938-21.335938 42.667969-21.335938s21.332031 21.335938 42.667969 21.335938c21.332031 0 21.332031-21.335938 42.664062-21.335938 21.335938 0 21.335938-21.332031 21.335938-21.332031zm0 0" fill="#e76400"/><path d="m64.167969 213.332031c21.332031 0 21.332031 21.335938 42.664062 21.335938 21.335938 0 21.335938-21.335938 42.667969-21.335938s21.332031 21.335938 42.667969 21.335938c21.332031 0 21.332031-21.335938 21.332031-21.335938s0-21.332031-21.332031-21.332031h-149.335938c0 21.332031 21.335938 21.332031 21.335938 21.332031zm0 0" fill="#ef7f00"/><path d="m128.167969 213.332031h-64c-21.335938 0-21.335938-21.332031-21.335938-21.332031h106.667969s0 21.332031-21.332031 21.332031zm0 0" fill="#fdbc34"/><path d="m42.832031 106.667969c0-21.335938 21.0625-21.0625 21.0625-21.0625.273438-21.605469 21.605469-21.605469 21.605469-21.605469s0-21.332031 21.332031-21.332031c0 0 0-21.335938 21.335938-21.335938 0 0 18.902343-2.429687 53.332031 32 34.429688 34.433594 32 53.335938 32 53.335938 0 21.332031-21.332031 21.332031-21.332031 21.332031s0 21.332031-21.335938 21.332031c0 0 0 21.335938-21.332031 21.335938 0 0 0 21.332031-21.332031 21.332031 0 0-18.121094 3.386719-53.1875-31.679688-35.066407-35.066406-32.148438-53.652343-32.148438-53.652343zm0 0" fill="#ef7f00"/><g fill="#fdbc34"><path d="m74.980469 160.324219c-30-30.023438-32.230469-47.90625-32.210938-52.667969.085938-11.5 6.3125-19.53125 16.25-21.550781l5.3125-5.28125c1.875-9.4375 8.773438-14.710938 16.230469-16.304688l5.457031-5.445312c1.710938-8.554688 7.523438-14.375 15.960938-15.96875l5.375-5.367188c2.019531-10.113281 9.789062-16.40625 20.8125-16.40625 6.519531 0 24.457031 3.117188 53.332031 32l-15.082031 15.085938c-24.917969-24.917969-38.042969-25.75-38.1875-25.75l-.105469 4.25-16.875 17.082031h-4.417969l-.101562 4.25-16.8125 17.082031h-4.417969l-.0625 4.367188-17.105469 17.175781-4.289062.0625c.0625.605469 1.394531 13.667969 26.019531 38.300781zm0 0"/><path d="m45.957031 103.542969 15.085938-15.085938 64 64-15.085938 15.085938zm0 0"/><path d="m67.292969 82.207031 15.082031-15.082031 64 64-15.082031 15.082031zm0 0"/><path d="m88.625 60.875 15.082031-15.082031 64 64-15.082031 15.082031zm0 0"/><path d="m109.957031 39.542969 15.085938-15.085938 64 64-15.085938 15.085938zm0 0"/></g><path d="m192.167969 234.667969h64v21.332031h-64zm0 0" fill="#afa8a8"/></svg>