<svg height="469pt" viewBox="0 0 469 469.33337" width="469pt" xmlns="http://www.w3.org/2000/svg"><path d="m330.445312 0c-19.511718 0-37.488281 10.578125-46.964843 27.632812-59.679688 107.429688-148.253907 196-255.679688 255.683594-17.054687 9.472656-27.632812 27.449219-27.632812 46.960938 0 29.671875 24.050781 53.722656 53.722656 53.722656 182.40625 0 330.277344-147.871094 330.277344-330.277344 0-29.671875-24.054688-53.722656-53.722657-53.722656zm0 0" fill="#f59707"/><path d="m42.832031 330.269531h-42.664062c.003906-19.511719 10.585937-37.484375 27.644531-46.957031 107.441406-59.664062 196.011719-148.242188 255.667969-255.6875l37.289062 20.707031c-63.507812 114.421875-157.824219 208.75-272.238281 272.273438-3.515625 1.945312-5.699219 5.648437-5.699219 9.664062zm0 0" fill="#ef7f00"/><path d="m.167969 403.109375c-.015625-24.203125 13.195312-46.484375 34.441406-58.082031 41.957031-22.992188 115.128906-67.933594 178.890625-131.695313s108.703125-136.933593 131.695312-178.886719c11.597657-21.246093 33.875-34.460937 58.082032-34.445312 36.574218 0 66.222656 29.648438 66.222656 66.222656 0 43.285156-7.925781 86.347656-25.082031 126.085938-18.269531 42.324218-49.566407 95.671875-102.917969 149.023437-53.351562 53.351563-106.703125 84.648438-149.023438 102.917969-39.738281 17.15625-82.804687 25.082031-126.085937 25.082031-36.574219 0-66.222656-29.648437-66.222656-66.222656zm0 0" fill="#cd3e36"/><path d="m66.386719 469.332031c-36.558594-.042969-66.179688-29.671875-66.21875-66.226562h42.664062c.007813 13.003906 10.546875 23.546875 23.554688 23.5625 39.28125 0 76.007812-7.273438 109.175781-21.585938 48.886719-21.101562 94.5625-52.6875 135.769531-93.914062 41.210938-41.210938 72.804688-86.898438 93.917969-135.773438 14.324219-33.1875 21.582031-69.914062 21.582031-109.164062h42.667969c0 45.082031-8.4375 87.5-25.082031 126.082031-23.25 53.855469-57.875 103.980469-102.917969 149.019531-45.03125 45.042969-95.175781 79.667969-149.019531 102.917969-38.542969 16.644531-80.960938 25.082031-126.09375 25.082031zm0 0" fill="#c11107"/><path d="m106.832031 394.667969h-21.332031v-10.667969c.011719-11.777344 9.554688-21.320312 21.332031-21.332031 35.332031-.039063 63.960938-28.671875 64-64v-21.335938c.011719-11.777343 9.558594-21.320312 21.335938-21.332031h21.332031c35.332031-.039062 63.960938-28.667969 64-64v-21.332031c.011719-11.777344 9.554688-21.324219 21.332031-21.335938h21.335938c35.328125-.039062 63.960937-28.667969 64-64 .011719-11.777343 9.554687-21.320312 21.332031-21.332031h10.667969v21.332031h-10.667969c-.050781 47.109375-38.226562 85.285157-85.332031 85.335938h-21.335938v21.332031c-.050781 47.109375-38.222656 85.28125-85.332031 85.332031h-21.332031v21.335938c-.050781 47.105469-38.226563 85.28125-85.335938 85.332031zm0 0" fill="#c11107"/><path d="m42.832031 384c.039063-35.332031 28.671875-63.960938 64-64 11.777344-.011719 21.324219-9.554688 21.335938-21.332031v-21.335938c.039062-35.328125 28.667969-63.960937 64-64h21.332031c11.777344-.011719 21.320312-9.554687 21.332031-21.332031v-21.332031c.039063-35.332031 28.671875-63.960938 64-64h21.335938c11.777343-.011719 21.320312-9.558594 21.332031-21.335938.039062-35.328125 28.667969-63.960937 64-64v42.667969c-11.777344.011719-21.320312 9.554688-21.332031 21.332031-.039063 35.332031-28.671875 63.960938-64 64h-21.335938c-11.777343.011719-21.320312 9.558594-21.332031 21.335938v21.332031c-.039062 35.332031-28.667969 63.960938-64 64h-21.332031c-11.777344.011719-21.324219 9.554688-21.335938 21.332031v21.335938c-.039062 35.328125-28.667969 63.960937-64 64-11.777343.011719-21.320312 9.554687-21.332031 21.332031zm0 0" fill="#fee3aa"/><path d="m415.777344 85.332031c-19.511719 0-37.488282 10.578125-46.960938 27.632813-59.683594 107.429687-148.253906 196-255.683594 255.683594-17.054687 9.476562-27.632812 27.453124-27.632812 46.960937 0 29.671875 24.050781 53.722656 53.722656 53.722656 182.40625 0 330.277344-147.867187 330.277344-330.277343 0-29.667969-24.050781-53.722657-53.722656-53.722657zm0 0" fill="#ef7f00"/><path d="m393.398438 130.449219c-12.851563-9.140625-30.984376-5.84375-39.246094 7.589843-59.277344 96.414063-142.414063 175.910157-241.386719 230.8125-14.175781 7.863282-24.175781 21.542969-26.511719 37.585938-5.011718 34.421875 26.25 62.269531 60.222656 54.796875 143.429688-31.558594 251.976563-156.054687 258.695313-307.292969.289063-9.316406-4.136719-18.148437-11.773437-23.492187zm0 0" fill="#f59707"/><path d="m133.863281 405.9375-20.726562-37.292969c107.445312-59.660156 196.019531-148.238281 255.675781-255.6875 11.894531-21.394531 36.746094-32.046875 60.445312-25.902343 23.695313 6.140624 40.242188 27.527343 40.242188 52.007812h-42.667969c0-5.042969-3.410156-9.445312-8.289062-10.707031-4.878907-1.265625-10 .925781-12.449219 5.332031-63.511719 114.414062-157.820312 208.730469-272.230469 272.25zm0 0" fill="#fdbc34"/><path d="m361.011719 204.519531-34.5625-25c15.425781-21.324219 29.570312-43.550781 42.351562-66.5625 11.898438-21.394531 36.75-32.046875 60.449219-25.90625 23.699219 6.144531 40.246094 27.53125 40.25 52.011719h-42.667969c0-5.042969-3.410156-9.445312-8.289062-10.707031-4.878907-1.265625-10 .925781-12.449219 5.332031-13.601562 24.488281-28.65625 48.140625-45.082031 70.832031zm0 0" fill="#fdcf6d"/><g fill="#fee3aa"><path d="m360.746094 343.421875c-3.5-3.5-10.179688-2.496094-14.917969 2.238281-4.738281 4.738282-5.742187 11.417969-2.238281 14.917969 3.5 3.5 10.175781 2.496094 14.914062-2.238281 4.738282-4.738282 5.742188-11.417969 2.242188-14.917969zm0 0"/><path d="m275.410156 407.421875c-3.5-3.5-10.175781-2.496094-14.914062 2.238281-4.738282 4.738282-5.742188 11.417969-2.242188 14.917969s10.179688 2.496094 14.917969-2.238281c4.738281-4.738282 5.742187-11.417969 2.238281-14.917969zm0 0"/><path d="m382.078125 279.421875c-3.5-3.5-10.179687-2.496094-14.914063 2.238281-4.738281 4.738282-5.742187 11.417969-2.242187 14.917969s10.179687 2.496094 14.917969-2.238281c4.734375-4.738282 5.738281-11.417969 2.238281-14.917969zm0 0"/><path d="m424.746094 258.089844c-3.5-3.503906-10.179688-2.5-14.917969 2.238281s-5.742187 11.417969-2.238281 14.917969c3.5 3.5 10.175781 2.496094 14.914062-2.242188 4.738282-4.738281 5.742188-11.414062 2.242188-14.914062zm0 0"/><path d="m318.078125 364.753906c-3.5-3.5-10.179687-2.496094-14.914063 2.242188-4.738281 4.738281-5.742187 11.414062-2.242187 14.914062 3.5 3.503906 10.179687 2.5 14.917969-2.238281 4.734375-4.738281 5.738281-11.417969 2.238281-14.917969zm0 0"/></g></svg>