<svg height="469pt" viewBox="-105 0 469 469.33334" width="469pt" xmlns="http://www.w3.org/2000/svg"><path d="m129.21875 42.667969c23.566406 0 42.667969 19.101562 42.667969 42.664062v341.335938c0 23.5625-19.101563 42.664062-42.667969 42.664062-23.5625 0-42.664062-19.101562-42.664062-42.664062v-341.335938c0-23.5625 19.101562-42.664062 42.664062-42.664062zm0 0" fill="#d7b2a4"/><path d="m171.886719 403.496094v-21.449219c-12.8125 1.183594-26.957031 1.953125-42.667969 1.953125-15.707031 0-29.851562-.769531-42.664062-1.953125v21.449219c12.90625 1.136718 27.117187 1.835937 42.664062 1.835937 15.550781 0 29.761719-.699219 42.667969-1.835937zm0 0" fill="#c99884"/><path d="m129.21875 469.332031v-21.332031c11.777344-.011719 21.324219-9.554688 21.335938-21.332031v-225.835938h21.332031v225.835938c-.027344 23.550781-19.113281 42.636719-42.667969 42.664062zm0 0" fill="#c99884"/><path d="m129.21875 0c131.644531 0 130.660156 281.839844 128.582031 348.605469-.203125 8.851562-5.933593 16.625-14.328125 19.433593-18.796875 6.320313-56.882812 15.960938-114.253906 15.960938-57.367188 0-95.453125-9.640625-114.253906-15.960938-8.394532-2.808593-14.125-10.582031-14.324219-19.433593-2.078125-66.765625-3.066406-348.605469 128.578125-348.605469zm0 0" fill="#fdbc34"/><path d="m129.21875 0c131.644531 0 130.660156 281.839844 128.582031 348.605469-.203125 8.851562-5.933593 16.625-14.328125 19.433593-18.796875 6.320313-56.882812 15.960938-114.253906 15.960938-57.367188 0-95.453125-9.640625-114.253906-15.960938-8.394532-2.808593-14.125-10.582031-14.324219-19.433593-2.078125-66.765625-3.066406-348.605469 128.578125-348.605469zm0 0" fill="#fdbc34"/><path d="m129.21875 0v42.667969c11.917969 0 21.398438 4.300781 30.75 13.957031 36.398438 37.542969 57.835938 144.605469 55.5625 275.1875-18.25 4.59375-46.957031 9.519531-86.3125 9.519531v42.667969c57.371094 0 95.457031-9.644531 114.253906-15.960938 8.394532-2.808593 14.125-10.582031 14.328125-19.433593 2.078125-66.765625 3.0625-348.605469-128.582031-348.605469zm0 0" fill="#f59707"/><path d="m86.554688 341.332031h-42.667969c0-137.132812 10.144531-277.332031 85.332031-277.332031v42.667969c-7.125 0-42.664062 11.3125-42.664062 234.664062zm0 0" fill="#fdcf6d"/><path d="m93.554688 198.011719-42.292969-5.585938c4.1875-31.757812 16.917969-128.425781 77.957031-128.425781v42.667969c-8.769531 0-26.164062 19.238281-35.664062 91.34375zm0 0" fill="#fee3aa"/><g fill="#f59707"><path d="m235.886719 341.332031c0 11.785157-9.550781 21.335938-21.332031 21.335938-11.785157 0-21.335938-9.550781-21.335938-21.335938 0-11.78125 9.550781-21.332031 21.335938-21.332031 11.78125 0 21.332031 9.550781 21.332031 21.332031zm0 0"/><path d="m235.886719 277.332031c0 11.785157-9.550781 21.335938-21.332031 21.335938-11.785157 0-21.335938-9.550781-21.335938-21.335938 0-11.78125 9.550781-21.332031 21.335938-21.332031 11.78125 0 21.332031 9.550781 21.332031 21.332031zm0 0"/><path d="m129.21875 309.332031c0 5.890625-4.773438 10.667969-10.664062 10.667969-5.890626 0-10.667969-4.777344-10.667969-10.667969s4.777343-10.664062 10.667969-10.664062c5.890624 0 10.664062 4.773437 10.664062 10.664062zm0 0"/><path d="m150.554688 138.667969c0 5.890625-4.777344 10.664062-10.667969 10.664062s-10.667969-4.773437-10.667969-10.664062 4.777344-10.667969 10.667969-10.667969 10.667969 4.777344 10.667969 10.667969zm0 0"/><path d="m193.21875 160c0 5.890625-4.773438 10.667969-10.664062 10.667969-5.890626 0-10.667969-4.777344-10.667969-10.667969s4.777343-10.667969 10.667969-10.667969c5.890624 0 10.664062 4.777344 10.664062 10.667969zm0 0"/><path d="m129.21875 224c0 5.890625-4.773438 10.667969-10.664062 10.667969-5.890626 0-10.667969-4.777344-10.667969-10.667969s4.777343-10.667969 10.667969-10.667969c5.890624 0 10.664062 4.777344 10.664062 10.667969zm0 0"/></g><path d="m43.886719 224c0 5.890625-4.777344 10.667969-10.667969 10.667969s-10.664062-4.777344-10.664062-10.667969 4.773437-10.667969 10.664062-10.667969 10.667969 4.777344 10.667969 10.667969zm0 0" fill="#fdcf6d"/><path d="m43.886719 330.667969c0 5.890625-4.777344 10.664062-10.667969 10.664062s-10.664062-4.773437-10.664062-10.664062 4.773437-10.667969 10.664062-10.667969 10.667969 4.777344 10.667969 10.667969zm0 0" fill="#fdcf6d"/><path d="m107.886719 277.332031c0 11.785157-9.550781 21.335938-21.332031 21.335938-11.785157 0-21.335938-9.550781-21.335938-21.335938 0-11.78125 9.550781-21.332031 21.335938-21.332031 11.78125 0 21.332031 9.550781 21.332031 21.332031zm0 0" fill="#fdcf6d"/><path d="m171.886719 64c0 11.78125-9.550781 21.332031-21.332031 21.332031-11.785157 0-21.335938-9.550781-21.335938-21.332031s9.550781-21.332031 21.335938-21.332031c11.78125 0 21.332031 9.550781 21.332031 21.332031zm0 0" fill="#f59707"/><path d="m193.21875 245.332031c0 5.890625-4.773438 10.667969-10.664062 10.667969-5.890626 0-10.667969-4.777344-10.667969-10.667969s4.777343-10.664062 10.667969-10.664062c5.890624 0 10.664062 4.773437 10.664062 10.664062zm0 0" fill="#f59707"/></svg>