<svg height="469pt" viewBox="-85 0 469 469.33334" width="469pt" xmlns="http://www.w3.org/2000/svg"><path d="m277.5 128h-256c-21.332031 0-21.332031 21.332031-21.332031 21.332031s0 21.335938 21.332031 21.335938v42.664062s0 42.667969 42.667969 42.667969l64 213.332031h42.664062l64-213.332031c42.667969 0 42.667969-42.667969 42.667969-42.667969v-42.664062c21.332031 0 21.332031-21.335938 21.332031-21.335938s0-21.332031-21.332031-21.332031zm0 0" fill="#ad6143"/><path d="m21.5 170.667969h170.667969v21.332031h-170.667969zm0 0" fill="#a34e2d"/><path d="m192.167969 170.667969h85.332031v21.332031h-85.332031zm0 0" fill="#993b17"/><path d="m213.5 149.332031 21.332031-21.332031 21.335938 21.332031-21.335938 21.335938zm0 0" fill="#a34e2d"/><path d="m170.832031 192 21.335938-21.332031 21.332031 21.332031-21.332031 21.332031zm0 0" fill="#993b17"/><path d="m128.167969 149.332031 21.332031-21.332031 21.332031 21.332031-21.332031 21.335938zm0 0" fill="#a34e2d"/><path d="m128.167969 234.667969 21.332031-21.335938 21.332031 21.335938-21.332031 21.332031zm0 0" fill="#a34e2d"/><path d="m106.832031 256v-21.332031c11.777344-.011719 21.324219-9.558594 21.335938-21.335938v-85.332031h42.664062v21.332031h-21.332031v64c-.027344 23.554688-19.113281 42.640625-42.667969 42.667969zm0 0" fill="#993b17"/><path d="m192.167969 192v-21.332031c11.777343-.011719 21.320312-9.558594 21.332031-21.335938v-21.332031h21.332031v21.332031c-.027343 23.554688-19.113281 42.640625-42.664062 42.667969zm0 0" fill="#993b17"/><path d="m42.832031 149.332031 21.335938-21.332031 21.332031 21.332031-21.332031 21.335938zm0 0" fill="#c28a73"/><g fill="#a34e2d"><path d="m42.832031 234.667969 21.335938-21.335938 21.332031 21.335938-21.332031 21.332031zm0 0"/><path d="m128.167969 320 21.332031-21.332031 21.332031 21.332031-21.332031 21.332031zm0 0"/><path d="m128.167969 405.332031 21.332031-21.332031 21.332031 21.332031-21.332031 21.335938zm0 0"/><path d="m213.5 234.667969 21.332031-21.335938 21.335938 21.335938-21.335938 21.332031zm0 0"/><path d="m21.5 170.667969v42.664062l21.332031-21.332031zm0 0"/></g><path d="m85.5 192 21.332031-21.332031 21.335938 21.332031-21.335938 21.332031zm0 0" fill="#c28a73"/><path d="m85.5 277.332031 21.332031-21.332031 21.335938 21.332031-21.335938 21.335938zm0 0" fill="#a34e2d"/><path d="m170.832031 277.332031 21.335938-21.332031 21.332031 21.332031-21.332031 21.335938zm0 0" fill="#a34e2d"/><path d="m106.832031 341.332031-13.125 13.128907 7.03125 23.445312 6.09375 6.09375 21.335938-21.332031zm0 0" fill="#a34e2d"/><path d="m192.167969 341.332031-21.335938 21.335938 21.335938 21.332031 6.09375-6.09375 7.03125-23.445312zm0 0" fill="#a34e2d"/><path d="m256.167969 192 21.332031 21.332031v-42.664062zm0 0" fill="#993b17"/><path d="m149.5 0c-70.691406 0-128 57.308594-128 128 0 0 0 42.667969 42.667969 42.667969 0 0 21.332031 0 21.332031 21.332031v21.332031c0 21.335938 21.332031 21.335938 21.332031 21.335938 21.335938 0 21.335938-21.335938 21.335938-21.335938v-64c0-21.332031 21.332031-21.332031 21.332031-21.332031s21.332031 0 21.332031 21.332031c0 21.335938 21.335938 21.335938 21.335938 21.335938 21.332031 0 21.332031-21.335938 21.332031-21.335938 0-11.78125 9.550781-21.332031 21.332031-21.332031h42.667969c0-70.691406-57.308594-128-128-128zm0 0" fill="#fdab00"/><path d="m149.5 0v42.667969c30.847656.078125 59.269531 16.734375 74.417969 43.601562-11.730469 2.03125-22.65625 7.304688-31.542969 15.21875-11.890625-10.351562-27.109375-16.085937-42.875-16.15625-26.8125 0-54.394531 17.386719-61.980469 47.3125-7.449219-2.902343-15.339843-4.519531-23.332031-4.78125-.019531-.207031-.019531-.414062-.019531-.65625l-42.65625 1.085938c.019531 1.628906.835937 42.375 42.65625 42.375 0 0 21.332031 0 21.332031 21.332031v21.332031c0 21.335938 21.332031 21.335938 21.332031 21.335938 21.335938 0 21.335938-21.335938 21.335938-21.335938v-64c0-21.332031 21.332031-21.332031 21.332031-21.332031s21.332031 0 21.332031 21.332031c0 21.335938 21.335938 21.335938 21.335938 21.335938 21.332031 0 21.332031-21.335938 21.332031-21.335938 0-11.78125 9.550781-21.332031 21.332031-21.332031h42.667969c0-70.691406-57.308594-128-128-128zm0 0" fill="#f59707"/><path d="m192.167969 256v-21.332031c11.777343-.011719 21.320312-9.558594 21.332031-21.335938h21.332031c-.027343 23.554688-19.113281 42.640625-42.664062 42.667969zm0 0" fill="#993b17"/><path d="m213.5 213.332031c0 11.785157-9.550781 21.335938-21.332031 21.335938-11.785157 0-21.335938-9.550781-21.335938-21.335938 0-11.78125 9.550781-21.332031 21.335938-21.332031 11.78125 0 21.332031 9.550781 21.332031 21.332031zm0 0" fill="#f59707"/><path d="m85.5 117.332031c0 5.890625-4.777344 10.667969-10.667969 10.667969s-10.664062-4.777344-10.664062-10.667969 4.773437-10.664062 10.664062-10.664062 10.667969 4.773437 10.667969 10.664062zm0 0" fill="#ad6143"/><path d="m170.832031 42.667969c0 11.78125-9.550781 21.332031-21.332031 21.332031s-21.332031-9.550781-21.332031-21.332031c0-11.785157 9.550781-21.335938 21.332031-21.335938s21.332031 9.550781 21.332031 21.335938zm0 0" fill="#f59707"/><path d="m192.167969 96c0 5.890625-4.777344 10.667969-10.667969 10.667969s-10.667969-4.777344-10.667969-10.667969 4.777344-10.667969 10.667969-10.667969 10.667969 4.777344 10.667969 10.667969zm0 0" fill="#993b17"/><path d="m256.167969 117.332031c0 5.890625-4.777344 10.667969-10.667969 10.667969s-10.667969-4.777344-10.667969-10.667969 4.777344-10.664062 10.667969-10.664062 10.667969 4.773437 10.667969 10.664062zm0 0" fill="#993b17"/><path d="m213.5 53.332031c0 5.890625-4.777344 10.667969-10.667969 10.667969s-10.664062-4.777344-10.664062-10.667969 4.773437-10.664062 10.664062-10.664062 10.667969 4.773437 10.667969 10.664062zm0 0" fill="#993b17"/><path d="m64.167969 74.667969c0 5.890625-4.777344 10.664062-10.667969 10.664062s-10.667969-4.773437-10.667969-10.664062 4.777344-10.667969 10.667969-10.667969 10.667969 4.777344 10.667969 10.667969zm0 0" fill="#ad6143"/><path d="m128.167969 74.667969c0 5.890625-4.777344 10.664062-10.667969 10.664062s-10.667969-4.773437-10.667969-10.664062 4.777344-10.667969 10.667969-10.667969 10.667969 4.777344 10.667969 10.667969zm0 0" fill="#ad6143"/><path d="m128.167969 32c0 5.890625-4.777344 10.667969-10.667969 10.667969s-10.667969-4.777344-10.667969-10.667969 4.777344-10.667969 10.667969-10.667969 10.667969 4.777344 10.667969 10.667969zm0 0" fill="#ad6143"/></svg>