<svg height="469pt" viewBox="-10 0 469 469.33374" width="469pt" xmlns="http://www.w3.org/2000/svg"><path d="m42.832031 341.332031c0 11.785157-9.550781 21.335938-21.332031 21.335938s-21.332031-9.550781-21.332031-21.335938c0-11.78125 9.550781-21.332031 21.332031-21.332031s21.332031 9.550781 21.332031 21.332031zm0 0" fill="#fdbc34"/><path d="m192.167969 128 64-64c21.332031-21.332031 21.332031-42.667969 21.332031-42.667969s0-21.332031 21.332031-21.332031c21.335938 0 21.335938 21.332031 42.667969 21.332031s21.332031-21.332031 42.667969-21.332031c21.332031 0 21.332031 21.332031 21.332031 42.667969 0 21.332031 21.332031 21.332031 21.332031 21.332031 21.335938 0 21.335938 21.332031 21.335938 21.332031 0 21.335938-21.335938 21.335938-21.335938 42.667969s21.335938 21.332031 21.335938 42.667969c0 21.332031-21.335938 21.332031-42.667969 42.664062l-64 64zm0 0" fill="#b99e69"/><path d="m349.042969 269.792969-15.085938-15.085938 56.460938-56.457031c9.894531-9.894531 19.851562-16.0625 27.125-20.542969 2.539062-1.582031 8.476562-5.25 9.476562-6.601562-.1875-2.105469-.1875-2.273438-4.601562-6.6875-6.335938-6.335938-16.917969-16.917969-16.917969-36.417969s10.582031-30.082031 16.917969-36.417969l15.082031 15.085938c-5.25 5.25-10.667969 10.664062-10.667969 21.332031s5.417969 16.082031 10.667969 21.332031c5.480469 5.480469 10.667969 10.667969 10.667969 21.335938 0 13.1875-8.148438 18.226562-19.417969 25.1875-7.082031 4.375-15.105469 9.332031-23.25 17.476562zm0 0" fill="#a37f39"/><path d="m426.832031 85.332031c-20.6875 0-42.664062-14.957031-42.664062-42.664062h21.332031c0 21.082031 21.125 21.332031 21.332031 21.332031zm0 0" fill="#a37f39"/><path d="m341.5 42.667969c-19.5 0-30.082031-10.585938-36.417969-16.917969-4.414062-4.417969-4.582031-4.417969-6.25-4.417969v-21.332031c10.667969 0 15.855469 5.1875 21.335938 10.667969 5.25 5.25 10.664062 10.664062 21.332031 10.664062zm0 0" fill="#a37f39"/><path d="m234.832031 149.332031 85.335938-85.332031s21.332031-21.332031 42.664062-21.332031c21.335938 0 42.667969 21.332031 42.667969 42.664062 0 21.335938 21.332031 21.335938 21.332031 42.667969s-42.664062 64-42.664062 64l-42.667969 42.667969zm0 0" fill="#c5af83"/><path d="m192.167969 150.382812 91.601562-92.503906c9.640625-9.734375 22.773438-15.210937 36.472657-15.210937 21.257812 0 42.589843 21.332031 42.589843 42.664062 0 21.335938 21.335938 21.335938 21.335938 21.335938 42.664062 0 42.664062 28.980469 42.664062 42.589843v.148438c0 13.613281-5.40625 26.667969-15.03125 36.292969l-91.632812 91.632812zm0 0" fill="#af0a00"/><path d="m298.832031 64c30.171875 0 42.667969 42.667969 42.667969 42.667969 0 21.332031 21.332031 21.332031 21.332031 21.332031 14.121094 0 42.667969 0 42.667969 42.667969 0 12.8125-6.90625 28.238281-21.332031 42.664062l-21.335938 21.335938-128-128s.210938.207031 21.542969-21.125c21.332031-21.335938 42.457031-21.542969 42.457031-21.542969zm0 0" fill="#c11107"/><path d="m277.707031 64c0 21.332031 21.125 42.667969 42.460938 42.667969 21.332031 0 21.332031 21.332031 21.332031 21.332031 0 21.332031 21.332031 42.667969 42.667969 42.667969 21.332031 0 21.332031 21.332031 21.332031 21.332031l-42.667969 42.667969-128-128zm0 0" fill="#c82e25"/><path d="m120.847656 469.332031c-66.652344 0-120.679687-54.027343-120.679687-120.679687 0-32.003906 12.714843-62.699219 35.34375-85.332032l199.320312-199.320312 24.996094 24.992188c38.632813 38.636718 60.339844 91.035156 60.339844 145.675781 0 54.636719-.371094 85.703125-39.007813 124.339843l-74.980468 74.980469c-22.632813 22.628907-53.328126 35.34375-85.332032 35.34375zm0 0" fill="#fdbc34"/><path d="m306.859375 162.457031c-3.320313-9-7.265625-17.761719-11.808594-26.210937-19.613281-5.421875-39.867187-8.195313-60.21875-8.246094-25.554687 0-47.742187.183594-68.804687 4.804688l-55.527344 55.527343c39-39 71.125-39 124.332031-39 24.601563.035157 48.996094 4.480469 72.027344 13.125zm0 0" fill="#fdab00"/><path d="m.167969 348.652344c0 66.652344 54.027343 120.679687 120.679687 120.679687 32.003906 0 62.699219-12.714843 85.332032-35.34375l199.320312-199.320312-24.992188-24.996094c-38.636718-38.632813-91.035156-60.339844-145.675781-60.339844-54.636719 0-85.703125.371094-124.339843 39.007813l-74.980469 74.980468c-22.628907 22.632813-35.34375 53.328126-35.34375 85.332032zm0 0" fill="#fdcf6d"/><g fill="#fdbc34"><path d="m120.855469 469.332031c-66.621094-.078125-120.609375-54.066406-120.6875-120.6875h42.664062c0 31.558594 19.007813 60.007813 48.164063 72.082031 29.152344 12.078126 62.710937 5.402344 85.023437-16.914062l169.023438-169.042969c-30.050781-27.609375-69.402344-42.882812-110.210938-42.769531v-42.667969c54.667969-.15625 107.121094 21.570313 145.667969 60.335938l25 25-199.3125 199.3125c-22.582031 22.707031-53.308594 35.4375-85.332031 35.351562zm0 0"/><path d="m298.832031 298.667969c0 11.78125-9.550781 21.332031-21.332031 21.332031s-21.332031-9.550781-21.332031-21.332031c0-11.785157 9.550781-21.335938 21.332031-21.335938s21.332031 9.550781 21.332031 21.335938zm0 0"/><path d="m256.167969 192c0 11.78125-9.550781 21.332031-21.335938 21.332031-11.78125 0-21.332031-9.550781-21.332031-21.332031s9.550781-21.332031 21.332031-21.332031c11.785157 0 21.335938 9.550781 21.335938 21.332031zm0 0"/><path d="m149.5 352c0 5.890625-4.777344 10.667969-10.667969 10.667969s-10.664062-4.777344-10.664062-10.667969 4.773437-10.667969 10.664062-10.667969 10.667969 4.777344 10.667969 10.667969zm0 0"/><path d="m192.167969 298.667969c0 11.78125-9.550781 21.332031-21.335938 21.332031-11.78125 0-21.332031-9.550781-21.332031-21.332031 0-11.785157 9.550781-21.335938 21.332031-21.335938 11.785157 0 21.335938 9.550781 21.335938 21.335938zm0 0"/><path d="m149.5 245.332031c0 5.890625-4.777344 10.667969-10.667969 10.667969s-10.664062-4.777344-10.664062-10.667969 4.773437-10.664062 10.664062-10.664062 10.667969 4.773437 10.667969 10.664062zm0 0"/><path d="m298.832031 224c0 5.890625-4.773437 10.667969-10.664062 10.667969s-10.667969-4.777344-10.667969-10.667969 4.777344-10.667969 10.667969-10.667969 10.664062 4.777344 10.664062 10.667969zm0 0"/></g><path d="m256.167969 128c0 11.78125-9.550781 21.332031-21.335938 21.332031-11.78125 0-21.332031-9.550781-21.332031-21.332031s9.550781-21.332031 21.332031-21.332031c11.785157 0 21.335938 9.550781 21.335938 21.332031zm0 0" fill="#fdab00"/><path d="m234.832031 96c0 5.890625-4.773437 10.667969-10.664062 10.667969s-10.667969-4.777344-10.667969-10.667969 4.777344-10.667969 10.667969-10.667969 10.664062 4.777344 10.664062 10.667969zm0 0" fill="#fdab00"/><path d="m234.832031 330.667969c0 5.890625-4.773437 10.664062-10.664062 10.664062s-10.667969-4.773437-10.667969-10.664062 4.777344-10.667969 10.667969-10.667969 10.664062 4.777344 10.664062 10.667969zm0 0" fill="#fdbc34"/><path d="m149.5 426.667969c0 11.78125-9.550781 21.332031-21.332031 21.332031s-21.335938-9.550781-21.335938-21.332031c0-11.785157 9.554688-21.335938 21.335938-21.335938s21.332031 9.550781 21.332031 21.335938zm0 0" fill="#fdbc34"/><path d="m64.167969 288c0 5.890625-4.777344 10.667969-10.667969 10.667969s-10.667969-4.777344-10.667969-10.667969 4.777344-10.667969 10.667969-10.667969 10.667969 4.777344 10.667969 10.667969zm0 0" fill="#fdbc34"/></svg>