<svg height="469pt" viewBox="0 0 469.3333 469" width="469pt" xmlns="http://www.w3.org/2000/svg"><path d="m468.59375 32.804688c0-17.617188-14.28125-31.898438-31.898438-31.898438-2.480468.265625-4.933593.746094-7.332031 1.429688-33.40625 8.273437-68.117187 7.195312-101.996093 1.148437-82.058594-14.644531-179.402344 20.328125-241.5625 82.488281-62.160157 62.15625-97.132813 159.5-82.488282 241.5625 6.046875 33.878906 7.125 68.585938-1.144531 101.992188-.6875 2.398437-1.164063 4.851562-1.433594 7.332031 0 17.617187 14.285157 31.902344 31.902344 31.902344 2.480469-.269531 4.933594-.746094 7.332031-1.433594 33.40625-8.269531 68.117188-7.191406 101.992188-1.144531 82.0625 14.644531 179.40625-20.328125 241.566406-82.488282 62.15625-62.160156 97.128906-159.503906 82.484375-241.5625-6.046875-33.878906-7.125-68.589843 1.148437-101.996093.683594-2.398438 1.164063-4.851563 1.429688-7.332031zm0 0" fill="#fdbc34"/><path d="m273.550781 81.238281c-13.828125-24.03125-61.550781-22.503906-106.589843 3.414063-45.039063 25.917968-70.34375 66.410156-56.515626 90.441406 13.832032 24.035156 61.554688 22.503906 106.59375-3.414062 45.039063-25.917969 70.34375-66.410157 56.511719-90.441407zm0 0" fill="#fdcf6d"/><path d="m233.816406 70.878906c-4.027344-8.578125-21.238281-8.988281-38.441406-.914062-17.203125 8.078125-27.886719 21.578125-23.859375 30.15625s21.238281 8.988281 38.441406.914062c17.203125-8.078125 27.886719-21.578125 23.859375-30.15625zm0 0" fill="#fee3aa"/><path d="m234.667969 373.5c0 17.671875-14.328125 32-32 32-17.675781 0-32-14.328125-32-32s14.324219-32 32-32c17.671875 0 32 14.328125 32 32zm0 0" fill="#f59707"/><path d="m405.332031 266.832031c0 17.675781-14.324219 32-32 32-17.671875 0-32-14.324219-32-32 0-17.671875 14.328125-32 32-32 17.675781 0 32 14.328125 32 32zm0 0" fill="#f59707"/><path d="m64 277.5c0-11.78125-4.777344-21.332031-10.667969-21.332031s-10.664062 9.550781-10.664062 21.332031 4.773437 21.332031 10.664062 21.332031 10.667969-9.550781 10.667969-21.332031zm0 0" fill="#fee3aa"/><path d="m135.292969 156.792969c-7.753907-7.75-23.34375-4.730469-34.820313 6.746093-11.480468 11.476563-14.5 27.070313-6.746094 34.820313 7.753907 7.753906 23.34375 4.734375 34.824219-6.742187 11.476563-11.480469 14.496094-27.070313 6.742188-34.824219zm0 0" fill="#fee3aa"/><path d="m320 53.5c0 5.890625-4.777344 10.667969-10.667969 10.667969s-10.664062-4.777344-10.664062-10.667969 4.773437-10.667969 10.664062-10.667969 10.667969 4.777344 10.667969 10.667969zm0 0" fill="#fee3aa"/><g fill="#f59707"><path d="m448 96.167969c0 17.671875-14.328125 32-32 32s-32-14.328125-32-32c0-17.675781 14.328125-32 32-32s32 14.324219 32 32zm0 0"/><path d="m320 320.167969c0 11.78125-9.550781 21.332031-21.332031 21.332031-11.785157 0-21.335938-9.550781-21.335938-21.332031 0-11.785157 9.550781-21.335938 21.335938-21.335938 11.78125 0 21.332031 9.550781 21.332031 21.335938zm0 0"/><path d="m298.667969 266.832031c0 5.890625-4.777344 10.667969-10.667969 10.667969s-10.667969-4.777344-10.667969-10.667969 4.777344-10.664062 10.667969-10.664062 10.667969 4.773437 10.667969 10.664062zm0 0"/><path d="m85.332031 405.5c0 11.78125-9.550781 21.332031-21.332031 21.332031s-21.332031-9.550781-21.332031-21.332031 9.550781-21.332031 21.332031-21.332031 21.332031 9.550781 21.332031 21.332031zm0 0"/><path d="m320 117.5c0 5.890625-4.777344 10.667969-10.667969 10.667969s-10.664062-4.777344-10.664062-10.667969 4.773437-10.667969 10.664062-10.667969 10.667969 4.777344 10.667969 10.667969zm0 0"/><path d="m230.421875 217.757812c-8.792969-8.800781-28.351563-3.511718-43.679687 11.8125-15.328126 15.324219-20.625 34.875-11.832032 43.671876 8.796875 8.800781 28.351563 3.507812 43.679688-11.8125 15.328125-15.324219 20.625-34.875 11.832031-43.671876zm0 0"/><path d="m466.015625 142.132812c-6.046875-33.882812-7.125-68.589843 1.148437-101.996093.683594-2.398438 1.164063-4.851563 1.429688-7.332031-.027344-13.503907-8.578125-25.515626-21.324219-29.964844-1.746093 5.871094-8.25 11.710937-11.664062 13.816406l-7.710938 4.550781-2.144531 8.6875c-9.019531 36.492188-9.605469 75.648438-1.730469 119.730469 11.898438 66.5625-17.164062 150.40625-70.664062 203.90625-45.210938 45.21875-111.460938 73.300781-172.875 73.300781-10.398438.023438-20.78125-.863281-31.023438-2.65625-43.539062-7.78125-83.726562-7.164062-119.75 1.742188l-11.726562 2.914062-3.523438 11.554688c-1.78125 5.554687-4.058593 10.941406-6.792969 16.097656 5.988282 7.71875 15.203126 12.25 24.976563 12.277344 2.480469-.269531 4.933594-.746094 7.335937-1.433594 33.402344-8.273437 68.113282-7.191406 101.992188-1.148437 82.058594 14.648437 179.402344-20.324219 241.5625-82.484376 62.15625-62.160156 97.128906-159.503906 82.484375-241.5625zm0 0"/></g></svg>