<svg height="469pt" viewBox="0 0 469 469.33335" width="469pt" xmlns="http://www.w3.org/2000/svg"><path d="m298.832031 85.332031c0-42.664062 42.667969-42.664062 42.667969-42.664062s0-42.667969 42.667969-42.667969c42.664062 0 42.664062 42.667969 42.664062 42.667969s42.667969 0 42.667969 42.664062c0 42.667969-42.667969 42.667969-42.667969 42.667969s-21.332031 0-21.332031 21.332031c0 21.335938 21.332031 21.335938 21.332031 21.335938s42.667969 0 42.667969 42.664062c0 42.667969-42.667969 42.667969-64 42.667969s-21.332031 21.332031-21.332031 21.332031c0 42.667969-42.667969 42.667969-85.335938 42.667969 0 0-21.332031 0-42.664062 21.332031-21.335938 21.335938-65.449219 58.839844-97.449219 90.839844-16.625 16.621094-36.488281 26.769531-54.542969 32.964844-28.300781 9.632812-59.617187 2.304687-80.707031-18.882813-24.484375-24.484375-30.738281-62.503906-13.65625-92.625 5.679688-10.265625 12.710938-19.726562 20.90625-28.125 32-32 97.449219-69.503906 118.78125-90.835937 21.332031-21.335938 21.332031-42.667969 21.332031-42.667969 0-21.332031-21.332031-21.332031-21.332031-21.332031-21.332031 0-42.667969-21.335938-42.667969-42.667969s21.335938-42.667969 42.667969-42.667969c0 0 0-42.664062 42.667969-42.664062 42.664062 0 42.664062 42.664062 42.664062 42.664062s0-21.332031 21.335938-21.332031c21.332031 0 21.332031 21.332031 21.332031 21.332031zm0 0" fill="#e0d4b7"/><path d="m79 469.332031c-20.828125-.085937-40.785156-8.375-55.542969-23.070312l30.167969-30.1875c9.640625 9.542969 23.808594 12.902343 36.707031 8.707031 15.605469-5.363281 28.460938-13.03125 38.210938-22.78125 18.601562-18.605469 41.3125-39.167969 59.582031-55.699219l2.125-1.914062c14.167969-12.84375 26.980469-24.449219 35.75-33.21875l30.167969 30.164062c-9.148438 9.148438-22.5 21.273438-37.273438 34.667969l-2.125 1.925781c-17.9375 16.21875-40.207031 36.386719-58.0625 54.242188-14.351562 14.375-32.707031 25.46875-54.519531 32.96875-8.105469 2.78125-16.617188 4.199219-25.1875 4.195312zm0 0" fill="#d4c3a2"/><path d="m426.832031 170.667969s-21.332031 0-21.332031-21.335938c0-21.332031 21.332031-21.332031 21.332031-21.332031s42.667969 0 42.667969-42.667969c0-42.664062-42.667969-42.664062-42.667969-42.664062s0-42.667969-42.664062-42.667969c-42.667969 0-42.667969 42.667969-42.667969 42.667969s-42.667969 0-42.667969 42.664062h-21.332031s0-21.332031-21.332031-21.332031c-21.335938 0-21.335938 21.332031-21.335938 21.332031s0-42.664062-42.664062-42.664062c-42.667969 0-42.667969 42.664062-42.667969 42.664062-21.332031 0-42.667969 21.335938-42.667969 42.667969s21.335938 42.667969 42.667969 42.667969c0 0 21.332031 0 21.332031 21.332031 0 0 0 21.332031-21.332031 42.667969-5.085938 5.085937-12.71875 11.117187-21.804688 17.769531-6.726562 4.925781-14.25 10.191406-22.121093 15.667969.65625 3.039062 1.078125 6.125 1.257812 9.226562 0 42.667969 42.667969 42.667969 42.667969 42.667969 55.707031 0 62.917969 48.453125 63.851562 61.019531 16.945313-15.351562 32.542969-29.414062 42.816407-39.6875 21.332031-21.332031 42.664062-21.332031 42.664062-21.332031 42.667969 0 85.335938 0 85.335938-42.667969 0 0 0-21.332031 21.332031-21.332031s64 0 64-42.667969c0-42.664062-42.667969-42.664062-42.667969-42.664062zm0 0" fill="#eae2ce"/><path d="m210.375 210.207031-15.082031-15.082031 21.332031-21.332031c17.605469-17.617188 18.1875-34.53125 18.207031-35.242188l21.335938.117188c0 1.050781-.273438 26.03125-24.460938 50.207031zm0 0" fill="#d4c3a2"/><path d="m163.5 314.613281-13.25-16.707031c85.769531-68.144531 206.917969-162.3125 206.917969-162.3125 17.1875-14.882812 27.042969-36.511719 27-59.25v-33.675781h21.332031v33.675781c.007812 29.132812-12.726562 56.8125-34.855469 75.761719-.394531.332031-121.414062 94.425781-207.144531 162.507812zm0 0" fill="#d4c3a2"/><path d="m64.167969 437.332031h-21.335938c0-22.070312 0-47.082031 24.460938-71.539062 6.539062-6.554688 33.6875-28.761719 82.957031-67.886719l13.25 16.707031c-59.707031 47.429688-77.082031 62.210938-81.125 66.261719-18.207031 18.207031-18.207031 35.9375-18.207031 56.457031zm0 0" fill="#c5af83"/><g fill="#e0d4b7"><path d="m192.167969 192h-21.335938c0-21.09375-21.125-21.332031-21.332031-21.332031-21.542969 0-42.667969-21.136719-42.667969-42.667969h21.335938c0 9.574219 11.769531 21.332031 21.332031 21.332031 20.6875 0 42.667969 14.960938 42.667969 42.667969zm0 0"/><path d="m227.5 368.175781-14.332031-15.789062c11-10 20.769531-19 27.914062-26.136719 26.8125-26.8125 54.667969-27.582031 57.75-27.582031 55.167969 0 64-5.0625 64-21.335938 0-20.6875 14.960938-42.664062 42.667969-42.664062 39.605469 0 42.667969-8.84375 42.667969-21.335938 0-18.34375-13.4375-21.238281-21.460938-21.332031-20.5625 0-42.539062-14.957031-42.539062-42.667969 0-27.707031 21.957031-42.664062 42.601562-42.664062 7.917969-.09375 21.398438-2.992188 21.398438-21.335938s-13.4375-21.238281-21.460938-21.332031l-20.957031-.125-.25-21.019531c-.082031-8.042969-2.980469-21.523438-21.332031-21.523438v-21.332031c29.125 0 42.414062 21.394531 42.664062 42.605469l.0625.0625c21.230469.25 42.605469 13.539062 42.605469 42.664062s-21.394531 42.417969-42.605469 42.667969c-.332031 0-21.394531.238281-21.394531 21.332031s21.125 21.335938 21.332031 21.335938c21.292969.25 42.667969 13.539062 42.667969 42.664062 0 42.667969-43.230469 42.667969-64 42.667969-21.082031 0-21.332031 21.125-21.332031 21.332031 0 42.667969-43.375 42.667969-85.335938 42.667969-.851562.011719-21.75.425781-42.664062 21.332031-7.3125 7.324219-17.375 16.574219-28.667969 26.84375zm0 0"/><path d="m320.167969 85.332031h-21.335938c0-29.125 21.398438-42.414062 42.605469-42.664062l.25 21.332031c-8.042969.09375-21.519531 2.988281-21.519531 21.332031zm0 0"/><path d="m256.167969 85.730469-21.335938-.679688c.335938-12.789062 8.710938-21.050781 21.335938-21.050781s21 8.3125 21.332031 21.1875zm0 0"/><path d="m213.5 85.519531c-.082031-8.039062-2.980469-21.519531-21.332031-21.519531v-21.332031c29.125 0 42.414062 21.394531 42.664062 42.601562zm0 0"/></g><path d="m42.832031 437.332031h-21.332031c0-22.070312 0-47.082031 24.457031-71.539062 21.5625-21.554688 278.917969-221.699219 289.875-230.199219 17.1875-14.882812 27.046875-36.511719 27-59.25v-33.675781h21.335938v33.675781c.007812 29.132812-12.726563 56.8125-34.855469 75.761719-92.75 72.125-271.769531 212.269531-288.269531 228.769531-18.210938 18.207031-18.210938 35.9375-18.210938 56.457031zm0 0" fill="#f3eee3"/><path d="m42.832031 437.332031h-21.332031c0-22.070312 0-47.082031 24.457031-71.539062 6.167969-6.179688 30.273438-25.980469 73.6875-60.53125l13.292969 16.6875c-52.542969 41.820312-68.105469 55.132812-71.894531 58.925781-18.210938 18.207031-18.210938 35.9375-18.210938 56.457031zm0 0" fill="#eae2ce"/><path d="m189.042969 210.207031-15.085938-15.082031 21.335938-21.332031c17.601562-17.617188 18.1875-34.53125 18.207031-35.242188-.0625-5.175781-1.894531-31.882812-32-31.882812h-10.667969v-21.335938h10.667969c42.1875 0 53.332031 34.886719 53.332031 53.335938 0 1.050781-.269531 26.03125-24.457031 50.207031zm0 0" fill="#f3eee3"/><path d="m102.707031 403.082031-13.082031-16.832031c66.230469-51.511719 195.832031-153.292969 212.332031-169.792969 24.1875-24.175781 69.625-24.457031 71.542969-24.457031h53.332031v21.332031h-53.332031c-.375 0-38.5625.3125-56.457031 18.210938-21.5625 21.550781-206.460938 165.425781-214.335938 171.539062zm0 0" fill="#f3eee3"/><path d="m201.4375 347.042969-13.207031-16.75c83.332031-65.804688 107.851562-86.625 113.726562-92.5 24.1875-24.179688 69.625-24.460938 71.542969-24.460938h53.332031v21.335938h-53.332031c-.375 0-38.5625.3125-56.457031 18.207031-9.148438 9.144531-48.042969 40.824219-115.605469 94.167969zm0 0" fill="#d4c3a2"/><path d="m102.707031 403.082031-13.082031-16.832031c0-.011719 40.230469-31.292969 85.855469-67.238281l13.207031 16.75c-45.6875 36-85.980469 67.320312-85.980469 67.320312zm0 0" fill="#eae2ce"/><path d="m274.792969 210.144531-15.230469-14.945312c5-5.105469 17.9375-21.398438 17.9375-35.199219 0-13.761719-13.144531-30.03125-18.230469-35.136719l15.105469-15.070312c2.5 2.5 24.457031 25.175781 24.457031 50.207031 0 24.980469-21.582031 47.644531-24.039062 50.144531zm0 0" fill="#f3eee3"/><path d="m102.707031 424.417969-13.082031-16.835938c0-.007812 47.980469-37.320312 98.605469-77.289062l13.207031 16.75c-50.6875 40.019531-98.730469 77.375-98.730469 77.375zm0 0" fill="#c5af83"/></svg>