<svg height="467pt" viewBox="-42 0 467 467.70834" width="467pt" xmlns="http://www.w3.org/2000/svg"><path d="m192.023438 169.042969c23.566406 0 42.667968 19.101562 42.667968 42.664062v213.335938c0 23.5625-19.101562 42.664062-42.667968 42.664062-23.5625 0-42.664063-19.101562-42.664063-42.664062v-213.335938c0-23.5625 19.101563-42.664062 42.664063-42.664062zm0 0" fill="#fee3aa"/><path d="m192.023438 169.042969c-23.5625 0-42.664063 19.101562-42.664063 42.664062v165.746094c28.066406 6.5625 57.265625 6.5625 85.332031 0v-165.746094c0-23.5625-19.101562-42.664062-42.667968-42.664062zm0 0" fill="#fdcf6d"/><path d="m192.023438 467.707031v-21.332031c11.777343-.011719 21.324218-9.554688 21.335937-21.332031v-225.835938h21.332031v225.835938c-.027344 23.550781-19.113281 42.636719-42.667968 42.664062zm0 0" fill="#fdcf6d"/><path d="m316.167969 159.765625c-4.121094-16.652344-12.316407-32.023437-23.84375-44.726563-12.242188-13.523437-28.082031-23.28125-45.667969-28.132812-8.734375-2.433594-17.765625-3.648438-26.832031-3.609375-10.011719.214844-20.269531 1.601563-29.636719 5.53125-10.835938 4.453125-16.0625 7.980469-23.03125 12.800781-6.667969 4.769532-12.785156 10.273438-18.234375 16.402344-6.734375 7.472656-12.121094 16.0625-15.917969 25.382812-2.808594 5.957032-4.253906 14.53125-4.660156 22.5625l-64.117188-1.617187c-1.644531 27.992187 8.296876 61.371094 28.128907 84.738281 19.710937 23.835938 46.035156 39.097656 75.652343 45.40625 15.175782 3.121094 30.8125 3.320313 46.0625.578125 13.980469-2.449219 27.546876-6.847656 40.304688-13.070312 13.402344-6.410157 25.660156-14.984375 36.277344-25.375 11.167968-11.105469 21.929687-26.3125 26.773437-45.929688 4.585938-22 2.222657-34.789062-1.257812-50.941406zm0 0" fill="#fdbc34"/><path d="m127.609375 72.042969-4.125 6.097656c-1.890625 1.84375-2.898437 2.941406-3.953125 4.160156-2.394531 2.785157-4.621094 5.707031-6.671875 8.757813-4.398437 6.453125-8.152344 13.320312-11.210937 20.507812-6.84375 15.964844-11.394532 32.816406-13.519532 50.054688-1.285156 9-2.015625 18.070312-2.195312 27.160156l-.175782 6.296875c-.160156 2.289063-.121093 4.585937.109376 6.871094.199218 1.324219.265624 2.761719.351562 4.507812.003906 1.527344.160156 3.046875.460938 4.542969 2.261718 13.046875 7.921874 24.492188 17.316406 35.003906l7.484375 8.371094 16.765625-14.964844-7.484375-8.386718c-6.605469-7.382813-10.402344-14.964844-12.113281-25.980469-.089844-2.152344-.242188-4.3125-.503907-6.15625-.066406-.769531.019531-1.757813.128907-4.28125l.132812-5.792969c.1875-8.152344.859375-16.285156 2.019531-24.359375 1.863281-15.183594 5.867188-30.027344 11.894531-44.085937 2.523438-5.890626 5.609376-11.523438 9.214844-16.824219 1.542969-2.292969 3.222656-4.488281 5.027344-6.582031.703125-.824219 1.359375-1.527344 3.90625-4.234376l5.75-8.089843zm0 0" fill="#f59707"/><path d="m194.023438 275.65625-3.5-.082031c-2.703126-.011719-5.402344-.199219-8.082032-.5625-29.875-2.867188-61.957031-18.085938-79.375-37.8125l-7.105468-8.042969 15.960937-14.144531 7.125 8.050781c13.664063 15.46875 41.375 28.40625 65.914063 30.769531 1.898437.261719 3.8125.398438 5.730468.40625l3.375.085938c2.082032-.0625 6.1875-.179688 9.769532-.511719 7.464843-.535156 14.882812-1.558594 22.210937-3.074219 12.769531-2.539062 23.851563-6.96875 32.144531-12.8125 7.230469-5.125 11.644532-10.613281 14.707032-18.34375 3.292968-8.082031 4.8125-19.6875 4.460937-33.632812-1.167969-24.59375-8.855469-39.8125-24.917969-49.117188-8.769531-5.320312-20.417968-9.101562-32.167968-10.476562l2.5-21.1875c14.898437 1.75 29.292968 6.476562 40.542968 13.320312 22.207032 12.855469 33.832032 34.699219 35.355469 66.679688.457031 17.09375-1.625 31.664062-5.980469 42.375-4.542968 11.457031-11.605468 20.3125-22.1875 27.800781-10.730468 7.5625-24.625 13.199219-40.230468 16.300781-8.148438 1.6875-16.402344 2.832031-24.707032 3.429688-3.855468.363281-8.5.5-11.542968.582031zm0 0" fill="#f59707"/><path d="m217.152344 170.785156c-3.546875.808594-21.773438-1.558594-25.007813-2.664062-7.042969-1.875-12.707031-7.167969-17.273437-13.59375-8.953125-13.179688-13.046875-30.355469-14.011719-48.007813 4.085937-3.417969 8.40625-6.542969 12.929687-9.359375 2.265626-1.441406 4.726563-2.785156 7.15625-4.121094 3.003907-1.570312 6.085938-2.976562 9.242188-4.210937 12.125-5.210937 27.339844-6.160156 38.753906-5.164063-13.007812 13.164063-22.671875 24.171876-23.585937 45.03125-.914063 20.855469 11.796875 42.089844 11.796875 42.089844zm0 0" fill="#cd3e36"/><path d="m175.027344 207.5625c-6.464844-2.910156-12.195313-7.238281-16.757813-12.664062-26.15625 13.332031-60.0625 13.710937-91.847656-1.296876 3.769531 20.40625 12.699219 39.511719 25.933594 55.496094 35.132812-2.378906 64.171875-18.667968 82.671875-41.535156zm19.25 4.007812c-4.0625 29.0625-24.953125 56-54.65625 73.632813 17.753906 8.039063 38.226562 12.910156 59.601562 11.558594 18.378906-29.65625 22.464844-62.4375 17.792969-91.46875-7.339844 3.488281-16.105469 6.027343-22.738281 6.277343zm81.710937-11.019531c-5.824219-4.816406-12.648437-8.273437-19.976562-10.121093-7.308594-2.394532-14.277344-4.351563-21.667969-4.984376.328125 1.433594.132812 3.457032.335938 4.898438-.3125-.015625.117187-.03125-.132813.050781.082031.144531-.21875 1.136719-1.601563 2.847657 20.511719 20.988281 25.699219 55.273437 21.429688 88.769531 16.796875-8.546875 33.261719-19.429688 47.09375-37.910157-4.472656-17.519531-13.082031-33.5625-25.480469-43.550781zm43.085938-25.203125c-2.328125-20.460937-10.566407-42.660156-26.75-60.308594-37.417969.953126-65.789063 25.464844-70.695313 53.644532 3.097656.515625 5.484375 1.292968 7.636719 3.847656 23.492187-17.265625 59.46875-14.777344 89.808594 2.816406zm0 0" fill="#cd3e36"/><path d="m293.84375 223.988281c-4.433594-8.894531-10.058594-16.75-17.039062-22.621093-.675782 7.128906-1.929688 13.367187-3.90625 18.214843-3.0625 7.730469-7.476563 13.21875-14.707032 18.34375-1.171875.828125-2.789062 1.394531-4.070312 2.164063 1.144531 7.695312 1.644531 15.472656 1.492187 23.25 5.203125-2.195313 10.1875-4.875 14.890625-7.996094 10.582032-7.488281 17.644532-16.34375 22.1875-27.800781.441406-1.089844.757813-2.386719 1.152344-3.554688zm0 0" fill="#c11107"/><path d="m203.835938 253.8125c-3.582032.332031-7.6875.449219-9.769532.511719l-3.375-.085938c-1.917968-.007812-3.832031-.144531-5.730468-.40625-2.75-.265625-5.546876-.703125-8.351563-1.222656-4.972656 6.574219-10.617187 12.613281-16.84375 18.019531 7.410156 2.148438 15 3.617188 22.675781 4.382813 2.679688.363281 5.378906.550781 8.082032.5625l3.5.082031c3.042968-.082031 7.6875-.21875 11.542968-.582031 1.535156-.109375 3.132813-.5 4.679688-.652344 2.742187-7.25 4.828125-14.734375 6.234375-22.359375-4.214844.625-8.433594 1.453125-12.644531 1.75zm0 0" fill="#c11107"/><path d="m136.914062 237.378906c-22.886718-10.078125-27.660156-28.441406-28.265624-32.335937-.007813-.1875-.035157-.347657-.046876-.535157-7.695312-.492187-15.320312-1.78125-22.753906-3.84375.027344.371094-.023437.960938.019532 1.28125.199218 1.328126.265624 2.765626.351562 4.511719.003906 1.527344.160156 3.046875.460938 4.542969 2.261718 13.046875 7.921874 24.492188 17.316406 35.003906l1.371094 1.535156c2.332031-.402343 4.421874-1.238281 6.675781-1.78125.089843.074219.15625.15625.242187.230469 8.5-1.953125 16.761719-4.839843 24.628906-8.609375zm0 0" fill="#c11107"/><path d="m265.820312 120.011719c-7.863281 3.097656-15.242187 7.308593-21.90625 12.503906 2.941407 1.230469 5.792969 2.675781 8.527344 4.316406.789063.457031 1.546875.9375 2.292969 1.429688 8.375 5.351562 14.726563 13.347656 18.046875 22.714843 7.890625.449219 15.699219 1.789063 23.285156 3.996094-4.5-20.167968-14.519531-35.003906-30.246094-44.960937zm0 0" fill="#c11107"/><path d="m364.285156 105.023438c-12.886718-25.027344-33.960937-46.34375-57.480468-59.941407-23.5625-14.019531-48.625-21.613281-74.441407-24.703125-13.738281-1.632812-27.632812-1.457031-41.328125.527344-13.542968 2.023438-26.792968 5.679688-39.457031 10.886719-25.425781 10.335937-50.191406 29.238281-66.105469 54.855469-15.824218 25.652343-21.695312 54.847656-21.5625 80.667968l85.335938.179688c.429687-29.722656 10.835937-46.347656 35.046875-56.890625 6.136719-2.492188 12.542969-4.261719 19.089843-5.261719 6.425782-.941406 12.945313-1 19.382813-.175781 14.472656 1.695312 29.027344 6.3125 40.34375 13.210937 23.070313 13.34375 34.082031 35.480469 35.578125 67.03125.40625 15.53125-1.292969 30.554688-5.953125 42.070313-4.648437 11.640625-11.769531 20.449219-22.246094 27.894531-10.453125 7.355469-24.316406 13.105469-40.152343 16.257812-8.09375 1.6875-16.292969 2.832032-24.539063 3.433594-4.074219.367188-8.746094.503906-12.484375.574219-3.46875.007813-6.9375-.183594-10.386719-.578125-29.703125-2.851562-62.40625-18.097656-79.863281-37.867188l-63.554688 56.945313c18.316407 20.332031 40.097657 34.945313 62.683594 45.609375 22.730469 10.757812 47.121094 17.589844 72.128906 20.207031 6.644532.722657 13.320313 1.058594 20.003907 1.011719 6.402343-.113281 11.890625-.3125 17.925781-.816406 12.003906-.882813 23.941406-2.5625 35.722656-5.027344 23.886719-4.90625 48.765625-13.980469 71.589844-29.941406 22.828125-15.707032 42.273438-39.769532 52.394531-65.992188 10.402344-26.332031 12.683594-52.515625 11.984375-77.421875-.667968-26.738281-7.390625-52.976562-19.65625-76.746093zm0 0" fill="#fdbc34"/><path d="m108.304688 167.410156c.28125-2.5625.554687-5.136718.867187-7.640625 1.765625-14.414062 5.570313-28.503906 11.289063-41.851562 2.398437-5.59375 5.328124-10.941407 8.75-15.96875 1.464843-2.179688 3.058593-4.265625 4.773437-6.25.664063-.78125 1.289063-1.449219 3.707031-4.023438l5.457032-7.675781c6.613281-10.296875 18.105468-32.183594 15.261718-54.542969-2.269531.820313-4.582031 1.414063-6.832031 2.335938-4.824219 2.070312-9.535156 4.40625-14.105469 6.992187-.660156 13.539063-7.855468 26.808594-11.988281 33.257813l-3.34375 4.941406c-.375.550781-.800781 1.066406-1.273437 1.539063-1.359376 1.351562-2.1875 2.261718-3.050782 3.257812-2.273437 2.640625-4.390625 5.417969-6.332031 8.3125-4.175781 6.125-7.742187 12.648438-10.648437 19.46875-6.496094 15.15625-10.816407 31.15625-12.832032 47.519531-.414062 3.363281-.800781 6.8125-1.152344 10.28125zm0 0" fill="#f59707"/><path d="m149.796875 157.90625-21.210937-2.1875c3.230468-31.5 18.3125-52.082031 47.417968-64.78125 7.78125-3.167969 15.90625-5.417969 24.207032-6.699219 8.398437-1.25 14.9375-1.289062 24.898437-.28125l-2.167969 21.230469c-6.496094-.847656-13.078125-.792969-19.5625.15625-6.550781 1.003906-12.960937 2.769531-19.105468 5.261719-21.644532 9.445312-32.039063 23.625-34.476563 47.300781zm0 0" fill="#f59707"/><path d="m150.878906 152.816406c-26.300781-13.351562-50.625-36.152344-63.234375-68.605468-11.257812 16.660156-17.46875 35.542968-20.75 53.496093 12.183594 11.605469 26.027344 20.585938 39.984375 27.726563 13.902344 7.265625 28.742188 11.636718 43.371094 12.214844-.710938-3.667969-.953125-7.410157-.71875-11.136719.046875-4.597657.496094-9.179688 1.347656-13.695313zm0 0" fill="#cd3e36"/><path d="m101.042969 109.136719c-.058594.140625-.148438.289062-.207031.425781-6.113282 14.386719-10.265626 29.53125-12.339844 45.027344 5.925781 3.945312 12.0625 7.566406 18.382812 10.84375.515625.269531 1.050782.464844 1.570313.726562.230469-2.144531.460937-4.296875.722656-6.390625 1.480469-10.792969 4.070313-21.40625 7.730469-31.667969-5.890625-5.792968-11.199219-12.144531-15.859375-18.964843zm0 0" fill="#c11107"/><path d="m174.691406 115.5625c-8.027344-28.007812-4.351562-61.976562 7.140625-93.011719-10.347656 2.136719-20.476562 5.230469-30.253906 9.242188-6.949219 2.839843-13.664063 6.21875-20.085937 10.109375-.460938.613281-1.03125 1.136718-1.679688 1.546875-1.484375 34.105469 8.996094 65.808593 28.808594 87.226562 4.167968-6.167969 9.65625-11.332031 16.070312-15.113281zm0 0" fill="#cd3e36"/><path d="m137.691406 91.675781 5.457032-7.675781c6.503906-10.128906 17.066406-32.617188 14.714843-54.621094-2.101562.765625-4.199219 1.558594-6.285156 2.414063-4.753906 1.9375-9.402344 4.128906-13.917969 6.570312-.507812 8.523438-4.28125 18.222657-7.488281 24.835938.953125 10.09375 3.125 20.035156 6.464844 29.605469.367187-.390626.546875-.585938 1.054687-1.128907zm0 0" fill="#c11107"/><path d="m170.632812 93.625c-10.28125 5.179688-18.597656 11.519531-25.050781 19.15625 3.710938 6.515625 8.15625 12.582031 13.246094 18.085938 1.976563-2.828126 4.257813-5.425782 6.808594-7.753907.128906-.125.25-.253906.378906-.378906 2.660156-2.507813 5.5625-4.746094 8.664063-6.683594.046874-.027343.074218-.0625.121093-.09375-2.097656-7.292969-3.492187-14.769531-4.167969-22.332031zm0 0" fill="#c11107"/><path d="m121.617188 77.636719s-.308594.320312-.859376.976562c-.960937.960938-1.972656 2.019531-3.027343 3.285157-2.238281 2.578124-4.308594 5.292968-6.203125 8.128906-4.222656 6.214844-7.828125 12.824218-10.769532 19.738281-6.449218 15.058594-10.742187 30.957031-12.757812 47.214844-1.015625 8.472656-2.066406 17.019531-2.074219 25.863281.019531 4.078125-.488281 9.515625-.078125 12.472656.464844 3.082032.191406 6.359375.898438 9.308594 2.046875 11.960938 7.417968 22.621094 16.316406 32.570312l-63.554688 56.945313c-18.300781-20.089844-32.261718-46.917969-36.867187-75.089844-1.390625-6.980469-1.480469-13.964843-2.082031-20.960937-.5000002-7.160156.070312-11.890625.074218-17.957032.089844-11.453124 1.371094-23.15625 2.832032-34.792968 3.082031-24.082032 9.535156-47.613282 19.167968-69.898438 5.0625-11.757812 11.242188-23 18.453126-33.578125 3.773437-5.585937 7.882812-10.9375 12.308593-16.019531 2.222657-2.613281 4.6875-5.246094 7.328125-7.871094 3.269532-3.296875 6.769532-6.367187 10.46875-9.175781 0 0 33.753906-24.8125 60.171875 8.921875 18.601563 23.753906-9.746093 59.917969-9.746093 59.917969zm0 0" fill="#fdbc34"/><path d="m194.484375 360.96875c-6.738281.046875-13.46875-.289062-20.167969-1-25.007812-2.632812-49.390625-9.46875-72.125-20.21875-21.144531-10-39.5625-22.582031-54.769531-37.40625l-14.773437-16.355469c-15.726563-20.1875-26.207032-43.75-30.019532-66.9375-.847656-4.796875-1.386718-9.640625-1.605468-14.507812l-.476563-6.585938c-.226563-3.773437-.25-7.554687-.0625-11.332031.082031-2.488281.144531-4.40625.144531-6.488281.105469-11.011719 1.207032-21.867188 2.832032-34.804688 3.105468-24.074219 9.558593-47.601562 19.167968-69.894531 5.078125-11.75 11.261719-22.996094 18.457032-33.582031 3.78125-5.578125 7.894531-10.925781 12.3125-16.011719 2.210937-2.605469 4.6875-5.238281 7.292968-7.863281 3.292969-3.28125 6.792969-6.347657 10.480469-9.179688 3.625-2.4375 14.207031-8.800781 27.226563-8.800781v21.332031c-5.8125 0-11.707032 2.804688-14.476563 4.585938-2.832031 2.1875-5.527344 4.554687-8.0625 7.082031-2.230469 2.230469-4.335937 4.425781-6.273437 6.730469-3.886719 4.464843-7.5 9.164062-10.8125 14.070312-6.464844 9.472657-12.003907 19.542969-16.539063 30.074219-8.84375 20.476562-14.777344 42.085938-17.625 64.207031-1.5 12.117188-2.542969 22.273438-2.648437 32.15625 0 2.28125-.0625 4.480469-.144532 6.679688-.160156 3.179687-.152344 6.371093.019532 9.550781l.460937 6.175781c.152344 4.246094.597656 8.472657 1.332031 12.65625 3.292969 20.023438 12.292969 40.167969 25.375 57.011719l13.792969 15.261719c13.019531 12.664062 29.5 23.90625 48.476563 32.875 20.660156 9.761719 42.820312 15.960937 65.542968 18.332031 5.839844.625 11.710938.910156 17.582032.855469 5.542968-.105469 10.5625-.28125 16.210937-.75 11.109375-.820313 22.15625-2.375 33.0625-4.65625 24.164063-4.96875 45.601563-13.90625 63.75-26.574219 19.914063-13.71875 36.164063-34.207031 44.664063-56.230469 7.960937-20.144531 11.292968-42.0625 10.523437-69.0625-.570313-23.515625-6.46875-46.601562-17.25-67.507812-10.667969-20.699219-28.625-39.398438-49.355469-51.367188-19.855468-11.820312-41.457031-18.96875-66.144531-21.925781-11.839844-1.351562-23.800781-1.207031-35.605469.425781l-3.332031-21.0625c13.738281-1.964843 27.671875-2.152343 41.457031-.550781 27.730469 3.324219 52.0625 11.40625 74.417969 24.707031 24.0625 13.898438 45.039063 35.773438 57.476563 59.949219 12.289062 23.757812 19.011718 50 19.667968 76.738281.855469 29.96875-2.957031 54.574219-11.980468 77.417969-9.976563 25.855469-29.082032 49.9375-52.375 66-20.5 14.300781-44.601563 24.386719-71.601563 29.9375-11.789063 2.460938-23.722656 4.140625-35.730469 5.03125-6 .488281-11.4375.6875-17.769531.8125zm0 0" fill="#f59707"/><g fill="#cd3e36"><path d="m96.402344 228.625c-.398438-.53125-.796875-1.066406-1.214844-1.585938-28.125 8.027344-61.273438 6.101563-92.546875-7.992187.007813.058594.019531.113281.03125.167969.195313 1.199218.429687 2.386718.660156 3.578125 2.59375 12.773437 6.832031 25.160156 12.609375 36.839843 2.140625 4.289063 4.488282 8.449219 6.992188 12.484376 17.492187.019531 54.742187-12.175782 54.742187-12.175782l25.386719-22.746094c-2.421875-2.695312-4.644531-5.558593-6.660156-8.570312zm0 0"/><path d="m86.257812 174.097656c-.414062 5.769532-.324218 11.699219-.554687 17.542969.121094 4.34375.46875 8.675781 1.042969 12.984375-14.648438-1.613281-29.265625-6.089844-43.710938-12.988281-14.394531-6.890625-28.394531-14.582031-41.933594-23.03125 1.179688-15.460938 2.925782-31.035157 6.554688-46.664063 24.160156 21.753906 51.15625 38.777344 78.601562 52.15625zm0 0"/><path d="m100.757812 109.765625c-4.316406 9.855469-7.597656 20.132813-9.792968 30.664063-25.515625-17.03125-48.914063-38.253907-68.332032-64.988282 6.824219-15.855468 15.6875-30.753906 26.367188-44.316406 11.105469 31.859375 29.945312 57.648438 51.757812 78.640625zm0 0"/><path d="m331.941406 64.371094c-15.847656 4.128906-30.949218 10.722656-44.75 19.535156-12.730468 8.117188-24.28125 17.949219-34.332031 29.214844 3.535156 1.515625 6.960937 3.269531 10.25 5.257812 4.433594 2.546875 8.578125 5.574219 12.351563 9.023438 25.351562-15.628906 56.640624-22.25 90.496093-18.371094-8.582031-16.511719-19.820312-32.457031-34.015625-44.660156zm0 0"/><path d="m381.773438 160.714844c-30.539063-13.179688-62.839844-18.847656-92.085938-13.414063 3.917969 8.082031 6.496094 16.742188 7.632812 25.648438 29.609376 5.636719 58.675782 19.070312 85.589844 38.472656 1.550782-16.890625 1.167969-33.902344-1.136718-50.707031zm0 0"/><path d="m337.28125 227.351562c-12.050781-9.546874-25.191406-17.625-39.148438-24.070312-.632812 8.285156-2.453124 16.433594-5.398437 24.199219-.328125.820312-.671875 1.625-1.023437 2.414062 22.972656 18.714844 39.792968 46.128907 46.328124 80.011719 9.484376-9.253906 17.695313-19.726562 24.425782-31.144531.507812-.882813 1.011718-1.765625 1.5-2.65625v-.003907c2.273437-4.136718 4.308594-8.402343 6.097656-12.769531-9.15625-14.113281-21.09375-26.226562-32.78125-35.980469zm0 0"/><path d="m247.972656 355.125c15.363282-3.089844 30.316406-7.941406 44.566406-14.457031 1.988282-16.664063 2.292969-32.375-.105468-48.035157-2.164063-15.242187-6.980469-29.984374-14.230469-43.566406-.019531.019532-.042969.035156-.0625.050782-2.402344 2.261718-4.957031 4.351562-7.652344 6.257812-4.394531 3.054688-9.058593 5.707031-13.9375 7.914062l-.09375.050782c3.203125 29.675781-1.695312 61.699218-12.40625 92.566406 1.308594-.253906 2.613281-.511719 3.921875-.78125zm0 0"/><path d="m145.148438 354.832031c16.707031 4.21875 33.886718 6.28125 51.117187 6.132813 15.234375-28.6875 26.628906-58.828125 31.925781-88.902344-10.933594 1.988281-21.992187 3.183594-33.097656 3.574219-9.230469 28.65625-26.664062 55.652343-49.945312 79.195312zm0 0"/><path d="m136.460938 261.203125c-22.898438 22.003906-50.46875 38.550781-80.660157 48.402344 13.042969 11.042969 27.382813 20.453125 42.707031 28.027343 27.605469-18.246093 50.257813-40.410156 67.339844-65.585937-10.152344-2.574219-20-6.207031-29.386718-10.84375zm0 0"/><path d="m224.476562 105.902344c-8.621093-1.289063-17.40625-1.03125-25.9375.765625 2.546876-29.605469 15.804688-59.730469 37.492188-85.3125 17.246094 2.363281 34.101562 7.03125 50.105469 13.875-26.058594 18.121093-47.238281 42.394531-61.660157 70.671875zm0 0"/></g><path d="m46.261719 268.640625c-9.03125-12.484375-15.792969-26.460937-19.960938-41.292969-8.113281-2.082031-16.027343-4.859375-23.660156-8.300781 0 .007813-.007813.015625-.007813.019531 3.277344 18.835938 10.195313 36.851563 20.367188 53.039063 6.136719-.101563 15.007812-1.582031 23.261719-3.464844zm0 0" fill="#c11107"/><path d="m354.808594 243.914062c-.835938 2.535157-1.746094 5.039063-2.722656 7.511719-.4375 1.140625-.90625 2.269531-1.390626 3.398438-4.859374 11.289062-11.390624 21.785156-19.378906 31.128906 2.871094 7.753906 5.09375 15.730469 6.648438 23.851563.328125-.3125.679687-.59375 1.0625-.835938 13.199218-13.0625 23.789062-28.523438 31.203125-45.550781-4.617188-6.898438-9.773438-13.421875-15.421875-19.503907zm0 0" fill="#c11107"/><path d="m106.707031 318.210938c-9.949219-4.964844-19.441406-10.796876-28.371093-17.425782-7.496094 3.335938-15.15625 6.289063-22.953126 8.847656 13.015626 11.140626 27.378907 20.597657 42.753907 28.148438 6.589843-4.382812 13.890625-9.570312 19.847656-14.335938-2.238281-.960937-4.476563-1.953124-6.710937-2.996093-1.484376-.703125-2.945313-1.421875-4.398438-2.152344-.058594-.027344-.113281-.054687-.167969-.085937zm0 0" fill="#c11107"/><path d="m176.816406 338.78125c-5.183594-.550781-10.273437-1.339844-15.316406-2.257812-5.191406 6.394531-10.703125 12.519531-16.515625 18.355468 9.65625 2.34375 19.457031 4.039063 29.335937 5.078125 6.621094.71875 13.277344 1.058594 19.9375 1.011719.484376-.011719.96875-.03125 1.449219-.035156.199219-.003906.382813-.015625.582031-.019532 3.835938-7.226562 7.414063-14.515624 10.734376-21.863281-4.226563.273438-8.308594.503907-12.625.585938-5.871094.054687-11.742188-.230469-17.582032-.855469zm0 0" fill="#c11107"/><path d="m3.460938 145.332031c-1.136719 9.046875-2.007813 17.070313-2.46875 24.847657 6.742187 3.648437 15.410156 7.609374 20.957031 10.636718 0-.195312.011719-.378906.011719-.578125.105468-9.882812 1.148437-20.039062 2.648437-32.15625.488281-3.609375 1.046875-7.179687 1.675781-10.710937-6-4.597656-12.90625-10.308594-18.671875-15.441406-1.683593 7.617187-3.066406 15.417968-4.152343 23.402343zm0 0" fill="#c11107"/><path d="m292.519531 340.414062c.996094-8.132812 1.519531-16.3125 1.558594-24.503906-13.53125 7.351563-27.980469 12.878906-42.96875 16.429688-1.980469 7.84375-4.328125 15.664062-7.042969 23.46875 1.308594-.253906 2.609375-.414063 3.917969-.683594 15.363281-3.167969 30.308594-8.105469 44.535156-14.710938zm0 0" fill="#c11107"/><path d="m383.074219 211.535156c.894531-9.894531 1.183593-19.835937.867187-29.765625-.199218-7.023437-.808594-14.027343-1.820312-20.980469-7.628906-3.273437-15.445313-6.097656-23.40625-8.457031 2.246094 9.863281 3.546875 19.921875 3.894531 30.03125.15625 5.484375.023437 10.628907-.164063 15.722657 6.917969 4.046874 13.953126 8.640624 20.628907 13.449218zm0 0" fill="#c11107"/><path d="m364.273438 105.03125c-8.0625-15.378906-18.761719-29.21875-31.617188-40.890625-8.007812 2.179687-15.859375 4.898437-23.496094 8.140625 12.925782 9.816406 23.90625 21.953125 32.386719 35.792969 8.246094-.285157 16.5.007812 24.707031.867187-.644531-1.3125-1.300781-2.617187-1.980468-3.910156zm0 0" fill="#c11107"/><path d="m221.679688 40.878906c2.808593.152344 5.554687.378906 8.179687.683594 12.800781 1.472656 25.398437 4.347656 37.574219 8.570312 6.164062-5.46875 12.644531-10.574218 19.402344-15.292968-16.097657-6.957032-33.085938-11.648438-50.472657-13.941406-5.316406 6.339843-10.222656 13.011718-14.683593 19.980468zm0 0" fill="#c11107"/><path d="m37.925781 94.449219c1.351563-3.585938 2.789063-7.109375 4.308594-10.574219 4.519531-10.496094 10.035156-20.53125 16.472656-29.96875-3.707031-7.371094-6.957031-14.960938-9.734375-22.730469-2.808594 3.519531-5.425781 7.070313-7.886718 10.679688-7.195313 10.585937-13.378907 21.832031-18.457032 33.582031-.011718.027344-.023437.058594-.035156.085938 4.699219 6.382812 10.253906 13.1875 15.332031 18.925781zm0 0" fill="#c11107"/><path d="m202.691406 211.707031c-52.730468 0-53.332031-30.695312-53.332031-32h10.664063l10.648437-.59375c.519531 3.898438 7.894531 11.261719 32.019531 11.261719 8.1875 0 11.519532-1.886719 12.5625-2.699219.988282-.6875 1.523438-1.863281 1.394532-3.0625 0-6.539062-8.082032-15.570312-13.957032-15.570312v-21.335938c17.8125 0 35.292969 18.28125 35.292969 36.90625.117187 7.820313-3.484375 15.234375-9.710937 19.96875-6.144532 4.730469-14.75 7.125-25.582032 7.125zm0 0" fill="#f59707"/></svg>