<svg height="469pt" viewBox="0 -42 469.33334 469" width="469pt" xmlns="http://www.w3.org/2000/svg"><path d="m85.332031 128.167969h298.667969c35.347656 0 64 28.652343 64 64 0 35.34375-28.652344 64-64 64h-298.667969c-35.34375 0-64-28.65625-64-64 0-35.347657 28.65625-64 64-64zm0 0" fill="#c82e25"/><path d="m426.667969 192.167969c-29.867188 0-51.40625-9.0625-64-16.460938-12.59375 7.398438-34.136719 16.460938-64 16.460938v-21.335938c29.601562 0 49-10.351562 57.9375-16.53125l6.0625-4.195312 6.0625 4.195312c8.9375 6.179688 28.332031 16.53125 57.9375 16.53125zm0 0" fill="#af0a00"/><path d="m298.667969 192.167969c0-35.347657-28.65625-64-64-64h-149.335938c-35.34375 0-64 28.652343-64 64 0 35.34375 28.65625 64 64 64h149.335938c35.34375 0 64-28.65625 64-64zm0 0" fill="#cd3e36"/><path d="m170.667969 192.167969c-29.867188 0-51.40625-9.0625-64-16.460938-12.59375 7.398438-34.136719 16.460938-64 16.460938v-21.335938c29.601562 0 49-10.351562 57.9375-16.53125l6.0625-4.195312 6.0625 4.195312c8.9375 6.179688 28.332031 16.53125 57.9375 16.53125 29.601562 0 49-10.351562 57.9375-16.53125l12.125 17.542969c-10.96875 7.59375-34.667969 20.324219-70.0625 20.324219zm0 0" fill="#c11107"/><path d="m426.667969 85.5s-21.335938-85.332031-192-85.332031c-170.667969 0-192 85.332031-192 85.332031s-42.667969 0-42.667969 42.667969c0 21.332031 21.332031 42.664062 42.667969 42.664062 42.664062 0 64-21.332031 64-21.332031s21.332031 21.332031 64 21.332031c42.664062 0 64-21.332031 64-21.332031s21.332031 21.332031 64 21.332031c42.664062 0 64-21.332031 64-21.332031s21.332031 21.332031 64 21.332031c21.332031 0 42.664062-21.332031 42.664062-42.664062 0-42.667969-42.664062-42.667969-42.664062-42.667969zm0 0" fill="#fdcf6d"/><path d="m426.667969 170.832031c-40.898438 0-61.71875-19.113281-63.960938-21.289062l-.039062-.042969-.0625.0625c-2.292969 2.21875-23.09375 21.269531-63.9375 21.269531v-21.332031c32.625 0 48.394531-14.605469 49.050781-15.21875l14.84375-14.59375 15.011719 14.550781c.644531.617188 16.414062 15.261719 49.09375 15.261719 9.570312 0 21.332031-11.761719 21.332031-21.332031h21.332031c0 21.53125-21.132812 42.664062-42.664062 42.664062zm0 0" fill="#fdbc34"/><path d="m42.667969 298.832031s21.332031 85.335938 192 85.335938c170.664062 0 192-85.335938 192-85.335938s42.664062 0 42.664062-42.664062c0-21.335938-21.332031-42.667969-42.664062-42.667969-42.667969 0-64 21.332031-64 21.332031s-21.335938-21.332031-64-21.332031c-42.667969 0-64 21.332031-64 21.332031s-21.335938-21.332031-64-21.332031c-42.667969 0-64 21.332031-64 21.332031s-21.335938-21.332031-64-21.332031c-21.335938 0-42.667969 21.332031-42.667969 42.667969 0 42.664062 42.667969 42.664062 42.667969 42.664062zm0 0" fill="#fdcf6d"/><path d="m234.667969 384.167969v-21.335938c148.226562 0 171.207031-68.90625 171.425781-69.59375l3.980469-15.550781 16.40625-.1875c8.039062-.09375 21.519531-2.988281 21.519531-21.332031 0-9.574219-11.761719-21.335938-21.332031-21.335938-32.625 0-48.398438 14.605469-49.054688 15.21875l-7.414062 7.292969-14.960938-15.207031 7.492188-7.367188c2.289062-2.21875 23.09375-21.269531 63.9375-21.269531 21.53125 0 42.664062 21.136719 42.664062 42.667969 0 29.125-21.394531 42.414062-42.601562 42.664062l-.074219.074219c-1.011719 3.667969-25.519531 85.261719-191.988281 85.261719zm0 0" fill="#fdbc34"/><path d="m320 128.167969c0-42.667969-42.667969-42.667969-42.667969-42.667969s-6.324219-24.742188-38.863281-47.5625c-46.628906-32.703125-110.308594-32.703125-156.9375 0-32.539062 22.820312-38.863281 47.5625-38.863281 47.5625s-43.90625 0-42.6406252 44.539062c.6562502 23.074219 19.5859372 40.800782 42.6679682 40.792969 42.648438-.007812 63.972657-21.332031 63.972657-21.332031s21.332031 21.332031 64 21.332031c42.664062 0 64-21.332031 64-21.332031s16.652343 16.554688 49.847656 20.46875c18.6875-4.03125 35.484375-22.875 35.484375-41.800781zm0 0" fill="#fee3aa"/><path d="m170.667969 170.832031c-41.78125 0-63.023438-20.375-63.992188-21.332031l-.070312.0625c-2.292969 2.21875-23.085938 21.261719-63.90625 21.269531-23.28125 0-42.023438-17.914062-42.667969-40.789062-.375-13.179688 3.175781-23.742188 10.542969-31.398438 12.476562-13 31.351562-13.144531 32.15625-13.144531v21.332031c-2.835938.085938-11.824219 1.4375-16.773438 6.59375-3.257812 3.386719-4.800781 8.773438-4.59375 16.011719.3125 11.25 9.6875 20.0625 21.335938 20.0625 32.59375-.011719 48.363281-14.605469 49.019531-15.21875l14.832031-14.59375 15.023438 14.542969c.675781.644531 16.425781 15.269531 49.09375 15.269531 32.625 0 48.394531-14.605469 49.050781-15.21875l14.78125-14.550781 15.019531 14.457031c.011719.011719 12.355469 11.175781 35.824219 14.375l-2.894531 21.144531c-29.792969-4.070312-45.867188-18.414062-47.605469-20.039062l-.175781-.167969-.0625.0625c-2.292969 2.21875-23.09375 21.269531-63.9375 21.269531zm0 0" fill="#fdcf6d"/><path d="m277.332031 298.832031s42.667969 0 42.667969-42.664062c0-18.929688-16.796875-37.773438-35.484375-41.804688-33.195313 3.914063-49.847656 20.46875-49.847656 20.46875s-21.335938-21.332031-64-21.332031c-42.667969 0-64 21.332031-64 21.332031s-21.324219-21.320312-63.972657-21.332031c-23.082031-.003906-42.011718 17.722656-42.6679682 40.792969-1.2656248 44.539062 42.6406252 44.539062 42.6406252 44.539062s6.324219 24.742188 38.863281 47.5625c46.628906 32.707031 110.308594 32.707031 156.9375 0 32.539062-22.820312 38.863281-47.5625 38.863281-47.5625zm0 0" fill="#fee3aa"/><path d="m160 370.925781c-28.0625.128907-55.476562-8.441406-78.46875-24.53125-30.363281-21.289062-38.042969-44.789062-38.855469-47.5625h-.144531c-.15625 0-19.511719-.1875-31.96875-13.15625-7.355469-7.644531-10.90625-18.207031-10.53125-31.382812.644531-22.875 19.386719-40.792969 42.667969-40.792969 40.875.011719 61.6875 19.113281 63.925781 21.292969l.042969.039062.0625-.0625c2.289062-2.21875 23.09375-21.269531 63.9375-21.269531 40.894531 0 61.71875 19.113281 63.957031 21.292969l-14.875 15.289062c-.636719-.601562-16.40625-15.25-49.082031-15.25-32.625 0-48.398438 14.605469-49.054688 15.21875l-14.84375 14.59375-15.007812-14.550781c-.648438-.613281-16.40625-15.25-49.0625-15.261719-11.648438 0-21.023438 8.8125-21.335938 20.0625-.207031 7.242188 1.335938 12.625 4.585938 16 4.945312 5.15625 13.914062 6.523438 16.945312 6.605469l16.0625.207031 4.304688 15.542969c.019531.0625 5.832031 18.363281 30.519531 35.6875 19.410156 13.554688 42.542969 20.773438 66.21875 20.65625zm0 0" fill="#fdcf6d"/><path d="m234.667969 32.167969c0 5.890625-4.777344 10.664062-10.667969 10.664062s-10.667969-4.773437-10.667969-10.664062 4.777344-10.667969 10.667969-10.667969 10.667969 4.777344 10.667969 10.667969zm0 0" fill="#fdcf6d"/><path d="m320 96.167969c0 17.671875-14.328125 32-32 32s-32-14.328125-32-32c0-17.675781 14.328125-32 32-32s32 14.324219 32 32zm0 0" fill="#fdcf6d"/><path d="m384 128.167969c0 11.78125-9.550781 21.332031-21.332031 21.332031-11.785157 0-21.335938-9.550781-21.335938-21.332031 0-11.785157 9.550781-21.335938 21.335938-21.335938 11.78125 0 21.332031 9.550781 21.332031 21.335938zm0 0" fill="#fdbc34"/><path d="m384 256.167969c0 11.78125-9.550781 21.332031-21.332031 21.332031-11.785157 0-21.335938-9.550781-21.335938-21.332031 0-11.785157 9.550781-21.335938 21.335938-21.335938 11.78125 0 21.332031 9.550781 21.332031 21.335938zm0 0" fill="#fdbc34"/><path d="m384 53.5c0 5.890625-4.777344 10.667969-10.667969 10.667969s-10.664062-4.777344-10.664062-10.667969 4.773437-10.667969 10.664062-10.667969 10.667969 4.777344 10.667969 10.667969zm0 0" fill="#fdbc34"/><path d="m320 352.167969c0 5.890625-4.777344 10.664062-10.667969 10.664062s-10.664062-4.773437-10.664062-10.664062 4.773437-10.667969 10.664062-10.667969 10.667969 4.777344 10.667969 10.667969zm0 0" fill="#fdbc34"/><g fill="#fdcf6d"><path d="m128 53.5c0 5.890625-4.777344 10.667969-10.667969 10.667969s-10.664062-4.777344-10.664062-10.667969 4.773437-10.667969 10.664062-10.667969 10.667969 4.777344 10.667969 10.667969zm0 0"/><path d="m298.667969 298.832031c0 11.785157-9.550781 21.335938-21.335938 21.335938-11.78125 0-21.332031-9.550781-21.332031-21.335938 0-11.78125 9.550781-21.332031 21.332031-21.332031 11.785157 0 21.335938 9.550781 21.335938 21.332031zm0 0"/><path d="m192 352.167969c0 5.890625-4.777344 10.664062-10.667969 10.664062s-10.664062-4.773437-10.664062-10.664062 4.773437-10.667969 10.664062-10.667969 10.667969 4.777344 10.667969 10.667969zm0 0"/><path d="m320 245.5c0 5.890625-4.777344 10.667969-10.667969 10.667969s-10.664062-4.777344-10.664062-10.667969 4.773437-10.667969 10.664062-10.667969 10.667969 4.777344 10.667969 10.667969zm0 0"/><path d="m106.667969 288.167969c0 5.890625-4.777344 10.664062-10.667969 10.664062s-10.667969-4.773437-10.667969-10.664062 4.777344-10.667969 10.667969-10.667969 10.667969 4.777344 10.667969 10.667969zm0 0"/><path d="m277.332031 53.5c0 5.890625-4.773437 10.667969-10.664062 10.667969s-10.667969-4.777344-10.667969-10.667969 4.777344-10.667969 10.667969-10.667969 10.664062 4.777344 10.664062 10.667969zm0 0"/></g></svg>