<svg height="469pt" viewBox="0 0 469.34595 469" width="469pt" xmlns="http://www.w3.org/2000/svg"><path d="m298.679688.171875c47.128906 0 85.332031 38.207031 85.332031 85.335937-47.128907 0-85.332031-38.207031-85.332031-85.335937zm0 0" fill="#ad6143"/><path d="m426.679688 74.839844c0 17.671875-14.328126 32-32 32-17.671876 0-32-14.328125-32-32s14.328124-32 32-32c17.671874 0 32 14.328125 32 32zm0 0" fill="#993b17"/><path d="m.0117188 362.839844c0 42.667968 21.3359372 106.667968 149.3359372 106.667968 75.675782 0 151.683594-15.0625 213.332032-64 60-47.632812 106.667968-106.667968 106.667968-192 0-106.667968-64-170.667968-170.667968-170.667968-149.332032 0-160 160-192 192s-106.6679692 42.667968-106.6679692 128zm0 0" fill="#f59707"/><path d="m401.847656 129.921875c-8.9375-49.53125-52.078125-86.933594-102.40625-87.082031-.253906 0-.507812 0-.761718 0-149.332032 0-160 160-192 192s-106.6679692 42.667968-106.6679692 128c-.01562505.167968-.01562505.339844 0 .507812 24.0742192 114.199219 237.0195312 48.429688 298.6679692-.507812 60-47.628906 106.667968-106.667969 106.667968-192 .050782-13.714844-1.117187-27.410156-3.5-40.917969zm0 0" fill="#fdab00"/><path d="m74.679688 362.839844h-42.667969c0-40.957032 21.429687-55.699219 56.386719-76.34375 15.011718-8.875 29.0625-17.1875 40.894531-29.03125 13.074219-13.050782 21.3125-33.59375 30.855469-57.386719 22.394531-55.84375 50.230468-125.238281 138.53125-125.238281v42.667968c-51.175782 0-71.074219 29-98.894532 98.375-10.855468 27.050782-21.074218 52.53125-40.3125 71.757813-15.648437 15.648437-33.492187 26.199219-49.230468 35.5-34.480469 20.367187-35.5625 23.96875-35.5625 39.699219zm0 0" fill="#fdbc34"/><path d="m199.785156 215.882812-39.605468-15.875c22.363281-55.773437 50.199218-125.167968 138.5-125.167968v42.667968c-51.175782 0-71.074219 29-98.894532 98.375zm0 0" fill="#fdcf6d"/></svg>