<svg height="469pt" viewBox="0 -42 469.33334 469" width="469pt" xmlns="http://www.w3.org/2000/svg"><path d="m0 219.59375c0 73.144531 46.933594 164.574219 234.667969 164.574219 140.796875 0 234.664062-48.761719 234.664062-170.667969 0-128-64-213.332031-211.199219-213.332031-187.734374 0-258.132812 121.902343-258.132812 219.425781zm0 0" fill="#ecb8b5"/><path d="m320 320.167969v-21.335938c32.074219 0 106.667969-12.46875 106.667969-128h21.332031c0 110.105469-66.125 149.335938-128 149.335938zm0 0" fill="#e59b96"/><path d="m234.667969 384.167969c-211.804688 0-234.667969-115.09375-234.667969-164.574219h42.667969c0 79.75 66.394531 121.90625 192 121.90625 192 0 192-96.34375 192-128 0-49.15625-10.179688-88.019531-30.242188-115.5l34.460938-25.167969c25.507812 34.949219 38.445312 82.273438 38.445312 140.667969 0 77.855469-40.707031 170.667969-234.664062 170.667969zm0 0" fill="#e59b96"/><path d="m234.667969 384.167969v-42.667969c192 0 192-96.34375 192-128h42.664062c0 77.855469-40.707031 170.667969-234.664062 170.667969zm0 0" fill="#de807a"/><path d="m128 298.832031c-105.792969 0-128-58.007812-128-106.664062h21.332031c0 57.414062 34.898438 85.332031 106.667969 85.332031 22.332031 0 64-21.980469 64-64v-85.332031h21.332031v85.332031c0 56.8125-54.707031 85.332031-85.332031 85.332031zm0 0" fill="#e59b96"/><path d="m21.332031 192.167969c0 64 42.667969 85.332031 106.667969 85.332031 21.332031 0 64-21.332031 64-64v-85.332031c0-21.335938 0-64-56.890625-64-51.199219 0-113.777344 64-113.777344 128zm0 0" fill="#c82e25"/><path d="m128 277.5c-71.769531 0-106.667969-27.917969-106.667969-85.332031h21.335938c0 33.238281 10.332031 64 85.332031 64 10.28125 0 42.667969-12.835938 42.667969-42.667969v-85.332031h21.332031v85.332031c0 44.957031-45.78125 64-64 64zm0 0" fill="#af0a00"/><path d="m234.667969 234.832031c0 42.667969 21.332031 64 85.332031 64 42.667969 0 106.667969-21.332031 106.667969-128 0-106.664062-64-149.332031-128-149.332031-42.667969 0-64 21.332031-64 64zm0 0" fill="#c82e25"/><path d="m320 298.832031c-60.613281 0-85.332031-18.539062-85.332031-64v-149.332031h21.332031v149.332031c0 24.179688 4.707031 42.667969 64 42.667969 38.925781 0 85.332031-18.511719 85.332031-106.667969h21.335938c0 115.53125-74.59375 128-106.667969 128zm0 0" fill="#af0a00"/><g fill="#d2514a"><path d="m149.332031 106.832031c0-11.78125-14.324219-21.332031-32-21.332031-17.671875 0-32 9.550781-32 21.332031 0 11.785157 14.328125 21.335938 32 21.335938 17.675781 0 32-9.550781 32-21.335938zm0 0"/><path d="m362.667969 71.277344c0-15.710938-19.105469-28.445313-42.667969-28.445313s-42.667969 12.734375-42.667969 28.445313c0 15.710937 19.105469 28.445312 42.667969 28.445312s42.667969-12.734375 42.667969-28.445312zm0 0"/><path d="m320 160.167969c0-5.890625-9.550781-10.667969-21.332031-10.667969-11.785157 0-21.335938 4.777344-21.335938 10.667969s9.550781 10.664062 21.335938 10.664062c11.78125 0 21.332031-4.773437 21.332031-10.664062zm0 0"/><path d="m106.667969 160.167969c0-5.890625-9.550781-10.667969-21.335938-10.667969-11.78125 0-21.332031 4.777344-21.332031 10.667969s9.550781 10.664062 21.332031 10.664062c11.785157 0 21.335938-4.773437 21.335938-10.664062zm0 0"/></g><path d="m160 298.832031c-40.347656 0-58.796875 31.128907-67.324219 59.761719 34.488281 15.667969 80.488281 25.527344 141.667969 25.5625-1.546875-39.847656-11.386719-85.324219-74.34375-85.324219zm0 0" fill="#c82e25"/><path d="m215.269531 383.84375c-40.375-1.394531-75.707031-7.34375-105.019531-17.667969l14.167969-40.25c25.226562 8.886719 56.289062 14.023438 92.332031 15.273438zm0 0" fill="#af0a00"/><path d="m192 309.5c0-5.890625-9.550781-10.667969-21.332031-10.667969-11.785157 0-21.335938 4.777344-21.335938 10.667969s9.550781 10.667969 21.335938 10.667969c11.78125 0 21.332031-4.777344 21.332031-10.667969zm0 0" fill="#d2514a"/><path d="m143.4375 63.042969-9.542969-19.085938c1.835938-.914062 45.679688-22.457031 111.4375-22.457031v21.332031c-60.78125 0-101.488281 20-101.894531 20.210938zm0 0" fill="#f1cac8"/></svg>