<svg height="469.33334pt" viewBox="0 0 469.33334 469.33334" width="469.33334pt" xmlns="http://www.w3.org/2000/svg"><path d="m234.667969 298.667969h-106.667969v106.664062c0 21.335938 26.667969 64 106.667969 64s106.664062-42.664062 106.664062-64v-106.664062zm0 0" fill="#c5af83"/><path d="m176.042969 436.050781c-17-8.832031-25.648438-21.34375-26.648438-29.832031l-.0625-22.230469 21.335938.023438-.023438 20.757812c.167969-.882812 3.210938 6.117188 15.230469 12.34375zm0 0" fill="#e0d4b7"/><path d="m234.667969 469.332031v-42.664062c47.289062 0 62.6875-18.375 64.207031-23.304688l-.207031-83.363281h42.664062v85.332031c0 20.886719-26.082031 64-106.664062 64zm0 0" fill="#b99e69"/><path d="m341.332031 350.328125c-30.78125 8.007813-66.40625 12.339844-106.664062 12.339844v21.332031c39.679687 0 75.371093-3.9375 106.664062-11.441406zm0 0" fill="#a37f39"/><path d="m234.667969 0c-128 0-234.667969 106.667969-234.667969 213.332031 0 106.667969 106.667969 149.335938 234.667969 149.335938s234.664062-42.667969 234.664062-149.335938c0-106.664062-106.664062-213.332031-234.664062-213.332031zm0 0" fill="#e0d4b7"/><path d="m234.667969 362.667969c-146.9375 0-234.667969-55.824219-234.667969-149.335938h85.332031c0 10.6875 7.210938 64 149.335938 64s149.332031-53.3125 149.332031-64h85.332031c0 93.511719-87.726562 149.335938-234.664062 149.335938zm0 0" fill="#d4c3a2"/><path d="m234.667969 362.667969v-42.667969c57.726562 0 192-10.394531 192-106.667969 0-80.5625-82.105469-170.664062-192-170.664062v-42.667969c134.3125 0 234.664062 112.625 234.664062 213.332031 0 94.90625-85.539062 149.335938-234.664062 149.335938zm0 0" fill="#c5af83"/><path d="m128 213.332031h-85.332031c0-78.925781 83.875-170.664062 192-170.664062v85.332031c-58.875 0-106.667969 51.636719-106.667969 85.332031zm0 0" fill="#eae2ce"/><path d="m320 266.667969c0-17.675781-23.878906-32-53.332031-32-29.457031 0-53.335938 14.324219-53.335938 32 0 17.671875 23.878907 32 53.335938 32 29.453125 0 53.332031-14.328125 53.332031-32zm0 0" fill="#d4c3a2"/><path d="m106.667969 224c0 17.671875-14.328125 32-32 32-17.675781 0-32-14.328125-32-32s14.324219-32 32-32c17.671875 0 32 14.328125 32 32zm0 0" fill="#eae2ce"/><path d="m192 149.332031c0 11.785157-9.550781 21.335938-21.332031 21.335938-11.785157 0-21.335938-9.550781-21.335938-21.335938 0-11.78125 9.550781-21.332031 21.335938-21.332031 11.78125 0 21.332031 9.550781 21.332031 21.332031zm0 0" fill="#eae2ce"/><g fill="#c5af83"><path d="m426.667969 128c0-11.78125-14.328125-21.332031-32-21.332031-17.675781 0-32 9.550781-32 21.332031s14.324219 21.332031 32 21.332031c17.671875 0 32-9.550781 32-21.332031zm0 0"/><path d="m320 149.332031c0-11.78125-14.328125-21.332031-32-21.332031s-32 9.550781-32 21.332031c0 11.785157 14.328125 21.335938 32 21.335938s32-9.550781 32-21.335938zm0 0"/><path d="m277.332031 64c0-11.78125-14.324219-21.332031-32-21.332031-17.671875 0-32 9.550781-32 21.332031s14.328125 21.332031 32 21.332031c17.675781 0 32-9.550781 32-21.332031zm0 0"/></g></svg>