<svg height="469pt" viewBox="0 0 469.52084 469" width="469pt" xmlns="http://www.w3.org/2000/svg"><path d="m469.332031 85.59375-448-42.667969v-21.332031l448 42.667969zm0 0" fill="#993b17"/><path d="m64 266.925781h-21.332031c0-6-2.3125-8.5625-7.542969-13.789062-5.824219-5.8125-13.792969-13.792969-13.792969-28.875 0-15.085938 7.96875-23.0625 13.792969-28.875 5.230469-5.230469 7.542969-7.792969 7.542969-13.792969s-2.3125-8.5625-7.542969-13.792969c-5.824219-5.8125-13.792969-13.789062-13.792969-28.875 0-15.082031 7.96875-23.0625 13.792969-28.875 5.230469-5.226562 7.542969-7.789062 7.542969-13.789062s-2.3125-8.5625-7.542969-13.792969c-5.824219-5.8125-13.792969-13.792969-13.792969-28.875s7.96875-23.0625 13.792969-28.875c5.230469-5.230469 7.542969-7.792969 7.542969-13.792969v-10.664062h21.332031v10.664062c0 15.085938-7.96875 23.0625-13.792969 28.875-5.226562 5.230469-7.539062 7.792969-7.539062 13.792969s2.3125 8.5625 7.539062 13.792969c5.824219 5.8125 13.792969 13.789062 13.792969 28.875 0 15.082031-7.96875 23.0625-13.792969 28.875-5.226562 5.226562-7.539062 7.789062-7.539062 13.789062s2.3125 8.5625 7.539062 13.792969c5.824219 5.8125 13.792969 13.792969 13.792969 28.875s-7.96875 23.0625-13.792969 28.875c-5.226562 5.230469-7.539062 7.792969-7.539062 13.792969s2.3125 8.5625 7.539062 13.789062c5.824219 5.8125 13.792969 13.792969 13.792969 28.875zm0 0" fill="#fdcf6d"/><path d="m106.667969 266.925781h-21.335938c0-6-2.3125-8.5625-7.539062-13.789062-5.824219-5.8125-13.792969-13.792969-13.792969-28.875 0-15.085938 7.96875-23.0625 13.792969-28.875 5.226562-5.230469 7.539062-7.792969 7.539062-13.792969s-2.3125-8.5625-7.539062-13.792969c-5.824219-5.8125-13.792969-13.789062-13.792969-28.875 0-15.082031 7.96875-23.0625 13.792969-28.875 5.226562-5.226562 7.539062-7.789062 7.539062-13.789062s-2.3125-8.5625-7.539062-13.792969c-5.824219-5.8125-13.792969-13.792969-13.792969-28.875s7.96875-23.0625 13.792969-28.875c5.226562-5.230469 7.539062-7.792969 7.539062-13.792969v-10.664062h21.335938v10.664062c0 15.085938-7.96875 23.0625-13.792969 28.875-5.230469 5.230469-7.542969 7.792969-7.542969 13.792969s2.3125 8.5625 7.542969 13.792969c5.824219 5.8125 13.792969 13.789062 13.792969 28.875 0 15.082031-7.96875 23.0625-13.792969 28.875-5.230469 5.226562-7.542969 7.789062-7.542969 13.789062s2.3125 8.5625 7.542969 13.792969c5.824219 5.8125 13.792969 13.792969 13.792969 28.875s-7.96875 23.0625-13.792969 28.875c-5.230469 5.230469-7.542969 7.792969-7.542969 13.792969s2.3125 8.5625 7.542969 13.789062c5.824219 5.8125 13.792969 13.792969 13.792969 28.875zm0 0" fill="#fdbc34"/><path d="m192 266.925781h-21.332031c0-6-2.3125-8.5625-7.542969-13.789062-5.824219-5.8125-13.792969-13.792969-13.792969-28.875 0-15.085938 7.96875-23.0625 13.792969-28.875 5.230469-5.230469 7.542969-7.792969 7.542969-13.792969s-2.3125-8.5625-7.542969-13.792969c-5.824219-5.8125-13.792969-13.789062-13.792969-28.875 0-15.082031 7.96875-23.0625 13.792969-28.875 5.230469-5.226562 7.542969-7.789062 7.542969-13.789062s-2.3125-8.5625-7.542969-13.792969c-5.824219-5.8125-13.792969-13.792969-13.792969-28.875s7.96875-23.0625 13.792969-28.875c5.230469-5.230469 7.542969-7.792969 7.542969-13.792969v-10.664062h21.332031v10.664062c0 15.085938-7.96875 23.0625-13.792969 28.875-5.226562 5.230469-7.539062 7.792969-7.539062 13.792969s2.3125 8.5625 7.539062 13.792969c5.824219 5.8125 13.792969 13.789062 13.792969 28.875 0 15.082031-7.96875 23.0625-13.792969 28.875-5.226562 5.226562-7.539062 7.789062-7.539062 13.789062s2.3125 8.5625 7.539062 13.792969c5.824219 5.8125 13.792969 13.792969 13.792969 28.875s-7.96875 23.0625-13.792969 28.875c-5.226562 5.230469-7.539062 7.792969-7.539062 13.792969s2.3125 8.5625 7.539062 13.789062c5.824219 5.8125 13.792969 13.792969 13.792969 28.875zm0 0" fill="#fdbc34"/><path d="m149.332031 266.925781h-21.332031c0-6-2.3125-8.5625-7.542969-13.789062-5.820312-5.8125-13.789062-13.792969-13.789062-28.875 0-15.085938 7.96875-23.0625 13.789062-28.875 5.230469-5.230469 7.542969-7.792969 7.542969-13.792969s-2.3125-8.5625-7.542969-13.792969c-5.820312-5.8125-13.789062-13.789062-13.789062-28.875 0-15.082031 7.96875-23.0625 13.789062-28.875 5.230469-5.226562 7.542969-7.789062 7.542969-13.789062s-2.3125-8.5625-7.542969-13.792969c-5.820312-5.8125-13.789062-13.792969-13.789062-28.875s7.96875-23.0625 13.789062-28.875c5.230469-5.230469 7.542969-7.792969 7.542969-13.792969v-10.664062h21.332031v10.664062c0 15.085938-7.96875 23.0625-13.789062 28.875-5.230469 5.230469-7.542969 7.792969-7.542969 13.792969s2.3125 8.5625 7.542969 13.792969c5.820312 5.8125 13.789062 13.789062 13.789062 28.875 0 15.082031-7.96875 23.0625-13.789062 28.875-5.230469 5.226562-7.542969 7.789062-7.542969 13.789062s2.3125 8.5625 7.542969 13.792969c5.820312 5.8125 13.789062 13.792969 13.789062 28.875s-7.96875 23.0625-13.789062 28.875c-5.230469 5.230469-7.542969 7.792969-7.542969 13.792969s2.3125 8.5625 7.542969 13.789062c5.820312 5.8125 13.789062 13.792969 13.789062 28.875zm0 0" fill="#fdcf6d"/><path d="m234.667969 266.925781h-21.335938c0-6-2.3125-8.5625-7.539062-13.789062-5.824219-5.8125-13.792969-13.792969-13.792969-28.875 0-15.085938 7.96875-23.0625 13.792969-28.875 5.226562-5.230469 7.539062-7.792969 7.539062-13.792969s-2.3125-8.5625-7.539062-13.792969c-5.824219-5.8125-13.792969-13.789062-13.792969-28.875 0-15.082031 7.96875-23.0625 13.792969-28.875 5.226562-5.226562 7.539062-7.789062 7.539062-13.789062s-2.3125-8.5625-7.539062-13.792969c-5.824219-5.8125-13.792969-13.792969-13.792969-28.875s7.96875-23.0625 13.792969-28.875c5.226562-5.230469 7.539062-7.792969 7.539062-13.792969v-10.664062h21.335938v10.664062c0 15.085938-7.96875 23.0625-13.792969 28.875-5.230469 5.230469-7.542969 7.792969-7.542969 13.792969s2.3125 8.5625 7.542969 13.792969c5.824219 5.8125 13.792969 13.789062 13.792969 28.875 0 15.082031-7.96875 23.0625-13.792969 28.875-5.230469 5.226562-7.542969 7.789062-7.542969 13.789062s2.3125 8.5625 7.542969 13.792969c5.824219 5.8125 13.792969 13.792969 13.792969 28.875s-7.96875 23.0625-13.792969 28.875c-5.230469 5.230469-7.542969 7.792969-7.542969 13.792969s2.3125 8.5625 7.542969 13.789062c5.824219 5.8125 13.792969 13.792969 13.792969 28.875zm0 0" fill="#fdcf6d"/><path d="m277.332031 266.925781h-21.332031c0-6-2.3125-8.5625-7.542969-13.789062-5.820312-5.8125-13.789062-13.792969-13.789062-28.875 0-15.085938 7.96875-23.0625 13.789062-28.875 5.230469-5.230469 7.542969-7.792969 7.542969-13.792969s-2.3125-8.5625-7.542969-13.792969c-5.820312-5.8125-13.789062-13.789062-13.789062-28.875 0-15.082031 7.96875-23.0625 13.789062-28.875 5.230469-5.226562 7.542969-7.789062 7.542969-13.789062s-2.3125-8.5625-7.542969-13.792969c-5.820312-5.8125-13.789062-13.792969-13.789062-28.875s7.96875-23.0625 13.789062-28.875c5.230469-5.230469 7.542969-7.792969 7.542969-13.792969v-10.664062h21.332031v10.664062c0 15.085938-7.96875 23.0625-13.789062 28.875-5.230469 5.230469-7.542969 7.792969-7.542969 13.792969s2.3125 8.5625 7.542969 13.792969c5.820312 5.8125 13.789062 13.789062 13.789062 28.875 0 15.082031-7.96875 23.0625-13.789062 28.875-5.230469 5.226562-7.542969 7.789062-7.542969 13.789062s2.3125 8.5625 7.542969 13.792969c5.820312 5.8125 13.789062 13.792969 13.789062 28.875s-7.96875 23.0625-13.789062 28.875c-5.230469 5.230469-7.542969 7.792969-7.542969 13.792969s2.3125 8.5625 7.542969 13.789062c5.820312 5.8125 13.789062 13.792969 13.789062 28.875zm0 0" fill="#fdbc34"/><path d="m441.285156 149.839844c-6.144531-.761719-12.378906.289062-17.933594 3.019531 2.152344-4.332031 3.289063-9.097656 3.316407-13.933594 0-14.480469-9.730469-27.160156-23.71875-30.90625-13.992188-3.75-28.753907 2.367188-35.996094 14.910157-7.242187 12.539062-5.15625 28.382812 5.085937 38.625l-94.707031 94.707031 42.667969 42.664062 94.800781-94.800781c9.882813 9.886719 25.042969 12.203125 37.421875 5.714844 12.382813-6.488282 19.105469-20.273438 16.597656-34.023438-2.503906-13.753906-13.664062-24.277344-27.535156-25.976562zm0 0" fill="#fdcf6d"/><path d="m327.542969 291.386719-15.085938-15.085938 102.335938-102.332031 15.082031 15.082031c1.636719 1.710938 3.808594 2.8125 6.15625 3.125h.207031c6.585938 0 11.023438-3.976562 11.679688-9.25.359375-2.8125-.417969-5.65625-2.167969-7.894531-1.726562-2.246094-4.289062-3.699219-7.105469-4.019531l2.648438-21.167969c8.425781 1.046875 16.089843 5.402344 21.300781 12.105469 5.214844 6.699219 7.546875 15.199219 6.488281 23.625-2.132812 17.25-18.144531 29.664062-35.601562 27.789062-7.078125-.902343-13.652344-4.144531-18.679688-9.207031l-.007812-.019531zm0 0" fill="#fdbc34"/><path d="m423.355469 152.863281-19.1875-9.332031c1.691406-3.277344 1.535156-7.203125-.410157-10.335938-1.949218-3.128906-5.402343-5.003906-9.089843-4.933593v-21.335938c17.664062.019531 31.980469 14.335938 32 32-.027344 4.839844-1.160157 9.605469-3.3125 13.9375zm0 0" fill="#fdbc34"/><path d="m341.332031 170.925781-6.246093 6.25c-9.660157 9.660157-22.761719 15.085938-36.417969 15.085938-47.128907 0-85.335938 38.203125-85.335938 85.332031s38.207031 85.332031 85.335938 85.332031c47.128906 0 85.332031-38.203125 85.332031-85.332031 0-13.660156 5.425781-26.757812 15.085938-36.417969l6.273437-6.273437c-.015625-35.335938-28.664063-63.976563-64-63.976563zm0 0" fill="#a34e2d"/><path d="m345.582031 181.761719c26.085938 2.113281 46.800781 22.8125 48.9375 48.894531l-2.976562 2.980469c-11.691407 11.636719-18.246094 27.460937-18.210938 43.957031-.046875 41.21875-33.449219 74.617188-74.664062 74.667969" fill="#a34e2d"/><path d="m298.667969 362.925781v-21.332031c35.328125-.039062 63.960937-28.667969 64-64-.046875-18.957031 7.34375-37.179688 20.582031-50.75-3.75-18.769531-19.441406-32.808594-38.511719-34.457031l1.6875-21.25c31.238281 2.675781 56.019531 27.433593 58.730469 58.664062l.386719 4.917969-6.460938 6.457031c-9.6875 9.640625-15.117187 22.753907-15.082031 36.417969-.050781 47.109375-38.226562 85.285156-85.332031 85.332031zm0 0" fill="#993b17"/><path d="m320 266.925781h-21.332031c0-6-2.3125-8.5625-7.542969-13.789062-5.824219-5.8125-13.792969-13.792969-13.792969-28.875 0-15.085938 7.96875-23.0625 13.792969-28.875 5.230469-5.230469 7.542969-7.792969 7.542969-13.792969s-2.3125-8.5625-7.542969-13.792969c-5.824219-5.8125-13.792969-13.789062-13.792969-28.875 0-15.082031 7.96875-23.0625 13.792969-28.875 5.230469-5.226562 7.542969-7.789062 7.542969-13.789062s-2.3125-8.5625-7.542969-13.792969c-5.824219-5.8125-13.792969-13.792969-13.792969-28.875s7.96875-23.0625 13.792969-28.875c5.230469-5.230469 7.542969-7.792969 7.542969-13.792969v-10.664062h21.332031v10.664062c0 15.085938-7.96875 23.0625-13.792969 28.875-5.226562 5.230469-7.539062 7.792969-7.539062 13.792969s2.3125 8.5625 7.539062 13.792969c5.824219 5.8125 13.792969 13.789062 13.792969 28.875 0 15.082031-7.96875 23.0625-13.792969 28.875-5.226562 5.226562-7.539062 7.789062-7.539062 13.789062s2.3125 8.5625 7.539062 13.792969c5.824219 5.8125 13.792969 13.792969 13.792969 28.875s-7.96875 23.0625-13.792969 28.875c-5.226562 5.230469-7.539062 7.792969-7.539062 13.792969s2.3125 8.5625 7.539062 13.789062c5.824219 5.8125 13.792969 13.792969 13.792969 28.875zm0 0" fill="#fdcf6d"/><path d="m469.332031 21.59375-448 21.332031v-21.332031l448-21.332031zm0 0" fill="#ad6143"/><path d="m234.667969 234.925781h-234.667969c0 170.667969 128 192 128 192 0 21.335938 21.332031 42.667969 42.667969 42.667969h128c21.332031 0 42.664062-21.332031 42.664062-42.667969 0 0 128-21.332031 128-192zm0 0" fill="#c11107"/><path d="m298.667969 469.59375h-64v-21.332031h64c9.570312 0 21.332031-11.761719 21.332031-21.335938l.0625-17.976562 17.667969-3.054688c4.207031-.71875 100.070312-18.644531 109.519531-149.632812h-20.582031v-21.335938h42.851562l-.375 11.023438c-5.269531 158.207031-122.789062 180.113281-127.789062 180.96875l-.023438.050781c0 21.488281-21.132812 42.625-42.664062 42.625zm0 0" fill="#af0a00"/><path d="m234.667969 426.925781s128-21.332031 128-192h-362.667969c0 170.667969 128 192 128 192 0 21.335938 21.332031 42.667969 42.667969 42.667969h21.332031c21.332031 0 42.667969-21.332031 42.667969-42.667969zm0 0" fill="#c82e25"/><path d="m131.300781 405.855469c-9.613281-1.804688-94.363281-20.917969-108.09375-137.679688l21.1875-2.5c11.949219 101.605469 82.78125 117.699219 90.824219 119.199219zm0 0" fill="#d96c66"/><path d="m149.332031 426.925781h85.335938v21.335938h-85.335938zm0 0" fill="#c11107"/><g fill="#993b17"><path d="m384 213.59375c0 11.78125-9.550781 21.332031-21.332031 21.332031-11.785157 0-21.335938-9.550781-21.335938-21.332031s9.550781-21.332031 21.335938-21.332031c11.78125 0 21.332031 9.550781 21.332031 21.332031zm0 0"/><path d="m277.332031 224.261719c0 5.890625-4.773437 10.664062-10.664062 10.664062s-10.667969-4.773437-10.667969-10.664062 4.777344-10.667969 10.667969-10.667969 10.664062 4.777344 10.664062 10.667969zm0 0"/></g></svg>