<svg height="469.33334pt" viewBox="0 0 469.33334 469.33334" width="469.33334pt" xmlns="http://www.w3.org/2000/svg"><path d="m256 0h-42.667969c0 106.667969-213.332031 128-213.332031 277.332031 0 170.667969 192 170.667969 192 170.667969s0 21.332031 42.667969 21.332031c42.664062 0 42.664062-21.332031 42.664062-21.332031s192 0 192-170.667969c0-149.332031-213.332031-170.664062-213.332031-277.332031zm0 0" fill="#e0d4b7"/><path d="m191.980469 448c-7.835938-.011719-191.980469-2.207031-191.980469-170.667969 0-80.945312 63.792969-125.050781 120.0625-163.96875 45.042969-31.15625 87.542969-60.550781 92.730469-103.957031l21.164062 2.519531c-6.3125 52.960938-52.644531 85.011719-101.707031 118.949219-57.0625 39.457031-110.917969 76.699219-110.917969 146.457031 0 147.398438 163.710938 149.324219 170.6875 149.335938zm0 0" fill="#d4c3a2"/><path d="m256 0h-21.332031v448h42.664062s192 0 192-170.667969c0-149.332031-213.332031-170.664062-213.332031-277.332031zm0 0" fill="#c5af83"/><path d="m323.25 434.832031-13.792969-16.289062c33.8125-28.605469 53.210938-72.292969 53.210938-119.875 0-50.898438-28.9375-91.804688-59.605469-135.117188-33.667969-47.570312-68.394531-96.664062-68.394531-163.550781h21.332031c0 60.105469 32.75 106.375 64.417969 151.136719 32.726562 46.257812 63.582031 89.851562 63.582031 147.53125 0 53.863281-22.144531 103.5-60.75 136.164062zm0 0" fill="#b99e69"/><path d="m277.394531 448-.207031-42.667969c15.3125-.070312 149.480469-4.238281 149.480469-128 0-58.5625-49.375-92.71875-101.648438-128.875-31.5625-21.8125-64.207031-44.375-86.164062-74.101562l34.289062-25.355469c17.773438 24.019531 47.4375 44.519531 76.125 64.355469 56.292969 38.925781 120.0625 83.050781 120.0625 163.976562 0 167.875-184.101562 170.636719-191.9375 170.667969zm0 0" fill="#b99e69"/><path d="m157.6875 443.75c-45.3125-31.644531-72.355469-85.875-72.355469-145.082031 0-57.679688 30.855469-101.273438 63.523438-147.4375 31.726562-44.855469 64.476562-91.125 64.476562-151.230469h21.335938c0 66.886719-34.730469 115.980469-68.335938 163.457031-30.726562 43.40625-59.664062 84.3125-59.664062 135.210938 0 52.238281 23.644531 99.9375 63.226562 127.601562zm0 0" fill="#d4c3a2"/><path d="m234.667969 448c64 0 128-64 128-149.332031 0-106.667969-128-170.667969-128-298.667969 0 128-128 192-128 298.667969 0 85.332031 64 149.332031 128 149.332031zm0 0" fill="#eae2ce"/><path d="m277.332031 298.664062c0 85.335938-10.664062 149.335938-42.664062 149.335938h.019531c63.992188-.015625 127.980469-64.007812 127.980469-149.332031 0-106.667969-128-170.667969-128-298.667969 0 127.996094 42.664062 192 42.664062 298.664062zm0 0" fill="#d4c3a2"/><path d="m314.5 381.957031-17.125-12.75c10.332031-13.851562 22.625-37.332031 22.625-70.539062 0-22.273438-8.0625-44.46875-26.957031-74.242188-2.6875-4.75-58.375-104.832031-58.375-149.757812h21.332031c0 32.71875 39.957031 111.3125 55.355469 138.832031 14.664062 23.082031 29.976562 51.707031 29.976562 85.167969 0 30.90625-9.289062 59.707031-26.832031 83.289062zm0 0" fill="#c5af83"/><path d="m216.457031 444.875c-1.875-1.863281-45.789062-46.8125-45.789062-135.542969 0-47.34375 12.8125-88.726562 24.101562-125.25 9.542969-30.851562 18.5625-59.988281 18.5625-88.082031h21.335938c0 31.3125-9.480469 61.957031-19.523438 94.394531-11.375 36.78125-23.144531 74.824219-23.144531 118.9375 0 79.398438 39.167969 120.085938 39.5625 120.492188zm0 0" fill="#f3eee3"/><path d="m88.457031 402.207031c-1.875-1.863281-45.789062-46.570312-45.789062-114.207031 0-47.8125 21.625-73.449219 49-105.917969 11.75-13.945312 25.0625-29.75 38.125-49.332031l17.75 11.832031c-13.730469 20.585938-27.460938 36.875-39.585938 51.25-25.519531 30.273438-43.957031 52.148438-43.957031 92.167969 0 58.894531 39.144531 98.730469 39.542969 99.125zm0 0" fill="#eae2ce"/></svg>