<svg height="469pt" viewBox="-10 0 469 469.33334" width="469pt" xmlns="http://www.w3.org/2000/svg"><path d="m256.167969 128s-42.667969-21.332031-42.667969-64 42.667969-64 42.667969-64 42.664062 21.332031 42.664062 64-42.664062 64-42.664062 64" fill="#8b2800"/><path d="m234.832031 106.667969s42.667969-42.667969 106.667969-42.667969 106.667969 42.667969 106.667969 42.667969-42.667969 42.664062-106.667969 42.664062-106.667969-42.664062-106.667969-42.664062zm0 0" fill="#993b17"/><path d="m405.5 266.667969c0 111.929687-90.738281 202.664062-202.667969 202.664062-111.929687 0-202.664062-90.734375-202.664062-202.664062 0-111.929688 90.734375-202.667969 202.664062-202.667969 111.929688 0 202.667969 90.738281 202.667969 202.667969zm0 0" fill="#ef7f00"/><path d="m282.519531 80.3125c10.789063 25.179688 16.339844 52.292969 16.3125 79.6875 0 111.929688-90.734375 202.667969-202.664062 202.667969-27.394531.023437-54.507813-5.527344-79.6875-16.3125 31.90625 74.59375 105.21875 122.976562 186.351562 122.976562 111.929688 0 202.667969-90.734375 202.667969-202.664062 0-81.132813-48.382812-154.449219-122.980469-186.355469zm0 0" fill="#e76400"/><path d="m341.5 362.667969c0 11.78125-9.550781 21.332031-21.332031 21.332031-11.785157 0-21.335938-9.550781-21.335938-21.332031 0-11.785157 9.550781-21.335938 21.335938-21.335938 11.78125 0 21.332031 9.550781 21.332031 21.335938zm0 0" fill="#cc4900"/><path d="m341.5 149.332031c0 11.785157-9.550781 21.335938-21.332031 21.335938-11.785157 0-21.335938-9.550781-21.335938-21.335938 0-11.78125 9.550781-21.332031 21.335938-21.332031 11.78125 0 21.332031 9.550781 21.332031 21.332031zm0 0" fill="#cc4900"/><path d="m341.5 224c0 5.890625-4.777344 10.667969-10.667969 10.667969s-10.664062-4.777344-10.664062-10.667969 4.773437-10.667969 10.664062-10.667969 10.667969 4.777344 10.667969 10.667969zm0 0" fill="#cc4900"/><path d="m362.832031 288c0 5.890625-4.773437 10.667969-10.664062 10.667969s-10.667969-4.777344-10.667969-10.667969 4.777344-10.667969 10.667969-10.667969 10.664062 4.777344 10.664062 10.667969zm0 0" fill="#cc4900"/><g fill="#e76400"><path d="m277.5 277.332031c0 11.785157-9.550781 21.335938-21.332031 21.335938-11.785157 0-21.335938-9.550781-21.335938-21.335938 0-11.78125 9.550781-21.332031 21.335938-21.332031 11.78125 0 21.332031 9.550781 21.332031 21.332031zm0 0"/><path d="m298.832031 202.667969c0 5.890625-4.773437 10.664062-10.664062 10.664062s-10.667969-4.773437-10.667969-10.664062 4.777344-10.667969 10.667969-10.667969 10.664062 4.777344 10.664062 10.667969zm0 0"/><path d="m213.5 266.667969c0 5.890625-4.777344 10.664062-10.667969 10.664062s-10.664062-4.773437-10.664062-10.664062 4.773437-10.667969 10.664062-10.667969 10.667969 4.777344 10.667969 10.667969zm0 0"/><path d="m149.5 352c0 5.890625-4.777344 10.667969-10.667969 10.667969s-10.664062-4.777344-10.664062-10.667969 4.773437-10.667969 10.664062-10.667969 10.667969 4.777344 10.667969 10.667969zm0 0"/><path d="m64.167969 320c0 11.78125-9.550781 21.332031-21.335938 21.332031-11.78125 0-21.332031-9.550781-21.332031-21.332031s9.550781-21.332031 21.332031-21.332031c11.785157 0 21.335938 9.550781 21.335938 21.332031zm0 0"/><path d="m256.167969 202.667969c0 5.890625-4.777344 10.664062-10.667969 10.664062s-10.667969-4.773437-10.667969-10.664062 4.777344-10.667969 10.667969-10.667969 10.667969 4.777344 10.667969 10.667969zm0 0"/></g><path d="m192.167969 373.332031c0 5.890625-4.777344 10.667969-10.667969 10.667969s-10.667969-4.777344-10.667969-10.667969 4.777344-10.664062 10.667969-10.664062 10.667969 4.773437 10.667969 10.664062zm0 0" fill="#cc4900"/><path d="m320.167969 394.667969c0 29.453125-23.878907 53.332031-53.335938 53.332031-29.453125 0-53.332031-23.878906-53.332031-53.332031 0-29.457031 23.878906-53.335938 53.332031-53.335938 29.457031 0 53.335938 23.878907 53.335938 53.335938zm0 0" fill="#cc4900"/><path d="m106.832031 384c0 11.78125-9.550781 21.332031-21.332031 21.332031s-21.332031-9.550781-21.332031-21.332031 9.550781-21.332031 21.332031-21.332031 21.332031 9.550781 21.332031 21.332031zm0 0" fill="#cc4900"/><path d="m185.261719 113.574219c-17.296875-17.300781-61.65625-.984375-99.082031 36.441406-37.421876 37.421875-53.738282 81.78125-36.441407 99.078125s61.65625.980469 99.082031-36.441406c37.421876-37.421875 53.738282-81.78125 36.441407-99.078125zm0 0" fill="#fdbc34"/></svg>