<svg height="469.33334pt" viewBox="0 0 469.33334 469.33334" width="469.33334pt" xmlns="http://www.w3.org/2000/svg"><path d="m469.332031 309.332031c0-64.800781-95.511719-117.332031-213.332031-117.332031s-213.332031 52.53125-213.332031 117.332031v42.667969c0 64.800781 95.511719 117.332031 213.332031 117.332031s213.332031-52.53125 213.332031-117.332031zm0 0" fill="#fdcf6d"/><path d="m256 469.332031c-117.636719 0-213.332031-52.644531-213.332031-117.332031h21.332031c0 51.144531 89.71875 96 192 96s192-44.855469 192-96h21.332031c0 64.6875-95.695312 117.332031-213.332031 117.332031zm0 0" fill="#fdbc34"/><path d="m469.332031 309.332031c0-64.800781-95.511719-117.332031-213.332031-117.332031s-213.332031 52.53125-213.332031 117.332031 95.511719 117.335938 213.332031 117.335938 213.332031-52.535157 213.332031-117.335938zm0 0" fill="#fdab00"/><path d="m437.332031 288c0-47.128906-85.960937-85.332031-192-85.332031-106.039062 0-192 38.203125-192 85.332031s85.960938 85.332031 192 85.332031c106.039063 0 192-38.203125 192-85.332031zm0 0" fill="#f59707"/><path d="m256 426.667969c-117.636719 0-213.332031-52.648438-213.332031-117.335938h21.332031c0 51.148438 89.71875 96 192 96s192-44.851562 192-96c0-51.144531-89.71875-96-192-96v-21.332031c117.636719 0 213.332031 52.644531 213.332031 117.332031s-95.695312 117.335938-213.332031 117.335938zm0 0" fill="#f59707"/><path d="m0 245.332031c0 64.800781 95.511719 117.335938 213.332031 117.335938 117.820313 0 213.335938-52.535157 213.335938-117.335938" fill="#fdcf6d"/><path d="m213.332031 362.667969c-117.632812 0-213.332031-52.648438-213.332031-117.335938v-42.664062c0-64.6875 95.699219-117.335938 213.332031-117.335938 117.636719 0 213.335938 52.648438 213.335938 117.335938v42.664062c0 64.6875-95.699219 117.335938-213.335938 117.335938zm0-256c-102.28125 0-192 44.851562-192 96v42.664062c0 51.148438 89.71875 96 192 96s192-44.851562 192-96v-42.664062c0-51.148438-89.71875-96-192-96zm0 0" fill="#fdbc34"/><path d="m426.667969 202.667969c0-64.800781-95.515625-117.335938-213.335938-117.335938-117.820312 0-213.332031 52.535157-213.332031 117.335938s95.511719 117.332031 213.332031 117.332031c117.820313 0 213.335938-52.53125 213.335938-117.332031zm0 0" fill="#fdab00"/><path d="m213.332031 320c-117.632812 0-213.332031-52.644531-213.332031-117.332031h21.332031c0 51.144531 89.71875 96 192 96s192-44.855469 192-96c0-51.148438-89.71875-96-192-96v-21.335938c117.636719 0 213.335938 52.648438 213.335938 117.335938s-95.699219 117.332031-213.335938 117.332031zm0 0" fill="#f59707"/><path d="m469.332031 117.332031c0-64.800781-95.511719-117.332031-213.332031-117.332031s-213.332031 52.53125-213.332031 117.332031v42.667969c0 64.800781 95.511719 117.332031 213.332031 117.332031s213.332031-52.53125 213.332031-117.332031zm0 0" fill="#fdcf6d"/><path d="m256 277.332031c-117.636719 0-213.332031-52.644531-213.332031-117.332031h21.332031c0 51.144531 89.71875 96 192 96s192-44.855469 192-96h21.332031c0 64.6875-95.695312 117.332031-213.332031 117.332031zm0 0" fill="#fdbc34"/><path d="m469.332031 117.332031c0-64.800781-95.511719-117.332031-213.332031-117.332031s-213.332031 52.53125-213.332031 117.332031 95.511719 117.335938 213.332031 117.335938 213.332031-52.535157 213.332031-117.335938zm0 0" fill="#fdbc34"/><path d="m85.332031 117.332031h-21.332031c0-51.144531 89.71875-96 192-96v21.335938c-102.59375 0-170.667969 44.9375-170.667969 74.664062zm0 0" fill="#fdcf6d"/><path d="m256 234.667969c-117.636719 0-213.332031-52.648438-213.332031-117.335938h21.332031c0 51.148438 89.71875 96 192 96s192-44.851562 192-96c0-51.144531-89.71875-96-192-96v-21.332031c117.636719 0 213.332031 52.644531 213.332031 117.332031s-95.695312 117.335938-213.332031 117.335938zm0 0" fill="#fdab00"/><path d="m320 32c0 5.890625-4.777344 10.667969-10.667969 10.667969s-10.664062-4.777344-10.664062-10.667969 4.773437-10.667969 10.664062-10.667969 10.667969 4.777344 10.667969 10.667969zm0 0" fill="#f59707"/><path d="m192 192c0-11.78125-14.328125-21.332031-32-21.332031s-32 9.550781-32 21.332031 14.328125 21.332031 32 21.332031 32-9.550781 32-21.332031zm0 0" fill="#ef7f00"/><path d="m170.667969 181.332031c0-5.890625-9.550781-10.664062-21.335938-10.664062-11.78125 0-21.332031 4.773437-21.332031 10.664062s9.550781 10.667969 21.332031 10.667969c11.785157 0 21.335938-4.777344 21.335938-10.667969zm0 0" fill="#f59707"/><path d="m149.332031 85.332031c0-21.332031 21.335938-21.332031 21.335938-21.332031h21.332031s21.332031 0 21.332031-21.332031c0-21.335938 21.335938-21.335938 21.335938-21.335938 21.332031 0 21.332031 21.335938 21.332031 21.335938 0 21.332031 21.332031 21.332031 21.332031 21.332031h64c21.335938 0 42.667969 21.332031 42.667969 42.667969 0 21.332031-21.332031 42.664062-42.667969 42.664062-21.332031 0-42.664062 21.335938-42.664062 42.667969s-21.335938 21.332031-21.335938 21.332031-21.332031 0-21.332031-21.332031-21.332031-21.332031-21.332031-21.332031c-42.667969 0-42.667969-42.667969-42.667969-42.667969s0-21.332031-21.332031-21.332031c0 0-21.335938 0-21.335938-21.335938zm0 0" fill="#ef7f00"/><path d="m277.699219 213.332031c-13.46875-.4375-21.699219-8.8125-21.699219-21.332031 0-21.082031-21.125-21.332031-21.332031-21.332031-29.125 0-42.417969-21.398438-42.667969-42.605469 0-.332031-.238281-21.394531-21.332031-21.394531-13.074219-.335938-21.335938-8.710938-21.335938-21.335938h21.335938c27.707031 0 42.664062 21.960938 42.664062 42.605469.09375 7.917969 2.992188 21.394531 21.335938 21.394531 20.6875 0 42.664062 14.960938 42.664062 42.667969 0-33.5 30.5-64 64-64 9.574219 0 21.335938-11.769531 21.335938-21.332031h21.332031c0 21.539062-21.136719 42.664062-42.667969 42.664062s-42.664062 21.125-42.664062 42.667969c0 12.519531-8.230469 20.894531-20.96875 21.332031zm0 0" fill="#e76400"/><g fill="#f59707"><path d="m192 74.667969c0-5.890625-9.550781-10.667969-21.332031-10.667969-11.785157 0-21.335938 4.777344-21.335938 10.667969s9.550781 10.664062 21.335938 10.664062c11.78125 0 21.332031-4.773437 21.332031-10.664062zm0 0"/><path d="m256 138.667969c0-5.890625-9.550781-10.667969-21.332031-10.667969-11.785157 0-21.335938 4.777344-21.335938 10.667969s9.550781 10.664062 21.335938 10.664062c11.78125 0 21.332031-4.773437 21.332031-10.664062zm0 0"/><path d="m362.667969 90.667969c0-8.835938-14.328125-16-32-16-17.675781 0-32 7.164062-32 16 0 8.835937 14.324219 16 32 16 17.671875 0 32-7.164063 32-16zm0 0"/></g></svg>