<svg height="469.33334pt" viewBox="0 0 469.33334 469.33334" width="469.33334pt" xmlns="http://www.w3.org/2000/svg"><path d="m298.667969 0c-64 0-85.335938 85.332031-85.335938 85.332031h21.335938s21.332031-42.664062 64-42.664062c21.332031 0 21.332031-21.335938 21.332031-21.335938s0-21.332031-21.332031-21.332031zm0 0" fill="#7d1a00"/><path d="m384 85.332031c-42.667969 0-42.667969 21.335938-64 21.335938s-21.332031-42.667969-85.332031-42.667969-64 42.667969-85.335938 42.667969c-21.332031 0-21.332031-21.335938-64-21.335938-42.664062 0-85.332031 42.667969-85.332031 106.667969 0 85.332031 85.332031 106.667969 85.332031 192 0 21.332031 21.335938 64 85.335938 64 21.332031 0 21.332031 21.332031 64 21.332031 42.664062 0 42.664062-21.332031 64-21.332031 64 0 85.332031-42.667969 85.332031-64 0-85.332031 85.332031-106.667969 85.332031-192 0-64-42.664062-106.667969-85.332031-106.667969zm0 0" fill="#c11107"/><path d="m384 384h-42.667969c0-57.65625 28.835938-93.6875 52-122.65625 19.355469-24.175781 33.335938-41.644531 33.335938-69.34375 0-41.761719-24.773438-64-42.667969-64-11.4375 0-13.5625 1.511719-19.292969 5.550781l-24.625-34.832031c10.355469-7.324219 20.792969-13.386719 43.917969-13.386719 41.042969 0 85.332031 40.78125 85.332031 106.667969 0 42.667969-21.6875 69.78125-42.664062 96-20.980469 26.21875-42.667969 53.3125-42.667969 96zm0 0" fill="#af0a00"/><path d="m320 234.667969c0-121.4375-34.121094-157.5-59.214844-167.628907-8.542968-2.097656-17.320312-3.121093-26.117187-3.039062-64 0-64 42.667969-85.335938 42.667969-21.332031 0-21.332031-21.335938-64-21.335938-42.664062 0-85.332031 42.667969-85.332031 106.667969 0 85.332031 85.332031 106.667969 85.332031 192 0 21.332031 21.335938 64 85.335938 64 21.332031 0 21.332031 21.332031 64 21.332031 42.664062 0 85.332031-42.664062 85.332031-234.664062zm0 0" fill="#c82e25"/><path d="m234.667969 469.332031c-25.023438 0-106.667969-14.613281-106.667969-202.664062 0-188.054688 81.644531-202.667969 106.667969-202.667969v42.667969c-29.523438 0-64 41.90625-64 160s34.476562 160 64 160zm0 0" fill="#c11107"/><path d="m94.035156 108.355469c-16.734375-8.066407-43.746094 13.292969-60.332031 47.707031s-16.46875 68.851562.261719 76.914062c16.734375 8.066407 43.746094-13.292968 60.332031-47.707031 16.585937-34.414062 16.46875-68.851562-.261719-76.914062zm0 0" fill="#d2514a"/><g fill="#de807a"><path d="m80.539062 132.800781c-7.441406-7.445312-20.878906-6.078125-30.015624 3.050781-9.132813 9.132813-10.503907 22.570313-3.0625 30.015626 7.441406 7.441406 20.878906 6.078124 30.015624-3.054688 9.132813-9.128906 10.503907-22.566406 3.0625-30.011719zm0 0"/><path d="m256 160c0-29.457031-14.328125-53.332031-32-53.332031s-32 23.875-32 53.332031 14.328125 53.332031 32 53.332031 32-23.875 32-53.332031zm0 0"/></g></svg>