<svg height="469.33334pt" viewBox="0 0 469.33334 469.33334" width="469.33334pt" xmlns="http://www.w3.org/2000/svg"><path d="m426.667969 21.332031-21.335938 64s-64 0-85.332031 21.335938l106.667969 85.332031s42.664062-128 42.664062-170.667969c0 0 0-21.332031-21.332031-21.332031s-21.332031 21.332031-21.332031 21.332031zm0 0" fill="#fdbc34"/><path d="m431.4375 177.28125-20.332031-6.5c23.101562-72.28125 36.894531-128.105469 36.894531-149.324219h21.332031c0 32.375-23.75 111.523438-37.894531 155.824219zm0 0" fill="#f59707"/><path d="m0 469.332031s0-64 42.667969-106.664062c64-64 170.664062-42.667969 170.664062-128 0-85.335938 42.667969-149.335938 106.667969-149.335938s106.667969 42.667969 106.667969 106.667969-64 192-256 192c-128 0-149.335938 85.332031-149.335938 85.332031zm0 0" fill="#c82e25"/><path d="m256 234.667969h-21.332031c0-75.367188 35.082031-128 85.332031-128v21.332031c-37.6875 0-64 43.863281-64 106.667969zm0 0" fill="#d96c66"/><path d="m263.207031 182.449219-20.375-6.273438c13.375-43.519531 42.230469-69.507812 77.167969-69.507812v21.332031c-25.4375 0-46.144531 19.84375-56.792969 54.449219zm0 0" fill="#e59b96"/><path d="m405.332031 192c0 55.6875-57.351562 170.667969-234.664062 170.667969" fill="#c82e25"/><g fill="#af0a00"><path d="m170.667969 384v-42.667969c161.1875 0 213.332031-100.613281 213.332031-149.332031h42.667969c0 62.644531-62.585938 192-256 192zm0 0"/><path d="m20.957031 469.332031h-9.539062v-11.59375l-7.605469-3.03125c8.625-21.582031 46.125-92.039062 166.855469-92.039062 177.3125 0 234.664062-114.980469 234.664062-170.667969 0-52.636719-32.6875-85.332031-85.332031-85.332031v-21.335938c63.792969 0 106.667969 42.867188 106.667969 106.667969 0 62.644531-62.585938 192-256 192-104.375 0-137.605469 54.980469-147.023438 78.625zm0 0"/></g></svg>