<svg height="469pt" viewBox="-42 0 469 469.33367" width="469pt" xmlns="http://www.w3.org/2000/svg"><path d="m192.167969 0c-21.335938 0-42.667969 21.332031-42.667969 42.667969 0 0-42.667969 0-42.667969 42.664062 0 0-21.332031 0-21.332031 21.335938 0 0-21.332031 0-21.332031 21.332031 0 0-42.667969 0-42.667969 42.667969h341.332031s0-42.667969-42.664062-42.667969c0 0 0-21.332031-21.335938-21.332031 0 0 0-42.667969-42.664062-42.667969 0 0 0-21.332031-21.335938-21.332031 0 0 0-42.667969-42.664062-42.667969zm0 0" fill="#d4c3a2"/><path d="m213.5 42.667969c0 11.78125-9.550781 21.332031-21.332031 21.332031-11.785157 0-21.335938-9.550781-21.335938-21.332031 0-11.785157 9.550781-21.335938 21.335938-21.335938 11.78125 0 21.332031 9.550781 21.332031 21.335938zm0 0" fill="#e0d4b7"/><path d="m234.832031 53.332031c0 5.890625-4.773437 10.667969-10.664062 10.667969s-10.667969-4.777344-10.667969-10.667969 4.777344-10.664062 10.667969-10.664062 10.664062 4.773437 10.664062 10.664062zm0 0" fill="#e0d4b7"/><path d="m362.832031 149.332031c0-21.332031-21.332031-21.332031-21.332031-21.332031 0-21.332031-21.332031-21.332031-21.332031-21.332031 0-21.335938-21.335938-21.335938-21.335938-21.335938 0-21.332031-21.332031-21.332031-21.332031-21.332031s-21.332031 0-21.332031 21.332031c0 0-42.667969 0-42.667969 42.667969 0 0-21.332031 0-21.332031 21.332031zm0 0" fill="#e0d4b7"/><path d="m277.5 117.332031c0 5.890625-4.777344 10.667969-10.667969 10.667969s-10.664062-4.777344-10.664062-10.667969 4.773437-10.664062 10.664062-10.664062 10.667969 4.773437 10.667969 10.664062zm0 0" fill="#d4c3a2"/><path d="m320.167969 149.332031c0 11.785157-9.550781 21.335938-21.335938 21.335938-11.78125 0-21.332031-9.550781-21.332031-21.335938 0-11.78125 9.550781-21.332031 21.332031-21.332031 11.785157 0 21.335938 9.550781 21.335938 21.332031zm0 0" fill="#d4c3a2"/><path d="m298.832031 96c0 5.890625-4.773437 10.667969-10.664062 10.667969s-10.667969-4.777344-10.667969-10.667969 4.777344-10.667969 10.667969-10.667969 10.664062 4.777344 10.664062 10.667969zm0 0" fill="#d4c3a2"/><path d="m64.167969 192c-21.335938 0-42.667969-21.332031-42.667969-42.667969 0-21.332031 21.332031-42.664062 42.667969-42.664062 0-21.335938 21.332031-21.335938 21.332031-21.335938s0-42.664062 42.667969-42.664062c0 0 0-21.335938 21.332031-21.335938s21.332031 21.335938 21.332031 21.335938 21.335938 0 21.335938 21.332031c42.664062 0 42.664062 42.667969 42.664062 42.667969s42.667969 0 42.667969 42.664062c0 0 21.332031 0 21.332031 21.335938 0 0 21.335938 0 21.335938 21.332031zm0 0" fill="#eae2ce"/><g fill="#f3eee3"><path d="m106.832031 149.332031c0 11.785157-9.550781 21.335938-21.332031 21.335938s-21.332031-9.550781-21.332031-21.335938c0-11.78125 9.550781-21.332031 21.332031-21.332031s21.332031 9.550781 21.332031 21.332031zm0 0"/><path d="m85.5 128c0 11.78125-9.550781 21.332031-21.332031 21.332031-11.785157 0-21.335938-9.550781-21.335938-21.332031s9.550781-21.332031 21.335938-21.332031c11.78125 0 21.332031 9.550781 21.332031 21.332031zm0 0"/><path d="m149.5 117.332031c0 5.890625-4.777344 10.667969-10.667969 10.667969s-10.664062-4.777344-10.664062-10.667969 4.773437-10.664062 10.664062-10.664062 10.667969 4.773437 10.667969 10.664062zm0 0"/><path d="m213.5 106.667969c0 11.78125-9.550781 21.332031-21.332031 21.332031-11.785157 0-21.335938-9.550781-21.335938-21.332031 0-11.785157 9.550781-21.335938 21.335938-21.335938 11.78125 0 21.332031 9.550781 21.332031 21.335938zm0 0"/><path d="m256.167969 149.332031c0 11.785157-9.550781 21.335938-21.335938 21.335938-11.78125 0-21.332031-9.550781-21.332031-21.335938 0-11.78125 9.550781-21.332031 21.332031-21.332031 11.785157 0 21.335938 9.550781 21.335938 21.332031zm0 0"/></g><path d="m320.167969 469.332031h-256l-64-320h384zm0 0" fill="#c11107"/><path d="m320.167969 469.332031h-256l-64-320h384zm0 0" fill="#c82e25"/><path d="m320.167969 469.332031h-106.667969l21.332031-320h149.335938zm0 0" fill="#af0a00"/><path d="m213.5 469.332031h-42.667969l-21.332031-320h85.332031zm0 0" fill="#edebeb"/><path d="m128.167969 469.332031h-42.667969l-64-320h64zm0 0" fill="#edebeb"/><path d="m256.167969 469.332031h42.664062l64-320h-64zm0 0" fill="#d5d1d1"/><path d="m256.167969 298.667969c0 35.34375-28.65625 64-64 64-35.347657 0-64-28.65625-64-64 0-35.347657 28.652343-64 64-64 35.34375 0 64 28.652343 64 64zm0 0" fill="#fdbc34"/><path d="m228.390625 245.960938-7.300781 109.496093c20.148437-10.128906 33.4375-30.160156 34.9375-52.660156 1.5-22.503906-9.011719-44.121094-27.636719-56.835937zm0 0" fill="#f59707"/><path d="m149.5 64c0 11.78125-9.550781 21.332031-21.332031 21.332031-11.785157 0-21.335938-9.550781-21.335938-21.332031s9.550781-21.332031 21.335938-21.332031c11.78125 0 21.332031 9.550781 21.332031 21.332031zm0 0" fill="#f3eee3"/></svg>