<svg height="469pt" viewBox="0 -64 469.33334 469" width="469pt" xmlns="http://www.w3.org/2000/svg"><path d="m0 204.964844c0-113.777344 128-204.796875 256-204.796875 149.332031 0 213.332031 94.070312 213.332031 182.042969 0 87.972656-42.664062 159.289062-213.332031 159.289062-149.332031 0-256-22.753906-256-136.535156zm0 0" fill="#ad6143"/><path d="m387.164062 87.027344c27.941407 26.984375 39.503907 62.480468 39.503907 95.179687 0 40.761719 0 116.625-170.667969 116.625-77.347656 0-126.851562-7.160156-158.445312-18.734375" fill="#ad6143"/><path d="m256 341.5c-77.3125 0-133.9375-6.980469-173.125-21.332031l29.375-80.125c29.1875 10.695312 77.5625 16.125 143.75 16.125 128 0 128-39.292969 128-73.960938 0-14.53125-3.4375-42.238281-26.480469-64.488281l59.292969-61.375c33.875 32.707031 52.519531 77.40625 52.519531 125.863281 0 68.386719-22.101562 159.292969-213.332031 159.292969zm0 0" fill="#a34e2d"/><path d="m405.332031 112.167969c0-14.730469-16.714843-26.667969-37.332031-26.667969s-37.332031 11.9375-37.332031 26.667969c0 14.726562 16.714843 26.664062 37.332031 26.664062s37.332031-11.9375 37.332031-26.664062zm0 0" fill="#a34e2d"/><path d="m256 341.5c-132.957031 0-256-16.542969-256-136.53125h42.667969c0 57.949219 35.6875 93.863281 213.332031 93.863281 170.667969 0 170.667969-75.863281 170.667969-116.625 0-36.644531-14.105469-70.363281-39.710938-94.96875l29.542969-30.769531c34.0625 32.71875 52.832031 77.375 52.832031 125.738281 0 108.679688-67.789062 159.292969-213.332031 159.292969zm0 0" fill="#993b17"/><path d="m232.960938 93.292969c-8.703126-26.242188-48.429688-36.679688-88.726563-23.308594-40.296875 13.367187-65.902344 45.480469-57.195313 71.722656 8.703126 26.242188 48.429688 36.679688 88.726563 23.308594 40.296875-13.367187 65.902344-45.480469 57.195313-71.722656zm0 0" fill="#b7745a"/><path d="m298.667969 57.054688c0-7.855469-9.550781-14.222657-21.335938-14.222657-11.78125 0-21.332031 6.367188-21.332031 14.222657 0 7.855468 9.550781 14.222656 21.332031 14.222656 11.785157 0 21.335938-6.367188 21.335938-14.222656zm0 0" fill="#993b17"/><path d="m64 213.5c0-11.78125-14.328125-21.332031-32-21.332031s-32 9.550781-32 21.332031 14.328125 21.332031 32 21.332031 32-9.550781 32-21.332031zm0 0" fill="#8b2800"/><path d="m314.683594 182.007812c-6.480469-13.152343-29.828125-14.894531-52.152344-3.894531s-35.167969 30.578125-28.691406 43.726563c6.480468 13.148437 29.832031 14.890625 52.15625 3.894531 22.320312-11 35.167968-30.578125 28.6875-43.726563zm0 0" fill="#a34e2d"/><path d="m123.007812 215.640625c-17.386718-5.140625-34.023437-.714844-37.160156 9.882813-3.132812 10.601562 8.421875 23.359374 25.8125 28.503906 17.386719 5.140625 34.023438.714844 37.15625-9.886719 3.136719-10.597656-8.421875-23.359375-25.808594-28.5zm0 0" fill="#993b17"/><path d="m64 160.167969c0 5.890625-4.777344 10.664062-10.667969 10.664062s-10.664062-4.773437-10.664062-10.664062 4.773437-10.667969 10.664062-10.667969 10.667969 4.777344 10.667969 10.667969zm0 0" fill="#993b17"/><path d="m384 53.5c0-5.890625-9.550781-10.667969-21.332031-10.667969-11.785157 0-21.335938 4.777344-21.335938 10.667969s9.550781 10.667969 21.335938 10.667969c11.78125 0 21.332031-4.777344 21.332031-10.667969zm0 0" fill="#a34e2d"/><path d="m341.332031 298.832031c0-11.78125-14.324219-21.332031-32-21.332031-17.671875 0-32 9.550781-32 21.332031 0 11.785157 14.328125 21.335938 32 21.335938 17.675781 0 32-9.550781 32-21.335938zm0 0" fill="#993b17"/><g fill="#8b2800"><path d="m443.363281 218.121094c-7.328125-7.320313-20.746093-5.777344-29.964843 3.453125-9.222657 9.230469-10.757813 22.648437-3.429688 29.96875 7.328125 7.324219 20.746094 5.777343 29.96875-3.453125 9.21875-9.226563 10.753906-22.644532 3.425781-29.96875zm0 0"/><path d="m170.667969 309.5c0-5.890625-9.550781-10.667969-21.335938-10.667969-11.78125 0-21.332031 4.777344-21.332031 10.667969s9.550781 10.667969 21.332031 10.667969c11.785157 0 21.335938-4.777344 21.335938-10.667969zm0 0"/><path d="m441.085938 135.066406c-8.679688-8.671875-22.171876-9.242187-30.136719-1.269531-7.964844 7.972656-7.382813 21.464844 1.296875 30.136719 8.679687 8.671875 22.171875 9.242187 30.136718 1.269531 7.964844-7.972656 7.386719-21.464844-1.296874-30.136719zm0 0"/></g><path d="m213.246094 262.675781c-1.0625-5.421875-11.433594-7.957031-23.167969-5.664062-11.734375 2.296875-20.386719 8.554687-19.324219 13.976562 1.0625 5.425781 11.433594 7.960938 23.167969 5.664063 11.734375-2.292969 20.386719-8.550782 19.324219-13.976563zm0 0" fill="#993b17"/><path d="m255.914062 113.34375c-1.0625-5.425781-11.433593-7.960938-23.167968-5.664062-11.734375 2.296874-20.386719 8.554687-19.324219 13.976562 1.058594 5.425781 11.433594 7.960938 23.167969 5.664062 11.730468-2.296874 20.382812-8.554687 19.324218-13.976562zm0 0" fill="#b7745a"/><path d="m213.246094 28.011719c-1.0625-5.425781-11.433594-7.960938-23.167969-5.664063-11.734375 2.292969-20.386719 8.550782-19.324219 13.976563 1.0625 5.421875 11.433594 7.957031 23.167969 5.664062 11.734375-2.296875 20.386719-8.554687 19.324219-13.976562zm0 0" fill="#b7745a"/></svg>