<svg height="469pt" viewBox="0 0 469.52084 469" width="469pt" xmlns="http://www.w3.org/2000/svg"><path d="m277.332031 213.59375 170.667969-170.667969 21.332031 21.335938-170.664062 170.664062zm0 0" fill="#fdab00"/><path d="m22.222656 234.925781s-.890625-42.664062 41.777344-42.664062c0 0 0-42.667969 42.667969-42.667969 0 0 0-42.667969 42.664062-42.667969 0 0 0-42.664062 42.667969-42.664062 0 0 0-42.667969 42.667969-42.667969 42.664062 0 42.664062 42.667969 42.664062 42.667969s42.667969 0 42.667969 42.664062c0 0 42.667969 0 42.667969 42.667969 0 0 42.664062 0 42.664062 42.667969 0 0 41.777344 0 41.777344 42.664062l.890625 21.335938h-426.667969zm0 0" fill="#eae2ce"/><g fill="#f3eee3"><path d="m384 234.925781c0 23.566407-19.101562 42.667969-42.667969 42.667969-23.5625 0-42.664062-19.101562-42.664062-42.667969 0-23.5625 19.101562-42.664062 42.664062-42.664062 23.566407 0 42.667969 19.101562 42.667969 42.664062zm0 0"/><path d="m298.667969 106.925781c0 23.566407-19.105469 42.667969-42.667969 42.667969s-42.667969-19.101562-42.667969-42.667969c0-23.5625 19.105469-42.664062 42.667969-42.664062s42.667969 19.101562 42.667969 42.664062zm0 0"/><path d="m170.667969 128.261719c0 11.78125-9.550781 21.332031-21.335938 21.332031-11.78125 0-21.332031-9.550781-21.332031-21.332031 0-11.785157 9.550781-21.335938 21.332031-21.335938 11.785157 0 21.335938 9.550781 21.335938 21.335938zm0 0"/><path d="m128 224.261719c0 17.671875-14.328125 32-32 32s-32-14.328125-32-32c0-17.675781 14.328125-32 32-32s32 14.324219 32 32zm0 0"/><path d="m149.332031 192.261719c0 11.78125-9.550781 21.332031-21.332031 21.332031s-21.332031-9.550781-21.332031-21.332031c0-11.785157 9.550781-21.335938 21.332031-21.335938s21.332031 9.550781 21.332031 21.335938zm0 0"/></g><path d="m234.667969 234.925781h-234.667969c0 170.667969 128 192 128 192 0 21.335938 21.332031 42.667969 42.667969 42.667969h128c21.332031 0 42.664062-21.332031 42.664062-42.667969 0 0 128-21.332031 128-192zm0 0" fill="#993b17"/><path d="m298.667969 469.59375h-64v-21.332031h64c9.570312 0 21.332031-11.761719 21.332031-21.335938l.0625-17.976562 17.667969-3.054688c4.207031-.71875 100.070312-18.644531 109.519531-149.632812h-20.582031v-21.335938h42.851562l-.375 11.023438c-5.269531 158.207031-122.789062 180.113281-127.789062 180.96875l-.023438.050781c0 21.488281-21.132812 42.625-42.664062 42.625zm0 0" fill="#8b2800"/><path d="m234.667969 426.925781s128-21.332031 128-192h-362.667969c0 170.667969 128 192 128 192 0 21.335938 21.332031 42.667969 42.667969 42.667969h21.332031c21.332031 0 42.667969-21.332031 42.667969-42.667969zm0 0" fill="#a34e2d"/><path d="m131.300781 405.855469c-9.613281-1.804688-94.363281-20.917969-108.09375-137.679688l21.1875-2.5c11.949219 101.605469 82.78125 117.699219 90.824219 119.199219zm0 0" fill="#b7745a"/><path d="m234.667969 170.925781 170.664062-170.664062 21.335938 21.332031-170.667969 170.667969zm0 0" fill="#fdbc34"/><path d="m149.332031 426.925781h85.335938v21.335938h-85.335938zm0 0" fill="#993b17"/></svg>