<svg height="469pt" viewBox="0 -64 469.33369 469" width="469pt" xmlns="http://www.w3.org/2000/svg"><path d="m256 .167969c68.386719 0 139.988281 19.3125 188.34375 67.675781 33.324219 33.324219 33.320312 87.359375-.011719 120.675781-33.332031 33.3125-80.265625 31.636719-120.675781-.007812-25.488281-23.902344-152.988281-39.011719-152.988281 67.75.03125 47.121093-38.128907 85.355469-85.25 85.414062h-.085938c-47.097656.003907-85.2890622-38.152343-85.332031-85.25-.0703125-67.9375 26.871094-133.121093 74.886719-181.1875 48.019531-48.066406 113.171875-75.074219 181.113281-75.070312zm0 0" fill="#cd3e36"/><path d="m21.332031 256.402344c-.066406-62.28125 24.628907-122.03125 68.644531-166.09375 44.015626-44.0625 103.742188-68.816406 166.023438-68.8125 41.769531 0 119.832031 7.976562 173.25 61.425781l-30.167969 30.167969c-42.550781-42.574219-107.914062-48.929688-143.082031-48.929688-50.957031 0-99.824219 20.257813-135.835938 56.304688-36.011718 36.050781-56.21875 84.9375-56.164062 135.894531zm0 0" fill="#d96c66"/><path d="m120.238281 120.390625-30.164062-30.167969c43.910156-44.148437 103.65625-68.898437 165.925781-68.726562v42.664062c-50.945312-.136718-99.832031 20.109375-135.761719 56.230469zm0 0" fill="#e59b96"/><path d="m170.667969 256.253906h-42.667969c0-94.21875 71.761719-127.65625 133.207031-127.65625 37.117188 0 72.542969 10.84375 90.273438 27.625l-29.335938 30.980469c-6.988281-6.613281-30.519531-15.9375-60.9375-15.9375-27.21875 0-90.539062 8.28125-90.539062 84.988281zm0 0" fill="#c11107"/><path d="m85.417969 341.671875-.085938-21.332031c35.351563-.070313 63.976563-28.734375 64-64.085938 0-78.476562 60.273438-106.320312 111.875-106.320312 30.949219 0 62.34375 9.21875 76.34375 22.414062 30.59375 23.875 67.136719 25.625 91.699219 1.085938 12.042969-11.976563 18.796875-28.277344 18.75-45.261719h21.332031c.0625 22.648437-8.941406 44.375-25 60.34375-32 31.957031-80.101562 31.78125-120.675781-.011719-9.269531-8.6875-33.8125-17.238281-62.449219-17.238281-21.238281 0-90.539062 6.125-90.539062 84.988281-.03125 47.097656-38.15625 85.296875-85.25 85.417969zm0 0" fill="#c11107"/><path d="m142.21875 298.921875h-21.332031c0-11.957031-12.492188-21.332031-28.4375-21.332031-15.949219 0-28.449219 9.375-28.449219 21.332031h-21.332031c0-23.925781 21.863281-42.667969 49.78125-42.667969 27.90625 0 49.769531 18.742188 49.769531 42.667969zm0 0" fill="#d96c66"/><path d="m120.890625 298.921875c0-11.78125-12.738281-21.332031-28.445313-21.332031-15.710937 0-28.445312 9.550781-28.445312 21.332031s12.734375 21.332031 28.445312 21.332031c15.707032 0 28.445313-9.550781 28.445313-21.332031zm0 0" fill="#c11107"/></svg>