<svg height="469pt" viewBox="0 -10 469.33334 469" width="469pt" xmlns="http://www.w3.org/2000/svg"><path d="m277.332031 21.5h-277.332031v42.667969c0 58.910156 47.757812 106.664062 106.667969 106.664062h149.332031c47.140625-.015625 85.363281 38.195313 85.363281 85.335938 0 47.136719-38.222656 85.347656-85.363281 85.332031h-106.667969c-64 0-64 64-64 64-42.664062 0-42.664062 42.667969-42.664062 42.667969 106.664062 0 170.664062-42.667969 170.664062-42.667969h64c106.039063 0 192-85.960938 192-192s-85.960937-192-192-192zm0 0" fill="#cd3e36"/><path d="m128 362.832031h42.667969v21.335938h-42.667969zm0 0" fill="#d96c66"/><path d="m395.855469 336.207031-14.824219-15.332031c29.257812-28.042969 45.753906-66.847656 45.636719-107.375 0-82.34375-66.992188-149.332031-149.335938-149.332031h-213.332031v-21.335938h213.332031c94.105469 0 170.667969 76.5625 170.667969 170.667969.140625 46.316406-18.707031 90.664062-52.144531 122.707031zm0 0" fill="#de807a"/><path d="m405.195312 70.554688-103.402343 103.402343 15.082031 15.085938 103.40625-103.40625c-4.746094-5.300781-9.78125-10.339844-15.085938-15.082031zm0 0" fill="#d2514a"/><path d="m256 384.167969v-42.667969c47.140625.015625 85.363281-38.195312 85.363281-85.332031 0-47.140625-38.222656-85.351563-85.363281-85.335938h-149.332031c-58.882813-.066406-106.5976565-47.785156-106.667969-106.664062v-42.667969h42.667969v42.667969c.039062 35.328125 28.667969 63.960937 64 64h149.332031c70.691406 0 128 57.304687 128 128 0 70.691406-57.308594 128-128 128zm0 0" fill="#c82e25"/><path d="m330.667969 215.652344c3.324219 6.054687 5.894531 12.496094 7.648437 19.179687h129.765625c.808594-7.082031 1.226563-14.203125 1.25-21.332031h-138.664062zm0 0" fill="#d2514a"/><path d="m330.667969 215.652344c3.324219 6.054687 5.894531 12.496094 7.648437 19.179687h45.683594v-21.332031h-53.332031zm0 0" fill="#cd3e36"/><path d="m416.074219 81.011719-92.949219 92.945312 15.082031 15.085938 91.726563-91.726563c-4.3125-5.6875-8.941406-11.132812-13.859375-16.304687zm0 0" fill="#c82e25"/><path d="m308.074219 189.007812c5.640625 4.378907 10.707031 9.445313 15.085937 15.082032l36.382813-36.382813-15.085938-15.082031zm0 0" fill="#c11107"/><path d="m386.367188 371.449219-63.207032-63.207031c-4.378906 5.636718-9.445312 10.707031-15.085937 15.082031l59.578125 59.578125c6.453125-3.457032 12.699218-7.28125 18.714844-11.453125zm0 0" fill="#d2514a"/><path d="m308.074219 323.324219 36.382812 36.382812 15.085938-15.082031-36.382813-36.382812c-4.378906 5.636718-9.445312 10.707031-15.085937 15.082031zm0 0" fill="#cd3e36"/><path d="m110.449219 442.167969-7.5625-41.992188c54.53125-9.832031 86.757812-30.164062 87.082031-30.375l10.449219-6.96875h76.914062v42.667969h-64c-4.300781 2.761719-41.019531 25.511719-102.882812 36.667969zm0 0" fill="#c82e25"/><path d="m138.667969 85.5c-29.441407-.035156-53.300781-23.890625-53.335938-53.332031h21.335938c0 17.671875 14.324219 32 32 32 17.671875 0 32-14.328125 32-32h21.332031c-.035156 29.441406-23.890625 53.296875-53.332031 53.332031zm0 0" fill="#c11107"/><path d="m170.667969 32.167969c0 17.671875-14.328125 32-32 32-17.675781 0-32-14.328125-32-32 0-17.675781 14.324219-32 32-32 17.671875 0 32 14.324219 32 32zm0 0" fill="#2b1718"/><path d="m170.667969 32.167969c0 5.890625-4.777344 10.664062-10.667969 10.664062s-10.667969-4.773437-10.667969-10.664062 4.777344-10.667969 10.667969-10.667969 10.667969 4.777344 10.667969 10.667969zm0 0" fill="#afa8a8"/><g fill="#d96c66"><path d="m228.417969 234.832031h-57.75v-21.332031h48.914062l82.210938-82.207031 15.082031 15.082031zm0 0"/><path d="m298.667969 256.167969h74.664062v21.332031h-74.664062zm0 0"/><path d="m280.457031 359.707031-39.539062-39.539062h-48.917969v-21.335938h57.75l45.792969 45.792969zm0 0"/><path d="m280.457031 237.957031 64-64 15.085938 15.085938-64 64zm0 0"/></g><path d="m234.667969 21.5h21.332031v138.667969h-21.332031zm0 0" fill="#cd3e36"/><path d="m234.667969 128.167969h21.332031v42.664062h-21.332031zm0 0" fill="#c82e25"/><path d="m213.332031 21.5h21.335938v149.332031h-21.335938zm0 0" fill="#cd3e36"/><path d="m213.332031 21.5h21.335938v106.667969h-21.335938zm0 0" fill="#d2514a"/><path d="m234.667969 21.5h21.332031v149.332031h-21.332031zm0 0" fill="#c82e25"/><path d="m234.667969 128.167969h21.332031v42.664062h-21.332031zm0 0" fill="#c11107"/><path d="m468.082031 234.832031h-129.765625c1.910156 6.953125 2.925782 14.125 3.015625 21.335938h123.078125c1.628906-7.039063 2.851563-14.160157 3.671875-21.335938zm0 0" fill="#c82e25"/><path d="m341.332031 256.167969h42.667969v-21.335938h-45.683594c1.910156 6.953125 2.925782 14.125 3.015625 21.335938zm0 0" fill="#c11107"/><path d="m373.242188 379.660156-60.328126-60.328125c-5.40625 4.84375-11.410156 8.976563-17.867187 12.296875l58.210937 58.210938c6.855469-3 13.527344-6.398438 19.984376-10.179688zm0 0" fill="#c82e25"/><path d="m338.207031 344.625-25.292969-25.292969c-5.40625 4.84375-11.410156 8.976563-17.867187 12.296875l28.078125 28.078125zm0 0" fill="#c11107"/><path d="m213.332031 341.5h21.335938v64h-21.335938zm0 0" fill="#c11107"/><path d="m234.667969 341.5h21.332031v64h-21.332031zm0 0" fill="#d2514a"/><path d="m234.667969 362.832031h21.332031v42.667969h-21.332031zm0 0" fill="#cd3e36"/><path d="m213.332031 341.5h21.335938v21.332031h-21.335938zm0 0" fill="#c82e25"/></svg>