<svg height="469pt" viewBox="-74 0 469 469.33334" width="469pt" xmlns="http://www.w3.org/2000/svg"><path d="m170.832031 277.332031v-106.664062c0-42.667969-42.664062-64-42.664062-106.667969v-42.667969h-85.335938v42.667969c0 42.667969-42.664062 64-42.664062 106.667969v106.664062c0 21.335938 21.332031 42.667969 21.332031 64v42.667969c0 21.332031-21.332031 21.332031-21.332031 42.667969v21.332031s0 21.332031 21.332031 21.332031h128c21.332031 0 21.332031-21.332031 21.332031-21.332031v-21.332031c0-21.335938-21.332031-21.335938-21.332031-42.667969v-42.667969c0-21.332031 21.332031-42.664062 21.332031-64zm0 0" fill="#b99e69"/><path d="m128.167969 448v-21.332031c0-21.335938-21.335938-21.335938-21.335938-42.667969v-42.667969c0-21.332031 21.335938-42.664062 21.335938-64v-106.664062c0-42.667969-42.667969-64-42.667969-106.667969v-42.667969h-42.667969v42.667969c0 42.667969-42.664062 64-42.664062 106.667969v106.664062c0 21.335938 21.332031 42.667969 21.332031 64v42.667969c0 21.332031-21.332031 21.332031-21.332031 42.667969v21.332031s0 21.332031 21.332031 21.332031h85.332031c21.335938 0 21.335938-21.332031 21.335938-21.332031zm0 0" fill="#d4c3a2"/><path d="m29.917969 299.800781c-5.8125-11.625-8.417969-17.632812-8.417969-22.46875v-106.664062c0-14.875 8.230469-27.21875 17.75-41.5l17.75 11.832031c-9.625 14.449219-14.167969 22.082031-14.167969 29.667969v106.664062c.460938 1.53125 4.75 10.09375 6.167969 12.90625zm0 0" fill="#eae2ce"/><path d="m106.832031 170.667969h21.335938v106.664062h-21.335938zm0 0" fill="#c5af83"/><path d="m170.832031 277.332031v-64h-170.664062v64c0 21.335938 21.332031 42.667969 21.332031 64v42.667969c0 21.332031-21.332031 21.332031-21.332031 42.667969v21.332031s0 21.332031 21.332031 21.332031h128c21.332031 0 21.332031-21.332031 21.332031-21.332031v-21.332031c0-21.335938-21.332031-21.335938-21.332031-42.667969v-42.667969c0-21.332031 21.332031-42.664062 21.332031-64zm0 0" fill="#8b2800"/><path d="m128.167969 277.332031v-64h-128v64c0 21.335938 21.332031 42.667969 21.332031 64v42.667969c0 21.332031-21.332031 21.332031-21.332031 42.667969v21.332031s0 21.332031 21.332031 21.332031h85.332031c21.335938 0 21.335938-21.332031 21.335938-21.332031v-21.332031c0-21.335938-21.335938-21.335938-21.335938-42.667969v-42.667969c0-21.332031 21.335938-42.664062 21.335938-64zm0 0" fill="#993b17"/><path d="m149.5 469.332031h-21.332031v-21.332031h21.332031v-21.332031c0-1.65625 0-1.835938-4.417969-6.25-6.351562-6.355469-16.914062-16.949219-16.914062-36.417969v-42.667969c0-15.6875 6.851562-29.382812 12.894531-41.476562 4.167969-8.324219 8.4375-16.855469 8.4375-22.523438v-64h21.332031v64c0 10.710938-5.414062 21.542969-10.664062 32.011719-5.5 10.988281-10.667969 21.34375-10.667969 31.988281v42.667969c0 10.644531 5.417969 16.0625 10.644531 21.3125 5.5 5.5 10.6875 10.6875 10.6875 21.355469v21.332031c-.332031 13.074219-8.707031 21.332031-21.332031 21.332031zm0 0" fill="#7d1a00"/><path d="m42.832031 0h85.335938c11.78125 0 21.332031 9.550781 21.332031 21.332031v21.335938h-128v-21.335938c0-11.78125 9.550781-21.332031 21.332031-21.332031zm0 0" fill="#c82e25"/><path d="m85.5 0h-42.667969c-11.78125 0-21.332031 9.550781-21.332031 21.332031v21.335938h85.332031v-21.335938c0-11.78125-9.550781-21.332031-21.332031-21.332031zm0 0" fill="#cd3e36"/><path d="m42.832031 21.332031h21.335938v21.335938h-21.335938zm0 0" fill="#af0a00"/><path d="m21.5 21.332031h21.332031v21.335938h-21.332031zm0 0" fill="#c82e25"/><path d="m64.167969 21.332031h21.332031v21.335938h-21.332031zm0 0" fill="#d96c66"/><path d="m106.832031 21.332031h21.335938v21.335938h-21.335938zm0 0" fill="#d2514a"/><path d="m85.5 21.332031h21.332031v21.335938h-21.332031zm0 0" fill="#c82e25"/><path d="m128.167969 21.332031h21.332031v21.335938h-21.332031zm0 0" fill="#af0a00"/><path d="m42.832031 448h-21.332031v-23.355469l3.3125-3.15625c7.4375-7.40625 18.019531-17.988281 18.019531-37.488281v-42.667969c0-15.664062-6.832031-29.375-12.875-41.46875-5.851562-11.6875-8.457031-17.695312-8.457031-22.53125v-42.664062h21.332031v42.664062c.460938 1.53125 4.75 10.09375 6.167969 12.90625 6.417969 12.886719 15.167969 30.398438 15.167969 51.09375v42.667969c0 26.199219-13.375 41.542969-21.335938 49.65625zm0 0" fill="#b7745a"/><path d="m29.917969 299.800781c-5.8125-11.625-8.417969-17.632812-8.417969-22.46875v-64h21.332031v64c.460938 1.53125 4.75 10.09375 6.167969 12.90625zm0 0" fill="#c99884"/><path d="m106.832031 213.332031h21.335938v64h-21.335938zm0 0" fill="#a34e2d"/><path d="m21.5 426.667969h21.332031v21.332031h-21.332031zm0 0" fill="#c99884"/><path d="m106.832031 426.667969h21.335938v21.332031h-21.335938zm0 0" fill="#a34e2d"/><path d="m21.5 448h85.332031v21.332031h-85.332031zm0 0" fill="#8b2800"/><path d="m85.5 42.667969h42.667969v21.332031h-42.667969zm0 0" fill="#a37f39"/><path d="m64.167969 42.667969h21.332031v21.332031h-21.332031zm0 0" fill="#c5af83"/><path d="m320.167969 149.332031h-192v42.667969c0 85.332031 21.332031 128 21.332031 170.667969v85.332031c0 21.332031 21.332031 21.332031 21.332031 21.332031h106.667969s21.332031 0 21.332031-21.332031v-85.332031c0-42.667969 21.335938-85.335938 21.335938-170.667969zm0 0" fill="#b99e69"/><path d="m213.5 469.332031v-21.332031h63.917969l.082031-85.332031c0-19.804688 3.875-38.511719 8.332031-60.167969 5.8125-28.011719 13-62.605469 13-110.5v-42.667969h21.335938v42.667969c0 50.09375-7.417969 85.863281-13.398438 114.613281-4.269531 20.71875-7.9375 38.4375-7.9375 56.054688v85.332031c0 12.605469-8.289062 20.980469-21.125 21.332031zm0 0" fill="#a37f39"/><path d="m213.5 448v-85.332031c0-42.667969 21.332031-85.335938 21.332031-170.667969v-42.667969h-106.664062v42.667969c0 85.332031 21.332031 128 21.332031 170.667969v85.332031c0 21.332031 21.332031 21.332031 21.332031 21.332031h21.335938s21.332031 0 21.332031-21.332031zm0 0" fill="#d4c3a2"/><path d="m192.167969 448h-21.335938v-85.332031c0-19.792969-4.039062-39.40625-8.332031-60.179688-6.125-29.425781-13-62.5625-13-110.488281h21.332031c0 45.730469 6.648438 77.730469 12.5 105.957031 4.5625 22.085938 8.835938 42.742188 8.835938 64.710938zm0 0" fill="#eae2ce"/><path d="m157.488281 277.332031c1.609375 8.734375 3.304688 17.015625 4.949219 24.960938 4.5 21.738281 8.394531 40.519531 8.394531 60.375v42.664062c0 11.785157 9.550781 21.335938 21.335938 21.335938h64c11.78125 0 21.332031-9.550781 21.332031-21.335938v-42.664062c0-19.855469 3.894531-38.636719 8.394531-60.375 1.644531-7.945313 3.339844-16.226563 4.949219-24.960938zm0 0" fill="#8b2800"/><path d="m157.488281 277.332031c1.609375 8.734375 3.304688 17.015625 4.949219 24.960938 4.5 21.738281 8.394531 40.519531 8.394531 60.375v42.664062c0 11.785157 9.550781 21.335938 21.335938 21.335938h21.332031v-64c0-25.382813 7.523438-50.972657 13.640625-85.335938zm0 0" fill="#ad6143"/><path d="m192.167969 405.332031v-42.664062c0-21.96875-4.273438-42.625-8.835938-64.710938-1.371093-6.613281-2.78125-13.464843-4.144531-20.625h-21.695312c.007812.046875.015624.09375.023437.136719 1.429687 7.742188 2.921875 15.027344 4.390625 22.140625.199219.953125.398438 1.9375.59375 2.878906 1.714844 8.296875 3.3125 16.378907 4.703125 24.390625 2.121094 12.109375 3.628906 23.785156 3.628906 35.789063v42.664062c0 11.785157 9.550781 21.335938 21.335938 21.335938h21.332031v-21.335938zm0 0" fill="#c99884"/><path d="m256.167969 170.667969h42.664062v21.332031h-42.664062zm0 0" fill="#d4c3a2"/><path d="m149.5 170.667969h64v21.332031h-64zm0 0" fill="#eae2ce"/></svg>