<svg height="469pt" viewBox="-42 0 469 469.33334" width="469pt" xmlns="http://www.w3.org/2000/svg"><path d="m128.167969 85.332031s0-85.332031 106.664062-85.332031c0 0-42.664062 21.332031-42.664062 85.332031zm0 0" fill="#fdab00"/><path d="m192.519531 75.425781-21.289062-1.519531c1.851562-25.792969 9.957031-48.21875 24.082031-66.667969l16.917969 12.980469c-11.542969 15.074219-18.167969 33.644531-19.710938 55.207031zm0 0" fill="#f59707"/><path d="m256.167969 42.667969h-128c-21.335938 0-42.667969-21.335938-42.667969-21.335938 0 85.335938 42.667969 85.335938 42.667969 85.335938h128c42.664062 0 42.664062-85.335938 42.664062-85.335938s-21.332031 21.335938-42.664062 21.335938zm0 0" fill="#fdbc34"/><path d="m42.832031 64s0 64 85.335938 64h128c64 0 85.332031-21.332031 85.332031-64v-21.332031s-21.332031 21.332031-42.667969 21.332031h-213.332031c-21.332031 0-42.667969-21.332031-42.667969-21.332031zm0 0" fill="#fdbc34"/><path d="m298.832031 85.332031h-213.332031c-12 0-24.625-4-37.5625-11.882812l11.125-18.210938c9.519531 5.8125 18.417969 8.761719 26.4375 8.761719h213.332031c8.023438 0 16.917969-2.949219 26.4375-8.761719l11.125 18.210938c-12.9375 7.882812-25.5625 11.882812-37.5625 11.882812zm0 0" fill="#fdab00"/><path d="m192.167969 85.332031c-106.039063 0-192 54.859375-192 146.285157 0 88.382812 69.808593 90.292968 85.332031 152.382812 21.332031 85.332031 85.332031 85.332031 106.667969 85.332031 21.332031 0 85.332031 0 106.664062-85.332031 15.523438-62.089844 85.335938-64 85.335938-152.382812 0-91.425782-85.960938-146.285157-192-146.285157zm0 0" fill="#c82e25"/><path d="m160.699219 138.136719c-19.082031-19.082031-58.667969-10.433594-88.414063 19.3125-29.75 29.75-38.398437 69.332031-19.316406 88.414062s58.664062 10.433594 88.414062-19.3125c29.75-29.75 38.394532-69.332031 19.316407-88.414062zm0 0" fill="#d2514a"/><path d="m116.757812 136.859375c-6.597656-6.59375-20.277343-3.605469-30.558593 6.675781-10.285157 10.285156-13.273438 23.964844-6.675781 30.558594 6.59375 6.597656 20.273437 3.609375 30.558593-6.675781 10.28125-10.28125 13.269531-23.960938 6.675781-30.558594zm0 0" fill="#e59b96"/><path d="m192.167969 469.332031c-21.105469 0-85.3125 0-106.667969-85.332031l41.375-10.355469c13.269531 53.023438 45.832031 53.023438 65.292969 53.023438 19.457031 0 52.019531 0 65.289062-53.023438 9.523438-38.195312 32.6875-60.28125 51.292969-78.019531 21.125-20.15625 32.75-31.238281 32.75-64.011719 0-71.1875-77.417969-103.613281-149.332031-103.613281v-42.667969c92.476562 0 192 45.78125 192 146.28125 0 51.042969-23.355469 73.3125-45.9375 94.855469-16.167969 15.417969-32.855469 31.3125-39.375 57.519531-21.375 85.34375-85.585938 85.34375-106.6875 85.34375zm0 0" fill="#af0a00"/><path d="m192.167969 298.667969v-21.335938c11.773437-.007812 21.316406-9.554687 21.316406-21.332031s-9.542969-21.324219-21.316406-21.332031v-21.335938c23.5625 0 42.664062 19.105469 42.664062 42.667969s-19.101562 42.667969-42.664062 42.667969zm0 0" fill="#d96c66"/><path d="m213.5 256c0 11.78125-9.550781 21.332031-21.332031 21.332031-11.785157 0-21.335938-9.550781-21.335938-21.332031s9.550781-21.332031 21.335938-21.332031c11.78125 0 21.332031 9.550781 21.332031 21.332031zm0 0" fill="#7d1a00"/><path d="m64.167969 298.667969v-21.335938c11.773437-.007812 21.316406-9.554687 21.316406-21.332031s-9.542969-21.324219-21.316406-21.332031v-21.335938c23.570312-.011719 42.6875 19.097657 42.6875 42.667969s-19.117188 42.679688-42.6875 42.667969zm0 0" fill="#d96c66"/><path d="m85.5 256c0 11.78125-9.550781 21.332031-21.332031 21.332031-11.785157 0-21.335938-9.550781-21.335938-21.332031s9.550781-21.332031 21.335938-21.332031c11.78125 0 21.332031 9.550781 21.332031 21.332031zm0 0" fill="#7d1a00"/><path d="m128.167969 362.667969v-21.335938c11.78125 0 21.332031-9.550781 21.332031-21.332031s-9.550781-21.332031-21.332031-21.332031v-21.335938c23.5625 0 42.664062 19.105469 42.664062 42.667969s-19.101562 42.667969-42.664062 42.667969zm0 0" fill="#d96c66"/><path d="m149.5 320c0 11.78125-9.550781 21.332031-21.332031 21.332031-11.785157 0-21.335938-9.550781-21.335938-21.332031s9.550781-21.332031 21.335938-21.332031c11.78125 0 21.332031 9.550781 21.332031 21.332031zm0 0" fill="#7d1a00"/><path d="m128.167969 234.667969v-21.335938c11.773437-.007812 21.316406-9.554687 21.316406-21.332031s-9.542969-21.324219-21.316406-21.332031v-21.335938c23.570312-.011719 42.6875 19.097657 42.6875 42.667969s-19.117188 42.679688-42.6875 42.667969zm0 0" fill="#d96c66"/><path d="m149.5 192c0 11.78125-9.550781 21.332031-21.332031 21.332031-11.785157 0-21.335938-9.550781-21.335938-21.332031s9.550781-21.332031 21.335938-21.332031c11.78125 0 21.332031 9.550781 21.332031 21.332031zm0 0" fill="#7d1a00"/><path d="m256.167969 362.667969v-21.335938c11.773437-.007812 21.316406-9.554687 21.316406-21.332031s-9.542969-21.324219-21.316406-21.332031v-21.335938c23.5625 0 42.664062 19.105469 42.664062 42.667969s-19.101562 42.667969-42.664062 42.667969zm0 0" fill="#d2514a"/><path d="m277.5 320c0 11.78125-9.550781 21.332031-21.332031 21.332031-11.785157 0-21.335938-9.550781-21.335938-21.332031s9.550781-21.332031 21.335938-21.332031c11.78125 0 21.332031 9.550781 21.332031 21.332031zm0 0" fill="#7d1a00"/><path d="m256.167969 234.667969v-21.335938c11.773437-.007812 21.316406-9.554687 21.316406-21.332031s-9.542969-21.324219-21.316406-21.332031v-21.335938c23.5625 0 42.664062 19.105469 42.664062 42.667969s-19.101562 42.667969-42.664062 42.667969zm0 0" fill="#d96c66"/><path d="m277.5 192c0 11.78125-9.550781 21.332031-21.332031 21.332031-11.785157 0-21.335938-9.550781-21.335938-21.332031s9.550781-21.332031 21.335938-21.332031c11.78125 0 21.332031 9.550781 21.332031 21.332031zm0 0" fill="#7d1a00"/><path d="m320.167969 298.667969v-21.335938c11.773437-.007812 21.316406-9.554687 21.316406-21.332031s-9.542969-21.324219-21.316406-21.332031v-21.335938c23.5625 0 42.664062 19.105469 42.664062 42.667969s-19.101562 42.667969-42.664062 42.667969zm0 0" fill="#d2514a"/><path d="m341.5 256c0 11.78125-9.550781 21.332031-21.332031 21.332031-11.785157 0-21.335938-9.550781-21.335938-21.332031s9.550781-21.332031 21.335938-21.332031c11.78125 0 21.332031 9.550781 21.332031 21.332031zm0 0" fill="#7d1a00"/><path d="m192.167969 426.667969v-21.335938c11.78125 0 21.332031-9.550781 21.332031-21.332031s-9.550781-21.332031-21.332031-21.332031v-21.335938c23.5625 0 42.664062 19.105469 42.664062 42.667969s-19.101562 42.667969-42.664062 42.667969zm0 0" fill="#d2514a"/><path d="m213.5 384c0 11.78125-9.550781 21.332031-21.332031 21.332031-11.785157 0-21.335938-9.550781-21.335938-21.332031s9.550781-21.332031 21.335938-21.332031c11.78125 0 21.332031 9.550781 21.332031 21.332031zm0 0" fill="#7d1a00"/></svg>