<svg height="469pt" viewBox="0 0 469 469.33354" width="469pt" xmlns="http://www.w3.org/2000/svg"><path d="m128.167969 448c64 0 64 21.332031 106.664062 21.332031 42.667969 0 42.667969-21.332031 106.667969-21.332031 85.332031 0 128-106.667969 128-213.332031 0-106.667969-42.667969-170.667969-128-170.667969-64 0-42.667969-21.332031-106.667969-21.332031s-42.664062 21.332031-106.664062 21.332031c-85.335938 0-128 64-128 170.667969 0 106.664062 42.664062 213.332031 128 213.332031zm0 0" fill="#c11107"/><path d="m362.832031 298.667969c0-149.335938-42.664062-256-128-256-64 0-42.664062 21.332031-106.664062 21.332031-85.335938 0-128 64-128 170.667969 0 106.664062 42.664062 213.332031 128 213.332031 64 0 64 21.332031 106.664062 21.332031 0 0 128-21.332031 128-170.664062zm0 0" fill="#c82e25"/><path d="m119.632812 115.203125c-14.140624-14.136719-40.882812-10.316406-59.730468 8.53125-18.851563 18.851563-22.671875 45.59375-8.535156 59.730469 14.140624 14.136718 40.882812 10.316406 59.730468-8.53125 18.851563-18.851563 22.671875-45.59375 8.535156-59.730469zm0 0" fill="#d2514a"/><path d="m82.6875 109.480469c-5.847656-5.84375-18.875-2.289063-29.101562 7.9375-10.230469 10.226562-13.78125 23.257812-7.9375 29.101562s18.871093 2.292969 29.101562-7.9375c10.226562-10.226562 13.78125-23.257812 7.9375-29.101562zm0 0" fill="#de807a"/><path d="m230.644531 468.917969c-1.226562-.25-123.8125-26.667969-123.8125-191.585938 0-139.582031 93.15625-187.769531 97.125-189.75l19.085938 38.167969c-2.875 1.480469-73.542969 39.394531-73.542969 151.582031 0 128.855469 86.019531 148.980469 89.675781 149.773438zm0 0" fill="#c11107"/><path d="m341.5 448v-42.667969c55.425781 0 85.332031-87.9375 85.332031-170.664062 0-128-64.226562-128-85.332031-128v-42.667969c47.800781 0 128 22.167969 128 170.667969 0 102.75-40.050781 213.332031-128 213.332031zm0 0" fill="#af0a00"/><path d="m341.5 106.667969 53.242188-14.125s-10.574219-49.875-74.574219-49.875-85.335938 21.332031-85.335938 21.332031-21.332031-21.332031-64-21.332031c-42.664062 0-64 0-85.332031-21.335938 0 0 0 64 85.332031 64 0 0-64 42.667969-64 85.335938 0 0 42.667969-42.667969 85.335938-42.667969-21.335938 21.332031-21.335938 48.339844-21.335938 85.332031 0 0 41.5625-62.367187 106.667969-64 40.6875 22.449219 64 58.242188 64 85.335938 0 0 42.667969-21.335938 42.667969-64 0-42.667969-42.667969-64-42.667969-64zm0 0" fill="#ef7f00"/><g fill="#e76400"><path d="m135.519531 147.980469-11.5625-17.917969c24.042969-15.519531 46.992188-23.394531 68.210938-23.394531h25.75v21.332031h-25.75c-16.804688 0-36.386719 6.917969-56.648438 19.980469zm0 0"/><path d="m343.675781 235.042969-4.394531-15.9375c-7.15625-25.960938-30.832031-52.6875-61.78125-69.773438h-.042969c-38.851562.960938-69.25 23.335938-87.90625 41.9375l-15.0625-15.125c21.40625-21.332031 56.5625-47 102.480469-48.144531l5.792969-.125 5.039062 2.792969c29.960938 16.519531 53.511719 40.4375 65.78125 66.125 5.21875-6.980469 9.25-15.75 9.25-26.125h21.335938c0 25.351562-15.105469 43.25-27.78125 53.8125zm0 0"/><path d="m309.011719 93.21875 68.839843-18.289062 5.480469 20.625-68.839843 18.289062zm0 0"/><path d="m298.832031 117.332031c0 17.675781-14.324219 32-32 32-17.671875 0-32-14.324219-32-32 0-17.671875 14.328125-32 32-32 17.675781 0 32 14.328125 32 32zm0 0"/></g><path d="m234.832031 100.707031c0 15.074219 12.21875 27.292969 27.292969 27.292969 9.136719-.007812 17.667969-4.585938 22.71875-12.199219 8.152344-12.164062 44.429688-52.339843 66.160156-66.371093 7.464844-4.957032 11.914063-13.355469 11.828125-22.316407 0-14.972656-12.136719-27.113281-27.113281-27.113281-11.332031-.0351562-22.390625 3.472656-31.632812 10.023438-11.128907 7.914062-47.402344 41.847656-59.5625 59.136718-6.390626 9.273438-9.773438 20.289063-9.691407 31.546875zm0 0" fill="#f59707"/><path d="m262.125 128c-15.066406-.019531-27.273438-12.226562-27.292969-27.292969h21.335938c0 5.273438 7.882812 7.8125 10.96875 3.210938 8.789062-13.105469 47.144531-56.167969 72.289062-72.398438l11.5625 17.917969c-21.613281 13.957031-58.007812 54.25-66.144531 66.355469-5.058594 7.609375-13.582031 12.1875-22.71875 12.207031zm0 0" fill="#ef7f00"/><path d="m256.167969 256c0-35.347656-19.105469-64-42.667969-64s-42.667969 28.652344-42.667969 64 19.105469 64 42.667969 64 42.667969-28.652344 42.667969-64zm0 0" fill="#d2514a"/></svg>