<svg height="469pt" viewBox="0 -42 469.33334 469" width="469pt" xmlns="http://www.w3.org/2000/svg"><path d="m448 106.832031-213.332031-106.664062-234.667969 256s64 128 234.667969 128c170.664062 0 234.664062-128 234.664062-128 0-64-21.332031-149.335938-21.332031-149.335938zm0 0" fill="#fee3aa"/><path d="m234.667969 384.167969c170.664062 0 234.664062-128 234.664062-128l-234.664062-256-234.667969 256s64 128 234.667969 128zm0 0" fill="#fdcf6d"/><path d="m26.960938 226.757812c44.445312 63.082032 106.515624 114.742188 207.707031 114.742188 101.1875 0 165.613281-77.15625 192.332031-131.515625-15.863281-67.046875-32.871094-130.085937-32.871094-130.085937l-159.460937-79.730469zm0 0" fill="#d2514a"/><path d="m405.332031 128.167969c0 11.78125-9.550781 21.332031-21.332031 21.332031s-21.332031-9.550781-21.332031-21.332031c0-11.785157 9.550781-21.335938 21.332031-21.335938s21.332031 9.550781 21.332031 21.335938zm0 0" fill="#cd3e36"/><path d="m427 209.984375c-19.203125 40.917969-81.324219 110.183594-192.332031 110.183594-111.007813 0-173.132813-69.265625-192.332031-110.183594l-15.355469 16.75c25.054687 45.960937 92.578125 114.765625 207.6875 114.765625 115.117187 0 182.640625-68.820312 207.691406-114.761719zm0 0" fill="#de807a"/><path d="m234.667969 320.167969c106.664062 0 170.664062-64 192.335937-110.179688l-192.335937-209.820312-192.339844 209.820312c21.671875 46.179688 85.671875 110.179688 192.339844 110.179688zm0 0" fill="#c11107"/><path d="m81.824219 214.25 152.84375-166.730469" fill="#c11107"/><path d="m73.964844 207.046875 152.828125-166.742187 15.730469 14.417968-152.828126 166.742188zm0 0" fill="#cd3e36"/><path d="m113.765625 163.628906 83.355469-90.945312 15.730468 14.417968-83.359374 90.945313zm0 0" fill="#d96c66"/><path d="m277.332031 266.832031c0 17.675781-14.324219 32-32 32-17.671875 0-32-14.324219-32-32 0-17.671875 14.328125-32 32-32 17.675781 0 32 14.328125 32 32zm0 0" fill="#af0a00"/><path d="m277.332031 149.5c0-11.78125-4.773437-21.332031-10.664062-21.332031s-10.667969 9.550781-10.667969 21.332031 4.777344 21.332031 10.667969 21.332031 10.664062-9.550781 10.664062-21.332031zm0 0" fill="#7d1a00"/><path d="m314.101562 48.730469c-5.265624-5.269531-11.671874-7.402344-14.308593-4.769531-2.632813 2.632812-.496094 9.039062 4.769531 14.308593 5.269531 5.269531 11.675781 7.402344 14.308594 4.769531 2.632812-2.632812.5-9.039062-4.769532-14.308593zm0 0" fill="#8b2800"/><path d="m378.101562 112.730469c-5.265624-5.269531-11.671874-7.402344-14.308593-4.769531-2.632813 2.632812-.496094 9.039062 4.769531 14.308593 5.269531 5.269531 11.675781 7.402344 14.308594 4.769531 2.632812-2.632812.5-9.039062-4.769532-14.308593zm0 0" fill="#8b2800"/><g fill="#7d1a00"><path d="m192 149.5c0-11.78125-4.777344-21.332031-10.667969-21.332031s-10.664062 9.550781-10.664062 21.332031 4.773437 21.332031 10.664062 21.332031 10.667969-9.550781 10.667969-21.332031zm0 0"/><path d="m362.667969 213.5c0-11.78125-4.777344-21.332031-10.667969-21.332031s-10.667969 9.550781-10.667969 21.332031 4.777344 21.332031 10.667969 21.332031 10.667969-9.550781 10.667969-21.332031zm0 0"/><path d="m234.667969 256.167969c0-11.785157-4.777344-21.335938-10.667969-21.335938s-10.667969 9.550781-10.667969 21.335938c0 11.78125 4.777344 21.332031 10.667969 21.332031s10.667969-9.550781 10.667969-21.332031zm0 0"/><path d="m149.332031 234.832031c0-11.78125-4.773437-21.332031-10.664062-21.332031s-10.667969 9.550781-10.667969 21.332031c0 11.785157 4.777344 21.335938 10.667969 21.335938s10.664062-9.550781 10.664062-21.335938zm0 0"/><path d="m234.667969 64.167969c0-11.785157-4.777344-21.335938-10.667969-21.335938s-10.667969 9.550781-10.667969 21.335938c0 11.78125 4.777344 21.332031 10.667969 21.332031s10.667969-9.550781 10.667969-21.332031zm0 0"/></g><path d="m442.359375 226.738281s-4.324219-50.890625-28.929687-137.191406l-19.300782-9.648437s15.074219 57.796874 32.875 130.089843zm0 0" fill="#ecb8b5"/><path d="m277.332031 74.832031c0 5.890625-4.773437 10.667969-10.664062 10.667969s-10.667969-4.777344-10.667969-10.667969 4.777344-10.664062 10.667969-10.664062 10.664062 4.773437 10.664062 10.664062zm0 0" fill="#af0a00"/><path d="m320 234.832031c0 11.785157-9.550781 21.335938-21.332031 21.335938-11.785157 0-21.335938-9.550781-21.335938-21.335938 0-11.78125 9.550781-21.332031 21.335938-21.332031 11.78125 0 21.332031 9.550781 21.332031 21.332031zm0 0" fill="#af0a00"/><path d="m384 170.832031c0 11.785157-9.550781 21.335938-21.332031 21.335938-11.785157 0-21.335938-9.550781-21.335938-21.335938 0-11.78125 9.550781-21.332031 21.335938-21.332031 11.78125 0 21.332031 9.550781 21.332031 21.332031zm0 0" fill="#af0a00"/><path d="m320 117.5c0 5.890625-4.777344 10.667969-10.667969 10.667969s-10.664062-4.777344-10.664062-10.667969 4.773437-10.667969 10.664062-10.667969 10.667969 4.777344 10.667969 10.667969zm0 0" fill="#af0a00"/><path d="m362.667969 74.832031c0 5.890625-4.777344 10.667969-10.667969 10.667969s-10.667969-4.777344-10.667969-10.667969 4.777344-10.664062 10.667969-10.664062 10.667969 4.773437 10.667969 10.664062zm0 0" fill="#cd3e36"/></svg>