<svg height="496pt" viewBox="0 0 496.08373 496" width="496pt" xmlns="http://www.w3.org/2000/svg"><path d="m423.402344 248.03125c22.03125-31 39.894531-61.933594 52.503906-91.351562 26.621094-62.117188 26.816406-110.800782.535156-137.0625-26.273437-26.273438-74.960937-26.105469-137.0625.535156-29.425781 12.617187-60.363281 30.480468-91.371094 52.511718-31.007812-22.039062-61.941406-39.902343-91.367187-52.511718-62.113281-26.617188-110.785156-26.816406-137.0625-.535156-26.273437 26.261718-26.089844 74.945312.535156 137.0625 12.625 29.457031 30.511719 60.433593 52.582031 91.480468-8 11.273438-15.453124 22.542969-22.328124 33.761719-3.261719-1.128906-6.710938-1.875-10.359376-1.875-17.648437 0-32 14.355469-32 32 0 10.496094 5.144532 19.753906 12.976563 25.585937-27.429687 63.039063-28.039063 112.214844-1.40625 138.839844 13.046875 13.054688 31.605469 19.574219 54.605469 19.574219 23.3125 0 51.183594-6.703125 82.457031-20.109375 29.425781-12.609375 60.359375-30.472656 91.367187-52.511719 31.007813 22.039063 61.945313 39.902344 91.371094 52.511719 31.269532 13.40625 59.125 20.109375 82.453125 20.109375 22.992188 0 41.5625-6.519531 54.609375-19.566406 39.824219-39.824219 17.582032-129.511719-53.039062-228.449219zm-77.730469-213.167969c54.890625-23.519531 98.433594-24.957031 119.457031-3.933593 21.023438 21.023437 19.59375 64.558593-3.929687 119.453124-11.589844 27.035157-27.839844 55.449219-47.789063 84.035157-8.265625-10.984375-17.105468-22.050781-26.511718-33.152344 3.199218-4.976563 5.109374-10.863281 5.109374-17.21875 0-17.644531-14.351562-32-32-32-5.34375 0-10.3125 1.441406-14.742187 3.769531-.832031-.847656-1.648437-1.6875-2.488281-2.535156-26.25-26.257812-53.625-50.039062-81.105469-70.65625 28.578125-19.9375 56.976563-36.175781 84-47.761719zm14.335937 165.183594c-8.824218 0-16-7.175781-16-16 0-8.820313 7.175782-16 16-16 8.824219 0 16 7.179687 16 16 0 8.824219-7.175781 16-16 16zm0 16c5.488282 0 10.578126-1.511719 15.089844-3.949219 10.152344 12.023438 19.671875 24.054688 28.480469 36.015625-20.816406 28.191407-45.105469 56.375-72.121094 83.390625-27.03125 27.03125-55.238281 51.335938-83.457031 72.160156-28.214844-20.832031-56.414062-45.128906-83.453125-72.160156-27.019531-27.015625-51.304687-55.199218-72.121094-83.398437 20.976563-28.457031 45.328125-56.722657 72.121094-83.511719 27.03125-27.03125 55.238281-51.335938 83.453125-72.160156 28.21875 20.832031 56.417969 45.128906 83.457031 72.160156.625.621094 1.230469 1.253906 1.847657 1.886719-3.328126 5.046875-5.296876 11.082031-5.296876 17.566406 0 17.648437 14.351563 32 32 32zm-325.183593-65.664063c-23.527344-54.886718-24.960938-98.429687-3.933594-119.453124 21.03125-21.023438 64.550781-19.59375 119.453125 3.925781 27.023438 11.585937 55.425781 27.824219 84 47.769531-27.480469 20.617188-54.855469 44.398438-81.101562 70.65625-26.050782 26.046875-49.847657 53.488281-70.601563 81.191406-19.960937-28.609375-36.222656-57.039062-47.816406-84.089844zm5.183593 145.664063c8.824219 0 16 7.179687 16 16 0 8.824219-7.175781 16-16 16-8.824218 0-16-7.175781-16-16 0-8.820313 7.175782-16 16-16zm110.335938 165.1875c-54.886719 23.519531-98.4375 24.941406-119.453125 3.925781-21.410156-21.40625-19.511719-65.519531 4.925781-121.542968 1.382813.191406 2.761719.429687 4.191406.429687 17.648438 0 32-14.351563 32-32 0-8.207031-3.191406-15.621094-8.285156-21.292969 5.886719-9.632812 12.152344-19.304687 18.910156-28.992187 20.609376 27.464843 44.375 54.824219 70.617188 81.054687 26.246094 26.257813 53.625 50.039063 81.101562 70.65625-28.582031 19.9375-56.984374 36.175782-84.007812 47.761719zm314.785156 3.933594c-21.023437 21.03125-64.542968 19.59375-119.457031-3.925781-27.023437-11.585938-55.421875-27.824219-84-47.769532 27.480469-20.617187 54.855469-44.398437 81.105469-70.65625 26.222656-26.222656 49.984375-53.558594 70.582031-81.015625 61.808594 88.777344 84.304687 170.824219 51.769531 203.367188zm0 0"/><path d="m280.007812 224.296875c-2.335937-3.144531-5.101562-5.914063-8.246093-8.25 9.800781-7.292969 16.246093-18.871094 16.246093-32 0-22.054687-17.941406-40-40-40-14.640624 0-27.628906 7.96875-34.597656 20.394531-13.441406-3.703125-28.410156-.464844-38.9375 10.070313-10.535156 10.535156-13.777344 25.503906-10.070312 38.9375-12.425782 6.96875-20.394532 19.960937-20.394532 34.597656 0 14.640625 7.96875 27.640625 20.394532 34.601563-3.707032 13.433593-.464844 28.398437 10.070312 38.9375 7.65625 7.65625 17.769532 11.65625 28.0625 11.65625 3.625 0 7.265625-.5625 10.84375-1.570313 6.878906 12.105469 19.742188 20.375 34.628906 20.375 14.890626 0 27.753907-8.269531 34.632813-20.367187 3.578125 1.007812 7.214844 1.570312 10.839844 1.570312 10.289062 0 20.410156-4 28.066406-11.65625 10.351563-10.34375 13.902344-25.167969 10.046875-38.882812 12.128906-6.886719 20.414062-19.757813 20.414062-34.664063 0-22.054687-17.941406-40-40-40-13.125 0-24.703124 6.449219-32 16.25zm-8 23.75c0 13.234375-10.765624 24-24 24-13.230468 0-24-10.765625-24-24 0-13.230469 10.769532-24 24-24 13.234376 0 24 10.769531 24 24zm-24-88c13.234376 0 24 10.769531 24 24 0 13.234375-10.765624 24-24 24-1.910156 0-3.816406-.261719-5.710937-.765625 1.3125-11.6875-2.328125-23.832031-11.265625-32.769531-1.054688-1.054688-2.253906-1.863281-3.398438-2.773438 4.257813-7.136719 11.847657-11.691406 20.375-11.691406zm-62.222656 25.777344c4.679688-4.679688 10.832032-7.015625 16.96875-7.015625 6.152344 0 12.296875 2.335937 16.976563 7.015625 9.351562 9.359375 9.351562 24.585937 0 33.945312-9.351563 9.34375-24.578125 9.34375-33.945313 0-9.359375-9.359375-9.359375-24.585937 0-33.945312zm-25.777344 62.222656c0-8.527344 4.554688-16.117187 11.6875-20.367187.914063 1.144531 1.722657 2.34375 2.777344 3.402343 7.800782 7.796875 18.039063 11.695313 28.28125 11.695313 1.960938 0 3.902344-.273438 5.847656-.5625-.289062 1.921875-.59375 3.832031-.59375 5.832031s.304688 3.914063.59375 5.832031c-12.097656-1.773437-24.839843 1.851563-34.128906 11.136719-1.054687 1.058594-1.863281 2.257813-2.777344 3.402344-7.132812-4.25-11.6875-11.839844-11.6875-20.371094zm25.777344 62.226563c-9.351562-9.359376-9.351562-24.585938 0-33.945313 9.351563-9.335937 24.582032-9.359375 33.9375-.007813 1.351563 1.351563 2.511719 2.894532 3.496094 4.585938-9.195312 7.335938-15.210938 18.496094-15.210938 31.140625 0 1.496094.28125 2.914063.441407 4.371094-8.039063 2.039062-16.632813-.113281-22.664063-6.144531zm62.222656 25.773437c-13.230468 0-24-10.765625-24-24 0-13.230469 10.769532-24 24-24 13.234376 0 24 10.769531 24 24 0 13.234375-10.765624 24-24 24zm62.226563-25.773437c-6.035156 6.023437-14.625 8.175781-22.664063 6.136718.160157-1.449218.4375-2.867187.4375-4.363281 0-12.644531-6.015624-23.804687-15.207031-31.140625.984375-1.691406 2.136719-3.226562 3.480469-4.570312 1.351562-1.351563 2.894531-2.511719 4.582031-3.496094 7.335938 9.191406 18.496094 15.207031 31.144531 15.207031 1.496094 0 2.914063-.277344 4.371094-.4375 2.039063 8.046875-.105468 16.632813-6.144531 22.664063zm25.773437-62.226563c0 13.234375-10.765624 24-24 24-13.230468 0-24-10.765625-24-24 0-13.230469 10.769532-24 24-24 13.234376 0 24 10.769531 24 24zm0 0"/><path d="m144.007812 72.046875h16v16h-16zm0 0"/><path d="m64.007812 128.046875h16v16h-16zm0 0"/><path d="m408.007812 336.046875h16v16h-16zm0 0"/><path d="m344.007812 416.046875h16v16h-16zm0 0"/><path d="m152.007812 408.046875h16v16h-16zm0 0"/><path d="m48.007812 376.046875h16v16h-16zm0 0"/><path d="m392.007812 128.046875h16v16h-16zm0 0"/><path d="m416.007812 48.046875h16v16h-16zm0 0"/><path d="m328.007812 80.046875h16v16h-16zm0 0"/></svg>