<svg height="496pt" viewBox="0 0 496 496" width="496pt" xmlns="http://www.w3.org/2000/svg"><path d="m328 144h30.625c21.167969 0 39.253906-15.855469 41.191406-36.097656 1.070313-11.261719-2.65625-22.488282-10.214844-30.804688-7.5625-8.320312-18.363281-13.097656-29.601562-13.097656-.953125 0-1.847656.214844-2.785156.28125-6.613282-18.992188-24.65625-32.28125-45.214844-32.28125-4.335938 0-8.542969.632812-12.640625 1.753906-8.625-19.84375-28.390625-33.753906-51.359375-33.753906-22.617188 0-42.617188 13.519531-51.359375 33.742188-4.03125-1.101563-8.257813-1.742188-12.640625-1.742188-20.726562 0-38.632812 13.105469-45.257812 32.089844-3.8125-.25-7.726563.023437-11.652344.878906-14.632813 3.191406-26.699219 15.136719-30.035156 29.710938-2.773438 12.175781.015624 24.664062 7.65625 34.25 7.640624 9.574218 19.050781 15.070312 31.289062 15.070312h32c22.054688 0 40 17.945312 40 40v97.574219l-3.96875 5.953125c-2.640625 3.960937-4.03125 8.5625-4.03125 13.3125v75.160156c0 10.929688 7.382812 20.0625 17.390625 22.960938l-17.390625 13.039062v79.816406l48-19.199218 48 19.199218v-79.816406l-17.390625-13.039062c10.007813-2.898438 17.390625-12.03125 17.390625-22.960938v-75.160156c0-4.761719-1.390625-9.359375-4.03125-13.3125l-3.96875-5.953125v-97.574219c0-22.054688 17.945312-40 40-40zm-85.785156 115.097656c1.296875-1.9375 3.457031-3.097656 5.785156-3.097656s4.488281 1.160156 5.785156 3.097656l24.597656 36.902344h-60.765624zm-26.214844 160.902344 24-18v56.585938l-24 9.597656zm64 48.183594-24-9.597656v-56.585938l24 18zm-8-84.183594h-48c-4.40625 0-8-3.59375-8-8v-64h64v64c0 4.40625-3.59375 8-8 8zm-4.902344-133.785156c-2.714844-4.070313-6.65625-6.941406-11.097656-8.605469v-41.609375h-16v41.617188c-4.441406 1.664062-8.382812 4.535156-11.097656 8.605468l-4.902344 7.351563v-73.574219c0-30.878906-25.121094-56-56-56h-32c-7.34375 0-14.183594-3.296875-18.777344-9.046875-4.65625-5.839844-6.277344-13.191406-4.558594-20.707031 1.976563-8.652344 9.144532-15.742188 17.839844-17.636719 9.664063-2.105469 19.207032 1.445313 24.910156 9.277344l12.929688-9.421875c-3.816406-5.242188-8.679688-9.273438-14.136719-12.066406 4.679688-12.109376 16.335938-20.398438 29.792969-20.398438 17.648438 0 32 14.351562 32 32h16c0-16.382812-8.257812-30.855469-20.816406-39.519531 6.152344-14.648438 20.527344-24.480469 36.816406-24.480469 22.054688 0 40 17.945312 40 40h16c0-2.289062-.175781-4.535156-.449219-6.753906 2.738281-.75 5.546875-1.246094 8.449219-1.246094 13.367188 0 25.191406 8.390625 29.863281 20.550781-12.917969 6.640625-21.863281 19.953125-21.863281 35.449219h16c0-13.230469 10.769531-24 24-24 6.742188 0 13.214844 2.863281 17.761719 7.855469 4.605469 5.066406 6.78125 11.648437 6.125 18.519531-1.160157 12.128906-12.253907 21.625-25.261719 21.625h-30.625c-30.878906 0-56 25.121094-56 56v73.574219zm0 0"/><path d="m439.625 368.496094c-3.832031-45.015625-41.632812-80.496094-87.625-80.496094-12.175781 0-24.015625 2.480469-35.207031 7.375l6.414062 14.65625c9.144531-4 18.832031-6.03125 28.792969-6.03125 37.207031 0 67.910156 28.367188 71.625 64.617188-31.335938 4.117187-55.625 30.941406-55.625 63.382812h16c0-26.472656 21.527344-48 48-48s48 21.527344 48 48-21.527344 48-48 48v16c35.289062 0 64-28.710938 64-64 0-32.703125-24.671875-59.71875-56.375-63.503906zm0 0"/><path d="m56.375 368.496094c-31.703125 3.785156-56.375 30.800781-56.375 63.503906 0 35.289062 28.710938 64 64 64v-16c-26.472656 0-48-21.527344-48-48s21.527344-48 48-48 48 21.527344 48 48h16c0-32.441406-24.289062-59.265625-55.625-63.382812 3.714844-36.25 34.417969-64.617188 71.625-64.617188 9.960938 0 19.648438 2.03125 28.792969 6.03125l6.414062-14.65625c-11.191406-4.894531-23.03125-7.375-35.207031-7.375-45.992188 0-83.792969 35.480469-87.625 80.496094zm0 0"/><path d="m152 240h16v16h-16zm0 0"/><path d="m96 160h16v16h-16zm0 0"/><path d="m56 256h16v16h-16zm0 0"/><path d="m480 64h16v16h-16zm0 0"/><path d="m344 0h16v16h-16zm0 0"/><path d="m0 32h16v16h-16zm0 0"/><path d="m352 248h16v16h-16zm0 0"/><path d="m384 176h16v16h-16zm0 0"/><path d="m264 64h16v16h-16zm0 0"/><path d="m184 88h16v16h-16zm0 0"/><path d="m72 408h-16v16h-16v16h16v16h16v-16h16v-16h-16zm0 0"/><path d="m440 456v-16h16v-16h-16v-16h-16v16h-16v16h16v16zm0 0"/><path d="m424 264h16v-16h16v-16h-16v-16h-16v16h-16v16h16zm0 0"/><path d="m432 48h16v-16h16v-16h-16v-16h-16v16h-16v16h16zm0 0"/><path d="m16 208h16v-16h16v-16h-16v-16h-16v16h-16v16h16zm0 0"/><path d="m80 48h16v-16h16v-16h-16v-16h-16v16h-16v16h16zm0 0"/><path d="m240 128h16v56h-16zm0 0"/></svg>