<svg height="496pt" viewBox="0 0 496 496" width="496pt" xmlns="http://www.w3.org/2000/svg"><path d="m320 416c-13.230469 0-24 10.769531-24 24s10.769531 24 24 24 24-10.769531 24-24-10.769531-24-24-24zm0 32c-4.40625 0-8-3.585938-8-8s3.59375-8 8-8 8 3.585938 8 8-3.59375 8-8 8zm0 0"/><path d="m128 416c-13.230469 0-24 10.769531-24 24s10.769531 24 24 24 24-10.769531 24-24-10.769531-24-24-24zm0 32c-4.40625 0-8-3.585938-8-8s3.59375-8 8-8 8 3.585938 8 8-3.59375 8-8 8zm0 0"/><path d="m184 360h32v16h-32zm0 0"/><path d="m248 96c-17.648438 0-32 17.945312-32 40s14.351562 40 32 40 32-17.945312 32-40-14.351562-40-32-40zm0 64c-8.671875 0-16-10.992188-16-24s7.328125-24 16-24 16 10.992188 16 24-7.328125 24-16 24zm0 0"/><path d="m176 112c5.214844 0 10.328125 4.296875 13.335938 11.199219l14.664062-6.398438c-5.601562-12.832031-16.328125-20.800781-28-20.800781-17.648438 0-32 17.945312-32 40s14.351562 40 32 40c11.671875 0 22.40625-7.96875 28-20.800781l-14.664062-6.398438c-3.007813 6.902344-8.121094 11.199219-13.335938 11.199219-8.671875 0-16-10.992188-16-24s7.328125-24 16-24zm0 0"/><path d="m496 208c0-27.238281-19.558594-49.976562-45.375-54.960938 3.558594-10.597656 5.375-21.664062 5.375-33.039062 0-57.34375-46.65625-104-104-104-24.742188 0-48.03125 8.542969-66.695312 24.214844-13.824219-23.992188-39.679688-40.214844-69.304688-40.214844-36.382812 0-67.433594 24.046875-76.953125 58.34375-6.269531-1.550781-12.648437-2.34375-19.046875-2.34375-44.113281 0-80 35.886719-80 80 0 6.046875.761719 12 2.078125 17.800781-24.222656 6.253907-42.078125 28.429688-42.078125 54.199219 0 30.878906 25.121094 56 56 56h68.574219l-17.015625 38.296875c-.910156 2.054687-2.65625 3.640625-4.78125 4.351563l-54.363282 18.121093c-9.820312 3.269531-16.414062 12.414063-16.414062 22.757813v76.472656c0 13.230469 10.769531 24 24 24h16.640625c3.902344 27.089844 27.207031 48 55.359375 48s51.457031-20.910156 55.359375-48h81.28125c3.902344 27.089844 27.207031 48 55.359375 48s51.457031-20.910156 55.359375-48h16.640625c10.414062 0 19.214844-6.710938 22.527344-16h49.472656v-48h-48v-65.375c0-6.410156-2.496094-12.441406-7.03125-16.96875l-37.65625-37.65625h68.6875c30.878906 0 56-25.121094 56-56zm-448 216v-8h29.480469c-2.375 4.976562-4.023438 10.351562-4.839844 16h-16.640625c-4.40625 0-8-3.585938-8-8zm80 56c-22.054688 0-40-17.945312-40-40s17.945312-40 40-40 40 17.945312 40 40-17.945312 40-40 40zm141.480469-64c-2.375 4.976562-4.023438 10.351562-4.839844 16h-81.28125c-.816406-5.648438-2.464844-11.023438-4.839844-16zm50.519531 64c-22.054688 0-40-17.945312-40-40s17.945312-40 40-40 40 17.945312 40 40-17.945312 40-40 40zm72-48h-16.640625c-.816406-5.648438-2.464844-11.023438-4.839844-16h29.480469v8c0 4.414062-3.59375 8-8 8zm56-32v16h-32v-16zm-48-81.375v81.375h-40.886719c-10.105469-9.878906-23.90625-16-39.113281-16s-29.015625 6.121094-39.113281 16h-32.886719v-56h128v-27.3125l-52.6875-52.6875h-160.257812l-27.054688 54.113281v25.886719h96v56h-64.886719c-10.105469-9.878906-23.90625-16-39.113281-16s-29.015625 6.121094-39.113281 16h-40.886719v-52.472656c0-3.449219 2.199219-6.496094 5.472656-7.589844l54.359375-18.121094c6.367188-2.128906 11.601563-6.863281 14.34375-13.015625l24.914063-56.058593c1.277344-2.878907 4.148437-4.742188 7.308594-4.742188h174.976562c2.136719 0 4.152344.832031 5.664062 2.34375l62.625 62.625c1.480469 1.496094 2.335938 3.550781 2.335938 5.65625zm-152-38.625h68.6875l43.3125 43.3125v4.6875h-112zm-16 48h-80v-6.113281l20.945312-41.886719h59.054688zm114.34375-88.96875c-4.527344-4.535156-10.558594-7.03125-16.976562-7.03125h-174.96875c-9.476563 0-18.085938 5.59375-21.933594 14.246094l-.777344 1.753906h-75.6875c-22.054688 0-40-17.945312-40-40 0-18.816406 13.359375-34.839844 31.246094-38.886719 3.386718 7.429688 7.84375 14.382813 13.425781 20.550781l11.863281-10.734374c-10.664062-11.777344-16.535156-27.027344-16.535156-42.929688 0-35.289062 28.710938-64 64-64 7.503906 0 14.976562 1.359375 22.207031 4.046875l9.144531 3.394531 1.542969-9.632812c4.992188-31.175782 31.539063-53.808594 63.105469-53.808594 35.289062 0 64 28.710938 64 64h16c0-8.503906-1.359375-16.6875-3.832031-24.382812 16.320312-15.210938 37.34375-23.617188 59.832031-23.617188 48.519531 0 88 39.480469 88 88 0 11.230469-2.191406 22.078125-6.273438 32.375-27.933593 3.128906-49.726562 26.871094-49.726562 55.625h16c0-22.054688 17.945312-40 40-40s40 17.945312 40 40-17.945312 40-40 40h-84.6875zm0 0"/><path d="m344 160c0-13.230469-10.769531-24-24-24s-24 10.769531-24 24v8h16v-8c0-4.40625 3.59375-8 8-8s8 3.59375 8 8c0 2.503906-1.191406 4.894531-3.199219 6.398438l-28.800781 21.601562v20h48v-16h-26.664062l17.070312-12.800781c6.007812-4.511719 9.59375-11.6875 9.59375-19.199219zm0 0"/></svg>