<svg height="496pt" viewBox="0 -1 496 495" width="496pt" xmlns="http://www.w3.org/2000/svg"><path d="m480 382.15625v-184c0-13.230469-10.769531-24-24-24h-64v-32h16v-48h-128v48h16v32h-96v-32h16v-48h-128v48h16v32h-64c-13.230469 0-24 10.769531-24 24v184h-16v112h80v-112h-16v-160h40v160c0 26.472656 21.527344 48 48 48 3.777344 0 7.472656-.457031 11.070312-1.3125 10.050782 37.542969 44.265626 65.3125 84.929688 65.3125s74.878906-27.769531 84.929688-65.3125c3.597656.855469 7.285156 1.3125 11.070312 1.3125 26.472656 0 48-21.527344 48-48v-160h40v160h-16v112h80v-112zm-184-272h96v16h-96zm-25.472656 288c-.992188-2.777344-2.472656-5.289062-4.34375-7.488281l24.472656-42.382813c15.734375 11.621094 26.609375 29.445313 28.871094 49.871094zm-94.054688 0c2.269532-20.425781 13.144532-38.25 28.871094-49.871094l24.472656 42.382813c-1.878906 2.199219-3.359375 4.710937-4.34375 7.488281zm119.527344-65.664062c-13.816406-9.03125-30.289062-14.335938-48-14.335938s-34.183594 5.304688-48 14.335938v-110.335938h96zm-43.640625 50.105468c-1.414063-.265625-2.863281-.441406-4.359375-.441406s-2.945312.175781-4.359375.441406l-24.464844-42.378906c8.832031-3.878906 18.578125-6.0625 28.824219-6.0625s19.992188 2.183594 28.824219 6.0625zm-12.359375 23.558594c0-4.417969 3.59375-8 8-8s8 3.582031 8 8c0 4.414062-3.59375 8-8 8s-8-3.585938-8-8zm56-216v16h-96v-16zm-192-80h96v16h-96zm-40 368h-48v-80h48zm-16-272v176h-16v-184c0-4.417969 3.59375-8 8-8h64v16zm104 208c-17.648438 0-32-14.351562-32-32v-240h64v16h-40v16h40v16h-24v16h24v16h-40v16h40v16h-24v16h24v16h-40v16h40v16h-24v16h24v11.792969c-14.832031 15.757812-24 36.910156-24 60.207031 0 2.289062.167969 4.535156.34375 6.777344-2.703125.726562-5.472656 1.222656-8.34375 1.222656zm24.472656 0h49c.992188 2.777344 2.472656 5.289062 4.34375 7.488281l-24.472656 42.382813c-15.726562-11.625-26.601562-29.449219-28.871094-49.871094zm42.703125 57.9375 24.464844-42.378906c1.414063.265625 2.863281.441406 4.359375.441406s2.945312-.175781 4.359375-.441406l24.464844 42.378906c-8.832031 3.878906-18.578125 6.0625-28.824219 6.0625s-19.992188-2.183594-28.824219-6.0625zm71.480469-8.066406-24.472656-42.382813c1.878906-2.199219 3.359375-4.710937 4.34375-7.488281h49c-2.269532 20.421875-13.144532 38.246094-28.871094 49.871094zm53.34375-49.871094c-2.871094 0-5.640625-.488281-8.34375-1.222656.175781-2.242188.34375-4.488282.34375-6.777344 0-23.296875-9.167969-44.457031-24-60.207031v-203.792969h64v16h-40v16h40v16h-24v16h24v16h-40v16h40v16h-24v16h24v16h-40v16h40v16h-24v16h24v48c0 17.648438-14.351562 32-32 32zm48-208v-16h64c4.40625 0 8 3.582031 8 8v184h-16v-176zm88 272h-48v-80h48zm0 0"/><path d="m106.34375 75.8125 11.3125-11.3125-2.335938-2.34375c-2.144531-2.144531-3.320312-4.976562-3.320312-8s1.175781-5.855469 3.3125-8l4.6875-4.6875c5.160156-5.160156 8-12.023438 8-19.3125s-2.839844-14.152344-8-19.3125l-2.34375-2.34375-11.3125 11.3125 2.335938 2.34375c2.144531 2.144531 3.320312 4.976562 3.320312 8s-1.175781 5.855469-3.3125 8l-4.6875 4.6875c-5.160156 5.160156-8 12.023438-8 19.3125s2.839844 14.152344 8 19.3125zm0 0"/><path d="m146.34375 75.8125 11.3125-11.3125-2.335938-2.34375c-2.144531-2.144531-3.320312-4.976562-3.320312-8s1.175781-5.855469 3.3125-8l4.6875-4.6875c5.160156-5.160156 8-12.023438 8-19.3125s-2.839844-14.152344-8-19.3125l-2.34375-2.34375-11.3125 11.3125 2.335938 2.34375c2.144531 2.144531 3.320312 4.976562 3.320312 8s-1.175781 5.855469-3.3125 8l-4.6875 4.6875c-5.160156 5.160156-8 12.023438-8 19.3125s2.839844 14.152344 8 19.3125zm0 0"/><path d="m186.34375 75.8125 11.3125-11.3125-2.335938-2.34375c-2.144531-2.144531-3.320312-4.976562-3.320312-8s1.175781-5.855469 3.3125-8l4.6875-4.6875c5.160156-5.160156 8-12.023438 8-19.3125s-2.839844-14.152344-8-19.3125l-2.34375-2.34375-11.3125 11.3125 2.335938 2.34375c2.144531 2.144531 3.320312 4.976562 3.320312 8s-1.175781 5.855469-3.3125 8l-4.6875 4.6875c-5.160156 5.160156-8 12.023438-8 19.3125s2.839844 14.152344 8 19.3125zm0 0"/><path d="m298.34375 75.8125 11.3125-11.3125-2.335938-2.34375c-2.144531-2.144531-3.320312-4.976562-3.320312-8s1.175781-5.855469 3.3125-8l4.6875-4.6875c5.160156-5.160156 8-12.023438 8-19.3125s-2.839844-14.152344-8-19.3125l-2.34375-2.34375-11.3125 11.3125 2.335938 2.34375c2.144531 2.144531 3.320312 4.976562 3.320312 8s-1.175781 5.855469-3.3125 8l-4.6875 4.6875c-5.160156 5.160156-8 12.023438-8 19.3125s2.839844 14.152344 8 19.3125zm0 0"/><path d="m338.34375 75.8125 11.3125-11.3125-2.335938-2.34375c-2.144531-2.144531-3.320312-4.976562-3.320312-8s1.175781-5.855469 3.3125-8l4.6875-4.6875c5.160156-5.160156 8-12.023438 8-19.3125s-2.839844-14.152344-8-19.3125l-2.34375-2.34375-11.3125 11.3125 2.335938 2.34375c2.144531 2.144531 3.320312 4.976562 3.320312 8s-1.175781 5.855469-3.3125 8l-4.6875 4.6875c-5.160156 5.160156-8 12.023438-8 19.3125s2.839844 14.152344 8 19.3125zm0 0"/><path d="m378.34375 75.8125 11.3125-11.3125-2.335938-2.34375c-2.144531-2.144531-3.320312-4.976562-3.320312-8s1.175781-5.855469 3.3125-8l4.6875-4.6875c5.160156-5.160156 8-12.023438 8-19.3125s-2.839844-14.152344-8-19.3125l-2.34375-2.34375-11.3125 11.3125 2.335938 2.34375c2.144531 2.144531 3.320312 4.976562 3.320312 8s-1.175781 5.855469-3.3125 8l-4.6875 4.6875c-5.160156 5.160156-8 12.023438-8 19.3125s2.839844 14.152344 8 19.3125zm0 0"/></svg>