<svg height="496pt" viewBox="0 0 496 496" width="496pt" xmlns="http://www.w3.org/2000/svg"><path d="m145.34375 204.441406 13.3125-8.875-5.441406-8.167968c-6.03125-9.039063-9.214844-19.566407-9.214844-30.4375 0-11.800782 3.894531-23.496094 10.976562-32.929688 8.398438-11.199219 13.023438-25.070312 13.023438-39.070312v-4.320313l2.015625 1.617187c5.726563 4.582032 10.425781 10.132813 14.082031 16.460938-.035156.753906-.097656 1.496094-.097656 2.242188 0 14.046874 4.121094 27.648437 11.902344 39.320312l5.441406 8.160156 13.3125-8.875-5.441406-8.167968c-6.03125-9.039063-9.214844-19.566407-9.214844-30.4375 0-11.800782 3.894531-23.496094 10.976562-32.929688 7.289063-9.71875 11.734376-21.464844 12.785157-33.542969 10.359375 12.734375 16.238281 28.847657 16.238281 45.511719v19.097656l10.527344-3.503906c15.800781-5.265625 28.878906-15.800781 37.351562-29.929688l1.808594 3.601563c4.136719 8.261719 6.3125 17.511719 6.3125 26.734375s-2.175781 18.472656-6.3125 26.734375l-8.839844 17.691406 14.3125 7.160157 8.839844-17.699219c4.808594-9.621094 7.425781-20.300781 7.832031-31.046875 3.65625-6.375 8.390625-11.96875 14.152344-16.574219l2.015625-1.617187v4.320312c0 14 4.625 27.871094 13.023438 39.070312 7.082031 9.433594 10.976562 21.128907 10.976562 32.921876 0 10.871093-3.183594 21.398437-9.214844 30.4375l-5.441406 8.160156 13.3125 8.875 5.441406-8.160156c7.78125-11.664063 11.902344-25.265626 11.902344-39.3125 0-15.234376-5.03125-30.335938-14.175781-42.527344-6.328125-8.449219-9.824219-18.914063-9.824219-29.472656v-37.609376l-28.015625 22.410157c-2.417969 1.933593-4.648437 4.054687-6.792969 6.246093-1.304687-4.777343-2.976562-9.464843-5.191406-13.894531l-16-32-11.839844 23.679688c-4.601562 9.214843-11.617187 16.71875-20.265625 21.855469-1.308593-25.945313-14.214843-50.382813-35.085937-66.046876l-12.808594-9.601562v28.960938c0 10.558593-3.488281 21.023437-9.824219 29.472656-4.328125 5.765625-7.695312 12.199218-10.085937 18.972656-2.515625-2.710938-5.160156-5.300781-8.082032-7.636719l-28.007812-22.417969v37.609376c0 10.558593-3.488281 21.023437-9.824219 29.472656-9.144531 12.191406-14.175781 27.292968-14.175781 42.527344 0 14.046874 4.121094 27.648437 11.902344 39.320312zm0 0"/><path d="m272.414062 229.472656 15.171876 5.0625 5.351562-16.046875c2.03125-6.089843 3.0625-12.433593 3.0625-18.863281 0-11.808594-3.464844-23.242188-10.007812-33.066406l-16.417969-24.613282-8.101563 24.335938c-1.121094 3.34375-3.394531 6.0625-6.289062 7.757812-1.398438-8.480468-4.574219-16.566406-9.40625-23.800781l-16.203125-24.300781-8.300781 24.949219c-3 8.992187-7.195313 17.554687-12.457032 25.449219-5.769531 8.664062-8.816406 18.742187-8.816406 29.152343 0 8.113281 1.921875 16.238281 5.542969 23.503907l3.296875 6.59375 14.3125-7.160157-3.296875-6.59375c-2.519531-5.046875-3.855469-10.703125-3.855469-16.34375 0-7.230469 2.128906-14.25 6.136719-20.265625 4.855469-7.285156 8.910156-15.0625 12.121093-23.191406 3.765626 6.6875 5.742188 14.214844 5.742188 21.96875v8h8c10.777344 0 20.511719-5.679688 25.886719-14.640625 4 6.738281 6.113281 14.382813 6.113281 22.265625 0 4.703125-.753906 9.34375-2.230469 13.789062zm0 0"/><path d="m192 400h112v16h-112zm0 0"/><path d="m64 304h16v16h-16zm0 0"/><path d="m96 304h16v16h-16zm0 0"/><path d="m128 304h16v16h-16zm0 0"/><path d="m160 304h16v16h-16zm0 0"/><path d="m64 336h16v16h-16zm0 0"/><path d="m96 336h16v16h-16zm0 0"/><path d="m128 336h16v16h-16zm0 0"/><path d="m160 336h16v16h-16zm0 0"/><path d="m64 368h16v16h-16zm0 0"/><path d="m96 368h16v16h-16zm0 0"/><path d="m64 400h16v16h-16zm0 0"/><path d="m96 400h16v16h-16zm0 0"/><path d="m64 432h16v16h-16zm0 0"/><path d="m96 432h16v16h-16zm0 0"/><path d="m416 304h16v16h-16zm0 0"/><path d="m384 304h16v16h-16zm0 0"/><path d="m352 304h16v16h-16zm0 0"/><path d="m320 304h16v16h-16zm0 0"/><path d="m416 336h16v16h-16zm0 0"/><path d="m384 336h16v16h-16zm0 0"/><path d="m352 336h16v16h-16zm0 0"/><path d="m320 336h16v16h-16zm0 0"/><path d="m416 368h16v16h-16zm0 0"/><path d="m384 368h16v16h-16zm0 0"/><path d="m416 400h16v16h-16zm0 0"/><path d="m384 400h16v16h-16zm0 0"/><path d="m416 432h16v16h-16zm0 0"/><path d="m384 432h16v16h-16zm0 0"/><path d="m464 480v-208h-32v-32h-48v32h-16v-32h-48v32h-32v96h-16v-32h-48v32h-16v-96h-32v-32h-48v32h-16v-32h-48v32h-32v208h-32v16h496v-16zm-64-224h16v16h-16zm-64 0h16v16h-16zm-32 32h144v192h-80v-80h-16v-32h-48zm16 192h-16v-32h16zm-32-48v48h-16v-48h-48v48h-16v-48h-48v48h-16v-64h32v-16h-16v-16h176v16h-16v16h32v64h-16v-48zm-32 48h-16v-32h16zm-64 0h-16v-32h16zm48-128h16v16h-16zm-96-96h16v16h-16zm-64 0h16v16h-16zm-32 32h144v80h-48v32h-16v80h-80zm0 0"/></svg>