<svg height="496pt" viewBox="0 0 496 496" width="496pt" xmlns="http://www.w3.org/2000/svg"><path d="m242.207031 233.855469c8.398438-4.535157 13.785157-10.367188 13.785157-17.855469 0-22.816406-48.234376-29.296875-72-31.105469v-8.894531c0-13.230469 10.765624-24 24-24h70.625c21.167968 0 39.253906-15.855469 41.183593-36.105469 1.078125-11.253906-2.648437-22.488281-10.203125-30.796875-5.886718-6.472656-13.726562-10.722656-22.214844-12.320312-3.496093-23.042969-23.382812-40.777344-47.390624-40.777344-4.320313 0-8.542969.625-12.640626 1.742188-8.632812-19.832032-28.390624-33.742188-51.359374-33.742188-19.5625 0-36.785157 10.105469-46.808594 25.34375-9.960938-6.039062-21.449219-9.34375-33.191406-9.34375-32.847657 0-59.976563 24.886719-63.570313 56.800781-8.414063 1.632813-16.191406 5.871094-22.039063 12.304688-7.550781 8.308593-11.28125 19.535156-10.199218 30.796875 1.929687 20.242187 20.007812 36.097656 41.183594 36.097656h70.625c13.230468 0 24 10.769531 24 24v8.894531c-23.769532 1.808594-72 8.289063-72 31.105469 0 7.488281 5.382812 13.320312 13.78125 17.855469-38.4375 26.761719-61.78125 70.648437-61.78125 118.144531 0 79.398438 64.597656 144 144 144 79.398437 0 144-64.601562 144-144 0-47.496094-23.34375-91.382812-61.785157-118.144531zm-22.894531 161.929687c2.375-11.023437 3.894531-22.992187 4.375-35.785156h63.902344c-1.550782 24.878906-10.191406 47.824219-23.992188 66.871094-7.847656-8.558594-22.34375-21.625-44.285156-31.085938zm-59.335938 81c-9.394531-9.929687-29.160156-34.105468-40.167968-70.9375 11.527344-3.519531 24.832031-5.847656 40.183594-5.847656 15.335937 0 28.625 2.328125 40.144531 5.832031-11.023438 36.753907-30.785157 61-40.160157 70.953125zm.015626-92.785156c-16.730469 0-31.289063 2.511719-44.023438 6.320312-1.945312-9.425781-3.21875-19.542968-3.664062-30.320312h95.375c-.449219 10.769531-1.726563 20.886719-3.6875 30.320312-12.730469-3.808593-27.289063-6.320312-44-6.320312zm-103.601563 42.871094c-13.800781-19.046875-22.445313-41.992188-23.992187-66.871094h63.90625c.480468 12.792969 1.992187 24.753906 4.375 35.785156-21.953126 9.460938-36.449219 22.527344-44.289063 31.085938zm44.335937-118.625c-2.527343 11.664062-4.039062 23.625-4.496093 35.753906h-63.96875c1.53125-24.496094 10.050781-47.617188 24.042969-66.96875 7.824218 8.5625 22.359374 21.703125 44.421874 31.214844zm51.097657-60.375c2.824219.082031 5.574219.128906 8.167969.128906 2.589843 0 5.34375-.046875 8.167968-.128906.421875 18.175781 3.933594 35.945312 10.695313 52.839844l.75 1.882812c-6.167969.847656-12.636719 1.40625-19.613281 1.40625-6.976563 0-13.449219-.558594-19.625-1.398438l.753906-1.882812c6.765625-16.902344 10.269531-34.671875 10.703125-52.847656zm8.167969 72.128906c16.742187 0 31.328124-2.519531 44.070312-6.335938 2.03125 9.910157 3.265625 20.054688 3.6875 30.335938h-95.519531c.425781-10.28125 1.65625-20.425781 3.6875-30.335938 12.746093 3.816407 27.328125 6.335938 44.074219 6.335938zm63.757812 24c-.453125-12.128906-1.964844-24.089844-4.496094-35.753906 22.066406-9.511719 36.601563-22.652344 44.425782-31.214844 14 19.351562 22.511718 42.472656 24.039062 66.96875zm29.65625-79.449219c-7.558594 8.761719-26.222656 26.578125-57.808594 34.921875l-1.878906-4.6875c-6.101562-15.273437-9.261719-31.320312-9.589844-47.738281 13.277344-1.015625 27.222656-2.949219 39.308594-6.144531 11.273438 6.449218 21.335938 14.433594 29.96875 23.648437zm-13.367188-48.886719c-1.832031 4.6875-22.078124 12.6875-56.046874 15.398438v-30.117188c35.894531 2.832032 54.445312 11.269532 56.046874 14.71875zm-128.046874-79.664062h-70.625c-13.007813 0-24.113282-9.496094-25.265626-21.617188-.652343-6.878906 1.523438-13.460937 6.128907-18.519531 4.535156-5 11.007812-7.863281 17.761719-7.863281 13.230468 0 24 10.769531 24 24h16c0-19.105469-13.488282-35.078125-31.425782-39.023438 3.417969-23.144531 23.34375-40.976562 47.425782-40.976562 9.414062 0 18.535156 2.9375 26.335937 8.070312-1.496094 5.058594-2.335937 10.394532-2.335937 15.929688h16c0-22.054688 17.941406-40 40-40 22.054687 0 40 17.945312 40 40h16c0-2.28125-.175782-4.519531-.449219-6.726562 2.746093-.753907 5.542969-1.273438 8.449219-1.273438 15.253906 0 28 10.742188 31.191406 25.046875-17.816406 4.03125-31.191406 19.9375-31.191406 38.953125h16c0-13.230469 10.765624-24 24-24 6.75 0 13.222656 2.863281 17.765624 7.855469 4.601563 5.066406 6.785157 11.640625 6.128907 18.519531-1.160157 12.128906-12.261719 21.625-25.269531 21.625h-70.625c-22.058594 0-40 17.945312-40 40v55.886719c-2.609376.074219-5.265626.113281-8 .113281-2.738282 0-5.394532-.039062-8-.113281v-55.886719c0-22.054688-17.945313-40-40-40zm24 64.9375v30.125c-33.96875-2.695312-54.207032-10.589844-56.046876-14.726562 1.597657-4.070313 20.148438-12.558594 56.046876-15.398438zm-39.441407 39.957031c12.089844 3.195313 26.03125 5.128907 39.3125 6.144531-.335937 16.417969-3.488281 32.472657-9.59375 47.738282l-1.878906 4.6875c-31.582031-8.34375-50.246094-26.160156-57.808594-34.921875 8.625-9.207031 18.6875-17.191407 29.96875-23.648438zm-29.871093 198.441407c5.863281-6.769532 18.28125-18.785157 38-27.785157 9.265624 30.625 24.09375 53.035157 35.246093 66.714844-28.703125-4.546875-54.214843-18.609375-73.246093-38.929687zm113.375 38.9375c11.152343-13.679688 25.984374-36.097657 35.25-66.714844 19.71875 9 32.132812 21.015625 38 27.785156-19.035157 20.3125-44.546876 34.375-73.25 38.929688zm0 0"/><path d="m95.992188 96h16c0-5.769531 6.488281-10.089844 11.96875-6.863281l8.0625-13.832031c-3.71875-2.160157-7.871094-3.304688-12.03125-3.304688-13.234376 0-24 10.769531-24 24zm0 0"/><path d="m207.992188 112h16c0-13.230469-10.769532-24-24-24-4.160157 0-8.3125 1.144531-12.03125 3.304688l8.0625 13.832031c5.472656-3.191407 11.96875 1.101562 11.96875 6.863281zm0 0"/><path d="m399.992188 144c-52.9375 0-96 43.0625-96 96s43.0625 96 96 96c52.933593 0 96-43.0625 96-96s-43.066407-96-96-96zm79.589843 88h-48.726562c-1.480469-5.6875-4.390625-10.792969-8.464844-14.800781l24.273437-42.039063c18.101563 13.070313 30.589844 33.464844 32.917969 56.839844zm-95.589843 8c0-8.824219 7.175781-16 16-16 8.824218 0 16 7.175781 16 16s-7.175782 16-16 16c-8.824219 0-16-7.175781-16-16zm48.832031-72.871094-24.335938 42.160156c-2.730469-.753906-5.535156-1.289062-8.496093-1.289062-2.960938 0-5.769532.535156-8.496094 1.289062l-24.335938-42.160156c10.03125-4.535156 21.128906-7.128906 32.832032-7.128906 11.703124 0 22.800781 2.59375 32.832031 7.128906zm-79.503907 8.03125 24.269532 42.039063c-4.070313 4-6.984375 9.105469-8.460938 14.800781h-48.730468c2.328124-23.375 14.816406-43.769531 32.921874-56.839844zm-32.921874 72.839844h48.730468c1.476563 5.6875 4.390625 10.792969 8.460938 14.800781l-24.269532 42.039063c-18.105468-13.070313-30.59375-33.464844-32.921874-56.839844zm46.761718 64.871094 24.335938-42.160156c2.726562.753906 5.535156 1.289062 8.496094 1.289062 2.960937 0 5.765624-.535156 8.496093-1.289062l24.335938 42.160156c-10.03125 4.535156-21.128907 7.128906-32.832031 7.128906-11.703126 0-22.800782-2.59375-32.832032-7.128906zm79.503906-8.03125-24.273437-42.039063c4.074219-4 6.984375-9.105469 8.464844-14.800781h48.726562c-2.328125 23.375-14.816406 43.769531-32.917969 56.839844zm0 0"/></svg>