<svg height="495pt" viewBox="-139 0 495 495.78" width="495pt" xmlns="http://www.w3.org/2000/svg"><path d="m141.191406 279.78125c27.503906 0 54.789063-9.089844 76.796875-25.601562l-9.597656-12.800782c-19.265625 14.441406-43.128906 22.402344-67.199219 22.402344l-8 .007812v-16.007812h8c27.503906 0 54.789063-9.089844 76.796875-25.601562l-9.597656-12.800782c-19.265625 14.441406-43.128906 22.402344-67.199219 22.402344l-8 .007812v-14.503906c14.320313-8.3125 24-23.785156 24-41.503906h9.679688c21.136718 0 38.320312-17.191406 38.320312-38.320312 0-1.417969-.082031-2.832032-.234375-4.234376-5.199219-46.824218-29.511719-90.277343-66.710937-119.207031l-9.832032-7.648437c-10.9375-8.496094-27.511718-8.496094-38.457031 0l-9.824219 7.648437c-37.191406 28.9375-61.503906 72.382813-66.710937 119.199219-.152344 1.402344-.230469 2.824219-.230469 4.242188 0 21.128906 17.183594 38.320312 38.320313 38.320312h9.679687c0 17.71875 9.679688 33.191406 24 41.503906v14.496094h-8c-24.074218 0-47.9375-7.960938-67.203125-22.402344l-9.597656 12.800782c22.007813 16.511718 49.289063 25.601562 76.800781 25.601562h8v16h-8c-24.074218 0-47.9375-7.960938-67.203125-22.402344l-9.597656 12.800782c22.007813 16.511718 49.289063 25.601562 76.800781 25.601562h8v16h-8c-24.074218 0-47.9375-7.960938-67.203125-22.402344l-9.597656 12.800782c22.007813 16.511718 49.289063 25.601562 76.800781 25.601562h8v16h-8c-24.074218 0-47.9375-7.960938-67.203125-22.402344l-9.597656 12.800782c22.007813 16.511718 49.289063 25.601562 76.800781 25.601562h8v16h-8c-24.074218 0-47.9375-7.960938-67.203125-22.402344l-9.597656 12.800782c22.007813 16.511718 49.289063 25.601562 76.800781 25.601562h8v1.367188c0 2.359374.160156 4.695312.421875 7.015624-44.984375 3.863282-80.421875 41.648438-80.421875 87.617188v24h32c31.6875 0 59.054688-18.570312 72-45.359375 12.941406 26.789063 40.3125 45.359375 72 45.359375h32v-24c0-45.96875-35.441406-83.753906-80.425781-87.617188.265625-2.3125.425781-4.648437.425781-7.015624v-1.367188h8c27.503906 0 54.789063-9.089844 76.796875-25.601562l-9.597656-12.800782c-19.265625 14.441406-43.128906 22.402344-67.199219 22.402344l-8 .007812v-16.007812h8c27.503906 0 54.789063-9.089844 76.796875-25.601562l-9.597656-12.800782c-19.265625 14.441406-43.128906 22.402344-67.199219 22.402344l-8 .007812v-16.007812h8c27.503906 0 54.789063-9.089844 76.796875-25.601562l-9.597656-12.800782c-19.265625 14.441406-43.128906 22.402344-67.199219 22.402344l-8 .007812v-16.007812zm-24-11.6875c-2.488281 1.871094-5.714844 3.6875-8 3.6875-2.296875 0-5.519531-1.824219-8-3.6875v-13.859375c2.503906.921875 5.199219 1.546875 8 1.546875 2.796875 0 5.496094-.625 8-1.539062zm-8 135.199219c-4.234375-6.234375-6.777344-13.386719-7.617187-20.921875 2.398437.839844 4.960937 1.410156 7.617187 1.410156s5.214844-.570312 7.613282-1.410156c-.839844 7.535156-3.382813 14.6875-7.613282 20.921875zm8-39.199219c-2.488281 1.871094-5.714844 3.6875-8 3.6875-2.296875 0-5.519531-1.824219-8-3.6875v-13.859375c2.503906.921875 5.199219 1.546875 8 1.546875 2.796875 0 5.496094-.625 8-1.539062zm0-32c-2.488281 1.871094-5.714844 3.6875-8 3.6875-2.296875 0-5.519531-1.824219-8-3.6875v-13.859375c2.503906.921875 5.199219 1.546875 8 1.546875 2.796875 0 5.496094-.625 8-1.539062zm0-32c-2.488281 1.871094-5.714844 3.6875-8 3.6875-2.296875 0-5.519531-1.824219-8-3.6875v-13.859375c2.503906.921875 5.199219 1.546875 8 1.546875 2.796875 0 5.496094-.625 8-1.539062zm-24-124.3125v-16h-41.679687c-12.304688 0-22.320313-10.007812-22.320313-22.320312 0-.816407.046875-1.640626.144532-2.464844 4.726562-42.558594 26.820312-82.046875 60.628906-108.34375l9.832031-7.648438c5.34375-4.167968 13.457031-4.167968 18.800781 0l9.832032 7.648438c33.816406 26.296875 55.90625 65.785156 60.632812 108.351562.078125.816406.128906 1.640625.128906 2.457032 0 12.3125-10.015625 22.320312-22.320312 22.320312h-57.679688v16h32c0 17.648438-14.351562 32-32 32-17.648437 0-32-14.351562-32-32zm16 48c2.726563 0 5.390625-.28125 8-.722656v13.035156c-2.488281 1.871094-5.714844 3.6875-8 3.6875-2.296875 0-5.519531-1.824219-8-3.6875v-13.042969c2.605469.449219 5.269532.730469 8 .730469zm-72 256h-16v-8c0-38.457031 30.335938-69.882812 68.320313-71.816406 2.664062 6.824218 6.558593 13.136718 11.527343 18.71875-1.535156 33.9375-29.546874 61.097656-63.847656 61.097656zm160-8v8h-16c-34.304687 0-62.3125-27.160156-63.855468-61.089844 4.972656-5.589844 8.863281-11.902344 11.527343-18.71875 37.992188 1.925782 68.328125 33.351563 68.328125 71.808594zm0 0"/><path d="m106.847656 122.125-14.34375-14.34375 14.34375-14.34375-11.3125-11.3125-14.34375 14.34375-14.34375-14.34375-11.3125 11.3125 14.34375 14.34375-14.34375 14.34375 11.3125 11.3125 14.34375-14.34375 14.34375 14.34375zm0 0"/></svg>