<svg height="496pt" viewBox="0 0 496 496" width="496pt" xmlns="http://www.w3.org/2000/svg"><path d="m320 288c-54.640625 0-99.480469 42.390625-103.59375 96h-64.40625c-35.289062 0-64-28.710938-64-64s28.710938-64 64-64h128v-16h-128c-44.113281 0-80 35.886719-80 80s35.886719 80 80 80h64.40625c4.113281 53.609375 48.953125 96 103.59375 96 57.34375 0 104-46.65625 104-104s-46.65625-104-104-104zm0 192c-48.519531 0-88-39.480469-88-88s39.480469-88 88-88 88 39.480469 88 88-39.480469 88-88 88zm0 0"/><path d="m335.160156 331.574219-14.320312-7.148438-37.785156 75.574219h48l-26.214844 52.425781 14.320312 7.148438 37.785156-75.574219h-48zm0 0"/><path d="m436 136h-28v-16h-38.496094c-8.3125-14.320312-23.785156-24-41.503906-24h-16v-16h-48v24h-40v16h40v48h-40v16h40v24h48v-16h16c17.71875 0 33.191406-9.679688 41.503906-24h38.496094v-16h28c24.257812 0 44 19.742188 44 44s-19.742188 44-44 44h-44v16h44c33.089844 0 60-26.910156 60-60s-26.910156-60-60-60zm-140 56h-16v-96h16zm32-16h-16v-64h16c17.648438 0 32 14.351562 32 32s-14.351562 32-32 32zm64-24h-16.71875c.4375-2.609375.71875-5.273438.71875-8s-.28125-5.390625-.71875-8h16.71875zm0 0"/><path d="m208 0h-208v208h208zm-16 192h-176v-176h176zm0 0"/><path d="m56 168h96c13.230469 0 24-10.769531 24-24v-80c0-13.230469-10.769531-24-24-24h-96c-13.230469 0-24 10.769531-24 24v80c0 13.230469 10.769531 24 24 24zm-8-104c0-4.414062 3.585938-8 8-8h96c4.414062 0 8 3.585938 8 8v80c0 4.414062-3.585938 8-8 8h-96c-4.414062 0-8-3.585938-8-8zm0 0"/><path d="m72 88h16v32h-16zm0 0"/><path d="m120 88h16v32h-16zm0 0"/><path d="m296 240h16v16h-16zm0 0"/><path d="m328 240h16v16h-16zm0 0"/><path d="m360 240h16v16h-16zm0 0"/></svg>