<svg height="496pt" viewBox="0 0 496 496" width="496pt" xmlns="http://www.w3.org/2000/svg"><path d="m201.34375 148.441406 13.3125-8.875-5.441406-8.167968c-6.03125-9.039063-9.214844-19.566407-9.214844-30.4375 0-11.800782 3.894531-23.496094 10.976562-32.929688 7.289063-9.71875 11.734376-21.464844 12.785157-33.542969 10.359375 12.734375 16.238281 28.847657 16.238281 45.511719v19.097656l10.527344-3.503906c15.800781-5.265625 28.878906-15.800781 37.351562-29.929688l1.808594 3.601563c4.136719 8.261719 6.3125 17.511719 6.3125 26.734375s-2.175781 18.472656-6.3125 26.734375l-8.839844 17.691406 14.3125 7.160157 8.839844-17.699219c5.230469-10.472657 8-22.191407 8-33.886719s-2.769531-23.414062-8-33.886719l-16-32-11.839844 23.679688c-4.601562 9.214843-11.617187 16.71875-20.265625 21.855469-1.308593-25.945313-14.214843-50.382813-35.085937-66.046876l-12.808594-9.601562v28.960938c0 10.558593-3.488281 21.023437-9.824219 29.472656-9.144531 12.191406-14.175781 27.292968-14.175781 42.527344 0 14.046874 4.121094 27.648437 11.902344 39.320312zm0 0"/><path d="m145.34375 204.441406 13.3125-8.875-5.441406-8.167968c-6.03125-9.039063-9.214844-19.566407-9.214844-30.4375 0-11.800782 3.894531-23.496094 10.976562-32.929688 8.398438-11.199219 13.023438-25.070312 13.023438-39.070312h-16c0 10.558593-3.488281 21.023437-9.824219 29.472656-9.144531 12.191406-14.175781 27.292968-14.175781 42.527344 0 14.046874 4.121094 27.640624 11.902344 39.320312zm0 0"/><path d="m352 156.960938c0 10.871093-3.183594 21.398437-9.214844 30.4375l-5.441406 8.160156 13.3125 8.875 5.441406-8.160156c7.78125-11.671876 11.902344-25.265626 11.902344-39.3125 0-15.234376-5.03125-30.335938-14.175781-42.527344-6.335938-8.449219-9.824219-18.914063-9.824219-29.472656h-16c0 14 4.625 27.871093 13.023438 39.070312 7.082031 9.441406 10.976562 21.136719 10.976562 32.929688zm0 0"/><path d="m272.414062 245.472656 15.171876 5.0625 5.351562-16.046875c2.03125-6.089843 3.0625-12.433593 3.0625-18.863281 0-11.808594-3.464844-23.242188-10.007812-33.066406l-16.417969-24.613282-8.101563 24.335938c-1.121094 3.34375-3.394531 6.0625-6.289062 7.757812-1.398438-8.480468-4.574219-16.566406-9.40625-23.800781l-16.203125-24.300781-8.300781 24.949219c-3 8.992187-7.195313 17.554687-12.457032 25.449219-5.769531 8.664062-8.816406 18.742187-8.816406 29.152343 0 8.113281 1.921875 16.238281 5.542969 23.503907l3.296875 6.59375 14.3125-7.160157-3.296875-6.59375c-2.519531-5.046875-3.855469-10.703125-3.855469-16.34375 0-7.230469 2.128906-14.25 6.136719-20.265625 4.855469-7.285156 8.910156-15.0625 12.121093-23.191406 3.765626 6.6875 5.742188 14.214844 5.742188 21.96875v8h8c10.777344 0 20.511719-5.679688 25.886719-14.640625 4 6.738281 6.113281 14.382813 6.113281 22.265625 0 4.703125-.753906 9.34375-2.230469 13.789062zm0 0"/><path d="m452.496094 385.28125c27.238281-18.152344 43.503906-48.546875 43.503906-81.28125s-16.265625-63.128906-43.503906-81.28125l-36.496094-24.335938-36.496094 24.335938c-13.089844 8.730469-23.558594 20.320312-30.992187 33.601562-1.511719-.097656-3-.320312-4.511719-.320312-17.832031 0-34.921875 6.65625-48.054688 18.441406-12.746093-11.425781-29.519531-18.441406-47.945312-18.441406s-35.199219 7.015625-47.953125 18.441406c-14.3125-12.761718-33.429687-19.304687-52.582031-18.160156-7.433594-13.265625-17.898438-24.847656-30.96875-33.5625l-36.496094-24.335938-36.496094 24.335938c-27.238281 18.152344-43.503906 48.546875-43.503906 81.28125s16.265625 63.128906 43.503906 81.28125l28.496094 19v75.71875h-40v16h432v-16h-40v-75.71875zm-64.121094-149.25 27.625-18.414062 27.625 18.414062c22.773438 15.183594 36.375 40.59375 36.375 67.96875s-13.601562 52.785156-36.375 67.96875l-19.625 13.085938v-45.742188l37.65625-37.65625-11.3125-11.3125-26.34375 26.34375v-68.6875h-16v68.6875l-26.34375-26.34375-11.3125 11.3125 37.65625 37.65625v45.742188l-19.625-13.085938c-22.773438-15.183594-36.375-40.59375-36.375-67.96875s13.601562-52.785156 36.375-67.96875zm-211.527344 102.433594c1.6875 11.503906 6.0625 22.121094 12.527344 31.191406-8.230469 7.382812-18.464844 12.113281-29.382812 13.695312v-28.039062zm-32.847656 44.878906c-6.183594-.878906-12.105469-2.757812-17.617188-5.617188 6.882813-5.964843 12.714844-12.878906 17.617188-20.375zm16 16.191406c14.894531-1.664062 28.894531-7.960937 40.054688-17.96875 10.875 9.746094 24.671874 16.265625 39.945312 17.960938v80.472656h-80zm96-.007812c15.273438-1.695313 29.0625-8.214844 39.9375-17.960938 11.160156 10 25.167969 16.304688 40.0625 17.96875v80.464844h-80zm80-44.214844v28.039062c-10.921875-1.582031-21.152344-6.3125-29.382812-13.695312 6.460937-9.070312 10.847656-19.6875 12.535156-31.199219zm16 2.039062c4.902344 7.496094 10.734375 14.410157 17.617188 20.375-5.511719 2.859376-11.433594 4.738282-17.617188 5.617188zm-16-53.351562v28.6875l-17.152344-17.152344c-1.886718-10.734375-6.136718-20.640625-12.222656-29.183594 9.621094-8.566406 22.078125-13.503906 34.839844-14.152343-3.480469 10.097656-5.464844 20.792969-5.464844 31.800781zm-88-32c30.871094 0 56 25.121094 56 56 0 28.152344-20.910156 51.457031-48 55.359375v-28.046875l29.65625-29.65625-11.3125-11.3125-18.34375 18.34375v-28.6875h-16v28.6875l-18.34375-18.34375-11.3125 11.3125 29.65625 29.65625v28.046875c-27.089844-3.902344-48-27.207031-48-55.359375 0-30.878906 25.128906-56 56-56zm-58.625 14.351562c-6.085938 8.542969-10.335938 18.449219-12.214844 29.175782l-17.160156 17.160156v-28.6875c0-11.015625-1.984375-21.703125-5.464844-31.808594 12.785156.640625 25.21875 5.585938 34.839844 14.160156zm-137 85.617188c-22.773438-15.183594-36.375-40.59375-36.375-67.96875s13.601562-52.785156 36.375-67.96875l27.625-18.414062 27.625 18.414062c22.773438 15.183594 36.375 40.59375 36.375 67.96875s-13.601562 52.785156-36.375 67.96875l-19.625 13.085938v-45.742188l37.65625-37.65625-11.3125-11.3125-26.34375 26.34375v-68.6875h-16v68.6875l-26.34375-26.34375-11.3125 11.3125 37.65625 37.65625v45.742188zm35.625 32.3125 24.304688-16.203125c9.550781 6.347656 20.320312 10.195313 31.695312 11.433594v80.488281h-56zm264 75.71875v-80.488281c11.375-1.238281 22.144531-5.085938 31.695312-11.433594l24.304688 16.203125v75.71875zm0 0"/><path d="m480 480h16v16h-16zm0 0"/><path d="m0 480h16v16h-16zm0 0"/><path d="m152 64h16v-1.367188c0-16.730468-6.511719-32.457031-18.34375-44.289062l-11.3125 11.3125c8.808594 8.808594 13.65625 20.519531 13.65625 32.976562zm0 0"/><path d="m384 144h16v-1.367188c0-16.730468-6.511719-32.457031-18.34375-44.289062l-11.3125 11.3125c8.808594 8.808594 13.65625 20.519531 13.65625 32.976562zm0 0"/><path d="m344 62.632812c0-12.457031 4.847656-24.167968 13.65625-32.976562l-11.3125-11.3125c-11.832031 11.832031-18.34375 27.558594-18.34375 44.289062v1.367188h16zm0 0"/><path d="m104 150.632812c0-12.457031 4.847656-24.167968 13.65625-32.976562l-11.3125-11.3125c-11.832031 11.832031-18.34375 27.558594-18.34375 44.289062v1.367188h16zm0 0"/></svg>