<svg height="496pt" viewBox="-8 0 496 496" width="496pt" xmlns="http://www.w3.org/2000/svg"><path d="m423.199219 261.832031c.472656-1.878906.800781-3.808593.800781-5.832031 0-6.144531-2.320312-11.753906-6.128906-16 3.808594-4.246094 6.128906-9.855469 6.128906-16 0-10.273438-6.519531-18.992188-15.625-22.40625 1.769531-15.144531 9.714844-29.167969 22.015625-38.402344l13.785156-10.328125-35.433593-35.429687-24.742188 18.566406v-24h-64v24l-24.753906-18.558594-35.429688 35.429688 13.777344 10.328125c12.300781 9.234375 20.253906 23.257812 22.023438 38.402343-9.097657 3.40625-15.617188 12.125-15.617188 22.398438 0 6.144531 2.320312 11.753906 6.128906 16-3.808594 4.246094-6.128906 9.855469-6.128906 16 0 2.023438.328125 3.953125.800781 5.832031-9.257812 6.222657-17.570312 13.582031-24.800781 21.824219v-105.089844c0-14.320312-7.71875-27.621094-20.160156-34.726562l-35.839844-20.480469v-27.359375h-16v-16c8.824219 0 16-7.175781 16-16v-16c0-8.824219-7.175781-16-16-16h-1.753906l-8-32h-92.492188l-8 32h-1.753906c-8.824219 0-16 7.175781-16 16v16c0 8.824219 7.175781 16 16 16v16h-16v27.359375l-35.839844 20.480469c-12.441406 7.105468-20.160156 20.40625-20.160156 34.726562v277.433594c0 22.054688 17.945312 40 40 40h176c22.054688 0 40-17.945312 40-40v-3.625c23.472656 26.679688 57.761719 43.625 96 43.625 70.574219 0 128-57.425781 128-128 0-42.464844-21.617188-82.503906-56.800781-106.167969zm-23.199219-29.832031h-96c-4.40625 0-8-3.585938-8-8s3.59375-8 8-8h96c4.40625 0 8 3.585938 8 8s-3.59375 8-8 8zm8 24c0 4.414062-3.59375 8-8 8h-96c-4.40625 0-8-3.585938-8-8s3.59375-8 8-8h96c4.40625 0 8 3.585938 8 8zm-123.832031-104.855469 12.574219-12.578125 39.257812 29.433594v-40h32v40l39.246094-29.441406 12.578125 12.578125c-15.335938 11.917969-25.191407 29.695312-27.359375 48.855469h-80.929688c-2.167968-19.144532-12.03125-36.9375-27.367187-48.847657zm-189.921875-135.144531h67.507812l4 16h-75.507812zm-22.246094 32h112l.007812 16h-112.007812zm16 32h80v16h-80zm152 376c0 13.230469-10.769531 24-24 24h-176c-13.230469 0-24-10.769531-24-24v-64h16v-16h-16v-128h16v-16h-16v-53.433594c0-8.589844 4.632812-16.574218 12.097656-20.832031l43.902344-25.09375v-20.640625h112v20.640625l43.902344 25.09375c7.464844 4.257813 12.097656 12.242187 12.097656 20.832031v53.433594h-16v16h16v58.457031c-10.28125 18.632813-16 39.757813-16 61.542969 0 22.414062 5.832031 43.488281 16 61.832031zm112 24c-61.761719 0-112-50.238281-112-112 0-37.71875 18.472656-71.984375 49.664062-92.863281 4.015626 3.007812 8.945313 4.863281 14.335938 4.863281h96c5.390625 0 10.320312-1.855469 14.335938-4.863281 31.191406 20.878906 49.664062 55.144531 49.664062 92.863281 0 61.761719-50.238281 112-112 112zm0 0"/><path d="m444.382812 341.824219-15.398437 4.359375c2.007813 7.054687 3.015625 14.402344 3.015625 21.816406 0 44.113281-35.886719 80-80 80v16c52.9375 0 96-43.0625 96-96 0-8.886719-1.214844-17.695312-3.617188-26.175781zm0 0"/><path d="m437.527344 324.359375c-3.167969-6.183594-7.023438-12.0625-11.472656-17.457031l-12.34375 10.1875c3.714843 4.496094 6.929687 9.390625 9.5625 14.542968zm0 0"/><path d="m48 232h160v16h-160zm0 0"/><path d="m48 376h160v16h-160zm0 0"/></svg>