<svg height="496pt" viewBox="-32 0 496 496" width="496pt" xmlns="http://www.w3.org/2000/svg"><path d="m384 240h16v8h16v-32h-16v8h-16v-24h-16v-27.40625c36.878906-10.480469 64-44.394531 64-84.59375 0-48.519531-39.480469-88-88-88s-88 39.480469-88 88c0 40.191406 27.121094 74.105469 64 84.59375v27.40625h-16v64h-32c0-13.230469-10.769531-24-24-24s-24 10.769531-24 24h-64v-48h40v-16h-25.753906l-7.988282-32h-60.496093l-7.992188 32h-25.769531v16h40v48h-48v45.601562c-37.222656 13.222657-64 48.695313-64 90.398438 0 52.9375 43.0625 96 96 96 38.648438 0 71.953125-23.007812 87.160156-56h40.839844c0 13.230469 10.769531 24 24 24s24-10.769531 24-24h160v-176h-48zm-85.257812-118.054688-10.941407 10.941407c-8.289062-10.359375-13.785156-23.023438-15.328125-36.886719h15.527344v-16h-15.527344c1.542969-13.863281 7.039063-26.527344 15.328125-36.886719l10.941407 10.941407 11.3125-11.3125-10.941407-10.941407c10.359375-8.289062 23.023438-13.785156 36.886719-15.328125v15.527344h16v-15.527344c13.863281 1.542969 26.527344 7.039063 36.886719 15.328125l-10.941407 10.941407 11.3125 11.3125 10.941407-10.941407c8.289062 10.359375 13.785156 23.023438 15.328125 36.886719h-15.527344v16h15.527344c-1.542969 13.863281-7.039063 26.527344-15.328125 36.886719l-10.941407-10.941407-11.3125 11.3125 10.941407 10.941407c-10.359375 8.289062-23.023438 13.785156-36.886719 15.328125v-15.527344h-16v15.527344c-13.863281-1.542969-26.527344-7.039063-36.886719-15.328125l10.941407-10.941407zm37.257812 53.648438c2.640625.238281 5.296875.40625 8 .40625s5.359375-.167969 8-.40625v24.40625h-16zm-16 40.40625h48v48h-48zm-201.753906-32h35.507812l4.007813 16h-43.515625zm9.753906 32h16v48h-16zm-9.472656 176c-.992188-2.777344-2.472656-5.289062-4.34375-7.488281l28.496094-49.351563c18.105468 13.070313 30.585937 33.457032 32.921874 56.839844zm-30.527344 8c0-4.40625 3.585938-8 8-8s8 3.59375 8 8-3.585938 8-8 8-8-3.59375-8-8zm12.359375-23.558594c-1.414063-.265625-2.863281-.441406-4.359375-.441406s-2.945312.175781-4.359375.441406l-28.472656-49.3125c10.03125-4.535156 21.128906-7.128906 32.832031-7.128906s22.800781 2.59375 32.832031 7.128906zm-51.03125-41.28125 28.496094 49.351563c-1.878907 2.199219-3.351563 4.710937-4.34375 7.488281h-57.074219c2.328125-23.382812 14.816406-43.769531 32.921875-56.839844zm-32.921875 72.839844h57.074219c.992187 2.777344 2.464843 5.289062 4.34375 7.488281l-28.496094 49.351563c-18.105469-13.070313-30.59375-33.457032-32.921875-56.839844zm46.761719 64.871094 28.472656-49.3125c1.414063.265625 2.863281.441406 4.359375.441406s2.945312-.175781 4.359375-.441406l28.472656 49.3125c-10.03125 4.535156-21.128906 7.128906-32.832031 7.128906s-22.800781-2.59375-32.832031-7.128906zm79.503906-8.03125-28.496094-49.351563c1.878907-2.199219 3.351563-4.710937 4.34375-7.488281h57.074219c-2.328125 23.382812-14.816406 43.769531-32.921875 56.839844zm46.167969-40.839844c1.992187-7.6875 3.160156-15.703125 3.160156-24 0-52.9375-43.0625-96-96-96-5.464844 0-10.785156.566406-16 1.449219v-25.449219h144v144zm67.160156 16c0 4.40625-3.585938 8-8 8s-8-3.59375-8-8v-176c0-4.40625 3.585938-8 8-8s8 3.59375 8 8zm160-16h-144v-144h144zm0 0"/><path d="m376 80h-24v-32h-16v48h40zm0 0"/><path d="m384 296h16v16h-16zm0 0"/><path d="m384 392h16v16h-16zm0 0"/></svg>