<svg height="496pt" viewBox="-15 0 495 496" width="496pt" xmlns="http://www.w3.org/2000/svg"><path d="m368.5 232c-24.601562 0-46.992188 9.382812-64 24.648438v-48.648438h16v-48h-288v48h16v240h-16v48h288v-48h-16v-48.648438c17.007812 15.265626 39.398438 24.648438 64 24.648438 52.9375 0 96-43.0625 96-96s-43.0625-96-96-96zm79.59375 88h-48.730469c-1.480469-5.6875-4.390625-10.792969-8.464843-14.792969l24.273437-42.046875c18.105469 13.070313 30.59375 33.457032 32.921875 56.839844zm-95.59375 8c0-8.824219 7.175781-16 16-16s16 7.175781 16 16-7.175781 16-16 16-16-7.175781-16-16zm48.832031-72.871094-24.34375 42.160156c-2.71875-.753906-5.527343-1.289062-8.488281-1.289062s-5.769531.535156-8.488281 1.289062l-24.34375-42.160156c10.03125-4.535156 21.121093-7.128906 32.832031-7.128906s22.800781 2.59375 32.832031 7.128906zm-79.503906 8.03125 24.273437 42.046875c-4.074218 4-6.984374 9.105469-8.464843 14.792969h-48.730469c2.328125-23.382812 14.816406-43.769531 32.921875-56.839844zm-33.328125 128.839844h-224v-128h224v11.046875c-10.089844 15.191406-16 33.386719-16 52.953125s5.910156 37.761719 16 52.953125zm-240-216h256v16h-256zm240 32v40h-224v-40zm16 272h-256v-16h256zm-240-32v-40h224v40zm224.40625-112h48.730469c1.480469 5.6875 4.390625 10.792969 8.464843 14.792969l-24.273437 42.046875c-18.105469-13.070313-30.59375-33.457032-32.921875-56.839844zm46.761719 64.871094 24.34375-42.160156c2.71875.753906 5.527343 1.289062 8.488281 1.289062s5.769531-.535156 8.488281-1.289062l24.34375 42.160156c-10.03125 4.535156-21.121093 7.128906-32.832031 7.128906s-22.800781-2.59375-32.832031-7.128906zm79.503906-8.03125-24.273437-42.046875c4.074218-4 6.984374-9.105469 8.464843-14.792969h48.730469c-2.328125 23.382812-14.816406 43.769531-32.921875 56.839844zm0 0"/><path d="m176.5 280c-9.40625 0-18.558594 2.761719-26.449219 7.984375l8.832031 13.34375c5.265626-3.488281 11.351563-5.328125 17.617188-5.328125 17.648438 0 32 14.351562 32 32 0 6.265625-1.839844 12.351562-5.328125 17.625l13.34375 8.832031c5.222656-7.898437 7.984375-17.050781 7.984375-26.457031 0-26.472656-21.527344-48-48-48zm0 0"/><path d="m176.5 360c-17.648438 0-32-14.351562-32-32 0-6.265625 1.839844-12.351562 5.328125-17.625l-13.34375-8.832031c-5.222656 7.898437-7.984375 17.050781-7.984375 26.457031 0 26.472656 21.527344 48 48 48 9.40625 0 18.558594-2.761719 26.449219-7.984375l-8.832031-13.34375c-5.265626 3.488281-11.351563 5.328125-17.617188 5.328125zm0 0"/><path d="m344.5 16c22.054688 0 40 17.945312 40 40v8h8c22.054688 0 40 17.945312 40 40s-17.945312 40-40 40v16c30.878906 0 56-25.121094 56-56 0-28.335938-21.160156-51.824219-48.496094-55.503906-3.679687-27.335938-27.167968-48.496094-55.503906-48.496094-30.878906 0-56 25.121094-56 56h16c0-22.054688 17.945312-40 40-40zm0 0"/><path d="m64.5 64v-8c0-22.054688 17.945312-40 40-40s40 17.945312 40 40h16c0-30.878906-25.121094-56-56-56-28.335938 0-51.824219 21.160156-55.503906 48.496094-27.335938 3.679687-48.496094 27.167968-48.496094 55.503906h16c0-22.054688 17.945312-40 40-40zm0 0"/><path d="m40.5 104h16v16h-16zm0 0"/><path d="m136.5 144v-16h16v-16h-16v-16h-16v16h-16v16h16v16zm0 0"/><path d="m216.5 48h16v-16h16v-16h-16v-16h-16v16h-16v16h16zm0 0"/><path d="m392.5 128v-16h16v-16h-16v-16h-16v16h-16v16h16v16zm0 0"/><path d="m96.5 40h16v16h-16zm0 0"/><path d="m216.5 104h16v16h-16zm0 0"/><path d="m336.5 40h16v16h-16zm0 0"/><path d="m304.5 112h16v16h-16zm0 0"/></svg>