<svg height="496pt" viewBox="-48 0 496 496" width="496pt" xmlns="http://www.w3.org/2000/svg"><path d="m383.984375 191.511719-.113281-1.863281-99.230469-173.648438h-169.03125c-5.640625-9.761719-16.121094-16-27.609375-16-8.734375 0-17.191406 3.632812-23.207031 9.96875-6.105469 6.429688-9.207031 14.855469-8.753907 23.734375.863282 16.542969 14.792969 29.496094 31.960938 30.167969v72.128906h-16v54.375c-45.238281 31.496094-72 82.257812-72 137.625 0 92.632812 75.367188 168 168 168s168-75.367188 168-168c0-32.902344-9.566406-64.457031-27.527344-91.777344 6.933594-8.015625 12.328125-17.390625 15.65625-27.710937 7.574219 1.726562 13.390625 8.0625 14.152344 16.128906l20.726562 221.078125c.976563 10.425781 9.601563 18.28125 20.070313 18.28125 5.53125 0 10.882813-2.3125 14.683594-6.34375 3.796875-4.03125 5.78125-9.503906 5.445312-15.039062zm-279.984375-127.511719h16v72h-16zm138.320312 39.289062-.871093 1.046876c-23.394531 1.910156-43.921875 13.921874-57.296875 31.664062h-48.152344v-72h86.238281c6.9375 0 13.808594 2.921875 18.839844 8 4.515625 4.566406 6.976563 10.335938 6.914063 16.230469-.0625 6.898437-3.128907 11.992187-5.671876 15.058593zm-154.320312 48.710938h86.726562c-4.300781 9.808594-6.726562 20.625-6.726562 32h-80zm-1.585938 48h83.195313c7.429687 36.472656 39.75 64 78.382813 64 18.3125 0 35.160156-6.257812 48.65625-16.648438 10.960937 17.359376 18.238281 36.519532 21.441406 56.648438h-22.089844v16h23.695312c.136719 2.664062.304688 5.320312.304688 8 0 2.703125-.265625 5.335938-.40625 8h-303.1875c-.140625-2.664062-.40625-5.296875-.40625-8 0-2.679688.121094-5.34375.257812-8h23.742188v-16h-22.039062c6.734374-42.558594 31.222656-80.230469 68.453124-104zm81.585938 280c-75.625 0-138.351562-55.574219-149.910156-128h299.832031c-11.570313 72.425781-74.296875 128-149.921875 128zm80-232c-35.289062 0-64-28.710938-64-64s28.710938-64 64-64 64 28.710938 64 64-28.710938 64-64 64zm134.113281 198.6875c-.464843.488281-1.472656 1.3125-3.035156 1.3125-2.167969 0-3.941406-1.625-4.140625-3.785156l-20.730469-221.070313c-1.429687-15.183593-12.429687-27.113281-26.734375-30.257812.328125-2.917969.527344-5.878907.527344-8.886719 0-40.039062-29.59375-73.199219-68.039062-79.007812 2.511718-5.191407 3.976562-10.769532 4.039062-16.601563.105469-10.207031-4-20.023437-11.542969-27.65625-8.015625-8.085937-19.03125-12.734375-30.21875-12.734375h-132.878906c-9.128906 0-16.894531-6.785156-17.335937-15.128906-.230469-4.457032 1.320312-8.671875 4.375-11.886719 3.050781-3.214844 7.167968-4.984375 11.601562-4.984375 6.695312 0 12.726562 4.296875 14.992188 10.679688l1.886718 5.320312h170.480469l92.769531 162.34375 15.109375 249.242188c.089844 1.566406-.671875 2.613281-1.125 3.101562zm0 0"/><path d="m248 136c-26.472656 0-48 21.527344-48 48s21.527344 48 48 48 48-21.527344 48-48-21.527344-48-48-48zm32 48c0 5.695312-1.617188 10.96875-4.230469 15.601562-3.800781-3.1875-7.714843-6.1875-11.769531-9.027343v-34.125c9.519531 5.550781 16 15.757812 16 27.550781zm-32-32v32h-32c0-17.648438 14.351562-32 32-32zm-27.550781 48h29.054687c5.296875 3.375 10.335938 7.152344 15.191406 11.167969-4.871093 3.007812-10.558593 4.832031-16.695312 4.832031-11.792969 0-22-6.480469-27.550781-16zm0 0"/><path d="m56 304h224v16h-224zm0 0"/></svg>