<svg height="496pt" viewBox="-124 0 496 496" width="496pt" xmlns="http://www.w3.org/2000/svg"><path d="m124.449219 400c17.648437 0 32-14.351562 32-32v-1.351562c0-5.800782-1.578125-11.488282-4.5625-16.472657l-27.4375-45.71875-27.441407 45.734375c-2.984374 4.976563-4.558593 10.65625-4.558593 16.457032v1.351562c0 17.648438 14.351562 32 32 32zm-16-33.351562c0-2.894532.789062-5.753907 2.277343-8.234376l13.722657-22.871093 13.710937 22.855469c1.496094 2.496093 2.289063 5.355468 2.289063 8.25v1.351562c0 8.824219-7.175781 16-16 16s-16-7.175781-16-16zm0 0"/><path d="m124.449219 432c44.109375 0 80-35.886719 80-80s-35.890625-80-80-80c-44.113281 0-80 35.886719-80 80s35.886719 80 80 80zm0-144c35.285156 0 64 28.710938 64 64s-28.714844 64-64 64c-35.289063 0-64-28.710938-64-64s28.710937-64 64-64zm0 0"/><path d="m221.441406 232.144531-24.992187-19.984375v-36.160156c8.824219 0 16-7.175781 16-16v-16c0-8.824219-7.175781-16-16-16h-14.058594l66.503906-66.503906-33.941406-33.945313-66.503906 66.511719v-94.0625h-48v94.0625l-66.503907-66.511719-33.945312 33.945313 66.503906 66.503906h-14.054687c-8.824219 0-16 7.175781-16 16v16c0 8.824219 7.175781 16 16 16v36.160156l-24.992188 19.992188c-9.535156 7.632812-15.007812 19.015625-15.007812 31.230468v208.617188c0 13.230469 10.765625 24 24 24h176c13.230469 0 24-10.769531 24-24v-208.617188c0-12.214843-5.472657-23.597656-15.007813-31.238281zm-.992187 31.238281v184.617188h-192v-184.617188c0-2.558593.535156-5.015624 1.304687-7.382812h189.390625c.765625 2.367188 1.304688 4.816406 1.304688 7.382812zm-5.496094-213.214843 11.320313 11.320312-66.503907 66.511719h-11.320312v-11.3125zm-82.503906-34.167969v112h-16v-112zm-109.824219 45.496094 11.320312-11.320313 66.503907 66.511719v11.3125h-11.320313zm29.824219 82.503906h144l.007812 16h-144.007812zm128 32v32h-112v-32zm-117.191407 48h122.390626l20 16h-162.390626zm149.191407 256h-176c-4.410157 0-8-3.585938-8-8v-8h192v8c0 4.414062-3.59375 8-8 8zm0 0"/></svg>