<svg height="496pt" viewBox="-22 0 495 496" width="496pt" xmlns="http://www.w3.org/2000/svg"><path d="m226.234375 352c-30.878906 0-56 25.128906-56 56s25.121094 56 56 56c30.882813 0 56-25.128906 56-56s-25.117187-56-56-56zm0 96c-22.054687 0-40-17.945312-40-40s17.945313-40 40-40c22.058594 0 40 17.945312 40 40s-17.941406 40-40 40zm0 0"/><path d="m202.234375 384h48v16h-48zm0 0"/><path d="m202.234375 416h48v16h-48zm0 0"/><path d="m451.972656 409.574219-16.074218-32.140625c3.992187-4.539063 6.335937-10.402344 6.335937-16.464844 0-13.769531-11.199219-24.96875-24.964844-24.96875-6.671875 0-12.945312 2.59375-17.65625 7.3125l-9.378906 9.375-15.972656-15.984375c7.535156-7.382813 11.972656-17.511719 11.972656-28.480469v-13.984375l32-7.992187v-124.492188l-32-8v-5.976562c0-8.992188-3.007813-17.410156-8.222656-24.234375-2.375-68.503907-58.703125-123.542969-127.777344-123.542969h-48c-69.070313 0-125.398437 55.039062-127.773437 123.542969-5.21875 6.824219-8.226563 15.242187-8.226563 24.234375v5.976562l-32 8v124.492188l32 7.992187v13.984375c0 11.945313 5.257813 22.898438 14.082031 30.386719l-16.082031 16.078125-11.375-11.375c-4.710937-4.71875-10.984375-7.3125-17.65625-7.3125-13.765625 0-24.96875 11.199219-24.96875 24.96875 0 6.0625 2.34375 11.933594 6.335937 16.464844l-16.070312 32.140625 64.160156 64.160156 32.144532-16.070313c4.558593 4.039063 10.3125 6.335938 16.464843 6.335938 13.765625 0 24.964844-11.199219 24.964844-24.96875 0-6.574219-2.664063-13.007812-7.308594-17.65625l-9.378906-9.375 17.898437-17.894531c-.730468 4.535156-1.210937 9.160156-1.210937 13.894531 0 48.519531 39.480469 88 88 88 48.523437 0 88-39.480469 88-88 0-4.609375-.460937-9.089844-1.140625-13.503906l17.671875 17.671875-9.210937 9.207031c-4.65625 4.648438-7.320313 11.082031-7.320313 17.65625 0 13.769531 11.203125 24.96875 24.96875 24.96875 6.152344 0 11.90625-2.296875 16.472656-6.335938l32.144531 16.070313zm-145.367187-37.253907c-3.273438-7.34375-7.472657-14.191406-12.546875-20.320312h32.855468zm-160.738281 0-20.320313-20.320312h32.855469c-5.0625 6.128906-9.261719 12.96875-12.535156 20.320312zm-50.367188-42.632812c-8.183594-4.09375-13.265625-12.3125-13.265625-21.464844v-160.445312c0-9.152344 5.082031-17.378906 13.265625-21.464844.886719-.441406 1.824219-.777344 2.734375-1.175781v205.71875c-.910156-.390625-1.847656-.726563-2.734375-1.167969zm18.734375-9.6875h40v-16h-40v-16h40v-16h-40v-16h40v-16h-40v-119.398438c2.65625-.363281 5.320313-.601562 8-.601562h80v77.480469c-18.886719 9.007812-32 28.238281-32 50.519531v88h-48c-2.679687 0-5.34375-.238281-8-.601562zm199.195313-216h-39.195313v-32c19.3125 0 35.472656 13.769531 39.195313 32zm-55.195313 0h-64v-32h64zm-32 88c-2.71875 0-5.375.265625-8 .640625v-72.640625h16v72.640625c-2.621094-.375-5.277344-.640625-8-.640625zm-48-88h-39.191406c3.722656-18.230469 19.871093-32 39.191406-32zm8 144c0-22.054688 17.945313-40 40-40 22.058594 0 40 17.945312 40 40v81.710938c-12.015625-6.160157-25.589844-9.710938-40-9.710938-14.40625 0-27.980469 3.550781-40 9.710938zm144 88h-48v-88c0-22.28125-13.109375-41.511719-32-50.519531v-77.480469h80c2.679687 0 5.34375.238281 8 .601562v119.398438h-40v16h40v16h-40v16h40v16h-40v16h40v15.398438c-2.65625.363281-5.320313.601562-8 .601562zm24-210.855469c.914063.398438 1.851563.726563 2.738281 1.175781 8.183594 4.078126 13.261719 12.304688 13.261719 21.457032v160.445312c0 9.152344-5.078125 17.371094-13.261719 21.464844-.886718.449219-1.832031.777344-2.738281 1.175781zm48 49.101563v99.507812l-16 4.007813v-107.515625zm-200-158.246094h48c55.808594 0 102.074219 41.070312 110.496094 94.542969-9.582031-4.214844-20.023438-6.542969-30.496094-6.542969h-.636719c-3.90625-27.097656-27.210937-48-55.363281-48h-96c-28.148437 0-51.453125 20.902344-55.359375 48h-.640625c-10.46875 0-20.910156 2.328125-30.496094 6.542969 8.425781-53.472657 54.691407-94.542969 110.496094-94.542969zm-152 257.753906v-99.507812l16-4v107.507812zm-30.261719 132.671875 8.457032-16.921875 56.300781 56.304688-16.917969 8.457031zm93.296875 41.574219c-2.402343 0-4.648437-.929688-6.34375-2.625l-78.066406-78.0625c-1.664063-1.671875-2.625-3.984375-2.625-6.34375 0-4.945312 4.027344-8.96875 8.96875-8.96875 2.402344 0 4.648437.929688 6.34375 2.625l78.066406 78.0625c1.664063 1.671875 2.621094 3.984375 2.621094 6.34375 0 4.945312-4.023437 8.96875-8.964844 8.96875zm-37.722656-82 19.242187-19.238281c1.453126.566406 2.933594 1.054687 4.421876 1.527343l31.714843 31.710938-20.691406 20.6875zm150.6875 114c-39.695313 0-72-32.296875-72-72s32.304687-72 72-72c39.699219 0 72 32.296875 72 72s-32.300781 72-72 72zm95.152344-99.832031 31.875-31.871094c2.453125-.785156 4.863281-1.703125 7.230469-2.730469l18.441406 18.441406-36.859375 36.855469zm17.816406 67.832031c-4.941406 0-8.96875-4.023438-8.96875-8.96875 0-2.359375.960937-4.671875 2.625-6.34375l78.066406-78.0625c1.695313-1.695312 3.941407-2.625 6.34375-2.625 4.941407 0 8.964844 4.023438 8.964844 8.96875 0 2.359375-.957031 4.671875-2.621094 6.34375l-78.066406 78.0625c-1.695313 1.695312-3.941406 2.625-6.34375 2.625zm28.535156-2.191406 56.304688-56.304688 8.457031 16.921875-47.839844 47.839844zm0 0"/></svg>