<svg height="496pt" viewBox="-52 0 496 496" width="496pt" xmlns="http://www.w3.org/2000/svg"><path d="m56 304h32v16h-32zm0 0"/><path d="m96 360h56v16h-56zm0 0"/><path d="m120 392h32v16h-32zm0 0"/><path d="m184 280h32v16h-32zm0 0"/><path d="m296 264c-17.496094 0-33.855469 4.777344-48 12.992188v-44.992188c8.824219 0 16-7.175781 16-16v-16c0-8.824219-7.175781-16-16-16h-224c-8.824219 0-16 7.175781-16 16v16c0 8.824219 7.175781 16 16 16v196.6875l-16.96875 16.96875c-4.535156 4.527344-7.03125 10.558594-7.03125 16.96875v33.375h272v-33.375c0-3.679688-.910156-7.199219-2.472656-10.425781 8.417968 2.425781 17.28125 3.800781 26.472656 3.800781 52.9375 0 96-43.0625 96-96s-43.0625-96-96-96zm79.59375 88h-48.730469c-1.480469-5.6875-4.390625-10.792969-8.464843-14.792969l24.273437-42.039062c18.105469 13.0625 30.59375 33.449219 32.921875 56.832031zm-239.59375 92.289062 30.609375 35.710938h-61.21875zm-48 31.421876-30.609375-35.710938h61.21875zm65.390625-35.710938h61.21875l-30.609375 35.710938zm63.015625-72h48.730469c1.480469 5.6875 4.390625 10.792969 8.464843 14.792969l-24.273437 42.039062c-18.105469-13.0625-30.59375-33.449219-32.921875-56.832031zm32.921875-72.839844 24.273437 42.039063c-4.074218 4-6.984374 9.105469-8.464843 14.792969h-48.730469c2.328125-23.375 14.816406-43.761719 32.921875-56.832032zm30.671875 64.839844c0-8.824219 7.175781-16 16-16s16 7.175781 16 16-7.175781 16-16 16-16-7.175781-16-16zm48.832031-72.871094-24.34375 42.160156c-2.71875-.753906-5.527343-1.289062-8.488281-1.289062s-5.769531.535156-8.496094 1.289062l-24.34375-42.160156c10.039063-4.535156 21.136719-7.128906 32.839844-7.128906s22.800781 2.59375 32.832031 7.128906zm-304.832031-87.128906h224l.007812 16h-224.007812zm208 32v16h-48v16h48v24.648438c-19.585938 17.582031-32 43.015624-32 71.351562 0 24.601562 9.375 46.992188 24.648438 64h-184.648438v-136h48v-16h-48v-40zm-216 230.625c0-2.105469.855469-4.167969 2.34375-5.65625l16.96875-16.96875h1.007812l34.289063 40h-54.609375zm240 17.375h-54.609375l34.289063-40h1.007812l16.96875 16.96875c1.488281 1.496094 2.34375 3.550781 2.34375 5.65625zm7.167969-47.128906 24.335937-42.160156c2.726563.753906 5.535156 1.289062 8.496094 1.289062s5.769531-.535156 8.496094-1.289062l24.335937 42.160156c-10.03125 4.535156-21.128906 7.128906-32.832031 7.128906s-22.800781-2.59375-32.832031-7.128906zm79.503906-8.03125-24.273437-42.046875c4.074218-4 6.984374-9.105469 8.464843-14.792969h48.730469c-2.328125 23.382812-14.816406 43.769531-32.921875 56.839844zm0 0"/><path d="m102.625 73.542969-53.992188 4.90625c-14.039062 1.277343-24.632812 12.871093-24.632812 26.976562 0 12.175781 8.207031 22.925781 19.960938 26.132813l60.445312 16.488281c4.472656 1.21875 7.601562 5.3125 7.601562 9.945313v10.007812h16v-10.015625c0-11.832031-7.976562-22.273437-19.382812-25.382813l-60.449219-16.488281c-4.816406-1.304687-8.175781-5.707031-8.175781-10.6875 0-5.769531 4.335938-10.515625 10.078125-11.035156l54-4.902344c13.632813-1.25 23.921875-12.511719 23.921875-26.207031 0-12.722656-9.089844-23.609375-21.609375-25.882812l-57.925781-10.527344c-4.90625-.902344-8.464844-5.167969-8.464844-10.152344v-16.71875h-16v16.71875c0 12.722656 9.089844 23.609375 21.609375 25.882812l57.925781 10.527344c4.90625.902344 8.464844 5.167969 8.464844 10.152344 0 5.367188-4.03125 9.78125-9.375 10.261719zm0 0"/><path d="m222.625 73.542969-53.992188 4.90625c-14.039062 1.277343-24.632812 12.871093-24.632812 26.976562 0 12.175781 8.207031 22.925781 19.960938 26.132813l60.445312 16.488281c4.472656 1.21875 7.601562 5.3125 7.601562 9.945313v10.007812h16v-10.015625c0-11.832031-7.976562-22.273437-19.382812-25.382813l-60.449219-16.488281c-4.816406-1.304687-8.175781-5.707031-8.175781-10.6875 0-5.769531 4.335938-10.515625 10.078125-11.035156l54-4.902344c13.632813-1.25 23.921875-12.511719 23.921875-26.207031 0-12.722656-9.089844-23.609375-21.609375-25.882812l-57.925781-10.527344c-4.90625-.902344-8.464844-5.167969-8.464844-10.152344v-16.71875h-16v16.71875c0 12.722656 9.089844 23.609375 21.609375 25.882812l57.925781 10.527344c4.90625.902344 8.464844 5.167969 8.464844 10.152344 0 5.367188-4.03125 9.78125-9.375 10.261719zm0 0"/></svg>