<svg height="496pt" viewBox="0 0 496 496" width="496pt" xmlns="http://www.w3.org/2000/svg"><path d="m248 32c-57.34375 0-104 46.65625-104 104s46.65625 104 104 104 104-46.65625 104-104-46.65625-104-104-104zm87.59375 96h-56.730469c-1.480469-5.6875-4.390625-10.792969-8.464843-14.792969l28.296874-49.007812c20.480469 14.496093 34.511719 37.472656 36.898438 63.800781zm-103.59375 8c0-8.824219 7.175781-16 16-16s16 7.175781 16 16-7.175781 16-16 16-16-7.175781-16-16zm52.839844-79.808594-28.351563 49.097656c-2.71875-.753906-5.527343-1.289062-8.488281-1.289062s-5.769531.535156-8.488281 1.289062l-28.351563-49.097656c11.222656-5.207031 23.679688-8.191406 36.839844-8.191406s25.617188 2.984375 36.839844 8.191406zm-87.535156 8 28.296874 49.007813c-4.074218 4-6.984374 9.105469-8.464843 14.792969h-56.730469c2.386719-26.320313 16.417969-49.296876 36.898438-63.800782zm-36.898438 79.808594h56.730469c1.480469 5.6875 4.390625 10.792969 8.464843 14.792969l-28.296874 49.007812c-20.480469-14.496093-34.511719-37.472656-36.898438-63.800781zm50.753906 71.808594 28.351563-49.097656c2.71875.753906 5.527343 1.289062 8.488281 1.289062s5.769531-.535156 8.488281-1.289062l28.351563 49.097656c-11.222656 5.207031-23.679688 8.191406-36.839844 8.191406s-25.617188-2.984375-36.839844-8.191406zm87.535156-8-28.296874-49.015625c4.074218-4 6.984374-9.105469 8.464843-14.792969h56.730469c-2.386719 26.328125-16.417969 49.304688-36.898438 63.808594zm0 0"/><path d="m72 32h56v16h-56zm0 0"/><path d="m72 64h56v16h-56zm0 0"/><path d="m144 32h16v16h-16zm0 0"/><path d="m368 224h56v16h-56zm0 0"/><path d="m368 192h56v16h-56zm0 0"/><path d="m336 224h16v16h-16zm0 0"/><path d="m400 304h14.246094l8-32h9.753906c13.230469 0 24-10.769531 24-24v-224c0-13.230469-10.769531-24-24-24h-368c-13.230469 0-24 10.769531-24 24v224c0 13.230469 10.769531 24 24 24h9.753906l8 32h14.246094v176h-64v16h432v-16h-64zm-256 0h14.246094l8-32h163.507812l8 32h14.246094v176h-208zm224 160h16v16h-16zm16-16h-16v-144h16zm17.753906-160h-51.507812l-4-16h59.507812zm-345.753906-40v-224c0-4.40625 3.59375-8 8-8h368c4.40625 0 8 3.59375 8 8v224c0 4.40625-3.59375 8-8 8h-368c-4.40625 0-8-3.59375-8-8zm34.246094 24h59.507812l-4 16h-51.507812zm37.753906 32v144h-16v-144zm-16 160h16v16h-16zm0 0"/><path d="m0 480h16v16h-16zm0 0"/><path d="m480 480h16v16h-16zm0 0"/></svg>