<svg height="496pt" viewBox="-32 0 496 496" width="496pt" xmlns="http://www.w3.org/2000/svg"><path d="m64 224h304c35.289062 0 64-28.710938 64-64s-28.710938-64-64-64c-.136719 0-.273438.023438-.40625.03125.238281-2.648438.40625-5.320312.40625-8.03125 0-48.519531-39.480469-88-88-88-25.183594 0-47.871094 10.6875-63.929688 27.703125-16.582031-17.703125-39.429687-27.703125-64.070312-27.703125-48.519531 0-88 39.480469-88 88 0 2.671875.160156 5.351562.398438 8.023438-.132813-.007813-.261719-.023438-.398438-.023438-35.289062 0-64 28.710938-64 64s28.710938 64 64 64zm193.472656-128c.992188 2.777344 2.472656 5.289062 4.34375 7.488281l-24.472656 42.382813c-15.734375-11.625-26.609375-29.445313-28.871094-49.871094zm30.527344-8c0 4.414062-3.585938 8-8 8s-8-3.585938-8-8 3.585938-8 8-8 8 3.585938 8 8zm-12.359375 23.558594c1.414063.265625 2.863281.441406 4.359375.441406s2.945312-.175781 4.359375-.441406l24.464844 42.378906c-8.832031 3.878906-18.566407 6.0625-28.824219 6.0625s-19.992188-2.183594-28.824219-6.0625zm47.015625 34.3125-24.472656-42.382813c1.878906-2.199219 3.359375-4.710937 4.34375-7.488281h49c-2.269532 20.425781-13.144532 38.246094-28.871094 49.871094zm28.871094-65.871094h-49c-.992188-2.777344-2.472656-5.289062-4.34375-7.488281l24.472656-42.382813c15.726562 11.625 26.601562 29.445313 28.871094 49.871094zm-42.695313-57.9375-24.464843 42.378906c-1.421876-.265625-2.871094-.441406-4.367188-.441406s-2.945312.175781-4.359375.441406l-24.464844-42.378906c8.832031-3.878906 18.566407-6.0625 28.824219-6.0625s19.992188 2.183594 28.832031 6.0625zm-71.488281 8.066406 24.472656 42.382813c-1.878906 2.199219-3.359375 4.710937-4.34375 7.488281h-49c2.269532-20.425781 13.144532-38.246094 28.871094-49.871094zm-173.34375 81.871094c26.472656 0 48 21.527344 48 48h16c0-29.457031-20.03125-54.265625-47.175781-61.679688-.488281-3.417968-.824219-6.863281-.824219-10.320312 0-39.703125 32.296875-72 72-72 20.984375 0 40.320312 8.9375 54.007812 24.542969-8.824218 13.714843-14.007812 29.976562-14.007812 47.457031 0 48.519531 39.480469 88 88 88 40.105469 0 73.960938-27 84.527344-63.753906 1.160156-.078125 2.304687-.246094 3.472656-.246094 26.472656 0 48 21.527344 48 48s-21.527344 48-48 48h-304c-26.472656 0-48-21.527344-48-48s21.527344-48 48-48zm0 0"/><path d="m112 64h16v16h-16zm0 0"/><path d="m144 64h16v16h-16zm0 0"/><path d="m40 152h16v16h-16zm0 0"/><path d="m72 152h16v16h-16zm0 0"/><path d="m48 410.664062-25.609375 34.152344c-4.117187 5.503906-6.390625 12.320313-6.390625 19.183594 0 17.648438 14.351562 32 32 32s32-14.351562 32-32c0-6.863281-2.273438-13.679688-6.398438-19.191406zm0 69.335938c-8.824219 0-16-7.175781-16-16 0-3.441406 1.144531-6.839844 3.191406-9.601562l12.808594-17.0625 12.800781 17.054687c2.054688 2.769531 3.199219 6.167969 3.199219 9.609375 0 8.824219-7.175781 16-16 16zm0 0"/><path d="m160 330.664062-25.609375 34.152344c-4.117187 5.503906-6.390625 12.320313-6.390625 19.183594 0 17.648438 14.351562 32 32 32s32-14.351562 32-32c0-6.863281-2.273438-13.679688-6.398438-19.191406zm0 69.335938c-8.824219 0-16-7.175781-16-16 0-3.441406 1.144531-6.839844 3.191406-9.601562l12.808594-17.0625 12.800781 17.054687c2.054688 2.769531 3.199219 6.167969 3.199219 9.609375 0 8.824219-7.175781 16-16 16zm0 0"/><path d="m384 322.664062-25.609375 34.152344c-4.117187 5.503906-6.390625 12.320313-6.390625 19.183594 0 17.648438 14.351562 32 32 32s32-14.351562 32-32c0-6.863281-2.273438-13.679688-6.398438-19.191406zm0 69.335938c-8.824219 0-16-7.175781-16-16 0-3.441406 1.144531-6.839844 3.191406-9.601562l12.808594-17.0625 12.800781 17.054687c2.054688 2.769531 3.199219 6.167969 3.199219 9.609375 0 8.824219-7.175781 16-16 16zm0 0"/><path d="m272 410.664062-25.609375 34.152344c-4.117187 5.503906-6.390625 12.320313-6.390625 19.183594 0 17.648438 14.351562 32 32 32s32-14.351562 32-32c0-6.863281-2.273438-13.679688-6.398438-19.191406zm0 69.335938c-8.824219 0-16-7.175781-16-16 0-3.441406 1.144531-6.839844 3.191406-9.601562l12.808594-17.0625 12.800781 17.054687c2.054688 2.769531 3.199219 6.167969 3.199219 9.609375 0 8.824219-7.175781 16-16 16zm0 0"/><path d="m40 240h16v152h-16zm0 0"/><path d="m152 240h16v72h-16zm0 0"/><path d="m264 240h16v152h-16zm0 0"/><path d="m376 240h16v64h-16zm0 0"/><path d="m320 240h16v32h-16zm0 0"/><path d="m320 288h16v16h-16zm0 0"/><path d="m320 320h16v176h-16zm0 0"/><path d="m208 240h16v32h-16zm0 0"/><path d="m208 288h16v16h-16zm0 0"/><path d="m208 320h16v176h-16zm0 0"/><path d="m96 240h16v32h-16zm0 0"/><path d="m96 288h16v16h-16zm0 0"/><path d="m96 320h16v176h-16zm0 0"/></svg>