<svg height="496pt" viewBox="0 0 496 496" width="496pt" xmlns="http://www.w3.org/2000/svg"><path d="m400 208c-52.9375 0-96 43.0625-96 96s43.0625 96 96 96 96-43.0625 96-96-43.0625-96-96-96zm79.59375 88h-48.730469c-1.480469-5.6875-4.390625-10.792969-8.464843-14.792969l24.273437-42.046875c18.105469 13.070313 30.59375 33.457032 32.921875 56.839844zm-95.59375 8c0-8.824219 7.175781-16 16-16s16 7.175781 16 16-7.175781 16-16 16-16-7.175781-16-16zm48.832031-72.871094-24.34375 42.160156c-2.71875-.753906-5.527343-1.289062-8.488281-1.289062s-5.769531.535156-8.488281 1.289062l-24.34375-42.160156c10.03125-4.535156 21.121093-7.128906 32.832031-7.128906s22.800781 2.59375 32.832031 7.128906zm-79.503906 8.03125 24.273437 42.046875c-4.074218 4-6.984374 9.105469-8.464843 14.792969h-48.730469c2.328125-23.382812 14.816406-43.769531 32.921875-56.839844zm-32.921875 72.839844h48.730469c1.480469 5.6875 4.390625 10.792969 8.464843 14.792969l-24.273437 42.046875c-18.105469-13.070313-30.59375-33.457032-32.921875-56.839844zm46.761719 64.871094 24.34375-42.160156c2.71875.753906 5.527343 1.289062 8.488281 1.289062s5.769531-.535156 8.488281-1.289062l24.34375 42.160156c-10.03125 4.535156-21.121093 7.128906-32.832031 7.128906s-22.800781-2.59375-32.832031-7.128906zm79.503906-8.03125-24.273437-42.046875c4.074218-4 6.984374-9.105469 8.464843-14.792969h48.730469c-2.328125 23.382812-14.816406 43.769531-32.921875 56.839844zm0 0"/><path d="m288 160c0-10.414062-6.710938-19.214844-16-22.527344v-51.394531c0-5.878906-2.152344-11.542969-6.0625-15.941406l-54.640625-61.472657c-4.898437-5.503906-11.929687-8.664062-19.296875-8.664062s-14.398438 3.160156-19.296875 8.664062l-54.640625 61.472657c-3.910156 4.398437-6.0625 10.0625-6.0625 15.941406v51.394531c-9.289062 3.3125-16 12.113282-16 22.527344s6.710938 19.214844 16 22.527344v34.953125c-9.289062 3.3125-16 12.113281-16 22.527343 0 10.417969 6.710938 19.214844 16 22.527344v27.863282c0 5.441406 1.871094 10.769531 5.265625 14.992187l16.910156 21.136719-30.175781 30.160156v137.746094l59.359375-37.097656-4.296875 38.664062h65.875l-4.296875-38.664062 59.359375 37.097656v-137.746094l-30.167969-30.167969 16.902344-21.128906c3.394531-4.238281 5.265625-9.566406 5.265625-15.007813v-27.863281c9.289062-3.3125 16-12.113281 16-22.527343 0-10.417969-6.710938-19.214844-16-22.527344v-34.953125c9.289062-3.296875 16-12.097657 16-22.511719zm-160 56v-32h128v32zm128-128v48h-128v-48zm-71.335938-68.703125c3.71875-4.183594 10.953126-4.183594 14.671876 0l46.847656 52.703125h-108.367188zm-64.664062 132.703125h144c4.40625 0 8 3.59375 8 8s-3.59375 8-8 8h-144c-4.40625 0-8-3.59375-8-8s3.59375-8 8-8zm0 313.566406v-102.253906l24.222656-24.222656 28.335938 35.421875-6.949219 62.550781zm56.9375 14.433594 14.125-127.167969c.113281-.953125 1.761719-.953125 1.867188 0l14.132812 127.167969zm87.0625-116.6875v102.253906l-45.617188-28.503906-6.949218-62.550781 28.335937-35.414063zm-9.753906-67.929688-45.300782 56.632813-.105468-.960937c-.960938-8.574219-8.199219-15.054688-16.839844-15.054688s-15.878906 6.480469-16.832031 15.0625l-.105469.953125-45.308594-56.640625c-1.128906-1.398438-1.753906-3.175781-1.753906-4.992188v-26.382812h128v26.382812c0 1.816407-.625 3.59375-1.753906 5zm9.753906-47.382812h-144c-4.40625 0-8-3.59375-8-8s3.59375-8 8-8h144c4.40625 0 8 3.59375 8 8s-3.59375 8-8 8zm0 0"/><path d="m0 0h16v128h-16zm0 0"/><path d="m0 144h16v16h-16zm0 0"/><path d="m32 72h16v128h-16zm0 0"/><path d="m32 40h16v16h-16zm0 0"/><path d="m64 0h16v128h-16zm0 0"/><path d="m64 144h16v16h-16zm0 0"/><path d="m304 0h16v128h-16zm0 0"/><path d="m304 144h16v16h-16zm0 0"/><path d="m336 72h16v128h-16zm0 0"/><path d="m336 40h16v16h-16zm0 0"/><path d="m368 0h16v128h-16zm0 0"/><path d="m368 144h16v16h-16zm0 0"/></svg>