<svg height="496pt" viewBox="0 0 496 496" width="496pt" xmlns="http://www.w3.org/2000/svg"><path d="m144 96c-30.871094 0-56 25.121094-56 56 0 16.894531 7.703125 27.496094 16 35.488281v36.511719h80v-36.511719c8.296875-7.992187 16-18.59375 16-35.488281 0-30.878906-25.128906-56-56-56zm26.65625 82.046875-2.65625 2.386719v27.566406h-16v-24h-16v24h-16v-27.566406l-2.65625-2.386719c-9.726562-8.726563-13.34375-15.78125-13.34375-26.046875 0-22.054688 17.945312-40 40-40s40 17.945312 40 40c0 10.265625-3.617188 17.320312-13.34375 26.046875zm0 0"/><path d="m160 144h16v16h-16zm0 0"/><path d="m112 144h16v16h-16zm0 0"/><path d="m282.527344 248h154.9375c14.640625 0 26.535156-11.894531 26.535156-26.527344 0-5.121094-1.472656-10.105468-4.246094-14.417968l-80.691406-124.6875c-4.207031-6.496094-11.328125-10.367188-19.0625-10.367188s-14.855469 3.871094-19.0625 10.367188l-80.691406 124.695312c-2.773438 4.304688-4.246094 9.289062-4.246094 14.410156 0 14.632813 11.894531 26.527344 26.527344 26.527344zm-8.839844-32.246094 80.6875-124.691406c1.234375-1.917969 3.34375-3.0625 5.625-3.0625s4.390625 1.144531 5.625 3.0625l80.6875 124.679688c1.101562 1.714843 1.6875 3.699218 1.6875 5.730468 0 5.808594-4.726562 10.527344-10.527344 10.527344h-154.945312c-5.800782 0-10.527344-4.71875-10.527344-10.527344 0-2.03125.585938-4.015625 1.6875-5.71875zm0 0"/><path d="m352 112h16v72h-16zm0 0"/><path d="m352 200h16v16h-16zm0 0"/><path d="m440 384h-172c-6.617188 0-12-5.382812-12-12s5.382812-12 12-12h32c15.441406 0 28-12.558594 28-28s-12.558594-28-28-28h-48c-6.617188 0-12-5.382812-12-12v-4c8.824219 0 16-7.175781 16-16v-16c0-8.824219-7.175781-16-16-16v-160c8.824219 0 16-7.175781 16-16v-16c0-8.824219-7.175781-16-16-16h-16v-32h-60.945312l-16 32h-99.054688c-8.824219 0-16 7.175781-16 16v16c0 8.824219 7.175781 16 16 16v160c-8.824219 0-16 7.175781-16 16v16c0 8.824219 7.175781 16 16 16h128v32c0 4.40625-3.585938 8-8 8h-80c-17.648438 0-32 14.351562-32 32s14.351562 32 32 32h92c6.617188 0 12 5.382812 12 12s-5.382812 12-12 12h-140c-22.054688 0-40 17.945312-40 40s17.945312 40 40 40h400c30.871094 0 56-25.121094 56-56s-25.128906-56-56-56zm-267.054688-368h35.054688v16h-43.054688zm-124.945312 32h192l.007812 16h-192.007812zm16 32h160v160h-160zm-16 176h192l.007812 16h-192.007812zm392 224h-400c-13.230469 0-24-10.769531-24-24s10.769531-24 24-24h140c15.441406 0 28-12.558594 28-28s-12.558594-28-28-28h-92c-8.824219 0-16-7.175781-16-16s7.175781-16 16-16h80c13.230469 0 24-10.769531 24-24v-32h32v4c0 15.441406 12.558594 28 28 28h48c6.617188 0 12 5.382812 12 12s-5.382812 12-12 12h-32c-15.441406 0-28 12.558594-28 28s12.558594 28 28 28h172c22.054688 0 40 17.945312 40 40s-17.945312 40-40 40zm0 0"/><path d="m448 432h16v16h-16zm0 0"/><path d="m288 432h144v16h-144zm0 0"/><path d="m256 432h16v16h-16zm0 0"/><path d="m32 448h16v16h-16zm0 0"/><path d="m64 448h136v16h-136zm0 0"/><path d="m200 336h16v16h-16zm0 0"/></svg>