<svg height="496pt" viewBox="0 0 496 496" width="496pt" xmlns="http://www.w3.org/2000/svg"><path d="m248 224c-44.113281 0-80 35.886719-80 80s35.886719 80 80 80 80-35.886719 80-80-35.886719-80-80-80zm0 144c-35.289062 0-64-28.710938-64-64s28.710938-64 64-64 64 28.710938 64 64-28.710938 64-64 64zm0 0"/><path d="m274.34375 266.34375-26.34375 26.34375-26.34375-26.34375-11.3125 11.3125 26.34375 26.34375-26.34375 26.34375 11.3125 11.3125 26.34375-26.34375 26.34375 26.34375 11.3125-11.3125-26.34375-26.34375 26.34375-26.34375zm0 0"/><path d="m16 248c0-42.902344 11.847656-84.480469 34.078125-120.824219 1.90625.488281 3.867187.824219 5.921875.824219 13.230469 0 24-10.769531 24-24 0-4.441406-1.296875-8.542969-3.398438-12.121094 14.0625-15.4375 30-29.007812 47.671876-40.167968l-8.546876-13.527344c-19.0625 12.046875-36.253906 26.703125-51.390624 43.402344-2.609376-.976563-5.390626-1.585938-8.335938-1.585938-13.230469 0-24 10.769531-24 24 0 5.351562 1.824219 10.246094 4.792969 14.238281-24 38.992188-36.792969 83.671875-36.792969 129.761719 0 40.304688 9.886719 80.328125 28.609375 115.734375l14.144531-7.46875c-17.507812-33.113281-26.753906-70.554687-26.753906-108.265625zm40-152c4.414062 0 8 3.585938 8 8s-3.585938 8-8 8-8-3.585938-8-8 3.585938-8 8-8zm0 0"/><path d="m248 0c-22.433594 0-44.671875 3-66.128906 8.910156l4.25 15.425782c20.070312-5.527344 40.886718-8.335938 61.878906-8.335938 127.921875 0 232 104.078125 232 232s-104.078125 232-232 232c-61.105469 0-118.777344-23.550781-162.398438-66.320312l-11.203124 11.425781c46.640624 45.71875 108.289062 70.894531 173.601562 70.894531 136.753906 0 248-111.246094 248-248s-111.246094-248-248-248zm0 0"/><path d="m57.488281 225.007812c-10.054687 2.863282-17.488281 12.03125-17.488281 22.992188 0 10.953125 7.414062 20.105469 17.449219 22.976562 6.957031 58.113282 40.359375 110.113282 90.582031 140.824219l2.136719 15.480469c1.632812 11.816406 11.847656 20.71875 23.777343 20.71875h148.109376c11.921874 0 22.144531-8.902344 23.777343-20.71875l2.144531-15.546875c16.550782-10.117187 31.328126-22.605469 44.128907-37.175781 2.488281.875 5.109375 1.441406 7.894531 1.441406 13.230469 0 24-10.769531 24-24 0-5.902344-2.222656-11.246094-5.777344-15.433594 7.746094-14.832031 13.601563-30.519531 17.21875-46.839844l-15.625-3.453124c-3.25 14.671874-8.496094 28.796874-15.390625 42.175781-1.433593-.273438-2.90625-.449219-4.425781-.449219-13.230469 0-24 10.769531-24 24 0 4.609375 1.367188 8.871094 3.625 12.527344-8.65625 9.769531-18.21875 18.570312-28.753906 26.167968l24.625-178.542968c.335937-2.390625.503906-4.816406.503906-7.25 0-25.183594-17.929688-47.054688-42.625-51.992188l-30.949219-6.183594c-3.722656-.742187-6.425781-4.039062-6.425781-7.847656v-17.886718l6.238281-24.992188h1.761719c6.40625 0 11.902344-3.808594 14.457031-9.265625 23.335938 10.21875 44.230469 25.480469 61.214844 44.648437-2.289063 3.671876-3.671875 7.976563-3.671875 12.617188 0 13.230469 10.769531 24 24 24 1.519531 0 3-.175781 4.441406-.449219 6.894532 13.371094 12.132813 27.496094 15.390625 42.183594l15.625-3.46875c-3.625-16.335937-9.488281-32.027344-17.21875-46.851563 3.546875-4.183593 5.761719-9.519531 5.761719-15.414062 0-13.230469-10.769531-24-24-24-2.742188 0-5.335938.558594-7.792969 1.40625-19.792969-22.511719-44.527343-40.101562-72.207031-51.316406v-6.089844c0-8.824219-7.175781-16-16-16h-112c-8.824219 0-16 7.175781-16 16v6.113281c-64.632812 26.183594-110.214844 85.863281-118.511719 154.894531zm342.511719 118.992188c4.414062 0 8 3.585938 8 8s-3.585938 8-8 8-8-3.585938-8-8 3.585938-8 8-8zm8-200c0 4.414062-3.585938 8-8 8s-8-3.585938-8-8 3.585938-8 8-8 8 3.585938 8 8zm-344 96c4.414062 0 8 3.585938 8 8s-3.585938 8-8 8-8-3.585938-8-8 3.585938-8 8-8zm258.054688 192h-148.109376c-3.976562 0-7.386718-2.96875-7.929687-6.902344l-1.253906-9.097656h166.476562l-1.253906 9.097656c-.542969 3.933594-3.953125 6.902344-7.929687 6.902344zm11.394531-32h-170.898438l-26.207031-190.03125c-.085938-.65625-.078125-1.3125-.136719-1.96875h223.585938c-.058594.65625-.050781 1.3125-.136719 1.96875zm-34.160157-237.585938 30.941407 6.1875c12.824219 2.566407 23.007812 11.671876 27.402343 23.398438h-219.265624c4.394531-11.726562 14.578124-20.832031 27.402343-23.398438l30.933594-6.1875c11.175781-2.230468 19.296875-12.125 19.296875-23.535156v-10.878906h64v10.878906c0 11.410156 8.121094 21.304688 19.289062 23.535156zm-17.535156-50.414062h-67.507812l-4.007813-16h75.515625zm-89.753906-48h112l.015625 16h-112.015625zm1.761719 32 6.238281 24.992188v17.886718c0 3.808594-2.703125 7.105469-6.433594 7.839844l-30.941406 6.183594c-24.695312 4.945312-42.625 26.816406-42.625 52 0 2.433594.167969 4.851562.496094 7.25l24.625 178.511718c-39.488282-28.519531-65.601563-72.207031-71.679688-120.617187 8.550782-3.671875 14.558594-12.167969 14.558594-22.046875 0-9.863281-5.992188-18.351562-14.519531-22.03125 7.703125-61.296875 47.472656-114.433594 104.078125-139.199219 2.554687 5.429688 8.050781 9.230469 14.441406 9.230469zm0 0"/><path d="m424 224v16h-16v16h16v16h16v-16h16v-16h-16v-16zm0 0"/><path d="m80 400v-16h-16v-16h-16v16h-16v16h16v16h16v-16zm0 0"/><path d="m136 48h16v-16h16v-16h-16v-16h-16v16h-16v16h16zm0 0"/></svg>