<svg height="496pt" viewBox="-64 0 496 496" width="496pt" xmlns="http://www.w3.org/2000/svg"><path d="m232 136c0 4.417969-3.582031 8-8 8s-8-3.582031-8-8 3.582031-8 8-8 8 3.582031 8 8zm0 0"/><path d="m152 136c0 4.417969-3.582031 8-8 8s-8-3.582031-8-8 3.582031-8 8-8 8 3.582031 8 8zm0 0"/><path d="m325.574219 279.160156-22.101563-5.527344c.214844-1.335937.527344-2.640624.527344-4.007812 0-5.257812-1.535156-10.351562-4.464844-14.746094l-8.085937-12.136718c7.949219-10.988282 12.550781-24.300782 12.550781-38.519532v-84.222656c0-66.167969-53.832031-120-120-120s-120 53.832031-120 120v84.222656c0 14.21875 4.601562 27.539063 12.550781 38.53125l-8.09375 12.140625c-2.921875 4.378907-4.457031 9.472657-4.457031 14.730469 0 1.367188.3125 2.671875.519531 4.007812l-22.105469 5.527344c-24.964843 6.230469-42.414062 28.566406-42.414062 54.320313v162.519531h368v-162.519531c0-25.753907-17.449219-48.089844-42.425781-54.320313zm-37.574219 200.839844h-80v-136.457031l83.351562-51.296875c1.808594-1.101563 3.410157-2.460938 4.871094-3.941406l17.097656 4.269531c-16.367187 20.632812-25.320312 45.953125-25.320312 72.683593zm-211.359375-187.753906 83.359375 51.296875v136.457031h-80v-114.742188c0-26.730468-8.953125-52.058593-25.320312-72.683593l17.097656-4.269531c1.453125 1.480468 3.0625 2.839843 4.863281 3.941406zm99.359375 58.777344c2.617188.59375 5.289062.976562 8 .976562s5.382812-.382812 8-.976562v128.976562h-16zm8-335.023438c33.945312 0 64.046875 16.414062 83.039062 41.648438l-30.648437 30.648437c-1-.128906-1.992187-.296875-3.015625-.296875h-98.75c-1.023438 0-2.015625.167969-3.015625.296875l-30.648437-30.648437c18.992187-25.234376 49.09375-41.648438 83.039062-41.648438zm-72 160h48v67.800781c-27.921875-9.921875-48-36.527343-48-67.800781zm64 0h16v71.527344c-2.632812.296875-5.296875.472656-8 .472656s-5.367188-.175781-8-.472656zm32 0h48c0 31.273438-20.078125 57.878906-48 67.800781zm-96-16v-33.367188c0-2.136718.832031-4.152343 2.34375-5.664062l14.625-14.625c1.496094-1.488281 3.550781-2.34375 5.65625-2.34375h98.75c2.105469 0 4.167969.855469 5.65625 2.34375l14.625 14.625c1.511719 1.511719 2.34375 3.527344 2.34375 5.664062v33.367188zm-32-40c0-17.542969 4.40625-34.0625 12.113281-48.574219l24.574219 24.574219-13.65625 13.65625c-4.535156 4.527344-7.03125 10.558594-7.03125 16.976562v49.367188c0 48.519531 39.480469 88 88 88s88-39.480469 88-88v-49.367188c0-6.410156-2.496094-12.441406-7.03125-16.976562l-13.65625-13.65625 24.574219-24.574219c7.707031 14.511719 12.113281 31.03125 12.113281 48.574219v84.222656c0 19.015625-10.566406 36.121094-27.574219 44.625l7.160157 14.3125c4.621093-2.3125 8.78125-5.207031 12.636718-8.40625l6 9c1.160156 1.75 1.777344 3.773438 1.777344 5.871094 0 3.648438-1.921875 7.09375-5.03125 9l-88.351562 54.367188c-6.394532 3.9375-14.839844 3.9375-21.234376 0l-88.359374-54.367188c-3.101563-1.90625-5.023438-5.351562-5.023438-9 0-2.097656.617188-4.128906 1.777344-5.863281l6.007812-9.007813c3.855469 3.199219 8.015625 6.09375 12.640625 8.40625l7.160157-14.3125c-17.019532-8.511718-27.585938-25.609375-27.585938-44.625zm-64 213.480469c0-15.402344 8.800781-28.992188 22.121094-35.65625 16.664062 18.582031 25.878906 42.273437 25.878906 67.433593v114.742188h-48zm336 146.519531h-48v-114.742188c0-25.160156 9.214844-48.851562 25.878906-67.441406 13.320313 6.664063 22.121094 20.261719 22.121094 35.664063zm0 0"/><path d="m96 376h48v16h-48zm0 0"/><path d="m224 376h48v16h-48zm0 0"/></svg>