<svg height="496pt" viewBox="0 0 496 496" width="496pt" xmlns="http://www.w3.org/2000/svg"><path d="m344 184c-5.144531 0-10.167969.503906-15.113281 1.222656 14.425781-17.855468 23.113281-40.535156 23.113281-65.222656 0-57.34375-46.65625-104-104-104s-104 46.65625-104 104c0 24.6875 8.6875 47.367188 23.113281 65.222656-4.945312-.71875-9.96875-1.222656-15.113281-1.222656-57.34375 0-104 46.65625-104 104s46.65625 104 104 104c43.199219 0 80.3125-26.488281 96-64.0625 15.6875 37.574219 52.800781 64.0625 96 64.0625 57.34375 0 104-46.65625 104-104s-46.65625-104-104-104zm-96-152c48.519531 0 88 39.480469 88 88s-39.480469 88-88 88-88-39.480469-88-88 39.480469-88 88-88zm15.113281 190.777344c-6.160156 7.621094-11.28125 16.117187-15.113281 25.285156-3.832031-9.167969-8.953125-17.664062-15.113281-25.285156 4.945312.71875 9.96875 1.222656 15.113281 1.222656s10.167969-.503906 15.113281-1.222656zm-111.113281 153.222656c-48.519531 0-88-39.480469-88-88s39.480469-88 88-88 88 39.480469 88 88-39.480469 88-88 88zm192 0c-48.519531 0-88-39.480469-88-88s39.480469-88 88-88 88 39.480469 88 88-39.480469 88-88 88zm0 0"/><path d="m224 176h48v-32h32v-48h-32v-32h-48v32h-32v48h32zm-16-48v-16h32v-32h16v32h32v16h-32v32h-16v-32zm0 0"/><path d="m368 232h-48v32h-32v48h32v32h48v-32h32v-48h-32zm16 48v16h-32v32h-16v-32h-32v-16h32v-32h16v32zm0 0"/><path d="m192.902344 417.464844-28.902344 38.535156h-52v16h60l19.097656-25.464844 28.261719 49.464844h164.640625v-16h-155.359375zm0 0"/><path d="m232 408h120v16h-120zm0 0"/><path d="m232 440h152v16h-152zm0 0"/><path d="m368 408h16v16h-16zm0 0"/><path d="m416 32h16v16h-16zm0 0"/><path d="m448 32h16v16h-16zm0 0"/><path d="m480 32h16v16h-16zm0 0"/><path d="m402.726562 0-24 56h-26.726562v16h37.273438l24-56h82.726562v-16zm0 0"/><path d="m0 0h128v16h-128zm0 0"/><path d="m32 32h96v16h-96zm0 0"/><path d="m0 32h16v16h-16zm0 0"/><path d="m0 64h128v16h-128zm0 0"/></svg>