<svg height="496pt" viewBox="-24 0 496 496" width="496pt" xmlns="http://www.w3.org/2000/svg"><path d="m112 240c-26.472656 0-48 21.527344-48 48s21.527344 48 48 48 48-21.527344 48-48-21.527344-48-48-48zm0 80c-17.648438 0-32-14.351562-32-32s14.351562-32 32-32 32 14.351562 32 32-14.351562 32-32 32zm0 0"/><path d="m72 352h16v16h-16zm0 0"/><path d="m104 352h16v16h-16zm0 0"/><path d="m136 352h16v16h-16zm0 0"/><path d="m192 112h-160v80h160zm-16 32h-52.945312l-10.007813 20.007812-13.503906-36.007812h76.457031zm-100.945312-16-8 16h-19.054688v-16zm-27.054688 32h28.945312l10.007813-20.007812 13.503906 36.007812h-52.457031zm76.945312 16 8-16h43.054688v16zm0 0"/><path d="m448 104c0-57.34375-46.65625-104-104-104s-104 46.65625-104 104c0 49.070312 34.207031 90.214844 80 101.097656v42.902344h-16v112h16v48h16c0 39.695312-32.296875 72-72 72h-72c-37 0-67.535156-28.054688-71.527344-64h79.527344c13.230469 0 24-10.769531 24-24v-288c0-13.230469-10.769531-24-24-24h-16v-32h-16.640625c-3.902344-27.097656-27.207031-48-55.359375-48-30.871094 0-56 25.121094-56 56v24h-32c-13.230469 0-24 10.769531-24 24v288c0 13.230469 10.769531 24 24 24h80.40625c4.058594 44.785156 41.769531 80 87.59375 80h72c48.519531 0 88-39.480469 88-88h16v-48h16v-112h-16v-42.902344c45.792969-10.882812 80-52.027344 80-101.097656zm-256 152h16v16h-16zm0-16c0-10.414062 6.710938-19.214844 16-22.527344v22.527344zm0 48h16v16h-16zm0 32h16v16h-16zm0 32h16v16h-16zm8 48h-8v-16h16v8c0 4.40625-3.585938 8-8 8zm-48-320v-16h16v16zm-80-24c0-22.054688 17.945312-40 40-40 19.3125 0 35.472656 13.769531 39.191406 32h-15.191406v32h-64zm-48 40h176c4.414062 0 8 3.59375 8 8v96.808594c-18.230469 3.71875-32 19.871094-32 39.191406v160h-128v-160c0-19.3125-13.769531-35.472656-32-39.191406v-96.808594c0-4.40625 3.585938-8 8-8zm8 160v16h-16v-16zm-16-16v-22.527344c9.289062 3.3125 16 12.113282 16 22.527344zm16 48v16h-16v-16zm0 32v16h-16v-16zm0 32v16h-16v-16zm-16 40v-8h16v16h-8c-4.414062 0-8-3.59375-8-8zm240-288c0-48.519531 39.480469-88 88-88s88 39.480469 88 88-39.480469 88-88 88-88-39.480469-88-88zm96 288h-16v-32h16zm16-48h-48v-80h48zm-16-96h-16v-40.40625c2.648438.207031 5.296875.40625 8 .40625s5.351562-.199219 8-.40625zm0 0"/><path d="m416 104c0-39.695312-32.296875-72-72-72s-72 32.304688-72 72 32.296875 72 72 72 72-32.304688 72-72zm-112 39.113281v-15.113281h-10.519531c-2.375-4.976562-4.023438-10.351562-4.839844-16h15.359375v-16h-15.359375c.816406-5.648438 2.464844-11.023438 4.839844-16h10.519531v-15.113281c10.175781-10.40625 24.335938-16.886719 40-16.886719s29.824219 6.480469 40 16.886719v15.113281h10.519531c2.375 4.976562 4.03125 10.351562 4.839844 16h-15.359375v16h15.359375c-.816406 5.648438-2.464844 11.023438-4.839844 16h-10.519531v15.113281c-10.175781 10.40625-24.335938 16.886719-40 16.886719s-29.824219-6.480469-40-16.886719zm0 0"/><path d="m320 64h16v16h-16zm0 0"/><path d="m352 64h16v16h-16zm0 0"/><path d="m320 96h16v16h-16zm0 0"/><path d="m352 96h16v16h-16zm0 0"/><path d="m320 128h16v16h-16zm0 0"/><path d="m352 128h16v16h-16zm0 0"/></svg>