<svg height="493pt" viewBox="0 0 493 493.336" width="493pt" xmlns="http://www.w3.org/2000/svg"><path d="m247.40625 265.761719 14.3125 7.160156 4.105469-8.203125c3.105469-6.214844 4.742187-13.160156 4.742187-20.09375 0-11.992188-4.671875-23.273438-13.160156-31.753906-6.992188-6.992188-10.839844-16.296875-10.839844-26.191406v-20.296876l-27.199218 18.128907c-8.015626 5.34375-12.800782 14.289062-12.800782 23.921875 0 4.4375 1.050782 8.878906 3.035156 12.847656l.613282 1.03125c8.082031 11.488281 12.351562 24.976562 12.351562 39.015625v8.007813h16v-8.007813c0-17.128906-5.140625-33.59375-14.871094-47.65625-.734374-1.640625-1.128906-3.441406-1.128906-5.230469 0-4.273437 2.128906-8.234375 5.671875-10.609375l3.105469-2.0625c1.832031 10.710938 6.914062 20.574219 14.761719 28.414063 5.453125 5.464844 8.460937 12.71875 8.460937 20.441406 0 4.464844-1.054687 8.925781-3.054687 12.917969zm0 0"/><path d="m177.089844 263.046875c2.269531-6.816406 3.839844-13.800781 4.703125-20.878906 5.464843 4.703125 8.773437 11.640625 8.773437 19.167969h16c0-17.808594-11.34375-33.550782-28.238281-39.183594l-11.761719-3.90625v11.089844c0 9.753906-1.558594 19.390624-4.65625 28.65625l-1.167968 3.511718c-1.4375 4.328125-2.175782 8.839844-2.175782 13.417969 0 14.207031 7.058594 27.40625 18.882813 35.285156l8.679687 5.785157 8.871094-13.3125-8.679688-5.785157c-7.351562-4.902343-11.753906-13.117187-11.753906-21.972656 0-2.851563.457032-5.65625 1.363282-8.363281zm0 0"/><path d="m326.566406 218.246094-11.765625 3.914062c-16.890625 5.625-28.234375 21.367188-28.234375 39.175782h16c0-7.527344 3.3125-14.464844 8.777344-19.167969.855469 7.078125 2.433594 14.0625 4.695312 20.871093l1.175782 3.527344c.898437 2.699219 1.351562 5.503906 1.351562 8.355469 0 8.847656-4.398437 17.070313-11.757812 21.972656l-8.679688 5.785157 8.871094 13.3125 8.679688-5.785157c11.832031-7.878906 18.878906-21.078125 18.878906-35.285156 0-4.578125-.734375-9.097656-2.167969-13.410156l-1.175781-3.527344c-3.085938-9.257813-4.648438-18.894531-4.648438-28.648437zm0 0"/><path d="m161.769531 166.9375c8.246094 11 12.796875 24.648438 12.796875 38.398438h16c0-17.191407-5.679687-34.238282-16-48l-1.917968-2.558594c-3.921876-5.234375-6.082032-11.707032-6.082032-18.242188 0-9.519531 4.546875-18.605468 12.160156-24.320312l3.839844-2.878906c0 12.457031 4.847656 24.167968 13.65625 32.96875l1.378906 1.375c5.78125 5.785156 8.964844 13.480468 8.964844 21.65625h16c0-12.457032-4.847656-24.167969-13.65625-32.96875l-1.375-1.375c-5.78125-5.785157-8.96875-13.480469-8.96875-21.65625v-32l-29.4375 22.078124c-11.625 8.714844-18.5625 22.585938-18.5625 37.121094 0 9.976563 3.296875 19.863282 9.28125 27.839844zm0 0"/><path d="m268.222656 132.367188c-8.808594 8.800781-13.65625 20.511718-13.65625 32.96875h16c0-8.175782 3.1875-15.871094 8.96875-21.65625l1.375-1.375c8.808594-8.800782 13.65625-20.511719 13.65625-32.96875l3.839844 2.878906c7.617188 5.714844 12.160156 14.800781 12.160156 24.320312 0 6.535156-2.160156 13.007813-6.078125 18.242188l-1.921875 2.558594c-10.320312 13.761718-16 30.808593-16 48h16c0-13.75 4.546875-27.390626 12.800782-38.398438l1.921874-2.5625c5.984376-7.976562 9.277344-17.863281 9.277344-27.839844 0-14.527344-6.933594-28.40625-18.558594-37.121094l-29.441406-22.078124v32c0 8.175781-3.183594 15.871093-8.964844 21.65625zm0 0"/><path d="m224.910156 98.992188 11.3125-11.3125-7.511718-7.511719c-3.96875-3.96875-6.144532-9.230469-6.144532-14.832031 0-5.601563 2.175782-10.863282 6.144532-14.832032 3.625-3.625 6.328124-7.9375 7.976562-12.640625 11.375 13.023438 17.878906 29.945313 17.878906 47.472657h16c0-27.542969-13.160156-53.863282-35.191406-70.398438l-12.808594-9.601562v21.375c0 4.722656-1.832031 9.152343-5.167968 12.488281-6.992188 6.984375-10.832032 16.265625-10.832032 26.136719 0 9.871093 3.839844 19.152343 10.832032 26.144531zm0 0"/><path d="m281.351562 309.167969c-4.65625-4.984375-11.238281-7.832031-18.054687-7.832031-6.449219 0-12.273437 2.542968-16.679687 6.671874-4.417969-4.105468-10.289063-6.671874-16.777344-6.671874-6.824219 0-13.398438 2.847656-18.054688 7.832031l-134.5625 141.886719c-4.292968 4.59375-6.65625 10.585937-6.65625 17.554687 0 13.628906 11.097656 24.726563 24.730469 24.726563 6.832031 0 13.421875-2.855469 18.039063-7.808594l64.792968-68.320313-17.015625 36.882813c-1.699219 3.652344-2.546875 7.535156-2.546875 11.671875 0 15.199219 12.378906 27.574219 27.578125 27.574219 10.632813 0 20.421875-6.214844 24.953125-15.832032l35.46875-75.375 35.472656 75.367188c4.527344 9.625 14.320313 15.839844 24.953126 15.839844 15.199218 0 27.574218-12.375 27.574218-27.703126 0-4.007812-.847656-7.890624-2.535156-11.554687l-17.007812-36.855469 64.738281 68.265625c4.652343 4.992188 11.246093 7.847657 18.078125 7.847657 13.632812 0 24.726562-11.097657 24.726562-25.40625 0-6.289063-2.359375-12.28125-6.695312-16.921876zm-179.671874 165.390625c-1.640626 1.769531-3.96875 2.777344-6.382813 2.777344-4.816406 0-8.730469-3.910157-8.730469-9.40625 0-2.21875.832032-4.335938 2.304688-5.90625l134.535156-141.863282.050781-.046875c1.640625-1.769531 3.96875-2.777343 6.382813-2.777343 4.816406 0 8.726562 3.910156 8.726562 9.40625 0 2.21875-.832031 4.335937-2.300781 5.90625zm94.9375-3.871094c-1.898438 4.039062-6.007813 6.648438-10.472657 6.648438-6.382812 0-11.578125-5.191407-11.578125-11.703126 0-1.679687.363282-3.3125 1.074219-4.847656l36.816406-79.777344 16.160157-17.039062 9.109374 19.367188zm120.878906-9.910156c.710937 1.542968 1.070312 3.175781 1.070312 4.984375 0 6.382812-5.191406 11.574219-11.574218 11.574219-4.464844 0-8.566407-2.609376-10.472657-6.648438l-56.085937-119.183594 6.132812-6.464844 34.121094 35.984376zm80.34375 16.558594c-2.414063 0-4.742188-1.007813-6.433594-2.824219l-134.496094-141.816407c-1.511718-1.617187-2.34375-3.734374-2.34375-6.632812 0-4.816406 3.914063-8.726562 8.730469-8.726562 2.414063 0 4.742187 1.007812 6.382813 2.777343l134.542968 141.863281c1.511719 1.617188 2.34375 3.734376 2.34375 6.632813 0 4.816406-3.910156 8.726563-8.726562 8.726563zm0 0"/><path d="m492.96875 168.535156-30.402344-40.535156-30.398437 40.535156 12.800781 9.601563 9.597656-12.800781v28c0 5.601562-2.175781 10.863281-6.140625 14.832031l-7.035156 7.03125c-6.984375 6.984375-10.824219 16.265625-10.824219 26.136719 0 9.726562 3.945313 19.257812 10.832032 26.144531l7.035156 7.03125c3.894531 3.902343 6.132812 9.304687 6.132812 14.824219v44h16v-44c0-9.734376-3.941406-19.257813-10.832031-26.144532l-7.03125-7.03125c-3.894531-3.894531-6.136719-9.304687-6.136719-14.824218 0-5.601563 2.175782-10.863282 6.144532-14.832032l7.03125-7.03125c6.984374-6.984375 10.824218-16.265625 10.824218-26.136718v-28l9.601563 12.800781zm0 0"/><path d="m368.425781 80.167969-7.035156 7.03125c-6.984375 6.984375-10.824219 16.265625-10.824219 26.136719 0 9.871093 3.839844 19.152343 10.832032 26.144531l7.035156 7.03125c5.125 5.136719 6.132812 6.511719 6.132812 10.824219h16c0-11.304688-5.503906-16.816407-10.832031-22.144532l-7.03125-7.03125c-3.960937-3.960937-6.136719-9.222656-6.136719-14.824218 0-5.601563 2.175782-10.863282 6.144532-14.832032l7.03125-7.03125c6.984374-6.984375 10.824218-16.265625 10.824218-26.136718v-28l9.601563 12.800781 12.800781-9.601563-30.402344-40.535156-30.398437 40.535156 12.800781 9.601563 9.597656-12.800781v28c0 5.601562-2.175781 10.863281-6.140625 14.832031zm0 0"/><path d="m44.710938 208.167969c-3.96875-3.96875-6.144532-9.230469-6.144532-14.832031v-28l9.601563 12.800781 12.800781-9.601563-30.402344-40.535156-30.398437 40.535156 12.800781 9.601563 9.597656-12.800781v28c0 9.871093 3.839844 19.152343 10.832032 26.144531l7.035156 7.03125c3.957031 3.960937 6.132812 9.222656 6.132812 14.824219 0 5.519531-2.238281 10.929687-6.140625 14.832031l-7.035156 7.03125c-6.878906 6.878906-10.824219 16.402343-10.824219 26.136719v44h16v-44c0-5.519532 2.242188-10.921876 6.144532-14.832032l7.03125-7.03125c6.882812-6.878906 10.824218-16.410156 10.824218-26.136718 0-9.871094-3.839844-19.152344-10.832031-26.144532zm0 0"/><path d="m86.566406 37.335938v28c0 9.871093 3.839844 19.152343 10.832032 26.144531l7.035156 7.03125c3.957031 3.960937 6.132812 9.222656 6.132812 14.824219 0 5.601562-2.175781 10.863281-6.140625 14.832031l-7.035156 7.03125c-5.320313 5.320312-10.824219 10.832031-10.824219 22.136719h16c0-4.3125 1.007813-5.6875 6.144532-10.832032l7.03125-7.03125c6.984374-6.984375 10.824218-16.265625 10.824218-26.136718 0-9.871094-3.839844-19.152344-10.832031-26.144532l-7.03125-7.03125c-3.960937-3.960937-6.136719-9.222656-6.136719-14.824218v-28l9.601563 12.800781 12.800781-9.601563-30.402344-40.535156-30.398437 40.535156 12.800781 9.601563zm0 0"/></svg>