<svg height="496pt" viewBox="0 0 496.776 496" width="496pt" xmlns="http://www.w3.org/2000/svg"><path d="m463.289062 136.386719h-79.289062v-24.640625c27.097656-3.902344 48-27.207032 48-55.359375 0-30.878907-25.121094-56-56-56s-56 25.121093-56 56c0 28.152343 20.902344 51.457031 48 55.359375v24.640625h-79.28125l-9.839844 104h-38.878906c0-8.824219-7.175781-16-16-16h-16c-8.824219 0-16 7.175781-16 16v96c0 8.824219 7.175781 16 16 16h16c8.824219 0 16-7.175781 16-16h29.792969l-5.640625 59.578125c-4.191406-2.058594-9.359375-3.578125-16.28125-3.578125-13.0625 0-20 5.371093-25.558594 9.671875-4.746094 3.671875-8.175781 6.328125-15.777344 6.328125-7.597656 0-11.023437-2.65625-15.765625-6.328125-5.5625-4.300782-12.488281-9.671875-25.5625-9.671875-13.0625 0-19.992187 5.371093-25.550781 9.671875-3.769531 2.921875-6.792969 5.128906-11.65625 5.9375v-8.777344c0-6.101562 3.382812-11.582031 8.839844-14.3125l5.472656-2.734375c10.910156-5.449219 17.6875-16.414063 17.6875-28.617187v-17.167969c0-8.824219 7.175781-16 16-16v-16c-17.648438 0-32 14.351562-32 32v17.167969c0 6.105468-3.382812 11.585937-8.839844 14.3125l-5.472656 2.738281c-10.910156 5.445312-17.6875 16.414062-17.6875 28.613281v5.648438c-1.257812-.839844-2.511719-1.765626-3.855469-2.808594-5.558593-4.300782-12.480469-9.671875-25.542969-9.671875-.921874 0-1.738281.082031-2.601562.136719v-9.710938c0-6.351562 3.160156-12.242188 8.441406-15.769531 9.742188-6.496094 15.558594-17.367188 15.558594-29.078125v-.921875c0-7.222657 4.007812-13.71875 10.496094-16.949219l2.175781-1.105469c11.929687-5.953125 19.328125-17.929687 19.328125-31.257812v-4.398438c0-10.449219 8.496094-18.945312 18.953125-18.945312h5.046875v-16h-5.046875c-19.273437 0-34.953125 15.679687-34.953125 34.945312v4.398438c0 7.226562-4.007812 13.722656-10.496094 16.953125l-2.175781 1.105468c-11.929687 5.949219-19.328125 17.925782-19.328125 31.253907v.921875c0 6.351562-3.160156 12.238281-8.441406 15.765625-9.742188 6.496093-15.558594 17.371093-15.558594 29.082031v14.375c-2.664062 1.550781-4.902344 3.28125-6.960938 4.871094-4.734374 3.671875-8.167968 6.328125-15.757812 6.328125-7.585938 0-11-2.648438-15.738281-6.320313-5.558594-4.308594-12.488281-9.679687-25.542969-9.679687v16c7.585938 0 11 2.648437 15.734375 6.320312 5.570313 4.3125 12.488281 9.679688 25.546875 9.679688 13.0625 0 19.992188-5.367188 25.558594-9.671875 4.746094-3.671875 8.160156-6.328125 15.761718-6.328125 7.582032 0 11.007813 2.65625 15.75 6.320312 5.558594 4.3125 12.488282 9.679688 25.542969 9.679688 13.058594 0 19.992188-5.367188 25.554688-9.671875 4.742187-3.671875 8.167969-6.328125 15.757812-6.328125 7.601563 0 11.023438 2.65625 15.769531 6.328125 5.566407 4.304687 12.496094 9.671875 25.558594 9.671875 13.074219 0 20-5.367188 25.570313-9.671875 4.742187-3.671875 8.167969-6.328125 15.765625-6.328125 7.601562 0 11.023437 2.65625 15.769531 6.328125 5.566406 4.304687 12.496094 9.671875 25.566406 9.671875 13.074219 0 20-5.367188 25.570313-9.671875 4.742187-3.671875 8.175781-6.328125 15.773437-6.328125 7.59375 0 11.015625 2.65625 15.761719 6.328125 5.566406 4.304687 12.496094 9.671875 25.558594 9.671875 13.074218 0 20.007812-5.367188 25.578125-9.671875 4.742187-3.671875 8.175781-6.328125 15.773437-6.328125 7.617188 0 11.050782 2.65625 15.800782 6.328125 5.578124 4.3125 12.511718 9.671875 25.59375 9.671875 8.453124 0 14.320312-2.246094 18.933593-4.992188l5.671875 60.992188h-479.222656v16h496.777344zm-127.289062-80c0-22.054688 17.945312-40 40-40s40 17.945312 40 40c0 19.3125-13.769531 35.472656-32 39.191406v-18.910156l20.441406-13.625-8.875-13.3125-11.566406 7.714843v-17.058593h-16v17.058593l-11.558594-7.714843-8.875 13.3125 20.433594 13.625v18.910156c-18.230469-3.71875-32-19.878906-32-39.191406zm115.6875 128h-19.6875v-32h16.710938zm-115.6875 0v-32h16v32zm32-32h16v32h-16zm32 0h16v32h-16zm-80 0v32h-19.753906l3.035156-32zm-112 184v-96h16l.007812 96zm32-16v-64h37.359375l-6.054687 64zm230.414062 81.671875c-4.75 3.671875-8.183593 6.328125-15.796874 6.328125-7.617188 0-11.050782-2.65625-15.800782-6.328125-5.578125-4.3125-12.503906-9.671875-25.59375-9.671875-13.070312 0-20 5.359375-25.566406 9.671875-4.753906 3.671875-8.175781 6.328125-15.785156 6.328125-7.589844 0-11.015625-2.65625-15.757813-6.328125-5.570312-4.300782-12.496093-9.671875-25.5625-9.671875-13.070312 0-20 5.371093-25.566406 9.671875-4.746094 3.671875-8.175781 6.328125-15.777344 6.328125-4.34375 0-7.296875-.933594-9.933593-2.359375l9.613281-101.640625h55.113281v-16h-53.59375l8.328125-88h154.441406l2.976563 32h-48.152344v16h49.640625l14.199219 152.640625c-.464844.351562-.96875.679687-1.425782 1.03125zm0 0"/><path d="m32 352.386719h16v-16h16v-16h-16v-16h-16v16h-16v16h16zm0 0"/><path d="m216 192.386719h16v-16h16v-16h-16v-16h-16v16h-16v16h16zm0 0"/><path d="m80 264.386719h16v16h-16zm0 0"/><path d="m192 368.386719h16v16h-16zm0 0"/><path d="m152 184.386719h16v16h-16zm0 0"/><path d="m80 432.386719h16v16h-16zm0 0"/><path d="m248 424.386719h16v16h-16zm0 0"/><path d="m416 440.386719h16v16h-16zm0 0"/><path d="m160 448.386719h16v16h-16zm0 0"/><path d="m408 264.386719h32v16h-32zm0 0"/><path d="m312 320.386719h32v16h-32zm0 0"/><path d="m408 328.386719h32v16h-32zm0 0"/><path d="m392 360.386719h32v16h-32zm0 0"/></svg>