<svg height="496pt" viewBox="0 -1 496 495" width="496pt" xmlns="http://www.w3.org/2000/svg"><path d="m152 286.15625h16v16h-16zm0 0"/><path d="m328 286.15625h16v16h-16zm0 0"/><path d="m192 190.15625h16v16h-16zm0 0"/><path d="m288 190.15625h16v16h-16zm0 0"/><path d="m240 190.15625h16v16h-16zm0 0"/><path d="m242.34375 75.8125 11.3125-11.3125-2.335938-2.34375c-2.144531-2.144531-3.320312-4.976562-3.320312-8s1.175781-5.855469 3.3125-8l4.6875-4.6875c5.160156-5.160156 8-12.023438 8-19.3125s-2.839844-14.152344-8-19.3125l-2.34375-2.34375-11.3125 11.3125 2.335938 2.34375c2.144531 2.144531 3.320312 4.976562 3.320312 8s-1.175781 5.855469-3.3125 8l-4.6875 4.6875c-5.160156 5.160156-8 12.023438-8 19.3125s2.839844 14.152344 8 19.3125zm0 0"/><path d="m282.34375 75.8125 11.3125-11.3125-2.335938-2.34375c-2.144531-2.144531-3.320312-4.976562-3.320312-8s1.175781-5.855469 3.3125-8l4.6875-4.6875c5.160156-5.160156 8-12.023438 8-19.3125s-2.839844-14.152344-8-19.3125l-2.34375-2.34375-11.3125 11.3125 2.335938 2.34375c2.144531 2.144531 3.320312 4.976562 3.320312 8s-1.175781 5.855469-3.3125 8l-4.6875 4.6875c-5.160156 5.160156-8 12.023438-8 19.3125s2.839844 14.152344 8 19.3125zm0 0"/><path d="m322.34375 75.8125 11.3125-11.3125-2.335938-2.34375c-2.144531-2.144531-3.320312-4.976562-3.320312-8s1.175781-5.855469 3.3125-8l4.6875-4.6875c5.160156-5.160156 8-12.023438 8-19.3125s-2.839844-14.152344-8-19.3125l-2.34375-2.34375-11.3125 11.3125 2.335938 2.34375c2.144531 2.144531 3.320312 4.976562 3.320312 8s-1.175781 5.855469-3.3125 8l-4.6875 4.6875c-5.160156 5.160156-8 12.023438-8 19.3125s2.839844 14.152344 8 19.3125zm0 0"/><path d="m496 358.15625v-16c-13.078125 0-20.007812 5.359375-25.585938 9.671875-4.75 3.671875-8.183593 6.328125-15.796874 6.328125-7.617188 0-11.050782-2.65625-15.800782-6.328125-5.578125-4.3125-12.503906-9.671875-25.59375-9.671875-4.015625 0-7.398437.542969-10.398437 1.375 5.550781-7.429688 9.367187-16.261719 10.65625-25.976562l10.449219-78.34375.070312-17.054688h-72v-48h16v-48h-56v-32h-48v32h-136v48h16v48h-72v16l10.511719 79.398438c1.296875 9.738281 5.128906 18.601562 10.710937 26.042968-3.046875-.867187-6.503906-1.441406-10.621094-1.441406-13.066406 0-19.992187 5.367188-25.554687 9.671875-4.742187 3.671875-8.175781 6.328125-15.765625 6.328125-7.585938 0-11-2.648438-15.738281-6.320312-5.558594-4.3125-12.488281-9.679688-25.542969-9.679688v16c7.585938 0 11 2.648438 15.734375 6.320312 5.570313 4.3125 12.488281 9.679688 25.546875 9.679688 13.0625 0 19.992188-5.367188 25.558594-9.671875 4.746094-3.671875 8.160156-6.328125 15.761718-6.328125 7.582032 0 11.007813 2.65625 15.75 6.320312 5.558594 4.3125 12.488282 9.679688 25.542969 9.679688 13.058594 0 19.992188-5.367188 25.554688-9.671875 4.742187-3.671875 8.167969-6.328125 15.757812-6.328125 7.601563 0 11.023438 2.65625 15.769531 6.328125 5.566407 4.304687 12.496094 9.671875 25.558594 9.671875 13.074219 0 20-5.367188 25.570313-9.671875 4.742187-3.671875 8.167969-6.328125 15.765625-6.328125 7.601562 0 11.023437 2.65625 15.769531 6.328125.113281.085937.238281.183594.359375.273437v9.398438c0 4.414062-3.59375 8-8 8h-88c-13.230469 0-24 10.769531-24 24s10.769531 24 24 24h24c4.40625 0 8 3.582031 8 8 0 4.414062-3.59375 8-8 8h-112c-19.3125 0-35.472656 13.769531-39.191406 32h-40.808594v16h496v-16h-32.808594c-3.71875-18.230469-19.871094-32-39.191406-32h-160c-4.40625 0-8-3.585938-8-8 0-4.417969 3.59375-8 8-8h104c13.230469 0 24-10.769531 24-24s-10.769531-24-24-24h-48c-4.40625 0-8-3.585938-8-8v-7.585938c.96875-.703124 1.894531-1.40625 2.777344-2.085937 4.742187-3.671875 8.175781-6.328125 15.773437-6.328125 7.59375 0 11.015625 2.65625 15.761719 6.328125 5.566406 4.304687 12.496094 9.671875 25.558594 9.671875 13.074218 0 20.007812-5.367188 25.578125-9.671875 4.742187-3.671875 8.175781-6.328125 15.773437-6.328125 7.617188 0 11.050782 2.65625 15.800782 6.328125 5.578124 4.3125 12.511718 9.671875 25.59375 9.671875 13.078124 0 20.015624-5.359375 25.589843-9.671875 4.746094-3.671875 8.175781-6.328125 15.792969-6.328125zm-216-248h16v16h-16zm-136 32h208v16h-208zm16 32h176v48h-176zm247.929688 64-6.402344 48h-26.335938c-3.71875-18.230469-19.871094-32-39.191406-32s-35.472656 13.769531-39.191406 32h-97.617188c-3.71875-18.230469-19.871094-32-39.191406-32s-35.472656 13.769531-39.191406 32h-26.335938l-6.402344-48zm-47.929688 56c0 13.230469-10.769531 24-24 24s-24-10.769531-24-24 10.769531-24 24-24 24 10.769531 24 24zm-176 0c0 13.230469-10.769531 24-24 24s-24-10.769531-24-24 10.769531-24 24-24 24 10.769531 24 24zm136 104h48c4.40625 0 8 3.582031 8 8 0 4.414062-3.59375 8-8 8h-104c-13.230469 0-24 10.769531-24 24s10.769531 24 24 24h160c10.414062 0 19.214844 6.710938 22.527344 16h-389.054688c3.3125-9.289062 12.113282-16 22.527344-16h112c13.230469 0 24-10.769531 24-24s-10.769531-24-24-24h-24c-4.40625 0-8-3.585938-8-8 0-4.417969 3.59375-8 8-8h88c13.230469 0 24-10.769531 24-24v-1.039062c2.703125.640624 5.71875 1.039062 9.207031 1.039062 2.496094 0 4.714844-.25 6.792969-.59375v.59375c0 13.230469 10.769531 24 24 24zm10.550781-56c-13.070312 0-20 5.367188-25.566406 9.671875-4.746094 3.671875-8.175781 6.328125-15.777344 6.328125-7.597656 0-11.023437-2.65625-15.765625-6.328125-5.578125-4.304687-12.496094-9.671875-25.570312-9.671875-13.0625 0-20 5.367188-25.558594 9.671875-4.746094 3.671875-8.175781 6.328125-15.777344 6.328125-7.597656 0-11.023437-2.65625-15.765625-6.328125-5.5625-4.304687-12.488281-9.671875-25.5625-9.671875-11.40625 0-18.136719 4.097656-23.367187 8h-3.816406c-19.96875 0-37.007813-14.921875-39.648438-34.710938l-1.773438-13.289062h24.207032c3.71875 18.230469 19.871094 32 39.191406 32s35.472656-13.769531 39.191406-32h97.617188c3.71875 18.230469 19.871094 32 39.191406 32s35.472656-13.769531 39.191406-32h24.207032l-1.765626 13.289062c-2.648437 19.789063-19.6875 34.710938-39.65625 34.710938h-4.054687c-5.234375-3.902344-11.960937-8-23.371094-8zm0 0"/><path d="m40 406.15625h16v16h-16zm0 0"/><path d="m456 390.15625h16v16h-16zm0 0"/></svg>