<svg height="496pt" viewBox="-104 0 496 496" width="496pt" xmlns="http://www.w3.org/2000/svg"><path d="m272.175781 280.023438c5.160157-21.269532 7.824219-43.128907 7.824219-65.007813v-7.015625c0-36.503906-15.0625-71.59375-41.273438-97.152344.761719-4.855468 1.273438-9.785156 1.273438-14.847656 0-52.9375-43.0625-96-96-96s-96 43.0625-96 96c0 5.0625.511719 9.992188 1.273438 14.847656-26.210938 25.558594-41.273438 60.648438-41.273438 97.152344v7.015625c0 21.878906 2.664062 43.738281 7.824219 65.007813-10.121094 10.28125-15.824219 24.046874-15.824219 38.6875 0 18.519531 9.199219 35.703124 24.609375 45.976562l12.703125 8.472656c6.6875 4.457032 10.6875 11.917969 10.6875 19.96875v33.625c0 10.679688 4.160156 20.726563 11.710938 28.277344l29.257812 29.257812c7.558594 7.550782 17.597656 11.710938 28.289062 11.710938h53.496094c10.679688 0 20.726563-4.160156 28.277344-11.710938l29.257812-29.257812c7.550782-7.558594 11.710938-17.597656 11.710938-28.289062v-33.621094c0-8.042969 4-15.503906 10.6875-19.96875l12.703125-8.472656c15.410156-10.265626 24.609375-27.449219 24.609375-45.96875 0-14.640626-5.703125-28.40625-15.824219-38.6875zm-159.039062-176.023438c1.480469 5.6875 4.390625 10.792969 8.464843 14.792969l-24.273437 42.046875c-18.105469-13.070313-30.585937-33.457032-32.921875-56.839844zm46.863281-8c0 8.824219-7.175781 16-16 16s-16-7.175781-16-16 7.175781-16 16-16 16 7.175781 16 16zm-24.488281 30.710938c2.71875.753906 5.527343 1.289062 8.488281 1.289062s5.769531-.535156 8.488281-1.289062l24.34375 42.160156c-10.03125 4.535156-21.121093 7.128906-32.832031 7.128906s-22.800781-2.59375-32.832031-7.128906zm55.160156 34.128906-24.273437-42.046875c4.074218-4 6.984374-9.105469 8.464843-14.792969h48.730469c-2.328125 23.382812-14.816406 43.769531-32.921875 56.839844zm32.921875-72.839844h-48.730469c-1.480469-5.6875-4.390625-10.792969-8.464843-14.792969l24.273437-42.046875c18.105469 13.070313 30.59375 33.457032 32.921875 56.839844zm-46.761719-64.871094-24.34375 42.160156c-2.71875-.753906-5.527343-1.289062-8.488281-1.289062s-5.769531.535156-8.488281 1.289062l-24.34375-42.160156c10.03125-4.535156 21.121093-7.128906 32.832031-7.128906s22.800781 2.59375 32.832031 7.128906zm-79.503906 8.03125 24.273437 42.046875c-4.074218 4-6.984374 9.105469-8.464843 14.792969h-48.730469c2.328125-23.382812 14.816406-43.769531 32.921875-56.839844zm157.191406 320.207032-12.703125 8.472656c-11.152344 7.441406-17.816406 19.878906-17.816406 33.289062v33.625c0 6.316406-2.558594 12.492188-7.023438 16.964844l-29.257812 29.257812c-4.472656 4.464844-10.65625 7.023438-16.976562 7.023438h-53.496094c-6.316406 0-12.492188-2.558594-16.964844-7.023438l-29.257812-29.257812c-4.464844-4.472656-7.023438-10.65625-7.023438-16.976562v-33.621094c0-13.410156-6.664062-25.847656-17.816406-33.28125l-12.703125-8.472656c-10.945313-7.289063-17.480469-19.503907-17.480469-32.65625 0-11.992188 5.367188-23.160157 14.726562-30.65625 7.226563-5.773438 13.058594-12.832032 17.296876-20.71875l7.976562 7.976562c3.023438 3.023438 7.039062 4.6875 11.3125 4.6875h33.375c4.273438 0 8.289062-1.664062 11.3125-4.6875l11.3125-11.3125c3.023438-3.023438 4.6875-7.039062 4.6875-11.3125v-25.375c0-4.273438-1.664062-8.289062-4.6875-11.3125l-11.3125-11.3125c-3.023438-3.023438-7.039062-4.6875-11.3125-4.6875h-33.375c-4.273438 0-8.289062 1.664062-11.3125 4.6875l-11.3125 11.3125c-3.023438 3.023438-4.6875 7.039062-4.6875 11.3125v8.167969c0 11.519531-3.816406 22.449219-10.6875 31.328125-3.464844-17.039063-5.3125-34.402344-5.3125-51.792969v-7.015625c0-29.097656 10.800781-57.238281 29.953125-79.046875 13.488281 36.726563 48.703125 63.046875 90.046875 63.046875s76.558594-26.320312 90.046875-63.046875c19.152344 21.808594 29.953125 49.949219 29.953125 79.046875v7.015625c0 17.390625-1.847656 34.753906-5.3125 51.792969-6.871094-8.878906-10.6875-19.800782-10.6875-31.320313v-8.167969c0-4.273437-1.664062-8.289062-4.6875-11.3125l-11.3125-11.320312c-3.023438-3.023438-7.039062-4.6875-11.3125-4.6875h-33.375c-4.273438 0-8.289062 1.664062-11.3125 4.6875l-11.3125 11.3125c-3.023438 3.023438-4.6875 7.039062-4.6875 11.3125v25.375c0 4.273438 1.664062 8.289062 4.6875 11.3125l11.3125 11.3125c3.023438 3.023438 7.039062 4.6875 11.3125 4.6875h33.375c4.273438 0 8.289062-1.664062 11.3125-4.6875l7.976562-7.976562c4.238282 7.886718 10.070313 14.945312 17.296876 20.71875 9.359374 7.496093 14.726562 18.664062 14.726562 30.65625 0 13.152343-6.535156 25.367187-17.480469 32.65625zm-200.289062-100.445313c1.167969-5 1.769531-10.179687 1.769531-15.433594v-8.167969l11.3125-11.320312h33.375l11.3125 11.3125v25.375l-11.3125 11.3125h-33.375zm179.539062 0-13.082031 13.078125h-33.375l-11.3125-11.3125v-25.375l11.3125-11.3125h33.375l11.3125 11.3125v8.167969c0 5.261719.601562 10.441406 1.769531 15.441406zm0 0"/><path d="m184 376h16v64h-16zm0 0"/><path d="m152 376h16v64h-16zm0 0"/><path d="m120 376h16v64h-16zm0 0"/><path d="m88 376h16v64h-16zm0 0"/><path d="m130.585938 280-18.585938 46.464844v12.847656l14.425781 14.421875 17.574219-8.789063 17.574219 8.789063 14.425781-14.421875v-12.847656l-18.585938-46.464844zm29.414062 52.6875-1.574219 1.578125-14.425781-7.210937-14.425781 7.210937-1.574219-1.578125v-3.152344l13.414062-33.535156h5.171876l13.414062 33.535156zm0 0"/></svg>