<svg height="496pt" viewBox="0 0 496 496" width="496pt" xmlns="http://www.w3.org/2000/svg"><path d="m454.617188 304c-7.617188 0-11.050782-2.65625-15.800782-6.328125-5.578125-4.3125-12.503906-9.671875-25.59375-9.671875-13.070312 0-20 5.359375-25.566406 9.671875-4.753906 3.671875-8.175781 6.328125-15.785156 6.328125-7.589844 0-11.015625-2.65625-15.757813-6.328125-4.730469-3.65625-10.480469-8.046875-20.113281-9.296875v-72.6875c0-7.320312-3.28125-14.152344-9.007812-18.742188l-30.992188-24.785156v-20.160156c8.824219 0 16-7.175781 16-16v-16c0-8.824219-7.175781-16-16-16h-96c-8.824219 0-16 7.175781-16 16v16c0 8.824219 7.175781 16 16 16v20.160156l-31 24.800782c-5.71875 4.574218-9 11.40625-9 18.726562v72.648438c-9.777344 1.199218-15.574219 5.648437-20.34375 9.335937-4.746094 3.671875-8.167969 6.328125-15.761719 6.328125-7.582031 0-11.007812-2.65625-15.75-6.320312-5.558593-4.3125-12.480469-9.679688-25.542969-9.679688-13.066406 0-19.992187 5.367188-25.554687 9.671875-4.742187 3.671875-8.175781 6.328125-15.765625 6.328125-7.585938 0-11-2.648438-15.738281-6.320312-5.558594-4.3125-12.488281-9.679688-25.542969-9.679688v16c7.585938 0 11 2.648438 15.734375 6.320312 5.570313 4.3125 12.488281 9.679688 25.546875 9.679688 13.0625 0 19.992188-5.367188 25.558594-9.671875 4.746094-3.671875 8.160156-6.328125 15.761718-6.328125 7.582032 0 11.007813 2.65625 15.75 6.320312 5.558594 4.3125 12.488282 9.679688 25.542969 9.679688 13.058594 0 19.992188-5.367188 25.554688-9.671875 3.496093-2.703125 6.292969-4.839844 10.550781-5.785156v103.457031c0 17.648438 14.351562 32 32 32h112c17.648438 0 32-14.351562 32-32v-103.375c4.113281.976562 6.886719 3.054688 10.3125 5.703125 5.566406 4.304687 12.496094 9.671875 25.558594 9.671875 13.074218 0 20.007812-5.367188 25.578125-9.671875 4.742187-3.671875 8.175781-6.328125 15.773437-6.328125 7.617188 0 11.050782 2.65625 15.800782 6.328125 5.578124 4.3125 12.511718 9.671875 25.59375 9.671875 13.078124 0 20.015624-5.359375 25.589843-9.671875 4.746094-3.671875 8.175781-6.328125 15.792969-6.328125v-16c-13.078125 0-20.007812 5.359375-25.585938 9.671875-4.75 3.671875-8.183593 6.328125-15.796874 6.328125zm-254.617188-184h96l.007812 16h-96.007812zm80 32v16h-64v-16zm-69.191406 32h74.390625l20 16h-25.199219v16h40v73.414062c-6.664062 1.875-11.191406 5.296876-15.015625 8.257813-4.746094 3.671875-8.175781 6.328125-15.777344 6.328125-7.597656 0-11.023437-2.65625-15.765625-6.328125-5.578125-4.304687-12.496094-9.671875-25.570312-9.671875-13.0625 0-20 5.367188-25.558594 9.671875-4.746094 3.671875-8.175781 6.328125-15.777344 6.328125-7.597656 0-11.023437-2.65625-15.765625-6.328125-3.777343-2.917969-8.242187-6.296875-14.777343-8.183594v-73.488281h88v-16h-73.191407zm93.191406 240h-112c-8.824219 0-16-7.175781-16-16v-101.136719c1.648438.992188 3.238281 2.121094 4.976562 3.464844 5.566407 4.304687 12.496094 9.671875 25.558594 9.671875 13.074219 0 20-5.367188 25.570313-9.671875 4.742187-3.671875 8.167969-6.328125 15.765625-6.328125 7.601562 0 11.023437 2.65625 15.769531 6.328125 5.566406 4.304687 12.496094 9.671875 25.566406 9.671875 13.074219 0 20-5.367188 25.570313-9.671875 1.816406-1.40625 3.480468-2.59375 5.222656-3.609375v101.28125c0 8.824219-7.175781 16-16 16zm0 0"/><path d="m88 352c-13.230469 0-24 10.769531-24 24s10.769531 24 24 24 24-10.769531 24-24-10.769531-24-24-24zm0 32c-4.40625 0-8-3.585938-8-8s3.59375-8 8-8 8 3.585938 8 8-3.59375 8-8 8zm0 0"/><path d="m80 416h16v16h-16zm0 0"/><path d="m80 448h16v16h-16zm0 0"/><path d="m80 480h16v16h-16zm0 0"/><path d="m408 352c-13.230469 0-24 10.769531-24 24s10.769531 24 24 24 24-10.769531 24-24-10.769531-24-24-24zm0 32c-4.40625 0-8-3.585938-8-8s3.59375-8 8-8 8 3.585938 8 8-3.59375 8-8 8zm0 0"/><path d="m400 416h16v16h-16zm0 0"/><path d="m400 448h16v16h-16zm0 0"/><path d="m400 480h16v16h-16zm0 0"/><path d="m61.65625 71.03125c-8.679688 8.679688-13.65625 20.695312-13.65625 32.96875s4.976562 24.289062 13.65625 32.96875l12.6875 12.6875 11.3125-11.3125-12.6875-12.6875c-5.695312-5.703125-8.96875-13.59375-8.96875-21.65625s3.273438-15.953125 8.96875-21.65625l1.375-1.375c8.679688-8.679688 13.65625-20.695312 13.65625-32.96875s-4.976562-24.289062-13.65625-32.96875l-12.6875-12.6875-11.3125 11.3125 12.6875 12.6875c5.695312 5.703125 8.96875 13.59375 8.96875 21.65625s-3.273438 15.953125-8.96875 21.65625zm0 0"/><path d="m109.65625 71.03125c-8.679688 8.679688-13.65625 20.695312-13.65625 32.96875s4.976562 24.289062 13.65625 32.96875l12.6875 12.6875 11.3125-11.3125-12.6875-12.6875c-5.695312-5.703125-8.96875-13.59375-8.96875-21.65625s3.273438-15.953125 8.96875-21.65625l1.375-1.375c8.679688-8.679688 13.65625-20.695312 13.65625-32.96875s-4.976562-24.289062-13.65625-32.96875l-12.6875-12.6875-11.3125 11.3125 12.6875 12.6875c5.695312 5.703125 8.96875 13.59375 8.96875 21.65625s-3.273438 15.953125-8.96875 21.65625zm0 0"/><path d="m381.65625 175.03125c-8.679688 8.679688-13.65625 20.695312-13.65625 32.96875s4.976562 24.289062 13.65625 32.96875l12.6875 12.6875 11.3125-11.3125-12.6875-12.6875c-5.695312-5.703125-8.96875-13.59375-8.96875-21.65625s3.273438-15.953125 8.96875-21.65625l1.375-1.375c8.679688-8.679688 13.65625-20.695312 13.65625-32.96875s-4.976562-24.289062-13.65625-32.96875l-12.6875-12.6875-11.3125 11.3125 12.6875 12.6875c5.695312 5.703125 8.96875 13.59375 8.96875 21.65625s-3.273438 15.953125-8.96875 21.65625zm0 0"/><path d="m442.34375 253.65625 11.3125-11.3125-12.6875-12.6875c-5.695312-5.703125-8.96875-13.59375-8.96875-21.65625s3.273438-15.953125 8.96875-21.65625l1.375-1.375c8.679688-8.679688 13.65625-20.695312 13.65625-32.96875s-4.976562-24.289062-13.65625-32.96875l-12.6875-12.6875-11.3125 11.3125 12.6875 12.6875c5.695312 5.703125 8.96875 13.59375 8.96875 21.65625s-3.273438 15.953125-8.96875 21.65625l-1.375 1.375c-8.679688 8.679688-13.65625 20.695312-13.65625 32.96875s4.976562 24.289062 13.65625 32.96875zm0 0"/><path d="m432 80h16v-16h16v-16h-16v-16h-16v16h-16v16h16zm0 0"/><path d="m16 240h16v-16h16v-16h-16v-16h-16v16h-16v16h16zm0 0"/><path d="m240 48h16v-16h16v-16h-16v-16h-16v16h-16v16h16zm0 0"/><path d="m80 232h16v16h-16zm0 0"/><path d="m24 64h16v16h-16zm0 0"/><path d="m384 32h16v16h-16zm0 0"/><path d="m192 48h16v16h-16zm0 0"/><path d="m480 200h16v16h-16zm0 0"/></svg>