<?xml version="1.0" encoding="UTF-8"?>
<svg width="127px" height="140px" viewBox="0 0 127 140" version="1.1" xmlns="http://www.w3.org/2000/svg" xmlns:xlink="http://www.w3.org/1999/xlink">
    <!-- Generator: Sketch 52.5 (67469) - http://www.bohemiancoding.com/sketch -->
    <title>Combined Shape</title>
    <desc>Created with Sketch.</desc>
    <g id="Landing" stroke="none" stroke-width="1" fill="none" fill-rule="evenodd">
        <g id="2nd-Fold-Home-Landing" transform="translate(-1133.000000, -110.000000)" fill="#FFFFFF" fill-rule="nonzero">
            <g id="Group-5" transform="translate(83.000000, 110.000000)">
                <g id="Group-2" transform="translate(950.000000, 0.000000)">
                    <path d="M140,82.7860354 C140.000002,82.2628244 140.208298,81.761038 140.579074,81.391054 C140.949889,81.0210313 141.45284,80.8131522 141.977273,80.8131522 C142.501705,80.8131522 143.004657,81.0210313 143.375472,81.391054 C143.746287,81.7610768 143.954587,82.2629295 143.954545,82.7861997 C143.954545,83.8757966 143.06929,84.7590894 141.977273,84.7590894 C140.885255,84.7590894 140,83.8757966 140,82.7861997 L140,138 C139.474451,137.296806 139.119903,136.541779 138.729439,135.557972 C138.143839,134.084134 138.356639,132.320566 137.782239,130.862474 C137.239839,129.486261 136.668639,128.081706 135.835039,126.84091 C134.915039,125.472571 134.207839,123.973538 133.204639,122.625669 C132.727839,121.98795 132.244639,121.435261 131.865439,120.709364 C131.443039,119.901587 131.513439,119.038699 131.236639,118.218325 C130.996639,117.517622 130.550239,116.955485 130.359839,116.207543 C130.155039,115.401341 129.996639,114.695914 129.726239,113.903883 C129.503839,113.251993 129.467039,112.568611 129.307039,111.8994 C129.116639,111.10422 128.582239,110.518464 128.358239,109.693366 C128.126239,108.850948 127.779039,108.542323 127.243039,107.879411 C126.676639,107.178708 126.428639,106.421319 126.199839,105.574176 C125.963039,104.695542 125.841439,104.232605 125.313439,103.467343 C124.787039,102.703655 124.543839,102.03287 124.324639,101.166832 C123.924639,99.5874947 123.539039,98.0427985 123.372639,96.3768572 C123.302239,95.696624 122.979039,95.3407613 122.711839,94.7502811 C122.534239,94.3613515 122.567839,94.1298833 122.473439,93.7173345 C122.383839,93.3221064 122.131039,93.095362 121.982239,92.7379247 C121.828639,92.3647412 121.833439,92.0545423 121.801439,91.6026281 C121.001439,91.5412182 121.439839,90.9696334 121.335839,90.5287415 C121.225439,90.0642305 120.689439,89.9666044 120.857439,89.3997435 C121.982239,89.503668 121.767839,88.9667247 121.732639,88.2502754 C122.065439,88.21091 122.145439,88.113284 122.089439,87.7731674 C121.863839,87.7023098 121.806239,87.5621692 121.539039,87.5479976 C121.419039,87.1197027 121.126239,86.7465192 121.009439,86.3182243 C120.907039,85.9466154 120.979039,85.5372158 120.820639,85.1640324 C120.462239,84.3200394 120.167839,84.4759261 120.574239,83.5642248 C120.644639,83.4099126 120.931039,83.4256587 120.948639,83.2587497 C120.974239,83.0099607 120.639839,82.9280808 120.639839,82.7737686 C120.644639,82.2730415 120.663839,82.3785406 120.863839,81.9329249 C121.207839,81.1676626 121.140639,80.8700606 122.193439,80.6496146 C122.347039,79.804047 121.953439,79.8150693 121.247839,79.7898755 C121.283039,78.9868225 120.857439,78.9332856 120.526239,78.2908432 C120.337439,77.928682 120.297439,77.4799171 120.358239,77.0280029 C120.483039,76.1084285 121.327839,75.078631 119.983839,74.6156946 C119.950239,74.1322882 120.532639,74.0173414 120.441439,73.5197634 C120.111839,73.6882471 119.652639,74.0645798 119.379039,73.6787994 C119.067039,73.2410568 119.980639,72.4852421 120.052639,72.1498494 C119.324639,72.8474033 119.183839,72.0049849 118.606239,72.0412011 C117.950239,72.082141 118.075039,72.9072386 118.006239,73.3748989 C117.918239,73.3843466 117.833439,73.3874958 117.743839,73.403242 C117.521439,74.1511835 118.291039,74.1322882 118.491039,74.6550599 C118.716639,75.2439655 118.235039,75.6313205 117.991839,76.0690631 C117.863839,76.2989567 117.796639,76.6343495 117.611039,76.8374747 C117.299039,77.1728674 117.246239,77.0311521 116.929439,77.2138073 C116.484639,77.472044 116.132639,77.7806683 115.659039,78.0562257 C115.067039,78.4010661 114.427039,78.4971176 113.836639,78.7459066 C113.641439,78.8277865 113.415839,78.8246373 113.249439,78.9411587 C113.116639,79.0372101 113.134239,79.3363867 112.983839,79.4277143 C112.550239,79.685951 112.494239,79.616668 112.108639,79.3237898 C111.574239,78.9175395 111.158239,78.523886 110.519839,78.177471 C109.863839,77.8200337 109.249439,77.5381778 108.651039,77.0516221 C108.086239,76.5918349 107.481439,76.1414954 106.996639,75.6092759 C106.492639,75.0565865 106.254239,74.4046963 105.780639,73.8425592 C105.078239,73.0080139 102.991839,71.5231531 103.339039,70.4303711 C103.679839,70.4083266 104.036639,70.4083266 104.380639,70.4303711 C104.342239,70.6177502 104.446239,70.8838599 104.409439,71.0728136 C104.655839,71.0838359 105.148639,71.0932836 105.372639,70.9988067 C105.671839,70.8744122 105.628639,70.545318 106.028639,70.4917811 C106.567839,70.4177742 106.721439,70.9153522 107.486239,70.5894071 C107.852639,70.4319458 107.774239,70.2886559 108.291039,70.2240967 C108.615839,70.1847314 108.985439,70.3280212 109.244639,70.1075753 C109.491039,69.8981517 109.665439,69.3375892 109.891039,69.0699048 C110.063839,68.8604812 110.687839,68.5361108 110.566239,68.1566288 C110.519839,68.0070405 109.081439,67.74408 109.086239,67.6527524 C109.075039,67.8102138 108.956639,67.944056 108.955039,68.1015174 C108.678239,68.192845 108.367839,68.1219873 108.092639,68.2101657 C107.851039,68.2873218 107.737439,68.5140662 107.516639,68.6006699 C107.003039,68.8037951 106.326239,68.8305635 105.759839,68.788049 C105.073439,68.7360867 105.083039,68.6274384 104.571039,68.2369341 C104.081439,67.8637507 103.433439,67.7661246 102.955039,67.4228588 C102.447839,67.0559738 102.455839,66.4702175 102.087839,66.0812879 C101.790239,65.7663651 101.091039,65.7395967 100.988639,65.342794 C100.684639,64.1539606 102.937439,64.3759811 102.625439,63.1446331 C101.988639,63.3540568 101.275039,64.3444889 100.601439,64.388578 C99.3326394,64.4736072 100.353439,63.0784994 101.087839,62.9446572 C101.444639,62.8785234 102.100639,63.1068424 102.380639,62.8753742 C102.691039,62.6187121 102.503839,62.1384549 102.745439,61.7967637 C103.201439,61.1495975 104.374239,61.4109834 105.177439,61.4109834 C105.519839,61.4109834 106.134239,61.2928873 106.443039,61.4078341 C106.795039,61.5385271 106.795039,61.8345545 107.095839,62.0172097 C107.734239,62.4061393 108.659039,62.5273845 109.267039,62.2785956 C109.243039,62.2880432 109.470239,61.9369044 109.550239,61.8880913 C109.660639,61.8172337 109.927839,61.889666 110.067039,61.8219576 C110.350239,61.6865408 110.513439,61.4928633 110.750239,61.3448496 C110.979039,61.1984105 111.465439,60.7921601 111.772639,60.9527708 C112.067039,61.1070829 111.828639,61.6991377 112.078239,61.877069 C112.550239,62.215611 114.155039,61.3779165 114.401439,61.0063076 C114.779039,60.4347228 114.463839,59.4065 114.347039,58.8270421 C114.163039,57.91849 113.811039,57.4807473 113.137439,56.8162603 C112.391839,56.0777665 112.431839,55.891962 112.364639,54.8180754 C111.654239,54.7724116 111.019039,54.6558902 110.350239,54.5976295 C110.300639,53.8150464 110.334239,53.0072696 110.335839,52.2183881 C110.337439,51.158673 110.252639,50.9035855 109.358239,50.4658429 C108.699039,50.1430471 107.907039,50.1304502 107.707039,49.5336716 C107.515039,48.9636614 107.878239,47.8598571 108.209439,47.4268383 C108.599839,46.9198127 108.838239,47.1969447 109.265439,46.9528796 C109.703839,46.7040906 109.716639,46.3655486 110.044639,45.9907905 C110.417439,45.5656448 111.116639,44.8287256 111.620639,44.4823105 C111.958239,44.2508423 112.319839,44.060314 112.747039,44.191007 C113.227039,44.3342968 113.137439,44.6885849 113.369439,44.9420977 C114.030239,45.6601216 114.558239,45.4979364 115.399839,45.2271028 C116.223839,44.9609931 117.119839,44.9814631 117.929439,44.6712642 C118.691039,44.3799606 118.935839,43.6320191 119.585439,43.118695 C120.377439,42.4951479 120.857439,42.2731274 120.947039,41.2008154 C120.996639,40.6182083 120.830239,40.4654707 121.431839,40.2387264 C121.791839,40.1033096 122.404639,40.2733679 122.796639,40.2434502 C124.123039,40.1473988 125.683039,38.0594609 125.916639,36.7997698 C126.087839,35.88177 126.318239,35.017307 127.275039,34.5638183 C128.345439,34.0536434 128.876639,34.8220549 129.027039,33.4411186 C129.127839,32.518395 129.343839,32.2853521 129.929439,31.5452836 C130.124639,31.29492 130.287839,31.0067657 130.508639,30.7642752 C130.868639,30.3690471 131.337439,30.2997641 131.729439,29.965946 C132.438239,29.3644435 131.727839,29.1125053 131.844639,28.2637885 C131.913439,27.7567629 132.172639,27.7284198 132.019039,27.1379396 C131.926239,26.7820769 131.675039,26.6419363 131.764639,26.174276 C132.390239,26.2482828 132.433439,25.7806225 132.795039,25.4641252 C133.209439,25.1003894 133.444639,25.0500018 133.990239,25.0106364 C135.302239,24.9177342 135.324639,24.7083106 135.239839,23.3966573 C135.083039,23.4328734 134.843039,23.3336727 134.684639,23.3683142 C134.628639,23.1431445 134.651039,22.9006539 134.769439,22.7117003 L134.167839,22.3432406 C133.759839,22.3700091 132.375839,22.3700091 132.067039,22.1164963 C131.497439,21.6504106 132.195039,20.7513061 131.071839,20.7953953 C130.289439,20.825313 130.244639,21.2583317 129.511839,20.6221878 C129.283039,20.4253611 129.068639,20.0694983 128.835039,19.9277831 C128.631839,19.8033886 128.278239,19.8317317 128.075039,19.7215087 C126.659039,18.9467987 128.124639,17.3564388 127.955039,16.1959484 C127.843039,15.4196638 127.332639,14.9551528 127.007839,14.2591735 C126.724639,13.6513725 126.665439,12.9632663 126.705439,12.2830332 C127.020639,12.2200486 127.353439,12.3145254 127.649439,12.3507415 C127.433439,10.8406869 130.267039,11.0831774 129.831839,9.94473168 C129.611039,9.3652738 128.759839,9.22513317 128.342239,8.93855346 C127.569439,8.41105784 128.246239,8.30555872 128.332639,7.49305801 C127.643039,7.44896882 126.979039,7.55919179 126.372639,7.21120214 C125.756639,6.85533942 125.750239,6.47428288 124.935839,6.42389524 C123.673439,6.34516455 122.187039,6.5215213 122.719839,4.72016312 C122.924639,4.03363151 123.635039,3.86987168 124.137439,3.33450299 C124.470239,2.97864027 124.727839,2.53459918 125.105439,2.18660954 C126.236639,1.14893905 127.390239,1.98190975 128.721439,1.90632828 C128.681439,1.30640043 127.902239,1.26231124 127.774239,0.786777879 C128.707039,0.69545028 129.276639,1.38040728 130.195039,1.17885671 C131.039839,0.993052286 131.843039,0.0766270606 132.726239,0.00262021254 C133.145439,-0.0320212908 133.412639,0.286050695 133.774239,0.412019798 C134.289439,0.589951156 134.340639,0.55845888 134.966239,0.484452032 C135.731039,0.391549818 136.820639,0.432489777 136.703839,1.42764569 C135.244639,1.21664744 137.299039,2.89203652 137.670239,3.09516169 C138.436639,3.51558358 139.065439,3.90923702 139.710239,4.53278408 C139.805905,4.62551409 139.902363,4.72175865 140,4.81938207 L140,82.7860354 Z M143.954545,10.9728897 C143.954545,12.0624865 143.06929,12.9457793 141.977273,12.9457793 C140.885255,12.9457793 140,12.0624865 140,10.9728897 C140,9.88329279 140.885255,9 141.977273,9 C143.06929,9 143.954545,9.88329279 143.954545,10.9728897 Z M143.954545,16.4969807 C143.954545,17.5865776 143.06929,18.4698704 141.977273,18.4698704 C140.885255,18.4698704 140,17.5865776 140,16.4969807 C140,15.4073839 140.885255,14.5240911 141.977273,14.5240911 C143.06929,14.5240911 143.954545,15.4073839 143.954545,16.4969807 Z M143.954545,22.0210718 C143.954545,23.1106687 143.06929,23.9939615 141.977273,23.9939615 C140.885255,23.9939615 140,23.1106687 140,22.0210718 C140,20.9314749 140.885255,20.0481821 141.977273,20.0481821 C143.06929,20.0481821 143.954545,20.9314749 143.954545,22.0210718 Z M143.954545,27.5451628 C143.954545,28.6347597 143.06929,29.5180525 141.977273,29.5180525 C140.885255,29.5180525 140,28.6347597 140,27.5451628 C140,26.455566 140.885255,25.5722732 141.977273,25.5722732 C143.06929,25.5722732 143.954545,26.455566 143.954545,27.5451628 Z M143.954545,33.0692539 C143.954545,34.1588508 143.06929,35.0421436 141.977273,35.0421436 C140.885255,35.0421436 140,34.1588508 140,33.0692539 C140,31.979657 140.885255,31.0963642 141.977273,31.0963642 C143.06929,31.0963642 143.954545,31.979657 143.954545,33.0692539 Z M143.954545,38.593345 C143.954545,39.6829418 143.06929,40.5662346 141.977273,40.5662346 C140.885255,40.5662346 140,39.6829418 140,38.593345 C140,37.5037481 140.885255,36.6204553 141.977273,36.6204553 C143.06929,36.6204553 143.954545,37.5037481 143.954545,38.593345 Z M143.954545,44.1173571 C143.954545,45.206954 143.06929,46.0902468 141.977273,46.0902468 C140.885255,46.0902468 140,45.206954 140,44.1173571 C140.000044,43.0277911 140.885286,42.1445464 141.977273,42.1445464 C143.069259,42.1445464 143.954502,43.0277911 143.954545,44.1173571 Z M143.954545,49.6414482 C143.954545,50.7310451 143.06929,51.6143378 141.977273,51.6143378 C140.885255,51.6143378 140,50.7310451 140,49.6414482 C140,48.5518513 140.885255,47.6685585 141.977273,47.6685585 C143.06929,47.6685585 143.954545,48.5518513 143.954545,49.6414482 Z M143.954545,55.1655392 C143.954545,56.2551361 143.06929,57.1384289 141.977273,57.1384289 C140.885255,57.1384289 140,56.2551361 140,55.1655392 C140,54.0759424 140.885255,53.1926496 141.977273,53.1926496 C143.06929,53.1926496 143.954545,54.0759424 143.954545,55.1655392 Z M143.954545,60.6896303 C143.954545,61.7792272 143.06929,62.66252 141.977273,62.66252 C140.885255,62.66252 140,61.7792272 140,60.6896303 C140,59.6000334 140.885255,58.7167406 141.977273,58.7167406 C143.06929,58.7167406 143.954545,59.6000334 143.954545,60.6896303 Z M143.954545,66.2137214 C143.954537,67.3033121 143.069284,68.1865952 141.977273,68.1865952 C140.885261,68.1865952 140.000009,67.3033121 140,66.2137214 C140,65.1241245 140.885255,64.2408317 141.977273,64.2408317 C143.06929,64.2408317 143.954545,65.1241245 143.954545,66.2137214 Z M143.954545,71.7378598 C143.954545,72.8274566 143.06929,73.7107494 141.977273,73.7107494 C140.885255,73.7107494 140,72.8274566 140,71.7378598 C140,70.6482629 140.885255,69.7649701 141.977273,69.7649701 C143.06929,69.7649701 143.954545,70.6482629 143.954545,71.7378598 Z M143.954545,77.2619508 C143.954545,78.3515477 143.06929,79.2348405 141.977273,79.2348405 C140.885255,79.2348405 140,78.3515477 140,77.2619508 C140,76.172354 140.885255,75.2890612 141.977273,75.2890612 C143.06929,75.2890612 143.954545,76.172354 143.954545,77.2619508 Z M143.954545,88.3102908 C143.954545,89.3998877 143.06929,90.2831804 141.977273,90.2831804 C140.885255,90.2831804 140,89.3998877 140,88.3102908 C140,87.2206939 140.885255,86.3374011 141.977273,86.3374011 C143.06929,86.3374011 143.954545,87.2206939 143.954545,88.3102908 Z M143.954545,93.8343818 C143.954545,94.9239787 143.06929,95.8072715 141.977273,95.8072715 C140.885255,95.8072715 140,94.9239787 140,93.8343818 C140,92.744785 140.885255,91.8614922 141.977273,91.8614922 C143.06929,91.8614922 143.954545,92.744785 143.954545,93.8343818 Z M143.954545,99.3584729 C143.954545,100.44807 143.06929,101.331363 141.977273,101.331363 C140.885255,101.331363 140,100.44807 140,99.3584729 C140,98.268876 140.885255,97.3855832 141.977273,97.3855832 C143.06929,97.3855832 143.954545,98.268876 143.954545,99.3584729 Z M143.954545,104.882564 C143.954545,105.972161 143.06929,106.855454 141.977273,106.855454 C140.885255,106.855454 140,105.972161 140,104.882564 C140,103.792967 140.885255,102.909674 141.977273,102.909674 C143.06929,102.909674 143.954545,103.792967 143.954545,104.882564 Z M143.954545,110.406655 C143.954545,111.496252 143.06929,112.379545 141.977273,112.379545 C140.885255,112.379545 140,111.496252 140,110.406655 C140,109.317058 140.885255,108.433765 141.977273,108.433765 C143.06929,108.433765 143.954545,109.317058 143.954545,110.406655 Z M143.954545,115.930746 C143.954545,117.020343 143.06929,117.903636 141.977273,117.903636 C140.885255,117.903636 140,117.020343 140,115.930746 C140,114.841149 140.885255,113.957856 141.977273,113.957856 C143.06929,113.957856 143.954545,114.841149 143.954545,115.930746 Z M143.954545,121.454837 C143.954545,122.544434 143.06929,123.427727 141.977273,123.427727 C140.885255,123.427727 140,122.544434 140,121.454837 C140,120.36524 140.885255,119.481947 141.977273,119.481947 C143.06929,119.481947 143.954545,120.36524 143.954545,121.454837 Z M143.954545,126.978928 C143.954545,128.068525 143.06929,128.951818 141.977273,128.951818 C140.885255,128.951818 140,128.068525 140,126.978928 C140,125.889331 140.885255,125.006039 141.977273,125.006039 C143.06929,125.006039 143.954545,125.889331 143.954545,126.978928 Z M143.954545,132.503019 C143.954545,133.592616 143.06929,134.475909 141.977273,134.475909 C140.885255,134.475909 140,133.592616 140,132.503019 C140,131.413422 140.885255,130.53013 141.977273,130.53013 C143.06929,130.53013 143.954545,131.413422 143.954545,132.503019 Z M143.954545,138.02711 C143.954545,139.116707 143.06929,140 141.977273,140 C140.885255,140 140,139.116707 140,138.02711 C140,136.937513 140.885255,136.054221 141.977273,136.054221 C143.06929,136.054221 143.954545,136.937513 143.954545,138.02711 Z M149.490909,10.9728897 C149.490909,12.0624865 148.605654,12.9457793 147.513636,12.9457793 C146.421619,12.9457793 145.536364,12.0624865 145.536364,10.9728897 C145.536364,9.88329279 146.421619,9 147.513636,9 C148.605654,9 149.490909,9.88329279 149.490909,10.9728897 Z M149.490909,16.4969807 C149.490909,17.5865776 148.605654,18.4698704 147.513636,18.4698704 C146.421619,18.4698704 145.536364,17.5865776 145.536364,16.4969807 C145.536364,15.4073839 146.421619,14.5240911 147.513636,14.5240911 C148.605654,14.5240911 149.490909,15.4073839 149.490909,16.4969807 Z M149.490909,22.0210718 C149.490909,23.1106687 148.605654,23.9939615 147.513636,23.9939615 C146.421619,23.9939615 145.536364,23.1106687 145.536364,22.0210718 C145.536364,20.9314749 146.421619,20.0481821 147.513636,20.0481821 C148.605654,20.0481821 149.490909,20.9314749 149.490909,22.0210718 Z M149.490909,33.0692539 C149.490909,34.1588508 148.605654,35.0421436 147.513636,35.0421436 C146.421619,35.0421436 145.536364,34.1588508 145.536364,33.0692539 C145.536364,31.979657 146.421619,31.0963642 147.513636,31.0963642 C148.605654,31.0963642 149.490909,31.979657 149.490909,33.0692539 Z M149.490909,38.593345 C149.490909,39.6829418 148.605654,40.5662346 147.513636,40.5662346 C146.421619,40.5662346 145.536364,39.6829418 145.536364,38.593345 C145.536364,37.5037481 146.421619,36.6204553 147.513636,36.6204553 C148.605654,36.6204553 149.490909,37.5037481 149.490909,38.593345 Z M149.490909,44.1173571 C149.490909,45.206954 148.605654,46.0902468 147.513636,46.0902468 C146.421619,46.0902468 145.536364,45.206954 145.536364,44.1173571 C145.536407,43.0277911 146.42165,42.1445464 147.513636,42.1445464 C148.605623,42.1445464 149.490865,43.0277911 149.490909,44.1173571 Z M149.490909,49.6414482 C149.490909,50.7310451 148.605654,51.6143378 147.513636,51.6143378 C146.421619,51.6143378 145.536364,50.7310451 145.536364,49.6414482 C145.536364,48.5518513 146.421619,47.6685585 147.513636,47.6685585 C148.605654,47.6685585 149.490909,48.5518513 149.490909,49.6414482 Z M149.490909,55.1655392 C149.490909,56.2551361 148.605654,57.1384289 147.513636,57.1384289 C146.421619,57.1384289 145.536364,56.2551361 145.536364,55.1655392 C145.536364,54.0759424 146.421619,53.1926496 147.513636,53.1926496 C148.605654,53.1926496 149.490909,54.0759424 149.490909,55.1655392 Z M149.490909,60.6896303 C149.490909,61.7792272 148.605654,62.66252 147.513636,62.66252 C146.421619,62.66252 145.536364,61.7792272 145.536364,60.6896303 C145.536364,59.6000334 146.421619,58.7167406 147.513636,58.7167406 C148.605654,58.7167406 149.490909,59.6000334 149.490909,60.6896303 Z M149.490909,66.2137214 C149.4909,67.3033121 148.605648,68.1865952 147.513636,68.1865952 C146.421625,68.1865952 145.536372,67.3033121 145.536364,66.2137214 C145.536364,65.1241245 146.421619,64.2408317 147.513636,64.2408317 C148.605654,64.2408317 149.490909,65.1241245 149.490909,66.2137214 Z M149.490909,71.7378598 C149.490909,72.8274566 148.605654,73.7107494 147.513636,73.7107494 C146.421619,73.7107494 145.536364,72.8274566 145.536364,71.7378598 C145.536364,70.6482629 146.421619,69.7649701 147.513636,69.7649701 C148.605654,69.7649701 149.490909,70.6482629 149.490909,71.7378598 Z M149.490909,77.2619508 C149.490909,78.3515477 148.605654,79.2348405 147.513636,79.2348405 C146.421619,79.2348405 145.536364,78.3515477 145.536364,77.2619508 C145.536364,76.172354 146.421619,75.2890612 147.513636,75.2890612 C148.605654,75.2890612 149.490909,76.172354 149.490909,77.2619508 Z M149.490909,82.7861997 C149.490909,83.8757966 148.605654,84.7590894 147.513636,84.7590894 C146.421619,84.7590894 145.536364,83.8757966 145.536364,82.7861997 C145.536322,82.2629295 145.744622,81.7610768 146.115437,81.391054 C146.486253,81.0210313 146.989204,80.8131522 147.513636,80.8131522 C148.038069,80.8131522 148.54102,81.0210313 148.911835,81.391054 C149.28265,81.7610768 149.490951,82.2629295 149.490909,82.7861997 Z M149.490909,88.3102908 C149.490909,89.3998877 148.605654,90.2831804 147.513636,90.2831804 C146.421619,90.2831804 145.536364,89.3998877 145.536364,88.3102908 C145.536364,87.2206939 146.421619,86.3374011 147.513636,86.3374011 C148.605654,86.3374011 149.490909,87.2206939 149.490909,88.3102908 Z M149.490909,93.8343818 C149.490909,94.9239787 148.605654,95.8072715 147.513636,95.8072715 C146.421619,95.8072715 145.536364,94.9239787 145.536364,93.8343818 C145.536364,92.744785 146.421619,91.8614922 147.513636,91.8614922 C148.605654,91.8614922 149.490909,92.744785 149.490909,93.8343818 Z M149.490909,99.3584729 C149.490909,100.44807 148.605654,101.331363 147.513636,101.331363 C146.421619,101.331363 145.536364,100.44807 145.536364,99.3584729 C145.536364,98.268876 146.421619,97.3855832 147.513636,97.3855832 C148.605654,97.3855832 149.490909,98.268876 149.490909,99.3584729 Z M149.490909,104.882564 C149.490909,105.972161 148.605654,106.855454 147.513636,106.855454 C146.421619,106.855454 145.536364,105.972161 145.536364,104.882564 C145.536364,103.792967 146.421619,102.909674 147.513636,102.909674 C148.605654,102.909674 149.490909,103.792967 149.490909,104.882564 Z M149.490909,110.406655 C149.490909,111.496252 148.605654,112.379545 147.513636,112.379545 C146.421619,112.379545 145.536364,111.496252 145.536364,110.406655 C145.536364,109.317058 146.421619,108.433765 147.513636,108.433765 C148.605654,108.433765 149.490909,109.317058 149.490909,110.406655 Z M149.490909,115.930746 C149.490909,117.020343 148.605654,117.903636 147.513636,117.903636 C146.421619,117.903636 145.536364,117.020343 145.536364,115.930746 C145.536364,114.841149 146.421619,113.957856 147.513636,113.957856 C148.605654,113.957856 149.490909,114.841149 149.490909,115.930746 Z M149.490909,121.454837 C149.490909,122.544434 148.605654,123.427727 147.513636,123.427727 C146.421619,123.427727 145.536364,122.544434 145.536364,121.454837 C145.536364,120.36524 146.421619,119.481947 147.513636,119.481947 C148.605654,119.481947 149.490909,120.36524 149.490909,121.454837 Z M149.490909,126.978928 C149.490909,128.068525 148.605654,128.951818 147.513636,128.951818 C146.421619,128.951818 145.536364,128.068525 145.536364,126.978928 C145.536364,125.889331 146.421619,125.006039 147.513636,125.006039 C148.605654,125.006039 149.490909,125.889331 149.490909,126.978928 Z M149.490909,132.503019 C149.490909,133.592616 148.605654,134.475909 147.513636,134.475909 C146.421619,134.475909 145.536364,133.592616 145.536364,132.503019 C145.536364,131.413422 146.421619,130.53013 147.513636,130.53013 C148.605654,130.53013 149.490909,131.413422 149.490909,132.503019 Z M155.027273,10.9728897 C155.027273,12.0624865 154.142018,12.9457793 153.05,12.9457793 C151.957982,12.9457793 151.072727,12.0624865 151.072727,10.9728897 C151.072727,9.88329279 151.957982,9 153.05,9 C154.142018,9 155.027273,9.88329279 155.027273,10.9728897 Z M155.027273,33.0692539 C155.027273,34.1588508 154.142018,35.0421436 153.05,35.0421436 C151.957982,35.0421436 151.072727,34.1588508 151.072727,33.0692539 C151.072727,31.979657 151.957982,31.0963642 153.05,31.0963642 C154.142018,31.0963642 155.027273,31.979657 155.027273,33.0692539 Z M155.027273,38.593345 C155.027273,39.6829418 154.142018,40.5662346 153.05,40.5662346 C151.957982,40.5662346 151.072727,39.6829418 151.072727,38.593345 C151.072727,37.5037481 151.957982,36.6204553 153.05,36.6204553 C154.142018,36.6204553 155.027273,37.5037481 155.027273,38.593345 Z M155.027273,44.1173571 C155.027273,45.206954 154.142018,46.0902468 153.05,46.0902468 C151.957982,46.0902468 151.072727,45.206954 151.072727,44.1173571 C151.072771,43.0277911 151.958013,42.1445464 153.05,42.1445464 C154.141987,42.1445464 155.027229,43.0277911 155.027273,44.1173571 Z M155.027273,49.6414482 C155.027273,50.7310451 154.142018,51.6143378 153.05,51.6143378 C151.957982,51.6143378 151.072727,50.7310451 151.072727,49.6414482 C151.072727,48.5518513 151.957982,47.6685585 153.05,47.6685585 C154.142018,47.6685585 155.027273,48.5518513 155.027273,49.6414482 Z M155.027273,55.1655392 C155.027273,56.2551361 154.142018,57.1384289 153.05,57.1384289 C151.957982,57.1384289 151.072727,56.2551361 151.072727,55.1655392 C151.072727,54.0759424 151.957982,53.1926496 153.05,53.1926496 C154.142018,53.1926496 155.027273,54.0759424 155.027273,55.1655392 Z M155.027273,60.6896303 C155.027273,61.7792272 154.142018,62.66252 153.05,62.66252 C151.957982,62.66252 151.072727,61.7792272 151.072727,60.6896303 C151.072727,59.6000334 151.957982,58.7167406 153.05,58.7167406 C154.142018,58.7167406 155.027273,59.6000334 155.027273,60.6896303 Z M155.027273,66.2137214 C155.027264,67.3033121 154.142011,68.1865952 153.05,68.1865952 C151.957989,68.1865952 151.072736,67.3033121 151.072727,66.2137214 C151.072727,65.1241245 151.957982,64.2408317 153.05,64.2408317 C154.142018,64.2408317 155.027273,65.1241245 155.027273,66.2137214 Z M155.027273,71.7378598 C155.027273,72.8274566 154.142018,73.7107494 153.05,73.7107494 C151.957982,73.7107494 151.072727,72.8274566 151.072727,71.7378598 C151.072727,70.6482629 151.957982,69.7649701 153.05,69.7649701 C154.142018,69.7649701 155.027273,70.6482629 155.027273,71.7378598 Z M155.027273,77.2619508 C155.027273,78.3515477 154.142018,79.2348405 153.05,79.2348405 C151.957982,79.2348405 151.072727,78.3515477 151.072727,77.2619508 C151.072727,76.172354 151.957982,75.2890612 153.05,75.2890612 C154.142018,75.2890612 155.027273,76.172354 155.027273,77.2619508 Z M155.027273,82.7861997 C155.027273,83.8757966 154.142018,84.7590894 153.05,84.7590894 C151.957982,84.7590894 151.072727,83.8757966 151.072727,82.7861997 C151.072685,82.2629295 151.280986,81.7610768 151.651801,81.391054 C152.022616,81.0210313 152.525567,80.8131522 153.05,80.8131522 C153.574433,80.8131522 154.077384,81.0210313 154.448199,81.391054 C154.819014,81.7610768 155.027315,82.2629295 155.027273,82.7861997 Z M155.027273,88.3102908 C155.027273,89.3998877 154.142018,90.2831804 153.05,90.2831804 C151.957982,90.2831804 151.072727,89.3998877 151.072727,88.3102908 C151.072727,87.2206939 151.957982,86.3374011 153.05,86.3374011 C154.142018,86.3374011 155.027273,87.2206939 155.027273,88.3102908 Z M155.027273,93.8343818 C155.027273,94.9239787 154.142018,95.8072715 153.05,95.8072715 C151.957982,95.8072715 151.072727,94.9239787 151.072727,93.8343818 C151.072727,92.744785 151.957982,91.8614922 153.05,91.8614922 C154.142018,91.8614922 155.027273,92.744785 155.027273,93.8343818 Z M155.027273,99.3584729 C155.027273,100.44807 154.142018,101.331363 153.05,101.331363 C151.957982,101.331363 151.072727,100.44807 151.072727,99.3584729 C151.072727,98.268876 151.957982,97.3855832 153.05,97.3855832 C154.142018,97.3855832 155.027273,98.268876 155.027273,99.3584729 Z M155.027273,104.882564 C155.027273,105.972161 154.142018,106.855454 153.05,106.855454 C151.957982,106.855454 151.072727,105.972161 151.072727,104.882564 C151.072727,103.792967 151.957982,102.909674 153.05,102.909674 C154.142018,102.909674 155.027273,103.792967 155.027273,104.882564 Z M155.027273,110.406655 C155.027273,111.496252 154.142018,112.379545 153.05,112.379545 C151.957982,112.379545 151.072727,111.496252 151.072727,110.406655 C151.072727,109.317058 151.957982,108.433765 153.05,108.433765 C154.142018,108.433765 155.027273,109.317058 155.027273,110.406655 Z M155.027273,115.930746 C155.027273,117.020343 154.142018,117.903636 153.05,117.903636 C151.957982,117.903636 151.072727,117.020343 151.072727,115.930746 C151.072727,114.841149 151.957982,113.957856 153.05,113.957856 C154.142018,113.957856 155.027273,114.841149 155.027273,115.930746 Z M160.563636,49.6414482 C160.563636,50.7310451 159.678381,51.6143378 158.586364,51.6143378 C157.494346,51.6143378 156.609091,50.7310451 156.609091,49.6414482 C156.609091,48.5518513 157.494346,47.6685585 158.586364,47.6685585 C159.678381,47.6685585 160.563636,48.5518513 160.563636,49.6414482 Z M160.563636,55.1655392 C160.563636,56.2551361 159.678381,57.1384289 158.586364,57.1384289 C157.494346,57.1384289 156.609091,56.2551361 156.609091,55.1655392 C156.609091,54.0759424 157.494346,53.1926496 158.586364,53.1926496 C159.678381,53.1926496 160.563636,54.0759424 160.563636,55.1655392 Z M160.563636,60.6896303 C160.563636,61.7792272 159.678381,62.66252 158.586364,62.66252 C157.494346,62.66252 156.609091,61.7792272 156.609091,60.6896303 C156.609091,59.6000334 157.494346,58.7167406 158.586364,58.7167406 C159.678381,58.7167406 160.563636,59.6000334 160.563636,60.6896303 Z M160.563636,66.2137214 C160.563628,67.3033121 159.678375,68.1865952 158.586364,68.1865952 C157.494352,68.1865952 156.6091,67.3033121 156.609091,66.2137214 C156.609091,65.1241245 157.494346,64.2408317 158.586364,64.2408317 C159.678381,64.2408317 160.563636,65.1241245 160.563636,66.2137214 Z M160.563636,71.7378598 C160.563636,72.8274566 159.678381,73.7107494 158.586364,73.7107494 C157.494346,73.7107494 156.609091,72.8274566 156.609091,71.7378598 C156.609091,70.6482629 157.494346,69.7649701 158.586364,69.7649701 C159.678381,69.7649701 160.563636,70.6482629 160.563636,71.7378598 Z M160.563636,77.2619508 C160.563636,78.3515477 159.678381,79.2348405 158.586364,79.2348405 C157.494346,79.2348405 156.609091,78.3515477 156.609091,77.2619508 C156.609091,76.172354 157.494346,75.2890612 158.586364,75.2890612 C159.678381,75.2890612 160.563636,76.172354 160.563636,77.2619508 Z M160.563636,82.7861997 C160.563636,83.8757966 159.678381,84.7590894 158.586364,84.7590894 C157.494346,84.7590894 156.609091,83.8757966 156.609091,82.7861997 C156.609049,82.2629295 156.81735,81.7610768 157.188165,81.391054 C157.55898,81.0210313 158.061931,80.8131522 158.586364,80.8131522 C159.110796,80.8131522 159.613747,81.0210313 159.984563,81.391054 C160.355378,81.7610768 160.563678,82.2629295 160.563636,82.7861997 Z M160.563636,88.3102908 C160.563636,89.3998877 159.678381,90.2831804 158.586364,90.2831804 C157.494346,90.2831804 156.609091,89.3998877 156.609091,88.3102908 C156.609091,87.2206939 157.494346,86.3374011 158.586364,86.3374011 C159.678381,86.3374011 160.563636,87.2206939 160.563636,88.3102908 Z M160.563636,93.8343818 C160.563636,94.9239787 159.678381,95.8072715 158.586364,95.8072715 C157.494346,95.8072715 156.609091,94.9239787 156.609091,93.8343818 C156.609091,92.744785 157.494346,91.8614922 158.586364,91.8614922 C159.678381,91.8614922 160.563636,92.744785 160.563636,93.8343818 Z M160.563636,99.3584729 C160.563636,100.44807 159.678381,101.331363 158.586364,101.331363 C157.494346,101.331363 156.609091,100.44807 156.609091,99.3584729 C156.609091,98.268876 157.494346,97.3855832 158.586364,97.3855832 C159.678381,97.3855832 160.563636,98.268876 160.563636,99.3584729 Z M166.1,49.6414482 C166.1,50.7310451 165.214745,51.6143378 164.122727,51.6143378 C163.03071,51.6143378 162.145455,50.7310451 162.145455,49.6414482 C162.145455,48.5518513 163.03071,47.6685585 164.122727,47.6685585 C165.214745,47.6685585 166.1,48.5518513 166.1,49.6414482 Z M166.1,55.1655392 C166.1,56.2551361 165.214745,57.1384289 164.122727,57.1384289 C163.03071,57.1384289 162.145455,56.2551361 162.145455,55.1655392 C162.145455,54.0759424 163.03071,53.1926496 164.122727,53.1926496 C165.214745,53.1926496 166.1,54.0759424 166.1,55.1655392 Z M166.1,60.6896303 C166.1,61.7792272 165.214745,62.66252 164.122727,62.66252 C163.03071,62.66252 162.145455,61.7792272 162.145455,60.6896303 C162.145455,59.6000334 163.03071,58.7167406 164.122727,58.7167406 C165.214745,58.7167406 166.1,59.6000334 166.1,60.6896303 Z M166.1,66.2137214 C166.099991,67.3033121 165.214739,68.1865952 164.122727,68.1865952 C163.030716,68.1865952 162.145463,67.3033121 162.145455,66.2137214 C162.145455,65.1241245 163.03071,64.2408317 164.122727,64.2408317 C165.214745,64.2408317 166.1,65.1241245 166.1,66.2137214 Z M166.1,71.7378598 C166.1,72.8274566 165.214745,73.7107494 164.122727,73.7107494 C163.03071,73.7107494 162.145455,72.8274566 162.145455,71.7378598 C162.145455,70.6482629 163.03071,69.7649701 164.122727,69.7649701 C165.214745,69.7649701 166.1,70.6482629 166.1,71.7378598 Z M166.1,77.2619508 C166.1,78.3515477 165.214745,79.2348405 164.122727,79.2348405 C163.03071,79.2348405 162.145455,78.3515477 162.145455,77.2619508 C162.145455,76.172354 163.03071,75.2890612 164.122727,75.2890612 C165.214745,75.2890612 166.1,76.172354 166.1,77.2619508 Z M166.1,82.7861997 C166.1,83.8757966 165.214745,84.7590894 164.122727,84.7590894 C163.03071,84.7590894 162.145455,83.8757966 162.145455,82.7861997 C162.145413,82.2629295 162.353713,81.7610768 162.724528,81.391054 C163.095344,81.0210313 163.598295,80.8131522 164.122727,80.8131522 C164.64716,80.8131522 165.150111,81.0210313 165.520926,81.391054 C165.891741,81.7610768 166.100042,82.2629295 166.1,82.7861997 Z M166.1,88.3102908 C166.1,89.3998877 165.214745,90.2831804 164.122727,90.2831804 C163.03071,90.2831804 162.145455,89.3998877 162.145455,88.3102908 C162.145455,87.2206939 163.03071,86.3374011 164.122727,86.3374011 C165.214745,86.3374011 166.1,87.2206939 166.1,88.3102908 Z M166.1,93.8343818 C166.1,94.9239787 165.214745,95.8072715 164.122727,95.8072715 C163.03071,95.8072715 162.145455,94.9239787 162.145455,93.8343818 C162.145455,92.744785 163.03071,91.8614922 164.122727,91.8614922 C165.214745,91.8614922 166.1,92.744785 166.1,93.8343818 Z M171.636364,49.6414482 C171.636364,50.7310451 170.751108,51.6143378 169.659091,51.6143378 C168.567073,51.6143378 167.681818,50.7310451 167.681818,49.6414482 C167.681818,48.5518513 168.567073,47.6685585 169.659091,47.6685585 C170.751108,47.6685585 171.636364,48.5518513 171.636364,49.6414482 Z M171.636364,55.1655392 C171.636364,56.2551361 170.751108,57.1384289 169.659091,57.1384289 C168.567073,57.1384289 167.681818,56.2551361 167.681818,55.1655392 C167.681818,54.0759424 168.567073,53.1926496 169.659091,53.1926496 C170.751108,53.1926496 171.636364,54.0759424 171.636364,55.1655392 Z M171.636364,60.6896303 C171.636364,61.7792272 170.751108,62.66252 169.659091,62.66252 C168.567073,62.66252 167.681818,61.7792272 167.681818,60.6896303 C167.681818,59.6000334 168.567073,58.7167406 169.659091,58.7167406 C170.751108,58.7167406 171.636364,59.6000334 171.636364,60.6896303 Z M171.636364,66.2137214 C171.636355,67.3033121 170.751102,68.1865952 169.659091,68.1865952 C168.56708,68.1865952 167.681827,67.3033121 167.681818,66.2137214 C167.681818,65.1241245 168.567073,64.2408317 169.659091,64.2408317 C170.751108,64.2408317 171.636364,65.1241245 171.636364,66.2137214 Z M171.636364,71.7378598 C171.636364,72.8274566 170.751108,73.7107494 169.659091,73.7107494 C168.567073,73.7107494 167.681818,72.8274566 167.681818,71.7378598 C167.681818,70.6482629 168.567073,69.7649701 169.659091,69.7649701 C170.751108,69.7649701 171.636364,70.6482629 171.636364,71.7378598 Z M171.636364,77.2619508 C171.636364,78.3515477 170.751108,79.2348405 169.659091,79.2348405 C168.567073,79.2348405 167.681818,78.3515477 167.681818,77.2619508 C167.681818,76.172354 168.567073,75.2890612 169.659091,75.2890612 C170.751108,75.2890612 171.636364,76.172354 171.636364,77.2619508 Z M171.636364,82.7861997 C171.636364,83.8757966 170.751108,84.7590894 169.659091,84.7590894 C168.567073,84.7590894 167.681818,83.8757966 167.681818,82.7861997 C167.681776,82.2629295 167.890077,81.7610768 168.260892,81.391054 C168.631707,81.0210313 169.134658,80.8131522 169.659091,80.8131522 C170.183524,80.8131522 170.686475,81.0210313 171.05729,81.391054 C171.428105,81.7610768 171.636406,82.2629295 171.636364,82.7861997 Z M171.636364,88.3102908 C171.636364,89.3998877 170.751108,90.2831804 169.659091,90.2831804 C168.567073,90.2831804 167.681818,89.3998877 167.681818,88.3102908 C167.681818,87.2206939 168.567073,86.3374011 169.659091,86.3374011 C170.751108,86.3374011 171.636364,87.2206939 171.636364,88.3102908 Z M177.172727,55.1655392 C177.172727,56.2551361 176.287472,57.1384289 175.195455,57.1384289 C174.103437,57.1384289 173.218182,56.2551361 173.218182,55.1655392 C173.218182,54.0759424 174.103437,53.1926496 175.195455,53.1926496 C176.287472,53.1926496 177.172727,54.0759424 177.172727,55.1655392 Z M177.172727,60.6896303 C177.172727,61.7792272 176.287472,62.66252 175.195455,62.66252 C174.103437,62.66252 173.218182,61.7792272 173.218182,60.6896303 C173.218182,59.6000334 174.103437,58.7167406 175.195455,58.7167406 C176.287472,58.7167406 177.172727,59.6000334 177.172727,60.6896303 Z M177.172727,66.2137214 C177.172719,67.3033121 176.287466,68.1865952 175.195455,68.1865952 C174.103443,68.1865952 173.218191,67.3033121 173.218182,66.2137214 C173.218182,65.1241245 174.103437,64.2408317 175.195455,64.2408317 C176.287472,64.2408317 177.172727,65.1241245 177.172727,66.2137214 Z M177.172727,71.7378598 C177.172727,72.8274566 176.287472,73.7107494 175.195455,73.7107494 C174.103437,73.7107494 173.218182,72.8274566 173.218182,71.7378598 C173.218182,70.6482629 174.103437,69.7649701 175.195455,69.7649701 C176.287472,69.7649701 177.172727,70.6482629 177.172727,71.7378598 Z M177.172727,77.2619508 C177.172727,78.3515477 176.287472,79.2348405 175.195455,79.2348405 C174.103437,79.2348405 173.218182,78.3515477 173.218182,77.2619508 C173.218182,76.172354 174.103437,75.2890612 175.195455,75.2890612 C176.287472,75.2890612 177.172727,76.172354 177.172727,77.2619508 Z M177.172727,82.7861997 C177.172727,83.8757966 176.287472,84.7590894 175.195455,84.7590894 C174.103437,84.7590894 173.218182,83.8757966 173.218182,82.7861997 C173.21814,82.2629295 173.426441,81.7610768 173.797256,81.391054 C174.168071,81.0210313 174.671022,80.8131522 175.195455,80.8131522 C175.719887,80.8131522 176.222838,81.0210313 176.593653,81.391054 C176.964469,81.7610768 177.172769,82.2629295 177.172727,82.7861997 Z M182.709091,55.1655392 C182.709091,56.2551361 181.823836,57.1384289 180.731818,57.1384289 C179.639801,57.1384289 178.754545,56.2551361 178.754545,55.1655392 C178.754545,54.0759424 179.639801,53.1926496 180.731818,53.1926496 C181.823836,53.1926496 182.709091,54.0759424 182.709091,55.1655392 Z M182.709091,60.6896303 C182.709091,61.7792272 181.823836,62.66252 180.731818,62.66252 C179.639801,62.66252 178.754545,61.7792272 178.754545,60.6896303 C178.754545,59.6000334 179.639801,58.7167406 180.731818,58.7167406 C181.823836,58.7167406 182.709091,59.6000334 182.709091,60.6896303 Z M182.709091,66.2137214 C182.709082,67.3033121 181.82383,68.1865952 180.731818,68.1865952 C179.639807,68.1865952 178.754554,67.3033121 178.754545,66.2137214 C178.754545,65.1241245 179.639801,64.2408317 180.731818,64.2408317 C181.823836,64.2408317 182.709091,65.1241245 182.709091,66.2137214 Z M182.709091,71.7378598 C182.709091,72.8274566 181.823836,73.7107494 180.731818,73.7107494 C179.639801,73.7107494 178.754545,72.8274566 178.754545,71.7378598 C178.754545,70.6482629 179.639801,69.7649701 180.731818,69.7649701 C181.823836,69.7649701 182.709091,70.6482629 182.709091,71.7378598 Z M182.709091,77.2619508 C182.709091,78.3515477 181.823836,79.2348405 180.731818,79.2348405 C179.639801,79.2348405 178.754545,78.3515477 178.754545,77.2619508 C178.754545,76.172354 179.639801,75.2890612 180.731818,75.2890612 C181.823836,75.2890612 182.709091,76.172354 182.709091,77.2619508 Z M182.709091,82.7861997 C182.709091,83.8757966 181.823836,84.7590894 180.731818,84.7590894 C179.639801,84.7590894 178.754545,83.8757966 178.754545,82.7861997 C178.754504,82.2629295 178.962804,81.7610768 179.333619,81.391054 C179.704434,81.0210313 180.207385,80.8131522 180.731818,80.8131522 C181.256251,80.8131522 181.759202,81.0210313 182.130017,81.391054 C182.500832,81.7610768 182.709133,82.2629295 182.709091,82.7861997 Z M188.245455,55.1655392 C188.245455,56.2551361 187.360199,57.1384289 186.268182,57.1384289 C185.176164,57.1384289 184.290909,56.2551361 184.290909,55.1655392 C184.290909,54.0759424 185.176164,53.1926496 186.268182,53.1926496 C187.360199,53.1926496 188.245455,54.0759424 188.245455,55.1655392 Z M188.245455,60.6896303 C188.245455,61.7792272 187.360199,62.66252 186.268182,62.66252 C185.176164,62.66252 184.290909,61.7792272 184.290909,60.6896303 C184.290909,59.6000334 185.176164,58.7167406 186.268182,58.7167406 C187.360199,58.7167406 188.245455,59.6000334 188.245455,60.6896303 Z M188.245455,66.2137214 C188.245446,67.3033121 187.360193,68.1865952 186.268182,68.1865952 C185.17617,68.1865952 184.290918,67.3033121 184.290909,66.2137214 C184.290909,65.1241245 185.176164,64.2408317 186.268182,64.2408317 C187.360199,64.2408317 188.245455,65.1241245 188.245455,66.2137214 Z M188.245455,71.7378598 C188.245455,72.8274566 187.360199,73.7107494 186.268182,73.7107494 C185.176164,73.7107494 184.290909,72.8274566 184.290909,71.7378598 C184.290909,70.6482629 185.176164,69.7649701 186.268182,69.7649701 C187.360199,69.7649701 188.245455,70.6482629 188.245455,71.7378598 Z M193.781818,49.6414482 C193.781818,50.7310451 192.896563,51.6143378 191.804545,51.6143378 C190.712528,51.6143378 189.827273,50.7310451 189.827273,49.6414482 C189.827273,48.5518513 190.712528,47.6685585 191.804545,47.6685585 C192.896563,47.6685585 193.781818,48.5518513 193.781818,49.6414482 Z M193.781818,66.2137214 C193.781809,67.3033121 192.896557,68.1865952 191.804545,68.1865952 C190.712534,68.1865952 189.827281,67.3033121 189.827273,66.2137214 C189.827273,65.1241245 190.712528,64.2408317 191.804545,64.2408317 C192.896563,64.2408317 193.781818,65.1241245 193.781818,66.2137214 Z M193.781818,71.7378598 C193.781818,72.8274566 192.896563,73.7107494 191.804545,73.7107494 C190.712528,73.7107494 189.827273,72.8274566 189.827273,71.7378598 C189.827273,70.6482629 190.712528,69.7649701 191.804545,69.7649701 C192.896563,69.7649701 193.781818,70.6482629 193.781818,71.7378598 Z M199.318182,49.6414482 C199.318182,50.7310451 198.432927,51.6143378 197.340909,51.6143378 C196.248892,51.6143378 195.363636,50.7310451 195.363636,49.6414482 C195.363636,48.5518513 196.248892,47.6685585 197.340909,47.6685585 C198.432927,47.6685585 199.318182,48.5518513 199.318182,49.6414482 Z M199.318182,55.1655392 C199.318182,56.2551361 198.432927,57.1384289 197.340909,57.1384289 C196.248892,57.1384289 195.363636,56.2551361 195.363636,55.1655392 C195.363636,54.0759424 196.248892,53.1926496 197.340909,53.1926496 C198.432927,53.1926496 199.318182,54.0759424 199.318182,55.1655392 Z M204.854545,49.6414482 C204.854545,50.7310451 203.96929,51.6143378 202.877273,51.6143378 C201.785255,51.6143378 200.9,50.7310451 200.9,49.6414482 C200.9,48.5518513 201.785255,47.6685585 202.877273,47.6685585 C203.96929,47.6685585 204.854545,48.5518513 204.854545,49.6414482 Z M204.854545,55.1655392 C204.854545,56.2551361 203.96929,57.1384289 202.877273,57.1384289 C201.785255,57.1384289 200.9,56.2551361 200.9,55.1655392 C200.9,54.0759424 201.785255,53.1926496 202.877273,53.1926496 C203.96929,53.1926496 204.854545,54.0759424 204.854545,55.1655392 Z M210.390909,44.1173571 C210.390909,45.206954 209.505654,46.0902468 208.413636,46.0902468 C207.321619,46.0902468 206.436364,45.206954 206.436364,44.1173571 C206.436407,43.0277911 207.32165,42.1445464 208.413636,42.1445464 C209.505623,42.1445464 210.390865,43.0277911 210.390909,44.1173571 Z M210.390909,49.6414482 C210.390909,50.7310451 209.505654,51.6143378 208.413636,51.6143378 C207.321619,51.6143378 206.436364,50.7310451 206.436364,49.6414482 C206.436364,48.5518513 207.321619,47.6685585 208.413636,47.6685585 C209.505654,47.6685585 210.390909,48.5518513 210.390909,49.6414482 Z M210.390909,55.1655392 C210.390909,56.2551361 209.505654,57.1384289 208.413636,57.1384289 C207.321619,57.1384289 206.436364,56.2551361 206.436364,55.1655392 C206.436364,54.0759424 207.321619,53.1926496 208.413636,53.1926496 C209.505654,53.1926496 210.390909,54.0759424 210.390909,55.1655392 Z M210.390909,60.6896303 C210.390909,61.7792272 209.505654,62.66252 208.413636,62.66252 C207.321619,62.66252 206.436364,61.7792272 206.436364,60.6896303 C206.436364,59.6000334 207.321619,58.7167406 208.413636,58.7167406 C209.505654,58.7167406 210.390909,59.6000334 210.390909,60.6896303 Z M210.390909,66.2137214 C210.3909,67.3033121 209.505648,68.1865952 208.413636,68.1865952 C207.321625,68.1865952 206.436372,67.3033121 206.436364,66.2137214 C206.436364,65.1241245 207.321619,64.2408317 208.413636,64.2408317 C209.505654,64.2408317 210.390909,65.1241245 210.390909,66.2137214 Z M215.927273,38.593345 C215.927273,39.6829418 215.042018,40.5662346 213.95,40.5662346 C212.857982,40.5662346 211.972727,39.6829418 211.972727,38.593345 C211.972727,37.5037481 212.857982,36.6204553 213.95,36.6204553 C215.042018,36.6204553 215.927273,37.5037481 215.927273,38.593345 Z M215.927273,44.1173571 C215.927273,45.206954 215.042018,46.0902468 213.95,46.0902468 C212.857982,46.0902468 211.972727,45.206954 211.972727,44.1173571 C211.972771,43.0277911 212.858013,42.1445464 213.95,42.1445464 C215.041987,42.1445464 215.927229,43.0277911 215.927273,44.1173571 Z M215.927273,49.6414482 C215.927273,50.7310451 215.042018,51.6143378 213.95,51.6143378 C212.857982,51.6143378 211.972727,50.7310451 211.972727,49.6414482 C211.972727,48.5518513 212.857982,47.6685585 213.95,47.6685585 C215.042018,47.6685585 215.927273,48.5518513 215.927273,49.6414482 Z M215.927273,55.1655392 C215.927273,56.2551361 215.042018,57.1384289 213.95,57.1384289 C212.857982,57.1384289 211.972727,56.2551361 211.972727,55.1655392 C211.972727,54.0759424 212.857982,53.1926496 213.95,53.1926496 C215.042018,53.1926496 215.927273,54.0759424 215.927273,55.1655392 Z M215.927273,60.6896303 C215.927273,61.7792272 215.042018,62.66252 213.95,62.66252 C212.857982,62.66252 211.972727,61.7792272 211.972727,60.6896303 C211.972727,59.6000334 212.857982,58.7167406 213.95,58.7167406 C215.042018,58.7167406 215.927273,59.6000334 215.927273,60.6896303 Z M221.463636,38.593345 C221.463636,39.6829418 220.578381,40.5662346 219.486364,40.5662346 C218.394346,40.5662346 217.509091,39.6829418 217.509091,38.593345 C217.509091,37.5037481 218.394346,36.6204553 219.486364,36.6204553 C220.578381,36.6204553 221.463636,37.5037481 221.463636,38.593345 Z M221.463636,44.1173571 C221.463636,45.206954 220.578381,46.0902468 219.486364,46.0902468 C218.394346,46.0902468 217.509091,45.206954 217.509091,44.1173571 C217.509135,43.0277911 218.394377,42.1445464 219.486364,42.1445464 C220.57835,42.1445464 221.463593,43.0277911 221.463636,44.1173571 Z M227,44.1173571 C227,45.206954 226.114745,46.0902468 225.022727,46.0902468 C223.93071,46.0902468 223.045455,45.206954 223.045455,44.1173571 C223.045498,43.0277911 223.930741,42.1445464 225.022727,42.1445464 C226.114714,42.1445464 226.999956,43.0277911 227,44.1173571 Z" id="Combined-Shape"></path>
                </g>
            </g>
        </g>
    </g>
</svg>