<svg height="448pt" viewBox="0 -40 448 448" width="448pt" xmlns="http://www.w3.org/2000/svg"><path d="m112 128h104v8h-104zm0 0"/><path d="m352 80c0 4.417969-3.582031 8-8 8s-8-3.582031-8-8 3.582031-8 8-8 8 3.582031 8 8zm0 0"/><path d="m232 128h96v8h-96zm0 0"/><path d="m232 152h96v8h-96zm0 0"/><path d="m8 160h88v-8h-96c0 4.417969 3.582031 8 8 8zm0 0"/><path d="m112 152h104v8h-104zm0 0"/><path d="m0 128h96v8h-96zm0 0"/><path d="m448 152h-104v8h96c4.417969 0 8-3.582031 8-8zm0 0"/><path d="m392 72h32v16h-32zm0 0"/><path d="m344 128h104v8h-104zm0 0"/><path d="m448 8c0-4.417969-3.582031-8-8-8h-432c-4.417969 0-8 3.582031-8 8v104h448zm-400 16h-24v24c0 4.417969-3.582031 8-8 8s-8-3.582031-8-8v-32c0-4.417969 3.582031-8 8-8h32c4.417969 0 8 3.582031 8 8s-3.582031 8-8 8zm40 0h-16c-4.417969 0-8-3.582031-8-8s3.582031-8 8-8h16c4.417969 0 8 3.582031 8 8s-3.582031 8-8 8zm256 80c-13.253906 0-24-10.746094-24-24s10.746094-24 24-24 24 10.746094 24 24-10.746094 24-24 24zm96-8c0 4.417969-3.582031 8-8 8h-48c-4.417969 0-8-3.582031-8-8v-32c0-4.417969 3.582031-8 8-8h48c4.417969 0 8 3.582031 8 8zm0 0"/><path d="m224 368c-83.910156-.09375-151.90625-68.089844-152-152 0-4.417969 3.582031-8 8-8s8 3.582031 8 8c0 75.109375 60.890625 136 136 136s136-60.890625 136-136c0-4.417969 3.582031-8 8-8s8 3.582031 8 8c-.09375 83.910156-68.089844 151.90625-152 152zm0 0"/><path d="m224 320c-57.410156-.066406-103.933594-46.589844-104-104 0-4.417969 3.582031-8 8-8s8 3.582031 8 8c0 48.601562 39.398438 88 88 88s88-39.398438 88-88c0-4.417969 3.582031-8 8-8s8 3.582031 8 8c-.066406 57.410156-46.589844 103.933594-104 104zm0 0"/><path d="m224 272c-30.914062-.035156-55.964844-25.085938-56-56 0-4.417969 3.582031-8 8-8s8 3.582031 8 8c0 22.089844 17.910156 40 40 40s40-17.910156 40-40c0-4.417969 3.582031-8 8-8s8 3.582031 8 8c-.035156 30.914062-25.085938 55.964844-56 56zm0 0"/></svg>