<svg height="450pt" viewBox="0 -1 450.848 450" width="450pt" xmlns="http://www.w3.org/2000/svg"><path d="m11.199219 90.023438 78.402343-78.398438c-22.296874-16.722656-53.492187-14.503906-73.199218 5.199219-19.707032 19.707031-21.921875 50.90625-5.203125 73.199219zm0 0"/><path d="m439.648438 90.023438c16.71875-22.292969 14.503906-53.492188-5.203126-73.199219-19.707031-19.703125-50.902343-21.921875-73.199218-5.199219zm0 0"/><path d="m233.425781 225.855469c0 4.417969-3.582031 8-8 8-4.421875 0-8-3.582031-8-8s3.578125-8 8-8c4.417969 0 8 3.582031 8 8zm0 0"/><path d="m165.71875 399.855469c-10.984375-3.785157-21.582031-8.605469-31.65625-14.398438-.207031-.097656-.429688-.144531-.636719-.265625-.210937-.121094-.210937-.214844-.347656-.304687-.566406-.335938-1.148437-.648438-1.71875-.992188l-39.839844 51.203125 12.640625 12.644532zm0 0"/><path d="m369.425781 217.855469h23.589844c-1.085937-24.023438-7.363281-47.527344-18.398437-68.894531l-20.488282 11.824218c-2.476562 1.449219-5.542968 1.464844-8.03125.035156-2.488281-1.429687-4.023437-4.085937-4.015625-6.957031.007813-2.867187 1.550781-5.515625 4.046875-6.933593l20.464844-11.816407c-13.03125-20.191406-30.210938-37.371093-50.402344-50.402343l-11.816406 20.457031c-1.417969 2.496093-4.066406 4.039062-6.9375 4.046875-2.871094.003906-5.523438-1.527344-6.953125-4.015625s-1.417969-5.554688.035156-8.03125l11.824219-20.480469c-21.371094-11.050781-44.886719-17.335938-68.917969-18.421875v23.589844c0 4.417969-3.582031 8-8 8-4.421875 0-8-3.582031-8-8v-23.589844c-24.027343 1.082031-47.53125 7.359375-68.898437 18.398437l11.824218 20.480469c1.453126 2.476563 1.464844 5.539063.035157 8.03125-1.429688 2.488281-4.082031 4.019531-6.953125 4.015625-2.871094-.007812-5.519532-1.550781-6.9375-4.046875l-11.816406-20.457031c-20.191407 13.027344-37.371094 30.210938-50.398438 50.402344l20.460938 11.8125c2.496093 1.421875 4.042968 4.066406 4.046874 6.9375.007813 2.871094-1.523437 5.527344-4.015624 6.957031-2.488282 1.429687-5.554688 1.414063-8.03125-.035156l-20.484376-11.824219c-11.050781 21.371094-17.335937 44.882812-18.425781 68.917969h23.59375c4.417969 0 8 3.582031 8 8s-3.582031 8-8 8h-23.59375c1.085938 24.023437 7.363281 47.53125 18.398438 68.898437l20.488281-11.824218c2.476562-1.453126 5.542969-1.46875 8.03125-.039063s4.023438 4.085937 4.015625 6.957031-1.550781 5.515625-4.046875 6.9375l-20.460938 11.816406c13.027344 20.1875 30.207032 37.371094 50.398438 50.398438l11.816406-20.457031c2.222656-3.792969 7.09375-5.078125 10.902344-2.882813 3.808594 2.199219 5.125 7.0625 2.953125 10.882813l-11.824219 20.480469c21.371094 11.050781 44.886719 17.335937 68.921875 18.425781v-23.59375c0-4.417969 3.578125-8 8-8 4.417969 0 8 3.582031 8 8v23.59375c24.023438-1.085938 47.527344-7.363281 68.894531-18.402344l-11.824218-20.480469c-1.453125-2.476562-1.464844-5.539062-.035156-8.027344 1.429687-2.492187 4.082031-4.023437 6.953124-4.015624 2.871094.003906 5.519532 1.550781 6.9375 4.042968l11.816407 20.457032c20.191406-13.027344 37.371093-30.210938 50.398437-50.398438l-20.460937-11.816406c-2.496094-1.417969-4.042969-4.066406-4.046875-6.9375-.007813-2.871094 1.527344-5.523438 4.015625-6.953125 2.488281-1.429688 5.554687-1.417969 8.03125.035156l20.488281 11.824219c11.046875-21.375 17.332031-44.886719 18.421875-68.921875h-23.589844c-4.421875 0-8-3.582031-8-8s3.578125-8 8-8zm-144 32c-10.136719-.042969-19.152343-6.445313-22.53125-16h-57.46875c-4.421875 0-8-3.582031-8-8s3.578125-8 8-8h57.46875c2.421875-6.773438 7.753907-12.105469 14.53125-14.527344v-89.472656c0-4.417969 3.578125-8 8-8 4.417969 0 8 3.582031 8 8v89.472656c11.011719 3.878906 17.621094 15.132813 15.640625 26.640625-1.976562 11.507812-11.96875 19.910156-23.640625 19.886719zm0 0"/><path d="m279.464844 401.742188 59.199218 46.027343 12.65625-12.65625-37.359374-48c-10.96875 6.042969-22.527344 10.945313-34.496094 14.628907zm0 0"/><path d="m101.34375 90.414062c-4.023438 3.542969-7.816406 7.339844-11.359375 11.363282l-33.921875-33.921875 11.363281-11.359375zm0 0"/><path d="m394.863281 67.855469-34 33.921875c-3.542969-4.023438-7.335937-7.820313-11.359375-11.363282l34-33.917968zm0 0"/></svg>