<svg height="464pt" viewBox="-88 0 464 464" width="464pt" xmlns="http://www.w3.org/2000/svg"><path d="m88 136h16v16h-16zm0 0"/><path d="m2.449219 170.296875c-1.570313 1.480469-2.4570315 3.546875-2.449219 5.703125-.15625 62.675781 42.671875 117.285156 103.578125 132.070312.175781.042969.34375.066407.511719.113282h.117187c10.410157 2.523437 21.082031 3.800781 31.792969 3.816406h16c10.722656-.003906 21.402344-1.28125 31.824219-3.800781h.070312l.515625-.101563c60.84375-14.902344 103.625-69.453125 103.589844-132.097656 0-4.417969-3.582031-8-8-8h-272c-2.085938-.015625-4.085938.8125-5.550781 2.296875zm252.128906 50.800781c5.230469-11.902344 8.335937-24.628906 9.175781-37.601562.285156-4.417969 4.101563-7.765625 8.519532-7.480469 4.417968.289063 7.765624 4.101563 7.480468 8.519531-.953125 14.84375-4.507812 29.398438-10.503906 43.007813-1.042969 2.769531-3.527344 4.738281-6.460938 5.121093-2.933593.378907-5.839843-.890624-7.550781-3.300781-1.714843-2.414062-1.957031-5.574219-.628906-8.21875zm-23.378906 34.148438c3.703125-3.710938 7.148437-7.671875 10.3125-11.855469 2.746093-3.207031 7.511719-3.726563 10.886719-1.1875s4.195312 7.261719 1.875 10.789063c-3.601563 4.765624-7.527344 9.28125-11.746094 13.511718-1.960938 2.238282-5.003906 3.199219-7.898438 2.496094-2.890625-.699219-5.15625-2.949219-5.875-5.835938-.71875-2.890624.222656-5.9375 2.445313-7.917968zm0 0"/><path d="m144 464c73.894531 0 112-16.800781 112-24 0-4.617188-20.367188-16.9375-70.152344-21.9375l-1.847656 22.601562c-.347656 4.15625-3.828125 7.351563-8 7.335938h-64c-4.171875.015625-7.652344-3.179688-8-7.335938l-1.871094-22.601562c-49.761718 5-70.128906 17.320312-70.128906 21.9375 0 7.199219 38.105469 24 112 24zm0 0"/><path d="m136 328c-8.535156-.015625-17.050781-.75-25.464844-2.191406l8.824219 106.191406h49.28125l8.800781-106.191406c-8.40625 1.441406-16.914062 2.175781-25.441406 2.191406zm0 0"/><path d="m216 40v1.039062c-5.242188-1.386718-10.757812-1.386718-16 0v-1.039062c0-13.253906-10.746094-24-24-24s-24 10.746094-24 24v112h-16v-112c0-22.089844 17.910156-40 40-40 22.09375 0 40 17.910156 40 40zm0 0"/><path d="m208 128c-4.417969 0-8-3.582031-8-8v-16c0-4.417969 3.582031-8 8-8s8 3.582031 8 8v16c0 4.417969-3.582031 8-8 8zm0 0"/><path d="m236 126.929688c-2.859375 0-5.503906-1.523438-6.9375-4l-8-13.859376c-1.449219-2.476562-1.464844-5.539062-.035156-8.027343 1.429687-2.492188 4.085937-4.023438 6.957031-4.015625 2.871094.003906 5.515625 1.550781 6.9375 4.042968l8 13.859376c1.425781 2.472656 1.425781 5.519531 0 7.996093-1.425781 2.472657-4.066406 4-6.921875 4.003907zm0 0"/><path d="m180 126.929688c-2.855469-.003907-5.496094-1.53125-6.921875-4.003907-1.425781-2.476562-1.425781-5.523437.003906-7.996093l8-13.859376c1.417969-2.492187 4.066407-4.039062 6.933594-4.042968 2.871094-.007813 5.527344 1.523437 6.957031 4.015625 1.429688 2.488281 1.414063 5.550781-.035156 8.027343l-8 13.859376c-1.429688 2.476562-4.074219 4-6.9375 4zm0 0"/><path d="m208 56c8.835938 0 16 7.164062 16 16v8h-32v-8c0-8.835938 7.164062-16 16-16zm0 0"/></svg>