<svg height="464pt" viewBox="-8 0 464 464.00004" width="464pt" xmlns="http://www.w3.org/2000/svg"><path d="m409.335938 385.601562 21.152343-121.601562h-412.976562l21.152343 121.601562c4.625 26.855469 27.945313 46.460938 55.199219 46.398438h260.304688c27.242187.046875 50.546875-19.554688 55.167969-46.398438zm-81.335938 38.398438h-16c-4.417969 0-8-3.582031-8-8s3.582031-8 8-8h16c4.417969 0 8 3.582031 8 8s-3.582031 8-8 8zm18.167969-8c0-4.417969 3.582031-8 8-8 15.5625.027344 28.882812-11.167969 31.527343-26.503906.753907-4.355469 4.894532-7.273438 9.25-6.519532 4.351563.753907 7.273438 4.894532 6.519532 9.246094-3.96875 23.011719-23.945313 39.8125-47.296875 39.777344-4.417969 0-8-3.582031-8-8zm0 0"/><path d="m305.886719 464h12.226562c3.03125.007812 5.804688-1.707031 7.152344-4.425781l5.789063-11.574219h-38.109376l5.789063 11.574219c1.347656 2.71875 4.121094 4.433593 7.152344 4.425781zm0 0"/><path d="m448 240c0-4.417969-3.582031-8-8-8h-432c-4.417969 0-8 3.582031-8 8s3.582031 8 8 8h432c4.417969 0 8-3.582031 8-8zm0 0"/><path d="m129.886719 464h12.226562c3.03125.007812 5.804688-1.707031 7.152344-4.425781l5.789063-11.574219h-38.109376l5.789063 11.574219c1.347656 2.71875 4.121094 4.433593 7.152344 4.425781zm0 0"/><path d="m142.113281 64h-44.226562c-3.03125-.007812-5.804688 1.707031-7.152344 4.425781l-5.789063 11.574219h70.109376l-5.789063-11.574219c-1.347656-2.71875-4.121094-4.433593-7.152344-4.425781zm0 0"/><path d="m128 40v8h-16v-8c.027344-6.371094-2.496094-12.492188-7-17-4.507812-4.503906-10.628906-7.027344-17-7-22.089844 0-40 17.910156-40 40v160h-16v-160c.035156-30.914062 25.085938-55.9648438 56-56 22.089844 0 40 17.910156 40 40zm0 0"/><path d="m120 200c-4.417969 0-8-3.582031-8-8v-80c0-4.417969 3.582031-8 8-8s8 3.582031 8 8v80c0 4.417969-3.582031 8-8 8zm0 0"/><path d="m96 136c-4.417969 0-8-3.582031-8-8v-16c0-4.417969 3.582031-8 8-8s8 3.582031 8 8v16c0 4.417969-3.582031 8-8 8zm0 0"/><path d="m72 200c-4.417969 0-8-3.582031-8-8v-16c0-4.417969 3.582031-8 8-8s8 3.582031 8 8v16c0 4.417969-3.582031 8-8 8zm0 0"/><path d="m72 160c-4.417969 0-8-3.582031-8-8v-40c0-4.417969 3.582031-8 8-8s8 3.582031 8 8v40c0 4.417969-3.582031 8-8 8zm0 0"/><path d="m96 200c-4.417969 0-8-3.582031-8-8v-40c0-4.417969 3.582031-8 8-8s8 3.582031 8 8v40c0 4.417969-3.582031 8-8 8zm0 0"/><path d="m144 200c-4.417969 0-8-3.582031-8-8v-16c0-4.417969 3.582031-8 8-8s8 3.582031 8 8v16c0 4.417969-3.582031 8-8 8zm0 0"/><path d="m168 136c-4.417969 0-8-3.582031-8-8v-16c0-4.417969 3.582031-8 8-8s8 3.582031 8 8v16c0 4.417969-3.582031 8-8 8zm0 0"/><path d="m168 200c-4.417969 0-8-3.582031-8-8v-40c0-4.417969 3.582031-8 8-8s8 3.582031 8 8v40c0 4.417969-3.582031 8-8 8zm0 0"/><path d="m144 160c-4.417969 0-8-3.582031-8-8v-40c0-4.417969 3.582031-8 8-8s8 3.582031 8 8v40c0 4.417969-3.582031 8-8 8zm0 0"/></svg>