<svg height="448pt" viewBox="0 -56 448 448" width="448pt" xmlns="http://www.w3.org/2000/svg"><path d="m416 304h16v32h-16zm0 0"/><path d="m0 272h448v16h-448zm0 0"/><path d="m448 184c-.035156-30.914062-25.085938-55.964844-56-56h-336c-30.914062.035156-55.9648438 25.085938-56 56v72h448zm-392-32c-17.671875 0-32 14.328125-32 32v56c0 4.417969-3.582031 8-8 8s-8-3.582031-8-8v-56c.027344-26.5 21.5-47.972656 48-48 4.417969 0 8 3.582031 8 8s-3.582031 8-8 8zm328 96h-16c-4.417969 0-8-3.582031-8-8s3.582031-8 8-8h16c4.417969 0 8 3.582031 8 8s-3.582031 8-8 8zm56-8c0 4.417969-3.582031 8-8 8h-24c-4.417969 0-8-3.582031-8-8s3.582031-8 8-8h16v-16c0-4.417969 3.582031-8 8-8s8 3.582031 8 8zm0 0"/><path d="m16 304h16v32h-16zm0 0"/><path d="m256 64c-4.417969 0-8 3.582031-8 8v40h96v-40c0-4.417969-3.582031-8-8-8zm0 0"/><path d="m112 64c-4.417969 0-8 3.582031-8 8v40h96v-40c0-4.417969-3.582031-8-8-8zm0 0"/><path d="m56 112h32v-40c0-13.253906 10.746094-24 24-24h80c13.253906 0 24 10.746094 24 24v40h16v-40c0-13.253906 10.746094-24 24-24h80c13.253906 0 24 10.746094 24 24v40h32v-88c0-13.253906-10.746094-24-24-24h-288c-13.253906 0-24 10.746094-24 24zm0 0"/></svg>