<svg height="449pt" viewBox="-91 0 449 449.16068" width="449pt" xmlns="http://www.w3.org/2000/svg"><path d="m65.046875 449.160156h136.898437c11.902344.066406 22.023438-8.660156 23.71875-20.441406l41.160157-274.398438c.335937-2.296874-.339844-4.628906-1.859375-6.386718-1.515625-1.757813-3.722656-2.769532-6.042969-2.773438h-250.847656c-2.328125.003906-4.539063 1.019532-6.058594 2.78125-1.515625 1.765625-2.191406 4.101563-1.847656 6.402344l41.160156 274.402344c1.703125 11.769531 11.828125 20.480468 23.71875 20.414062zm149.328125-265.183594c.664062-4.371093 4.746094-7.378906 9.117188-6.714843 4.371093.660156 7.378906 4.742187 6.714843 9.113281l-33.597656 224c-.601563 3.90625-3.960937 6.789062-7.914063 6.785156-.398437-.003906-.796874-.03125-1.191406-.085937-4.371094-.65625-7.382812-4.726563-6.726562-9.097657zm-88.878906 1.183594c0-4.417968 3.582031-8 8-8 4.417968 0 8 3.582032 8 8v224c0 4.417969-3.582032 8-8 8-4.417969 0-8-3.582031-8-8zm-81.984375-7.910156c2.101562-.316406 4.238281.214844 5.949219 1.476562 1.707031 1.261719 2.839843 3.148438 3.15625 5.25l33.597656 224c.65625 4.371094-2.355469 8.441407-6.726563 9.097657-.394531.054687-.792969.082031-1.191406.085937-3.960937 0-7.328125-2.898437-7.914063-6.816406l-33.597656-224c-.65625-4.367188 2.359375-8.441406 6.726563-9.09375zm0 0"/><path d="m6.296875 60.472656 261.597656 70.105469c3.257813-27.636719-14.246093-53.480469-41.117187-60.714844l-154.554688-41.40625c-26.875-7.164062-54.9375 6.464844-65.925781 32.015625zm0 0"/><path d="m163.519531 36.359375 12.472657-18.878906c1.421874-2.148438 1.722656-4.847657.808593-7.253907-.914062-2.40625-2.929687-4.226562-5.417969-4.890624l-18.933593-5.0625c-2.480469-.664063-5.132813-.097657-7.121094 1.523437-1.992187 1.625-3.085937 4.101563-2.9375 6.667969l1.363281 22.597656zm0 0"/></svg>