<svg height="448pt" viewBox="0 -104 448 448" width="448pt" xmlns="http://www.w3.org/2000/svg"><path d="m192 192v-128c0-4.417969-3.582031-8-8-8h-48c-4.417969 0-8 3.582031-8 8v128c0 4.417969 3.582031 8 8 8h48c4.417969 0 8-3.582031 8-8zm-56-120c0-4.417969 3.582031-8 8-8h32c4.417969 0 8 3.582031 8 8v32c0 4.417969-3.582031 8-8 8h-32c-4.417969 0-8-3.582031-8-8zm8 56h32c4.417969 0 8 3.582031 8 8s-3.582031 8-8 8h-32c-4.417969 0-8-3.582031-8-8s3.582031-8 8-8zm0 24h32c4.417969 0 8 3.582031 8 8s-3.582031 8-8 8h-32c-4.417969 0-8-3.582031-8-8s3.582031-8 8-8zm32 40h-32c-4.417969 0-8-3.582031-8-8s3.582031-8 8-8h32c4.417969 0 8 3.582031 8 8s-3.582031 8-8 8zm0 0"/><path d="m184 216h32c-5.921875-.019531-11.625-2.246094-16-6.238281-4.375 3.992187-10.078125 6.21875-16 6.238281zm0 0"/><path d="m272 192v-128c0-4.417969-3.582031-8-8-8h-48c-4.417969 0-8 3.582031-8 8v128c0 4.417969 3.582031 8 8 8h48c4.417969 0 8-3.582031 8-8zm-56-120c0-4.417969 3.582031-8 8-8h32c4.417969 0 8 3.582031 8 8v32c0 4.417969-3.582031 8-8 8h-32c-4.417969 0-8-3.582031-8-8zm8 56h32c4.417969 0 8 3.582031 8 8s-3.582031 8-8 8h-32c-4.417969 0-8-3.582031-8-8s3.582031-8 8-8zm0 24h32c4.417969 0 8 3.582031 8 8s-3.582031 8-8 8h-32c-4.417969 0-8-3.582031-8-8s3.582031-8 8-8zm32 40h-32c-4.417969 0-8-3.582031-8-8s3.582031-8 8-8h32c4.417969 0 8 3.582031 8 8s-3.582031 8-8 8zm0 0"/><path d="m331.921875 83.625 15.453125-4.140625 4.144531 15.453125-15.457031 4.144531zm0 0"/><path d="m104 216h32c-5.921875-.019531-11.625-2.246094-16-6.238281-4.375 3.992187-10.078125 6.21875-16 6.238281zm0 0"/><path d="m72 80h16v16h-16zm0 0"/><path d="m112 192v-128c0-4.417969-3.582031-8-8-8h-48c-4.417969 0-8 3.582031-8 8v128c0 4.417969 3.582031 8 8 8h48c4.417969 0 8-3.582031 8-8zm-56-120c0-4.417969 3.582031-8 8-8h32c4.417969 0 8 3.582031 8 8v32c0 4.417969-3.582031 8-8 8h-32c-4.417969 0-8-3.582031-8-8zm8 56h32c4.417969 0 8 3.582031 8 8s-3.582031 8-8 8h-32c-4.417969 0-8-3.582031-8-8s3.582031-8 8-8zm0 24h32c4.417969 0 8 3.582031 8 8s-3.582031 8-8 8h-32c-4.417969 0-8-3.582031-8-8s3.582031-8 8-8zm32 40h-32c-4.417969 0-8-3.582031-8-8s3.582031-8 8-8h32c4.417969 0 8 3.582031 8 8s-3.582031 8-8 8zm0 0"/><path d="m152 80h16v16h-16zm0 0"/><path d="m232 80h16v16h-16zm0 0"/><path d="m448 24c0-13.253906-10.746094-24-24-24h-400c-13.253906 0-24 10.746094-24 24v192c0 13.253906 10.746094 24 24 24h400c13.253906 0 24-10.746094 24-24zm-8 192c0 8.835938-7.164062 16-16 16h-400c-8.835938 0-16-7.164062-16-16v-192c0-8.835938 7.164062-16 16-16h400c8.835938 0 16 7.164062 16 16zm0 0"/><path d="m399.480469 181.535156-33.136719-123.640625c-1.144531-4.261719-5.527344-6.792969-9.792969-5.65625l-46.398437 12.425781c-4.273438 1.140626-6.808594 5.53125-5.664063 9.800782l33.136719 123.640625c1.144531 4.261719 5.527344 6.792969 9.789062 5.65625l46.402344-12.425781c4.269532-1.140626 6.808594-5.53125 5.664063-9.800782zm-76.871094-70.511718-8.28125-30.902344c-1.140625-4.273438 1.402344-8.65625 5.671875-9.792969l30.902344-8.289063c4.269531-1.144531 8.65625 1.386719 9.800781 5.65625l8.28125 30.914063c1.140625 4.265625-1.390625 8.648437-5.65625 9.789063l-30.929687 8.28125c-.671876.1875-1.371094.28125-2.070313.28125-3.621094-.003907-6.785156-2.441407-7.71875-5.9375zm8.277344 30.914062c-1.136719-4.265625 1.394531-8.648438 5.65625-9.792969l30.914062-8.289062c4.257813-1.117188 8.621094 1.417969 9.757813 5.671875 1.140625 4.253906-1.375 8.625-5.621094 9.785156l-30.90625 8.28125c-.675781.183594-1.371094.277344-2.070312.277344-3.625 0-6.792969-2.433594-7.730469-5.933594zm6.21875 23.199219c-1.140625-4.265625 1.390625-8.648438 5.65625-9.792969l30.902343-8.289062c4.269532-1.144532 8.65625 1.390624 9.800782 5.65625 1.144531 4.269531-1.390625 8.65625-5.65625 9.800781l-30.914063 8.28125c-.671875.183593-1.371093.28125-2.070312.277343-3.625-.003906-6.792969-2.445312-7.71875-5.949218zm46.894531 20.535156-30.902344 8.289063c-.679687.1875-1.378906.28125-2.082031.277343-4.027344.015625-7.433594-2.964843-7.957031-6.957031-.523438-3.992188 2-7.75 5.894531-8.777344l30.910156-8.28125c2.792969-.839844 5.824219-.097656 7.910157 1.945313 2.085937 2.042969 2.890624 5.058593 2.105468 7.867187-.785156 2.8125-3.039062 4.972656-5.878906 5.636719zm0 0"/><path d="m24 216h32c-13.253906 0-24-10.746094-24-24v-128c0-13.253906 10.746094-24 24-24h48c5.921875.019531 11.625 2.246094 16 6.238281 4.375-3.992187 10.078125-6.21875 16-6.238281h48c5.921875.019531 11.625 2.246094 16 6.238281 4.375-3.992187 10.078125-6.21875 16-6.238281h48c13.253906 0 24 10.746094 24 24v128c0 13.253906-10.746094 24-24 24h68.238281c-4.929687-3.1875-8.503906-8.085938-10.039062-13.753906l-33.128907-123.636719c-3.410156-12.800781 4.179688-25.949219 16.96875-29.402344l46.402344-12.414062c12.796875-3.429688 25.957032 4.160156 29.390625 16.960937l33.128907 123.636719c3.410156 12.800781-4.179688 25.949219-16.96875 29.402344l-34.417969 9.207031h60.425781v-192h-400zm0 0"/></svg>