<svg height="448pt" viewBox="0 0 448 448" width="448pt" xmlns="http://www.w3.org/2000/svg"><path d="m176 208h16v16h-16zm0 0"/><path d="m256 400h16v16h-16zm0 0"/><path d="m256 336h16v16h-16zm0 0"/><path d="m256 272h16v16h-16zm0 0"/><path d="m104 208h16v16h-16zm0 0"/><path d="m256 208h16v16h-16zm0 0"/><path d="m176 400h16v16h-16zm0 0"/><path d="m104 272h16v16h-16zm0 0"/><path d="m176 272h16v16h-16zm0 0"/><path d="m176 336h16v16h-16zm0 0"/><path d="m400 208h16v16h-16zm0 0"/><path d="m400 336h16v16h-16zm0 0"/><path d="m400 272h16v16h-16zm0 0"/><path d="m328 400h16v16h-16zm0 0"/><path d="m0 128h448v32h-448zm0 0"/><path d="m400 400h16v16h-16zm0 0"/><path d="m328 336h16v16h-16zm0 0"/><path d="m328 272h16v16h-16zm0 0"/><path d="m328 208h16v16h-16zm0 0"/><path d="m104 336h16v16h-16zm0 0"/><path d="m48 72c0 4.417969 3.582031 8 8 8s8-3.582031 8-8v-64c0-4.417969-3.582031-8-8-8s-8 3.582031-8 8zm0 0"/><path d="m0 424.558594c.0117188 12.941406 10.5 23.429687 23.441406 23.441406h401.117188c12.941406-.011719 23.429687-10.5 23.441406-23.441406v-248.558594h-448zm384-224.558594c0-4.417969 3.582031-8 8-8h32c4.417969 0 8 3.582031 8 8v32c0 4.417969-3.582031 8-8 8h-32c-4.417969 0-8-3.582031-8-8zm0 64c0-4.417969 3.582031-8 8-8h32c4.417969 0 8 3.582031 8 8v32c0 4.417969-3.582031 8-8 8h-32c-4.417969 0-8-3.582031-8-8zm0 64c0-4.417969 3.582031-8 8-8h32c4.417969 0 8 3.582031 8 8v32c0 4.417969-3.582031 8-8 8h-32c-4.417969 0-8-3.582031-8-8zm0 64c0-4.417969 3.582031-8 8-8h32c4.417969 0 8 3.582031 8 8v32c0 4.417969-3.582031 8-8 8h-32c-4.417969 0-8-3.582031-8-8zm-72-192c0-4.417969 3.582031-8 8-8h32c4.417969 0 8 3.582031 8 8v32c0 4.417969-3.582031 8-8 8h-32c-4.417969 0-8-3.582031-8-8zm0 64c0-4.417969 3.582031-8 8-8h32c4.417969 0 8 3.582031 8 8v32c0 4.417969-3.582031 8-8 8h-32c-4.417969 0-8-3.582031-8-8zm0 64c0-4.417969 3.582031-8 8-8h32c4.417969 0 8 3.582031 8 8v32c0 4.417969-3.582031 8-8 8h-32c-4.417969 0-8-3.582031-8-8zm0 64c0-4.417969 3.582031-8 8-8h32c4.417969 0 8 3.582031 8 8v32c0 4.417969-3.582031 8-8 8h-32c-4.417969 0-8-3.582031-8-8zm-72-192c0-4.417969 3.582031-8 8-8h32c4.417969 0 8 3.582031 8 8v32c0 4.417969-3.582031 8-8 8h-32c-4.417969 0-8-3.582031-8-8zm0 64c0-4.417969 3.582031-8 8-8h32c4.417969 0 8 3.582031 8 8v32c0 4.417969-3.582031 8-8 8h-32c-4.417969 0-8-3.582031-8-8zm0 64c0-4.417969 3.582031-8 8-8h32c4.417969 0 8 3.582031 8 8v32c0 4.417969-3.582031 8-8 8h-32c-4.417969 0-8-3.582031-8-8zm0 64c0-4.417969 3.582031-8 8-8h32c4.417969 0 8 3.582031 8 8v32c0 4.417969-3.582031 8-8 8h-32c-4.417969 0-8-3.582031-8-8zm-80-192c0-4.417969 3.582031-8 8-8h32c4.417969 0 8 3.582031 8 8v32c0 4.417969-3.582031 8-8 8h-32c-4.417969 0-8-3.582031-8-8zm0 64c0-4.417969 3.582031-8 8-8h32c4.417969 0 8 3.582031 8 8v32c0 4.417969-3.582031 8-8 8h-32c-4.417969 0-8-3.582031-8-8zm0 64c0-4.417969 3.582031-8 8-8h32c4.417969 0 8 3.582031 8 8v32c0 4.417969-3.582031 8-8 8h-32c-4.417969 0-8-3.582031-8-8zm0 64c0-4.417969 3.582031-8 8-8h32c4.417969 0 8 3.582031 8 8v32c0 4.417969-3.582031 8-8 8h-32c-4.417969 0-8-3.582031-8-8zm-72-192c0-4.417969 3.582031-8 8-8h32c4.417969 0 8 3.582031 8 8v32c0 4.417969-3.582031 8-8 8h-32c-4.417969 0-8-3.582031-8-8zm0 64c0-4.417969 3.582031-8 8-8h32c4.417969 0 8 3.582031 8 8v32c0 4.417969-3.582031 8-8 8h-32c-4.417969 0-8-3.582031-8-8zm0 64c0-4.417969 3.582031-8 8-8h32c4.417969 0 8 3.582031 8 8v32c0 4.417969-3.582031 8-8 8h-32c-4.417969 0-8-3.582031-8-8zm0 64c0-4.417969 3.582031-8 8-8h32c4.417969 0 8 3.582031 8 8v32c0 4.417969-3.582031 8-8 8h-32c-4.417969 0-8-3.582031-8-8zm-72-192c0-4.417969 3.582031-8 8-8h32c4.417969 0 8 3.582031 8 8v32c0 4.417969-3.582031 8-8 8h-32c-4.417969 0-8-3.582031-8-8zm0 64c0-4.417969 3.582031-8 8-8h32c4.417969 0 8 3.582031 8 8v32c0 4.417969-3.582031 8-8 8h-32c-4.417969 0-8-3.582031-8-8zm0 64c0-4.417969 3.582031-8 8-8h32c4.417969 0 8 3.582031 8 8v32c0 4.417969-3.582031 8-8 8h-32c-4.417969 0-8-3.582031-8-8zm0 64c0-4.417969 3.582031-8 8-8h32c4.417969 0 8 3.582031 8 8v32c0 4.417969-3.582031 8-8 8h-32c-4.417969 0-8-3.582031-8-8zm0 0"/><path d="m448 71.441406c-.011719-12.941406-10.5-23.429687-23.441406-23.441406h-8.558594v24c0 13.253906-10.746094 24-24 24s-24-10.746094-24-24v-24h-16v24c0 13.253906-10.746094 24-24 24s-24-10.746094-24-24v-24h-160v24c0 13.253906-10.746094 24-24 24s-24-10.746094-24-24v-24h-16v24c0 13.253906-10.746094 24-24 24s-24-10.746094-24-24v-24h-8.558594c-12.941406.011719-23.4296872 10.5-23.441406 23.441406v40.558594h448zm0 0"/><path d="m32 272h16v16h-16zm0 0"/><path d="m32 400h16v16h-16zm0 0"/><path d="m32 336h16v16h-16zm0 0"/><path d="m32 208h16v16h-16zm0 0"/><path d="m320 72c0 4.417969 3.582031 8 8 8s8-3.582031 8-8v-64c0-4.417969-3.582031-8-8-8s-8 3.582031-8 8zm0 0"/><path d="m384 72c0 4.417969 3.582031 8 8 8s8-3.582031 8-8v-64c0-4.417969-3.582031-8-8-8s-8 3.582031-8 8zm0 0"/><path d="m104 400h16v16h-16zm0 0"/><path d="m112 72c0 4.417969 3.582031 8 8 8s8-3.582031 8-8v-64c0-4.417969-3.582031-8-8-8s-8 3.582031-8 8zm0 0"/></svg>