<svg height="448pt" viewBox="-104 0 448 448" width="448pt" xmlns="http://www.w3.org/2000/svg"><path d="m240 231.742188v-15.742188c0-4.417969-3.582031-8-8-8h-224c-4.417969 0-8 3.582031-8 8v16.191406c.105469 4.34375 3.65625 7.808594 8 7.808594h224c4.367188 0 7.925781-3.5 8-7.863281zm0 0"/><path d="m37.167969 384h165.664062l-1.152343-16h-163.359376zm0 0"/><path d="m209.710938 256 13.738281 192h1.101562l13.785157-192.960938c-2.058594.609376-4.191407.933594-6.335938.960938zm0 0"/><path d="m15.449219 448h1.101562l13.738281-192s-26.585937-.390625-28.609374-.953125zm0 0"/><path d="m240 8c0-4.417969-3.582031-8-8-8h-16c-4.417969 0-8 3.582031-8 8v184h24c2.730469.027344 5.4375.523438 8 1.472656zm0 0"/></svg>