<svg height="448pt" viewBox="0 -80 448 448" width="448pt" xmlns="http://www.w3.org/2000/svg"><path d="m132.695312 287.980469c-.945312-2.5625-1.441406-5.269531-1.472656-8h-102.34375c-3.136718 0-5.984375-1.835938-7.28125-4.691407-1.300781-2.859374-.804687-6.210937 1.257813-8.574218l123.121093-140.71875c1.558594-1.664063 3.742188-2.609375 6.023438-2.609375s4.464844.945312 6.023438 2.609375l50.039062 57.183594 5.3125-6.070313-57.007812-65.128906h-8.734376l-142.410156 162.703125c-2.089844 2.367187-2.589844 5.738281-1.285156 8.613281 1.308594 2.871094 4.1875 4.707031 7.34375 4.683594zm0 0"/><path d="m289.398438 263.980469-49.453126-56.480469-5.320312 6.070312 44.117188 50.410157zm0 0"/><path d="m155.257812 287.980469h281.484376c3.140624 0 5.992187-1.839844 7.285156-4.699219 1.296875-2.859375.800781-6.210938-1.265625-8.574219l-142.394531-162.726562h-8.734376l-142.402343 162.726562c-2.070313 2.363281-2.5625 5.71875-1.265625 8.578125 1.296875 2.863282 4.148437 4.699219 7.292968 4.695313zm11.605469-21.265625 123.113281-140.695313c1.558594-1.667969 3.738282-2.617187 6.023438-2.617187s4.464844.949218 6.023438 2.617187l123.113281 140.695313c2.0625 2.363281 2.558593 5.714844 1.257812 8.574218-1.296875 2.855469-4.144531 4.691407-7.28125 4.691407h-246.226562c-3.136719 0-5.984375-1.835938-7.28125-4.691407-1.300781-2.859374-.804688-6.210937 1.257812-8.574218zm0 0"/><path d="m128 55.980469v-16h-64.800781c1.078125 5.277343 1.078125 10.71875 0 16zm0 0"/><path d="m48 47.980469c0 13.253906-10.746094 24-24 24s-24-10.746094-24-24c0-13.253907 10.746094-24 24-24s24 10.746093 24 24zm0 0"/><path d="m176 39.980469h96v16h-96zm0 0"/><path d="m448 47.980469c0 13.253906-10.746094 24-24 24s-24-10.746094-24-24c0-13.253907 10.746094-24 24-24s24 10.746093 24 24zm0 0"/><path d="m320 39.980469v16h64.800781c-1.078125-5.28125-1.078125-10.722657 0-16zm0 0"/><path d="m160 39.980469v56h-16v-56c.023438-1.972657-.21875-3.933594-.71875-5.839844-.984375-3.769531-2.847656-7.253906-5.441406-10.160156-.25-.382813-.542969-.730469-.878906-1.039063-4.691407-4.636718-11.074219-7.148437-17.664063-6.953125-6.589844.199219-12.8125 3.085938-17.21875 7.992188h-18.71875c5.289063-12.101563 16.214844-20.8125 29.191406-23.277344 12.976563-2.464844 26.332031 1.636719 35.6875 10.957031 5.046875 5.078125 8.660157 11.398438 10.480469 18.320313.894531 3.257812 1.324219 6.621093 1.28125 10zm0 0"/><path d="m96 71.980469v8c0 4.417969-3.582031 8-8 8s-8-3.582031-8-8v-8zm0 0"/><path d="m304 39.980469v56h-16v-56c.023438-1.972657-.21875-3.933594-.71875-5.839844-.984375-3.769531-2.847656-7.253906-5.441406-10.160156-.25-.382813-.542969-.730469-.878906-1.039063-4.691407-4.636718-11.074219-7.148437-17.664063-6.953125-6.589844.199219-12.8125 3.085938-17.21875 7.992188h-18.71875c5.289063-12.101563 16.214844-20.8125 29.191406-23.277344 12.976563-2.464844 26.332031 1.636719 35.6875 10.957031 5.046875 5.078125 8.660157 11.398438 10.480469 18.320313.894531 3.257812 1.324219 6.621093 1.28125 10zm0 0"/><path d="m240 71.980469v8c0 4.417969-3.582031 8-8 8s-8-3.582031-8-8v-8zm0 0"/></svg>