<svg height="448pt" viewBox="-80 0 448 448" width="448pt" xmlns="http://www.w3.org/2000/svg"><path d="m32 152c0 8.835938-7.164062 16-16 16s-16-7.164062-16-16 7.164062-16 16-16 16 7.164062 16 16zm0 0"/><path d="m288 64c0 8.835938-7.164062 16-16 16s-16-7.164062-16-16 7.164062-16 16-16 16 7.164062 16 16zm0 0"/><path d="m144 448c43.953125 0 72-14.207031 72-24 0-7.878906-19.679688-20.390625-56.648438-23.382812-4.164062-.339844-7.367187-3.824219-7.351562-8v-193.976563c0-2.121094.84375-4.15625 2.34375-5.65625l101.511719-101.511719c-4.675781-2.753906-8.574219-6.652344-11.328125-11.328125l-78.871094 78.871094c-1.5 1.5-3.535156 2.34375-5.65625 2.34375-1.050781.003906-2.09375-.203125-3.0625-.605469-2.988281-1.242187-4.9375-4.160156-4.9375-7.394531v-106.496094c-5.226562 1.515625-10.773438 1.515625-16 0v194.496094c0 3.234375-1.949219 6.152344-4.9375 7.394531-.96875.402344-2.011719.609375-3.0625.605469-2.121094 0-4.15625-.84375-5.65625-2.34375l-78.871094-78.871094c-2.753906 4.675781-6.652344 8.574219-11.328125 11.328125l101.511719 101.511719c1.5 1.5 2.34375 3.535156 2.34375 5.65625v106c.015625 4.175781-3.1875 7.660156-7.351562 8-36.96875 2.96875-56.648438 15.480469-56.648438 23.359375 0 9.792969 28.046875 24 72 24zm0 0"/><path d="m160 16c0 8.835938-7.164062 16-16 16s-16-7.164062-16-16 7.164062-16 16-16 16 7.164062 16 16zm0 0"/></svg>