<svg height="448pt" viewBox="-88 0 448 448" width="448pt" xmlns="http://www.w3.org/2000/svg"><path d="m240 32h-208v176h208zm-185.945312 97.945312c-3.234376-.003906-6.148438-1.949218-7.386719-4.941406-1.238281-2.988281-.554688-6.429687 1.730469-8.714844l67.890624-67.890624c2.007813-2.078126 4.980469-2.914063 7.777344-2.179688 2.796875.730469 4.984375 2.917969 5.714844 5.714844.734375 2.796875-.101562 5.769531-2.179688 7.777344l-67.890624 67.890624c-1.5 1.5-3.535157 2.34375-5.65625 2.34375zm14.066406 65.933594c-3.234375 0-6.152344-1.949218-7.390625-4.9375-1.238281-2.988281-.554688-6.429687 1.734375-8.71875l135.757812-135.757812c3.140625-3.03125 8.128906-2.988282 11.214844.097656s3.128906 8.074219.097656 11.214844l-135.757812 135.757812c-1.5 1.5-3.535156 2.34375-5.65625 2.34375zm155.480468-72.167968-67.890624 67.890624c-2.007813 2.078126-4.980469 2.914063-7.777344 2.179688-2.796875-.730469-4.984375-2.917969-5.714844-5.714844-.734375-2.796875.101562-5.769531 2.179688-7.777344l67.890624-67.890624c2.007813-2.078126 4.980469-2.914063 7.777344-2.179688 2.796875.730469 4.984375 2.917969 5.714844 5.714844.734375 2.796875-.101562 5.769531-2.179688 7.777344zm0 0"/><path d="m240 264c0 4.417969-3.582031 8-8 8s-8-3.582031-8-8 3.582031-8 8-8 8 3.582031 8 8zm0 0"/><path d="m272 448v-448h-272v448zm-72-8h-16c-4.417969 0-8-3.582031-8-8s3.582031-8 8-8h16c4.417969 0 8 3.582031 8 8s-3.582031 8-8 8zm8-176c0-13.253906 10.746094-24 24-24s24 10.746094 24 24-10.746094 24-24 24-24-10.746094-24-24zm56 136v32c0 4.417969-3.582031 8-8 8h-32c-4.417969 0-8-3.582031-8-8s3.582031-8 8-8h24v-24c0-4.417969 3.582031-8 8-8s8 3.582031 8 8zm-248-376c0-4.417969 3.582031-8 8-8h224c4.417969 0 8 3.582031 8 8v192c0 4.417969-3.582031 8-8 8h-224c-4.417969 0-8-3.582031-8-8zm0 0"/></svg>