<svg height="448pt" viewBox="-72 0 448 448" width="448pt" xmlns="http://www.w3.org/2000/svg"><path d="m304 272h-304v128h304zm-136 32h-32c-4.417969 0-8-3.582031-8-8s3.582031-8 8-8h32c4.417969 0 8 3.582031 8 8s-3.582031 8-8 8zm72 88h-16c-4.417969 0-8-3.582031-8-8s3.582031-8 8-8h16c4.417969 0 8 3.582031 8 8s-3.582031 8-8 8zm56-8c0 4.417969-3.582031 8-8 8h-24c-4.417969 0-8-3.582031-8-8s3.582031-8 8-8h16v-16c0-4.417969 3.582031-8 8-8s8 3.582031 8 8zm0 0"/><path d="m82.230469 448 10.664062-32h-57.789062l10.664062 32zm0 0"/><path d="m258.230469 448 10.664062-32h-57.789062l10.664062 32zm0 0"/><path d="m0 256h144v-48h-144zm56-32h32c4.417969 0 8 3.582031 8 8s-3.582031 8-8 8h-32c-4.417969 0-8-3.582031-8-8s3.582031-8 8-8zm0 0"/><path d="m304 208h-144v48h144zm-56 32h-32c-4.417969 0-8-3.582031-8-8s3.582031-8 8-8h32c4.417969 0 8 3.582031 8 8s-3.582031 8-8 8zm0 0"/><path d="m272 152c0-66.273438-53.726562-120-120-120s-120 53.726562-120 120v40h240zm-200.96875-58.34375 22.625-22.625c2.007812-2.078125 4.984375-2.914062 7.78125-2.179688 2.796875.730469 4.980469 2.914063 5.710938 5.710938.734374 2.796875-.101563 5.773438-2.179688 7.78125l-22.625 22.625c-2.007812 2.078125-4.984375 2.914062-7.78125 2.179688-2.796875-.730469-4.980469-2.914063-5.710938-5.710938-.734374-2.796875.101563-5.773438 2.179688-7.78125zm80.5625-17.945312-67.875 67.890624c-2.007812 2.078126-4.980469 2.914063-7.777344 2.179688-2.796875-.730469-4.984375-2.917969-5.714844-5.714844-.730468-2.796875.101563-5.769531 2.179688-7.777344l67.875-67.890624c3.136719-3.03125 8.128906-2.988282 11.214844.097656 3.085937 3.085937 3.128906 8.078125.097656 11.214844zm0 0"/><path d="m304 152c0-83.949219-68.050781-152-152-152s-152 68.050781-152 152v40h16v-40c0-75.109375 60.890625-136 136-136s136 60.890625 136 136v40h16zm0 0"/></svg>