<svg height="448pt" viewBox="-72 0 448 448" width="448pt" xmlns="http://www.w3.org/2000/svg"><path d="m125.769531 120h2.230469.199219c14.058593-10.71875 33.542969-10.71875 47.601562 0h.199219 2.230469l11.785156-35.257812c2.734375-8.328126.714844-17.488282-5.265625-23.894532-5.980469-6.410156-14.980469-9.054687-23.476562-6.902344-6.070313 1.4375-12.394532 1.4375-18.464844 0-8.511719-2.207031-17.550782.414063-23.554688 6.839844-6.007812 6.421875-8.019531 15.613282-5.246094 23.957032zm0 0"/><path d="m160 384.136719v-64.542969c-2.671875.125-5.296875.40625-8 .40625s-5.328125-.28125-8-.40625v64.542969c2.664062-.082031 5.335938-.136719 8-.136719s5.335938.054688 8 .136719zm0 0"/><path d="m152 448c56.9375 0 88-15.855469 88-24s-31.0625-24-88-24-88 15.855469-88 24 31.0625 24 88 24zm40-32h16c4.417969 0 8 3.582031 8 8s-3.582031 8-8 8h-16c-4.417969 0-8-3.582031-8-8s3.582031-8 8-8zm-48 0h16c4.417969 0 8 3.582031 8 8s-3.582031 8-8 8h-16c-4.417969 0-8-3.582031-8-8s3.582031-8 8-8zm-48 0h16c4.417969 0 8 3.582031 8 8s-3.582031 8-8 8h-16c-4.417969 0-8-3.582031-8-8s3.582031-8 8-8zm0 0"/><path d="m176 152c0 13.253906-10.746094 24-24 24s-24-10.746094-24-24 10.746094-24 24-24 24 10.746094 24 24zm0 0"/><path d="m112 152c.066406-1.503906.21875-3 .457031-4.488281l-1.289062-2.207031-36.367188 7.414062c-11.246093 2.277344-19.296875 12.207031-19.199219 23.679688-.027343 6.183593 2.390626 12.128906 6.726563 16.539062 4.386719 4.542969 7.617187 10.074219 9.414063 16.125 2.347656 8.457031 9.128906 14.949219 17.675781 16.925781 8.550781 1.976563 17.492187-.882812 23.308593-7.453125l24.65625-27.832031-1.144531-1.96875c-14.695312-6.296875-24.226562-20.746094-24.238281-36.734375zm0 0"/><path d="m152 0c-83.949219 0-152 68.050781-152 152s68.050781 152 152 152 152-68.050781 152-152c-.09375-83.910156-68.089844-151.90625-152-152zm0 296c-79.527344 0-144-64.472656-144-144s64.472656-144 144-144 144 64.472656 144 144c-.09375 79.492188-64.507812 143.90625-144 144zm0 0"/><path d="m152 24c-70.691406 0-128 57.308594-128 128s57.308594 128 128 128 128-57.308594 128-128c-.082031-70.65625-57.34375-127.917969-128-128zm95.585938 189.65625c-4.847657 17.246094-20.632813 29.117188-38.546876 28.984375-11.414062.046875-22.285156-4.886719-29.765624-13.511719l-27.273438-30.792968-27.289062 30.808593c-7.46875 8.570313-18.277344 13.488281-29.648438 13.496094-3.078125-.003906-6.148438-.355469-9.152344-1.046875-14.285156-3.144531-25.65625-13.949219-29.527344-28.058594-1.0625-3.550781-2.964843-6.796875-5.542968-9.464844-10.171875-10.496093-13.804688-25.703124-9.484375-39.664062 4.324219-13.960938 15.914062-24.453125 30.238281-27.367188l40.253906-8.199218-13.03125-39.023438c-4.605468-13.855468-1.296875-29.121094 8.632813-39.824218 9.929687-10.703126 24.902343-15.148438 39.0625-11.59375 3.6875.855468 7.519531.839843 11.199219-.046876 15.855468-3.808593 32.445312 2.320313 42.007812 15.527344 7.558594 10.367188 9.613281 23.757813 5.503906 35.914063l-13.039062 39.046875 40.242187 8.199218c14.3125 2.910157 25.902344 13.390626 30.234375 27.339844 4.328125 13.949219.710938 29.148438-9.4375 39.652344-2.628906 2.707031-4.5625 6.007812-5.636718 9.625zm0 0"/><path d="m229.191406 152.71875-36.390625-7.414062-1.289062 2.207031c.25 1.484375.410156 2.984375.488281 4.488281-.011719 15.988281-9.542969 30.4375-24.238281 36.734375l-1.144531 1.96875 24.65625 27.832031c4.457031 5.164063 10.945312 8.125 17.765624 8.105469 10.789063.078125 20.296876-7.082031 23.199219-17.472656 1.808594-6.113281 5.066407-11.699219 9.496094-16.28125 6.078125-6.308594 8.230469-15.425781 5.625-23.789063-2.609375-8.363281-9.566406-14.640625-18.152344-16.378906zm0 0"/></svg>