<svg height="450pt" viewBox="-120 0 450 450.23719" width="450pt" xmlns="http://www.w3.org/2000/svg"><path d="m209.542969 250.238281c0-4.417969-3.582031-8-8-8h-192c-4.417969 0-8 3.582031-8 8v8h208zm0 0"/><path d="m52.65625 450.238281h105.773438c11.742187.027344 21.773437-8.46875 23.671874-20.058593l25.992188-155.941407h-205.101562l25.992187 155.941407c1.898437 11.589843 11.925781 20.085937 23.671875 20.058593zm0 0"/><path d="m23.144531 127.597656c-7.578125-2.046875-15.585937-1.808594-23.027343.6875l19.578124 33.953125c9.5 16.460938 29.273438 23.964844 47.304688 17.949219l-19.609375-33.949219c-5.273437-9.199219-14.003906-15.910156-24.246094-18.640625zm0 0"/><path d="m187.941406 127.597656c-10.246094 2.730469-18.976562 9.441406-24.246094 18.640625l-19.609374 33.949219c18.03125 6.015625 37.804687-1.488281 47.304687-17.949219l19.609375-33.953125c-7.449219-2.507812-15.472656-2.75-23.058594-.6875zm0 0"/><path d="m113.542969 132.476562v93.761719h-16v-93.839843c2.71875 0 13.199219.078124 16 .078124zm0 0"/><path d="m113.542969 58.238281c0 4.417969-3.582031 8-8 8s-8-3.582031-8-8 3.582031-8 8-8 8 3.582031 8 8zm0 0"/><path d="m122.734375 88.039062c3.101563-1.808593 7.023437-1.332031 9.601563 1.167969l7.039062 6.804688c2.242188 2.207031 5.570312 2.894531 8.507812 1.757812 2.933594-1.140625 4.925782-3.894531 5.089844-7.035156l.089844-1.144531c.191406-2.375 1.433594-4.539063 3.382812-5.90625l.800782-.566406c2.679687-1.671876 4.125-4.761719 3.6875-7.890626-.433594-3.125-2.667969-5.707031-5.703125-6.582031l-9.511719-2.710937c-3.441406-.976563-5.816406-4.121094-5.816406-7.695313 0-3.578125 2.375-6.71875 5.816406-7.695312l9.519531-2.722657c2.988281-.871093 5.195313-3.390624 5.667969-6.464843s-.878906-6.144531-3.46875-7.871094l-1-.695313c-1.949219-1.367187-3.191406-3.53125-3.382812-5.902343l-.082032-.960938c-.097656-3.203125-2.101562-6.035156-5.085937-7.199219-2.917969-1.171874-6.253907-.5-8.488281 1.710938l-7.039063 6.808594c-2.570313 2.484375-6.476563 2.964844-9.570313 1.175781s-4.625-5.414063-3.75-8.878906l2.398438-9.523438c.742188-3.039062-.34375-6.234375-2.789062-8.191406-2.441407-1.953125-5.796876-2.316406-8.601563-.925781l-.648437.351562c-2.371094 1.28125-5.226563 1.28125-7.601563 0l-.878906-.480468c-2.753907-1.332032-6.035157-.917969-8.375 1.054687-2.472657 1.945313-3.5625 5.171875-2.777344 8.21875l2.402344 9.496094c.871093 3.464843-.660157 7.089843-3.753907 8.878906s-7 1.308594-9.566406-1.175781l-7.042968-6.808594c-2.242188-2.207031-5.570313-2.894531-8.503907-1.757812-2.933593 1.140624-4.929687 3.894531-5.09375 7.039062l-.089843 1.140625c-.191407 2.375-1.433594 4.539063-3.382813 5.90625l-.800781.566406c-2.699219 1.664063-4.160156 4.765625-3.726563 7.90625.4375 3.144531 2.6875 5.730469 5.734375 6.597657l9.511719 2.714843c3.441406.976563 5.816406 4.117188 5.816406 7.695313 0 3.574218-2.375 6.71875-5.816406 7.695312l-9.519531 2.71875c-2.984375.871094-5.195313 3.394532-5.667969 6.46875-.472656 3.074219.882813 6.140625 3.46875 7.867188l1 .695312c1.949219 1.367188 3.191406 3.53125 3.382813 5.90625l.082031.960938c.097656 3.175781 2.066406 5.992187 5.011719 7.175781 2.949218 1.183594 6.320312.511719 8.585937-1.714844l7.042969-6.804687c2.566406-2.488282 6.472656-2.964844 9.566406-1.175782 3.09375 1.789063 4.625 5.414063 3.753906 8.878907l-2.402344 9.519531c-.742187 3.039062.347657 6.234375 2.789063 8.191406 2.445313 1.957032 5.800781 2.316406 8.605469.929688l.644531-.351563c2.375-1.28125 5.230469-1.28125 7.601563 0l.878906.476563c2.761718 1.3125 6.03125.902344 8.378906-1.054688 2.46875-1.945312 3.558594-5.167968 2.773438-8.214844l-2.398438-9.496093c-.882812-3.457031.628906-7.078125 3.703125-8.878907zm-17.191406-5.800781c-13.253907 0-24-10.746093-24-24 0-13.257812 10.746093-24 24-24 13.253906 0 24 10.742188 24 24 0 13.253907-10.746094 24-24 24zm0 0"/></svg>