<svg height="450pt" viewBox="-47 0 450 450.23715" width="450pt" xmlns="http://www.w3.org/2000/svg"><path d="m244.773438 405.828125-9.199219-82.632813c-.632813-6.023437-.546875-12.097656.253906-18.101562v-.066406l12.25-85.679688c.363281-2.269531-.300781-4.585937-1.816406-6.320312-1.519531-1.78125-3.75-2.804688-6.097657-2.789063h-123.117187c-2.316406 0-4.515625 1.007813-6.035156 2.757813-1.515625 1.746094-2.203125 4.066406-1.878907 6.359375l12.871094 90.226562c.484375 3.367188.523438 6.78125.113282 10.160157l-9.597657 86.09375c-1.253906 11.316406 2.375 22.628906 9.972657 31.101562 7.597656 8.476562 18.449218 13.3125 29.832031 13.300781h52.722656c11.371094-.007812 22.199219-4.855469 29.78125-13.332031 7.582031-8.472656 11.199219-19.773438 9.945313-31.078125zm0 0"/><path d="m186.644531 140.476562v53.761719h-16v-53.839843c2.722657 0 13.203125.078124 16 .078124zm0 0"/><path d="m158.003906 194.238281h-22.71875l-26.398437-26.402343c4.089843-3.46875 7.886719-7.269532 11.359375-11.359376zm0 0"/><path d="m248.484375 167.757812-26.480469 26.480469h-22.71875l37.761719-37.761719c3.402344 4.152344 7.238281 7.933594 11.4375 11.28125zm0 0"/><path d="m186.644531 58.238281c0 4.417969-3.582031 8-8 8s-8-3.582031-8-8 3.582031-8 8-8 8 3.582031 8 8zm0 0"/><path d="m195.835938 88.039062c3.101562-1.808593 7.027343-1.332031 9.601562 1.167969l7.039062 6.804688c2.246094 2.207031 5.574219 2.894531 8.507813 1.757812 2.933594-1.140625 4.925781-3.894531 5.09375-7.035156l.085937-1.144531c.195313-2.375 1.433594-4.539063 3.386719-5.90625l.800781-.566406c2.675782-1.671876 4.121094-4.761719 3.683594-7.890626-.433594-3.125-2.667968-5.707031-5.703125-6.582031l-9.511719-2.710937c-3.441406-.976563-5.8125-4.121094-5.8125-7.695313 0-3.578125 2.371094-6.71875 5.8125-7.695312l9.519532-2.722657c2.988281-.871093 5.199218-3.390624 5.671875-6.464843.46875-3.074219-.882813-6.144531-3.46875-7.871094l-1-.695313c-1.953125-1.367187-3.191407-3.53125-3.386719-5.902343l-.078125-.960938c-.101563-3.203125-2.105469-6.035156-5.089844-7.199219-2.917969-1.171874-6.25-.5-8.488281 1.710938l-7.039062 6.808594c-2.566407 2.484375-6.472657 2.964844-9.566407 1.175781s-4.625-5.414063-3.753906-8.878906l2.402344-9.523438c.742187-3.039062-.347657-6.234375-2.789063-8.191406-2.445312-1.953125-5.800781-2.316406-8.605468-.925781l-.648438.351562c-2.371094 1.28125-5.226562 1.28125-7.597656 0l-.878906-.480468c-2.757813-1.332032-6.039063-.917969-8.378907 1.054687-2.472656 1.945313-3.558593 5.171875-2.773437 8.21875l2.398437 9.496094c.875 3.464843-.660156 7.089843-3.753906 8.878906s-6.996094 1.308594-9.566406-1.175781l-7.039063-6.808594c-2.242187-2.207031-5.574218-2.894531-8.507812-1.757812-2.933594 1.140624-4.925782 3.894531-5.09375 7.039062l-.085938 1.140625c-.195312 2.375-1.433594 4.539063-3.386718 5.90625l-.796876.566406c-2.699218 1.664063-4.160156 4.765625-3.726562 7.90625.433594 3.144531 2.683594 5.730469 5.734375 6.597657l9.511719 2.714843c3.441406.976563 5.816406 4.117188 5.816406 7.695313 0 3.574218-2.375 6.71875-5.816406 7.695312l-9.519532 2.71875c-2.988281.871094-5.199218 3.394532-5.671874 6.46875-.46875 3.074219.882812 6.140625 3.46875 7.867188l1 .695312c1.953124 1.367188 3.191406 3.53125 3.386718 5.90625l.078125.960938c.097657 3.175781 2.066407 5.992187 5.015625 7.175781 2.949219 1.183594 6.316406.511719 8.585938-1.714844l7.039062-6.804687c2.570313-2.488282 6.472656-2.964844 9.566406-1.175782 3.09375 1.789063 4.628907 5.414063 3.753907 8.878907l-2.398438 9.519531c-.742187 3.039062.34375 6.234375 2.789063 8.191406 2.441406 1.957032 5.796875 2.316406 8.601562.929688l.648438-.351563c2.371094-1.28125 5.226562-1.28125 7.597656 0l.882812.476563c2.757813 1.3125 6.027344.902344 8.375-1.054688 2.472657-1.945312 3.5625-5.167968 2.777344-8.214844l-2.402344-9.496093c-.882812-3.457031.628907-7.078125 3.703126-8.878907zm-17.191407-5.800781c-13.253906 0-24-10.746093-24-24 0-13.257812 10.746094-24 24-24 13.257813 0 24 10.742188 24 24 0 13.253907-10.742187 24-24 24zm0 0"/><path d="m306.644531 106.238281c0 4.417969-3.582031 8-8 8s-8-3.582031-8-8 3.582031-8 8-8 8 3.582031 8 8zm0 0"/><path d="m322.964844 130.566406c2.527344-2.535156 6.425781-3.082031 9.554687-1.34375l8.558594 4.75c2.734375 1.53125 6.113281 1.320313 8.636719-.535156 2.527344-1.851562 3.738281-5.011719 3.097656-8.082031l-.207031-1.117188c-.429688-2.347656.210937-4.761719 1.746093-6.585937l.628907-.75c2.179687-2.332032 2.769531-5.730469 1.496093-8.65625-1.226562-2.894532-4.054687-4.78125-7.199218-4.800782l-9.886719-.152343c-3.578125-.046875-6.6875-2.464844-7.617187-5.921875-.929688-3.453125.546874-7.105469 3.617187-8.941406l8.496094-5.097657c2.648437-1.617187 4.121093-4.621093 3.777343-7.707031s-2.4375-5.695312-5.378906-6.691406l-1.144531-.410156c-2.230469-.804688-3.992187-2.566407-4.800781-4.796876l-.316406-.90625c-.9375-3.046874-3.597657-5.25-6.769532-5.597656-3.125-.382812-6.175781 1.132813-7.761718 3.855469l-5.007813 8.359375c-1.835937 3.070312-5.488281 4.546875-8.941406 3.617188-3.457031-.929688-5.871094-4.039063-5.921875-7.617188l-.144532-9.824219c-.074218-3.125-1.957031-5.925781-4.820312-7.179687-2.863281-1.257813-6.195312-.738282-8.546875 1.324218l-.535156.480469c-1.960938 1.84375-4.71875 2.582031-7.335938 1.957031l-.976562-.230468c-3.007813-.570313-6.070313.683594-7.816407 3.199218-1.886718 2.519532-2.105468 5.914063-.558593 8.65625l4.757812 8.554688c1.742188 3.121094 1.199219 7.015625-1.324219 9.542969-2.527343 2.53125-6.421874 3.078125-9.546874 1.34375l-8.558594-4.753907c-2.738282-1.527343-6.113282-1.320312-8.640625.535157-2.527344 1.855469-3.738281 5.015625-3.097657 8.082031l.210938 1.121094c.425781 2.34375-.210938 4.757812-1.746094 6.582031l-.632812.753906c-2.179688 2.328125-2.765625 5.730469-1.496094 8.65625 1.230469 2.890625 4.058594 4.777344 7.203125 4.800781l9.886719.148438c3.578125.050781 6.6875 2.46875 7.617187 5.921875.929688 3.453125-.546875 7.105469-3.617187 8.945313l-8.496094 5.09375c-2.648438 1.621093-4.121094 4.625-3.777344 7.710937.34375 3.082031 2.4375 5.691406 5.375 6.691406l1.144532.40625c2.234374.808594 3.992187 2.566407 4.800781 4.800781l.320312.902344c.9375 3.050782 3.597657 5.25 6.769531 5.601563 3.121094.371093 6.167969-1.144531 7.757813-3.855469l5.039063-8.394531c1.839843-3.070313 5.492187-4.546875 8.945312-3.617188 3.453125.929688 5.871094 4.042969 5.921875 7.617188l.144531 9.824219c.074219 3.128906 1.953125 5.925781 4.820313 7.183593 2.863281 1.253907 6.195312.738281 8.546875-1.328125l.503906-.453125c.964844-.910156 2.140625-1.566406 3.421875-1.914062 1.28125-.34375 2.625-.359375 3.914063-.046875l.976562.230468c3.003906.546876 6.054688-.703124 7.816406-3.199218 1.882813-2.519532 2.105469-5.914063.558594-8.65625l-4.761719-8.550782c-1.734375-3.117187-1.195312-7.007812 1.320313-9.535156zm-18.109375-1.128906c-12.804688 3.417969-25.953125-4.1875-29.375-16.992188-3.421875-12.800781 4.175781-25.953124 16.976562-29.378906 12.800781-3.429687 25.953125 4.164063 29.390625 16.960938 1.648438 6.15625.785156 12.710937-2.402344 18.226562-3.1875 5.519532-8.4375 9.539063-14.589843 11.183594zm0 0"/><path d="m66.644531 106.238281c0 4.417969-3.582031 8-8 8s-8-3.582031-8-8 3.582031-8 8-8 8 3.582031 8 8zm0 0"/><path d="m35.644531 140.109375-4.796875 8.550781c-1.546875 2.742188-1.328125 6.136719.558594 8.65625 1.761719 2.496094 4.808594 3.746094 7.816406 3.199219l.976563-.230469c1.285156-.3125 2.632812-.296875 3.910156.046875 1.28125.347657 2.457031 1.003907 3.425781 1.914063l.535156.511718c2.351563 2.0625 5.683594 2.578126 8.546876 1.324219 2.863281-1.253906 4.742187-4.054687 4.820312-7.179687l.144531-9.824219c.046875-3.578125 2.464844-6.6875 5.921875-7.617187 3.453125-.929688 7.105469.546874 8.941406 3.617187l5.039063 8.390625c1.589844 2.714844 4.636719 4.226562 7.761719 3.855469 3.171875-.347657 5.828125-2.550781 6.769531-5.597657l.316406-.90625c.808594-2.230468 2.570313-3.992187 4.800781-4.800781l1.144532-.40625c2.9375-1 5.035156-3.605469 5.378906-6.691406s-1.128906-6.089844-3.777344-7.707031l-8.433594-5.160156c-3.070312-1.839844-4.546874-5.492188-3.617187-8.945313s4.039063-5.871094 7.617187-5.921875l9.886719-.148438c3.144531-.023437 5.972657-1.910156 7.203125-4.800781 1.269532-2.925781.683594-6.328125-1.496094-8.65625l-.632812-.753906c-1.535156-1.824219-2.171875-4.238281-1.746094-6.582031l.210938-1.121094c.671875-3.09375-.546875-6.296875-3.105469-8.164062-2.558594-1.867188-5.976563-2.046876-8.71875-.460938l-8.5625 4.753906c-3.121094 1.734375-7.019531 1.1875-9.542969-1.34375-2.523437-2.527344-3.066406-6.421875-1.328125-9.546875l4.792969-8.527343c1.546875-2.738282 1.324219-6.136719-.558594-8.65625-1.746094-2.515626-4.808594-3.765626-7.816406-3.199219l-.976562.234375c-2.621094.617187-5.378907-.125-7.335938-1.976563l-.535156-.511719c-2.351563-2.066406-5.683594-2.582031-8.546875-1.324218-2.867188 1.253906-4.746094 4.050781-4.824219 7.179687l-.144531 9.855469c-.046875 3.578125-2.464844 6.6875-5.917969 7.617188-3.457031.929687-7.105469-.546876-8.945312-3.617188l-5.039063-8.390625c-1.585937-2.722656-4.636719-4.238281-7.761719-3.859375-3.167968.351562-5.828125 2.550781-6.765625 5.601562l-.320312.902344c-.808594 2.234375-2.566407 3.992188-4.800781 4.800782l-1.144532.410156c-2.9375.996094-5.035156 3.605468-5.375 6.691406-.34375 3.082031 1.128906 6.089844 3.777344 7.707031l8.496094 5.097657c3.070312 1.835937 4.546875 5.488281 3.617187 8.941406-.929687 3.457031-4.042969 5.871094-7.617187 5.921875l-9.890625.152343c-3.140625.019532-5.96875 1.90625-7.199219 4.800782-1.269531 2.921875-.6835938 6.324218 1.496094 8.652344l.632812.753906c1.53125 1.824218 2.171875 4.238281 1.742188 6.585937l-.207032 1.117188c-.675781 3.09375.53125 6.292969 3.085938 8.164062 2.554688 1.871094 5.96875 2.0625 8.714844.484375l8.558594-4.75c3.125-1.734375 7.019531-1.1875 9.546874 1.339844 2.523438 2.527344 3.066407 6.425781 1.328126 9.546875zm-.183593-40.082031c3.4375-12.796875 16.597656-20.386719 29.398437-16.957032 12.796875 3.433594 20.394531 16.589844 16.964844 29.390626-3.429688 12.800781-16.585938 20.402343-29.386719 16.976562-6.15625-1.644531-11.40625-5.664062-14.59375-11.183594-3.1875-5.515625-4.050781-12.070312-2.398438-18.226562zm0 0"/></svg>