<svg height="448pt" viewBox="0 -48 448 448" width="448pt" xmlns="http://www.w3.org/2000/svg"><path d="m88 64c0 17.671875-14.328125 32-32 32s-32-14.328125-32-32 14.328125-32 32-32 32 14.328125 32 32zm0 0"/><path d="m72 176c0 8.835938-7.164062 16-16 16s-16-7.164062-16-16 7.164062-16 16-16 16 7.164062 16 16zm0 0"/><path d="m8 352h104v-344c0-4.417969-3.582031-8-8-8h-96c-4.417969 0-8 3.582031-8 8v336c0 4.417969 3.582031 8 8 8zm48-144c-17.671875 0-32-14.328125-32-32s14.328125-32 32-32 32 14.328125 32 32-14.328125 32-32 32zm0-192c26.507812 0 48 21.492188 48 48s-21.492188 48-48 48-48-21.492188-48-48c.027344-26.5 21.5-47.972656 48-48zm-48 248c0-4.417969 3.582031-8 8-8s8 3.582031 8 8v16c0 4.417969-3.582031 8-8 8s-8-3.582031-8-8zm0 40c0-4.417969 3.582031-8 8-8s8 3.582031 8 8v24h24c4.417969 0 8 3.582031 8 8s-3.582031 8-8 8h-32c-4.417969 0-8-3.582031-8-8zm0 0"/><path d="m424 64c0 17.671875-14.328125 32-32 32s-32-14.328125-32-32 14.328125-32 32-32 32 14.328125 32 32zm0 0"/><path d="m408 176c0 8.835938-7.164062 16-16 16s-16-7.164062-16-16 7.164062-16 16-16 16 7.164062 16 16zm0 0"/><path d="m448 344v-336c0-4.417969-3.582031-8-8-8h-96c-4.417969 0-8 3.582031-8 8v344h104c4.417969 0 8-3.582031 8-8zm-8-64c0 4.417969-3.582031 8-8 8s-8-3.582031-8-8v-16c0-4.417969 3.582031-8 8-8s8 3.582031 8 8zm-96-216c0-26.507812 21.492188-48 48-48s48 21.492188 48 48-21.492188 48-48 48c-26.5-.027344-47.972656-21.5-48-48zm16 112c0-17.671875 14.328125-32 32-32s32 14.328125 32 32-14.328125 32-32 32-32-14.328125-32-32zm72 168h-32c-4.417969 0-8-3.582031-8-8s3.582031-8 8-8h24v-24c0-4.417969 3.582031-8 8-8s8 3.582031 8 8v32c0 4.417969-3.582031 8-8 8zm0 0"/><path d="m232 296c0 4.417969-3.582031 8-8 8s-8-3.582031-8-8 3.582031-8 8-8 8 3.582031 8 8zm0 0"/><path d="m168 296c0 4.417969-3.582031 8-8 8s-8-3.582031-8-8 3.582031-8 8-8 8 3.582031 8 8zm0 0"/><path d="m128 352h192v-176h-192zm96-32c-13.253906 0-24-10.746094-24-24s10.746094-24 24-24 24 10.746094 24 24-10.746094 24-24 24zm64 0c-13.253906 0-24-10.746094-24-24s10.746094-24 24-24 24 10.746094 24 24-10.746094 24-24 24zm-152-120c0-4.417969 3.582031-8 8-8h160c4.417969 0 8 3.582031 8 8v32c0 4.417969-3.582031 8-8 8h-160c-4.417969 0-8-3.582031-8-8zm24 72c13.253906 0 24 10.746094 24 24s-10.746094 24-24 24-24-10.746094-24-24 10.746094-24 24-24zm0 0"/><path d="m152 208h144v16h-144zm0 0"/><path d="m296 296c0 4.417969-3.582031 8-8 8s-8-3.582031-8-8 3.582031-8 8-8 8 3.582031 8 8zm0 0"/></svg>