<svg height="448pt" viewBox="-93 0 448 448" width="448pt" xmlns="http://www.w3.org/2000/svg"><path d="m225.808594 18.175781c-2.671875-10.679687-12.269532-18.175781-23.28125-18.175781h-142.03125c-11.011719 0-20.609375 7.496094-23.28125 18.175781l-36.976563 147.878907c-.597656 2.394531-.058593 4.925781 1.457031 6.871093 1.519532 1.941407 3.847657 3.078125 6.3125 3.074219h247.007813c2.464844.003906 4.792969-1.132812 6.3125-3.074219 1.519531-1.945312 2.054687-4.476562 1.457031-6.871093zm-150.296875 5.824219h-15.015625l-4.503906 18.03125c-.886719 3.558594-4.082032 6.058594-7.753907 6.066406-.65625 0-1.3125-.085937-1.949219-.25-4.277343-1.074218-6.878906-5.40625-5.816406-9.6875l4.503906-18.03125c1.777344-7.125 8.175782-12.125 15.519532-12.128906h15.015625c4.417969 0 8 3.582031 8 8s-3.582031 8-8 8zm0 0"/><path d="m123.511719 192h16v224h-16zm0 0"/><path d="m43.511719 448h176c4.417969 0 8-3.582031 8-8s-3.582031-8-8-8h-176c-4.417969 0-8 3.582031-8 8s3.582031 8 8 8zm0 0"/><path d="m219.511719 280h16v16h-16zm0 0"/><path d="m219.511719 192h16v72h-16zm0 0"/></svg>