<svg height="448pt" viewBox="-80 0 448 448" width="448pt" xmlns="http://www.w3.org/2000/svg"><path d="m224 392h-160v32h160zm-120 24h-16c-4.417969 0-8-3.582031-8-8s3.582031-8 8-8h16c4.417969 0 8 3.582031 8 8s-3.582031 8-8 8zm48 0h-16c-4.417969 0-8-3.582031-8-8s3.582031-8 8-8h16c4.417969 0 8 3.582031 8 8s-3.582031 8-8 8zm48 0h-16c-4.417969 0-8-3.582031-8-8s3.582031-8 8-8h16c4.417969 0 8 3.582031 8 8s-3.582031 8-8 8zm0 0"/><path d="m48 448h192c4.417969 0 8-3.582031 8-8v-64c0-4.417969-3.582031-8-8-8h-192c-4.417969 0-8 3.582031-8 8v64c0 4.417969 3.582031 8 8 8zm0-64c0-4.417969 3.582031-8 8-8h176c4.417969 0 8 3.582031 8 8v48c0 4.417969-3.582031 8-8 8h-176c-4.417969 0-8-3.582031-8-8zm0 0"/><path d="m136 224h16v128h-16zm0 0"/><path d="m288 136c-.082031-75.074219-60.925781-135.9179688-136-136h-16c-75.074219.0820312-135.9179688 60.925781-136 136v48c0 13.253906 10.746094 24 24 24h240c13.253906 0 24-10.746094 24-24zm-136-104h-16c-57.410156.066406-103.933594 46.589844-104 104 0 4.417969-3.582031 8-8 8s-8-3.582031-8-8c.074219-66.242188 53.757812-119.925781 120-120h16c4.417969 0 8 3.582031 8 8s-3.582031 8-8 8zm0 0"/><path d="m216 285.855469c-2.859375.003906-5.503906-1.523438-6.9375-4l-20-34.640625c-1.449219-2.476563-1.464844-5.539063-.035156-8.03125 1.429687-2.488282 4.085937-4.019532 6.957031-4.011719 2.871094.003906 5.515625 1.546875 6.9375 4.042969l20 34.640625c1.425781 2.472656 1.425781 5.523437 0 7.996093-1.425781 2.476563-4.066406 4-6.921875 4.003907zm0 0"/><path d="m272 285.855469c-2.859375.003906-5.503906-1.523438-6.9375-4l-20-34.640625c-1.449219-2.476563-1.464844-5.539063-.035156-8.03125 1.429687-2.488282 4.085937-4.019532 6.957031-4.011719 2.871094.003906 5.515625 1.546875 6.9375 4.042969l20 34.640625c1.425781 2.472656 1.425781 5.523437 0 7.996093-1.425781 2.476563-4.066406 4-6.921875 4.003907zm0 0"/><path d="m72 285.855469c-2.855469-.003907-5.496094-1.527344-6.921875-4.003907-1.425781-2.472656-1.425781-5.523437 0-7.996093l20-34.640625c2.226563-3.792969 7.09375-5.078125 10.902344-2.882813 3.808593 2.199219 5.128906 7.0625 2.957031 10.882813l-20 34.640625c-1.433594 2.476562-4.078125 4.003906-6.9375 4zm0 0"/><path d="m16 285.855469c-2.855469-.003907-5.496094-1.527344-6.921875-4.003907-1.425781-2.472656-1.425781-5.523437 0-7.996093l20-34.640625c2.226563-3.792969 7.09375-5.078125 10.902344-2.882813 3.808593 2.199219 5.128906 7.0625 2.957031 10.882813l-20 34.640625c-1.433594 2.476562-4.078125 4.003906-6.9375 4zm0 0"/></svg>