<svg height="448pt" viewBox="-43 0 448 448" width="448pt" xmlns="http://www.w3.org/2000/svg"><path d="m354.089844 172.679688c1.515625-2.078126 1.925781-4.761719 1.105468-7.199219l-49.679687-149.066407c-3.265625-9.804687-12.441406-16.41796825-22.777344-16.414062h-209.871093c-10.335938-.00390625-19.511719 6.609375-22.777344 16.414062l-49.679688 149.058594c-.8125 2.4375-.4023435 5.117188 1.097656 7.203125 1.503907 2.085938 3.914063 3.324219 6.484376 3.324219h339.617187c2.574219.015625 4.992187-1.222656 6.480469-3.320312zm-286.808594-106.632813-29.480469 88.480469c-1.394531 4.199218-5.929687 6.46875-10.125 5.074218-4.199219-1.398437-6.46875-5.933593-5.074219-10.128906l29.488282-88.488281c1.398437-4.199219 5.933594-6.464844 10.132812-5.070313 4.195313 1.398438 6.464844 5.9375 5.066406 10.132813zm13.167969-39.519531-5.671875 17.015625c-1.394532 4.199219-5.929688 6.46875-10.128906 5.074219-4.195313-1.398438-6.464844-5.933594-5.070313-10.128907l5.671875-17.015625c1.394531-4.199218 5.929688-6.46875 10.128906-5.074218 4.195313 1.398437 6.46875 5.933593 5.070313 10.128906zm0 0"/><path d="m247.800781 192h-140c-27.90625 30.527344-42.953125 70.648438-42 112 0 79.398438 50.242188 144 112 144 61.761719 0 112-64.601562 112-144 .957031-41.351562-14.089843-81.472656-42-112zm0 0"/><path d="m353.800781 191.121094v98.320312c-5.160156-1.921875-10.839843-1.921875-16 0v-97.441406h9.839844c2.085937.027344 4.164063-.269531 6.160156-.878906zm0 0"/><path d="m361.800781 320c0 8.835938-7.164062 16-16 16-8.835937 0-16-7.164062-16-16s7.164063-16 16-16c8.835938 0 16 7.164062 16 16zm0 0"/></svg>