<svg height="440pt" viewBox="-46 0 440 440.00005" width="440pt" xmlns="http://www.w3.org/2000/svg"><path d="m347.054688 192h-144c0 4.417969 3.582031 8 8 8h128c4.417968 0 8-3.582031 8-8zm0 0"/><path d="m275.054688 232c10.136718-.042969 19.152343-6.445312 22.53125-16h-45.058594c3.378906 9.554688 12.394531 15.957031 22.527344 16zm0 0"/><path d="m259.054688 96c-30.910157.039062-55.960938 25.089844-56 56v24h144v-24c-.039063-30.910156-25.085938-55.960938-56-56zm0 0"/><path d="m75.054688 288c0 .089844-.046876.152344-.046876.238281-.050781.542969-.15625 1.082031-.320312 1.601563-.085938.523437-.222656 1.035156-.40625 1.527344 0 .082031 0 .167968-.066406.242187l-26.214844 52.390625h70.113281l-26.21875-52.425781c0-.070313 0-.15625-.0625-.238281-.304687-1.015626-.550781-2.050782-.726562-3.097657 0-.085937-.050781-.148437-.050781-.238281v-232c.027343-22.082031 17.921874-39.972656 40-40h96c22.082031.027344 39.976562 17.917969 40 40v24h16v-56c.015624-6.367188-2.511719-12.480469-7.015626-16.984375-4.503906-4.503906-10.613281-7.0273438-16.984374-7.015625h-160c-6.367188-.0117188-12.480469 2.511719-16.984376 7.015625-4.503906 4.503906-7.027343 10.617187-7.015624 16.984375zm0 0"/><path d="m158.113281 424h-150.113281l-8 16h166.113281zm0 0"/><path d="m16 408h134.113281l-8-16h-118.113281zm0 0"/><path d="m32 376h102.113281l-8-16h-86.113281zm0 0"/><path d="m275.054688 288c-4.417969 0-8-3.582031-8-8v-16c0-4.417969 3.582031-8 8-8 4.417968 0 8 3.582031 8 8v16c0 4.417969-3.582032 8-8 8zm0 0"/><path d="m239.054688 278.351562c-2.855469-.003906-5.492188-1.527343-6.921876-4.003906-1.425781-2.472656-1.425781-5.523437.003907-7.996094l8-13.855468c1.417969-2.496094 4.066406-4.039063 6.9375-4.046875 2.871093-.003907 5.523437 1.527343 6.953125 4.015625 1.429687 2.488281 1.417968 5.554687-.035156 8.03125l-8 13.855468c-1.429688 2.476563-4.074219 4.003907-6.9375 4zm0 0"/><path d="m212.710938 252c-3.621094 0-6.789063-2.433594-7.726563-5.929688-.9375-3.496093.59375-7.1875 3.726563-9l13.847656-8c2.476562-1.449218 5.542968-1.464843 8.03125-.035156 2.488281 1.429688 4.023437 4.085938 4.015625 6.957032-.003907 2.871093-1.550781 5.515624-4.046875 6.9375l-13.847656 8c-1.214844.703124-2.59375 1.074218-4 1.070312zm0 0"/><path d="m311.054688 278.351562c-2.859376.003907-5.503907-1.523437-6.933594-4l-8-13.855468c-1.453125-2.476563-1.464844-5.542969-.035156-8.03125 1.429687-2.488282 4.082031-4.019532 6.953124-4.015625 2.871094.007812 5.519532 1.550781 6.9375 4.046875l8 13.855468c1.429688 2.472657 1.429688 5.523438 0 7.996094-1.425781 2.476563-4.0625 4-6.921874 4.003906zm0 0"/><path d="m337.398438 252c-1.402344.003906-2.785157-.367188-4-1.070312l-13.855469-8c-2.496094-1.421876-4.039063-4.066407-4.042969-6.9375-.007812-2.871094 1.523438-5.527344 4.011719-6.957032 2.492187-1.429687 5.554687-1.414062 8.03125.035156l13.855469 8c3.136718 1.8125 4.664062 5.503907 3.730468 9-.9375 3.496094-4.109375 5.929688-7.730468 5.929688zm0 0"/></svg>