<svg height="448pt" viewBox="-88 0 448 448.0401" width="448pt" xmlns="http://www.w3.org/2000/svg"><path d="m272.019531 392v-16c-.050781-57.558594-40.949219-106.980469-97.480469-117.800781-4.546874 17.554687-20.386718 29.8125-38.519531 29.8125-18.132812 0-33.972656-12.257813-38.519531-29.8125-56.53125 10.820312-97.4296875 60.242187-97.4804688 117.800781v16c0 4.417969 3.5820308 8 7.9999998 8h256c4.417969 0 8-3.582031 8-8zm-203.199219-87.566406c-23.0625 16.546875-36.757812 43.179687-36.800781 71.566406 0 4.417969-3.582031 8-8 8s-8-3.582031-8-8c.042969-33.539062 16.21875-65.007812 43.464844-84.566406 3.589844-2.578125 8.589844-1.757813 11.167969 1.832031s1.757812 8.589844-1.832032 11.167969zm29.488282-13.738282c-5.128906 1.308594-10.132813 3.078126-14.945313 5.28125-1.042969.484376-2.183593.734376-3.335937.734376-3.753906-.003907-7.003906-2.617188-7.804688-6.285157-.804687-3.671875 1.050782-7.402343 4.460938-8.976562 5.695312-2.621094 11.613281-4.714844 17.6875-6.257813 2.796875-.777344 5.792968.019532 7.835937 2.082032 2.039063 2.0625 2.800781 5.070312 1.992188 7.855468-.808594 2.789063-3.0625 4.917969-5.890625 5.566406zm0 0"/><path d="m152.019531 16c0 8.835938-7.164062 16-16 16-8.835937 0-16-7.164062-16-16s7.164063-16 16-16c8.835938 0 16 7.164062 16 16zm0 0"/><path d="m136.019531 224c-13.234375 0-23.96875 10.710938-24 23.945312v.101563c0 13.257813 10.746094 24 24 24 13.253907 0 24-10.742187 24-24v-.046875c0-13.253906-10.746093-24-24-24zm0 0"/><path d="m96.820312 416c3.785157 18.644531 20.175782 32.039062 39.199219 32.039062 19.023438 0 35.414063-13.394531 39.199219-32.039062zm0 0"/><path d="m144.019531 208.800781v-161.9375c-5.226562 1.515625-10.773437 1.515625-16 0v161.9375c5.28125-1.078125 10.722657-1.078125 16 0zm0 0"/></svg>