<svg height="448pt" viewBox="-72 0 448 448" width="448pt" xmlns="http://www.w3.org/2000/svg"><path d="m0 240h304v-112h-304zm152-96c13.253906 0 24 10.746094 24 24s-10.746094 24-24 24-24-10.746094-24-24 10.746094-24 24-24zm0 0"/><path d="m160 168c0 4.417969-3.582031 8-8 8s-8-3.582031-8-8 3.582031-8 8-8 8 3.582031 8 8zm0 0"/><path d="m304 8c0-4.417969-3.582031-8-8-8h-288c-4.417969 0-8 3.582031-8 8v104h304zm-152 56c-13.253906 0-24-10.746094-24-24s10.746094-24 24-24 24 10.746094 24 24-10.746094 24-24 24zm0 0"/><path d="m160 40c0 4.417969-3.582031 8-8 8s-8-3.582031-8-8 3.582031-8 8-8 8 3.582031 8 8zm0 0"/><path d="m32 320h16v64h-16zm0 0"/><path d="m8 448h288c4.417969 0 8-3.582031 8-8v-184h-304v184c0 4.417969 3.582031 8 8 8zm272-80c0-4.417969 3.582031-8 8-8s8 3.582031 8 8v16c0 4.417969-3.582031 8-8 8s-8-3.582031-8-8zm-16 56h16v-16c0-4.417969 3.582031-8 8-8s8 3.582031 8 8v24c0 4.417969-3.582031 8-8 8h-24c-4.417969 0-8-3.582031-8-8s3.582031-8 8-8zm-248-112c0-4.417969 3.582031-8 8-8h32c4.417969 0 8 3.582031 8 8v80c0 4.417969-3.582031 8-8 8h-32c-4.417969 0-8-3.582031-8-8zm0 0"/></svg>