<svg height="448pt" viewBox="0 -88 448 448" width="448pt" xmlns="http://www.w3.org/2000/svg"><path d="m400 200c-10.132812.042969-19.148438 6.445312-22.527344 16h22.527344c4.417969 0 8 3.582031 8 8s-3.582031 8-8 8h-22.527344c4.085938 11.476562 16.136719 18.058594 28.003906 15.296875 11.863282-2.761719 19.769532-13.988281 18.367188-26.09375-1.402344-12.101563-11.660156-21.226563-23.84375-21.203125zm0 0"/><path d="m376 24h48v32h-48zm0 0"/><path d="m400 152c11.675781.023438 21.664062-8.378906 23.644531-19.886719 1.976563-11.507812-4.632812-22.761719-15.644531-26.640625v22.527344c0 4.417969-3.582031 8-8 8s-8-3.582031-8-8v-22.527344c-11.011719 3.878906-17.621094 15.132813-15.644531 26.640625 1.980469 11.507813 11.96875 19.910157 23.644531 19.886719zm0 0"/><path d="m448 264v-256c0-4.417969-3.582031-8-8-8h-88v272h88c4.417969 0 8-3.582031 8-8zm-88-248c0-4.417969 3.582031-8 8-8h64c4.417969 0 8 3.582031 8 8v48c0 4.417969-3.582031 8-8 8h-64c-4.417969 0-8-3.582031-8-8zm40 72c22.089844 0 40 17.910156 40 40s-17.910156 40-40 40-40-17.910156-40-40c.027344-22.082031 17.917969-39.972656 40-40zm0 176c-22.089844 0-40-17.910156-40-40s17.910156-40 40-40 40 17.910156 40 40c-.027344 22.082031-17.917969 39.972656-40 40zm0 0"/><path d="m0 8v256c0 4.417969 3.582031 8 8 8h328v-272h-328c-4.417969 0-8 3.582031-8 8zm16 0h304c4.417969 0 8 3.582031 8 8v240c0 4.417969-3.582031 8-8 8h-304c-4.417969 0-8-3.582031-8-8v-240c0-4.417969 3.582031-8 8-8zm0 0"/><path d="m312 24h-288v224h288zm-261.257812 125.257812c-3.234376-.003906-6.148438-1.953124-7.386719-4.941406-1.238281-2.988281-.554688-6.429687 1.734375-8.714844l90.511718-90.511718c3.136719-3.035156 8.128907-2.992188 11.214844.09375 3.085938 3.085937 3.128906 8.078125.09375 11.214844l-90.511718 90.511718c-1.5 1.503906-3.53125 2.34375-5.65625 2.347656zm32.410156 79.589844c-3.234375 0-6.152344-1.949218-7.390625-4.9375-1.238281-2.988281-.554688-6.429687 1.734375-8.71875l169.703125-169.695312c1.988281-2.160156 5.003906-3.058594 7.851562-2.335938 2.847657.71875 5.070313 2.941406 5.789063 5.789063.722656 2.847656-.175782 5.863281-2.335938 7.851562l-169.703125 169.703125c-1.5 1.5-3.53125 2.339844-5.648437 2.34375zm207.757812-92.449218-90.511718 90.511718c-3.136719 3.035156-8.128907 2.992188-11.214844-.09375-3.085938-3.085937-3.128906-8.078125-.09375-11.214844l90.511718-90.511718c3.136719-3.035156 8.128907-2.992188 11.214844.09375 3.085938 3.085937 3.128906 8.078125.09375 11.214844zm0 0"/></svg>