<svg height="448pt" viewBox="-71 0 448 448" width="448pt" xmlns="http://www.w3.org/2000/svg"><path d="m255.972656 424c0-13.253906-46.5625-24-104-24s-104 10.746094-104 24 46.5625 24 104 24 104-10.746094 104-24zm0 0"/><path d="m159.972656 384.113281v-64.320312c-2.578125.117187-5.144531.253906-7.726562.253906-2.753906 0-5.515625-.136719-8.273438-.269531v64.335937c2.671875-.058593 5.34375-.113281 8-.113281s5.328125.054688 8 .113281zm0 0"/><path d="m151.972656 24c-70.691406 0-128 57.308594-128 128s57.308594 128 128 128 128-57.308594 128-128c-.085937-70.65625-57.34375-127.917969-128-128zm-93.28125 126.398438c-2.207031-3.824219-.898437-8.71875 2.929688-10.925782l124.703125-72c3.824219-2.175781 8.683593-.855468 10.882812 2.953125 2.199219 3.808594.910157 8.679688-2.882812 10.902344l-124.703125 72c-3.828125 2.207031-8.71875.898437-10.929688-2.929687zm186.5625 3.136718c2.207032 3.828125.898438 8.71875-2.929687 10.929688l-124.703125 72c-2.476563 1.449218-5.542969 1.464844-8.03125.035156-2.488282-1.429688-4.023438-4.085938-4.015625-6.953125.007812-2.871094 1.550781-5.519531 4.046875-6.9375l124.703125-72c1.84375-1.058594 4.035156-1.335937 6.085937-.773437 2.050782.5625 3.792969 1.914062 4.84375 3.765624zm-6.136718-42.640625-166.289063 96c-3.824219 2.175781-8.683594.855469-10.882813-2.953125-2.199218-3.808594-.910156-8.675781 2.882813-10.902344l166.289063-96c3.820312-2.171874 8.683593-.851562 10.882812 2.957032s.910156 8.675781-2.882812 10.898437zm0 0"/><path d="m283.582031 76c-20.070312-34.976562-53.296875-60.46875-92.273437-70.800781-12.910156-3.453125-26.214844-5.20312525-39.578125-5.199219-54.253907.09375-104.347657 29.105469-131.433594 76.117188-27.085937 47.011718-27.0625 104.894531.066406 151.882812 26.554688 48.207031 77.09375 78.292969 132.132813 78.65625 55.035156.367188 105.96875-29.050781 133.160156-76.898438 27.1875-47.851562 26.390625-106.664062-2.09375-153.757812zm-131.609375 220c-79.53125 0-144-64.472656-144-144s64.46875-144 144-144c79.527344 0 144 64.472656 144 144-.09375 79.492188-64.507812 143.90625-144 144zm0 0"/></svg>