<svg height="448pt" viewBox="0 0 448 448" width="448pt" xmlns="http://www.w3.org/2000/svg"><path d="m314.878906 216h-14.480468c-6.949219-.023438-13.554688 3.015625-18.0625 8.304688-1.53125 1.683593-2.796876 3.59375-3.742188 5.664062l-49.203125 105.902344 17.203125 88.128906h173.269531l-82.894531-193.488281c-3.796875-8.820313-12.484375-14.527344-22.089844-14.511719zm0 0"/><path d="m266.230469 219.375c-10.597657-12.28125-26.007813-19.351562-42.230469-19.375-6.972656 0-13.878906 1.324219-20.359375 3.894531l20.535156 105.25 39.929688-85.945312c.636719-1.3125 1.347656-2.589844 2.125-3.824219zm0 0"/><path d="m136.464844 112h-16.929688c-19.125.03125-35.5625 13.570312-39.253906 32.335938l-54.570312 279.664062h204.578124l-54.570312-279.664062c-3.691406-18.765626-20.128906-32.304688-39.253906-32.335938zm0 0"/><path d="m8 448h432c4.417969 0 8-3.582031 8-8v-432c0-4.417969-3.582031-8-8-8h-432c-4.417969 0-8 3.582031-8 8v432c0 4.417969 3.582031 8 8 8zm0-432c0-4.417969 3.582031-8 8-8h416c4.417969 0 8 3.582031 8 8v416c0 .089844-.046875.152344-.046875.238281-.023437.921875-.207031 1.828125-.546875 2.683594-.0625.175781-.167969.335937-.246094.503906-.140625.332031-.300781.660157-.480468.972657-.242188.34375-.507813.667968-.800782.96875-.097656.128906-.199218.25-.3125.367187-.640625.613281-1.382812 1.113281-2.191406 1.480469-.191406.089844-.375.152344-.566406.226562-.894532.351563-1.847656.542969-2.808594.558594h-416c-1.132812-.007812-2.246094-.257812-3.273438-.734375-.261718-.15625-.515624-.328125-.757812-.511719-.695312-.390625-1.324219-.882812-1.871094-1.457031-.074218-.089844-.195312-.121094-.265625-.207031-.148437-.261719-.28125-.527344-.398437-.800782-.394532-.574218-.707032-1.195312-.9375-1.847656-.136719-.449218-.226563-.910156-.273438-1.378906-.101562-.347656-.175781-.703125-.222656-1.0625zm0 0"/><path d="m119.535156 96h16.929688c26.777344.042969 49.792968 19.003906 54.960937 45.28125l9.117188 46.742188c7.539062-2.648438 15.46875-4.007813 23.457031-4.023438 20.226562.015625 39.515625 8.542969 53.136719 23.496094 6.777343-4.878906 14.914062-7.5 23.261719-7.496094h14.480468c16.007813-.019531 30.480469 9.503906 36.800782 24.207031l72.320312 168.808594v-369.015625h-400v325.230469l40.574219-207.949219c5.167969-26.277344 28.183593-45.238281 54.960937-45.28125zm140.074219 80.390625 12-20.796875c2.207031-3.832031 7.101563-5.144531 10.929687-2.933594 3.828126 2.207032 5.140626 7.101563 2.933594 10.933594l-12 20.796875c-2.210937 3.828125-7.105468 5.140625-10.933594 2.933594-3.828124-2.210938-5.140624-7.105469-2.929687-10.933594zm-35.609375-32.390625c0-4.417969 3.582031-8 8-8s8 3.582031 8 8v24c0 4.417969-3.582031 8-8 8s-8-3.582031-8-8zm0 0"/></svg>