<svg height="448pt" viewBox="-64 0 448 448" width="448pt" xmlns="http://www.w3.org/2000/svg"><path d="m320 440v-264h-240v272h232c4.417969 0 8-3.582031 8-8zm-72 0h-16c-4.417969 0-8-3.582031-8-8s3.582031-8 8-8h16c4.417969 0 8 3.582031 8 8s-3.582031 8-8 8zm56 0h-32c-4.417969 0-8-3.582031-8-8s3.582031-8 8-8h24v-24c0-4.417969 3.582031-8 8-8s8 3.582031 8 8v32c0 4.417969-3.582031 8-8 8zm0 0"/><path d="m8 448h56v-144h-8c-13.253906 0-24-10.746094-24-24v-32c0-13.253906 10.746094-24 24-24h8v-48h-64v264c0 4.417969 3.582031 8 8 8zm0 0"/><path d="m248 24h48v16h-48zm0 0"/><path d="m320 160v-152c0-4.417969-3.582031-8-8-8h-232v160zm-88-144c0-4.417969 3.582031-8 8-8h64c4.417969 0 8 3.582031 8 8v32c0 4.417969-3.582031 8-8 8h-64c-4.417969 0-8-3.582031-8-8zm0 0"/><path d="m48 64v32c0 4.417969 3.582031 8 8 8h8v-48h-8c-4.417969 0-8 3.582031-8 8zm0 0"/><path d="m0 8v152h64v-40h-8c-13.253906 0-24-10.746094-24-24v-32c0-13.253906 10.746094-24 24-24h8v-40h-56c-4.417969 0-8 3.582031-8 8zm0 0"/><path d="m48 248v32c0 4.417969 3.582031 8 8 8h8v-48h-8c-4.417969 0-8 3.582031-8 8zm0 0"/></svg>