<svg height="448pt" viewBox="0 -9 448 448" width="448pt" xmlns="http://www.w3.org/2000/svg"><path d="m448 112c0-61.855469-100.289062-112-224-112s-224 50.144531-224 112 100.289062 112 224 112 224-50.144531 224-112zm0 0"/><path d="m232.664062 368.136719c2.339844-.253907 4.671876.558593 6.351563 2.207031l58.90625 58.902344 11.324219-11.324219-74.902344-74.90625c-1.648438-1.679687-2.460938-4.011719-2.207031-6.351563-.058594-.21875-.105469-.441406-.136719-.664062v-96.105469c-2.664062 0-13.335938 0-16 0v96.105469c-.03125.222656-.078125.445312-.136719.664062.253907 2.339844-.558593 4.671876-2.207031 6.351563l-74.902344 74.90625 11.324219 11.324219 58.90625-58.902344c1.679687-1.648438 4.011719-2.460938 6.351563-2.207031.21875-.058594.441406-.105469.664062-.136719h16c.222656.03125.445312.078125.664062.136719zm0 0"/></svg>