<svg height="448pt" viewBox="0 -2 448 448" width="448pt" xmlns="http://www.w3.org/2000/svg"><path d="m395.199219 223.433594c34.039062-24.503906 52.800781-55.5625 52.800781-87.433594 0-74.992188-100.488281-136-224-136s-224 61.007812-224 136c0 31.871094 18.761719 62.929688 52.800781 87.425781 11.710938 8.390625 24.246094 15.574219 37.40625 21.4375 17.742188 8.039063 36.269531 14.222657 55.28125 18.457031 51.675781 11.515626 105.253907 11.515626 156.925781 0 19.003907-4.21875 37.519532-10.382812 55.257813-18.398437 13.203125-5.878906 25.777344-13.078125 37.527344-21.488281zm-171.199219 8.566406c-103.199219 0-184-42.167969-184-96s80.800781-96 184-96 184 42.167969 184 96-80.800781 96-184 96zm0 0"/><path d="m130.847656 276.113281c-13.667968-3.589843-27.0625-8.148437-40.078125-13.640625l-86.105469 173.238282 14.671876 8.480468zm0 0"/><path d="m392 136c0-44.183594-75.214844-80-168-80s-168 35.816406-168 80 75.214844 80 168 80 168-35.816406 168-80zm0 0"/><path d="m443.335938 435.710938-86.105469-173.238282c-13.015625 5.492188-26.410157 10.050782-40.078125 13.640625l111.511718 168.078125zm0 0"/><path d="m342.398438 343.121094c-65.480469 65.171875-171.316407 65.171875-236.796876 0l-9.042968 13.597656c71.207031 68.371094 183.675781 68.371094 254.882812 0zm0 0"/></svg>