<svg height="448pt" viewBox="0 0 448 448" width="448pt" xmlns="http://www.w3.org/2000/svg"><path d="m88 116.457031c14.707031 9.652344 23.691406 25.953125 24 43.542969v42.847656c13.636719-16.96875 34.230469-26.84375 56-26.847656h112c21.769531.003906 42.363281 9.878906 56 26.847656v-42.847656c.3125-17.585938 9.296875-33.878906 24-43.527344v-28.472656c-.058594-48.578125-39.421875-87.9414062-88-88h-96c-48.578125.0585938-87.941406 39.421875-88 88zm0 0"/><path d="m337.753906 448 12-48h-59.507812l12 48zm0 0"/><path d="m145.753906 448 12-48h-59.507812l12 48zm0 0"/><path d="m400 120c-9.792969-.089844-19.425781 2.519531-27.832031 7.542969-12.039063 6.4375-19.726563 18.8125-20.167969 32.457031v184c0 4.417969-3.582031 8-8 8h-240c-4.417969 0-8-3.582031-8-8v-184c-.429688-13.597656-8.074219-25.941406-20.054688-32.382812-8.4375-5.066407-18.105468-7.703126-27.945312-7.617188-26.472656 0-48 17.945312-48 40s21.527344 40 48 40c2.265625.015625 4.53125-.140625 6.777344-.464844 4.359375-.675781 8.445312 2.3125 9.125 6.671875.015625.363281-.003906.726563-.046875 1.089844.0625.230469.109375.464844.144531.703125v152c0 13.253906 10.746094 24 24 24h272c13.253906 0 24-10.746094 24-24v-152c.035156-.238281.082031-.472656.144531-.703125-.042969-.363281-.0625-.726563-.046875-1.089844.679688-4.359375 4.765625-7.347656 9.125-6.671875 2.246094.324219 4.511719.480469 6.777344.464844 26.472656 0 48-17.945312 48-40s-21.527344-40-48-40zm0 0"/><path d="m280 192h-112c-30.914062.035156-55.964844 25.085938-56 56v88h224v-88c-.035156-30.914062-25.085938-55.964844-56-56zm-8 136h-16c-4.417969 0-8-3.582031-8-8s3.582031-8 8-8h16c4.417969 0 8 3.582031 8 8s-3.582031 8-8 8zm56-40v32c0 4.417969-3.582031 8-8 8h-24c-4.417969 0-8-3.582031-8-8s3.582031-8 8-8h16v-24c0-4.417969 3.582031-8 8-8s8 3.582031 8 8zm0 0"/></svg>