<svg height="448pt" viewBox="0 0 448 448" width="448pt" xmlns="http://www.w3.org/2000/svg"><path d="m360 16h-256v408c0 13.253906 10.746094 24 24 24h208c13.253906 0 24-10.746094 24-24zm0 0"/><path d="m448 24c0 13.253906-10.746094 24-24 24s-24-10.746094-24-24 10.746094-24 24-24 24 10.746094 24 24zm0 0"/><path d="m376 16v16h8.800781c-1.078125-5.277344-1.078125-10.722656 0-16zm0 0"/><path d="m48 24c0 13.253906-10.746094 24-24 24s-24-10.746094-24-24 10.746094-24 24-24 24 10.746094 24 24zm0 0"/><path d="m81.441406 368h6.558594v-175.671875l-14.503906 167.007813c-.199219 2.226562.550781 4.433593 2.0625 6.082031 1.511718 1.648437 3.644531 2.585937 5.882812 2.582031zm0 0"/><path d="m88 32v-16h-24.800781c1.078125 5.277344 1.078125 10.722656 0 16zm0 0"/></svg>