<svg height="448pt" viewBox="0 0 448 448" width="448pt" xmlns="http://www.w3.org/2000/svg"><path d="m200 336h48v80h-48zm0 0"/><path d="m448 312v-24h-448v24c0 4.417969 3.582031 8 8 8h432c4.417969 0 8-3.582031 8-8zm-16 0h-16c-4.417969 0-8-3.582031-8-8s3.582031-8 8-8h16c4.417969 0 8 3.582031 8 8s-3.582031 8-8 8zm0 0"/><path d="m144 448h160c4.417969 0 8-3.582031 8-8s-3.582031-8-8-8h-160c-4.417969 0-8 3.582031-8 8s3.582031 8 8 8zm0 0"/><path d="m0 272h448v-264c0-4.417969-3.582031-8-8-8h-432c-4.417969 0-8 3.582031-8 8zm325.089844-32.398438 90.511718-90.511718c3.136719-3.035156 8.128907-2.992188 11.214844.09375 3.085938 3.085937 3.128906 8.078125.09375 11.214844l-90.511718 90.511718c-3.136719 3.035156-8.128907 2.992188-11.214844-.09375-3.085938-3.085937-3.128906-8.078125-.09375-11.214844zm-197.257813-18.753906 181.015625-181.015625c3.125-3.125 8.195313-3.125 11.320313 0s3.125 8.195313 0 11.320313l-181.015625 181.015625c-3.125 3.125-8.195313 3.125-11.320313 0s-3.125-8.195313 0-11.320313zm-106.742187-109.246094 90.511718-90.511718c2.007813-2.082032 4.980469-2.914063 7.777344-2.183594s4.984375 2.917969 5.714844 5.714844-.101562 5.769531-2.183594 7.777344l-90.511718 90.511718c-2.007813 2.082032-4.980469 2.914063-7.777344 2.183594s-4.984375-2.917969-5.714844-5.714844.101562-5.769531 2.183594-7.777344zm0 0"/></svg>