<svg height="448pt" viewBox="0 0 448 448" width="448pt" xmlns="http://www.w3.org/2000/svg"><path d="m232 224c0 4.417969-3.582031 8-8 8s-8-3.582031-8-8 3.582031-8 8-8 8 3.582031 8 8zm0 0"/><path d="m392 224c0-4.417969 3.582031-8 8-8h23.800781c-1.15625-29.664062-8.945312-58.691406-22.792969-84.953125l-20.582031 11.882813c-2.476562 1.449218-5.542969 1.464843-8.03125.035156-2.492187-1.429688-4.023437-4.085938-4.015625-6.957032.003906-2.871093 1.550782-5.515624 4.046875-6.9375l20.550781-11.863281c-15.898437-25.050781-37.132812-46.285156-62.183593-62.183593l-11.863281 20.550781c-1.421876 2.496093-4.066407 4.042969-6.9375 4.046875-2.871094.007812-5.527344-1.523438-6.957032-4.015625-1.429687-2.488281-1.414062-5.554688.035156-8.03125l11.882813-20.582031c-26.261719-13.847657-55.289063-21.636719-84.953125-22.792969v23.800781c0 4.417969-3.582031 8-8 8s-8-3.582031-8-8v-23.800781c-29.664062 1.15625-58.691406 8.945312-84.953125 22.792969l11.882813 20.582031c1.449218 2.476562 1.464843 5.542969.035156 8.03125-1.429688 2.492187-4.085938 4.023437-6.957032 4.015625-2.871093-.003906-5.515624-1.550782-6.9375-4.046875l-11.863281-20.550781c-25.050781 15.898437-46.285156 37.132812-62.183593 62.183593l20.550781 11.863281c2.496093 1.421876 4.042969 4.066407 4.046875 6.9375.007812 2.871094-1.523438 5.527344-4.015625 6.957032-2.488281 1.429687-5.554688 1.414062-8.03125-.035156l-20.582031-11.882813c-13.847657 26.261719-21.636719 55.289063-22.792969 84.953125h23.800781c4.417969 0 8 3.582031 8 8s-3.582031 8-8 8h-23.800781c1.15625 29.664062 8.945312 58.691406 22.792969 84.953125l20.582031-11.882813c2.476562-1.449218 5.542969-1.464843 8.03125-.035156 2.492187 1.429688 4.023437 4.085938 4.015625 6.957032-.003906 2.871093-1.550782 5.515624-4.046875 6.9375l-20.550781 11.863281c15.898437 25.050781 37.132812 46.285156 62.183593 62.183593l11.863281-20.550781c2.226563-3.796875 7.09375-5.082031 10.902344-2.882812s5.128906 7.058593 2.957032 10.882812l-11.882813 20.582031c26.261719 13.847657 55.289063 21.636719 84.953125 22.792969v-23.800781c0-4.417969 3.582031-8 8-8s8 3.582031 8 8v23.800781c29.664062-1.15625 58.691406-8.945312 84.953125-22.792969l-11.882813-20.582031c-1.449218-2.476562-1.464843-5.542969-.035156-8.03125 1.429688-2.492187 4.085938-4.023437 6.957032-4.015625 2.871093.003906 5.515624 1.550782 6.9375 4.046875l11.863281 20.550781c25.050781-15.898437 46.285156-37.132812 62.183593-62.183593l-20.550781-11.863281c-2.496093-1.421876-4.042969-4.066407-4.046875-6.9375-.007812-2.871094 1.523438-5.527344 4.015625-6.957032 2.488281-1.429687 5.554688-1.414062 8.03125.035156l20.582031 11.882813c13.847657-26.261719 21.636719-55.289063 22.792969-84.953125h-23.800781c-4.417969 0-8-3.582031-8-8zm-144.519531-60.097656c2.113281-3.875 6.96875-5.308594 10.847656-3.199219 12.078125 6.550781 22.027344 16.417969 28.679687 28.441406 1.402344 2.5 1.359376 5.5625-.113281 8.023438-1.46875 2.460937-4.148437 3.945312-7.015625 3.890625-2.867187-.054688-5.484375-1.640625-6.863281-4.15625-5.175781-9.359375-12.921875-17.039063-22.328125-22.132813-1.867188-1.015625-3.253906-2.730469-3.859375-4.769531-.601563-2.035156-.367187-4.230469.652344-6.097656zm38.917969 96.097656c-15.195313 26.261719-45.226563 40.179688-75.089844 34.796875-29.859375-5.382813-53.144532-28.910156-58.214844-58.824219-5.070312-29.917968 9.15625-59.800781 35.578125-74.726562 3.839844-2.078125 8.636719-.695313 10.78125 3.105468 2.144531 3.804688.84375 8.625-2.925781 10.832032-20.558594 11.601562-31.636719 34.847656-27.695313 58.121094 3.941407 23.277343 22.054688 41.578124 45.289063 45.765624 23.230468 4.183594 46.59375-6.648437 58.40625-27.085937 2.226562-3.792969 7.09375-5.082031 10.902344-2.882813 3.808593 2.199219 5.128906 7.058594 2.953124 10.882813zm33.601562-28h-73.472656c-3.699219 10.53125-14.1875 17.109375-25.28125 15.855469-11.09375-1.257813-19.84375-10.007813-21.101563-21.101563-1.253906-11.09375 5.324219-21.582031 15.855469-25.28125v-121.472656c0-4.417969 3.582031-8 8-8s8 3.582031 8 8v121.472656c6.777344 2.417969 12.109375 7.75 14.527344 14.527344h73.472656c4.417969 0 8 3.582031 8 8s-3.582031 8-8 8zm0 0"/><path d="m224 0c-123.710938 0-224 100.289062-224 224s100.289062 224 224 224 224-100.289062 224-224c-.140625-123.652344-100.347656-223.859375-224-224zm187.0625 332c-.132812.230469-.328125.40625-.476562.625-18.910157 32.320312-45.839844 59.21875-78.1875 78.085938-.152344.097656-.238282.257812-.398438.351562-.246094.117188-.496094.21875-.753906.304688-66.402344 38.171874-148.089844 38.171874-214.492188 0-.257812-.085938-.507812-.1875-.753906-.304688-.160156-.09375-.246094-.253906-.398438-.351562-32.347656-18.867188-59.277343-45.765626-78.1875-78.085938-.148437-.21875-.34375-.394531-.476562-.625-.136719-.230469-.089844-.34375-.167969-.511719-38.355469-66.527343-38.355469-148.449219 0-214.976562.078125-.167969.070313-.351563.167969-.511719.09375-.160156.253906-.246094.359375-.398438 18.90625-32.425781 45.878906-59.40625 78.304687-78.3125.152344-.097656.238282-.257812.398438-.351562.160156-.097656.351562-.089844.519531-.175781 66.523438-38.355469 148.445313-38.355469 214.96875 0 .167969.078125.351563.070312.511719.167969.160156.09375.246094.253906.398438.351562 32.425781 18.910156 59.402343 45.886719 78.3125 78.3125.097656.148438.257812.238281.351562.398438.097656.160156.089844.34375.167969.511718 38.355469 66.527344 38.355469 148.449219 0 214.976563-.078125.175781-.03125.359375-.167969.519531zm0 0"/></svg>