<svg height="456pt" viewBox="-108 0 456 456" width="456pt" xmlns="http://www.w3.org/2000/svg"><path d="m112 328h-112v32h112zm-48 24h-16c-4.417969 0-8-3.582031-8-8s3.582031-8 8-8h16c4.417969 0 8 3.582031 8 8s-3.582031 8-8 8zm0 0"/><path d="m8 408h104v-32h-112v24c0 4.417969 3.582031 8 8 8zm40-24h16c4.417969 0 8 3.582031 8 8s-3.582031 8-8 8h-16c-4.417969 0-8-3.582031-8-8s3.582031-8 8-8zm0 0"/><path d="m240 400v-72h-112v80h104c4.417969 0 8-3.582031 8-8zm-48-48h-16c-4.417969 0-8-3.582031-8-8s3.582031-8 8-8h16c4.417969 0 8 3.582031 8 8s-3.582031 8-8 8zm0 0"/><path d="m240 312v-304c0-4.417969-3.582031-8-8-8h-104v312zm-96-176c0-4.417969 3.582031-8 8-8s8 3.582031 8 8v32c0 4.417969-3.582031 8-8 8s-8-3.582031-8-8zm0 0"/><path d="m112 0h-104c-4.417969 0-8 3.582031-8 8v304h112zm-88 72c0 4.417969-3.582031 8-8 8s-8-3.582031-8-8v-16c0-4.417969 3.582031-8 8-8s8 3.582031 8 8zm8-48h-8v8c0 4.417969-3.582031 8-8 8s-8-3.582031-8-8v-16c0-4.417969 3.582031-8 8-8h16c4.417969 0 8 3.582031 8 8s-3.582031 8-8 8zm64 144c0 4.417969-3.582031 8-8 8s-8-3.582031-8-8v-32c0-4.417969 3.582031-8 8-8s8 3.582031 8 8zm0 0"/><path d="m56 440c0 8.835938-7.164062 16-16 16s-16-7.164062-16-16 7.164062-16 16-16 16 7.164062 16 16zm0 0"/><path d="m216 440c0 8.835938-7.164062 16-16 16s-16-7.164062-16-16 7.164062-16 16-16 16 7.164062 16 16zm0 0"/></svg>