<svg height="448pt" viewBox="-64 0 448 448" width="448pt" xmlns="http://www.w3.org/2000/svg"><path d="m82.230469 448 10.664062-32h-57.789062l10.664062 32zm0 0"/><path d="m160 144c-57.4375 0-104 46.5625-104 104s46.5625 104 104 104 104-46.5625 104-104c-.066406-57.410156-46.589844-103.933594-104-104zm88 72.640625c-.011719.898437-.171875 1.792969-.480469 2.640625 0 .0625-.0625.109375-.085937.175781-.226563.636719-.527344 1.246094-.90625 1.808594-4 5.449219-6.273438 11.976563-6.527344 18.734375v16c.253906 6.757812 2.527344 13.285156 6.527344 18.734375.378906.5625.679687 1.171875.90625 1.808594 0 .066406.0625.113281.085937.175781.308594.847656.46875 1.742188.480469 2.640625v.082031c0 .246094-.136719.453125-.152344.695313-.058594.863281-.246094 1.710937-.558594 2.519531-.042968.078125 0 .183594-.066406.273438-16.742187 42.867187-61.554687 67.820312-106.816406 59.480468-45.257812-8.339844-78.230469-47.625-78.597656-93.648437-.367188-46.019531 31.976562-85.824219 77.097656-94.886719 45.121094-9.058594 90.324219 15.179688 107.75 57.773438.167969.289062.320312.59375.449219.902343.109375.226563.230469.433594.328125.671875.363281.882813.554687 1.824219.566406 2.777344zm0 0"/><path d="m274.230469 448 10.664062-32h-57.789062l10.664062 32zm0 0"/><path d="m0 80h320v-72c0-4.417969-3.582031-8-8-8h-304c-4.417969 0-8 3.582031-8 8zm160-48h16c4.417969 0 8 3.582031 8 8s-3.582031 8-8 8h-16c-4.417969 0-8-3.582031-8-8s3.582031-8 8-8zm-40 0h16c4.417969 0 8 3.582031 8 8s-3.582031 8-8 8h-16c-4.417969 0-8-3.582031-8-8s3.582031-8 8-8zm-40 0h16c4.417969 0 8 3.582031 8 8s-3.582031 8-8 8h-16c-4.417969 0-8-3.582031-8-8s3.582031-8 8-8zm-40-16c13.253906 0 24 10.746094 24 24s-10.746094 24-24 24-24-10.746094-24-24 10.746094-24 24-24zm0 0"/><path d="m224 240c.15625-8.515625 2.566406-16.835938 6.992188-24.113281-15.1875-34.683594-52.613282-53.972657-89.675782-46.214844-37.0625 7.761719-63.605468 40.4375-63.605468 78.304687 0 37.863282 26.542968 70.542969 63.605468 78.300782 37.0625 7.761718 74.488282-11.527344 89.675782-46.214844-4.441407-7.25-6.855469-15.558594-6.992188-24.0625zm-116.28125.976562 45.25-45.265624c3.136719-3.03125 8.128906-2.988282 11.214844.097656 3.085937 3.085937 3.128906 8.078125.097656 11.214844l-45.25 45.265624c-3.136719 3.03125-8.128906 2.988282-11.214844-.097656-3.085937-3.085937-3.128906-8.078125-.097656-11.214844zm12.679688 54.625c-3.234376-.003906-6.148438-1.953124-7.386719-4.941406-1.238281-2.988281-.554688-6.429687 1.730469-8.714844l79.203124-79.203124c2.007813-2.078126 4.980469-2.910157 7.777344-2.179688s4.984375 2.917969 5.714844 5.714844-.101562 5.769531-2.179688 7.777344l-79.203124 79.203124c-1.5 1.5-3.53125 2.339844-5.65625 2.34375zm91.882812-40.578124-45.25 45.265624c-2.007812 2.078126-4.980469 2.914063-7.78125 2.179688-2.796875-.730469-4.980469-2.914062-5.710938-5.710938-.734374-2.796874.101563-5.773437 2.179688-7.78125l45.25-45.265624c2.007812-2.078126 4.980469-2.914063 7.78125-2.179688 2.796875.730469 4.980469 2.914062 5.710938 5.710938.734374 2.796874-.101563 5.773437-2.179688 7.78125zm0 0"/><path d="m48 40c0 4.417969-3.582031 8-8 8s-8-3.582031-8-8 3.582031-8 8-8 8 3.582031 8 8zm0 0"/><path d="m320 392v-296h-320v296c0 4.417969 3.582031 8 8 8h304c4.417969 0 8-3.582031 8-8zm-280-144c0-66.273438 53.726562-120 120-120s120 53.726562 120 120-53.726562 120-120 120c-66.242188-.074219-119.925781-53.757812-120-120zm208 144h-16c-4.417969 0-8-3.582031-8-8s3.582031-8 8-8h16c4.417969 0 8 3.582031 8 8s-3.582031 8-8 8zm56 0h-32c-4.417969 0-8-3.582031-8-8s3.582031-8 8-8h24v-24c0-4.417969 3.582031-8 8-8s8 3.582031 8 8v32c0 4.417969-3.582031 8-8 8zm0 0"/></svg>