<svg height="448pt" viewBox="0 0 448.00094 448" width="448pt" xmlns="http://www.w3.org/2000/svg"><path d="m344 448v-448h-80v448zm-62.625-372.6875 33.9375-33.9375c3.140625-3.03125 8.128906-2.988281 11.214844.097656 3.085937 3.085938 3.128906 8.078125.097656 11.214844l-33.9375 33.9375c-3.136719 3.03125-8.128906 2.988281-11.214844-.097656-3.085937-3.085938-3.128906-8.074219-.097656-11.214844zm0 120 33.9375-33.9375c2.007812-2.078125 4.984375-2.914062 7.78125-2.179688 2.796875.730469 4.980469 2.917969 5.710938 5.714844.734374 2.796875-.101563 5.769532-2.179688 7.777344l-33.9375 33.9375c-2.007812 2.078125-4.980469 2.914062-7.777344 2.179688-2.796875-.730469-4.984375-2.914063-5.714844-5.710938-.734374-2.796875.101563-5.773438 2.179688-7.78125zm0 0"/><path d="m232 0h16v448h-16zm0 0"/><path d="m360 448h86.777344l-18.945313-132.472656c-2.84375-19.785156-12.367187-38.003906-26.992187-51.632813 9.921875 17.035157 15.152344 36.394531 15.160156 56.105469v104c0 4.417969-3.582031 8-8 8s-8-3.582031-8-8v-104c.003906-20.539062-6.609375-40.535156-18.855469-57.023438 1.890625 8.207032 2.847657 16.601563 2.855469 25.023438v104c0 4.417969-3.582031 8-8 8s-8-3.582031-8-8v-104c.011719-13.035156-2.714844-25.925781-8-37.839844zm0 0"/><path d="m448 0h-88v220.960938c10.453125-15.683594 16.019531-34.113282 16-52.960938v-104c0-4.417969 3.582031-8 8-8s8 3.582031 8 8v104c-.003906 13.078125-2.3125 26.054688-6.816406 38.335938 19.589844-18.152344 30.753906-43.628907 30.816406-70.335938v-104c0-4.417969 3.582031-8 8-8s8 3.582031 8 8v104c-.054688 32.570312-14.25 63.511719-38.902344 84.800781 34.3125-22.023437 55.011719-60.03125 54.902344-100.800781zm0 0"/><path d="m200 0h16v448h-16zm0 0"/><path d="m88 0h-88v120c-.117188 40.765625 20.574219 78.773438 54.878906 100.800781-24.640625-21.292969-38.828125-52.234375-38.878906-84.800781v-104c0-4.417969 3.582031-8 8-8s8 3.582031 8 8v104c.0625 26.707031 11.226562 52.183594 30.816406 70.335938-4.503906-12.28125-6.808594-25.257813-6.816406-38.335938v-104c0-4.417969 3.582031-8 8-8s8 3.582031 8 8v104c-.019531 18.847656 5.550781 37.277344 16 52.960938zm0 0"/><path d="m184 448v-448h-80v448zm-62.625-372.6875 33.9375-33.9375c2.007812-2.078125 4.984375-2.914062 7.78125-2.179688 2.796875.730469 4.980469 2.917969 5.710938 5.714844.734374 2.796875-.101563 5.769532-2.179688 7.777344l-33.9375 33.9375c-2.007812 2.078125-4.980469 2.914062-7.777344 2.179688-2.796875-.730469-4.984375-2.914063-5.714844-5.710938-.734374-2.796875.101563-5.773438 2.179688-7.78125zm0 120 33.9375-33.9375c2.007812-2.078125 4.984375-2.914062 7.78125-2.179688 2.796875.730469 4.980469 2.917969 5.710938 5.714844.734374 2.796875-.101563 5.769532-2.179688 7.777344l-33.9375 33.9375c-2.007812 2.078125-4.980469 2.914062-7.777344 2.179688-2.796875-.730469-4.984375-2.914063-5.714844-5.710938-.734374-2.796875.101563-5.773438 2.179688-7.78125zm0 0"/><path d="m88 250.160156c-5.285156 11.914063-8.007812 24.804688-8 37.839844v104c0 4.417969-3.582031 8-8 8s-8-3.582031-8-8v-104c.007812-8.421875.96875-16.816406 2.855469-25.023438-12.246094 16.488282-18.859375 36.484376-18.855469 57.023438v104c0 4.417969-3.582031 8-8 8s-8-3.582031-8-8v-104c.019531-19.714844 5.265625-39.074219 15.199219-56.105469-14.636719 13.621094-24.175781 31.835938-27.03125 51.625l-18.945313 132.480469h86.777344zm0 0"/></svg>