<svg height="496pt" viewBox="-32 0 496 496" width="496pt" xmlns="http://www.w3.org/2000/svg"><path d="m263.992188 152c0 4.417969-3.582032 8-8 8-4.417969 0-8-3.582031-8-8s3.582031-8 8-8c4.417968 0 8 3.582031 8 8zm0 0"/><path d="m183.992188 152c0 4.417969-3.582032 8-8 8-4.417969 0-8-3.582031-8-8s3.582031-8 8-8c4.417968 0 8 3.582031 8 8zm0 0"/><path d="m431.992188 336c0-39.703125-32.304688-72-72-72h-56v9.871094l-24-1.40625v-12.039063c4.679687-2.867187 8.304687-7.296875 10.144531-12.714843l4.625-1.542969c21.695312-7.230469 38.757812-24.792969 45.679687-46.582031 11.117188-2.089844 19.550782-11.875 19.550782-23.585938v-56c0-10.753906-7.113282-19.871094-17.097657-22.921875-7.351562-54.925781-54.886719-97.078125-110.902343-97.078125h-32c-55.992188 0-103.511719 42.121094-110.894532 97.007812-9.890625 2.976563-17.105468 12.160157-17.105468 22.992188v56c0 11.710938 8.433593 21.496094 19.550781 23.585938 6.921875 21.796874 23.984375 39.351562 45.679687 46.582031l4.625 1.542969c1.839844 5.417968 5.464844 9.847656 10.152344 12.714843v12.039063l-24 1.40625v-9.871094h-56c-39.695312 0-72 32.296875-72 72v8h16.207031c-.09375 1.449219-.214843 2.894531-.214843 4.34375v7.871094c0 23.976562 5.550781 47.960937 16 69.546875v70.238281h368v-70.238281c10.449218-21.578125 16-45.570313 16-69.546875v-7.871094c0-1.449219-.121094-2.894531-.207032-4.34375h16.207032zm-112-56h40c28.167968 0 51.535156 20.894531 55.433593 48h-31.433593c-34.464844 0-45.871094-12.257812-64-42.222656zm-152-16h96v11.886719l-48 34.289062-48-34.289062zm88-176h-80v-24c0-4.414062 3.59375-8 8-8h64c4.40625 0 8 3.585938 8 8zm24 16c4.40625 0 8 3.585938 8 8v8h-144v-8c0-4.414062 3.59375-8 8-8zm8 80.128906c0 4.574219-.558594 9.152344-1.671876 13.574219l-4.578124 18.296875h-33.75v-32h40zm-56-.128906v32h-32v-32zm-88-48h144v32h-144zm40 48v32h-33.753907l-4.574219-18.304688c-1.113281-4.421874-1.671874-8.992187-1.671874-13.566406v-.128906zm93.75 48-2.484376 9.9375c-.890624 3.566406-4.082031 6.0625-7.761718 6.0625h-103.007813c-3.671875 0-6.871093-2.496094-7.761719-6.054688l-2.488281-9.945312zm17.289062-3.167969 6.808594-27.246093c.128906-.523438.175781-1.066407.296875-1.585938h21.007812c-5.464843 12.847656-15.359375 23.078125-28.113281 28.832031zm40.960938-116.832031c4.40625 0 8 3.585938 8 8v56c0 4.414062-3.59375 8-8 8h-32v-72c0-13.230469-10.769532-24-24-24h-8v-8h50.320312c2.777344 7.792969 4.640625 16.023438 5.296875 24.609375l.964844 7.390625zm-136-96h32c35.039062 0 66.152343 19.296875 82.878906 48h-42.878906c0-13.230469-10.769532-24-24-24h-64c-13.230469 0-24 10.769531-24 24h-42.878907c16.726563-28.703125 47.839844-48 82.878907-48zm-112 160v-56c0-4.414062 3.59375-8 8.40625-8h7.417968l.558594-7.390625c.65625-8.585937 2.519531-16.816406 5.296875-24.609375h50.320313v8h-8c-13.230469 0-24 10.769531-24 24v72h-32c-4.40625 0-8-3.585938-8-8zm20.839843 24h21.015625c.121094.519531.160156 1.054688.296875 1.574219l6.808594 27.257812c-12.753906-5.753906-22.648437-15.984375-28.121094-28.832031zm48.808594 88.152344 58.351563 41.679687 58.351562-41.679687 29.648438 1.742187v.320313l.039062.066406-58.785156 45.71875h-58.503906l-58.78125-45.71875.03125-.066406v-.320313zm-85.648437-8.152344h40v5.777344c-18.128907 29.964844-29.535157 42.222656-64 42.222656h-31.433594c3.898437-27.105469 27.265625-48 55.433594-48zm24 168h-48v-16h48zm-48 16h48v16h-48zm240 16h-144v-72c0-4.414062 3.59375-8 8-8h128c4.40625 0 8 3.585938 8 8zm48-48h48v16h-48zm0 48v-16h48v16zm64-131.65625v7.871094c0 20.539062-4.496094 41.105468-13.039063 59.785156h-50.960937v-48h-16v112h-16v-72c0-13.230469-10.769532-24-24-24h-128c-13.230469 0-24 10.769531-24 24v72h-16v-112h-16v48h-50.960938c-8.542969-18.679688-13.039062-39.238281-13.039062-59.785156v-7.871094c0-1.449219.097656-2.894531.207031-4.34375h15.792969c38.777343 0 55.136718-14.871094 71.503906-40.03125l61.75 48.03125h69.496094l61.753906-48.03125c16.359375 25.160156 32.71875 40.03125 71.496094 40.03125h15.792968c.109375 1.449219.207032 2.894531.207032 4.34375zm0 0"/></svg>