<svg height="496pt" viewBox="-112 0 496 496" width="496pt" xmlns="http://www.w3.org/2000/svg"><path d="m248 56h-24v-16c0-8.824219-7.175781-16-16-16h-32c-8.824219 0-16 7.175781-16 16v6.585938c-38.246094-9-74.457031-24.171876-107.703125-45.328126l-1.96875-1.257812h-14.96875l-2.304687 4.03125c-1.351563 2.359375-33.054688 58.417969-33.054688 107.96875s31.703125 105.609375 33.054688 107.96875l2.304687 4.03125h14.96875l1.96875-1.246094c33.253906-21.160156 69.464844-36.328125 107.703125-45.328125v16.804688c-4.761719 2.777343-8 7.882812-8 13.777343v50.496094c-33.433594-17.359375-75.34375-11.609375-102.792969 15.847656l-5.65625 5.648438 5.65625 5.65625c12.847657 12.839844 28.984375 21.167969 46.488281 24.3125-9.871093 14.222656-15.695312 31.445312-15.695312 50.03125v8h8c29.761719 0 56.0625-14.886719 72-37.558594v165.558594h64v-210.222656c4.761719-2.777344 8-7.882813 8-13.777344v-64c0-5.894531-3.238281-11-8-13.777344v-26.222656h24c13.230469 0 24-10.769531 24-24v-64c0-13.230469-10.769531-24-24-24zm-40-16v16h-32v-16zm0 80h-32v-16h32zm-32 16h32v16h-32zm32-48h-32v-16h32zm-138.070312 106.128906c-8.488282-18.375-19.769532-47.320312-21.640626-74.671875l-15.960937 1.09375c2.078125 30.371094 14.511719 61.898438 23.582031 81.351563-3.421875 2-6.855468 3.992187-10.222656 6.105468h-.917969c-7.058593-13.421874-28.769531-57.832031-28.769531-96.007812 0-38.113281 21.71875-82.566406 28.769531-96h.910157c3.367187 2.113281 6.800781 4.105469 10.222656 6.105469-9.0625 19.453125-21.503906 50.984375-23.582032 81.351562l15.960938 1.09375c1.871094-27.351562 13.152344-56.292969 21.640625-74.671875 28.421875 14.960938 58.582031 26.050782 90.070313 33.121094v98.007812c-31.472657 7.0625-61.640626 18.160157-90.0625 33.121094zm106.070312 237.871094h32v16h-32zm0-16v-16h32v16zm0-32v-96h32v96zm5.753906-144-13.753906 17.191406v-34.382812zm10.246094 12.808594 15.351562 19.191406h-30.710937zm10.246094-12.808594 13.753906-17.191406.007812 34.398437zm-10.246094-12.808594-15.351562-19.191406h30.710937zm-44.257812 47.257813c-14.886719 3.527343-28.285157 10.832031-39.191407 20.863281-15.292969-.601562-29.757812-5.898438-41.664062-15.304688 23.175781-18.253906 55.457031-20.421874 80.855469-5.558593zm-51.246094 77.054687c3.886718-32.917968 30.070312-59.121094 63-63-3.878906 32.921875-30.070313 59.113282-63 63zm79.503906 128.496094v-16h32v16zm32-288h-32v-24h32zm48-48c0 4.414062-3.59375 8-8 8h-24v-80h24c4.40625 0 8 3.585938 8 8zm0 0"/></svg>