<svg height="496pt" viewBox="0 0 496.6 496" width="496pt" xmlns="http://www.w3.org/2000/svg"><path d="m496.601562 280.300781c0-26.898437-9-51.664062-24-71.695312v-120.304688c0-8.511719-6.679687-15.496093-15.074218-15.976562l-39.359375-7.863281-1.566407-.160157c0-8.5625-6.761718-15.578125-15.226562-15.984375l-47.453125-7.914062-1.320313-.101563c0-8.5625-6.761718-15.578125-15.226562-15.984375l-47.453125-7.914062-1.320313-.101563c0-8.824219-7.175781-16-16-16h-70.945312c-28.359375 0-56.070312 7.941407-80.121094 22.976563-20.152344 12.597656-37.269531 30.03125-49.503906 50.414062l-4.152344 6.921875c-25.671875 1.574219-49.40625 15.679688-62.71875 37.871094l-5.160156 8.601563 60.3125 227.828124c8.574219 32.394532 25.632812 62.042969 49.328125 85.738282 35.878906 35.878906 83.589844 55.648437 134.34375 55.648437h29.214844c57.863281 0 112.785156-25.082031 150.679687-68.808593 15.5625-17.960938 27.625-38.503907 36-60.992188 22.601563-21.832031 36.722656-52.375 36.722656-86.199219zm-43.953124 70.710938c-6.738282-7.191407-12.304688-15.152344-16.671876-23.6875l7-2.902344-6.128906-14.785156-7.121094 2.953125c-2.542968-7.792969-4.085937-15.945313-4.71875-24.296875h7.59375v-16h-7.59375c.632813-8.351563 2.167969-16.503907 4.71875-24.296875l7.121094 2.953125 6.128906-14.785157-7-2.894531c4.367188-8.539062 9.945313-16.488281 16.671876-23.679687 17.289062 18.574218 27.953124 43.390625 27.953124 70.710937 0 27.320313-10.671874 52.128907-27.953124 70.710938zm-76.046876 33.289062c-24.289062 0-46.609374-8.433593-64.328124-22.441406 7.941406-8.542969 14.511718-18.136719 19.636718-28.449219l15.273438 6.328125 6.128906-14.78125-15.175781-6.289062c3.328125-9.777344 5.335937-19.976563 6.046875-30.367188h16.417968v-16h-16.425781c-.710937-10.394531-2.71875-20.59375-6.046875-30.367187l15.175782-6.289063-6.128907-14.785156-15.273437 6.328125c-5.125-10.3125-11.695313-19.902344-19.636719-28.449219 17.726563-14.007812 40.046875-22.4375 64.335937-22.4375 24.285157 0 46.605469 8.429688 64.328126 22.4375-7.945313 8.546875-14.515626 18.136719-19.640626 28.449219l-15.273437-6.328125-6.128906 14.785156 15.175781 6.289063c-3.328125 9.773437-5.335938 19.972656-6.046875 30.367187h-16.414063v16h16.421876c.710937 10.390625 2.71875 20.589844 6.046874 30.367188l-15.175781 6.289062 6.128907 14.78125 15.273437-6.328125c5.128906 10.320313 11.695313 19.914063 19.640625 28.449219-17.730469 14.007813-40.050781 22.441406-64.335938 22.441406zm-76.050781-174.710937c6.738281 7.191406 12.304688 15.140625 16.671875 23.679687l-7 2.894531 6.128906 14.785157 7.121094-2.953125c2.542969 7.792968 4.085938 15.945312 4.71875 24.296875h-7.589844v16h7.589844c-.632812 8.351562-2.167968 16.496093-4.71875 24.296875l-7.121094-2.953125-6.128906 14.785156 7 2.902344c-4.367187 8.535156-9.933594 16.488281-16.671875 23.6875-17.277343-18.582031-27.949219-43.390625-27.949219-70.710938 0-27.320312 10.664063-52.136719 27.949219-70.710937zm154.480469-121.449219 1.570312.160156v102.808594c-11.554687-10.371094-25.089843-18.511719-40-23.808594v-86.839843zm-55.75-23.953125 1.320312.113281v98.414063c-7.761718-1.574219-15.785156-2.414063-24-2.414063-8.21875 0-16.242187.839844-24 2.414063v-106.304688zm-256.976562 112.59375 2.359374 16.527344-28.34375 18.894531-4.34375-15.207031zm-34.945313 4.0625-4.34375-15.207031 34.417969-22.945313 2.359375 16.527344zm23.128906-86.792969 4.441407 31.082031-36.523438 24.351563-2.703125-9.464844 9.832031-16.375c6.730469-11.234375 15.128906-21.121093 24.953125-29.59375zm16.6875 116.816407 4.160157 29.121093-14.910157 7.457031c-4.335937 2.175782-10.136719-.351562-11.480469-5.058593l-4.007812-14.023438zm19.238281 21.578124-21.308593-149.203124c5.414062-3.421876 11.039062-6.398438 16.855469-8.910157l21.382812 149.664063zm42.1875-148.425781-26.578124 17.710938-4.6875-32.839844c10.105468-2.824219 20.574218-4.375 31.265624-4.527344zm-10.1875 132.425781-4.140624-28.984374 14.328124-9.546876v33.441407zm10.1875-57.761718-16.832031 11.222656-2.363281-16.527344 19.195312-12.800781zm0-37.335938-21.707031 14.472656-2.359375-16.527343 24.066406-16.039063zm-78.578124-84.503906c21.496093-13.441406 46.273437-20.542969 71.632812-20.542969h6.945312v32.0625c-28.355468.351563-55.503906 9.175781-78.609374 25.679688-15.519532 11.089843-28.367188 25-38.183594 41.359375l-2.128906 3.546875-8.433594-29.511719 4.515625-7.511719c10.933593-18.226562 26.238281-33.816406 44.261719-45.082031zm-111.144532 89.871094c10.226563-17.046875 28.160156-28.222656 47.769532-30.125l42.910156 150.191406c2.945312 10.320312 12.496094 17.519531 23.226562 17.519531 3.734375 0 7.480469-.878906 10.800782-2.554687l81.015624-40.503906v-204.941407h48v168h16v-151.890625l46.679688 7.785156 1.320312.105469v127c-46.53125 16.527344-80 60.871094-80 113 0 58.304688 41.804688 106.976563 97.015626 117.734375-12 6.394532-24.472657 11.730469-37.371094 15.808594l-4.015625-14.976562-15.453125 4.144531 4.039062 15.089843c-14.410156 3.4375-29.207031 5.375-44.222656 5.902344v-15.703125h-16v15.773438c-15.082031-.527344-29.890625-2.476563-44.25-5.886719l4.0625-15.175781-15.453125-4.144531-4.023437 15.015624c-42.3125-13.320312-79.992188-39.078124-108.34375-75.0625l-55.386719-209.304687zm392.914063 290.296875c-34.855469 40.214843-85.367188 63.289062-138.59375 63.289062h-29.214844c-46.480469 0-90.175781-18.105469-123.039063-50.960937-15.585937-15.59375-27.96875-34.023438-36.65625-54.144532 26.542969 25.039063 58.09375 43.449219 92.511719 54.167969l-4.257812 15.871094 15.457031 4.144531 4.214844-15.734375c15.695312 3.75 31.890625 5.894531 48.386718 6.429688v16.226562h16v-16.296875c16.421876-.535156 32.605469-2.664062 48.359376-6.457031l4.238281 15.824219 15.457031-4.144532-4.257812-15.894531c21.554687-6.742187 42.105468-16.574219 61.160156-29.289062 18.632812-.765625 36.210937-5.671875 51.730468-14.023438-6.121093 11.023438-13.21875 21.441407-21.496093 30.992188zm0 0"/><path d="m232.601562 352.300781h32v16h-32zm0 0"/><path d="m136.671875 294.457031 13.855469-8 16.003906 27.722657-13.859375 7.996093zm0 0"/><path d="m174.734375 344.214844 8-13.855469 27.710937 16-8 13.855469zm0 0"/></svg>