<svg height="496pt" viewBox="0 0 496 496" width="496pt" xmlns="http://www.w3.org/2000/svg"><path d="m240 56h16v16h-16zm0 0"/><path d="m496 240v-48h-48v-48h16v-48h-144v-16h-16v-33.472656c9.289062-3.3125 16-12.113282 16-22.527344 0-13.230469-10.769531-24-24-24h-96c-13.230469 0-24 10.769531-24 24 0 10.414062 6.710938 19.214844 16 22.527344v33.472656h-16v16h-144v48h16v48h-48v48h16v48h-16v48h16v144h-16v16h496v-16h-16v-144h16v-48h-16v-48zm-64-48h-112v-48h112zm-160 288h-48v-72h48zm-64-88v88h-16v-112h112v112h-16v-88zm96-40h-112v-16h112zm0-32h-112v-64h112zm0-80h-112v-64h112zm144-128v16h-128v-16zm-248-96h96c4.414062 0 8 3.59375 8 8s-3.585938 8-8 8h-96c-4.414062 0-8-3.59375-8-8s3.585938-8 8-8zm8 32h80v32h-80zm96 48v64h-112v-64zm-256 16h128v16h-128zm16 32h112v48h-112zm-32 96h128v-16h-144v-16h160v80h-144zm0 96h128v-16h-144v-16h160v176h-144zm448-16h-144v16h128v144h-144v-176h160zm-16-32h-144v-80h160v16h-144v16h128zm0 0"/><path d="m336 160h16v16h-16zm0 0"/><path d="m368 160h16v16h-16zm0 0"/><path d="m400 160h16v16h-16zm0 0"/><path d="m336 256h16v16h-16zm0 0"/><path d="m368 256h16v16h-16zm0 0"/><path d="m400 256h16v16h-16zm0 0"/><path d="m432 256h16v16h-16zm0 0"/><path d="m144 160h16v16h-16zm0 0"/><path d="m112 160h16v16h-16zm0 0"/><path d="m80 160h16v16h-16zm0 0"/><path d="m144 256h16v16h-16zm0 0"/><path d="m112 256h16v16h-16zm0 0"/><path d="m80 256h16v16h-16zm0 0"/><path d="m48 256h16v16h-16zm0 0"/><path d="m336 352h16v16h-16zm0 0"/><path d="m368 352h16v16h-16zm0 0"/><path d="m400 352h16v16h-16zm0 0"/><path d="m432 352h16v16h-16zm0 0"/><path d="m144 352h16v16h-16zm0 0"/><path d="m112 352h16v16h-16zm0 0"/><path d="m80 352h16v16h-16zm0 0"/><path d="m48 352h16v16h-16zm0 0"/><path d="m336 384h16v16h-16zm0 0"/><path d="m368 384h16v16h-16zm0 0"/><path d="m400 384h16v16h-16zm0 0"/><path d="m432 384h16v16h-16zm0 0"/><path d="m144 384h16v16h-16zm0 0"/><path d="m112 384h16v16h-16zm0 0"/><path d="m80 384h16v16h-16zm0 0"/><path d="m48 384h16v16h-16zm0 0"/><path d="m336 416h16v16h-16zm0 0"/><path d="m368 416h16v16h-16zm0 0"/><path d="m400 416h16v16h-16zm0 0"/><path d="m432 416h16v16h-16zm0 0"/><path d="m144 416h16v16h-16zm0 0"/><path d="m112 416h16v16h-16zm0 0"/><path d="m80 416h16v16h-16zm0 0"/><path d="m48 416h16v16h-16zm0 0"/><path d="m336 448h16v16h-16zm0 0"/><path d="m368 448h16v16h-16zm0 0"/><path d="m400 448h16v16h-16zm0 0"/><path d="m432 448h16v16h-16zm0 0"/><path d="m144 448h16v16h-16zm0 0"/><path d="m112 448h16v16h-16zm0 0"/><path d="m80 448h16v16h-16zm0 0"/><path d="m48 448h16v16h-16zm0 0"/><path d="m208 272h16v16h-16zm0 0"/><path d="m240 272h16v16h-16zm0 0"/><path d="m272 272h16v16h-16zm0 0"/><path d="m208 112h16v16h-16zm0 0"/><path d="m240 112h16v16h-16zm0 0"/><path d="m272 112h16v16h-16zm0 0"/><path d="m208 192h16v16h-16zm0 0"/><path d="m240 192h16v16h-16zm0 0"/><path d="m272 192h16v16h-16zm0 0"/></svg>