<svg height="496pt" viewBox="0 0 496 496" width="496pt" xmlns="http://www.w3.org/2000/svg"><path d="m0 480h16v16h-16zm0 0"/><path d="m480 480h16v16h-16zm0 0"/><path d="m344 368h8c57.34375 0 104-46.65625 104-104v-48c0-26.472656-21.527344-48-48-48s-48 21.527344-48 48v48c0 10.433594-6.6875 19.328125-16 22.632812v-91.710937c0-38.992187-22.425781-73.011719-54.625-89.066406 18.144531-9.28125 30.625-28.121094 30.625-49.855469 0-30.871094-25.121094-56-56-56h-32c-30.878906 0-56 25.128906-56 56 0 21.574219 12.289062 40.3125 30.214844 49.65625-9.269532 4.472656-17.886719 10.390625-25.472656 17.832031-18.535157 18.207031-28.742188 42.535157-28.742188 68.511719v126.695312c-3.617188-1.222656-6.921875-3.289062-9.6875-6.085937-4.703125-4.769531-7.25-11.082031-7.167969-17.777344l.488281-38.558593c.121094-10.722657-3.960937-20.824219-11.503906-28.449219-7.542968-7.625-17.59375-11.824219-28.3125-11.824219-21.953125 0-39.816406 17.863281-39.816406 39.824219v32.175781c0 54.65625 42.375 99.59375 96 103.695312v88.304688h-120v16h432v-16h-120zm-80-312c0 13.609375-9.585938 27.832031-16 35.839844-6.414062-8.015625-16-22.230469-16-35.839844s9.585938-27.832031 16-35.839844c6.414062 8.007813 16 22.230469 16 35.839844zm-14.496094 56.015625c4.960938.089844 9.792969.710937 14.496094 1.710937v366.273438h-32v-366.28125c5.6875-1.152344 11.527344-1.765625 17.503906-1.703125zm54.496094-56.015625c0 21.726562-17.441406 39.382812-39.039062 39.902344 7.144531-10.175782 15.039062-24.8125 15.039062-39.902344s-7.894531-29.726562-15.039062-39.902344c21.597656.519532 39.039062 18.175782 39.039062 39.902344zm-112 0c0-21.726562 17.441406-39.382812 39.039062-39.902344-7.144531 10.175782-15.039062 24.8125-15.039062 39.902344s7.894531 29.726562 15.039062 39.902344c-21.597656-.519532-39.039062-18.175782-39.039062-39.902344zm-32 320c-48.519531 0-88-39.480469-88-88v-32.175781c0-10.320313 6.632812-19.039063 15.832031-22.34375l.070313 54.527343c.066406 44.113282 35.992187 79.992188 80.097656 79.992188v-16c-35.296875 0-64.046875-28.71875-64.097656-64.007812l-.070313-54.519532c3.3125 1.183594 6.375 3.023438 8.921875 5.597656 4.511719 4.5625 6.949219 10.609376 6.878906 17.007813l-.488281 38.554687c-.136719 11.007813 4.046875 21.382813 11.785157 29.214844 7.734374 7.832032 18.0625 12.152344 29.070312 12.152344h8v-144c0-21.648438 8.503906-41.921875 23.960938-57.097656 7.085937-6.949219 15.230468-12.308594 24.039062-16.132813v361.230469h-48v-104zm120 104v-361.023438c28.175781 12.886719 48 42.238282 48 75.953126v109.070312h8c22.054688 0 40-17.945312 40-40v-48c0-14.871094 10.238281-27.289062 24-30.863281v70.863281c0 35.289062-28.710938 64-64 64h-8v16h8c44.113281 0 80-35.886719 80-80v-70.863281c13.761719 3.574219 24 15.992187 24 30.863281v48c0 48.519531-39.480469 88-88 88h-24v128zm0 0"/><path d="m184 168h16v16h-16zm0 0"/><path d="m184 224h16v16h-16zm0 0"/><path d="m184 280h16v16h-16zm0 0"/><path d="m184 336h16v16h-16zm0 0"/><path d="m184 392h16v16h-16zm0 0"/><path d="m184 448h16v16h-16zm0 0"/><path d="m296 168h16v16h-16zm0 0"/><path d="m296 224h16v16h-16zm0 0"/><path d="m296 280h16v16h-16zm0 0"/><path d="m296 336h16v16h-16zm0 0"/><path d="m296 392h16v16h-16zm0 0"/><path d="m296 448h16v16h-16zm0 0"/><path d="m240 136h16v16h-16zm0 0"/><path d="m240 192h16v16h-16zm0 0"/><path d="m240 248h16v16h-16zm0 0"/><path d="m240 304h16v16h-16zm0 0"/><path d="m240 360h16v16h-16zm0 0"/><path d="m240 416h16v16h-16zm0 0"/></svg>