<svg height="496pt" viewBox="0 0 496 496" width="496pt" xmlns="http://www.w3.org/2000/svg"><path d="m352 96c-11.007812 0-21.6875 1.359375-32 3.710938v-75.710938c0-13.230469-10.769531-24-24-24h-272c-13.230469 0-24 10.769531-24 24v448c0 13.230469 10.769531 24 24 24h272c13.230469 0 24-10.769531 24-24v-91.710938c10.3125 2.351563 20.992188 3.710938 32 3.710938 79.398438 0 144-64.601562 144-144s-64.601562-144-144-144zm-182.457031 193.945312c1.808593 13.160157 5.183593 25.910157 10.089843 38.054688h-39.265624c4.898437-12.144531 8.28125-24.894531 10.089843-38.054688l2.65625-19.296874-15.449219 11.855468c-4.6875 3.601563-10.121093 5.496094-15.726562 5.496094-14.304688 0-25.9375-11.640625-25.9375-25.945312 0-6.832032 2.769531-13.511719 7.59375-18.34375l56.40625-56.398438 48.222656 48.222656c-.039062 1.496094-.222656 2.960938-.222656 4.464844 0 14.625 2.222656 28.734375 6.296875 42.039062-9.050781 7.335938-22.25 7.90625-31.960937.464844l-15.449219-11.855468zm190.457031-161.539062v-16c17.472656 1.089844 33.976562 5.664062 48.871094 13.089844l-8.007813 13.878906c-12.519531-6.101562-26.296875-9.933594-40.863281-10.96875zm-16 0c-14.566406 1.042969-28.34375 4.875-40.855469 10.96875l-8.007812-13.878906c14.894531-7.433594 31.398437-12 48.871093-13.089844v16zm-62.769531 5.027344 8 13.855468c-11.773438 8-21.949219 18.167969-29.941407 29.941407l-13.855468-8c9.445312-14.167969 21.628906-26.351563 35.796875-35.796875zm-43.734375 49.695312 13.871094 8.015625c-6.09375 12.511719-9.925782 26.289063-10.96875 40.855469h-16c1.097656-17.472656 5.671874-33.976562 13.097656-48.871094zm-13.089844 64.871094h16c1.042969 14.566406 4.875 28.34375 10.96875 40.855469l-13.871094 8.007812c-7.433594-14.886719-12.007812-31.390625-13.097656-48.863281zm34.882812 54.761719c8 11.773437 18.167969 21.949219 29.941407 29.941406l-8 13.855469c-14.175781-9.4375-26.359375-21.621094-35.796875-35.796875zm43.855469 37.863281c12.511719 6.101562 26.289063 9.925781 40.855469 10.96875v16c-17.472656-1.089844-33.976562-5.664062-48.871094-13.089844zm56.855469 10.96875c14.566406-1.042969 28.34375-4.875 40.855469-10.96875l8.007812 13.878906c-14.894531 7.425782-31.398437 12-48.871093 13.089844v-16zm-8-15.59375c-52.9375 0-96-43.0625-96-96s43.0625-96 96-96 96 43.0625 96 96-43.0625 96-96 96zm111.59375-88h16c-1.089844 17.472656-5.664062 33.976562-13.089844 48.871094l-13.871094-8.015625c6.09375-12.511719 9.925782-26.289063 10.960938-40.855469zm0-16c-1.042969-14.566406-4.875-28.34375-10.96875-40.855469l13.871094-8.015625c7.425781 14.894532 12 31.398438 13.089844 48.871094zm-5.027344-62.769531-13.855468 8c-8-11.773438-18.167969-21.949219-29.941407-29.941407l8-13.855468c14.167969 9.445312 26.351563 21.628906 35.796875 35.796875zm-154.566406 302.769531c0 4.40625-3.585938 8-8 8h-272c-4.414062 0-8-3.59375-8-8v-448c0-4.40625 3.585938-8 8-8h272c4.414062 0 8 3.59375 8 8v80.398438c-48.214844 17.128906-84.625 59.152343-93.679688 110.609374l-50.320312-50.320312-67.71875 67.710938c-7.800781 7.808593-12.28125 18.617187-12.28125 29.65625 0 23.128906 18.816406 41.945312 41.9375 41.945312 3.328125 0 6.597656-.398438 9.789062-1.183594-2.527343 10.273438-6.167968 20.183594-10.878906 29.609375l-5.785156 11.574219h89.875l-5.785156-11.574219c-4.710938-9.425781-8.351563-19.335937-10.878906-29.609375 10.710937 2.640625 22.3125.558594 31.789062-5.304687 15.890625 36.3125 46.351562 64.734375 83.9375 78.089843zm118.769531-125.433594-8-13.855468c11.773438-8 21.949219-18.167969 29.941407-29.941407l13.855468 8c-9.445312 14.167969-21.628906 26.351563-35.796875 35.796875zm0 0"/><path d="m360 176.40625v-16.40625h-16v16.40625c-17.953125 2.019531-32 17.113281-32 35.59375 0 19.847656 16.152344 36 36 36h8c11.03125 0 20 8.976562 20 20s-8.96875 20-20 20h-8c-11.03125 0-20-8.976562-20-20v-4h-16v4c0 18.480469 14.046875 33.574219 32 35.59375v16.40625h16v-16.40625c17.953125-2.019531 32-17.113281 32-35.59375 0-19.847656-16.152344-36-36-36h-8c-11.03125 0-20-8.976562-20-20s8.96875-20 20-20h8c11.03125 0 20 8.976562 20 20v4h16v-4c0-18.480469-14.046875-33.574219-32-35.59375zm0 0"/><path d="m32 32h64v16h-64zm0 0"/><path d="m32 64h64v16h-64zm0 0"/><path d="m224 416h64v16h-64zm0 0"/><path d="m224 448h64v16h-64zm0 0"/></svg>