<svg height="496pt" viewBox="0 -132 496 496" width="496pt" xmlns="http://www.w3.org/2000/svg"><path d="m472.480469 99.238281-12.496094-3.566406c-29.769531-8.496094-61.527344-9.726563-91.984375-4.007813v-19.664062c0-39.703125-32.296875-72-72-72h-96c-39.703125 0-72 32.296875-72 72v47.0625l-60.183594-6.6875c-2.25-.246094-4.503906-.375-6.738281-.375l-7.421875-.015625c-.015625 0-.03125 0-.054688 0-14.304687 0-27.761718 5.566406-37.882812 15.679687-10.132812 10.128907-15.71875 23.59375-15.71875 37.921876v1.949218c0 27.617188 18.679688 51.050782 45.382812 56.96875l1.105469.25c21.582031 4.78125 43.734375 7.214844 66.167969 7.238282h.359375c26.585937 0 53.082031-3.503907 78.753906-10.425782l66.582031-17.917968c68.449219-18.441407 138.839844-32.242188 209.242188-41.046876 16.191406-2.007812 28.40625-15.839843 28.40625-32.167968 0-14.402344-9.671875-27.226563-23.519531-31.195313zm-275.511719-83.085937c37.3125 36.015625 86.230469 55.847656 138.222656 55.847656h.808594v-16h-.808594c-42.007812 0-81.808594-14.128906-114.136718-40h74.945312c30.871094 0 56 25.128906 56 56v23.390625c-12.398438 3.394531-24.488281 7.914063-36 13.664063l-27.511719 13.761718c-2.320312 1.160156-4.601562 2.398438-6.902343 3.582032-10.648438 1.042968-21.921876 1.601562-33.585938 1.601562-62.191406 0-94.328125-14.96875-104-20.441406v-35.558594c0-29.847656 23.503906-54.257812 52.96875-55.847656zm27.472656 143.3125c-42.554687-1.921875-69.769531-8.65625-80.441406-11.832032v-22.128906c16.433594 7.585938 49.472656 18.496094 104 18.496094.527344 0 1.023438-.03125 1.550781-.039062-8.488281 4.976562-16.855469 10.160156-25.109375 15.503906zm-111.761718 56.535156c-.121094 0-.230469 0-.351563 0-20.9375-.023438-41.921875-2.335938-62.34375-6.855469l-1.105469-.257812c-19.359375-4.285157-32.878906-21.292969-32.878906-41.351563v-1.949218c0-10.050782 3.910156-19.507813 11.023438-26.601563 7.113281-7.097656 16.542968-11 26.570312-11h.039062l7.429688.015625c1.65625 0 3.320312.097656 4.976562.28125l61.960938 6.878906v23.785156l5.144531 1.964844c1.113281.433594 24.496094 9.1875 69.558594 13.152344-17.457031 12.273438-34.359375 25.351562-50.582031 39.25-13 1.792969-26.167969 2.6875-39.441406 2.6875zm352.921874-69.265625c-71.136718 8.890625-142.265624 22.839844-211.417968 41.472656l-66.582032 17.921875c-.707031.183594-1.410156.375-2.113281.558594 34.296875-26.777344 71.230469-50.113281 110.152344-69.558594l27.511719-13.761718c25.34375-12.671876 53.710937-19.367188 82.03125-19.367188 17.0625 0 34.015625 2.375 50.402344 7.0625l12.492187 3.5625c7.027344 2.015625 11.921875 8.511719 11.921875 15.808594 0 8.269531-6.183594 15.277344-14.398438 16.300781zm0 0"/></svg>