<svg height="496pt" viewBox="-92 0 495 496" width="496pt" xmlns="http://www.w3.org/2000/svg"><path d="m167.914062 224c61.761719 0 112-50.238281 112-112s-50.238281-112-112-112c-61.757812 0-112 50.238281-112 112s50.242188 112 112 112zm0-208c52.9375 0 96 43.0625 96 96s-43.0625 96-96 96c-52.933593 0-96-43.0625-96-96s43.066407-96 96-96zm0 0"/><path d="m60.441406 15.835938 11.316406-11.3125 11.3125 11.3125-11.3125 11.316406zm0 0"/><path d="m31.808594 64.285156 6.125-14.78125 14.78125 6.125-6.125 14.777344zm0 0"/><path d="m283.101562 55.628906 14.777344-6.125 6.125 14.78125-14.777344 6.121094zm0 0"/><path d="m252.769531 15.839844 11.3125-11.316406 11.316407 11.316406-11.316407 11.3125zm0 0"/><path d="m295.914062 104v8c0 37.535156-16.46875 73.078125-45.175781 97.496094l-16.316406 13.871094 61.40625.632812.167969-16-20.664063-.207031c23.441407-26.25 36.582031-60.21875 36.582031-95.792969v-8zm0 0"/><path d="m39.828125 208 .167969 16 61.414062-.632812-16.316406-13.871094c-28.707031-24.417969-45.179688-59.960938-45.179688-97.496094v-8h-16v8c0 35.574219 13.144532 69.542969 36.578126 95.792969zm0 0"/><path d="m159.914062 175.59375v16.40625h16v-16.40625c17.953126-2.019531 32-17.113281 32-35.59375 0-19.847656-16.148437-36-36-36h-8c-11.03125 0-20-8.96875-20-20s8.96875-20 20-20h8c11.035157 0 20 8.96875 20 20v4h16v-4c0-18.480469-14.046874-33.574219-32-35.59375v-16.40625h-16v16.40625c-17.949218 2.019531-32 17.113281-32 35.59375 0 19.847656 16.152344 36 36 36h8c11.035157 0 20 8.96875 20 20s-8.964843 20-20 20h-8c-11.03125 0-20-8.96875-20-20v-4h-16v4c0 18.480469 14.050782 33.574219 32 35.59375zm0 0"/><path d="m269.765625 249.601562c-4.960937 3.710938-8.539063 6.398438-16.546875 6.398438s-11.589844-2.6875-16.550781-6.398438c-5.703125-4.28125-12.808594-9.601562-26.152344-9.601562-13.335937 0-20.429687 5.320312-26.136719 9.601562-4.957031 3.710938-8.535156 6.398438-16.535156 6.398438-7.984375 0-11.558594-2.679688-16.503906-6.398438-5.703125-4.273437-12.800782-9.601562-26.128906-9.601562-13.335938 0-20.429688 5.320312-26.136719 9.601562-4.941407 3.710938-8.519531 6.398438-16.511719 6.398438-8 0-11.574219-2.6875-16.519531-6.398438-5.703125-4.28125-12.800781-9.601562-26.128907-9.601562h-16v8c0 12.511719 5.976563 24.488281 16 32 .265626.191406.472657.441406.730469.640625-1.550781-.382813-3.128906-.640625-4.730469-.640625-11.03125 0-20 8.96875-20 20v24c0 11.03125 8.96875 20 20 20 2.339844 0 4.640626-.449219 6.832032-1.246094.808594 1.855469 1.714844 3.535156 2.507812 4.980469 2.671875 4.824219 3.222656 6.328125 2.15625 9.007813-1.148437 2.859374-3.054687 3.746093-8.214844 5.539062-5.832031 2.03125-13.832031 4.824219-17.800781 14.6875-4.03125 10.039062.195313 17.679688 2.992188 22.742188 2.664062 4.832031 3.226562 6.34375 2.152343 9.023437-1.160156 2.882813-3.070312 3.777344-8.238281 5.578125-5.832031 2.039062-13.832031 4.832031-17.800781 14.703125l14.839844 5.96875c1.160156-2.871094 3.070312-3.769531 8.230468-5.570313 1.1875-.414062 2.464844-.878906 3.769532-1.40625 4.265625 17.527344 12.398437 33.878907 24.03125 47.832032l16.792968 20.160156h199.503907l16.792969-20.152344c17.703124-21.246094 27.453124-48.183594 27.453124-75.847656s-9.75-54.601562-27.460937-75.839844l-11.367187-13.640625c4.636718-12.128906 12.382812-22.6875 22.828124-30.511719 10.027344-7.519531 16-19.496093 16-32.007812v-8h-16c-13.34375 0-20.445312 5.320312-26.148437 9.601562zm-184.523437 62.398438 20.257812-15.191406c2.480469-1.847656 6.414062.128906 6.414062 3.191406v24c0 3.0625-3.949218 5-6.40625 3.199219zm-53.328126 12v-24c0-2.199219 1.800782-4 4-4 .859376 0 1.722657.289062 2.410157.800781l20.265625 15.199219-20.257813 15.191406c-2.472656 1.847656-6.417969-.128906-6.417969-3.191406zm264 76c0 23.929688-8.4375 47.222656-23.757812 65.609375l-11.992188 14.390625h-184.496093l-12-14.398438c-12.03125-14.425781-19.769531-31.808593-22.550781-50.371093.078124-.191407.183593-.34375.261718-.535157 4.023438-10.023437-.191406-17.664062-2.992187-22.71875-2.664063-4.832031-3.222657-6.351562-2.152344-9.046874 1.152344-2.859376 3.058594-3.746094 8.21875-5.539063 5.832031-2.03125 13.832031-4.824219 17.800781-14.6875 3.972656-9.886719-.089844-17.445313-2.882812-22.503906 1.410156-1.953125 2.746094-3.933594 4.304687-5.808594l9.519531-11.429687 13.976563 10.480468c-.039063 1.597656-.808594 3.320313-2.59375 6.542969-2.796875 5.054687-7.03125 12.695313-3 22.710937 3.960937 9.871094 11.960937 12.664063 17.800781 14.695313 5.167969 1.800781 7.074219 2.679687 8.21875 5.546875 1.078125 2.6875.511719 4.199219-2.152344 9.039062-2.800781 5.054688-7.015624 12.695313-2.992187 22.726563 3.96875 9.871094 11.96875 12.671875 17.808594 14.710937 5.167969 1.808594 7.078125 2.699219 8.230469 5.570313l14.839843-5.96875c-3.96875-9.871094-11.960937-12.664063-17.800781-14.703125-5.167969-1.808594-7.085938-2.695312-8.238281-5.570312-1.082031-2.6875-.511719-4.199219 2.152343-9.03125 2.796876-5.0625 7.023438-12.703126 2.992188-22.734376-3.960938-9.871093-11.960938-12.664062-17.800781-14.695312-5.167969-1.800781-7.074219-2.679688-8.214844-5.546875-1.074219-2.671875-.515625-4.175781 2.15625-9 .800781-1.4375 1.707031-3.117187 2.507813-4.972656 2.191406.789062 4.492187 1.238281 6.828124 1.238281 11.035157 0 20-8.96875 20-20v-4h132.25l11.992188 14.398438c15.320312 18.378906 23.757812 41.671874 23.757812 65.601562zm-9.589843-132.800781c-12.640625 9.472656-22.054688 22.199219-27.808594 36.800781h-130.601563v-4c0-11.03125-8.964843-20-20-20-4.292968 0-8.550781 1.414062-12 4l-20.527343 15.398438c-5.871094-12.664063-14.582031-23.734376-25.871094-32.191407-3.808594-2.847656-6.640625-6.773437-8.199219-11.167969 7.03125.296876 10.472656 2.871094 15.121094 6.367188 5.703125 4.28125 12.796875 9.601562 26.132812 9.601562 13.328126 0 20.425782-5.320312 26.128907-9.601562 4.945312-3.710938 8.519531-6.398438 16.519531-6.398438 7.992188 0 11.570312 2.6875 16.511719 6.398438 5.707031 4.28125 12.800781 9.601562 26.121093 9.601562 13.335938 0 20.433594-5.320312 26.136719-9.601562 4.960938-3.710938 8.535157-6.398438 16.535157-6.398438 8.007812 0 11.59375 2.6875 16.550781 6.398438 5.707031 4.28125 12.808593 9.601562 26.152343 9.601562 13.335938 0 20.441407-5.320312 26.144532-9.59375 4.664062-3.503906 8.113281-6.078124 15.160156-6.375-1.574219 4.394532-4.414062 8.304688-8.207031 11.160157zm0 0"/></svg>