<svg height="491pt" viewBox="-125 0 491 491.312" width="491pt" xmlns="http://www.w3.org/2000/svg"><path d="m120.15625 256c44.113281 0 80-35.886719 80-80s-35.886719-80-80-80-80 35.886719-80 80 35.886719 80 80 80zm-8-80c0-4.414062 3.589844-8 8-8 4.40625 0 8 3.585938 8 8s-3.59375 8-8 8c-4.410156 0-8-3.585938-8-8zm0 22.527344v40.921875c-5.503906-.6875-10.792969-2.074219-15.777344-4.074219.90625-13.710938 5.777344-26.632812 14.105469-37.445312.535156.238281 1.113281.398437 1.671875.597656zm16 0c.558594-.199219 1.136719-.359375 1.671875-.597656 8.320313 10.8125 13.199219 23.726562 14.097656 37.445312-4.984375 2-10.273437 3.386719-15.777343 4.074219v-40.921875zm14.527344-14.527344h40.921875c-.691407 5.503906-2.074219 10.792969-4.074219 15.777344-13.710938-.90625-26.632812-5.785156-37.445312-14.097656.238281-.542969.398437-1.121094.597656-1.679688zm40.921875-16h-40.921875c-.199219-.558594-.359375-1.136719-.597656-1.679688 10.8125-8.320312 23.734374-13.191406 37.445312-14.097656 2 4.984375 3.375 10.273438 4.074219 15.777344zm-55.449219-14.527344v-40.921875c5.503906.6875 10.792969 2.074219 15.777344 4.074219-.90625 13.710938-5.777344 26.621094-14.105469 37.445312-.535156-.238281-1.113281-.398437-1.671875-.597656zm-16 0c-.558594.199219-1.136719.359375-1.671875.597656-8.320313-10.8125-13.199219-23.726562-14.097656-37.445312 4.984375-2 10.273437-3.386719 15.777343-4.074219v40.921875zm-14.527344 14.527344h-40.921875c.6875-5.503906 2.074219-10.792969 4.074219-15.777344 13.710938.90625 26.628906 5.785156 37.445312 14.097656-.230468.542969-.398437 1.121094-.597656 1.679688zm0 16c.199219.558594.359375 1.136719.597656 1.679688-10.816406 8.320312-23.734374 13.191406-37.445312 14.097656-2-4.984375-3.386719-10.273438-4.074219-15.777344zm-28.191406 30.878906c5.46875-.855468 10.796875-2.222656 15.941406-4.101562-1.878906 5.144531-3.246094 10.46875-4.101562 15.941406-4.449219-3.414062-8.425782-7.390625-11.839844-11.839844zm89.597656 11.839844c-.855468-5.472656-2.222656-10.796875-4.101562-15.941406 5.140625 1.878906 10.46875 3.246094 15.941406 4.101562-3.414062 4.449219-7.390625 8.425782-11.839844 11.839844zm11.839844-89.597656c-5.472656.855468-10.800781 2.222656-15.941406 4.101562 1.878906-5.144531 3.246094-10.46875 4.101562-15.941406 4.449219 3.414062 8.425782 7.390625 11.839844 11.839844zm-89.597656-11.839844c.855468 5.472656 2.222656 10.796875 4.101562 15.941406-5.144531-1.878906-10.472656-3.246094-15.941406-4.101562 3.414062-4.449219 7.390625-8.425782 11.839844-11.839844zm0 0"/><path d="m186.988281 305.855469c-6.886719 6.878906-10.832031 16.410156-10.832031 26.144531s3.945312 19.265625 10.832031 26.144531l21.167969 21.167969 21.167969-21.167969c6.886719-6.878906 10.832031-16.410156 10.832031-26.144531s-3.945312-19.265625-10.832031-26.144531l-13.167969-13.167969v-6.160156c9.289062-3.3125 16-12.113282 16-22.527344 0-12.03125-8.929688-21.929688-20.488281-23.648438 12.863281-18.222656 20.488281-40.398437 20.488281-64.351562 0-59.054688-45.976562-107.464844-104-111.59375v-64.40625h-16v64.40625c-58.023438 4.128906-104 52.539062-104 111.59375 0 23.953125 7.625 46.128906 20.488281 64.351562-11.558593 1.71875-20.488281 11.617188-20.488281 23.648438 0 10.414062 6.710938 19.214844 16 22.527344v6.160156l-13.167969 13.167969c-6.886719 6.878906-10.832031 16.410156-10.832031 26.144531s3.945312 19.265625 10.832031 26.144531l21.167969 21.167969 21.167969-21.167969c6.886719-6.878906 10.832031-16.410156 10.832031-26.144531s-3.945312-19.265625-10.832031-26.144531l-13.167969-13.167969v-6.160156c8.214844-2.925782 14.328125-10.160156 15.648438-19.007813 12.582031 8.878907 27.039062 15.257813 42.6875 18.335938-1.464844 3.089843-2.335938 6.503906-2.335938 10.144531 0 4.632812 1.375 8.921875 3.65625 12.585938-16.3125 7.679687-27.65625 24.222656-27.65625 43.414062 0 5.734375 1.0625 11.207031 2.910156 16.3125-4.207031.984375-8.207031 3.039062-11.476562 6.3125-5.570313 5.566406-7.746094 13.207031-6.691406 20.453125-9.222657.425781-17.863282 4.089844-24.421876 10.664063-6.984374 6.976562-10.832031 16.257812-10.832031 26.144531v18.625h18.625c9.886719 0 19.167969-3.839844 26.140625-10.832031 6.472656-6.464844 10.226563-15.304688 10.664063-24.421876 1.160156.167969 2.320312.335938 3.488281.335938 5.648438 0 11.25-2.074219 15.753906-6.027344.472656 7.226563 4.105469 13.554688 9.574219 17.632813-6.144531 6.746093-9.734375 15.640625-9.734375 24.800781 0 9.734375 3.945312 19.265625 10.832031 26.144531l13.167969 13.167969 13.167969-13.167969c6.886719-6.878906 10.832031-16.410156 10.832031-26.144531 0-9.160156-3.59375-18.054688-9.734375-24.808594 5.46875-4.078125 9.101563-10.40625 9.574219-17.632812 4.511718 3.953125 10.105468 6.027344 15.75 6.027344 1.167968 0 2.328125-.171876 3.488281-.339844.441406 9.128906 4.1875 17.960937 10.65625 24.425781 6.976563 6.984375 16.257813 10.832031 26.144531 10.832031h18.625v-18.625c0-9.878906-3.847656-19.167968-10.824218-26.144531-6.566407-6.574219-15.207032-10.238281-24.433594-10.664063 1.058594-7.246093-1.117188-14.886718-6.6875-20.453124-3.269532-3.273438-7.277344-5.328126-11.480469-6.3125 1.859375-5.097657 2.921875-10.570313 2.921875-16.304688 0-19.191406-11.34375-35.734375-27.65625-43.414062 2.28125-3.664063 3.65625-7.953126 3.65625-12.585938 0-3.640625-.871094-7.054688-2.328125-10.144531 15.648437-3.078125 30.097656-9.464844 42.6875-18.335938 1.3125 8.847657 7.425781 16.082031 15.648437 19.007813v6.160156zm13.167969 42.832031-1.855469-1.855469c-3.90625-3.902343-6.144531-9.3125-6.144531-14.832031s2.238281-10.929688 6.144531-14.832031l1.855469-1.855469zm-176 0-1.855469-1.855469c-3.90625-3.902343-6.144531-9.3125-6.144531-14.832031s2.238281-10.929688 6.144531-14.832031l1.855469-1.855469zm37.085938 64.847656c0 5.519532-2.238282 10.921875-6.148438 14.832032-3.953125 3.960937-9.21875 6.144531-14.824219 6.144531h-2.625v-2.625c0-5.597657 2.175781-10.863281 6.144531-14.832031 3.949219-3.957032 9.214844-6.144532 14.824219-6.144532h2.628907zm18.914062-13.535156c-4.417969 0-8-3.585938-8-8s3.582031-8 8-8c4.414062 0 8 3.585938 8 8s-3.585938 8-8 8zm98.910156 10.910156h2.632813c5.609375 0 10.871093 2.179688 14.832031 6.144532 3.960938 3.960937 6.144531 9.226562 6.144531 14.832031v2.625h-2.625c-5.605469 0-10.871093-2.175781-14.832031-6.144531-3.902344-3.902344-6.144531-9.304688-6.144531-14.832032v-2.625zm-18.910156-26.910156c4.414062 0 8 3.585938 8 8s-3.585938 8-8 8c-4.417969 0-8-3.585938-8-8s3.582031-8 8-8zm57.855469-66.832031c3.902343 3.902343 6.144531 9.3125 6.144531 14.832031s-2.242188 10.929688-6.144531 14.832031l-1.855469 1.855469v-33.375zm-1.855469-53.167969c0 4.414062-3.59375 8-8 8-4.410156 0-8-3.585938-8-8s3.589844-8 8-8c4.40625 0 8 3.585938 8 8zm-174.144531 53.167969c3.902343 3.902343 6.144531 9.3125 6.144531 14.832031s-2.242188 10.929688-6.144531 14.832031l-1.855469 1.855469v-33.375zm-9.855469-45.167969c-4.410156 0-8-3.585938-8-8s3.589844-8 8-8c4.40625 0 8 3.585938 8 8s-3.59375 8-8 8zm80 49.136719v22.863281h-22.863281c2.910156-11.191406 11.671875-19.953125 22.863281-22.863281zm-22.863281 38.863281h22.863281v22.863281c-11.191406-2.910156-19.953125-11.671875-22.863281-22.863281zm32.71875 106.832031-1.855469 1.855469-1.855469-1.855469c-3.90625-3.902343-6.144531-9.3125-6.144531-14.832031s2.238281-10.929688 6.144531-14.832031l1.855469-1.855469 1.855469 1.855469c3.902343 3.902343 6.144531 9.3125 6.144531 14.832031s-2.242188 10.929688-6.144531 14.832031zm-1.855469-50.832031c-4.417969 0-8-3.585938-8-8s3.582031-8 8-8c4.414062 0 8 3.585938 8 8s-3.585938 8-8 8zm-8-120c0-4.414062 3.589844-8 8-8 4.40625 0 8 3.585938 8 8s-3.59375 8-8 8c-4.410156 0-8-3.585938-8-8zm16 86.863281v-22.863281h22.863281c-2.910156 11.191406-11.671875 19.953125-22.863281 22.863281zm22.863281-38.863281h-22.863281v-22.863281c11.191406 2.910156 19.953125 11.671875 22.863281 22.863281zm-30.863281-72c-52.9375 0-96-43.0625-96-96s43.0625-96 96-96 96 43.0625 96 96-43.0625 96-96 96zm0 0"/></svg>