<svg height="496pt" viewBox="0 0 496.808 496" width="496pt" xmlns="http://www.w3.org/2000/svg"><path d="m96 312.402344h16v16h-16zm0 0"/><path d="m136 304.402344h16v16h-16zm0 0"/><path d="m168 304.402344h16v16h-16zm0 0"/><path d="m208 312.402344h16v16h-16zm0 0"/><path d="m496.808594 90.003906-32.039063-6.40625 8.253907-57.800781-63.34375-10.554687-4.648438 23.226562-29.03125-4.839844v-33.226562h-64v42.585937l-30.488281 12.191407-3.238281-16.191407-55.511719 11.105469 4.085937 23.183594-44.433594 8.886718 33.3125 149.902344-8.40625 2.800782 4.304688 38.234374c-3.816406-.433593-7.6875-.699218-11.625-.699218h-80c-57.34375 0-104 46.65625-104 104h.246094c-9.796875 7.296875-16.246094 18.875-16.246094 32 0 13.128906 6.449219 24.707031 16.246094 32h-.246094v16c0 22.058594 17.945312 40 40 40h415.265625l25.320313-261.566406-16.179688-5.390626zm-30.082032 118.71875c-5.167968-11.480468-13.941406-21.808594-25.605468-30.382812l13.414062-80.472656 24.664063 4.929687zm-44.398437-175.152344 32.65625 5.449219-5.921875 41.441407-7.582031-1.519532-15.046875 90.285156c-5.441406-2.832031-11.296875-5.320312-17.457032-7.496093l15.992188-119.941407-4.136719-.6875zm-15.28125 21.449219-13.621094 102.191407c-5.625-1.34375-11.417969-2.472657-17.425781-3.253907v-104.113281zm-47.046875-38.617187v136.25c-2.65625-.113282-5.296875-.25-8-.25-8.246094 0-16.265625.546875-24 1.554687v-137.554687zm-48 43.816406v96.664062c-3.289062.753907-6.496094 1.59375-9.640625 2.519532l-17.65625-88.261719zm-46.28125-2.398438 21.386719 106.917969c-9.457031 3.984375-17.96875 8.832031-25.328125 14.394531l-20.539063-116.417968zm-64.132812 36.824219 28.054687-5.609375 18.207031 103.175782c-8.710937 10.175781-14.230468 21.792968-15.535156 34.328124l-1.320312.441407zm-81.585938 193.757813h80c46.078125 0 83.9375 35.625 87.632812 80.769531-2.472656-.480469-5.015624-.769531-7.632812-.769531h-240c-2.617188 0-5.160156.289062-7.632812.769531 3.695312-45.144531 41.554687-80.769531 87.632812-80.769531zm183.753906 88h.246094c0-26.535156-10.070312-50.703125-26.488281-69.09375 11.929687-30.617188 41.289062-50.90625 74.488281-50.90625 44.113281 0 80 35.890625 80 80 0 44.113281-35.886719 80-80 80-11.246094 0-22-2.390625-32.113281-6.855469.007812-.390625.113281-.75.113281-1.144531 0-13.125-6.449219-24.703125-16.246094-32zm-113.226562 8c-3.3125 9.289062-12.113282 16-22.527344 16-4.128906 0-8.160156-1.125-11.976562-3.351563l-4.023438-2.34375-4.023438 2.34375c-7.632812 4.457031-16.3125 4.457031-23.945312 0l-4.03125-2.34375-4.023438 2.34375c-7.632812 4.457031-16.3125 4.457031-23.945312 0l-4.03125-2.34375-4.023438 2.34375c-3.816406 2.226563-7.847656 3.351563-11.976562 3.351563-10.414062 0-19.214844-6.710938-22.527344-16zm-157.382813 1.121094c4.152344 17.65625 19.953125 30.878906 38.855469 30.878906 5.519531 0 10.886719-1.160156 16-3.453125 10.222656 4.589843 21.777344 4.589843 32 0 10.222656 4.589843 21.777344 4.589843 32 0 5.113281 2.292969 10.480469 3.453125 16 3.453125 19.3125 0 35.472656-13.765625 39.191406-32h72.808594c13.230469 0 24 10.769531 24 24 0 13.234375-10.769531 24-24 24h-240c-13.230469 0-24-10.765625-24-24 0-10.839844 7.265625-19.910156 17.144531-22.878906zm22.855469 94.878906c-13.230469 0-24-10.765625-24-24v-8.804688c2.585938.527344 5.265625.804688 8 .804688h240c2.734375 0 5.414062-.277344 8-.804688v8.804688c0 13.234375-10.769531 24-24 24zm400.734375 0h-160.941406c5.078125-6.703125 8.207031-14.957032 8.207031-24v-16h-.246094c5.261719-3.917969 9.519532-9.070313 12.351563-15.0625 11.375 4.609375 23.390625 7.0625 35.894531 7.0625 52.9375 0 96-43.0625 96-96 0-52.933594-43.0625-96-96-96-37.625 0-71.128906 21.738281-86.800781 55.097656-10.800781-8.71875-23.390625-15.273438-37.101563-19.128906l-3.417968-30.421875 23.320312-7.777344v-5.769531c0-35.886719 45.679688-64 104-64s104 28.113281 104 64v5.769531l23.425781 7.808594zm0 0"/></svg>