<svg height="498pt" viewBox="-41 0 498 498.624" width="498pt" xmlns="http://www.w3.org/2000/svg"><path d="m160.3125 354.625h16v16h-16zm0 0"/><path d="m240.3125 354.625h16v16h-16zm0 0"/><path d="m344.3125 370.625c0-14.871094-10.234375-27.289062-24-30.863281v-41.609375c35.945312-3.992188 64-34.527344 64-71.527344 0-27.511719-7.066406-54.785156-20.496094-78.976562l-51.503906-89-34.273438 59.238281c-6.679687-42.328125-27.960937-81.351563-60.664062-109.964844l-9.0625-7.921875-9.066406 7.921875c-32.703125 28.613281-53.980469 67.636719-60.660156 109.964844l-34.273438-59.238281-51.570312 89.128906c-13.367188 24.0625-20.429688 51.335937-20.429688 78.847656 0 37 28.054688 67.535156 64 71.527344v41.609375c-13.769531 3.574219-24 15.992187-24 30.863281h-72v128h416v-128zm-16 0c0 8.824219-7.175781 16-16 16s-16-7.175781-16-16 7.175781-16 16-16 16 7.175781 16 16zm-204.703125-25.359375c-3.328125-2.539063-7.136719-4.425781-11.296875-5.503906v-41.625c26.335938-2.9375 48.695312-20.160157 58.542969-44.167969 8.167969 11.398438 17.640625 21.960938 28.390625 31.359375l1.066406.929687v40.6875c-8.503906-7.632812-19.695312-12.320312-32-12.320312-20.34375 0-37.726562 12.734375-44.703125 30.640625zm122.160156-91.296875c9.855469 24.007812 32.207031 41.230469 58.542969 44.167969v41.625c-4.167969 1.078125-7.96875 2.964843-11.296875 5.503906-6.976563-17.90625-24.359375-30.640625-44.703125-30.640625-12.304688 0-23.496094 4.6875-32 12.320312v-40.6875l1.0625-.929687c10.746094-9.40625 20.21875-19.960937 28.394531-31.359375zm-77.457031 76.65625c17.648438 0 32 14.351562 32 32s-14.351562 32-32 32-32-14.351562-32-32 14.351562-32 32-32zm80 0c17.648438 0 32 14.351562 32 32s-14.351562 32-32 32-32-14.351562-32-32 14.351562-32 32-32zm64-240.023438 37.582031 64.933594c12.050781 21.703125 18.417969 46.28125 18.417969 71.089844 0 28.152344-20.914062 51.453125-48 55.359375v-37.472656l5.039062-10.070313c6.335938-12.664062 14.617188-24.167968 24.617188-34.167968l-11.3125-11.3125c-6.894531 6.894531-12.96875 14.488281-18.34375 22.566406v-40.902344h-16v40.910156c-5.375-8.070312-11.449219-15.671875-18.34375-22.566406l-11.3125 11.3125c10 10 18.28125 21.503906 24.617188 34.167969l5.039062 10.0625v37.480469c-23.832031-3.441407-43.097656-21.96875-47.128906-46.105469 14.96875-27.03125 23.128906-57.679688 23.128906-89.261719 0-.234375-.015625-.457031-.015625-.6875zm-104-69.335937c35.617188 31.902344 56 77.476563 56 125.359375 0 44.160156-17.367188 86.320312-48 117.640625v-50.328125l29.65625-29.65625-11.3125-11.3125-18.34375 18.34375v-41.375l29.65625-29.65625-11.3125-11.3125-18.34375 18.34375v-52.6875h-16v52.6875l-18.34375-18.34375-11.3125 11.3125 29.65625 29.65625v41.375l-18.34375-18.34375-11.3125 11.3125 29.65625 29.65625v50.328125c-30.632812-31.320313-48-73.480469-48-117.640625 0-47.882812 20.382812-93.457031 56-125.359375zm-160 205.359375c0-24.808594 6.367188-49.386719 18.34375-70.960938l37.65625-65.0625 32.015625 55.335938c0 .230469-.015625.453125-.015625.6875 0 31.582031 8.160156 62.222656 23.128906 89.261719-4.035156 24.144531-23.304687 42.664062-47.128906 46.105469v-37.480469l5.039062-10.070313c6.335938-12.664062 14.617188-24.167968 24.617188-34.167968l-11.3125-11.3125c-6.894531 6.894531-12.96875 14.488281-18.34375 22.566406v-40.902344h-16v40.910156c-5.375-8.070312-11.449219-15.671875-18.34375-22.566406l-11.3125 11.3125c10 10 18.28125 21.503906 24.617188 34.167969l5.039062 10.0625v37.472656c-27.089844-3.90625-48-27.207031-48-55.359375zm56 128c8.824219 0 16 7.175781 16 16s-7.175781 16-16 16-16-7.175781-16-16 7.175781-16 16-16zm-27.550781 32c5.550781 9.519531 15.757812 16 27.550781 16 10.136719 0 19.078125-4.824219 24.945312-12.199219 8.710938 12.199219 22.949219 20.199219 39.054688 20.199219 16.6875 0 31.390625-8.570312 40-21.519531 8.609375 12.957031 23.3125 21.519531 40 21.519531 16.101562 0 30.34375-8 39.054688-20.199219 5.863281 7.375 14.808593 12.199219 24.945312 12.199219 11.792969 0 22-6.480469 27.550781-16h60.449219v48h-384v-48zm281.503906 96c-7.152344 0-11.539063-7.449219-17.929687-19.703125-2.078126-4-4.375-8.28125-7.023438-12.296875h49.917969c-2.65625 4.023438-4.941407 8.304688-7.03125 12.304688-6.390625 12.246093-10.785157 19.695312-17.933594 19.695312zm-317.867187-19.6875c-2.078126-4.007812-4.375-8.289062-7.023438-12.3125h49.839844c-2.648438 4.023438-4.941406 8.304688-7.023438 12.304688-6.382812 12.253906-10.777344 19.695312-17.902344 19.695312-7.128906 0-11.503906-7.441406-17.890624-19.6875zm49.976562 7.382812c6.386719-12.257812 10.769531-19.695312 17.898438-19.695312 7.125 0 11.511718 7.4375 17.894531 19.695312 2.078125 4 4.375 8.28125 7.023437 12.304688h-49.839844c2.648438-4.023438 4.9375-8.304688 7.023438-12.304688zm49.984375-7.382812c-2.078125-4.007812-4.375-8.289062-7.023437-12.3125h49.847656c-2.648438 4.023438-4.945313 8.304688-7.023438 12.304688-6.382812 12.253906-10.777344 19.695312-17.914062 19.695312-7.117188 0-11.503906-7.441406-17.886719-19.6875zm49.984375 7.382812c6.382812-12.257812 10.777344-19.695312 17.902344-19.695312 7.121094 0 11.507812 7.4375 17.882812 19.6875 2.078125 4.007812 4.375 8.289062 7.023438 12.3125h-49.839844c2.65625-4.023438 4.953125-8.304688 7.03125-12.304688zm49.976562-7.390624c-2.082031-4-4.375-8.28125-7.023437-12.304688h49.855469c-2.648438 4.023438-4.945313 8.304688-7.03125 12.304688-6.378906 12.253906-10.777344 19.695312-17.914063 19.695312-7.117187 0-11.503906-7.441406-17.886719-19.695312zm49.992188 7.390624c6.382812-12.257812 10.785156-19.695312 17.910156-19.695312 7.144532 0 11.53125 7.4375 17.921875 19.695312 2.085938 4 4.375 8.28125 7.03125 12.304688h-49.894531c2.65625-4.023438 4.941406-8.304688 7.03125-12.304688zm-274-15.753906c3.230469 3.371094 6.246094 8.738282 9.894531 15.753906 2.082031 4 4.378907 8.28125 7.023438 12.304688h-16.917969zm367.039062 28.058594c2.65625-4.023438 4.945313-8.304688 7.03125-12.304688 3.664063-7.023437 6.679688-12.398437 9.929688-15.769531v28.074219zm0 0"/></svg>