<svg height="496pt" viewBox="0 0 496 496" width="496pt" xmlns="http://www.w3.org/2000/svg"><path d="m496 352v-206.246094l-13.566406-3.394531c-54.496094-13.625-103.511719-45.328125-138.433594-89.289063v-53.070312h-48v56h-96v-56h-48v53.070312c-34.921875 43.960938-83.9375 75.664063-138.433594 89.28125l-13.566406 3.402344v206.246094h152v48h-16v32h-20.351562l-20.808594 32.183594c-11.984375.855468-18.800782 5.191406-24.847656 9.097656-5.824219 3.75-10.417969 6.71875-20.449219 6.71875-10.023438 0-14.613281-2.96875-20.429688-6.71875-6.738281-4.351562-14.371093-9.28125-29.113281-9.28125v16c10.023438 0 14.625 2.96875 20.433594 6.71875 6.734375 4.351562 14.367187 9.28125 29.109375 9.28125 14.753906 0 22.386719-4.929688 29.128906-9.28125 5.816406-3.757812 10.40625-6.71875 20.449219-6.71875 10.039062 0 14.640625 2.96875 20.464844 6.71875 6.734374 4.34375 14.375 9.28125 29.132812 9.28125 14.761719 0 22.394531-4.929688 29.128906-9.28125 5.824219-3.757812 10.417969-6.71875 20.464844-6.71875 10.039062 0 14.640625 2.96875 20.457031 6.71875 6.742188 4.34375 14.375 9.28125 29.132813 9.28125 14.761718 0 22.402344-4.929688 29.144531-9.28125 5.824219-3.757812 10.425781-6.71875 20.464844-6.71875 10.03125 0 14.632812 2.96875 20.449219 6.71875 6.71875 4.351562 14.359374 9.28125 29.109374 9.28125 14.761719 0 22.402344-4.929688 29.144532-9.28125 5.824218-3.75 10.425781-6.71875 20.480468-6.71875 10.058594 0 14.664063 2.96875 20.496094 6.726562 6.746094 4.34375 14.382813 9.273438 29.152344 9.273438s22.417969-4.929688 29.160156-9.273438c5.832032-3.757812 10.441406-6.726562 20.496094-6.726562v-16c-14.769531 0-22.414062 4.929688-29.160156 9.273438-5.832032 3.757812-10.441406 6.726562-20.496094 6.726562s-14.664062-2.96875-20.488281-6.71875c-6.023438-3.882812-12.800781-8.203125-24.6875-9.089844l-20.816407-32.191406h-20.351562v-32h-16v-48zm-152-16v-16h136v16zm72-32v-170.351562c7.800781 4.183593 15.824219 7.960937 24 11.375v158.976562zm-16 0h-24v-196.585938c7.6875 6.058594 15.710938 11.683594 24 16.882813zm80-145.753906v145.753906h-24v-152.832031c7.40625 2.558593 14.929688 4.808593 22.550781 6.71875zm-120-64.429688v210.183594h-16v-226.191406c5.113281 5.566406 10.457031 10.902344 16 16.007812zm-80 306.183594v32h-64v-32h-16v-48h96v48zm16-248h-96v-48h96zm0 16v16h-96v-16zm0 32v104h-96v-104zm0 120v16h-96v-16zm0-248v16h-96v-16zm-144 5.808594v226.191406h-16v-210.183594c5.542969-5.105468 10.886719-10.441406 16-16.007812zm-96 226.191406v-158.976562c8.175781-3.414063 16.199219-7.183594 24-11.375v170.351562zm40-179.695312c8.289062-5.199219 16.3125-10.824219 24-16.878907v196.574219h-24zm-78.550781 33.574218c7.621093-1.902344 15.144531-4.160156 22.550781-6.71875v152.839844h-24v-145.753906zm-1.449219 178.121094v-16h136v16zm152-320h16v384h-16zm-16 400h48v16h-48zm231.097656 49.710938c-6.609375 1.816406-11.273437 4.808593-15.554687 7.570312-5.824219 3.75-10.421875 6.71875-20.472657 6.71875-10.03125 0-14.628906-2.96875-20.445312-6.71875-6.746094-4.351562-14.378906-9.28125-29.128906-9.28125-14.761719 0-22.398438 4.929688-29.136719 9.28125-5.832031 3.75-10.421875 6.71875-20.472656 6.71875-10.039063 0-14.640625-2.96875-20.460938-6.71875-6.738281-4.351562-14.378906-9.28125-29.128906-9.28125-14.761719 0-22.394531 4.929688-29.136719 9.28125-5.816406 3.757812-10.417968 6.71875-20.457031 6.71875s-14.640625-2.96875-20.464844-6.71875c-4.246093-2.738281-8.855469-5.707031-15.367187-7.527344l11.480468-17.753906h247.289063zm-87.097656-33.710938v-16h48v16zm16-32v-384h16v384zm0 0"/></svg>