<svg height="497pt" viewBox="0 0 497.584 497" width="497pt" xmlns="http://www.w3.org/2000/svg"><path d="m353.585938 104.292969h112c17.644531 0 32-14.351563 32-32 0-15.175781-10.617188-27.914063-24.816407-31.183594-3.273437-14.203125-16.015625-24.816406-31.183593-24.816406-3.683594 0-7.257813.6875-10.664063 1.894531-8.808594-10.894531-22.265625-17.894531-37.335937-17.894531-24.074219 0-44 17.824219-47.425782 40.960937-14.0625 3.367188-24.574218 15.957032-24.574218 31.039063 0 17.648437 14.351562 32 32 32zm0-48c8.820312 0 16 7.175781 16 16h16c0-14.609375-9.890626-26.816407-23.289063-30.640625 3.070313-14.464844 15.917969-25.359375 31.289063-25.359375 17.644531 0 32 14.351562 32 32h16c0-5.472657-.960938-10.703125-2.65625-15.609375.886718-.144532 1.742187-.390625 2.65625-.390625 8.820312 0 16 7.175781 16 16v8h8c8.820312 0 16 7.175781 16 16s-7.179688 16-16 16h-112c-8.824219 0-16-7.175781-16-16s7.175781-16 16-16zm0 0"/><path d="m33.585938 152.292969h112c17.644531 0 32-14.351563 32-32 0-15.082031-10.515626-27.671875-24.578126-31.039063-3.421874-23.136718-23.351562-40.960937-47.421874-40.960937-15.074219 0-28.53125 7-37.339844 17.894531-3.40625-1.207031-6.980469-1.894531-10.660156-1.894531-15.171876 0-27.914063 10.613281-31.1875 24.816406-14.199219 3.269531-24.8125 16.007813-24.8125 31.183594 0 17.648437 14.351562 32 32 32zm0-48h8v-8c0-8.824219 7.175781-16 16-16 .910156 0 1.765624.246093 2.652343.390625-1.695312 4.90625-2.652343 10.136718-2.652343 15.609375h16c0-17.648438 14.351562-32 32-32 15.367187 0 28.214843 10.894531 31.285156 25.359375-13.398438 3.824218-23.285156 16.03125-23.285156 30.640625h16c0-8.824219 7.175781-16 16-16 8.820312 0 16 7.175781 16 16s-7.179688 16-16 16h-112c-8.824219 0-16-7.175781-16-16s7.175781-16 16-16zm0 0"/><path d="m425.585938 392.644531v-29.390625c6.949218-8.144531 14.476562-14.875 22.382812-19.976562 16.039062-10.371094 25.617188-27.9375 25.617188-46.984375 0-16.945313-7.546876-32.792969-20.707032-43.480469s-30.382812-14.800781-47.285156-11.265625c-.746094.152344-1.441406.449219-2.179688.632813l-29.085937-98.917969c-3.984375-13.523438-16.609375-22.96875-30.703125-22.96875h-125.410156c-13.261719 0-25.304688 8.34375-29.96875 20.765625l-19.214844 51.234375h-52.527344c-14.855468 0-27.65625 10.085937-31.121094 24.527343l-42.109374 175.472657h-4.335938c-11.609375 0-21.539062 8.285156-23.609375 19.703125l-15.328125 84.296875h497.585938v-18.519531l-50.28125-71.824219c-5.113282-7.3125-13.023438-12.074219-21.71875-13.304688zm-143.171876-104.664062c3.042969-15.242188 15.273438-27.609375 30.457032-30.777344 2.863281-.597656 5.761718-.894531 8.609375-.894531 9.222656 0 18.136719 3.085937 25.3125 8.917968 9.398437 7.640626 14.792969 18.960938 14.792969 31.066407 0 13.597656-6.84375 26.144531-18.304688 33.550781-4.714844 3.046875-9.28125 6.625-13.695312 10.585938v-23.1875l27.574218-13.789063-7.160156-14.3125-20.414062 10.207031v-19.054687h-16v60.472656c-5.339844-4.65625-10.683594-8.699219-15.289063-12-12.953125-9.289063-19.039063-24.914063-15.882813-40.785156zm47.171876 75.273437c6.949218-8.144531 14.476562-14.875 22.382812-19.976562 7.34375-4.753906 13.253906-11.058594 17.589844-18.28125 3.867187 6.425781 9.007812 12.167968 15.425781 16.769531 7.945313 5.6875 17.046875 12.695313 24.601563 21.488281v29.039063h-80zm87.886718-106.945312c9.222656 0 18.136719 3.085937 25.3125 8.917968 9.40625 7.640626 14.800782 18.960938 14.800782 31.066407 0 13.597656-6.84375 26.144531-18.304688 33.550781-4.714844 3.046875-9.28125 6.625-13.695312 10.585938v-23.1875l27.574218-13.789063-7.160156-14.3125-20.414062 10.207031v-19.054687h-16v60.472656c-5.339844-4.65625-10.683594-8.699219-15.289063-12-12.953125-9.289063-19.039063-24.914063-15.882813-40.777344 3.042969-15.242187 15.273438-27.609375 30.457032-30.777343 2.863281-.597657 5.753906-.902344 8.601562-.902344zm-214.242187-109.632813c2.328125-6.214843 8.355469-10.382812 14.984375-10.382812h125.410156c7.046875 0 13.367188 4.71875 15.359375 11.488281l29.601563 100.640625c-7.769532 4.71875-14.296876 11.292969-18.984376 19.085937-3.3125-5.519531-7.570312-10.511718-12.722656-14.695312-13.160156-10.6875-30.390625-14.800781-47.285156-11.265625-4.210938.882813-8.195312 2.394531-12.007812 4.199219v-13.453125h-16v24.726562c-7.425782 7.570313-12.746094 17.199219-14.859376 27.839844-4.40625 22.105469 4.121094 43.914063 22.257813 56.914063 7.945313 5.6875 17.046875 12.695312 24.601563 21.488281v29.03125h-32v-5.898438c0-14.214843-9.546876-26.863281-23.210938-30.765625l-24.789062-7.089844v-44.246093h-16v41.128906c-3.226563.054687-6.449219.589844-9.578126 1.621094l-48.535156 16.183593c-13.089844 4.371094-21.886718 16.570313-21.886718 30.363282v50.078125c0 2.039062-.386719 4.039062-1.152344 5.945312l-12.265625 30.679688h-56.527344l18.878906-81.808594c.839844-3.648437 4.039063-6.191406 7.792969-6.191406h16.824219zm-102.277344 73.878907c1.726563-7.222657 8.125-12.261719 15.550781-12.261719h46.527344l-63 168h-5.726562c-10.3125 0-19.191407 6.480469-22.542969 16h-12.027344zm-69.890625 194.304687c.691406-3.808594 4.007812-6.566406 7.875-6.566406h28.894531l-16.617187 72h-32.046875zm110.335938 65.433594 9.898437-24.738281c1.511719-3.808594 2.289063-7.796876 2.289063-11.886719v-50.078125c0-6.898438 4.398437-13 10.941406-15.179688l48.527344-16.183594c3.089843-1.015624 6.351562-1.085937 9.472656-.207031l31.457031 8.992188c6.832031 1.953125 11.601563 8.28125 11.601563 15.382812v5.898438h-16v16h171.503906c5.207031 0 10.109375 2.550781 13.101562 6.824219l45.625 65.175781zm0 0"/><path d="m329.585938 152.292969h16v16h-16zm0 0"/><path d="m297.585938 184.292969h16v16h-16zm0 0"/><path d="m225.585938 168.292969h16v16h-16zm0 0"/><path d="m201.585938 232.292969h16v16h-16zm0 0"/><path d="m241.585938 216.292969h16v16h-16zm0 0"/></svg>