<svg height="496pt" viewBox="0 0 496 496" width="496pt" xmlns="http://www.w3.org/2000/svg"><path d="m0 480h16v16h-16zm0 0"/><path d="m480 480h16v16h-16zm0 0"/><path d="m424 416h-16v-96h-48v-176h-32v-32h-32v-32h-24v-32h-16v-48h-16v48h-16v32h-24v32h-32v32h-32v176h-48v96h-16v64h-40v16h432v-16h-40zm-112-80h16v80h-16zm48 48h-16v-16h16zm-16 32v-16h16v16zm16-64h-16v-16h16zm-128 16h32v16h-32zm32-16h-32v-16h32zm-32 48h32v16h-32zm64 16h-16v-112h16zm-32-112v16h-32v-16zm-48 112h-16v-112h16zm-32 0h-16v-80h16zm-48-48h16v16h-16zm16-16h-16v-16h16zm-16 48h16v16h-16zm64 32v48h-48v-48zm16 0h64v48h-64zm80 0h48v48h-48zm64 0h48v48h-48zm32-16h-16v-80h16zm-48-256v160h-32v-32h-40v-128zm-32-16h-24v-16h24zm-72-80h16v16h-16zm-24 32h64v16h-8v32h-16v144h-16v-144h-16v-32h-8zm-32 32h24v16h-24zm-32 32h72v128h-40v32h-32zm-48 176h16v80h-16zm-16 96h48v48h-48zm0 0"/><path d="m240 448h16v16h-16zm0 0"/><path d="m312 448h16v16h-16zm0 0"/><path d="m376 448h16v16h-16zm0 0"/><path d="m104 448h16v16h-16zm0 0"/><path d="m168 448h16v16h-16zm0 0"/><path d="m296 176h16v16h-16zm0 0"/><path d="m296 208h16v16h-16zm0 0"/><path d="m296 240h16v16h-16zm0 0"/><path d="m184 176h16v16h-16zm0 0"/><path d="m184 208h16v16h-16zm0 0"/><path d="m184 240h16v16h-16zm0 0"/></svg>