<svg height="496pt" viewBox="0 0 496 496" width="496pt" xmlns="http://www.w3.org/2000/svg"><path d="m232 448h16v16h-16zm0 0"/><path d="m264 448h16v16h-16zm0 0"/><path d="m296 448h16v16h-16zm0 0"/><path d="m472 128v-32h-16v-32h-16v-32h-16v-32h-64v32h-16v32h-16v32h-16v32h-24v65.359375c-5.230469-.808594-10.542969-1.359375-16-1.359375-44.648438 0-82.703125 28.335938-97.414062 67.929688-.808594-6.1875-1.507813-12.394532-2.066407-18.625l-3.757812-41.304688h15.238281v-48h-16v-64h-16v-32h-16v-56h-16v56h-16v32h-16v64h-16v48h15.238281l-3.75 41.304688c-2.167969 23.808593-6.25 47.535156-11.984375 70.695312h-31.503906v56h13.9375c-13.496094 35.105469-31.105469 68.519531-52.511719 99.449219l-1.425781 2.054687v26.496094h496v-368zm-32 0v-16h16v16zm-64-112h32v16h-32zm-16 32h64v16h-64zm-16 32h96v16h-16v32h-64v-32h-16zm-16 32h16v16h-16zm32 184c0 11.296875-2.214844 22.0625-6.113281 32h-22.535157c2.847657-9.679688 4.648438-20.296875 4.648438-32s-1.800781-22.320312-4.648438-32h22.535157c3.898437 9.9375 6.113281 20.703125 6.113281 32zm0 184h-16v-64h-144v64h-16v-80h176zm-32 0h-112v-48h112zm-184-112v64h-32v-64zm-45.566406-116.390625 21.566406-23.234375v31.960938l-25.886719 22.367187c1.796875-10.3125 3.175781-20.695313 4.320313-31.09375zm59.125-.007813c1.144531 10.429688 2.546875 20.8125 4.34375 31.117188l-25.902344-22.382812v-31.960938zm-21.558594 29.886719 31.183594 26.945313c.273437 1.191406.550781 2.382812.839844 3.574218h-32.023438zm88 14.511719c0-11.847656 2.183594-22.480469 5.558594-32h34.441406v64h-34.480469c-3.359375-9.511719-5.519531-20.144531-5.519531-32zm96 0c0 11.847656-2.183594 22.480469-5.558594 32h-34.441406v-64h34.480469c3.359375 9.511719 5.519531 20.144531 5.519531 32zm-111.441406 88c-1.207032-2.832031-2.359375-5.6875-3.511719-8.542969 3.707031 3.128907 7.664063 5.949219 11.785156 8.542969zm71.441406-7.710938v-32.289062h27.136719c-8.304688 14.648438-19 25.464844-27.136719 32.289062zm0-128.289062v-32.335938c8.152344 6.808594 18.886719 17.625 27.207031 32.335938zm-16-32.289062v32.289062h-27.136719c8.304688-14.648438 19-25.464844 27.136719-32.289062zm0 128.289062v32.335938c-8.152344-6.808594-18.894531-17.625-27.207031-32.335938zm-20.703125 35.097656c-18.59375-6.441406-34.367187-18.898437-44.960937-35.097656h20.367187c6.855469 14.632812 15.976563 26.34375 24.59375 35.097656zm-52.03125 4.902344h-23.265625v48h-8v-64h25.015625c1.984375 5.367188 4.074219 10.695312 6.25 16zm-71.265625 64v32h-40v-24c0-4.40625 3.585938-8 8-8zm16 0h32v32h-32zm189.296875-104h20.367187c-10.59375 16.199219-26.367187 28.65625-44.960937 35.097656 8.617187-8.753906 17.738281-20.464844 24.59375-35.097656zm0-96c-6.855469-14.632812-15.976563-26.34375-24.59375-35.097656 18.59375 6.441406 34.367187 18.898437 44.960937 35.097656zm-82-35.097656c-8.617187 8.753906-17.738281 20.464844-24.59375 35.097656h-20.367187c10.59375-16.199219 26.367187-28.65625 44.960937-35.097656zm-53.183594 51.097656h22.535157c-2.847657 9.679688-4.648438 20.296875-4.648438 32s1.800781 22.320312 4.648438 32h-22.535157c-3.898437-9.9375-6.113281-20.703125-6.113281-32s2.214844-22.0625 6.113281-32zm-35.121093-38.679688-18.992188-20.457031v-4.863281h16.695312zm-34.992188-153.320312h16v16h-16zm-16 32h48v48h-48zm-16 64h80v16h-80zm32 32v4.863281l-18.992188 20.464844 2.296876-25.328125zm-31.191406 108.433594 31.191406-26.945313v30.511719h-32.046875c.285156-1.191406.582031-2.375.855469-3.566406zm-32.808594 19.566406h116.136719c2.214843 8.054688 4.617187 16.0625 7.246093 24h-123.382812zm-40 146.488281c22.648438-33.082031 41.105469-68.878906 55.023438-106.488281h24.976562v64h-8c-13.230469 0-24 10.769531-24 24v24h-48zm464 5.511719h-104v-96h8v-16h-16v16h-40.832031c29.28125-18.414062 48.832031-50.929688 48.832031-88 0-46.175781-30.273438-85.375-72-98.910156v-53.089844h176zm0 0"/><path d="m336 176h16v16h-16zm0 0"/><path d="m368 176h16v16h-16zm0 0"/><path d="m400 176h16v16h-16zm0 0"/><path d="m432 176h16v16h-16zm0 0"/><path d="m368 240h16v16h-16zm0 0"/><path d="m400 240h16v16h-16zm0 0"/><path d="m432 240h16v16h-16zm0 0"/><path d="m400 304h16v16h-16zm0 0"/><path d="m432 304h16v16h-16zm0 0"/><path d="m400 368h16v16h-16zm0 0"/><path d="m432 368h16v16h-16zm0 0"/><path d="m400 432h16v16h-16zm0 0"/><path d="m432 432h16v16h-16zm0 0"/><path d="m120 120h16v16h-16zm0 0"/></svg>