<svg height="496pt" viewBox="0 0 496 496" width="496pt" xmlns="http://www.w3.org/2000/svg"><path d="m432 64h16v16h-16zm0 0"/><path d="m48 64h16v16h-16zm0 0"/><path d="m464 480v-320h16v-128h-32v-32h-16v32h-32v-24h-16v24h-59.054688l-16-32h-121.890624l-16 32h-59.054688v-24h-16v24h-32v-32h-16v32h-32v128h16v320h-32v16h496v-16zm-16 0h-16v-320h16zm-345.753906-320 12-48h69.753906v38.191406c-24.304688 19.054688-40 48.601563-40 81.808594v12.921875c0 26.789063-4.945312 52.988281-14.617188 77.933594-14.832031 5.855469-25.382812 20.257812-25.382812 37.144531v8h56v16h16v-16h32.808594c3.71875 18.230469 19.871094 32 39.191406 32s35.472656-13.769531 39.191406-32h32.808594v16h16v-16h56v-8c0-16.886719-10.550781-31.289062-25.382812-37.144531-9.671876-24.945313-14.617188-51.144531-14.617188-77.933594v-12.921875c0-33.207031-15.695312-62.753906-40-81.808594v-38.191406h69.753906l12 48h22.246094v320h-336v-320zm19.121094 192c3.304687-9.3125 12.199218-16 22.632812-16h208c10.433594 0 19.328125 6.6875 22.632812 16zm149.160156 16c-3.3125 9.289062-12.113282 16-22.527344 16s-19.214844-6.710938-22.527344-16zm-123.039063-48c7.96875-23.207031 12.121094-47.367188 12.441407-72h176.140624c.320313 24.632812 4.472657 48.792969 12.441407 72zm14.039063-104h172.945312c.960938 5.199219 1.527344 10.527344 1.527344 16h-176c0-5.472656.566406-10.800781 1.527344-16zm4.585937-16c12.839844-32.726562 44.664063-56 81.886719-56s69.046875 23.273438 81.886719 56zm49.886719-88v21.089844c-5.550781 1.796875-10.894531 4.070312-16 6.742187v-27.832031zm48 0v17.359375c-5.230469-.808594-10.542969-1.359375-16-1.359375s-10.769531.550781-16 1.359375v-17.359375zm16 21.089844v-21.089844h16v27.832031c-5.105469-2.671875-10.449219-4.945312-16-6.742187zm4.945312-37.089844 24-48h14.109376l-24 48zm-17.890624 0h-38.109376l-24-48h86.109376zm-80-48 24 48h-14.109376l-24-48zm276.945312 96h-57.753906l-12-48h-77.300782l24-48h123.054688zm-267.054688-128h102.109376l8 16h-118.109376zm-164.945312 32h123.054688l24 48h-77.300782l-12 48h-57.753906zm16 112h16v320h-16zm0 0"/></svg>