<svg height="496pt" viewBox="0 -40 496 496" width="496pt" xmlns="http://www.w3.org/2000/svg"><path d="m96 64h304v16h-304zm0 0"/><path d="m496 64h-48v-32h-27.054688l-16-32h-313.890624l-16 32h-27.054688v32h-48v48h16v48h16v80h-8v48h8v16h-8v112h448v-112h-8v-16h8v-48h-8v-80h16v-48h16zm-395.054688-48h294.109376l8 16h-310.109376zm-52.945312 144h16v80h-16zm408 96v16h-32v-16zm-48-16v48h8v16h-32v-144h32v80zm-292.945312 80-27.054688 54.113281v-54.113281zm248 0 8 16h-246.109376l8-16zm-246.109376 32h262.109376l8 16h-278.109376zm-16 32h294.109376l8 16h-310.109376zm280-64h27.054688v54.113281zm-12.945312-16h-16v-144h16zm-32 0h-24v-144h24zm-40 0h-24v-144h24zm-40 0h-16v-144h16zm-32 0h-16v-144h16zm-32 0h-32v-144h32zm-48 0h-16v-144h16zm-32 0h-32v-16h8v-48h-8v-80h32zm-72-32v-16h32v16zm8 16h16v16h-16zm-8 32h32v80h-32zm416 80h-32v-80h32zm-8-96h-16v-16h16zm0-64h-16v-80h16zm16-96h-432v-32h432zm16-48h-464v-16h64v-16h-16v-16h368v16h-16v16h64zm0 0"/><path d="m48 120h16v16h-16zm0 0"/><path d="m128 120h16v16h-16zm0 0"/><path d="m240 120h16v16h-16zm0 0"/><path d="m352 120h16v16h-16zm0 0"/><path d="m432 120h16v16h-16zm0 0"/></svg>