<svg height="496pt" viewBox="0 0 496 496" width="496pt" xmlns="http://www.w3.org/2000/svg"><path d="m472 448h-8v-48h8c13.230469 0 24-10.769531 24-24s-10.769531-24-24-24h-148.9375c29.929688-13.359375 56.066406-34.679688 75.488281-62.34375l4.128907 1.710938c2 .832031 4.0625 1.21875 6.105468 1.21875 6.277344 0 12.246094-3.722657 14.800782-9.875l18.367187-44.34375c1.640625-3.953126 1.640625-8.304688 0-12.246094-1.640625-3.945313-4.714844-7.015625-8.664063-8.65625l-4.097656-1.695313c1.832032-10.449219 2.808594-21.097656 2.808594-31.769531 0-101.457031-82.542969-184-184-184-60.296875 0-116.039062 29.199219-150.550781 78.34375l-4.128907-1.710938c-8.136718-3.367187-17.519531.503907-20.90625 8.65625l-18.367187 44.34375c-1.640625 3.953126-1.640625 8.304688 0 12.246094 1.640625 3.945313 4.714844 7.015625 8.664063 8.65625l4.089843 1.695313c-1.824219 10.457031-2.800781 21.097656-2.800781 31.769531 0 74.792969 44.878906 139.257812 109.097656 168h-149.097656c-13.230469 0-24 10.769531-24 24s10.769531 24 24 24h8v48h-8c-13.230469 0-24 10.769531-24 24s10.769531 24 24 24h448c13.230469 0 24-10.769531 24-24s-10.769531-24-24-24zm-24 0h-16v-48h16zm-320-48v48h-48v-48zm16 0h16v48h-16zm32 0h48v48h-48zm64 0h16v48h-16zm32 0h48v48h-48zm64 0h16v48h-16zm32 0h48v48h-48zm-113.472656-155.59375c-3.902344-1.292969-6.527344-4.933594-6.527344-9.054688v-8.054687l56 23.191406v20.535157c0 13.777343 11.199219 24.976562 24.96875 24.976562 2.398438 0 4.648438.9375 6.34375 2.625l6.0625 6.0625c1.6875 1.695312 2.625 3.945312 2.625 6.34375v10.855469c-25.664062 17.898437-56.097656 28.402343-88.214844 29.875-1.015625-8.472657-6.136718-15.882813-13.914062-19.769531l-12.597656-6.296876c-3.25-1.632812-5.273438-4.902343-5.273438-9.046874 0-4.121094 2.625-7.761719 6.527344-9.054688l24-8c10.457031-3.488281 17.472656-13.234375 17.472656-24.242188v-6.703124c0-11.007813-7.015625-20.753907-17.472656-24.242188zm105.304687 64.9375c-.40625-6.03125-2.839843-11.664062-7.144531-15.96875l-6.0625-6.0625c-4.714844-4.710938-10.984375-7.3125-17.65625-7.3125-4.945312 0-8.96875-4.023438-8.96875-8.96875v-13.910156l63.433594 26.269531c-7.019532 9.5625-14.945313 18.21875-23.601563 25.953125zm56.167969-125.34375c0 8.535156-.855469 17.015625-2.128906 25.40625l-109.871094-45.511719v-6.949219c0-2.730468 2.214844-4.945312 4.945312-4.945312h38.109376c11.554687 0 20.945312-9.390625 20.945312-20.945312v-5.695313c0-5.589844-2.175781-10.855469-6.136719-14.816406l-8.414062-8.414063c-.9375-.929687-1.449219-2.167968-1.449219-3.488281v-13.6875c0-11.5625-9.390625-20.953125-20.945312-20.953125h-8c-3.230469 0-6.46875.769531-9.367188 2.207031l-10.527344 5.265625c-3.136718 1.582032-7.160156-.929687-7.160156-4.417968v-6.109376c0-11.554687-9.390625-20.945312-20.945312-20.945312h-23.132813c-.976563 0-1.929687-.289062-2.746094-.832031l-14.976562-9.984375c-1.375-.917969-2.199219-2.457032-2.199219-4.113282v-8.238281c5.289062-.496093 10.617188-.832031 16-.832031 92.640625 0 168 75.359375 168 168zm-218.34375-149.65625-7.914062-7.910156c8.503906-3.136719 17.265624-5.640625 26.257812-7.378906v6.015624c0 7.019532 3.488281 13.53125 9.328125 17.425782l14.976563 9.984375c3.457031 2.304687 7.472656 3.519531 11.617187 3.519531h23.132813c2.730468 0 4.945312 2.214844 4.945312 4.945312v6.109376c0 11.554687 9.390625 20.945312 20.945312 20.945312 3.230469 0 6.46875-.769531 9.367188-2.207031l10.527344-5.265625c.6875-.351563 1.457031-.527344 2.214844-.527344h8c2.730468 0 4.945312 2.214844 4.945312 4.945312v13.6875c0 5.589844 2.175781 10.855469 6.136719 14.816407l8.414062 8.414062c.9375.9375 1.449219 2.175781 1.449219 3.496094v5.6875c0 2.738281-2.214844 4.953125-4.945312 4.953125h-38.109376c-11.554687 0-20.945312 9.390625-20.945312 20.945312v.328126l-96-39.769532v-18.191406c0-5.082031 2.0625-10.066406 5.65625-13.65625 6.671875-6.664062 10.34375-15.535156 10.34375-24.96875v-1.375c0-9.433594-3.671875-18.304688-10.34375-24.96875zm-23.746094-1.121094 12.433594 12.433594c3.59375 3.589844 5.65625 8.574219 5.65625 13.65625v1.375c0 5.082031-2.0625 10.066406-5.65625 13.65625-6.671875 6.664062-10.34375 15.535156-10.34375 24.96875v11.566406l-63.433594-26.269531c16.265625-22.160156 37.371094-39.609375 61.34375-51.386719zm-86.726562 58.183594 340 140.832031-18.367188 44.347657-339.992187-140.824219zm-7.183594 92.59375c0-8.550781.664062-17.078125 1.945312-25.488281l150.054688 62.160156v14.679687c0 11.007813 7.015625 20.753907 17.472656 24.242188 3.902344 1.292969 6.527344 4.933594 6.527344 9.054688v6.703124c0 4.121094-2.625 7.761719-6.527344 9.054688l-24 8c-10.457031 3.488281-17.472656 13.234375-17.472656 24.746094 0 9.742187 5.414062 18.496094 14.128906 22.855468l12.597656 6.296876c2.226563 1.109374 3.800782 3.015624 4.625 5.253906-88.609374-4.542969-159.351562-77.839844-159.351562-167.558594zm-64 192c0-4.40625 3.59375-8 8-8h448c4.40625 0 8 3.59375 8 8s-3.59375 8-8 8h-448c-4.40625 0-8-3.59375-8-8zm32 24h16v48h-16zm424 80h-448c-4.40625 0-8-3.59375-8-8s3.59375-8 8-8h448c4.40625 0 8 3.59375 8 8s-3.59375 8-8 8zm0 0"/><path d="m385.359375 249.5625 6.125-14.78125 14.78125 6.125-6.125 14.78125zm0 0"/><path d="m355.792969 237.320312 6.125-14.78125 14.78125 6.125-6.125 14.78125zm0 0"/><path d="m326.230469 225.070312 6.125-14.78125 14.78125 6.125-6.125 14.78125zm0 0"/><path d="m296.671875 212.828125 6.121094-14.78125 14.78125 6.125-6.125 14.78125zm0 0"/><path d="m267.105469 200.578125 6.125-14.78125 14.78125 6.125-6.125 14.78125zm0 0"/><path d="m237.539062 188.332031 6.125-14.78125 14.78125 6.125-6.125 14.78125zm0 0"/><path d="m207.976562 176.082031 6.125-14.78125 14.78125 6.125-6.125 14.78125zm0 0"/><path d="m178.410156 163.835938 6.121094-14.78125 14.78125 6.125-6.125 14.78125zm0 0"/><path d="m148.847656 151.59375 6.125-14.777344 14.78125 6.125-6.125 14.777344zm0 0"/><path d="m119.285156 139.347656 6.125-14.78125 14.78125 6.125-6.125 14.777344zm0 0"/><path d="m89.71875 127.101562 6.125-14.78125 14.78125 6.125-6.125 14.78125zm0 0"/></svg>