<svg height="500pt" viewBox="0 -2 500.944 500" width="500pt" xmlns="http://www.w3.org/2000/svg"><path d="m500.945312 264.472656v-240h-360c0-13.234375-10.769531-24-24-24-13.234374 0-24 10.765625-24 24v376h-40v48h-28.945312l-24 48h233.886719l-24-48h-28.941407v-48h-40v-136zm-360-16v-16h344v16zm144-144h200v16h-200zm0-16v-16h200v16zm0 48h200v16h-344v-16zm200 32v16h-344v-16zm0 32v16h-344v-16zm0-144h-200v-16h200zm-216-16v80h-128v-80zm-60.945312 440h-182.113281l8-16h166.113281zm-43.054688-32h-96v-32h96zm-56-48v-376c0-4.417968 3.582032-8 8-8 4.414063 0 8 3.582032 8 8v376zm0 0"/><path d="m156.945312 56.472656h16v16h-16zm0 0"/><path d="m196.945312 56.472656h16v16h-16zm0 0"/><path d="m236.945312 56.472656h16v16h-16zm0 0"/><path d="m156.945312 88.472656h16v16h-16zm0 0"/><path d="m196.945312 88.472656h16v16h-16zm0 0"/><path d="m236.945312 88.472656h16v16h-16zm0 0"/></svg>