<svg height="496pt" viewBox="-88 0 496 496.664" width="496pt" xmlns="http://www.w3.org/2000/svg"><path d="m276.925781 288.28125-14.304687-3.304688c1.015625-4.679687 1.710937-9.441406 1.710937-14.296874 0-10.160157-2.382812-20.320313-6.824219-29.464844 4.472657-10.78125 6.824219-22.453125 6.824219-34.488282v-70.0625h8v-48h-19.785156c-17.824219-34.160156-53.4375-56-92.214844-56-25.417969 0-49.488281 9.367188-68.078125 25.441407l11.742188-39.144531-15.328125-4.59375-11.871094 39.5625-4.496094-53.929688-15.945312 1.328125 4.914062 58.960937-21.953125-39.503906-13.984375 7.765625 33.40625 60.113281h-10.40625v48h8v70.0625c0 12.035157 2.351563 23.707032 6.824219 34.488282-4.441406 9.144531-6.824219 19.304687-6.824219 29.464844 0 4.855468.695313 9.617187 1.710938 14.296874l-14.296875 3.304688c-25.566406 5.894531-43.414063 28.335938-43.414063 54.566406v153.816406h320v-153.816406c0-26.230468-17.847656-48.671875-43.40625-54.566406zm-235.976562 52.445312-11.167969 11.167969c-6.417969-7.183593-10.609375-13.125-12.746094-16.390625 1.089844-5.902344 3.519532-11.328125 6.921875-16.039062 3.886719 5.773437 9.488281 13.253906 16.992188 21.261718zm42.710937-18.628906.953125-1.433594h7.4375l.953125 1.433594c7.40625 11.109375 11.328125 24.054688 11.328125 37.40625 0 14.496094-4.792969 28.871094-13.488281 40.480469l-2.511719 3.351563-2.503906-3.34375c-8.703125-11.609376-13.496094-25.984376-13.496094-40.488282 0-13.351562 3.921875-26.296875 11.328125-37.40625zm152.390625-1.433594.953125 1.433594c7.40625 11.109375 11.328125 24.054688 11.328125 37.40625 0 14.496094-4.792969 28.871094-13.488281 40.480469l-2.511719 3.351563-2.503906-3.34375c-8.703125-11.609376-13.496094-25.984376-13.496094-40.488282 0-13.359375 3.921875-26.296875 11.328125-37.414062l.953125-1.425782zm-83.71875 11.3125v44.359376c-11.238281-.566407-22.320312-2.359376-32.863281-5.328126.320312-2.273437.542969-4.550781.671875-6.847656zm-33.136719-80.304687c11.671876 8.160156 25.839844 12.992187 41.136719 12.992187s29.464844-4.832031 41.136719-12.992187c-.679688 4.375-1.136719 8.785156-1.136719 13.207031 0 3.707032.28125 7.367188.742188 11l-40.742188 27.167969-40.742187-27.160156c.460937-3.628907.742187-7.300781.742187-11.007813 0-4.421875-.457031-8.832031-1.136719-13.207031zm81.328126 112.496094c.128906 2.289062.351562 4.566406.671874 6.839843-10.550781 2.960938-21.632812 4.726563-32.863281 5.304688v-44.328125zm-84.757813 22.417969c1.832031.511718 3.636719 1.078124 5.496094 1.519531l-3.136719 15.773437c-3.105469-.710937-6.167969-1.503906-9.199219-2.375 2.742188-4.742187 5.054688-9.734375 6.839844-14.917968zm21.230469 4.421874c5.046875.695313 10.167968 1.121094 15.335937 1.351563v15.976563c-6.257812-.246094-12.417969-.769532-18.472656-1.601563zm31.335937 1.34375c5.175781-.230468 10.289063-.671874 15.335938-1.367187l3.136719 15.757813c-6.058594.832031-12.214844 1.355468-18.472657 1.601562zm34.214844 11.527344-3.136719-15.765625c1.859375-.449219 3.664063-1.007812 5.496094-1.519531 1.777344 5.183594 4.097656 10.175781 6.851562 14.917969-3.042968.863281-6.105468 1.65625-9.210937 2.367187zm11.800781-90.664062c-6.070312 9.113281-10.207031 19.226562-12.335937 29.816406l-29.121094-29.121094 32.035156-21.359375c2.382813 7.050781 5.628907 13.808594 9.796875 20.105469zm41.984375-192.550782h-4.664062c.832031-1.433593 1.617187-2.855468 2.34375-4.183593.832031-1.527344 1.578125-2.855469 2.320312-4.121094zm-14.039062-16c-.832031 1.433594-1.617188 2.847657-2.34375 4.183594-3.984375 7.351563-6.664063 11.816406-10.3125 11.816406-3.648438 0-6.335938-4.464843-10.320313-11.816406-.71875-1.335937-1.511718-2.75-2.34375-4.183594zm-37.039063 11.816407c.71875 1.335937 1.511719 2.75 2.34375 4.183593h-25.304687c.832031-1.433593 1.613281-2.855468 2.34375-4.183593 3.984375-7.351563 6.664062-11.816407 10.304687-11.816407 3.648438 0 6.328125 4.464844 10.3125 11.816407zm-34.691406-7.632813c-3.972656 7.351563-6.65625 11.816406-10.300781 11.816406-3.632813 0-6.3125-4.464843-10.289063-11.808593-.730468-1.335938-1.511718-2.757813-2.34375-4.191407h25.277344c-.820312 1.433594-1.613281 2.855469-2.34375 4.183594zm-34.65625 7.625c.730469 1.335938 1.515625 2.757813 2.347656 4.191406h-25.257812c.832031-1.441406 1.617187-2.855468 2.34375-4.191406 3.976562-7.34375 6.648437-11.808594 10.28125-11.808594 3.632812 0 6.3125 4.464844 10.285156 11.808594zm-34.636719-7.617187c-3.976562 7.34375-6.65625 11.808593-10.289062 11.808593-3.632813 0-6.3125-4.464843-10.289063-11.816406-.71875-1.335937-1.511718-2.75-2.34375-4.183594h25.257813c-.824219 1.441407-1.617188 2.855469-2.335938 4.191407zm-36.9375 11.808593v-8.273437c.726563 1.257813 1.472657 2.570313 2.289063 4.082031.71875 1.335938 1.511718 2.75 2.34375 4.183594h-4.632813zm40 72v-56h112v56c0 11.183594-3.335937 21.601563-9.007812 30.351563l-.046875-.007813-.023438.128907c-10 15.34375-27.28125 25.527343-46.921875 25.527343s-36.921875-10.183593-46.921875-25.527343l-.023437-.128907-.046875.007813c-5.671875-8.75-9.007813-19.167969-9.007813-30.351563zm11.40625 99.886719 32.035157 21.359375-29.121094 29.121094c-2.128906-10.589844-6.257813-20.703125-12.335938-29.816406l-.375-.558594c4.167969-6.296875 7.421875-13.054688 9.796875-20.105469zm-63.308593 59.328125c1.308593 1.167969 2.664062 2.328125 4.054687 3.488282-.074219 1.375-.152344 2.753906-.152344 4.136718 0 6.015625.71875 12 2.015625 17.855469-6.558594-4.648437-12.335937-9.414063-17.34375-14.0625zm20.589843 57.714844 15.3125 20.398438 11.023438-14.6875c16.761719 5.335937 34.503906 8.359374 52.976562 9.039062v56.320312h-80v-72.078124c.238281.335937.449219.6875.6875 1.007812zm95.3125 14.75c18.464844-.679688 36.214844-3.703125 52.976563-9.039062l11.023437 14.6875 15.3125-20.40625c.238281-.328126.449219-.675782.6875-1v72.078124h-80zm93.984375-46.953125c1.289063-5.863281 2.015625-11.863281 2.015625-17.886719 0-1.382812-.078125-2.761718-.152343-4.144531 1.390624-1.160156 2.734374-2.320313 4.054687-3.488281l11.449219 11.457031c-5.007813 4.640625-10.792969 9.40625-17.367188 14.0625zm28.589844-25.460937-11.191406-11.195313c7.503906-8.007813 13.105468-15.488281 17-21.261719 3.410156 4.71875 5.839844 10.144532 6.921875 16.054688-2.128907 3.265625-6.3125 9.199218-12.730469 16.402344zm-17.574219-48.058594c4.128907.953125 7.929688 2.585937 11.40625 4.640625-4.414062 6.792969-12.191406 17.367187-23.613281 28.175781-2.351562-8.28125-5.960938-16.199219-10.808594-23.472656l-.367187-.550782 3.070312-4.601562c1.679688-2.519531 3.128907-5.160156 4.441407-7.855469zm-25-97.144532c0 19.753907-7.6875 38.3125-21.65625 52.28125l11.3125 11.3125c3.359375-3.359374 6.335938-6.992187 9.078125-10.761718.816406 3.648437 1.265625 7.386718 1.265625 11.121094 0 10.175781-2.984375 20.039062-8.632812 28.503906l-3.648438 5.480468h-7.4375l-.433593-.648437c-7.75-11.632813-11.847657-25.167969-11.847657-39.136719 0-4.894531.511719-9.816406 1.527344-14.597656l4.496094-21.234375c6.296875-10.6875 9.976562-23.101563 9.976562-36.382813v-56h16zm-88-158.0625c29.9375 0 57.671875 15.359376 73.761719 40h-147.523438c16.089844-24.640624 43.824219-40 73.761719-40zm-77.65625 221.65625 11.3125-11.3125c-13.96875-13.96875-21.65625-32.527343-21.65625-52.28125v-70.0625h16v56c0 13.28125 3.679688 25.695313 9.976563 36.382813l4.496094 21.234375c1.015624 4.789062 1.527343 9.703125 1.527343 14.597656 0 13.96875-4.097656 27.503906-11.847656 39.136719l-.433594.648437h-7.4375l-3.65625-5.480468c-5.640625-8.464844-8.625-18.328125-8.625-28.503906 0-3.734376.449219-7.472657 1.265625-11.121094 2.742188 3.769531 5.71875 7.402344 9.078125 10.761718zm-35.335937 33.550782 15.871094-3.664063c1.3125 2.6875 2.761718 5.328125 4.441406 7.855469l3.0625 4.601562-.367188.550782c-4.855468 7.28125-8.457031 15.199218-10.808594 23.480468-11.421874-10.808593-19.199218-21.390624-23.613281-28.183593 3.484375-2.054688 7.277344-3.679688 11.414063-4.640625zm-31.007813 57.058594c8.960938 10.308593 22.136719 22.972656 40 34.367187v85.367187h-40zm248 119.734374v-85.359374c17.871094-11.382813 31.039063-24.058594 40-34.375v119.734374zm0 0"/><path d="m184.332031 440.664062h16v16h-16zm0 0"/><path d="m120.332031 440.664062h16v16h-16zm0 0"/><path d="m200.332031 160.664062c0 4.417969-3.582031 8-8 8s-8-3.582031-8-8c0-4.417968 3.582031-8 8-8s8 3.582032 8 8zm0 0"/><path d="m136.332031 160.664062c0 4.417969-3.582031 8-8 8s-8-3.582031-8-8c0-4.417968 3.582031-8 8-8s8 3.582032 8 8zm0 0"/><path d="m160.332031 224.664062c13.230469 0 24-10.769531 24-24h-16c0 4.414063-3.59375 8-8 8s-8-3.585937-8-8h-16c0 13.230469 10.769531 24 24 24zm0 0"/></svg>