<svg height="490pt" viewBox="-4 0 490 490.384" width="490pt" xmlns="http://www.w3.org/2000/svg"><path d="m241.433594 0-241.242188 199.648438 91.367188 290.734374h299.753906l91.367188-290.734374zm164.78125 212.753906-86.292969-69.464844 20.359375-40.722656 116.246094 96.210938zm-262.269532 35.292969 34.902344 101.808594-.007812-.007813-33.855469 49.242188-57.121094-166.625zm97.488282-68.632813 80.972656 67.480469-34.109375 99.488281h-93.730469l-34.109375-99.496093zm-51.792969 182.96875h103.582031l33 48h-169.582031zm114.382813-12.527343-.007813.007812 34.90625-101.808593 56.078125-15.574219-57.121094 166.625zm83.214843-131.832031-55.863281 15.519531-39.933594-33.277344 21.160156-42.320313zm-108.429687-28.289063-37.375-31.148437-37.378906 31.148437-21.03125-42.0625 58.410156-47.015625 58.40625 47.015625zm-87.382813 10.53125-39.9375 33.277344-55.863281-15.519531 74.640625-60.078126zm-114.777343 12.488281-50.3125-13.976562 116.25-96.210938 20.359374 40.722656zm-7.488282 14.527344 64.542969 188.230469-33.558594 48.816406-78.671875-250.296875zm76.480469 199.101562h191.582031l33 48h-257.582031zm203.519531-10.878906 64.542969-188.230468 47.6875-13.25-78.664063 250.289062zm-21.535156-323.398437-20.464844 40.917969-65.726562-52.910157-65.738282 52.910157-20.464843-40.917969 86.203125-71.335938zm0 0"/><path d="m313.078125 200.679688 9.828125-12.636719 27.429688 21.339843-9.828126 12.636719zm0 0"/><path d="m132.523438 209.402344 27.433593-21.335938 9.828125 12.636719-27.433594 21.335937zm0 0"/><path d="m204.632812 147.984375 9.597657 12.800781 27.203125-20.402344 27.199218 20.402344 9.597657-12.800781-36.796875-27.601563zm0 0"/><path d="m321.835938 351.84375 32-96 15.171874 5.054688-32 96zm0 0"/><path d="m113.902344 261.113281 15.027344-5.464843 32.015624 87.992187-15.027343 5.46875zm0 0"/><path d="m193.433594 378.382812h96v16h-96zm0 0"/></svg>