<svg height="496pt" viewBox="-30 0 496 496" width="496pt" xmlns="http://www.w3.org/2000/svg"><path d="m217.988281 304c30.871094 0 56-25.128906 56-56s-25.128906-56-56-56c-30.871093 0-56 25.128906-56 56s25.128907 56 56 56zm0-96c22.054688 0 40 17.945312 40 40s-17.945312 40-40 40c-22.058593 0-40-17.945312-40-40s17.941407-40 40-40zm0 0"/><path d="m193.988281 240h48v16h-48zm0 0"/><path d="m209.988281 160h16v16h-16zm0 0"/><path d="m150.105469 191.429688 11.3125-11.3125 11.3125 11.3125-11.3125 11.3125zm0 0"/><path d="m129.988281 240h16v16h-16zm0 0"/><path d="m150.101562 304.566406 11.3125-11.3125 11.3125 11.3125-11.3125 11.3125zm0 0"/><path d="m209.988281 320h16v16h-16zm0 0"/><path d="m263.238281 304.570312 11.3125-11.3125 11.3125 11.3125-11.3125 11.3125zm0 0"/><path d="m289.988281 240h16v16h-16zm0 0"/><path d="m263.242188 191.433594 11.3125-11.3125 11.3125 11.3125-11.3125 11.3125zm0 0"/><path d="m423.972656 339.207031c-4.464844-2.574219-9.417968-3.503906-14.199218-3.054687l-61.691407-88.152344 61.785157-88.289062c.726562.066406 1.433593.28125 2.160156.28125 4.0625 0 8.175781-1.03125 11.945312-3.199219h.015625c11.457031-6.625 15.390625-21.335938 8.773438-32.785157-3.199219-5.550781-8.375-9.527343-14.566407-11.183593-6.199218-1.664063-12.65625-.816407-18.207031 2.390625-4.464843 2.585937-7.746093 6.410156-9.753906 10.777344l-107.191406 9.351562-45.503907-97.511719c2.777344-3.921875 4.449219-8.671875 4.449219-13.832031 0-13.230469-10.769531-24-24-24-13.234375 0-24 10.769531-24 24 0 5.160156 1.671875 9.910156 4.445313 13.832031l-45.503906 97.503907-107.183594-9.351563c-2-4.367187-5.277344-8.191406-9.75-10.769531-5.535156-3.191406-11.984375-4.0625-18.207032-2.390625-6.203124 1.65625-11.371093 5.632812-14.578124 11.175781-6.617188 11.457031-2.679688 26.167969 8.792968 32.792969 3.769532 2.167969 7.878906 3.199219 11.945313 3.199219.726562 0 1.429687-.214844 2.160156-.28125l61.78125 88.289062-61.6875 88.152344c-4.785156-.457032-9.734375.472656-14.199219 3.054687h-.015625c-11.457031 6.625-15.394531 21.335938-8.777343 32.785157 3.199218 5.550781 8.375 9.527343 14.570312 11.183593 2.070312.550781 4.167969.832031 6.246094.832031 4.160156 0 8.265625-1.085937 11.960937-3.214843 4.464844-2.585938 7.742188-6.410157 9.75-10.777344l107.191407-9.351563 45.503906 97.503907c-2.773438 3.921875-4.445313 8.671875-4.445313 13.832031 0 13.230469 10.765625 24 24 24 13.230469 0 24-10.769531 24-24 0-5.160156-1.671875-9.910156-4.449219-13.832031l45.503907-97.503907 107.191406 9.351563c2 4.367187 5.28125 8.191406 9.753906 10.777344 3.695313 2.136719 7.800781 3.214843 11.960938 3.214843 2.078125 0 4.175781-.273437 6.246093-.832031 6.191407-1.65625 11.367188-5.632812 14.566407-11.175781 6.617187-11.457031 2.683593-26.167969-8.789063-32.792969zm-32.785156 8.800781c-1.078125 1.871094-1.777344 3.839844-2.304688 5.832032l-100.617187-8.777344c26.875-19.511719 45.441406-49.789062 49.058594-84.535156l57.765625 82.550781c-1.460938 1.464844-2.8125 3.058594-3.902344 4.929687zm-173.199219 99.992188c-2.160156 0-4.214843.375-6.207031.921875l-42.671875-91.433594c14.949219 6.703125 31.460937 10.511719 48.878906 10.511719 17.414063 0 33.925781-3.808594 48.871094-10.511719l-42.664063 91.421875c-1.992187-.535156-4.046874-.910156-6.207031-.910156zm-119.335937-212.527344-57.730469-82.496094c1.464844-1.457031 2.777344-3.113281 3.859375-4.984374 1.078125-1.871094 1.773438-3.839844 2.300781-5.832032l100.617188 8.777344c-26.863281 19.511719-45.433594 49.796875-49.046875 84.535156zm119.335937-187.472656c2.160157 0 4.214844-.375 6.207031-.921875l42.664063 91.425781c-14.945313-6.695312-31.457031-10.503906-48.871094-10.503906-17.417969 0-33.929687 3.808594-48.871093 10.511719l42.664062-91.421875c1.992188.535156 4.046875.910156 6.207031.910156zm173.199219 100c1.078125 1.871094 2.390625 3.527344 3.855469 4.984375l-57.726563 82.488281c-3.625-34.738281-22.183594-65.015625-49.058594-84.535156l100.617188-8.777344c.535156 2 1.242188 3.96875 2.3125 5.839844zm-173.199219-4c57.34375 0 104 46.65625 104 104s-46.65625 104-104 104-104-46.65625-104-104 46.65625-104 104-104zm189.992188-14.929688c1.230469-.710937 2.597656-1.078124 3.984375-1.078124.695312 0 1.398437.097656 2.085937.28125 2.066407.542968 3.785157 1.871093 4.847657 3.726562 2.210937 3.824219.898437 8.71875-2.917969 10.929688-3.839844 2.214843-8.746094.871093-10.929688-2.921876-2.207031-3.832031-.894531-8.734374 2.929688-10.9375zm-189.992188-113.070312c4.414063 0 8 3.585938 8 8s-3.585937 8-8 8c-4.417969 0-8-3.585938-8-8s3.582031-8 8-8zm-197.984375 126.929688c-3.824218-2.203126-5.144531-7.113282-2.929687-10.9375 1.074219-1.839844 2.792969-3.167969 4.847656-3.71875.691406-.183594 1.394531-.28125 2.089844-.28125 1.382812 0 2.75.367187 3.984375 1.078124 3.824218 2.203126 5.136718 7.113282 2.925781 10.929688-2.207031 3.816406-7.125 5.128906-10.917969 2.929688zm78.648438 117.597656c3.625 34.738281 22.183594 65.015625 49.054687 84.535156l-100.617187 8.777344c-.527344-1.992188-1.230469-3.96875-2.300782-5.839844-1.082031-1.871094-2.441406-3.464844-3.90625-4.921875zm-70.65625 106.402344c-1.855469 1.0625-4.023438 1.351562-6.074219.796874-2.0625-.550781-3.773437-1.878906-4.847656-3.726562-2.207031-3.824219-.894531-8.71875 2.921875-10.929688 3.832031-2.222656 8.734375-.871093 10.925781 2.921876 2.210937 3.832031.898437 8.734374-2.925781 10.9375zm189.992187 113.070312c-4.417969 0-8-3.585938-8-8s3.582031-8 8-8c4.414063 0 8 3.585938 8 8s-3.585937 8-8 8zm200.910157-115.992188c-1.070313 1.839844-2.789063 3.167969-4.847657 3.71875-2.046875.5625-4.207031.273438-6.070312-.796874-3.824219-2.203126-5.136719-7.113282-2.929688-10.929688 2.191407-3.824219 7.121094-5.152344 10.921875-2.929688 3.824219 2.203126 5.144532 7.105469 2.925782 10.9375zm0 0"/></svg>