<svg height="496pt" viewBox="0 0 496 496" width="496pt" xmlns="http://www.w3.org/2000/svg"><path d="m408.496094 354.230469c2.40625-100.734375 16.894531-200.917969 43.425781-298.207031l3.222656-11.808594c.222657-.582032.359375-1.191406.488281-1.789063l.085938-.3125-.039062-.015625c.128906-.699218.320312-1.378906.320312-2.097656 0-38.878906-186.710938-40-208-40s-208 1.121094-208 40c0 .71875.191406 1.398438.320312 2.097656l-.039062.007813.085938.308593c.128906.609376.273437 1.21875.488281 1.800782l3.222656 11.808594c26.53125 97.289062 41.019531 197.464843 43.425781 298.207031-56.449218 14.90625-87.503906 36.730469-87.503906 61.769531 0 51.960938 127.777344 80 248 80s248-28.039062 248-80c0-25.039062-31.054688-46.863281-87.503906-61.769531zm-9.558594-101.605469c-5.875 3.886719-18.609375 11.253906-38.882812 18.335938.273437-66.921876 7.832031-133.855469 22.449218-199.152344 20.160156-2.871094 38.566406-6.746094 51.9375-11.96875-16.816406 63.304687-28.699218 127.761718-35.503906 192.785156zm-54.9375 22.109375v1.289063c-15.398438 4.273437-34.0625 7.945312-56 10.066406v-4.859375c0-67.589844 5.113281-135.703125 15.121094-202.558594 19.304687-.871094 41.3125-2.328125 62.542968-4.71875-14.3125 65.886719-21.664062 133.351563-21.664062 200.78125zm-72 6.488281v6.042969c-7.679688.429687-15.59375.734375-24 .734375s-16.320312-.304688-24-.726562v-6.042969c0-67.375-5.039062-135.253907-14.863281-201.925781 19.175781.625 33.773437.695312 38.863281.695312s19.6875-.070312 38.863281-.695312c-9.824219 66.671874-14.863281 134.550781-14.863281 201.917968zm-79.121094-202.558594c10.007813 66.863282 15.121094 134.96875 15.121094 202.558594v4.855469c-21.9375-2.117187-40.601562-5.789063-56-10.0625v-1.289063c0-67.421874-7.351562-134.894531-21.664062-200.78125 21.230468 2.390626 43.238281 3.847657 62.542968 4.71875zm-79.375-6.847656c14.617188 65.296875 22.167969 132.230469 22.449219 199.152344-20.273437-7.074219-33.015625-14.449219-38.882813-18.335938-6.8125-65.03125-18.695312-129.488281-35.511718-192.792968 13.371094 5.230468 31.785156 9.105468 51.945312 11.976562zm134.496094 232.183594c78.480469 0 126.320312-19.152344 149.097656-31.558594-1.242187 14.007813-2.25 28.03125-3.027344 42.078125-5.726562 4.558594-50.460937 37.480469-146.070312 37.480469-94.945312 0-140.222656-32.902344-146.070312-37.488281-.777344-14.039063-1.785157-28.0625-3.027344-42.070313 22.777344 12.40625 70.617187 31.558594 149.097656 31.558594zm0 64c78.59375 0 124.832031-21.214844 145.070312-33.496094-.644531 16.488282-1.070312 32.984375-1.070312 49.496094 0 16.777344-50.039062 40-144 40s-144-23.222656-144-40c0-16.511719-.425781-33.007812-1.070312-49.496094 20.238281 12.28125 66.476562 33.496094 145.070312 33.496094zm0-352c110.433594 0 181.359375 13.839844 191.40625 24-10.046875 10.160156-80.972656 24-191.40625 24s-181.359375-13.839844-191.40625-24c10.046875-10.160156 80.972656-24 191.40625-24zm0 464c-136.71875 0-232-33.726562-232-64 0-15.96875 27.238281-33.007812 71.777344-45.304688.046875 4.433594.222656 8.863282.222656 13.304688 0 38.480469 82.9375 56 160 56s160-17.519531 160-56c0-4.441406.175781-8.871094.222656-13.304688 44.539063 12.296876 71.777344 29.335938 71.777344 45.304688 0 30.273438-95.28125 64-232 64zm0 0"/><path d="m240 320h16v16h-16zm0 0"/><path d="m304 312h16v16h-16zm0 0"/><path d="m360 296h16v16h-16zm0 0"/><path d="m176 312h16v16h-16zm0 0"/><path d="m120 296h16v16h-16zm0 0"/></svg>