<svg height="496pt" viewBox="-3 0 496 496" width="496pt" xmlns="http://www.w3.org/2000/svg"><path d="m490.382812 496-196.621093-376.871094 31.125-108.9375-15.390625-4.390625-12.054688 42.199219h-44.25v-48h-16v48h-44.246094l-12.058593-42.191406-15.390625 4.390625 31.128906 108.9375-196.625 376.863281zm-253.191406-72v56h-53.558594l49.128907-182.472656c.726562-2.71875 2.335937-5.015625 4.429687-6.6875v117.160156h16v-117.160156c2.097656 1.671875 3.695313 3.96875 4.433594 6.6875l49.128906 182.472656h-53.5625v-56zm21.320313-248 18.785156 48h-64.207031l18.78125-48zm-20.375-16 7.054687-18.039062 7.054688 18.039062zm45.414062 80 37.570313 96h-36.570313l-11.480469-42.625c-3.382812-12.582031-14.847656-21.375-27.878906-21.375s-24.496094 8.792969-27.878906 21.375l-11.480469 42.625h-36.566406l37.566406-96zm5.304688 112h38.519531l15.65625 40h-43.398438zm-87.328125 0-10.765625 40h-43.410157l15.65625-40zm-15.078125 56-4.304688 16h-47.3125l6.265625-16zm-8.617188 32-10.769531 40h-54.140625l15.652344-40zm134.71875 0h49.265625l15.65625 40h-54.144531zm-4.304687-16-4.300782-16h45.351563l6.261719 16zm58.234375-16h59.953125l8.34375 16h-62.042969zm-6.257813-16-15.65625-40h52.625v-.039062l20.886719 40.039062zm-21.917968-56-37.570313-96h38.035156l50.085938 96zm-43.824219-112-18.785157-48h29.6875l25.042969 48zm-25.039063-64-12.519531-32h23.421875l16.695312 32zm-16.25-48v-16h30.535156l-4.566406 16zm-16 0h-25.960937l-4.566407-16h30.527344zm-3.71875 16-12.519531 32h-27.601563l16.695313-32zm-18.785156 48-18.785156 48h-35.941406l25.039062-48zm-25.046875 64-37.570313 96h-50.558593l50.089843-96zm-43.824219 112-15.65625 40h-57.863281l20.894531-40.039062v.039062zm-21.914062 56-6.261719 16h-62.03125l8.34375-16zm-12.519532 32-15.648437 40h-69.351563l20.875-40zm283.273438 40-15.648438-40h64.121094l20.871094 40zm-101.785156-416-4.566406 16h-35.113282v-16zm-55.679688 0v16h-35.101562l-4.578125-16zm0 0"/><path d="m165.191406 368h16v16h-16zm0 0"/><path d="m101.191406 368h16v16h-16zm0 0"/><path d="m309.191406 368h16v16h-16zm0 0"/><path d="m373.191406 368h16v16h-16zm0 0"/><path d="m237.191406 192h16v16h-16zm0 0"/><path d="m293.191406 192h16v16h-16zm0 0"/><path d="m181.191406 192h16v16h-16zm0 0"/></svg>