<svg height="496pt" viewBox="0 -2 496 496" width="496pt" xmlns="http://www.w3.org/2000/svg"><path d="m436.945312 443.3125h-12.945312v-32h-24v-48h-48v48h-16v-48h-16v-291.3125l-72-72-72 72v291.3125h-16v48h-16v-48h-48v48h-24v32h-12.945312l-16 32h-11.054688v16h432v-16h-11.054688zm-68.945312-64h16v32h-16zm-64 32v-32h16v32zm-11.3125-344h-89.375l44.6875-44.6875zm-100.6875 16h112v280h-16v48h-16v-48h-48v48h-16v-48h-16zm64 328h-16v-32h16zm-80-32h16v32h-16zm-64 0h16v32h-16zm-43.054688 80h35.054688v-16h-16v-16h320v16h-16v16h35.054688l8 16h-374.109376zm0 0"/><path d="m120 443.3125h256v16h-256zm0 0"/><path d="m480 475.3125h16v16h-16zm0 0"/><path d="m0 475.3125h16v16h-16zm0 0"/><path d="m272 99.3125h16v16h-16zm0 0"/><path d="m208 211.3125h16v16h-16zm0 0"/><path d="m240 243.3125h16v16h-16zm0 0"/></svg>