<svg height="496pt" viewBox="-104 0 496 496" width="496pt" xmlns="http://www.w3.org/2000/svg"><path d="m208 296v-16h-17.472656c-2.253906-6.320312-7-11.457031-13.136719-14.078125l6.609375-6.609375v-19.3125h-16v12.6875l-11.3125 11.3125h-25.375l-11.3125-11.3125v-12.6875h-16v19.3125l6.609375 6.609375c-6.136719 2.621094-10.882813 7.757813-13.136719 14.078125h-17.472656v16h16v16h-16v16h17.472656c3.3125 9.289062 12.113282 16 22.527344 16h48c10.414062 0 19.214844-6.710938 22.527344-16h17.472656v-16h-16v-16zm-32 24c0 4.40625-3.59375 8-8 8h-48c-4.40625 0-8-3.59375-8-8v-32c0-4.40625 3.59375-8 8-8h48c4.40625 0 8 3.59375 8 8zm0 0"/><path d="m288 304v-16h-16.40625c-1.824219-29.265625-13.464844-55.847656-31.746094-76.542969l11.625-11.625-11.3125-11.3125-11.625 11.625c-1.496094-1.320312-2.976562-2.648437-4.535156-3.90625v-164.238281h-48v-32h-64v32h-48v164.238281c-1.558594 1.257813-3.039062 2.585938-4.542969 3.90625l-11.625-11.625-11.3125 11.3125 11.625 11.625c-18.273437 20.695313-29.921875 47.277344-31.746093 76.542969h-16.398438v16h16.40625c1.824219 29.265625 13.464844 55.847656 31.746094 76.542969l-11.625 11.625 11.3125 11.3125 11.625-11.625c1.496094 1.320312 2.984375 2.65625 4.542968 3.90625v100.238281h160v-100.238281c1.558594-1.257813 3.039063-2.585938 4.542969-3.90625l11.625 11.625 11.3125-11.3125-11.625-11.625c18.273438-20.695313 29.921875-47.277344 31.746094-76.542969zm-32.40625-16h-16c-1.707031-20.464844-9.808594-39.105469-22.363281-53.929688l11.3125-11.308593c15.410156 17.765625 25.28125 40.375 27.050781 65.238281zm-111.59375 88c-44.113281 0-80-35.886719-80-80s35.886719-80 80-80 80 35.886719 80 80-35.886719 80-80 80zm64-240h-32v-16h32zm-48-16h-32v-16h32zm-48 16h-32v-16h32zm16 0h32v33.113281c-2.640625-.328125-5.3125-.539062-8-.707031v-16.40625h-16v16.40625c-2.6875.167969-5.359375.378906-8 .707031zm77.929688 86.761719c-14.816407-12.554688-33.464844-20.65625-53.929688-22.363281v-16c24.863281 1.769531 47.472656 11.640624 65.230469 27.050781zm-29.929688-50.546875v-20.214844h32v33.320312c-9.910156-5.753906-20.648438-10.167968-32-13.105468zm32-124.214844v56h-32v-56zm-48-32v72h-32v-72zm-48 32v56h-32v-56zm-32 104h32v20.214844c-11.351562 2.9375-22.089844 7.351562-32 13.105468zm56 32.40625v16c-20.464844 1.707031-39.105469 9.808594-53.929688 22.363281l-11.308593-11.3125c17.765625-15.410156 40.375-25.28125 65.238281-27.050781zm-76.542969 38.363281 11.3125 11.308594c-12.554687 14.816406-20.65625 33.464844-22.363281 53.929687h-16c1.769531-24.871093 11.640625-47.480468 27.050781-65.238281zm-27.050781 81.230469h16c1.707031 20.464844 9.808594 39.105469 22.363281 53.929688l-11.3125 11.308593c-15.410156-17.765625-25.28125-40.375-27.050781-65.238281zm79.59375 115.785156v28.214844h-32v-41.320312c9.910156 5.753906 20.648438 10.167968 32 13.105468zm16 28.214844v-25.113281c5.257812.664062 10.566406 1.113281 16 1.113281s10.742188-.449219 16-1.113281v25.113281zm32 16v16h-32v-16zm-80 0h32v16h-32zm96 16v-16h32v16zm32-32h-32v-28.214844c11.351562-2.9375 22.089844-7.351562 32-13.105468zm-64-40c-28.007812 0-53.574219-10.398438-73.230469-27.457031l11.308594-11.3125c16.730469 14.175781 38.328125 22.769531 61.921875 22.769531s45.191406-8.59375 61.929688-22.761719l11.308593 11.3125c-19.664062 17.050781-45.230469 27.449219-73.238281 27.449219zm84.542969-38.769531-11.3125-11.308594c12.554687-14.816406 20.65625-33.464844 22.363281-53.929687h16c-1.769531 24.871093-11.640625 47.480468-27.050781 65.238281zm0 0"/><path d="m136 296h16v16h-16zm0 0"/></svg>