<svg height="496pt" viewBox="0 0 496 496" width="496pt" xmlns="http://www.w3.org/2000/svg"><path d="m464 0h-31.367188c-13.265624 0-25.3125 8.34375-29.96875 20.769531l-12.320312 32.847657c-2.328125 6.214843-8.34375 10.382812-14.976562 10.382812h-10.550782c-15.824218 0-29.441406 11.816406-31.679687 27.472656l-4.128907 28.933594c-30.808593 3.488281-55.832031 29.800781-56.960937 61.242188-.640625 17.71875 5.839844 34.441406 18.25 47.078124 12.085937 12.320313 25.878906 27.160157 36.558594 43.824219l1.144531 1.792969v85.65625h-88v-29.046875c6.96875-8.144531 14.496094-14.863281 22.382812-19.96875 16.042969-10.367187 25.617188-27.9375 25.617188-46.984375 0-16.945312-7.542969-32.792969-20.703125-43.480469-13.152344-10.6875-30.394531-14.792969-47.289063-11.261719-21.359374 4.460938-38.59375 21.863282-42.863281 43.308594-3.121093 15.664063.359375 31.105469 9.03125 43.433594h-26.175781v-160.734375c0-6.335937-1.855469-12.480469-5.375-17.753906l-23.9375-35.902344c-1.757812-2.632813-2.6875-5.707031-2.6875-8.875v-40.734375c0-17.648438-14.351562-32-32-32h-38.703125c-13.800781 0-26 8.792969-30.351563 21.878906l-25.304687 75.898438c-1.089844 3.261718-1.640625 6.671875-1.640625 10.117187v268.105469h496v-344c0-17.648438-14.351562-32-32-32zm-162.289062 217.519531c-9.296876-9.480469-14.160157-22.007812-13.671876-35.296875.898438-25.070312 22.050782-45.808594 47.152344-46.214844.265625-.007812.535156-.007812.808594-.007812 12.679688 0 24.601562 4.871094 33.65625 13.777344 9.246094 9.09375 14.34375 21.246094 14.34375 34.222656 0 13.585938-5.824219 26.59375-15.96875 35.671875-8.269531 7.40625-16.214844 16.175781-24.03125 26.496094v-41.230469l27.574219-13.792969-7.160157-14.3125-20.414062 10.222657v-19.054688h-16v78.785156c-8.625-10.863281-17.855469-20.671875-26.289062-29.265625zm-245.710938 42.105469c-2.960938-3.976562-6.136719-7.785156-9.519531-11.386719-5.648438-6-7.726563-14.148437-5.71875-22.367187 2.039062-8.335938 9.023437-15.246094 17.382812-17.183594 1.984375-.464844 3.960938-.6875 5.902344-.6875 5.417969 0 10.546875 1.769531 14.855469 5.199219 5.785156 4.585937 9.097656 11.441406 9.097656 18.800781 0 5.695312-1.96875 11.015625-5.695312 15.375-3.570313 4.167969-7.023438 8.359375-10.304688 12.679688v-28.054688h-16zm23.199219 58.773438c3-4.007813 7.792969-6.398438 12.800781-6.398438h110.816406c7.078125 5.222656 14.695313 11.40625 21.183594 18.976562v29.023438h-176zm113.632812-62.710938c3.03125-15.238281 15.273438-27.609375 30.449219-30.777344 2.871094-.597656 5.757812-.894531 8.613281-.894531 9.226563 0 18.136719 3.089844 25.3125 8.921875 9.402344 7.636719 14.792969 18.957031 14.792969 31.0625 0 13.601562-6.839844 26.144531-18.304688 33.550781-4.710937 3.050781-9.269531 6.625-13.695312 10.585938v-23.191407l27.574219-13.792968-7.160157-14.3125-20.414062 10.214844v-19.054688h-16v60.472656c-5.335938-4.648437-10.671875-8.695312-15.289062-12-12.949219-9.289062-19.039063-24.914062-15.878907-40.785156zm-176.832031-147.792969c0-1.726562.28125-3.429687.824219-5.054687l25.304687-75.894532c2.175782-6.554687 8.269532-10.945312 15.167969-10.945312h38.703125c8.824219 0 16 7.175781 16 16v40.734375c0 6.335937 1.855469 12.480469 5.375 17.753906l23.9375 35.902344c1.757812 2.640625 2.6875 5.707031 2.6875 8.875v160.734375h-52c-7.320312 0-14.375 2.609375-20 7.113281v-13.015625l4.921875-8.753906c4.671875-8.304688 10.957031-15.878906 17.542969-23.566406 6.152344-7.191406 9.535156-16.34375 9.535156-25.777344 0-12.273438-5.519531-23.695312-15.136719-31.335938-9.625-7.640624-22.144531-10.390624-34.34375-7.558593-14.3125 3.320312-25.816406 14.6875-29.304687 28.972656-3.328125 13.585937.175781 27.121094 9.617187 37.136719 6.257813 6.648437 11.710938 14.082031 16.214844 22.082031l4.953125 8.800781v32.574219l-28 37.328125h-12zm432 177.050781 27.574219-13.792968-7.160157-14.3125-20.414062 10.214844v-19.054688h-16v60.472656c-5.335938-4.648437-10.671875-8.695312-15.289062-12-12.957032-9.28125-19.039063-24.90625-15.878907-40.777344 3.03125-15.238281 15.273438-27.605468 30.449219-30.773437 2.871094-.601563 5.757812-.898437 8.613281-.898437 9.226563 0 18.136719 3.089843 25.3125 8.921874 9.402344 7.628907 14.792969 18.949219 14.792969 31.054688 0 13.601562-6.839844 26.144531-18.304688 33.550781-4.710937 3.050781-9.269531 6.625-13.695312 10.585938zm0 75.054688v-29.046875c6.96875-8.144531 14.496094-14.863281 22.382812-19.96875 3.554688-2.296875 6.730469-5 9.617188-7.9375v56.953125zm27.296875-139.480469c-13.152344-10.6875-30.394531-14.792969-47.289063-11.261719-21.359374 4.460938-38.59375 21.863282-42.863281 43.308594-4.402343 22.113282 4.128907 43.921875 22.253907 56.914063 7.953124 5.695312 17.066406 12.703125 24.609374 21.496093v29.023438h-88.007812v-85.65625l1.167969-1.816406c11.167969-17.429688 21.832031-30.4375 33.535156-40.925782 13.535156-12.121093 21.296875-29.472656 21.296875-47.601562 0-17.296875-6.792969-33.503906-19.121094-45.632812-9.863281-9.710938-22.335937-15.65625-35.765625-17.597657l3.863281-27.035156c1.121094-7.832031 7.933594-13.734375 15.839844-13.734375h10.550782c13.265624 0 25.3125-8.34375 29.96875-20.769531l12.320312-32.847657c2.328125-6.214843 8.34375-10.382812 14.976562-10.382812h31.367188c8.824219 0 16 7.175781 16 16v192.808594c-1.480469-1.503906-3.046875-2.9375-4.703125-4.289063zm0 0"/><path d="m446.34375 424c-10.054688 0-14.664062-2.96875-20.488281-6.71875-6.75-4.351562-14.390625-9.28125-29.167969-9.28125-14.757812 0-22.40625 4.929688-29.152344 9.28125-5.816406 3.75-10.414062 6.71875-20.464844 6.71875-10.03125 0-14.628906-2.96875-20.445312-6.71875-6.746094-4.351562-14.378906-9.28125-29.128906-9.28125v16c10.03125 0 14.632812 2.96875 20.449218 6.71875 6.734376 4.351562 14.375 9.28125 29.125 9.28125 14.761719 0 22.402344-4.929688 29.144532-9.28125 5.824218-3.75 10.425781-6.71875 20.480468-6.71875 10.058594 0 14.664063 2.96875 20.496094 6.726562 6.746094 4.34375 14.382813 9.273438 29.152344 9.273438s22.417969-4.929688 29.160156-9.273438c5.832032-3.757812 10.441406-6.726562 20.496094-6.726562v-16c-14.769531 0-22.414062 4.929688-29.160156 9.273438-5.832032 3.757812-10.441406 6.726562-20.496094 6.726562zm0 0"/><path d="m49.542969 440c14.753906 0 22.386719-4.929688 29.128906-9.28125 5.816406-3.757812 10.40625-6.71875 20.449219-6.71875 10.039062 0 14.640625 2.96875 20.464844 6.71875 6.734374 4.34375 14.375 9.28125 29.132812 9.28125 14.761719 0 22.394531-4.929688 29.128906-9.28125 5.824219-3.757812 10.417969-6.71875 20.464844-6.71875v-16c-14.761719 0-22.390625 4.929688-29.136719 9.28125-5.824219 3.757812-10.414062 6.71875-20.457031 6.71875-10.039062 0-14.640625-2.96875-20.460938-6.71875-6.753906-4.351562-14.394531-9.28125-29.144531-9.28125-14.753906 0-22.386719 4.929688-29.128906 9.28125-5.816406 3.75-10.410156 6.71875-20.441406 6.71875-10.023438 0-14.613281-2.96875-20.429688-6.71875-6.738281-4.351562-14.371093-9.28125-29.113281-9.28125v16c10.023438 0 14.625 2.96875 20.433594 6.71875 6.734375 4.351562 14.367187 9.28125 29.109375 9.28125zm0 0"/><path d="m446.34375 480c-10.054688 0-14.664062-2.96875-20.488281-6.71875-6.75-4.351562-14.390625-9.28125-29.167969-9.28125-14.757812 0-22.40625 4.929688-29.152344 9.28125-5.816406 3.75-10.414062 6.71875-20.464844 6.71875-10.03125 0-14.628906-2.96875-20.445312-6.71875-6.746094-4.351562-14.378906-9.28125-29.128906-9.28125-14.761719 0-22.398438 4.929688-29.136719 9.28125-5.832031 3.75-10.421875 6.71875-20.472656 6.71875-10.039063 0-14.640625-2.96875-20.460938-6.71875-6.738281-4.351562-14.378906-9.28125-29.128906-9.28125-14.761719 0-22.394531 4.929688-29.136719 9.28125-5.816406 3.757812-10.417968 6.71875-20.457031 6.71875s-14.640625-2.96875-20.464844-6.71875c-6.734375-4.351562-14.375-9.28125-29.125-9.28125-14.753906 0-22.386719 4.929688-29.128906 9.28125-5.816406 3.75-10.410156 6.71875-20.441406 6.71875-10.023438 0-14.613281-2.96875-20.429688-6.71875-6.738281-4.351562-14.371093-9.28125-29.113281-9.28125v16c10.023438 0 14.625 2.96875 20.433594 6.71875 6.734375 4.351562 14.367187 9.28125 29.109375 9.28125 14.753906 0 22.386719-4.929688 29.128906-9.28125 5.816406-3.757812 10.40625-6.71875 20.449219-6.71875 10.039062 0 14.640625 2.96875 20.464844 6.71875 6.734374 4.34375 14.375 9.28125 29.132812 9.28125 14.761719 0 22.394531-4.929688 29.128906-9.28125 5.824219-3.757812 10.417969-6.71875 20.464844-6.71875 10.039062 0 14.640625 2.96875 20.457031 6.71875 6.742188 4.34375 14.375 9.28125 29.132813 9.28125 14.761718 0 22.402344-4.929688 29.144531-9.28125 5.824219-3.757812 10.425781-6.71875 20.464844-6.71875 10.03125 0 14.632812 2.96875 20.449219 6.71875 6.71875 4.351562 14.359374 9.28125 29.109374 9.28125 14.761719 0 22.402344-4.929688 29.144532-9.28125 5.824218-3.75 10.425781-6.71875 20.480468-6.71875 10.058594 0 14.664063 2.96875 20.496094 6.726562 6.746094 4.34375 14.382813 9.273438 29.152344 9.273438s22.417969-4.929688 29.160156-9.273438c5.832032-3.757812 10.441406-6.726562 20.496094-6.726562v-16c-14.769531 0-22.414062 4.929688-29.160156 9.273438-5.832032 3.757812-10.441406 6.726562-20.496094 6.726562zm0 0"/><path d="m448 176h16v16h-16zm0 0"/><path d="m416 136h16v16h-16zm0 0"/><path d="m432 104h16v16h-16zm0 0"/><path d="m56 48h16v16h-16zm0 0"/><path d="m80 80h16v16h-16zm0 0"/><path d="m32 120h16v16h-16zm0 0"/><path d="m112 176h16v16h-16zm0 0"/></svg>