<svg height="480pt" viewBox="0 -36 480 480" width="480pt" xmlns="http://www.w3.org/2000/svg"><path d="m432 40h48v32h-48zm0 0" fill="#534741"/><path d="m0 40h128v32h-128zm0 0" fill="#534741"/><path d="m88 72v272h40v-272zm0 0" fill="#81d0d3"/><path d="m104 8h305.335938c12.515624.003906 22.660156 10.148438 22.664062 22.664062v369.335938h-304v-368c0-13.253906-10.746094-24-24-24zm0 0" fill="#d4eded"/><path d="m128 248h304v104h-304zm0 0" fill="#06aae9"/><path d="m88 192h40v104h-40zm0 0" fill="#0378a3"/><path d="m128 40v-12c0-11.046875-8.953125-20-20-20s-20 8.953125-20 20v12zm0 0" fill="#81d0d3"/><path d="m440 30.664062c-.023438-16.925781-13.738281-30.6406245-30.664062-30.664062h-305.335938v.40625c-13.742188 1.964844-23.960938 13.714844-24 27.59375v4h-80v16h120v16h-120v16h80v264c0 4.417969 3.582031 8 8 8h32v48c0 4.417969 3.582031 8 8 8h304c4.417969 0 8-3.582031 8-8v-320h40v-16h-40v-16h40v-16h-40zm-16 0v209.335938h-288v-212c-.023438-4.160156-.984375-8.261719-2.808594-12h276.144532c8.09375.007812 14.65625 6.570312 14.664062 14.664062zm-304 257.335938h-24v-88h24zm16-32h288v88h-288zm-40-224v-4c0-6.628906 5.371094-12 12-12s12 5.371094 12 12v4zm24 48v104h-24v-104zm-24 256v-32h24v32zm40 56v-32h288v32zm0 0"/></svg>