<svg height="480pt" viewBox="-120 0 480 480" width="480pt" xmlns="http://www.w3.org/2000/svg"><path d="m16 16h208v104h-208zm0 0" fill="#a67c52"/><path d="m240 136h-240v-136h240zm-224-16h208v-104h-208zm0 0" fill="#c69c6d"/><path d="m16 304h208v160h-208zm0 0" fill="#a67c52"/><path d="m240 480h-240v-192h240zm-224-16h208v-160h-208zm0 0" fill="#c69c6d"/><path d="m16 136h208v152h-208zm0 0" fill="#a67c52"/><path d="m240 304h-240v-184h240zm-224-16h208v-152h-208zm0 0" fill="#c69c6d"/><path d="m48 264h104v24h-104zm0 0" fill="#29485a"/><path d="m64 232h104v32h-104zm0 0" fill="#f29200"/><path d="m24 200h104v32h-104zm0 0" fill="#29485a"/><path d="m40 40h32v80h-32zm0 0" fill="#008fcf"/><path d="m40 384h32v80h-32zm0 0" fill="#ed242d"/><path d="m136 380.886719h32v83.113281h-32zm0 0" fill="#acdee0"/><path d="m168 380.886719h32v83.113281h-32zm0 0" fill="#226c8a"/><path d="m72 328h32v136h-32zm0 0" fill="#754c24"/><path d="m104 328h32v136h-32zm0 0" fill="#008fcf"/><path d="m72 40h32v80h-32zm0 0" fill="#2f7a92"/><path d="m104 40h32v80h-32zm0 0" fill="#008fcf"/><path d="m136 40h32v80h-32zm0 0" fill="#2f7a92"/><path d="m200 208h24v80h-24zm0 0" fill="#ffcd34"/><path d="m168 40h32v80h-32zm0 0" fill="#008fcf"/><path d="m0 480h240v-480h-240zm48-16v-72h16v72zm32 0v-128h16v128zm32 0v-128h16v128zm32 0v-72h16v72zm32 0v-72h16v72zm48 0h-16v-88h-64v-56h-80v56h-32v88h-16v-160h208zm-80-176h-88v-16h88zm-72-32v-16h88v16zm48-32h-88v-16h88zm-64 16v16h-16v32h-24v-48zm152 48v-72h16v72zm16-88h-32v88h-32v-16h16v-48h-40v-32h-120v-56h208zm-32-80h-16v-72h16zm-32 0h-16v-72h16zm-32 0h-16v-72h16zm-32 0h-16v-72h16zm-32 0h-16v-72h16zm160-104v104h-16v-88h-176v88h-16v-104zm0 0"/></svg>