<svg height="479pt" viewBox="-71 1 479 479.99981" width="479pt" xmlns="http://www.w3.org/2000/svg"><path d="m205.171875 448c-6.355469 14.589844-20.757813 24.027344-36.671875 24.027344s-30.316406-9.4375-36.671875-24.027344" fill="#f8cf26"/><path d="m288.5 168c.023438-52.863281-34.554688-99.515625-85.136719-114.875-50.585937-15.359375-105.261719 4.195312-134.636719 48.148438-29.371093 43.957031-26.519531 101.953124 7.019532 142.816406 23.769531 28.914062 36.761718 65.183594 36.753906 102.613281v5.296875h112v-5.257812c.523438-38.085938 13.949219-74.875 38.089844-104.34375 16.808594-21.152344 25.941406-47.378907 25.910156-74.398438zm0 0" fill="#c0e5e7"/><path d="m212.125 100.96875c-6.722656-4.398438-14.074219-7.75-21.800781-9.945312l4.351562-15.390626c9.289063 2.628907 18.121094 6.65625 26.199219 11.941407zm0 0" fill="#f2f2f2"/><path d="m88.5625 164.703125-16-.640625c2.257812-49.589844 41.777344-89.371094 91.351562-91.949219 1.523438-.113281 3.058594-.113281 4.585938-.113281v16c-1.265625 0-2.527344 0-3.816406.097656-41.304688 2.140625-74.238282 35.289063-76.121094 76.605469zm0 0" fill="#f2f2f2"/><path d="m162.445312 40.144531c-48.332031 2.300781-91.234374 31.660157-110.878906 75.878907-19.648437 44.214843-12.683594 95.730468 17.996094 133.144531 22.570312 27.496093 34.914062 61.964843 34.9375 97.535156v13.296875h128v-13.257812c.457031-36.28125 13.277344-71.328126 36.351562-99.335938 31.117188-39.339844 36.386719-93.234375 13.480469-137.859375-22.910156-44.625-69.773437-71.757813-119.878906-69.402344zm-9.945312 303.855469v-128h32v128zm103.824219-106.535156c-24.722657 30.113281-38.730469 67.589844-39.824219 106.535156h-16v-144h-64v144h-16c-.636719-38.34375-14.222656-75.347656-38.550781-104.992188-31.320313-38.132812-33.988281-92.273437-6.574219-133.304687s78.453125-59.285156 125.671875-44.945313c47.21875 14.339844 79.484375 57.894532 79.453125 107.242188.09375 25.234375-8.4375 49.742188-24.175781 69.464844zm0 0"/><path d="m190.324219 91.023438c7.726562 2.195312 15.078125 5.546874 21.800781 9.945312l8.75-13.394531c-8.078125-5.285157-16.910156-9.3125-26.199219-11.941407zm0 0"/><path d="m72.578125 164.0625 16 .640625c1.882813-41.316406 34.816406-74.464844 76.121094-76.605469 1.273437-.097656 2.535156-.097656 3.800781-.097656v-16c-1.527344 0-3.0625 0-4.585938.113281-49.566406 2.585938-89.078124 42.367188-91.335937 91.949219zm0 0"/><path d="m104.5 376h128v16h-128zm0 0"/><path d="m104.5 408h128v16h-128zm0 0"/><path d="m104.5 456h22.527344c8.53125 14.847656 24.347656 24 41.472656 24s32.941406-9.152344 41.472656-24h22.527344v-16h-128zm64 8c-7.796875 0-15.320312-2.84375-21.167969-8h42.335938c-5.847657 5.15625-13.375 8-21.167969 8zm0 0"/><path d="m160.5 0h16v24h-16zm0 0"/><path d="m250.847656 42.34375 15.996094-16 11.316406 11.316406-16 15.996094zm0 0"/><path d="m312.5 120h24v16h-24zm0 0"/><path d="m58.84375 37.65625 11.3125-11.316406 16 16-11.316406 11.3125zm0 0"/><path d="m.5 120h24v16h-24zm0 0"/></svg>