<svg height="480pt" viewBox="-40 0 480 480" width="480pt" xmlns="http://www.w3.org/2000/svg"><path d="m8 8h384v424h-384zm0 0" fill="#a67c52"/><path d="m200 8h192v200h-192zm0 0" fill="#754c24"/><path d="m392 432v40h-32c-10.242188-10.246094-24.136719-16-38.625-16h-242.75c-14.488281 0-28.382812 5.753906-38.625 16h-32v-40zm0 0" fill="#754c24"/><path d="m200 208h192v224h-192zm0 0" fill="#8c6239"/><path d="m232 336h128v64h-128zm0 0" fill="#a67c52"/><path d="m232 240h128v64h-128zm0 0" fill="#a67c52"/><path d="m88 40c26.507812 0 48 21.492188 48 48v264c0 26.507812-21.492188 48-48 48s-48-21.492188-48-48v-264c0-26.507812 21.492188-48 48-48zm0 0" fill="#00c9dd"/><path d="m136 104-96 96v24l96-96zm0 0" fill="#06aae9"/><path d="m136 168-96 96v64l96-96zm0 0" fill="#06aae9"/><path d="m45.65625 477.65625c8.722656-8.773438 20.59375-13.691406 32.96875-13.65625h242.75c12.375-.035156 24.246094 4.882812 32.96875 13.65625l2.34375 2.34375h43.3125v-480h-400v480h43.3125zm162.34375-261.65625h176v208h-176zm176-16h-176v-184h176zm-368-184h176v408h-176zm0 448v-24h368v24h-20.800781c-11.464844-10.34375-26.367188-16.046875-41.808594-16h-242.765625c-15.445312-.050781-30.355469 5.652344-41.824219 16zm0 0"/><path d="m224 408h144v-80h-144zm16-64h112v48h-112zm0 0"/><path d="m280 360h32v16h-32zm0 0"/><path d="m224 312h144v-80h-144zm16-64h112v48h-112zm0 0"/><path d="m280 264h32v16h-32zm0 0"/><path d="m224 48h16v120h-16zm0 0"/><path d="m160 80h16v296h-16zm0 0"/><path d="m88 32c-30.914062.035156-55.964844 25.085938-56 56v264c0 30.929688 25.070312 56 56 56s56-25.070312 56-56v-264c-.035156-30.914062-25.085938-55.964844-56-56zm40 320c0 22.089844-17.910156 40-40 40s-40-17.910156-40-40v-264c0-22.089844 17.910156-40 40-40s40 17.910156 40 40zm0 0"/></svg>