<svg height="496pt" viewBox="-8 0 496 496" width="496pt" xmlns="http://www.w3.org/2000/svg"><path d="m200 456v-22.089844c.152344-8.683594 7.316406-15.601562 16-15.453125 8.683594-.148437 15.847656 6.769531 16 15.453125v30.089844" fill="#29485a"/><path d="m112 256v77.457031c1.226562 69.476563 58.523438 124.816407 128 123.632813v30.910156h-160v-240zm0 0" fill="#06aae9"/><path d="m111.054688 160.71875 112.945312-112.71875 16 24-104 104zm0 0" fill="#06aae9"/><path d="m304 168 44 44c15.464844 15.460938 40.535156 15.460938 56 0 15.460938-15.464844 15.460938-40.535156 0-56l-44-44" fill="#ff0"/><path d="m152 208c0 26.507812-21.492188 48-48 48s-48-21.492188-48-48 21.492188-48 48-48 48 21.492188 48 48zm0 0" fill="#0071bc"/><path d="m120 208c0 8.835938-7.164062 16-16 16s-16-7.164062-16-16 7.164062-16 16-16 16 7.164062 16 16zm0 0" fill="#29485a"/><path d="m261.601562 69.601562c18.085938-18.089843 47.410157-18.089843 65.496094 0l40.902344 40.902344-65.496094 65.496094-40.902344-40.9375c-18.066406-18.082031-18.066406-47.378906 0-65.460938zm0 0" fill="#06aae9"/><path d="m256 88-36-36c-6.625-6.628906-6.625-17.371094 0-24 6.628906-6.625 17.371094-6.625 24 0l36 36" fill="#0071bc"/><path d="m72 253.886719v234.113281c0 4.417969 3.582031 8 8 8h160c4.417969 0 8-3.582031 8-8v-30.910156c0-4.421875-3.582031-8-8-8v-15.203125c0-13.253907-10.746094-24-24-24s-24 10.746093-24 24v5.457031c-43.128906-17.59375-71.503906-59.332031-72-105.910156v-71.792969c17.550781-5.1875 31.445312-18.644531 37.1875-36.023437 5.746094-17.375 2.613281-36.460938-8.386719-51.089844l91.199219-91.214844 2.550781 2.550781c-6.148437 19.347657-.996093 40.503907 13.359375 54.855469l40.890625 40.9375c2.722657 2.820312 7.136719 3.136719 10.230469.726562l35.273438 35.273438c18.648437 18.21875 48.484374 18.046875 66.921874-.390625 18.4375-18.433594 18.609376-48.273437.390626-66.921875l-35.21875-35.273438c2.410156-3.09375 2.097656-7.507812-.726563-10.230468l-40.953125-40.929688c-14.351562-14.355468-35.507812-19.507812-54.855469-13.359375l-28.207031-28.207031c-8.601562-8.714844-22.265625-9.886719-32.222656-2.757812-9.957032 7.128906-13.253906 20.4375-7.777344 31.390624l-101.410156 101.238282c-1.40625-.101563-2.8125-.214844-4.246094-.214844-24.464844-.023438-46.105469 15.847656-53.4375 39.1875-7.328125 23.339844 1.351562 48.734375 21.4375 62.699219zm136 180c0-4.417969 3.582031-8 8-8s8 3.582031 8 8v14.023437c-5.398438-.695312-10.742188-1.742187-16-3.140625zm24 30.953125v15.160156h-144v-218.359375c5.1875 1.574219 10.578125 2.382813 16 2.398437v69.457032c1.1875 70.757812 57.296875 128.34375 128 131.367187zm175.601562-280.839844c.019532 8.386719-3.3125 16.429688-9.257812 22.34375-12.503906 11.9375-32.183594 11.9375-44.6875 0l-35.097656-35.097656 44.6875-44.6875 35.097656 35.097656c5.945312 5.914062 9.277344 13.957031 9.257812 22.34375zm-86.195312-108.800781 35.28125 35.28125-54.191406 54.183593-35.296875-35.257812c-14.96875-14.96875-14.96875-39.238281 0-54.207031s39.238281-14.96875 54.207031 0zm-95.75-41.597657c3.507812-3.5 9.179688-3.5 12.6875 0l24.472656 24.46875c-4.945312 3.449219-9.238281 7.746094-12.6875 12.691407l-24.472656-24.417969c-3.496094-3.507812-3.496094-9.179688 0-12.6875zm-5.65625 29.703126 8.6875 8.695312-91.199219 91.199219c-3.425781-2.589844-7.140625-4.769531-11.074219-6.503907zm-116 104.695312c22.089844 0 40 17.910156 40 40s-17.910156 40-40 40-40-17.910156-40-40c.027344-22.082031 17.917969-39.972656 40-40zm0 0"/><path d="m104 232c13.253906 0 24-10.746094 24-24s-10.746094-24-24-24-24 10.746094-24 24 10.746094 24 24 24zm0-32c4.417969 0 8 3.582031 8 8s-3.582031 8-8 8-8-3.582031-8-8 3.582031-8 8-8zm0 0"/><path d="m434.34375 253.664062 11.3125-11.316406 32 32.003906-11.3125 11.3125zm0 0"/><path d="m448 184h32v16h-32zm0 0"/><path d="m376 264h16v32h-16zm0 0"/></svg>