<svg height="480pt" viewBox="-76 0 480 480" width="480pt" xmlns="http://www.w3.org/2000/svg"><path d="m320 328v144h-32v-144" fill="#998675"/><path d="m200 288v-152c0-70.695312-42.984375-128-96-128s-96 57.304688-96 128v336h32v-144" fill="#998675"/><path d="m168 128v128h-128v-123.550781c0-51.058594 28.65625-92.449219 64-92.449219s64 41.390625 64 92.449219zm0 0" fill="#06aae9"/><path d="m40 160v96h8l120-120v-3.550781c.832031-27.179688-8.464844-53.695313-26.089844-74.402344zm0 0" fill="#0378a3"/><g fill="#534741"><path d="m200 288h120v48h-312v-48z"/><path d="m200 128h72v32h-72"/><path d="m200 208h104v32h-104"/></g><path d="m128 304h64v16h-64zm0 0" fill="#e6e6e6"/><path d="m96.800781 368h134.398438c13.09375-.554688 24.179687 9.574219 24.800781 22.664062v9.335938h-184v-9.335938c.621094-13.089843 11.707031-23.21875 24.800781-22.664062zm0 0" fill="#c1272d"/><path d="m72 400v48h184v-48" fill="#998675"/><path d="m72 448v24h32v-24" fill="#534741"/><path d="m224 448v24h32v-24" fill="#534741"/><path d="m175.839844 128c-1.6875-53.320312-33.214844-96-71.839844-96s-70.152344 42.679688-71.839844 96h-.160156v128c0 4.417969 3.582031 8 8 8h128c4.417969 0 8-3.582031 8-8v-128zm-15.839844 4.6875-112 112v-81.375l93.457031-93.457031c12.550781 18.421875 19.035157 40.304687 18.542969 62.59375zm-56-84.6875c9.765625.167969 19.160156 3.753906 26.558594 10.128906l-82.558594 82.558594v-8.238281c0-46.570313 25.121094-84.449219 56-84.449219zm-36.6875 200 92.6875-92.6875v92.6875zm0 0"/><path d="m272 168c4.417969 0 8-3.582031 8-8v-32c0-4.417969-3.582031-8-8-8h-64.800781c-6.070313-67.464844-50-120-103.199219-120-57.34375 0-104 61.007812-104 136v336c0 4.417969 3.582031 8 8 8h32c4.417969 0 8-3.582031 8-8v-128h232v128c0 4.417969 3.582031 8 8 8h32c4.417969 0 8-3.582031 8-8v-184c0-4.417969-3.582031-8-8-8h-112v-32h96c4.417969 0 8-3.582031 8-8v-32c0-4.417969-3.582031-8-8-8h-96v-32zm-8-32v16h-56v-16zm-232 328h-16v-120h16zm264 0v-120h16v120zm16-136h-296v-32h296zm-296-48v-144c0-66.167969 39.480469-120 88-120s88 53.832031 88 120v144zm280-64v16h-88v-16zm0 0"/><path d="m128 304h64v16h-64zm0 0"/><path d="m224 480h32c4.417969 0 8-3.582031 8-8v-81.335938c-.636719-17.503906-15.292969-31.203124-32.800781-30.664062h-134.398438c-17.507812-.539062-32.164062 13.160156-32.800781 30.664062v81.335938c0 4.417969 3.582031 8 8 8h32c4.417969 0 8-3.582031 8-8v-16h104v16c0 4.417969 3.582031 8 8 8zm8-16v-8h16v8zm-152-56h168v32h-168zm0-17.335938c.644531-8.660156 8.132812-15.195312 16.800781-14.664062h134.398438c8.667969-.53125 16.15625 6.003906 16.800781 14.664062v1.335938h-168zm16 73.335938h-16v-8h16zm0 0"/></svg>