<svg height="480pt" viewBox="-73 0 480 480.00004" width="480pt" xmlns="http://www.w3.org/2000/svg"><path d="m325.945312 152.441406c1.996094 17.441406 1.089844 35.089844-2.671874 52.238282-17.039063 72.261718-81.535157 123.316406-155.777344 123.316406-74.238282 0-138.734375-51.054688-155.773438-123.316406-3.761718-17.148438-4.667968-34.796876-2.671875-52.238282l13.894531-138.960937c.316407-3.113281 2.9375-5.480469 6.066407-5.480469h276.972656c3.128906 0 5.75 2.367188 6.066406 5.480469zm0 0" fill="#c0e5e7"/><path d="m279.496094 8 14.601562 147.625c1.636719 13.929688.964844 28.03125-1.984375 41.742188-13.574219 57.859374-65.1875 98.761718-124.617187 98.761718-59.425782 0-111.039063-40.902344-124.613282-98.761718-2.949218-13.714844-3.621093-27.824219-1.984374-41.757813l14.597656-147.609375" fill="#d4eded"/><path d="m183.496094 328h-32v76.617188c.003906 16.78125-9.476563 32.125-24.484375 39.628906l-49.832031 24.914062c-.628907.308594-.960938 1.007813-.800782 1.6875.160156.679688.773438 1.160156 1.472656 1.152344h179.292969c.699219.007812 1.3125-.472656 1.472657-1.152344.160156-.679687-.171876-1.378906-.800782-1.6875l-49.832031-24.914062c-15.007813-7.503906-24.488281-22.847656-24.488281-39.628906v-76.617188h-32" fill="#c0e5e7"/><path d="m331.058594 206.503906c3.960937-18.007812 4.921875-36.542968 2.847656-54.863281l-13.90625-138.953125c-.695312-7.207031-6.761719-12.703125-14.007812-12.6875h-276.992188c-7.242188-.015625-13.308594 5.480469-14.007812 12.6875l-13.894532 138.953125c-10.382812 89.53125 53.03125 170.820313 142.398438 182.535156v70.441407c.050781 13.765624-7.734375 26.359374-20.070313 32.472656l-49.839843 24.917968c-3.929688 1.980469-5.988282 6.398438-4.972657 10.679688s4.835938 7.308594 9.238281 7.3125h179.292969c4.40625-.003906 8.226563-3.035156 9.238281-7.320312 1.011719-4.285157-1.050781-8.707032-4.988281-10.679688l-49.824219-24.910156c-12.335937-6.113282-20.121093-18.707032-20.074218-32.472656v-70.402344c68.46875-9.582032 123.957031-60.359375 139.5625-127.710938zm-311.5625-3.65625c-3.550782-16.285156-4.394532-33.039062-2.503906-49.601562l13.746093-137.246094h273.558594l13.730469 137.230469c7.972656 79.523437-47.152344 151.578125-125.992188 164.679687-78.839844 13.101563-154.308594-37.25-172.480468-115.078125zm156 133.152344v68.617188c-.070313 19.832031 11.144531 37.976562 28.914062 46.78125l25.207032 12.601562h-124.238282l25.207032-12.601562c17.769531-8.804688 28.984374-26.949219 28.910156-46.78125v-68.617188zm0 0"/><path d="m299.90625 199.199219c3.140625-14.566407 3.867188-29.554688 2.152344-44.359375l-12.28125-122.839844h-244.558594l-12.28125 122.824219c-1.714844 14.808593-.988281 29.800781 2.152344 44.375 14.496094 61.402343 69.308594 104.78125 132.398437 104.78125 63.09375 0 117.90625-43.378907 132.402344-104.78125zm-249.207031-3.65625c-2.742188-12.855469-3.355469-26.074219-1.808594-39.125l10.808594-108.417969h215.597656l10.839844 108.425781c1.546875 13.046875.933593 26.261719-1.808594 39.109375-12.796875 54.175782-61.160156 92.449219-116.832031 92.449219-55.667969 0-104.03125-38.273437-116.832032-92.449219zm0 0"/><path d="m268.746094 191.855469c2.414062-11.140625 2.976562-22.601563 1.664062-33.925781l-3.871094-38.730469-15.921874 1.601562 3.871093 38.710938c5.320313 43.21875-22.632812 83.550781-64.964843 93.746093l3.949218 15.503907c37.511719-9.523438 66.558594-39.199219 75.273438-76.90625zm0 0"/></svg>